<svg xmlns="http://www.w3.org/2000/svg" width="44" height="26" viewBox="0 0 44 26" fill="none"><path d="M21.15 0.947021C20.4951 0.950957 19.8681 1.21288 19.405 1.67599C18.9419 2.13911 18.6799 2.76609 18.676 3.42102H6.13301C5.89958 2.76067 5.44022 2.20411 4.83612 1.8497C4.23202 1.49529 3.52208 1.36585 2.83177 1.48427C2.14146 1.60268 1.51524 1.96133 1.0638 2.49681C0.612352 3.03229 0.364746 3.71013 0.364746 4.41052C0.364746 5.11091 0.612352 5.78875 1.0638 6.32423C1.51524 6.85972 2.14146 7.21836 2.83177 7.33678C3.52208 7.45519 4.23202 7.32576 4.83612 6.97134C5.44022 6.61693 5.89958 6.06037 6.13301 5.40002H14.487C12.157 6.6869 10.1891 8.54041 8.76509 10.7892C7.3411 13.038 6.50704 15.6095 6.34 18.266H6.30501C5.65007 18.27 5.02309 18.5319 4.55997 18.995C4.09686 19.4581 3.83494 20.0851 3.83101 20.74V22.719C3.83494 23.374 4.09686 24.0009 4.55997 24.4641C5.02309 24.9272 5.65007 25.1891 6.30501 25.193H8.28401C8.93894 25.1891 9.56592 24.9272 10.029 24.4641C10.4922 24.0009 10.7541 23.374 10.758 22.719V20.74C10.7537 20.0921 10.497 19.4714 10.0423 19.0098C9.58757 18.5482 8.97079 18.2821 8.32301 18.268C8.52909 15.3664 9.64385 12.6033 11.5091 10.371C13.3743 8.13872 15.8952 6.55058 18.714 5.83202C18.8187 6.40269 19.1192 6.91899 19.5637 7.29192C20.0082 7.66484 20.5688 7.87104 21.149 7.87502H23.128C23.7082 7.87104 24.2688 7.66484 24.7133 7.29192C25.1578 6.91899 25.4583 6.40269 25.563 5.83202C28.3817 6.55086 30.9024 8.13907 32.7676 10.3713C34.6328 12.6035 35.7476 15.3664 35.954 18.268C35.3062 18.2821 34.6894 18.5482 34.2347 19.0098C33.78 19.4714 33.5233 20.0921 33.519 20.74V22.719C33.5229 23.374 33.7849 24.0009 34.248 24.4641C34.7111 24.9272 35.3381 25.1891 35.993 25.193H37.972C38.6269 25.1891 39.2539 24.9272 39.717 24.4641C40.1802 24.0009 40.4421 23.374 40.446 22.719V20.74C40.4421 20.0851 40.1802 19.4581 39.717 18.995C39.2539 18.5319 38.6269 18.27 37.972 18.266H37.937C37.7702 15.6106 36.9372 13.0399 35.5149 10.7913C34.0926 8.54273 32.1268 6.68859 29.799 5.40002H34.013C34.1456 5.40424 34.2777 5.38177 34.4014 5.33394C34.5251 5.28611 34.638 5.2139 34.7333 5.1216C34.8286 5.0293 34.9043 4.91878 34.9561 4.79663C35.0078 4.67448 35.0345 4.54318 35.0345 4.41052C35.0345 4.27787 35.0078 4.14657 34.9561 4.02441C34.9043 3.90226 34.8286 3.79175 34.7333 3.69945C34.638 3.60715 34.5251 3.53494 34.4014 3.48711C34.2777 3.43928 34.1456 3.41681 34.013 3.42102H25.603C25.5991 2.76609 25.3372 2.13911 24.874 1.67599C24.4109 1.21288 23.7839 0.950957 23.129 0.947021H21.15ZM40.943 1.44202C40.3296 1.44444 39.7317 1.63569 39.2308 1.98976C38.7298 2.34383 38.35 2.84355 38.143 3.42102H36.984C36.727 3.42919 36.4833 3.53702 36.3044 3.72169C36.1255 3.90637 36.0255 4.15341 36.0255 4.41052C36.0255 4.66764 36.1255 4.91467 36.3044 5.09935C36.4833 5.28403 36.727 5.39185 36.984 5.40002H38.146C38.3276 5.91276 38.6467 6.36573 39.0683 6.70944C39.4899 7.05315 39.9978 7.27439 40.5366 7.34898C41.0755 7.42358 41.6244 7.34866 42.1235 7.13242C42.6227 6.91618 43.0528 6.56694 43.3669 6.12283C43.681 5.67873 43.867 5.15684 43.9046 4.61418C43.9422 4.07153 43.8299 3.52897 43.5801 3.04579C43.3302 2.56261 42.9524 2.15737 42.4879 1.87436C42.0233 1.59135 41.49 1.44145 40.946 1.44102L40.943 1.44202ZM21.15 2.92702H23.129C23.1945 2.92508 23.2598 2.93656 23.3207 2.96075C23.3816 2.98495 23.437 3.02133 23.4833 3.06769C23.5297 3.11404 23.5661 3.1694 23.5903 3.23033C23.6145 3.29126 23.6259 3.3565 23.624 3.42203V5.40102C23.6259 5.46655 23.6145 5.53178 23.5903 5.59271C23.5661 5.65364 23.5297 5.709 23.4833 5.75536C23.437 5.80171 23.3816 5.8381 23.3207 5.86229C23.2598 5.88648 23.1945 5.89796 23.129 5.89603H21.15C21.0845 5.89796 21.0192 5.88648 20.9583 5.86229C20.8974 5.8381 20.842 5.80171 20.7957 5.75536C20.7493 5.709 20.7129 5.65364 20.6887 5.59271C20.6645 5.53178 20.6531 5.46655 20.655 5.40102V3.42203C20.6529 3.35642 20.6643 3.29106 20.6884 3.23001C20.7126 3.16896 20.7489 3.1135 20.7953 3.06703C20.8417 3.02057 20.8971 2.98409 20.9581 2.95984C21.0191 2.93559 21.0844 2.92507 21.15 2.92702ZM3.336 3.42203C3.53181 3.42203 3.72321 3.48008 3.88602 3.58887C4.04882 3.69765 4.17572 3.85226 4.25065 4.03316C4.32558 4.21406 4.34518 4.41312 4.30698 4.60516C4.26878 4.7972 4.17449 4.97361 4.03604 5.11206C3.89759 5.25051 3.72119 5.3448 3.52914 5.383C3.3371 5.4212 3.13805 5.40159 2.95715 5.32666C2.77625 5.25173 2.62163 5.12484 2.51285 4.96204C2.40407 4.79923 2.34601 4.60782 2.34601 4.41202C2.34385 4.28137 2.36797 4.15162 2.41694 4.03047C2.46592 3.90933 2.53874 3.79926 2.63109 3.70682C2.72344 3.61437 2.83344 3.54144 2.95453 3.49234C3.07562 3.44324 3.20535 3.41899 3.336 3.42102V3.42203ZM40.943 3.42203C41.1388 3.42203 41.3302 3.48008 41.493 3.58887C41.6558 3.69765 41.7827 3.85226 41.8576 4.03316C41.9326 4.21406 41.9522 4.41312 41.914 4.60516C41.8758 4.7972 41.7815 4.97361 41.643 5.11206C41.5046 5.25051 41.3282 5.3448 41.1361 5.383C40.9441 5.4212 40.745 5.40159 40.5641 5.32666C40.3832 5.25173 40.2286 5.12484 40.1199 4.96204C40.0111 4.79923 39.953 4.60782 39.953 4.41202C39.9508 4.28137 39.975 4.15162 40.0239 4.03047C40.0729 3.90933 40.1457 3.79926 40.2381 3.70682C40.3304 3.61437 40.4404 3.54144 40.5615 3.49234C40.6826 3.44324 40.8124 3.41899 40.943 3.42102V3.42203ZM6.30501 20.247H8.28401C8.34953 20.2451 8.41477 20.2566 8.4757 20.2808C8.53663 20.305 8.59198 20.3413 8.63833 20.3877C8.68469 20.4341 8.72108 20.4894 8.74527 20.5503C8.76946 20.6113 8.78094 20.6765 8.77901 20.742V22.721C8.78094 22.7866 8.76946 22.8518 8.74527 22.9127C8.72108 22.9737 8.68469 23.029 8.63833 23.0753C8.59198 23.1217 8.53663 23.1581 8.4757 23.1823C8.41477 23.2065 8.34953 23.218 8.28401 23.216H6.30501C6.23948 23.218 6.17424 23.2065 6.11331 23.1823C6.05238 23.1581 5.99703 23.1217 5.95068 23.0753C5.90432 23.029 5.86793 22.9737 5.84374 22.9127C5.81955 22.8518 5.80807 22.7866 5.81001 22.721V20.742C5.80807 20.6765 5.81955 20.6113 5.84374 20.5503C5.86793 20.4894 5.90432 20.4341 5.95068 20.3877C5.99703 20.3413 6.05238 20.305 6.11331 20.2808C6.17424 20.2566 6.23948 20.2451 6.30501 20.247ZM35.995 20.247H37.974C38.0395 20.2451 38.1048 20.2566 38.1657 20.2808C38.2266 20.305 38.282 20.3413 38.3283 20.3877C38.3747 20.4341 38.4111 20.4894 38.4353 20.5503C38.4595 20.6113 38.4709 20.6765 38.469 20.742V22.721C38.4709 22.7866 38.4595 22.8518 38.4353 22.9127C38.4111 22.9737 38.3747 23.029 38.3283 23.0753C38.282 23.1217 38.2266 23.1581 38.1657 23.1823C38.1048 23.2065 38.0395 23.218 37.974 23.216H35.995C35.9295 23.218 35.8642 23.2065 35.8033 23.1823C35.7424 23.1581 35.687 23.1217 35.6407 23.0753C35.5943 23.029 35.5579 22.9737 35.5337 22.9127C35.5095 22.8518 35.4981 22.7866 35.5 22.721V20.742C35.4981 20.6765 35.5095 20.6113 35.5337 20.5503C35.5579 20.4894 35.5943 20.4341 35.6407 20.3877C35.687 20.3413 35.7424 20.305 35.8033 20.2808C35.8642 20.2566 35.9295 20.2451 35.995 20.247Z" fill="#252525"></path></svg>