<svg xmlns="http://www.w3.org/2000/svg" width="12" height="12" viewBox="0 0 12 12" fill="none"><path d="M9.31598 3.16346L1.84045 10.8419C1.67199 11.0144 1.47038 11.1021 1.23565 11.1049C1.00091 11.1077 0.797547 11.0249 0.625561 10.8564C0.453006 10.688 0.365323 10.4864 0.36251 10.2516C0.359697 10.0169 0.442528 9.81353 0.611003 9.64154L8.1081 1.98418L1.62866 2.06182C1.38711 2.06471 1.1835 1.9853 1.01785 1.82357C0.852196 1.66184 0.76821 1.46047 0.76589 1.21948C0.762996 0.97792 0.842414 0.774315 1.00414 0.608662C1.16587 0.44301 1.36724 0.359024 1.60823 0.356705L10.1338 0.254548C10.3754 0.251653 10.579 0.331071 10.7446 0.4928C10.9103 0.65453 10.9943 0.855893 10.9966 1.09689L11.0987 9.62246C11.1016 9.86402 11.0222 10.0676 10.8605 10.2333C10.6987 10.3989 10.4974 10.4829 10.2564 10.4852C10.0148 10.4881 9.81123 10.4087 9.64558 10.247C9.47992 10.0853 9.39594 9.88389 9.39362 9.64289L9.31598 3.16346Z" fill="white"></path></svg>