<svg xmlns="http://www.w3.org/2000/svg" width="58" height="58" viewBox="0 0 58 58" fill="none"><path d="M33.5395 12.0948C35.3447 10.4701 37.7817 9.74803 40.2187 10.0188C44.2804 10.5604 47.4395 13.8097 47.4395 17.6909V17.8714C47.3492 19.4058 46.5369 24.3701 40.67 25.363C40.1284 25.4532 39.6771 25.5435 39.1356 25.5435C37.1498 25.5435 35.2544 24.8214 33.72 23.5578C31.9148 22.1136 30.9219 19.9474 30.9219 17.7812C30.9219 15.5247 31.8245 13.5389 33.5395 12.0948ZM34.8934 22.1136C36.4278 23.3773 38.4135 23.9188 40.3992 23.5578C44.8219 22.8357 45.544 19.2253 45.6343 17.6909C45.6343 17.6909 45.6343 17.6909 45.6343 17.6006C45.6343 14.6221 43.1972 12.0948 40.0382 11.7337C38.1427 11.463 36.157 12.0948 34.7128 13.3584C33.4492 14.5318 32.7271 16.0662 32.7271 17.6909C32.7271 19.4058 33.5395 21.0305 34.8934 22.1136Z" fill="#0B0B0B"></path><path d="M27.5825 31.8617L24.0623 28.5221C23.7013 28.2513 23.7013 27.7097 23.9721 27.3487L26.4994 23.8286C26.1383 23.1065 25.7773 22.3844 25.5968 21.6623L21.0838 20.85C20.6325 20.7597 20.3617 20.3987 20.3617 19.9474V15.2539C20.3617 14.8026 20.7227 14.4416 21.0838 14.3513L25.687 13.539C25.9578 12.8169 26.2286 12.0948 26.6799 11.3727L24.1526 7.8526C23.8818 7.49156 23.9721 6.95 24.2429 6.67922C24.3331 6.58896 27.5825 3.61039 27.8533 3.42987C28.124 3.24935 28.3948 3.15909 28.7558 3.24935C28.8461 3.24935 29.0266 3.33961 29.1169 3.42987L32.5468 5.5961C32.637 5.68636 32.7273 5.68636 32.8175 5.77662C33.5396 5.41558 34.2617 5.1448 34.9838 4.96429L35.8864 0.722078C35.9766 0.270779 36.3377 0 36.789 0H41.7532C42.2045 0 42.5656 0.361039 42.6558 0.812338L43.5584 4.96429C44.3708 5.23506 45.1831 5.50584 45.9052 5.86688C47.8909 4.60325 48.974 3.97143 49.6058 3.61039C49.6961 3.52013 49.6961 3.52013 49.7864 3.42987V3.52013C50.3279 3.24935 50.4182 3.33961 50.689 3.42987C50.689 3.52013 50.8695 3.61039 50.8695 3.70065L54.2994 6.85974C54.6604 7.22078 54.6604 7.76234 54.2994 8.12338C54.0286 8.48442 53.2162 9.56753 52.5844 10.4701L51.8623 11.6435C52.2234 12.3656 52.5844 13.0877 52.7649 13.8097L57.2779 14.6221C57.7292 14.7123 58 15.0734 58 15.5247V20.2182C58 20.5792 57.8195 20.85 57.5487 21.0305C57.3682 21.1208 57.2779 21.211 57.0974 21.1208L52.6747 21.8429C52.4942 22.3844 52.2234 23.1065 51.6818 24.0091C52.9455 25.8143 53.6675 26.8071 54.0286 27.439C54.1188 27.5292 54.1188 27.5292 54.2091 27.6195C54.4799 28.161 54.4799 28.2513 54.2994 28.5221C54.2091 28.7026 54.1188 28.7929 53.9383 28.8831C53.3065 29.4247 50.689 31.8617 50.5084 32.0422C50.2377 32.2227 49.9669 32.313 49.6058 32.2227C49.5156 32.2227 49.3351 32.1325 49.2448 32.0422L45.5442 29.6052C44.8221 29.9662 44.1 30.237 43.3779 30.4175L42.4753 34.6597C42.3851 35.111 42.024 35.3818 41.5727 35.3818H36.6084C36.1571 35.3818 35.7961 35.111 35.7058 34.6597L34.8032 30.4175C33.9909 30.1468 33.1786 29.876 32.4565 29.5149L28.5753 31.9519C28.3948 32.2227 27.9435 32.1325 27.5825 31.8617ZM32.9078 27.7097C33.8104 28.2513 34.8032 28.6123 35.8864 28.8831C36.2474 28.9734 36.5182 29.2442 36.5182 29.6052L37.4208 33.5766H40.9409L41.7532 29.5149C41.8435 29.1539 42.1143 28.8831 42.3851 28.7929C43.3779 28.5221 44.3708 28.161 45.1831 27.7097C45.4539 27.5292 45.8149 27.5292 46.0857 27.7097L49.7864 30.0565C50.3279 29.7857 51.1403 29.0636 52.3136 27.9805C51.5013 26.8071 49.9669 24.6409 49.9669 24.5506C49.7864 24.2799 49.7864 23.8286 49.9669 23.5578C50.5987 22.4747 50.8695 21.8429 51.1403 21.1208L51.2305 20.7597C51.3208 20.489 51.5916 20.2182 51.9526 20.2182L56.2851 19.4961C56.2851 18.8643 56.2851 17.7812 56.2851 16.337L51.9526 15.5247C51.5916 15.4344 51.3208 15.1636 51.2305 14.8929C51.05 14.261 50.689 13.2682 50.1474 12.3656C49.7864 12.0948 49.6961 11.824 50.1474 11.1922C50.1474 11.1019 50.2377 11.1019 50.2377 11.0117C50.4182 10.6506 50.7792 10.2896 51.1403 9.65779L52.4942 7.67208C52.0429 7.22078 51.3208 6.58896 50.3279 5.5961L50.0571 5.41558C48.8838 6.13766 46.4468 7.67208 46.3565 7.76234C46.0857 7.94286 45.7247 7.94286 45.4539 7.76234C44.5513 7.31104 43.5584 6.85974 42.4753 6.58896C42.1143 6.4987 41.8435 6.22792 41.8435 5.86688L40.9409 1.80519H37.4208L36.6084 5.86688C36.5182 6.22792 36.2474 6.4987 35.9766 6.58896C34.9838 6.85974 34.1714 7.13052 33.2688 7.58182C32.9981 7.76234 32.5468 7.8526 32.276 7.58182L28.5753 5.23506C28.124 5.68636 27.3117 6.40844 26.1383 7.49156L28.5753 10.9214C28.7558 11.1922 28.7558 11.6435 28.5753 11.9143C28.0338 12.8169 27.5825 13.7195 27.3117 14.6221C27.2214 14.9831 26.9507 15.1636 26.5896 15.2539L22.2571 15.976V19.1351L26.5896 19.9474C26.9507 20.0377 27.2214 20.2182 27.3117 20.5792C27.402 21.6623 27.8533 22.5649 28.3948 23.3773C28.5753 23.6481 28.5753 24.0993 28.3948 24.3701L25.9578 27.7097L28.3948 29.9662L32.0052 27.7097C32.276 27.6195 32.637 27.5292 32.9078 27.7097Z" fill="#0B0B0B"></path><path d="M8.26671 41.8805C8.89852 38.7214 11.7868 36.3747 14.9459 36.3747C18.7368 36.3747 21.8057 39.4435 21.8057 43.2344V43.3247C21.8057 45.4007 20.9031 47.2059 19.2784 48.5598C18.0148 49.5526 16.4803 50.0942 14.9459 50.0942C13.6823 50.0942 12.5089 49.7331 11.3355 49.1013C8.89852 47.6572 7.72515 44.7689 8.26671 41.8805ZM12.3284 47.5669C13.7725 48.4695 16.1193 48.8305 18.105 47.2059C19.2784 46.213 19.9102 44.8591 19.9102 43.3247C19.9102 43.3247 19.9102 43.3247 19.9102 43.2344C19.9102 40.4364 17.6537 38.1799 14.8557 38.1799C12.5089 38.1799 10.4329 39.8948 9.89138 42.1513C9.53034 44.8591 10.8842 46.6643 12.3284 47.5669Z" fill="#0B0B0B"></path><path d="M0.594841 41.2487C0.594841 40.7974 0.865623 40.4363 1.31692 40.3461L4.65653 39.7143C4.83705 39.1727 5.01757 38.6311 5.28835 38.1798L3.48316 35.3818C3.21238 35.0208 3.30264 34.5695 3.57342 34.2084C4.92731 32.9448 5.64939 32.1324 6.10069 31.7714C6.10069 31.6811 6.19095 31.5909 6.28121 31.5909C6.73251 31.2298 6.82277 31.2298 7.09355 31.3201C7.27407 31.3201 7.36432 31.4104 7.45458 31.5006C7.90588 31.7714 9.16952 32.674 9.98186 33.2156L10.0721 33.3058C10.5234 33.035 10.9747 32.8545 11.5163 32.7643L12.1481 29.4247C12.2383 28.9734 12.5994 28.7026 13.0507 28.7026H16.8416C17.2929 28.7026 17.6539 29.0636 17.7442 29.5149L18.376 32.7643C18.9176 32.9448 19.4591 33.1253 19.9104 33.3961C20.7228 32.8545 22.528 31.6811 22.7085 31.5006C23.1598 31.2298 23.7013 31.3201 23.9721 31.6811L25.5065 33.3961C25.5968 33.4863 25.5968 33.4863 25.687 33.5766L25.8676 33.7571L25.9578 33.8474L26.0481 33.9376L26.5896 34.4792C26.8604 34.75 26.9507 35.2915 26.6799 35.6526C26.6799 35.7428 25.4163 37.548 24.7845 38.4506C25.0552 38.9922 25.2358 39.5337 25.4163 40.0753L28.6656 40.6169C29.1169 40.7071 29.3877 41.0682 29.3877 41.5195V45.1298V45.3104C29.2974 45.8519 29.2072 45.9422 28.9364 46.1227C28.8461 46.213 28.6656 46.213 28.4851 46.213L25.326 46.7545C25.1455 47.2058 24.965 47.6571 24.6942 48.2889C25.1455 48.9208 25.8676 50.0039 26.2286 50.6357L26.4994 51.087C26.7702 51.5383 26.6799 52.0798 26.2286 52.3506L23.6111 54.8779C23.3403 55.0584 23.0695 55.1487 22.7085 55.1487C22.6182 55.1487 22.4377 55.0584 22.3474 54.9682L19.6396 53.0727C19.1883 53.2532 18.7371 53.524 18.1955 53.6143L17.5637 56.9539C17.4734 57.4052 17.1124 57.6759 16.6611 57.6759H13.0507C12.5994 57.6759 12.2383 57.4052 12.1481 56.9539L11.5163 53.6143C10.9747 53.4337 10.4332 53.2532 9.98186 52.9824L7.1838 54.8779C6.82277 55.1487 6.37147 55.0584 6.01043 54.7876L3.39289 52.0798C3.12212 51.8091 3.03186 51.2675 3.30264 50.9065L5.19809 48.1084C4.92731 47.5669 4.74679 47.1156 4.56627 46.4837L1.31692 45.8519C0.865623 45.7617 0.594841 45.4006 0.594841 44.9493V41.2487ZM5.46887 44.9493C5.82991 45.0396 6.10069 45.3104 6.19095 45.5811C6.37147 46.3935 6.73251 47.1156 7.09355 47.7474C7.27407 48.0182 7.27407 48.3792 7.09355 48.7402L5.28835 51.3578L6.91303 52.9824L9.53056 51.1772C9.80133 50.9967 10.1624 50.9967 10.5234 51.1772C11.1552 51.5383 11.9676 51.8993 12.6896 52.0798C13.0507 52.1701 13.2312 52.4409 13.3215 52.8019L13.863 55.961H16.1195L16.7513 52.8922C16.8416 52.5311 17.1124 52.2604 17.3832 52.1701C18.1052 51.9896 18.8273 51.7188 19.4591 51.3578C19.7299 51.1772 20.0909 51.1772 20.452 51.448L23.0695 53.2532C23.4306 52.8922 23.9721 52.3506 24.6942 51.6285C24.0624 50.7259 22.9793 49.1013 22.9793 49.011C22.7987 48.7402 22.7987 48.3792 22.9793 48.0182C23.4306 47.2058 23.6111 46.6643 23.7916 46.1227L23.8819 45.8519C23.8819 45.4006 24.1526 45.1298 24.5137 45.1298L27.5825 44.5883C27.5825 43.9565 27.5825 42.9636 27.5825 42.3318L24.5137 41.7C24.1526 41.6097 23.8819 41.3389 23.7916 40.9779C23.7013 40.5266 23.3403 39.624 22.9793 38.9019C22.9793 38.8117 22.889 38.8117 22.889 38.7214C22.7987 38.4506 22.7085 38.3604 22.9793 37.8188C22.9793 37.7285 23.0695 37.7285 23.1598 37.6383C23.4306 37.187 23.8819 36.4649 24.7845 35.2013C24.7845 35.2013 24.7845 35.2013 24.6942 35.111L24.6039 35.0208L23.0695 33.4863C22.528 33.9376 21.6254 34.4792 20.452 35.2915C20.1812 35.4721 19.8202 35.4721 19.4591 35.2915C18.8273 34.9305 18.1052 34.5695 17.2929 34.3889C16.9319 34.2987 16.7513 34.0279 16.6611 33.6669L16.0293 30.598H13.7728L13.1409 33.6669C13.0507 34.0279 12.8702 34.2987 12.5091 34.3889C11.7871 34.5695 11.2455 34.8402 10.6137 35.111C10.2526 35.4721 9.89159 35.3818 9.53056 35.111C9.16952 34.8402 9.4403 35.0208 9.4403 35.0208C9.25978 34.9305 9.16952 34.8402 8.989 34.75C8.44744 34.3889 7.54484 33.7571 7.00328 33.3058L5.37861 34.9305L7.09355 37.548C7.27407 37.8188 7.27407 38.1798 7.09355 38.5409C6.73251 39.263 6.37147 39.985 6.19095 40.7071C6.10069 41.0682 5.82991 41.2487 5.46887 41.3389L2.40004 41.8805V44.137L5.46887 44.9493Z" fill="#0B0B0B"></path><path d="M33.8106 52.1701C41.934 51.9896 48.7034 45.9422 49.9671 38.0896L48.5229 39.5337C48.1619 39.8948 47.6203 39.8948 47.2593 39.5337C46.8983 39.1727 46.8983 38.6311 47.2593 38.2701L50.5086 35.111C50.8697 34.75 51.4112 34.75 51.7723 35.111L54.9314 38.3603C55.2924 38.7214 55.2924 39.2629 54.9314 39.624C54.5703 39.985 54.0288 39.985 53.6677 39.624L51.8625 37.8188C50.6892 46.7545 43.1976 53.7948 33.8106 54.0655C33.269 54.0655 32.908 53.6142 32.908 53.1629C32.908 52.5311 33.269 52.1701 33.8106 52.1701Z" fill="#0B0B0B"></path><path d="M1.31669 23.4675C1.67773 23.1065 2.21929 23.1065 2.58033 23.4675L4.29526 25.1824C4.02448 16.1565 10.3427 8.12334 19.2784 6.31814C19.7297 6.22788 20.2712 6.58892 20.2712 7.13048C20.3615 7.58178 20.0005 8.03308 19.5492 8.12334C11.516 9.74801 5.82968 16.9688 6.0102 25.0922L7.72513 23.4675C8.08617 23.1065 8.62773 23.1065 8.98877 23.4675C9.34981 23.8285 9.34981 24.3701 8.98877 24.7311L5.82968 27.8902C5.64916 28.0707 5.46864 28.161 5.19786 28.161C4.92708 28.161 4.74656 28.0707 4.56604 27.8902L1.40695 24.7311C0.95565 24.3701 0.95565 23.8285 1.31669 23.4675Z" fill="#0B0B0B"></path></svg>