<svg xmlns="http://www.w3.org/2000/svg" width="565" height="303" viewBox="0 0 565 303" fill="none"><path opacity="0.1" d="M699.617 -64.5681L363.898 92.3433C345.265 101.056 324.683 104.762 304.181 103.095C283.679 101.429 263.966 94.4477 246.984 82.8402L-30.6752 -106.846L287.498 -255.565C311.478 -266.773 337.964 -271.541 364.348 -269.397C390.731 -267.254 416.101 -258.273 437.957 -243.34L699.617 -64.5681Z" fill="white" fill-opacity="0.8"></path><path opacity="0.1" d="M706.316 -110.309L370.596 46.6026C351.963 55.3152 331.381 59.021 310.879 57.3545C290.378 55.6881 270.664 48.707 253.683 37.0995L-23.977 -152.587L294.196 -301.305C318.176 -312.514 344.663 -317.282 371.046 -315.138C397.429 -312.995 422.799 -304.014 444.655 -289.081L706.316 -110.309Z" fill="white" fill-opacity="0.8"></path><path opacity="0.1" d="M704.904 -19.7355L369.185 137.176C350.552 145.888 329.97 149.594 309.468 147.928C288.966 146.261 269.253 139.28 252.271 127.673L-25.3881 -62.0137L292.785 -210.732C316.765 -221.941 343.251 -226.708 369.635 -224.565C396.018 -222.421 421.388 -213.44 443.244 -198.508L704.904 -19.7355Z" fill="white" fill-opacity="0.8"></path></svg>