<svg xmlns="http://www.w3.org/2000/svg" width="59" height="58" viewBox="0 0 59 58" fill="none"><path d="M58.9815 13.3076C58.98 13.2824 58.9769 13.2573 58.9722 13.2324C58.9537 13.1664 58.9262 13.103 58.8905 13.0437C58.8775 13.0241 58.863 13.0054 58.8473 12.9877C58.8211 12.9495 58.7923 12.9131 58.7609 12.8786C58.7409 12.8609 58.7162 12.8477 58.6946 12.83C58.6627 12.802 58.6287 12.7764 58.5928 12.7533L51.6512 8.94997C51.5253 8.88119 51.3828 8.84501 51.2378 8.84501C51.0928 8.84501 50.9503 8.88119 50.8244 8.94997L43.8752 12.7533C43.8392 12.7763 43.8051 12.8019 43.7734 12.83C43.7505 12.8446 43.7289 12.8609 43.7086 12.8786C43.6762 12.9127 43.6468 12.9492 43.6206 12.9877C43.6068 13.0069 43.5898 13.0231 43.5774 13.0437C43.5417 13.103 43.5142 13.1664 43.4957 13.2324C43.4957 13.256 43.4957 13.2811 43.4864 13.3047C43.4771 13.3479 43.471 13.3918 43.4679 13.4359V15.0574L37.2869 11.3588C37.2955 11.3189 37.3012 11.2785 37.3038 11.2379V4.60412C37.3016 4.56045 37.2954 4.51705 37.2853 4.47439C37.2853 4.44933 37.2853 4.42427 37.2761 4.39921C37.2573 4.33327 37.2298 4.26986 37.1943 4.21052C37.1777 4.18695 37.1597 4.16431 37.1403 4.1427C37.1178 4.10895 37.0925 4.07691 37.0647 4.04688C37.0385 4.02625 37.0123 4.00561 36.9861 3.98792C36.9577 3.96408 36.9278 3.94193 36.8966 3.92158L29.9072 0.104957C29.7813 0.0361782 29.6388 0 29.4938 0C29.3488 0 29.2063 0.0361782 29.0804 0.104957L22.1296 3.90831C22.0988 3.92895 22.0695 3.95106 22.0402 3.97465L21.9615 4.03362C21.9336 4.06441 21.9078 4.09691 21.8844 4.13091L21.8319 4.19725C21.7964 4.25711 21.769 4.32101 21.7502 4.38742C21.7502 4.411 21.7502 4.43459 21.7409 4.45818C21.7302 4.50172 21.724 4.54615 21.7224 4.59085V11.2349C21.7249 11.2756 21.7306 11.316 21.7394 11.3558L15.549 15.0545V13.4329C15.546 13.3893 15.5398 13.346 15.5305 13.3032C15.5305 13.2781 15.5305 13.2516 15.5213 13.228C15.5028 13.162 15.4753 13.0985 15.4395 13.0393C15.4272 13.0187 15.4087 13.0025 15.3948 12.9833C15.3696 12.9445 15.3407 12.9079 15.3084 12.8742C15.2899 12.8565 15.2652 12.8432 15.2436 12.8256C15.2114 12.798 15.1774 12.7723 15.1418 12.7489L8.20027 8.94555C8.07438 8.87677 7.93188 8.84059 7.78686 8.84059C7.64185 8.84059 7.49935 8.87677 7.37346 8.94555L0.431918 12.7489C0.395942 12.7719 0.361902 12.7975 0.330109 12.8256C0.307285 12.8402 0.28563 12.8565 0.265321 12.8742C0.233007 12.9083 0.203604 12.9447 0.177395 12.9833C0.163512 13.0025 0.146543 13.0187 0.134203 13.0393C0.0984612 13.0985 0.0709764 13.162 0.0524472 13.228C0.0524472 13.2516 0.0524476 13.2767 0.0431922 13.3002C0.0331416 13.3434 0.0269486 13.3873 0.024681 13.4314V20.0652C0.0247478 20.2079 0.065034 20.348 0.141307 20.4707C0.21758 20.5934 0.327025 20.6942 0.458142 20.7625L6.97393 24.1634V33.2738L0.407237 36.8486C0.370904 36.8711 0.336823 36.8968 0.305428 36.9253C0.282248 36.9395 0.260552 36.9558 0.24064 36.9739C0.208326 37.008 0.178923 37.0445 0.152714 37.083C0.138831 37.1022 0.121862 37.1184 0.109522 37.1375C0.0740408 37.1974 0.0465738 37.2613 0.0277662 37.3277C0.0277662 37.3498 0.027766 37.3749 0.0185106 37.3985C0.00855896 37.4421 0.00236816 37.4865 0 37.5312V44.1826C6.6767e-05 44.3253 0.040353 44.4654 0.116626 44.5881C0.192899 44.7108 0.302344 44.8116 0.433461 44.8799L7.38271 48.5049C7.42202 48.5231 7.46276 48.5384 7.50458 48.5506C7.52564 48.5597 7.54728 48.5676 7.56936 48.5742C7.70761 48.611 7.85378 48.611 7.99203 48.5742C8.01516 48.5742 8.03522 48.5579 8.05836 48.5506C8.09967 48.5384 8.1399 48.5231 8.17868 48.5049L14.0682 45.4224L21.7178 50.2871V53.5804C21.7177 53.7234 21.7579 53.8637 21.8342 53.9866C21.9105 54.1096 22.02 54.2106 22.1512 54.2792L29.0928 57.9027C29.1319 57.9213 29.1727 57.9366 29.2146 57.9484C29.2362 57.9558 29.2578 57.9676 29.281 57.9734C29.4194 58.0089 29.5652 58.0089 29.7036 57.9734C29.7252 57.9734 29.7468 57.9558 29.7684 57.9484C29.8105 57.9369 29.8513 57.9216 29.8903 57.9027L36.8318 54.2777C36.9628 54.2093 37.0722 54.1084 37.1484 53.9858C37.2247 53.8631 37.265 53.7231 37.2653 53.5804V50.2886L44.9148 45.4239L50.8152 48.5019C50.8536 48.5208 50.8939 48.5361 50.9355 48.5476C50.9586 48.555 50.9787 48.5668 51.0018 48.5727C51.1403 48.6081 51.286 48.6081 51.4245 48.5727C51.4476 48.5727 51.4677 48.555 51.4908 48.5476C51.5323 48.5361 51.5726 48.5208 51.6111 48.5019L58.5527 44.8784C58.6838 44.8101 58.7932 44.7093 58.8695 44.5866C58.9458 44.4639 58.9861 44.3238 58.9861 44.1811V37.5371C58.983 37.4935 58.9768 37.4501 58.9676 37.4073C58.9676 37.3837 58.9676 37.3572 58.9584 37.3336C58.9395 37.2672 58.9121 37.2033 58.8766 37.1434C58.8631 37.1238 58.8481 37.1051 58.8319 37.0874C58.8067 37.049 58.7778 37.013 58.7455 36.9798C58.7253 36.962 58.7036 36.9457 58.6807 36.9312C58.6489 36.9031 58.6149 36.8775 58.5789 36.8545L52.0508 33.2738V24.1752L58.5665 20.7758C58.6977 20.7074 58.8071 20.6066 58.8834 20.4839C58.9597 20.3612 58.9999 20.2212 59 20.0785V13.4373C58.9977 13.3937 58.9915 13.3503 58.9815 13.3076ZM34.5272 47.0366L29.4938 49.6621L24.462 47.0366L24.2491 46.9246L29.4938 44.0544L34.7385 46.9231L34.5272 47.0366ZM13.8862 19.6067L8.5998 22.3649V17.5341L13.8862 14.7759V19.6067ZM7.76835 34.6433L13.0131 37.5149L12.8002 37.6255L7.76835 40.251L2.73651 37.6314L2.52364 37.5208L7.76835 34.6433ZM14.6466 36.5774L8.5998 33.2738V24.1752L14.1083 21.302L21.7147 26.0312V31.8276L14.6466 36.5774ZM23.3776 10.7573V5.93382L28.6624 8.69199V13.5199L23.3776 10.7573ZM35.6116 10.7573L30.3253 13.5199V8.69199L35.6116 5.93382V10.7573ZM29.4938 22.7128L34.7385 25.583L34.5257 25.6936L29.4938 28.3191L24.462 25.6936L24.2491 25.583L29.4938 22.7128ZM23.3776 26.9348L28.6624 29.6915V34.5239L23.3776 31.7642V26.9348ZM30.3191 29.6915L35.6116 26.9348V31.7642L30.3253 34.5239L30.3191 29.6915ZM37.2684 26.0267L44.8732 21.2961L50.3832 24.1708V33.2738L44.3348 36.5833L37.2684 31.8276V26.0267ZM50.3802 17.5296V22.3649L45.0953 19.6082V14.7759L50.3802 17.5296ZM45.103 43.7064V38.8756L50.3894 41.6323V46.4617L45.103 43.7064ZM56.2527 37.6314L51.2209 40.2569L46.1875 37.6314L45.9746 37.5208L51.2193 34.6492L56.464 37.5208L56.2527 37.6314ZM51.2209 10.5494L56.4656 13.4197L56.2527 13.5302L51.2209 16.1557L46.1875 13.5302L45.9746 13.4197L51.2209 10.5494ZM43.4695 20.279L36.4153 24.6661L30.3253 21.333V15.3316L35.9032 12.4202L43.4402 16.9296V20.077C43.4399 20.1463 43.4498 20.2152 43.4695 20.2819V20.279ZM29.4938 1.7059L34.7385 4.57758L29.7237 7.19423L29.4938 7.31364L29.264 7.19423L24.2491 4.57758L29.4938 1.7059ZM23.0845 12.4216L28.6624 15.3331V21.333L22.5739 24.6661L15.5197 20.279C15.5379 20.212 15.5477 20.1432 15.549 20.074V16.9296L23.0845 12.4216ZM7.76835 10.5494L13.0131 13.4197L12.8002 13.5302L7.76835 16.1557L2.73651 13.5302L2.52364 13.4197L7.76835 10.5494ZM1.65209 14.7759L6.93845 17.5341V22.3649L1.65209 19.6082V14.7759ZM1.65209 38.8771L6.93845 41.6352V46.4646L1.65209 43.7064V38.8771ZM8.60134 41.6352L13.8862 38.8756V43.705L8.60134 46.4617V41.6352ZM15.5028 44.4258C15.5317 44.3461 15.5478 44.2626 15.5506 44.1782V37.9203L22.6017 33.175L28.6624 36.3371V42.676L22.1296 46.2464C22.0934 46.2691 22.0594 46.2948 22.0278 46.3231C22.0048 46.3386 21.9826 46.3554 21.9615 46.3732C21.9288 46.4066 21.8999 46.4432 21.8751 46.4823C21.8597 46.4998 21.8453 46.518 21.8319 46.5369C21.7962 46.5966 21.7687 46.6605 21.7502 46.727C21.7455 46.7504 21.7424 46.774 21.7409 46.7978C21.7302 46.8413 21.724 46.8858 21.7224 46.9305V48.3678L15.5028 44.4258ZM23.3698 49.8596V48.2808L28.6547 51.039V55.8683L23.3698 53.1116V49.8596ZM30.3114 55.8683V51.039L35.5978 48.2808V53.1116L30.3114 55.8683ZM37.2606 46.9422C37.2584 46.8986 37.2522 46.8552 37.2421 46.8125C37.2421 46.7875 37.2421 46.7624 37.2329 46.7373C37.2143 46.6713 37.1869 46.6079 37.1511 46.5486C37.1376 46.529 37.1226 46.5103 37.1064 46.4926C37.0816 46.454 37.0526 46.4179 37.02 46.385C36.9994 46.3671 36.9778 46.3504 36.9552 46.3349C36.923 46.3073 36.889 46.2817 36.8534 46.2582L30.3253 42.6789V36.34L36.3875 33.1779L43.4402 37.9233V44.1826C43.4414 44.2671 43.4576 44.3509 43.488 44.4303L37.2761 48.384L37.2606 46.9422ZM52.0369 46.4631V41.6338L57.3371 38.8756V43.705L52.0369 46.4631ZM52.0369 22.362V17.5341L57.3232 14.7759V19.6067L52.0369 22.362Z" fill="#0B0B0B"></path></svg>