<svg xmlns="http://www.w3.org/2000/svg" width="74" height="51" viewBox="0 0 74 51" fill="none"><path d="M33.9266 50.76H26.1654C25.8817 50.76 25.6097 50.6473 25.4091 50.4467C25.2085 50.2461 25.0958 49.9741 25.0958 49.6904V34.0521H20.8854C20.6819 34.0523 20.4824 33.9945 20.3106 33.8854C20.1387 33.7762 20.0016 33.6203 19.9153 33.4359C19.829 33.2515 19.7971 33.0463 19.8234 32.8445C19.8497 32.6426 19.933 32.4524 20.0637 32.2963L29.2242 21.3264C29.3246 21.2062 29.4501 21.1096 29.592 21.0432C29.7338 20.9769 29.8885 20.9425 30.0451 20.9425C30.2017 20.9425 30.3563 20.9769 30.4982 21.0432C30.64 21.1096 30.7656 21.2062 30.866 21.3264L40.0265 32.2963C40.157 32.4523 40.2404 32.6423 40.2667 32.844C40.2931 33.0457 40.2613 33.2508 40.1753 33.4351C40.0892 33.6194 39.9523 33.7754 39.7807 33.8846C39.6091 33.9939 39.41 34.052 39.2065 34.0521H34.9961V49.6904C34.9961 49.9741 34.8834 50.2461 34.6829 50.4467C34.4823 50.6473 34.2103 50.76 33.9266 50.76ZM27.2349 48.6209H32.8571V32.9825C32.8571 32.6989 32.9697 32.4268 33.1703 32.2263C33.3709 32.0257 33.6429 31.913 33.9266 31.913H36.9195L30.046 23.6812L23.1724 31.913H26.1654C26.449 31.913 26.7211 32.0257 26.9216 32.2263C27.1222 32.4268 27.2349 32.6989 27.2349 32.9825V48.6209Z" fill="#0B0B0B"></path><path d="M49.211 50.7601C49.0546 50.76 48.9002 50.7257 48.7585 50.6595C48.6168 50.5933 48.4914 50.4968 48.391 50.3768L39.2287 39.407C39.0982 39.251 39.0148 39.061 38.9885 38.8592C38.9622 38.6575 38.9939 38.4525 39.08 38.2682C39.166 38.0838 39.3029 37.9279 39.4745 37.8186C39.6461 37.7093 39.8453 37.6512 40.0487 37.6512H44.2591V22.0128C44.2591 21.7292 44.3718 21.4571 44.5723 21.2566C44.7729 21.056 45.045 20.9433 45.3286 20.9433H53.0899C53.3735 20.9433 53.6456 21.056 53.8461 21.2566C54.0467 21.4571 54.1594 21.7292 54.1594 22.0128V37.6512H58.3698C58.5734 37.6509 58.7728 37.7087 58.9446 37.8179C59.1165 37.927 59.2536 38.083 59.3399 38.2673C59.4262 38.4517 59.4581 38.6569 59.4318 38.8588C59.4055 39.0607 59.3222 39.2509 59.1915 39.407L50.031 50.3768C49.9306 50.4968 49.8052 50.5933 49.6635 50.6595C49.5219 50.7257 49.3674 50.76 49.211 50.7601ZM42.3375 39.7902L49.211 48.0185L56.0863 39.7867H53.0916C52.808 39.7867 52.5359 39.674 52.3354 39.4734C52.1348 39.2728 52.0221 39.0008 52.0221 38.7171V23.0824H46.3999V38.7207C46.3999 39.0044 46.2872 39.2764 46.0867 39.477C45.8861 39.6776 45.6141 39.7902 45.3304 39.7902H42.3375Z" fill="#0B0B0B"></path><path d="M20.9985 46.7118H16.1054C7.22469 46.7118 0 39.8971 0 31.5209C0 23.831 6.12842 17.3728 14.1196 16.4458C14.6169 12.7025 18.002 9.788 22.0912 9.788C23.0902 9.78814 24.0812 9.96559 25.0182 10.3121C27.9629 4.09987 34.5958 0 41.8793 0C51.7458 0 59.8297 7.33699 60.3127 16.5261C63.8508 17.0521 67.1195 18.7218 69.6194 21.2801C72.3184 24.0099 73.8307 27.6947 73.8273 31.5335C73.824 35.3722 72.3054 39.0545 69.6016 41.7795C66.8601 44.5744 63.2109 46.2988 59.3109 46.6423C59.1711 46.6553 59.03 46.6406 58.8958 46.5991C58.7616 46.5576 58.6369 46.49 58.5288 46.4003C58.4207 46.3106 58.3314 46.2005 58.2659 46.0762C58.2003 45.952 58.1599 45.816 58.1469 45.6762C58.1339 45.5363 58.1486 45.3952 58.1901 45.2611C58.2317 45.1269 58.2992 45.0022 58.3889 44.8941C58.4786 44.786 58.5888 44.6966 58.713 44.6311C58.8373 44.5656 58.9732 44.5252 59.1131 44.5122C66.2789 43.849 71.6836 38.2732 71.6836 31.5245C71.6836 24.8096 66.3003 19.2248 59.163 18.5421C58.8976 18.5164 58.6514 18.3924 58.4727 18.1945C58.294 17.9967 58.1956 17.7392 58.1968 17.4726V17.4066C58.1968 8.9912 50.8777 2.1462 41.8793 2.1462C35.0718 2.1462 28.9166 6.15872 26.5636 12.1285C26.5081 12.2695 26.4232 12.397 26.3146 12.5027C26.206 12.6084 26.0762 12.6898 25.9338 12.7415C25.7914 12.7933 25.6396 12.8142 25.4885 12.8028C25.3374 12.7915 25.1905 12.7482 25.0574 12.6757C24.1458 12.1851 23.1264 11.9291 22.0912 11.9306C18.8452 11.9306 16.2088 14.3799 16.1963 17.3906V17.4334C16.1968 17.7063 16.0929 17.969 15.906 18.1678C15.7191 18.3667 15.4633 18.4865 15.1909 18.5029C7.87176 18.9396 2.13907 24.667 2.13907 31.5209C2.13907 38.7189 8.40474 44.5728 16.1054 44.5728H20.9985C21.2821 44.5728 21.5542 44.6855 21.7548 44.886C21.9553 45.0866 22.068 45.3586 22.068 45.6423C22.068 45.926 21.9553 46.198 21.7548 46.3986C21.5542 46.5992 21.2821 46.7118 20.9985 46.7118Z" fill="#0B0B0B"></path></svg>