<svg xmlns="http://www.w3.org/2000/svg" width="227" height="335" viewBox="0 0 227 335" fill="none"><path d="M41.5742 298.497C41.5742 298.497 29.873 322.138 16.7251 333.504C16.2111 333.942 15.5958 334.243 14.9354 334.382C14.275 334.52 13.5905 334.491 12.9444 334.296C12.2983 334.102 11.7111 333.749 11.2363 333.269C10.7615 332.789 10.4143 332.198 10.2264 331.549C9.61613 329.359 9.17069 327.125 8.89383 324.868C7.44486 314.073 17.1472 285.964 17.1472 285.964L21.4667 284.571C21.8246 284.455 22.2027 284.416 22.5767 284.456C22.9506 284.496 23.3121 284.614 23.6377 284.802C23.9633 284.99 24.2458 285.245 24.4669 285.549C24.6881 285.854 24.8429 286.201 24.9214 286.57L25.3778 288.676L30.5712 284.107C30.8503 283.858 31.1773 283.669 31.5322 283.551C31.8871 283.434 32.2623 283.39 32.6347 283.423C33.0071 283.456 33.3688 283.565 33.6976 283.743C34.0263 283.921 34.3151 284.165 34.5462 284.459C36.5359 286.967 39.6073 291.666 41.5742 298.497Z" fill="white"></path><path d="M14.1233 334.98C15.2005 334.981 16.2416 334.592 17.0555 333.886C30.1281 322.586 41.9092 298.959 42.0256 298.71C42.0822 298.597 42.0944 298.466 42.0598 298.344C40.1157 291.592 37.1151 286.885 34.9382 284.125C34.6661 283.778 34.3255 283.49 33.9377 283.28C33.5499 283.07 33.1231 282.942 32.6838 282.903C32.242 282.862 31.7964 282.912 31.3747 283.05C30.9531 283.188 30.5645 283.412 30.2331 283.707L25.6854 287.714L25.4161 286.451C25.3217 286.014 25.1371 285.601 24.8742 285.24C24.6114 284.878 24.276 284.576 23.8896 284.352C23.5025 284.129 23.0732 283.989 22.6292 283.942C22.1852 283.895 21.7363 283.941 21.3111 284.078L16.9916 285.471C16.9173 285.495 16.8496 285.536 16.7938 285.591C16.738 285.645 16.6956 285.712 16.6698 285.786C16.2705 286.928 6.9447 314.135 8.39138 324.923C8.67359 327.206 9.1251 329.465 9.74221 331.682C9.95724 332.417 10.3538 333.087 10.8953 333.629C11.4368 334.171 12.1059 334.568 12.841 334.783C13.257 334.909 13.6887 334.976 14.1233 334.98ZM41.033 298.447C39.9309 300.629 28.7111 322.465 16.3892 333.121C15.95 333.508 15.4191 333.776 14.847 333.899C14.275 334.022 13.6809 333.996 13.1216 333.824C12.5488 333.657 12.0273 333.348 11.6053 332.925C11.1834 332.503 10.8746 331.981 10.7074 331.407C10.1045 329.242 9.66441 327.033 9.39083 324.802C8.04455 314.77 16.606 289.119 17.5392 286.366L21.6169 285.051C21.9074 284.957 22.2143 284.926 22.5177 284.958C22.8212 284.991 23.1143 285.087 23.3784 285.24C23.6428 285.393 23.8724 285.6 24.0523 285.847C24.2323 286.094 24.3587 286.376 24.4235 286.675L24.8799 288.781C24.898 288.867 24.9385 288.947 24.9974 289.013C25.0563 289.079 25.1315 289.128 25.2153 289.155C25.2987 289.183 25.388 289.189 25.4741 289.171C25.5602 289.153 25.6402 289.113 25.7059 289.055L30.9017 284.486C31.1308 284.283 31.3989 284.129 31.6897 284.034C31.9805 283.938 32.2877 283.903 32.5925 283.931C32.8948 283.958 33.1884 284.046 33.4553 284.191C33.7222 284.335 33.9566 284.533 34.1441 284.772C36.2434 287.426 39.1345 291.953 41.033 298.447Z" fill="black"></path><path d="M13.0667 331.173C13.1334 331.173 13.1995 331.159 13.261 331.134C13.3225 331.108 13.3782 331.07 13.4249 331.022C26.7942 317.582 37.9866 296.544 38.0984 296.334C38.1299 296.275 38.1494 296.211 38.1558 296.145C38.1623 296.078 38.1556 296.011 38.136 295.948C38.1165 295.884 38.0846 295.825 38.0421 295.774C37.9996 295.722 37.9474 295.68 37.8885 295.649C37.7699 295.586 37.6311 295.573 37.5028 295.612C37.3744 295.652 37.2669 295.74 37.204 295.859C37.0944 296.069 25.9705 316.974 12.7084 330.307C12.6141 330.402 12.5612 330.531 12.5612 330.665C12.5612 330.799 12.6141 330.927 12.7084 331.022C12.8034 331.118 12.9321 331.172 13.0667 331.173Z" fill="black"></path><path d="M18.7671 312.712C18.8737 312.712 18.9775 312.678 19.0637 312.615C19.1498 312.553 19.2138 312.464 19.2462 312.362C19.2669 312.299 19.275 312.233 19.2701 312.167C19.2651 312.101 19.2472 312.036 19.2173 311.977C19.1874 311.918 19.1461 311.865 19.0959 311.822C19.0457 311.779 18.9874 311.746 18.9245 311.725L11.933 309.42C11.8701 309.399 11.8036 309.391 11.7375 309.396C11.6713 309.401 11.6068 309.419 11.5476 309.449C11.4884 309.479 11.4357 309.52 11.3926 309.57C11.3495 309.621 11.3168 309.679 11.2964 309.742C11.2753 309.806 11.267 309.872 11.2718 309.939C11.2766 310.005 11.2944 310.07 11.3243 310.129C11.3542 310.189 11.3956 310.242 11.446 310.285C11.4964 310.328 11.5549 310.361 11.6181 310.382L18.6074 312.684C18.6587 312.702 18.7127 312.711 18.7671 312.712Z" fill="black"></path><path d="M23.3647 305.236C23.4709 305.236 23.5744 305.202 23.6604 305.14C23.7465 305.077 23.8107 304.989 23.8438 304.888C23.8857 304.761 23.8753 304.622 23.815 304.502C23.7547 304.382 23.6494 304.291 23.5221 304.249L14.737 301.352C14.6096 301.311 14.4708 301.321 14.3511 301.381C14.2313 301.442 14.1404 301.547 14.0981 301.675C14.0563 301.802 14.0666 301.941 14.1269 302.061C14.1873 302.181 14.2926 302.272 14.4199 302.314L23.2072 305.21C23.2581 305.227 23.3112 305.235 23.3647 305.236Z" fill="black"></path><path d="M137.128 120.955C136.229 120.007 72.1212 92.2816 45.9166 86.3839C19.7121 80.4862 9.9481 80.4314 1.03072 95.4223C-7.88669 110.413 43.9839 192.221 43.9839 192.221L154.331 163.44L137.128 120.955Z" fill="black"></path><path d="M75.0275 152.549C75.0985 152.549 75.1687 152.534 75.2329 152.503C75.2934 152.476 75.3481 152.438 75.3937 152.389C75.4393 152.341 75.475 152.285 75.4988 152.223C75.5225 152.161 75.5338 152.095 75.532 152.028C75.5303 151.962 75.5154 151.897 75.4884 151.836C63.1665 124.294 42.8103 104.616 42.6072 104.42C42.5593 104.374 42.5028 104.338 42.441 104.314C42.3792 104.29 42.3132 104.278 42.2468 104.279C42.1805 104.281 42.1151 104.295 42.0544 104.322C41.9936 104.349 41.9388 104.388 41.893 104.436C41.8468 104.484 41.8105 104.54 41.7863 104.602C41.762 104.664 41.7503 104.73 41.7518 104.797C41.7533 104.863 41.7679 104.929 41.7949 104.989C41.8219 105.05 41.8607 105.105 41.909 105.151C42.1098 105.345 62.3223 124.895 74.5666 152.25C74.6061 152.339 74.6707 152.415 74.7525 152.468C74.8344 152.521 74.9299 152.549 75.0275 152.549Z" fill="white"></path><path d="M189.58 157.597C189.58 157.597 186.678 187.412 180.225 193.614C173.772 199.815 96.4813 193.614 96.4813 193.614C96.4813 193.614 90.3386 203.687 86.3249 230.617C82.3111 257.547 77.8342 293.785 71.1849 302.627L13.3085 290.119C13.3085 290.119 32.5033 174.788 45.8383 159.105C59.1734 143.422 156.179 140.957 156.179 140.957L189.58 157.597Z" fill="black"></path><path d="M39.1625 173.751C39.2674 173.751 39.3696 173.718 39.455 173.657C39.5405 173.596 39.6049 173.51 39.6394 173.411C42.065 166.43 44.2875 161.725 46.2407 159.425C50.7565 154.114 70.7636 149.271 104.099 145.427C104.232 145.411 104.353 145.343 104.436 145.238C104.519 145.132 104.557 144.998 104.542 144.865C104.526 144.733 104.458 144.611 104.353 144.528C104.248 144.446 104.115 144.407 103.982 144.422C69.9079 148.353 50.2225 153.18 45.4718 158.769C43.4364 161.165 41.1522 165.978 38.6856 173.077C38.6418 173.204 38.6499 173.343 38.708 173.463C38.7662 173.584 38.8697 173.677 38.9959 173.721C39.0492 173.741 39.1056 173.751 39.1625 173.751Z" fill="white"></path><path d="M82.4617 59.9862C82.9476 59.6292 83.5009 59.3748 84.0881 59.2387C84.6753 59.1026 85.284 59.0875 85.8772 59.1943C86.4704 59.3011 87.0357 59.5277 87.5387 59.8602C88.0417 60.1926 88.4718 60.6241 88.8029 61.1282C96.0135 72.1333 115.957 102.615 116.203 103.367L106.204 104.778L81.3321 65.9775C80.7236 65.0224 80.5016 63.8711 80.7115 62.7579C80.9213 61.6447 81.5472 60.6535 82.4617 59.9862Z" fill="white"></path><path d="M106.204 105.292H106.273L116.274 103.883C116.346 103.873 116.416 103.847 116.477 103.807C116.539 103.768 116.591 103.716 116.63 103.654C116.669 103.592 116.694 103.522 116.704 103.449C116.713 103.376 116.707 103.302 116.685 103.232C116.457 102.498 101.625 79.7873 89.2253 60.8655C88.8594 60.3022 88.3817 59.8202 87.822 59.4492C87.2623 59.0783 86.6324 58.8265 85.9714 58.7093C85.3105 58.5866 84.6314 58.6012 83.9763 58.7521C83.3212 58.9029 82.704 59.1869 82.163 59.5864C81.1455 60.332 80.4502 61.4379 80.2188 62.6788C79.9873 63.9197 80.237 65.2022 80.9172 66.2652L105.789 105.068C105.835 105.136 105.897 105.192 105.969 105.231C106.042 105.27 106.122 105.291 106.204 105.292ZM115.396 102.978L106.453 104.239L81.766 65.7101C81.2255 64.8635 81.0273 63.8426 81.2117 62.8549C81.396 61.8672 81.9491 60.9868 82.7586 60.3927C83.1896 60.075 83.6811 59.8493 84.2027 59.7295C84.7243 59.6096 85.265 59.5983 85.7912 59.696C86.3172 59.7892 86.8184 59.9896 87.2639 60.2847C87.7094 60.5797 88.0896 60.9632 88.381 61.4114C103.621 84.6799 113.47 99.8215 115.396 102.978Z" fill="black"></path><path d="M218.387 151.859C218.387 151.859 228.771 137.33 224.518 104.785C220.265 72.2403 209.862 55.3466 198.977 51.4864C188.093 47.6261 143.317 54.6842 139.821 109.356L218.387 151.859Z" fill="white"></path><path d="M218.386 152.367C218.467 152.366 218.546 152.347 218.617 152.31C218.689 152.273 218.75 152.22 218.797 152.154C218.902 152.008 229.25 137.079 225.02 104.719C221.14 75.0412 211.71 55.466 199.146 51.0119C193.327 48.9562 178.525 49.9863 165.229 58.778C154.427 65.9137 141.162 80.4775 139.316 109.335C139.311 109.432 139.332 109.528 139.379 109.613C139.426 109.697 139.496 109.767 139.581 109.813L218.144 152.316C218.22 152.353 218.303 152.37 218.386 152.367ZM192.456 51.1033C195.089 51.1033 197.272 51.4208 198.808 51.9644C204.374 53.9379 209.553 59.3491 213.784 67.6109C218.564 76.9462 221.998 89.4748 224.018 104.843C227.829 134.018 219.739 148.723 218.215 151.183L140.348 109.077C142.242 80.8475 155.214 66.6058 165.786 59.6232C175.246 53.3623 185.439 51.1033 192.456 51.1033Z" fill="black"></path><path d="M187.1 128.86C187.228 128.86 187.351 128.811 187.444 128.724C187.538 128.637 187.595 128.518 187.604 128.39L189.761 97.869C189.769 97.7349 189.725 97.6028 189.637 97.5014C189.549 97.4001 189.424 97.3376 189.291 97.3276C189.159 97.3175 189.028 97.3598 188.928 97.4453C188.827 97.5308 188.764 97.6527 188.752 97.7845L186.596 128.308C186.586 128.439 186.628 128.57 186.713 128.671C186.799 128.772 186.92 128.835 187.052 128.847L187.1 128.86Z" fill="black"></path><path d="M222.167 143.49C222.167 143.49 218.393 170.82 180.234 161.674C142.075 152.529 122.179 117.017 122.179 117.017C122.179 117.017 99.9612 112.261 100.716 97.8299C100.716 97.8299 108.153 99.8263 114.478 97.8299C120.803 95.8336 127.647 97.8756 130.28 100.343C148.322 117.3 205.957 122.369 222.167 143.49Z" fill="white"></path><path d="M194.651 164.059C201.752 164.059 207.719 162.428 212.486 159.168C221.248 153.177 222.615 143.949 222.667 143.558C222.676 143.492 222.672 143.425 222.655 143.36C222.638 143.295 222.608 143.235 222.567 143.182C213.65 131.56 192.527 124.808 172.097 118.284C154.956 112.802 138.764 107.627 130.625 99.9861C127.659 97.1881 120.567 95.3881 114.326 97.3571C108.213 99.2849 100.92 97.3708 100.847 97.3571C100.775 97.3379 100.699 97.3352 100.625 97.349C100.551 97.3628 100.481 97.3929 100.42 97.437C100.36 97.481 100.309 97.5381 100.273 97.6041C100.237 97.6702 100.217 97.7434 100.213 97.8185C99.4758 111.898 119.38 116.907 121.854 117.476C122.655 118.846 127.654 127.147 136.535 136.281C145.473 145.47 160.287 157.425 180.118 162.179C185.388 163.434 190.232 164.06 194.651 164.059ZM221.631 143.625C221.378 145.009 219.594 153.092 211.902 158.341C204.417 163.451 193.802 164.406 180.353 161.181C142.842 152.188 122.819 117.122 122.623 116.768C122.588 116.705 122.54 116.651 122.483 116.608C122.425 116.566 122.359 116.536 122.29 116.521C122.061 116.475 101.139 111.829 101.205 98.4763C103.145 98.9126 109.228 100.027 114.632 98.321C120.857 96.3589 127.519 98.4558 129.936 100.724C138.242 108.522 154.539 113.732 171.794 119.248C191.965 125.69 212.826 132.359 221.631 143.625Z" fill="black"></path><path d="M114.305 104.509C114.921 104.509 115.558 104.495 116.224 104.47C116.358 104.464 116.484 104.405 116.575 104.306C116.665 104.207 116.713 104.076 116.708 103.942C116.706 103.876 116.691 103.81 116.664 103.749C116.637 103.688 116.597 103.634 116.548 103.588C116.499 103.543 116.442 103.508 116.379 103.486C116.316 103.464 116.249 103.454 116.183 103.458C105.045 103.915 101.248 100.217 101.212 100.181C101.116 100.087 100.988 100.034 100.855 100.034C100.721 100.034 100.593 100.087 100.497 100.181C100.403 100.275 100.35 100.403 100.35 100.537C100.35 100.671 100.403 100.799 100.497 100.893C100.641 101.042 104.139 104.509 114.305 104.509Z" fill="black"></path><path d="M115.462 109.795H116.213C116.279 109.794 116.345 109.779 116.406 109.753C116.466 109.726 116.521 109.688 116.567 109.64C116.614 109.592 116.65 109.535 116.674 109.473C116.698 109.411 116.709 109.345 116.708 109.279C116.704 109.145 116.648 109.018 116.552 108.926C116.456 108.833 116.328 108.782 116.194 108.783C106.485 108.961 103.355 105.516 103.325 105.482C103.236 105.381 103.112 105.319 102.978 105.31C102.844 105.3 102.712 105.344 102.611 105.432C102.51 105.52 102.448 105.645 102.439 105.779C102.43 105.913 102.475 106.046 102.563 106.147C102.695 106.293 105.862 109.795 115.462 109.795Z" fill="black"></path><path d="M181.623 26.1621C181.909 26.6875 194.117 47.5742 194.117 47.5742L202.534 53.2367C197.683 56.9237 192.159 59.6248 186.272 61.188C180.285 62.7732 174.044 63.1521 167.91 62.3027C168.349 60.9183 168.986 59.605 169.801 58.4035C171.006 56.6374 172.571 55.1466 174.392 54.0293C171.881 49.7091 169.371 45.3905 166.862 41.0733L181.623 26.1621Z" fill="white"></path><path d="M174.359 63.2529C178.426 63.2513 182.476 62.7207 186.407 61.6745C192.357 60.1004 197.94 57.3691 202.836 53.6364C202.901 53.5879 202.952 53.5246 202.987 53.4518C203.022 53.3791 203.039 53.2991 203.037 53.2184C203.034 53.1377 203.011 53.0589 202.972 52.9885C202.932 52.9182 202.876 52.8584 202.809 52.8141L194.487 47.2155C193.574 45.6462 182.327 26.4109 182.058 25.9175C182.02 25.8481 181.966 25.7887 181.901 25.7438C181.836 25.699 181.762 25.6701 181.684 25.6594C181.606 25.6483 181.526 25.6555 181.452 25.6805C181.378 25.7054 181.31 25.7475 181.254 25.8033L166.489 40.7192C166.411 40.7983 166.361 40.9008 166.347 41.011C166.333 41.1212 166.356 41.2329 166.411 41.3291L173.713 53.8648C172.002 54.9813 170.528 56.4261 169.378 58.1157C168.534 59.3577 167.875 60.7158 167.422 62.1474C167.4 62.2176 167.394 62.2917 167.403 62.3647C167.413 62.4376 167.438 62.5077 167.477 62.57C167.516 62.6317 167.569 62.6841 167.631 62.7236C167.693 62.763 167.762 62.7885 167.835 62.7984C169.997 63.1001 172.176 63.252 174.359 63.2529ZM201.668 53.2549C197.01 56.6923 191.746 59.2173 186.151 60.6969C180.431 62.2208 174.47 62.6219 168.597 61.8778C169.006 60.748 169.554 59.6737 170.229 58.6799C171.392 56.9721 172.905 55.5316 174.667 54.4541C174.78 54.3854 174.861 54.2751 174.893 54.147C174.926 54.0188 174.907 53.8831 174.84 53.7689L167.497 41.1486L181.526 26.9865C183.486 30.3671 193.236 47.0487 193.691 47.8254C193.729 47.8916 193.782 47.948 193.846 47.9898L201.668 53.2549Z" fill="black"></path><path d="M144.663 12.818C150.288 8.19488 156.923 13.0213 163.49 7.35203C166.5 4.75265 166.776 2.29945 170.391 0.876411C172.784 -0.0646645 177.042 -0.711079 179.876 1.45203C183.486 4.20901 180.83 8.50553 183.755 18.1424C185.809 24.9104 188.661 27.8547 187.062 30.2279C185.462 32.6012 181.683 30.8766 179.719 33.3664C177.177 36.587 181.813 41.6282 180.369 46.1782C179.376 49.3053 174.628 53.7708 162.692 55.2646C162.032 53.3459 160.449 49.5542 159.417 45.8448C156.188 34.2321 157.948 29.7894 155.045 28.291C150.598 25.9931 145.233 33.0877 141.929 30.9474C138.5 28.7227 138.885 17.5668 144.663 12.818Z" fill="black"></path><path d="M167.983 18.501L166.858 21.9113C166.858 21.9113 171.228 32.647 172.008 36.6923C172.789 40.7376 160.437 44.1182 160.437 44.1182L158.498 42.6791L155.048 43.5426C155.048 43.5426 155.153 31.7333 151.992 23.8597C151.997 23.8597 157.825 16.7765 167.983 18.501Z" fill="white"></path><path d="M167.55 18.7618C167.093 19.7942 166.705 20.7353 166.377 21.754C166.34 21.8685 166.345 21.9923 166.391 22.1035C167.329 24.4288 168.232 26.7708 169.099 29.1296C169.946 31.4868 170.806 33.8623 171.381 36.2538L171.481 36.7107C171.504 36.8323 171.519 36.9551 171.527 37.0784C171.517 37.3219 171.459 37.561 171.356 37.7819C171.101 38.2801 170.747 38.7208 170.315 39.0771C169.382 39.8463 168.356 40.4954 167.262 41.0095C165.022 42.0816 162.694 42.9574 160.303 43.6271L160.736 43.7093L158.799 42.2703L158.767 42.2497C158.711 42.2101 158.646 42.1838 158.578 42.1727C158.51 42.1617 158.44 42.1661 158.374 42.1858L154.952 43.1977L155.388 43.5426C155.388 41.8569 155.337 40.1872 155.235 38.5174C155.132 36.8477 154.972 35.1734 154.762 33.5083C154.552 31.8431 154.26 30.1849 153.9 28.538C153.529 26.8851 153.046 25.2595 152.453 23.6727L152.376 24.1798C153.33 23.1349 154.42 22.2223 155.616 21.4662C156.811 20.6876 158.103 20.068 159.458 19.6229C160.806 19.1619 162.21 18.8845 163.632 18.7984C164.342 18.7428 165.054 18.7351 165.765 18.7755C166.158 18.7755 166.379 18.8326 166.662 18.8235C166.945 18.8143 167.228 18.7869 167.55 18.7618ZM168.417 18.241C168.013 18.1268 167.573 18.0126 167.116 17.9167C166.691 17.8254 166.259 17.7742 165.825 17.7636C165.073 17.7229 164.319 17.7313 163.568 17.7888C162.061 17.8815 160.573 18.1757 159.143 18.6636C157.71 19.1356 156.343 19.7913 155.077 20.6143C153.791 21.4257 152.622 22.4094 151.602 23.538C151.543 23.6009 151.504 23.679 151.488 23.7635C151.471 23.8479 151.479 23.9352 151.511 24.0153L151.522 24.0473C152.121 25.579 152.615 27.1495 153.001 28.7481C153.377 30.347 153.685 31.9825 153.913 33.6225C154.142 35.2625 154.326 36.914 154.457 38.57C154.587 40.226 154.669 41.8889 154.685 43.538C154.685 43.585 154.694 43.6315 154.712 43.6749C154.73 43.7183 154.756 43.7577 154.79 43.7908C154.823 43.8239 154.863 43.8501 154.906 43.8679C154.949 43.8857 154.996 43.8946 155.043 43.8943C155.07 43.8966 155.096 43.8966 155.123 43.8943L158.609 43.1794L158.185 43.0949L160.125 44.5339C160.186 44.5785 160.256 44.6085 160.33 44.6216C160.405 44.6347 160.481 44.6305 160.554 44.6093C163.008 43.9234 165.398 43.0238 167.696 41.9208C168.875 41.3649 169.979 40.6619 170.982 39.8286C171.52 39.3782 171.959 38.8204 172.271 38.1908C172.434 37.8407 172.524 37.4603 172.533 37.0739C172.525 36.883 172.502 36.6929 172.467 36.5051L172.362 36.03C171.748 33.5311 170.886 31.1648 170.032 28.7869C169.179 26.4091 168.255 24.0679 167.31 21.7266V22.0761C167.76 20.8153 168.113 19.4836 168.426 18.241H168.417Z" fill="black"></path><path d="M172.159 27.9763C172.159 27.9763 171.077 20.1344 174.744 20.3971C178.411 20.6598 179.378 29.3218 172.159 27.9763Z" fill="white"></path><path d="M173.605 28.625C175.506 28.625 176.572 27.8393 177.167 27.0947C178.331 25.6261 178.228 23.5545 177.624 22.1544C177.04 20.8228 175.981 19.9777 174.792 19.8932C174.42 19.8553 174.044 19.9052 173.694 20.0388C173.345 20.1725 173.032 20.3862 172.779 20.6629C170.954 22.6226 171.638 27.8256 171.668 28.0448C171.682 28.1504 171.729 28.2488 171.803 28.3259C171.876 28.403 171.972 28.455 172.077 28.4742C172.581 28.5708 173.092 28.6213 173.605 28.625ZM174.571 20.8959H174.71C175.529 20.953 176.25 21.5582 176.688 22.5541C177.181 23.6778 177.277 25.32 176.376 26.4597C175.625 27.4099 174.322 27.7776 172.615 27.5332C172.446 25.9344 172.355 22.5769 173.505 21.3458C173.64 21.1988 173.805 21.0826 173.989 21.005C174.173 20.9274 174.371 20.8902 174.571 20.8959Z" fill="black"></path><path d="M157.393 83.8082L155.078 78.1188L151.582 85.7349C150.91 87.1972 150.725 89.2722 151.171 90.363L153.486 96.0524L156.982 88.4363C157.654 86.974 157.836 84.8977 157.393 83.8082Z" fill="#0B0B0B"></path><path d="M167.029 82.0155L164.714 76.3263C164.268 75.2356 163.003 74.6578 161.893 75.0378L156.102 77.024L158.417 82.7132C158.861 83.8085 160.125 84.3863 161.238 84.0017L167.029 82.0155Z" fill="#0B0B0B"></path><path d="M166.875 83.507L161.058 85.4818C159.942 85.8591 158.495 87.3577 157.829 88.8227L154.361 96.452L160.175 94.4818C161.294 94.0998 162.742 92.6071 163.405 91.1409L166.875 83.507Z" fill="#0B0B0B"></path></svg>