<svg xmlns="http://www.w3.org/2000/svg" width="61" height="60" viewBox="0 0 61 60" fill="none"><path d="M41.0551 31.3199C40.9215 31.196 40.7547 31.1137 40.575 31.0831C40.3954 31.0524 40.2107 31.0748 40.0436 31.1474C39.8765 31.22 39.7341 31.3398 39.6339 31.492C39.5337 31.6442 39.4801 31.8223 39.4795 32.0046V57.5144C39.4797 57.67 39.5187 57.8231 39.5928 57.9599C39.667 58.0967 39.774 58.2129 39.9043 58.298C40.0345 58.3832 40.1839 58.4346 40.339 58.4476C40.494 58.4606 40.6499 58.4348 40.7925 58.3725L45.8523 56.1686L47.2591 59.4511C47.3614 59.6759 47.5484 59.8513 47.7793 59.9391C48.0102 60.0269 48.2665 60.02 48.4923 59.92L55.334 56.9704C55.5589 56.8681 55.7343 56.6811 55.8221 56.4502C55.9099 56.2193 55.903 55.963 55.803 55.7372L54.3962 52.4546L59.456 50.2507C59.5987 50.1884 59.7237 50.0915 59.8197 49.9688C59.9157 49.8462 59.9796 49.7015 60.0056 49.5479C60.0317 49.3944 60.0191 49.2367 59.969 49.0892C59.9189 48.9418 59.8328 48.8091 59.7186 48.7032L41.0551 31.3199ZM52.7784 51.1041C52.5535 51.2065 52.3782 51.3934 52.2904 51.6244C52.2026 51.8553 52.2094 52.1115 52.3094 52.3374L53.7162 55.6199L48.5955 57.8473L47.1887 54.5648C47.0863 54.34 46.8994 54.1646 46.6685 54.0768C46.4376 53.989 46.1813 53.9959 45.9554 54.0959L41.3458 56.1029V34.1804L57.3927 49.1205L52.7784 51.1041Z" fill="#0B0B0B"></path><path d="M36.5766 54.396C36.8254 54.396 37.0639 54.2972 37.2398 54.1213C37.4157 53.9454 37.5145 53.7069 37.5145 53.4581C37.5145 53.2094 37.4157 52.9708 37.2398 52.795C37.0639 52.6191 36.8254 52.5203 36.5766 52.5203H5.66469C4.65979 52.5203 3.69605 52.1211 2.98549 51.4105C2.27492 50.6999 1.87572 49.7362 1.87572 48.7313V16.8815H52.5203V38.9213C52.5203 39.17 52.6191 39.4086 52.795 39.5844C52.9708 39.7603 53.2094 39.8591 53.4581 39.8591C53.7069 39.8591 53.9454 39.7603 54.1213 39.5844C54.2972 39.4086 54.396 39.17 54.396 38.9213V5.66469C54.3947 4.1627 53.7975 2.72259 52.7355 1.66052C51.6734 0.598454 50.2333 0.00124183 48.7313 0L5.66469 0C4.1627 0.00124183 2.72259 0.598454 1.66052 1.66052C0.598454 2.72259 0.00124183 4.1627 0 5.66469L0 48.736C0.00248282 50.2372 0.600243 51.6761 1.66217 52.7371C2.72411 53.7982 4.16351 54.3948 5.66469 54.396H36.5766ZM5.66469 1.87572H48.736C49.7401 1.87697 50.7026 2.27671 51.4122 2.98714C52.1217 3.69758 52.5203 4.6606 52.5203 5.66469V15.0058H1.87572V5.66469C1.87572 4.65979 2.27492 3.69605 2.98549 2.98549C3.69605 2.27492 4.65979 1.87572 5.66469 1.87572Z" fill="#0B0B0B"></path><path d="M45.9552 11.2544C46.5117 11.2544 47.0556 11.0894 47.5183 10.7802C47.981 10.471 48.3416 10.0316 48.5546 9.5175C48.7676 9.00338 48.8233 8.43766 48.7147 7.89188C48.6061 7.3461 48.3382 6.84477 47.9447 6.45128C47.5512 6.05779 47.0499 5.78982 46.5041 5.68126C45.9583 5.5727 45.3926 5.62842 44.8785 5.84137C44.3644 6.05432 43.9249 6.41495 43.6158 6.87764C43.3066 7.34033 43.1416 7.88431 43.1416 8.44078C43.1416 9.18699 43.438 9.90264 43.9657 10.4303C44.4933 10.9579 45.209 11.2544 45.9552 11.2544ZM45.9552 7.50292C46.1407 7.50292 46.322 7.55793 46.4762 7.66098C46.6305 7.76403 46.7507 7.91051 46.8217 8.08188C46.8926 8.25325 46.9112 8.44182 46.875 8.62375C46.8388 8.80568 46.7495 8.97279 46.6184 9.10395C46.4872 9.23511 46.3201 9.32444 46.1382 9.36063C45.9562 9.39681 45.7677 9.37824 45.5963 9.30726C45.4249 9.23627 45.2784 9.11606 45.1754 8.96183C45.0723 8.8076 45.0173 8.62628 45.0173 8.44078C45.0173 8.19205 45.1161 7.9535 45.292 7.77762C45.4679 7.60173 45.7065 7.50292 45.9552 7.50292Z" fill="#0B0B0B"></path><path d="M38.4523 11.2544C39.0087 11.2544 39.5527 11.0894 40.0154 10.7802C40.4781 10.471 40.8387 10.0316 41.0517 9.5175C41.2646 9.00338 41.3203 8.43766 41.2118 7.89188C41.1032 7.3461 40.8352 6.84477 40.4418 6.45128C40.0483 6.05779 39.5469 5.78982 39.0012 5.68126C38.4554 5.5727 37.8897 5.62842 37.3755 5.84137C36.8614 6.05432 36.422 6.41495 36.1128 6.87764C35.8037 7.34033 35.6387 7.88431 35.6387 8.44078C35.6387 9.18699 35.9351 9.90264 36.4628 10.4303C36.9904 10.9579 37.706 11.2544 38.4523 11.2544ZM38.4523 7.50292C38.6377 7.50292 38.8191 7.55793 38.9733 7.66098C39.1275 7.76403 39.2477 7.91051 39.3187 8.08188C39.3897 8.25325 39.4083 8.44182 39.3721 8.62375C39.3359 8.80568 39.2466 8.97279 39.1154 9.10395C38.9843 9.23511 38.8172 9.32444 38.6352 9.36063C38.4533 9.39681 38.2647 9.37824 38.0934 9.30726C37.922 9.23627 37.7755 9.11606 37.6725 8.96183C37.5694 8.8076 37.5144 8.62628 37.5144 8.44078C37.5144 8.19205 37.6132 7.9535 37.7891 7.77762C37.965 7.60173 38.2035 7.50292 38.4523 7.50292Z" fill="#0B0B0B"></path><path d="M30.9493 11.2544C31.5058 11.2544 32.0498 11.0894 32.5125 10.7802C32.9752 10.471 33.3358 10.0316 33.5487 9.5175C33.7617 9.00338 33.8174 8.43766 33.7089 7.89188C33.6003 7.3461 33.3323 6.84477 32.9388 6.45128C32.5453 6.05779 32.044 5.78982 31.4982 5.68126C30.9524 5.5727 30.3867 5.62842 29.8726 5.84137C29.3585 6.05432 28.9191 6.41495 28.6099 6.87764C28.3008 7.34033 28.1357 7.88431 28.1357 8.44078C28.1357 9.18699 28.4322 9.90264 28.9598 10.4303C29.4875 10.9579 30.2031 11.2544 30.9493 11.2544ZM30.9493 7.50292C31.1348 7.50292 31.3161 7.55793 31.4704 7.66098C31.6246 7.76403 31.7448 7.91051 31.8158 8.08188C31.8868 8.25325 31.9054 8.44182 31.8692 8.62375C31.833 8.80568 31.7437 8.97279 31.6125 9.10395C31.4813 9.23511 31.3142 9.32444 31.1323 9.36063C30.9504 9.39681 30.7618 9.37824 30.5904 9.30726C30.4191 9.23627 30.2726 9.11606 30.1695 8.96183C30.0665 8.8076 30.0115 8.62628 30.0115 8.44078C30.0115 8.19205 30.1103 7.9535 30.2862 7.77762C30.462 7.60173 30.7006 7.50292 30.9493 7.50292Z" fill="#0B0B0B"></path><path d="M34.7007 24.3844H16.7875C16.5723 23.3244 15.9971 22.3713 15.1596 21.6868C14.3221 21.0023 13.2737 20.6283 12.192 20.6283C11.1103 20.6283 10.0619 21.0023 9.22435 21.6868C8.38683 22.3713 7.81172 23.3244 7.59646 24.3844H6.56482C6.31608 24.3844 6.07753 24.4833 5.90165 24.6591C5.72576 24.835 5.62695 25.0736 5.62695 25.3223C5.62695 25.571 5.72576 25.8096 5.90165 25.9855C6.07753 26.1614 6.31608 26.2602 6.56482 26.2602H7.59646C7.81172 27.3202 8.38683 28.2733 9.22435 28.9578C10.0619 29.6424 11.1103 30.0163 12.192 30.0163C13.2737 30.0163 14.3221 29.6424 15.1596 28.9578C15.9971 28.2733 16.5723 27.3202 16.7875 26.2602H34.7007C34.9494 26.2602 35.188 26.1614 35.3638 25.9855C35.5397 25.8096 35.6385 25.571 35.6385 25.3223C35.6385 25.0736 35.5397 24.835 35.3638 24.6591C35.188 24.4833 34.9494 24.3844 34.7007 24.3844ZM12.192 28.1359C11.6355 28.1359 11.0915 27.9709 10.6288 27.6617C10.1662 27.3526 9.80553 26.9131 9.59257 26.399C9.37962 25.8849 9.3239 25.3192 9.43246 24.7734C9.54103 24.2276 9.80899 23.7263 10.2025 23.3328C10.596 22.9393 11.0973 22.6713 11.6431 22.5628C12.1889 22.4542 12.7546 22.5099 13.2687 22.7229C13.7828 22.9358 14.2222 23.2965 14.5314 23.7592C14.8406 24.2219 15.0056 24.7658 15.0056 25.3223C15.0056 26.0685 14.7091 26.7842 14.1815 27.3118C13.6538 27.8395 12.9382 28.1359 12.192 28.1359Z" fill="#0B0B0B"></path><path d="M25.2283 43.1416C25.013 42.0816 24.4379 41.1286 23.6004 40.444C22.7629 39.7595 21.7144 39.3855 20.6327 39.3855C19.5511 39.3855 18.5026 39.7595 17.6651 40.444C16.8276 41.1286 16.2525 42.0816 16.0372 43.1416H6.56482C6.31608 43.1416 6.07753 43.2405 5.90165 43.4163C5.72576 43.5922 5.62695 43.8308 5.62695 44.0795C5.62695 44.3282 5.72576 44.5668 5.90165 44.7427C6.07753 44.9186 6.31608 45.0174 6.56482 45.0174H16.0372C16.2525 46.0774 16.8276 47.0305 17.6651 47.715C18.5026 48.3996 19.5511 48.7735 20.6327 48.7735C21.7144 48.7735 22.7629 48.3996 23.6004 47.715C24.4379 47.0305 25.013 46.0774 25.2283 45.0174H34.7007C34.9494 45.0174 35.188 44.9186 35.3638 44.7427C35.5397 44.5668 35.6385 44.3282 35.6385 44.0795C35.6385 43.8308 35.5397 43.5922 35.3638 43.4163C35.188 43.2405 34.9494 43.1416 34.7007 43.1416H25.2283ZM20.6327 46.8931C20.0763 46.8931 19.5323 46.7281 19.0696 46.4189C18.6069 46.1098 18.2463 45.6703 18.0333 45.1562C17.8204 44.6421 17.7647 44.0764 17.8732 43.5306C17.9818 42.9848 18.2498 42.4835 18.6432 42.09C19.0367 41.6965 19.5381 41.4285 20.0838 41.32C20.6296 41.2114 21.1953 41.2671 21.7095 41.4801C22.2236 41.693 22.663 42.0537 22.9722 42.5164C23.2813 42.9791 23.4463 43.523 23.4463 44.0795C23.4463 44.8257 23.1499 45.5414 22.6223 46.069C22.0946 46.5967 21.379 46.8931 20.6327 46.8931Z" fill="#0B0B0B"></path><path d="M30.9492 30.0116C29.8682 30.0114 28.8203 30.3847 27.9829 31.0683C27.1454 31.7519 26.5699 32.7039 26.3537 33.763H6.56482C6.31608 33.763 6.07753 33.8619 5.90165 34.0377C5.72576 34.2136 5.62695 34.4522 5.62695 34.7009C5.62695 34.9496 5.72576 35.1882 5.90165 35.3641C6.07753 35.54 6.31608 35.6388 6.56482 35.6388H26.3537C26.5312 36.5081 26.9516 37.3092 27.5662 37.9491C28.1808 38.5891 28.9643 39.0415 29.8257 39.2539C30.6872 39.4663 31.5912 39.4299 32.4328 39.149C33.2744 38.8681 34.0191 38.3543 34.5803 37.6671C35.1415 36.9799 35.4962 36.1475 35.6033 35.2668C35.7104 34.386 35.5654 33.493 35.1852 32.6913C34.8049 31.8897 34.2051 31.2123 33.4553 30.738C32.7055 30.2637 31.8365 30.0118 30.9492 30.0116ZM30.9492 37.5145C30.3928 37.5145 29.8488 37.3495 29.3861 37.0403C28.9234 36.7312 28.5628 36.2917 28.3498 35.7776C28.1369 35.2635 28.0811 34.6978 28.1897 34.152C28.2983 33.6062 28.5662 33.1049 28.9597 32.7114C29.3532 32.3179 29.8545 32.0499 30.4003 31.9414C30.9461 31.8328 31.5118 31.8885 32.0259 32.1015C32.5401 32.3144 32.9795 32.6751 33.2886 33.1378C33.5978 33.6005 33.7628 34.1444 33.7628 34.7009C33.7628 35.4471 33.4664 36.1628 32.9387 36.6904C32.4111 37.2181 31.6954 37.5145 30.9492 37.5145Z" fill="#0B0B0B"></path></svg>