<svg xmlns="http://www.w3.org/2000/svg" width="72" height="72" viewBox="0 0 72 72" fill="none"><path d="M36 72C55.8823 72 72 55.8823 72 36C72 16.1177 55.8823 0 36 0C16.1177 0 0 16.1177 0 36C0 55.8823 16.1177 72 36 72Z" fill="#FFECDE"></path><path d="M54.9808 51.792H53.0678V39.676C53.0675 39.5406 53.024 39.4088 52.9437 39.2997C52.8635 39.1906 52.7505 39.1099 52.6213 39.0692C52.4921 39.0286 52.3534 39.0301 52.2251 39.0735C52.0968 39.117 51.9857 39.2002 51.9078 39.311L42.9799 52.065C42.914 52.1605 42.8755 52.2722 42.8684 52.388C42.8613 52.5038 42.8859 52.6194 42.9396 52.7222C42.9933 52.8251 43.074 52.9113 43.1731 52.9717C43.2722 53.0321 43.3858 53.0644 43.5019 53.065H51.7918V54.978C51.7984 55.1427 51.8684 55.2985 51.9872 55.4127C52.1061 55.5269 52.2645 55.5907 52.4294 55.5907C52.5942 55.5907 52.7526 55.5269 52.8715 55.4127C52.9903 55.2985 53.0603 55.1427 53.0668 54.978V53.065H54.9799C55.0657 53.0684 55.1514 53.0544 55.2317 53.0239C55.312 52.9934 55.3853 52.947 55.4472 52.8874C55.5091 52.8279 55.5584 52.7565 55.5921 52.6775C55.6258 52.5984 55.6431 52.5134 55.6431 52.4275C55.6431 52.3416 55.6258 52.2566 55.5921 52.1775C55.5584 52.0985 55.5091 52.027 55.4472 51.9675C55.3853 51.908 55.312 51.8616 55.2317 51.831C55.1514 51.8005 55.0657 51.7866 54.9799 51.79L54.9808 51.792ZM51.7918 51.792H44.7259L51.7918 41.699V51.792Z" fill="#252525" stroke="#252525"></path><path d="M43.5019 54.3429H35.9519L42.9709 46.0779C42.9869 46.059 43.002 46.0393 43.0159 46.0188C43.6518 45.0779 43.9025 43.9288 43.7165 42.8085C43.5304 41.6881 42.9218 40.6818 42.0159 39.9969C41.2538 39.4485 40.3552 39.121 39.4189 39.0507C38.4827 38.9804 37.5452 39.1699 36.7097 39.5983C35.8743 40.0267 35.1733 40.6774 34.6841 41.4788C34.1948 42.2801 33.9363 43.201 33.9369 44.1398C33.9335 44.2257 33.9475 44.3113 33.978 44.3916C34.0085 44.472 34.0549 44.5453 34.1144 44.6072C34.1739 44.6692 34.2454 44.7184 34.3244 44.7521C34.4035 44.7858 34.4885 44.8031 34.5744 44.8031C34.6603 44.8031 34.7453 44.7858 34.8244 44.7521C34.9034 44.7184 34.9748 44.6692 35.0344 44.6072C35.0939 44.5453 35.1403 44.472 35.1708 44.3916C35.2013 44.3113 35.2153 44.2257 35.2119 44.1398C35.2118 43.436 35.4059 42.7457 35.7728 42.145C36.1397 41.5443 36.6652 41.0565 37.2914 40.7352C37.9177 40.4139 38.6205 40.2716 39.3224 40.3239C40.0243 40.3763 40.6982 40.6212 41.2699 41.0318C41.9048 41.5187 42.3305 42.229 42.4605 43.0184C42.5906 43.8078 42.4151 44.6171 41.9699 45.2818L34.0869 54.5679C34.0084 54.6607 33.9581 54.774 33.9418 54.8945C33.9255 55.0149 33.944 55.1375 33.995 55.2479C34.0461 55.3582 34.1276 55.4516 34.23 55.5171C34.3324 55.5827 34.4513 55.6176 34.5729 55.6178H43.5009C43.5867 55.6212 43.6724 55.6073 43.7527 55.5768C43.833 55.5463 43.9063 55.4999 43.9683 55.4403C44.0302 55.3808 44.0795 55.3094 44.1131 55.2303C44.1468 55.1513 44.1641 55.0663 44.1641 54.9804C44.1641 54.8945 44.1468 54.8094 44.1131 54.7304C44.0795 54.6514 44.0302 54.5799 43.9683 54.5204C43.9063 54.4608 43.833 54.4144 43.7527 54.3839C43.6724 54.3534 43.5867 54.3395 43.5009 54.3429H43.5019Z" fill="#252525" stroke="#252525"></path><path d="M34.5889 51.1669C34.5952 50.998 34.5341 50.8336 34.4192 50.7096C34.3042 50.5857 34.1448 50.5124 33.9759 50.5059C29.965 50.3567 26.1583 48.6982 23.3179 45.8624C20.4774 43.0266 18.8127 39.2226 18.6569 35.2119H21.1829C21.2688 35.2153 21.3544 35.2014 21.4347 35.1709C21.515 35.1404 21.5884 35.0939 21.6503 35.0344C21.7122 34.9749 21.7615 34.9034 21.7952 34.8244C21.8288 34.7454 21.8462 34.6603 21.8462 34.5744C21.8462 34.4885 21.8288 34.4035 21.7952 34.3245C21.7615 34.2454 21.7122 34.174 21.6503 34.1145C21.5884 34.0549 21.515 34.0085 21.4347 33.978C21.3544 33.9475 21.2688 33.9335 21.1829 33.9369H18.6569C18.8102 29.9334 20.4693 26.1353 23.3023 23.3023C26.1353 20.4693 29.9334 18.8102 33.9369 18.6569V20.5469C33.9435 20.7116 34.0135 20.8674 34.1323 20.9817C34.2512 21.0959 34.4096 21.1597 34.5744 21.1597C34.7393 21.1597 34.8977 21.0959 35.0165 20.9817C35.1354 20.8674 35.2054 20.7116 35.2119 20.5469V18.6569C39.1648 18.8096 42.9192 20.4289 45.7431 23.1991C48.5671 25.9692 50.2582 29.6917 50.4869 33.6409L47.9999 31.1569C47.878 31.0512 47.7206 30.9956 47.5593 31.0013C47.398 31.007 47.2449 31.0737 47.1308 31.1878C47.0167 31.3019 46.95 31.455 46.9443 31.6163C46.9386 31.7776 46.9942 31.935 47.0999 32.0569L50.6599 35.6169C50.7269 35.698 50.8132 35.761 50.9109 35.7999C50.9359 35.8073 50.9613 35.8133 50.9869 35.8179C51.0306 35.8339 51.0759 35.8449 51.1219 35.8509H51.1569C51.2055 35.8473 51.2535 35.8379 51.2999 35.8229C51.3262 35.8197 51.3523 35.8147 51.3779 35.8079C51.4642 35.7773 51.5427 35.7281 51.6079 35.6639L55.2149 32.0569C55.3207 31.935 55.3763 31.7776 55.3706 31.6163C55.3648 31.455 55.2982 31.3019 55.1841 31.1878C55.07 31.0737 54.9169 31.007 54.7556 31.0013C54.5943 30.9956 54.4368 31.0512 54.3149 31.1569L51.7659 33.7039C51.5472 29.3018 49.6461 25.1519 46.4552 22.1113C43.2643 19.0708 39.0275 17.372 34.6199 17.3659C34.6039 17.3659 34.5909 17.3569 34.5749 17.3569C34.5589 17.3569 34.5459 17.3649 34.5299 17.3659C29.9798 17.372 25.6178 19.1822 22.4002 22.3995C19.1827 25.6169 17.3723 29.9788 17.3659 34.5289C17.3659 34.5449 17.3569 34.5579 17.3569 34.5739C17.3569 34.5899 17.3649 34.6029 17.3659 34.6189C17.3732 39.0653 19.1021 43.3361 22.1899 46.5355C25.2778 49.7348 29.4846 51.614 33.9279 51.7789H33.9519C34.1166 51.7788 34.2748 51.7151 34.3935 51.601C34.5122 51.4869 34.5822 51.3314 34.5889 51.1669Z" fill="#252525" stroke="#252525"></path><path d="M43.142 26.007C43.0224 25.8881 42.8606 25.8213 42.692 25.8213C42.5233 25.8213 42.3615 25.8881 42.242 26.007L35.389 32.859C35.1329 32.745 34.8558 32.6861 34.5755 32.6861C34.2952 32.6861 34.018 32.745 33.762 32.859L30.517 29.614C30.3951 29.5083 30.2376 29.4527 30.0763 29.4584C29.915 29.4641 29.7619 29.5307 29.6478 29.6449C29.5337 29.759 29.4671 29.9121 29.4613 30.0734C29.4556 30.2347 29.5112 30.3921 29.617 30.514L32.855 33.752C32.7155 34.043 32.6521 34.3646 32.6706 34.6868C32.6892 35.009 32.7891 35.3212 32.961 35.5942C33.133 35.8673 33.3713 36.0924 33.6538 36.2483C33.9363 36.4043 34.2538 36.4861 34.5765 36.4861C34.8992 36.4861 35.2166 36.4043 35.4991 36.2483C35.7816 36.0924 36.02 35.8673 36.1919 35.5942C36.3639 35.3212 36.4638 35.009 36.4823 34.6868C36.5009 34.3646 36.4374 34.043 36.298 33.752L43.144 26.906C43.2624 26.7862 43.3286 26.6245 43.3282 26.4561C43.3278 26.2877 43.2609 26.1263 43.142 26.007ZM35.026 35.025C34.9047 35.1407 34.7436 35.2052 34.576 35.2052C34.4084 35.2052 34.2472 35.1407 34.126 35.025C34.0364 34.9359 33.9754 34.8222 33.9505 34.6984C33.9256 34.5746 33.938 34.4461 33.9862 34.3293C34.0344 34.2126 34.1162 34.1127 34.2212 34.0425C34.3262 33.9723 34.4497 33.9348 34.576 33.9348C34.7023 33.9348 34.8258 33.9723 34.9308 34.0425C35.0357 34.1127 35.1175 34.2126 35.1657 34.3293C35.2139 34.4461 35.2264 34.5746 35.2015 34.6984C35.1766 34.8222 35.1155 34.9359 35.026 35.025Z" fill="#252525" stroke="#252525"></path></svg>