<svg xmlns="http://www.w3.org/2000/svg" width="65" height="65" viewBox="0 0 65 65" fill="none"><path d="M25.8526 13.9179L24.7025 20.684C24.6774 20.842 24.6967 21.0039 24.7582 21.1515C24.8198 21.2992 24.9211 21.4268 25.0511 21.5202C25.181 21.6135 25.3343 21.6689 25.4938 21.6801C25.6534 21.6913 25.813 21.658 25.9547 21.5837L32.0252 18.4256L38.0911 21.6347C38.2344 21.7179 38.399 21.7572 38.5644 21.748C38.7298 21.7387 38.8889 21.6812 39.0221 21.5826C39.1552 21.4839 39.2565 21.3485 39.3136 21.193C39.3707 21.0374 39.381 20.8686 39.3432 20.7072L38.1839 13.9782L43.095 9.21541C43.2079 9.09742 43.2863 8.95082 43.3219 8.79145C43.3574 8.63208 43.3487 8.46604 43.2966 8.31128C43.2445 8.15652 43.1511 8.01896 43.0265 7.91347C42.9019 7.80799 42.7508 7.73861 42.5895 7.71284L35.828 6.70186L32.8182 0.487551C32.7477 0.341463 32.6374 0.218225 32.5 0.131985C32.3626 0.0457454 32.2037 0 32.0414 0C31.8792 0 31.7203 0.0457454 31.5829 0.131985C31.4455 0.218225 31.3352 0.341463 31.2646 0.487551L28.2085 6.65085L21.4423 7.65255C21.2824 7.68046 21.1329 7.75113 21.0099 7.85708C20.8869 7.96303 20.7948 8.10031 20.7434 8.25435C20.6921 8.40839 20.6834 8.57345 20.7183 8.73204C20.7531 8.89063 20.8303 9.03682 20.9415 9.15512L25.8526 13.9179ZM28.9088 8.30645C29.0545 8.29308 29.1935 8.23843 29.3093 8.14889C29.4251 8.05936 29.513 7.93867 29.5627 7.80096L32.0252 2.8898L34.4831 7.85197C34.5457 7.97963 34.6368 8.0912 34.7494 8.17804C34.8619 8.26489 34.993 8.32469 35.1324 8.35282L40.5954 9.15512L36.6396 13.0136C36.5408 13.1097 36.4666 13.228 36.423 13.3588C36.3795 13.4895 36.3678 13.6287 36.3891 13.7648L37.3166 19.2279L32.4055 16.6726C32.2843 16.5998 32.1457 16.5614 32.0043 16.5614C31.863 16.5614 31.7243 16.5998 31.6032 16.6726L26.7059 19.2279L27.6334 13.7648C27.6577 13.6291 27.648 13.4894 27.6051 13.3583C27.5622 13.2272 27.4875 13.1087 27.3877 13.0136L23.4504 9.15512L28.9088 8.30645Z" fill="#0B0B0B"></path><path d="M63.2869 14.5671L57.9259 13.7648L55.519 8.90467C55.4485 8.75858 55.3382 8.63534 55.2008 8.5491C55.0634 8.46286 54.9044 8.41711 54.7422 8.41711C54.58 8.41711 54.4211 8.46286 54.2837 8.5491C54.1463 8.63534 54.036 8.75858 53.9654 8.90467L51.5632 13.7648L46.2022 14.5671C46.0418 14.5943 45.8919 14.6645 45.7683 14.7702C45.6446 14.8759 45.5519 15.0131 45.5001 15.1672C45.4482 15.3214 45.4391 15.4867 45.4737 15.6456C45.5084 15.8045 45.5854 15.9511 45.6967 16.0697L49.6061 19.8817L48.7204 25.2427C48.6923 25.4015 48.7096 25.5649 48.7702 25.7143C48.8308 25.8637 48.9322 25.9931 49.0629 26.0874C49.1936 26.1818 49.3483 26.2375 49.5091 26.248C49.67 26.2586 49.8306 26.2236 49.9725 26.147L54.7492 23.6381L59.5629 26.147C59.7044 26.2276 59.8661 26.2658 60.0287 26.2571C60.1912 26.2483 60.3479 26.1929 60.4799 26.0976C60.6119 26.0023 60.7136 25.871 60.7731 25.7194C60.8325 25.5678 60.8471 25.4024 60.8151 25.2427L59.8876 19.8817L63.797 16.0697C63.8997 15.9476 63.9691 15.801 63.9986 15.6442C64.0281 15.4875 64.0166 15.3257 63.9653 15.1747C63.914 15.0236 63.8247 14.8883 63.7058 14.7819C63.587 14.6755 63.4427 14.6015 63.2869 14.5671ZM58.3294 18.9264C58.2303 19.0232 58.1558 19.1424 58.1122 19.2739C58.0687 19.4054 58.0573 19.5455 58.0789 19.6823L58.7792 23.7402L55.1202 21.8341C54.999 21.7614 54.8604 21.7229 54.719 21.7229C54.5777 21.7229 54.439 21.7614 54.3179 21.8341L50.6589 23.7402L51.3638 19.6823C51.387 19.5454 51.3764 19.405 51.3327 19.2732C51.2891 19.1414 51.2137 19.0223 51.1133 18.9264L48.1546 16.0697L52.2124 15.4714C52.3578 15.459 52.4967 15.4052 52.6125 15.3165C52.7284 15.2277 52.8164 15.1077 52.8663 14.9706L54.6703 11.2605L56.5717 15.0216C56.6365 15.1486 56.7288 15.2594 56.8419 15.3461C56.9551 15.4328 57.0862 15.493 57.2256 15.5224L61.2835 16.1207L58.3294 18.9264Z" fill="#0B0B0B"></path><path d="M15.3811 25.1918L14.4536 19.8818L18.3631 16.0697C18.4743 15.9514 18.5514 15.8052 18.5863 15.6467C18.6212 15.4881 18.6125 15.323 18.5611 15.169C18.5098 15.0149 18.4177 14.8777 18.2947 14.7717C18.1716 14.6658 18.0222 14.5951 17.8622 14.5672L12.4734 13.8159L10.0665 8.95575C9.99599 8.80966 9.8857 8.68643 9.7483 8.60019C9.61089 8.51395 9.45196 8.4682 9.28974 8.4682C9.12751 8.4682 8.96858 8.51395 8.83118 8.60019C8.69378 8.68643 8.58348 8.80966 8.51295 8.95575L6.1107 13.8159L0.745064 14.5672C0.585106 14.5951 0.435683 14.6658 0.312638 14.7717C0.189594 14.8777 0.0975155 15.0149 0.0461685 15.169C-0.00517847 15.323 -0.0138797 15.4881 0.0209865 15.6467C0.0558527 15.8052 0.132987 15.9514 0.24421 16.0697L4.15366 19.8818L3.22615 25.1918C3.19811 25.3506 3.21538 25.514 3.27596 25.6634C3.33655 25.8128 3.43801 25.9421 3.5687 26.0365C3.6994 26.1309 3.85405 26.1866 4.01492 26.1971C4.1758 26.2076 4.33639 26.1726 4.47829 26.0961L9.28742 23.5872L14.078 26.0961C14.2214 26.1836 14.3872 26.2275 14.5551 26.2226C14.7231 26.2176 14.886 26.164 15.024 26.0682C15.162 25.9724 15.2693 25.8386 15.3327 25.683C15.3961 25.5274 15.4129 25.3568 15.3811 25.1918ZM12.6728 19.7288L13.3777 23.7913L9.71871 21.8852C9.59756 21.8125 9.45889 21.774 9.31756 21.774C9.17623 21.774 9.03757 21.8125 8.91641 21.8852L5.25739 23.7913L5.95766 19.7288C5.98224 19.5926 5.97218 19.4524 5.92842 19.3211C5.88466 19.1899 5.8086 19.0717 5.70723 18.9775L2.75312 16.1208L6.81097 15.5225C6.95327 15.5073 7.08837 15.4522 7.20076 15.3636C7.31315 15.275 7.39826 15.1565 7.44631 15.0217L9.25032 11.3116L11.0543 15.0217C11.1191 15.1486 11.2114 15.2595 11.3245 15.3462C11.4377 15.4328 11.5688 15.4931 11.7082 15.5225L15.7939 16.1208L12.8259 18.9775C12.746 19.0834 12.6908 19.2058 12.6643 19.3358C12.6379 19.4658 12.6408 19.6 12.6728 19.7288Z" fill="#0B0B0B"></path><path d="M32.0673 41.8034H32.6701C32.7825 41.8046 32.8941 41.7834 32.9981 41.741C33.1022 41.6985 33.1968 41.6357 33.2763 41.5562C33.3558 41.4767 33.4186 41.3822 33.461 41.2781C33.5035 41.174 33.5247 41.0625 33.5234 40.9501C33.5164 40.7264 33.4241 40.5139 33.2655 40.3561C33.1068 40.1984 32.8938 40.1072 32.6701 40.1014H32.5171L32.6701 39.1461C32.7002 38.9241 32.6432 38.6992 32.5111 38.5183C32.3791 38.3375 32.1821 38.2147 31.9616 38.1758C31.7411 38.1368 31.514 38.1847 31.328 38.3094C31.1419 38.434 31.0113 38.6258 30.9635 38.8446V38.8957L30.7641 40.2869C30.7375 40.4736 30.7514 40.6638 30.8047 40.8447C30.858 41.0256 30.9495 41.1929 31.0731 41.3354C31.1966 41.4778 31.3493 41.5921 31.5208 41.6704C31.6923 41.7488 31.8787 41.7894 32.0673 41.7895V41.8034Z" fill="#0B0B0B"></path><path d="M35.3272 39.1739C35.6446 39.1739 35.9548 39.0798 36.2187 38.9035C36.4826 38.7272 36.6882 38.4766 36.8097 38.1834C36.9311 37.8902 36.9629 37.5675 36.901 37.2563C36.8391 36.945 36.6863 36.6591 36.4619 36.4347C36.2375 36.2103 35.9515 36.0575 35.6403 35.9956C35.329 35.9336 35.0064 35.9654 34.7132 36.0869C34.42 36.2083 34.1694 36.414 33.9931 36.6778C33.8168 36.9417 33.7227 37.252 33.7227 37.5693C33.7251 37.9941 33.8949 38.4008 34.1953 38.7012C34.4957 39.0016 34.9024 39.1715 35.3272 39.1739Z" fill="#0B0B0B"></path><path d="M29.4093 42.4341C29.3193 42.5091 29.2453 42.6012 29.1916 42.7052C29.1378 42.8092 29.1055 42.923 29.0964 43.0397C29.0873 43.1564 29.1017 43.2737 29.1387 43.3848C29.1757 43.4958 29.2346 43.5984 29.3119 43.6863C29.6537 44.0364 30.0613 44.3154 30.5113 44.5073C30.9613 44.6993 31.4448 44.8003 31.9341 44.8046C32.4233 44.8089 32.9085 44.7164 33.3619 44.5325C33.8152 44.3485 34.2277 44.0767 34.5755 43.7327C34.6544 43.6471 34.7156 43.5468 34.7557 43.4376C34.7959 43.3284 34.8141 43.2123 34.8093 43.096C34.8046 42.9798 34.777 42.8656 34.7281 42.7599C34.6793 42.6543 34.6101 42.5594 34.5245 42.4805C34.4389 42.4017 34.3387 42.3404 34.2294 42.3003C34.1202 42.2602 34.0041 42.242 33.8879 42.2467C33.7716 42.2514 33.6574 42.279 33.5518 42.3279C33.4462 42.3768 33.3512 42.446 33.2724 42.5315C32.902 42.848 32.4309 43.0219 31.9437 43.0219C31.4566 43.0219 30.9854 42.848 30.6151 42.5315C30.4677 42.3593 30.2582 42.2524 30.0323 42.2342C29.8063 42.2159 29.5824 42.2878 29.4093 42.4341Z" fill="#0B0B0B"></path><path d="M30.3146 37.5693C30.3146 37.252 30.2205 36.9417 30.0442 36.6778C29.8679 36.414 29.6173 36.2083 29.3241 36.0869C29.0309 35.9654 28.7083 35.9336 28.397 35.9956C28.0858 36.0575 27.7999 36.2103 27.5754 36.4347C27.351 36.6591 27.1982 36.945 27.1363 37.2563C27.0744 37.5675 27.1062 37.8902 27.2276 38.1834C27.3491 38.4766 27.5547 38.7272 27.8186 38.9035C28.0825 39.0798 28.3927 39.1739 28.7101 39.1739C29.1349 39.1715 29.5416 39.0016 29.842 38.7012C30.1424 38.4008 30.3122 37.9941 30.3146 37.5693Z" fill="#0B0B0B"></path><path d="M43.8928 51.3011C42.1908 50.9022 40.6883 50.9022 38.6338 50.7028C37.7805 50.5498 37.2426 50.3504 37.0803 49.5991L36.8298 47.5447C38.4808 46.1534 39.1857 44.3355 39.5845 42.179C40.308 42.2044 41.0151 41.9603 41.5688 41.494C42.1225 41.0278 42.4834 40.3726 42.5816 39.6554C42.6797 38.9382 42.5082 38.2101 42.1001 37.6122C41.6921 37.0143 41.0766 36.5892 40.3729 36.4192V33.7619C40.3729 31.548 39.4935 29.4247 37.928 27.8593C36.3625 26.2938 34.2393 25.4143 32.0253 25.4143C29.8114 25.4143 27.6882 26.2938 26.1227 27.8593C24.5572 29.4247 23.6778 31.548 23.6778 33.7619V36.4192C22.9491 36.5639 22.3032 36.9817 21.8724 37.587C21.4416 38.1923 21.2584 38.9393 21.3604 39.6753C21.4623 40.4112 21.8416 41.0803 22.4207 41.5458C22.9997 42.0112 23.7348 42.2378 24.4754 42.179C24.8279 44.3865 25.5792 46.1395 27.258 47.5447C27.258 47.5447 27.0585 49.0472 27.0075 49.5481C26.9352 49.8553 26.7739 50.1344 26.5438 50.3504C25.7415 51.0506 23.4366 50.5498 20.1764 51.3521C18.5738 51.7912 17.1603 52.7458 16.1545 54.0686C15.1486 55.3913 14.6063 57.0084 14.6114 58.6701V63.2798C14.6101 63.3918 14.6312 63.503 14.6734 63.6068C14.7155 63.7105 14.7779 63.8049 14.8569 63.8843C14.9359 63.9637 15.0299 64.0266 15.1335 64.0694C15.237 64.1121 15.348 64.1338 15.46 64.1331H48.637C48.7493 64.1338 48.8605 64.1121 48.9643 64.0694C49.0681 64.0268 49.1624 63.9639 49.2418 63.8846C49.3211 63.8052 49.384 63.7109 49.4266 63.6071C49.4693 63.5033 49.491 63.3921 49.4903 63.2798V58.6191C49.4747 56.9552 48.9183 55.3416 47.9053 54.0215C46.8923 52.7015 45.4775 51.7467 43.8743 51.3011H43.8928ZM36.9782 52.006C37.3449 52.1767 37.7335 52.2953 38.133 52.3584L36.6304 56.1798L33.6207 54.5798C33.6717 54.5613 37.1777 51.8529 36.9782 52.006ZM40.8367 39.2249C40.8358 39.4841 40.746 39.7351 40.5822 39.936C40.4185 40.1369 40.1907 40.2755 39.937 40.3286L40.1874 39.1739L40.3358 38.2742C40.4883 38.3766 40.6136 38.5145 40.7008 38.6761C40.7881 38.8377 40.8347 39.0181 40.8367 39.2017V39.2249ZM27.3553 29.0501C27.9622 28.436 28.6841 27.9475 29.4798 27.6125C30.2756 27.2775 31.1295 27.1026 31.9929 27.0977C33.7453 27.1038 35.4244 27.8024 36.664 29.0411C37.9036 30.2799 38.6033 31.9584 38.6107 33.7109V34.0633H33.8804C33.4597 34.0642 33.0449 33.9645 32.6706 33.7725C32.2963 33.5805 31.9733 33.3018 31.7285 32.9596L30.7222 31.5683C30.6399 31.4525 30.5311 31.3581 30.4048 31.2929C30.2785 31.2277 30.1385 31.1937 29.9964 31.1937C29.8543 31.1937 29.7143 31.2277 29.5881 31.2929C29.4618 31.3581 29.353 31.4525 29.2706 31.5683L28.3153 32.9086C28.0707 33.252 27.7471 33.5315 27.3718 33.7236C26.9965 33.9157 26.5805 34.0147 26.1589 34.0123H25.3519V33.6599C25.3988 31.9221 26.1168 30.27 27.3553 29.0501ZM23.0981 39.2249C23.1045 39.0203 23.1633 38.8208 23.2688 38.6454C23.3744 38.47 23.5232 38.3246 23.701 38.2232C23.6993 38.5384 23.7494 38.8518 23.8494 39.1507L24.0998 40.3518C23.8266 40.3125 23.5762 40.1778 23.3929 39.9715C23.2096 39.7653 23.1051 39.5008 23.0981 39.2249ZM25.4169 37.6203V35.8163H26.2191C26.9244 35.8143 27.619 35.6451 28.2462 35.3226C28.8734 35.0002 29.4152 34.5337 29.8272 33.9613L30.0776 33.6135L30.328 33.9613C30.7359 34.5378 31.2769 35.0075 31.905 35.3304C32.5331 35.6533 33.2298 35.82 33.936 35.8163H38.6988V37.6296C38.6988 38.8307 38.1469 40.5373 37.9475 41.7385C37.7992 42.5241 37.5978 43.2988 37.3446 44.0572C35.4386 48.769 28.626 48.769 26.822 44.0572C26.5438 43.3288 26.3418 42.5735 26.2191 41.8034C25.9177 40.4492 25.4169 38.8446 25.4169 37.6296V37.6203ZM32.0253 49.2466C33.1324 49.2411 34.2258 49.0025 35.2345 48.5464L35.3829 49.7985C35.4046 50.1588 35.5267 50.5057 35.7354 50.8002L32.0253 53.5827L28.3153 50.726C28.4904 50.4157 28.6082 50.0764 28.6631 49.7243L28.8162 48.4722C29.794 49.015 30.9035 49.2751 32.0207 49.2234L32.0253 49.2466ZM27.0678 52.0292L30.3744 54.5844L27.3646 56.189L25.8528 52.4697C26.2727 52.3966 26.6792 52.2606 27.0585 52.0663L27.0678 52.0292ZM47.7652 62.306H16.2809V58.5959C16.2847 57.317 16.709 56.0748 17.4883 55.0608C18.2677 54.0468 19.3589 53.3172 20.5938 52.9845C21.7262 52.7103 22.8841 52.5549 24.0488 52.5207L26.1032 57.6823C26.144 57.7982 26.2095 57.9038 26.2951 57.9919C26.3807 58.08 26.4844 58.1484 26.599 58.1925C26.7137 58.2366 26.8365 58.2553 26.9591 58.2473C27.0817 58.2393 27.201 58.2047 27.309 58.1461L32.0253 55.716L36.7371 58.1739C36.8445 58.2351 36.9642 58.2716 37.0874 58.2809C37.2107 58.2902 37.3345 58.272 37.4498 58.2276C37.5652 58.1833 37.6693 58.1138 37.7545 58.0243C37.8398 57.9348 37.9041 57.8275 37.9429 57.7101L39.9973 52.5486C41.1745 52.5931 42.3467 52.728 43.5033 52.952C44.7277 53.3025 45.8073 54.037 46.5829 55.0472C47.3585 56.0574 47.7892 57.29 47.8115 58.5635L47.7652 62.306Z" fill="#0B0B0B"></path></svg>