<svg xmlns="http://www.w3.org/2000/svg" width="72" height="72" viewBox="0 0 72 72" fill="none"><path d="M36 72C55.8823 72 72 55.8823 72 36C72 16.1177 55.8823 0 36 0C16.1177 0 0 16.1177 0 36C0 55.8823 16.1177 72 36 72Z" fill="#EBFFE9"></path><path fill-rule="evenodd" clip-rule="evenodd" d="M37.135 30.898C36.8759 30.8906 36.62 30.9567 36.397 31.0887C36.174 31.2208 35.993 31.4133 35.875 31.644L31.358 40.978C31.2503 41.2134 31.2391 41.4816 31.3268 41.7252C31.4145 41.9687 31.5941 42.1683 31.8272 42.281C32.0602 42.3937 32.3281 42.4107 32.5735 42.3282C32.8189 42.2458 33.0222 42.0706 33.14 41.84L37.14 33.581L43.807 47.359L38.217 45.871C37.5116 45.6831 36.7693 45.6831 36.064 45.871L30.474 47.359L30.609 47.081C30.7166 46.8456 30.7278 46.5774 30.6401 46.3339C30.5524 46.0903 30.3728 45.8908 30.1397 45.7781C29.9067 45.6654 29.6388 45.6484 29.3934 45.7308C29.148 45.8132 28.9447 45.9885 28.827 46.219L28.121 47.678C28.0217 47.9164 27.9894 48.1774 28.0275 48.4329C28.0657 48.6883 28.1729 48.9284 28.3376 49.1274C28.5023 49.3263 28.7182 49.4765 28.962 49.5618C29.2058 49.647 29.4682 49.664 29.721 49.611L36.577 47.782C36.9481 47.6831 37.3388 47.6831 37.71 47.782L44.566 49.611C44.8187 49.664 45.0812 49.647 45.3249 49.5618C45.5687 49.4765 45.7846 49.3263 45.9493 49.1274C46.114 48.9284 46.2212 48.6883 46.2594 48.4329C46.2975 48.1774 46.2652 47.9164 46.166 47.678L38.407 31.644C38.2889 31.4133 38.1079 31.2208 37.8849 31.0887C37.6619 30.9567 37.406 30.8906 37.147 30.898H37.135Z" fill="#252525"></path><path d="M36.15 21.947C35.4951 21.951 34.8681 22.2129 34.405 22.676C33.9419 23.1391 33.6799 23.7661 33.676 24.421H21.133C20.8996 23.7607 20.4402 23.2041 19.8361 22.8497C19.232 22.4953 18.5221 22.3659 17.8318 22.4843C17.1415 22.6027 16.5152 22.9613 16.0638 23.4968C15.6124 24.0323 15.3647 24.7101 15.3647 25.4105C15.3647 26.1109 15.6124 26.7888 16.0638 27.3242C16.5152 27.8597 17.1415 28.2184 17.8318 28.3368C18.5221 28.4552 19.232 28.3258 19.8361 27.9713C20.4402 27.6169 20.8996 27.0604 21.133 26.4H29.487C27.157 27.6869 25.1891 29.5404 23.7651 31.7892C22.3411 34.038 21.507 36.6095 21.34 39.266H21.305C20.6501 39.27 20.0231 39.5319 19.56 39.995C19.0969 40.4581 18.8349 41.0851 18.831 41.74V43.719C18.8349 44.374 19.0969 45.0009 19.56 45.4641C20.0231 45.9272 20.6501 46.1891 21.305 46.193H23.284C23.9389 46.1891 24.5659 45.9272 25.029 45.4641C25.4922 45.0009 25.7541 44.374 25.758 43.719V41.74C25.7537 41.0921 25.497 40.4714 25.0423 40.0098C24.5876 39.5482 23.9708 39.2821 23.323 39.268C23.5291 36.3664 24.6438 33.6033 26.5091 31.371C28.3743 29.1387 30.8952 27.5506 33.714 26.832C33.8187 27.4027 34.1192 27.919 34.5637 28.2919C35.0082 28.6648 35.5688 28.871 36.149 28.875H38.128C38.7082 28.871 39.2688 28.6648 39.7133 28.2919C40.1578 27.919 40.4583 27.4027 40.563 26.832C43.3817 27.5509 45.9024 29.1391 47.7676 31.3713C49.6328 33.6035 50.7476 36.3664 50.954 39.268C50.3062 39.2821 49.6894 39.5482 49.2347 40.0098C48.78 40.4714 48.5233 41.0921 48.519 41.74V43.719C48.5229 44.374 48.7849 45.0009 49.248 45.4641C49.7111 45.9272 50.3381 46.1891 50.993 46.193H52.972C53.6269 46.1891 54.2539 45.9272 54.717 45.4641C55.1802 45.0009 55.4421 44.374 55.446 43.719V41.74C55.4421 41.0851 55.1802 40.4581 54.717 39.995C54.2539 39.5319 53.6269 39.27 52.972 39.266H52.937C52.7702 36.6106 51.9372 34.0399 50.5149 31.7913C49.0926 29.5427 47.1268 27.6886 44.799 26.4H49.013C49.1456 26.4042 49.2777 26.3818 49.4014 26.3339C49.5251 26.2861 49.638 26.2139 49.7333 26.1216C49.8286 26.0293 49.9043 25.9188 49.9561 25.7966C50.0078 25.6745 50.0345 25.5432 50.0345 25.4105C50.0345 25.2779 50.0078 25.1466 49.9561 25.0244C49.9043 24.9023 49.8286 24.7917 49.7333 24.6994C49.638 24.6071 49.5251 24.5349 49.4014 24.4871C49.2777 24.4393 49.1456 24.4168 49.013 24.421H40.603C40.5991 23.7661 40.3372 23.1391 39.874 22.676C39.4109 22.2129 38.7839 21.951 38.129 21.947H36.15ZM55.943 22.442C55.3296 22.4444 54.7317 22.6357 54.2308 22.9898C53.7298 23.3438 53.35 23.8436 53.143 24.421H51.984C51.727 24.4292 51.4833 24.537 51.3044 24.7217C51.1255 24.9064 51.0255 25.1534 51.0255 25.4105C51.0255 25.6676 51.1255 25.9147 51.3044 26.0993C51.4833 26.284 51.727 26.3919 51.984 26.4H53.146C53.3276 26.9128 53.6467 27.3657 54.0683 27.7094C54.4899 28.0532 54.9978 28.2744 55.5366 28.349C56.0755 28.4236 56.6244 28.3487 57.1235 28.1324C57.6227 27.9162 58.0528 27.5669 58.3669 27.1228C58.681 26.6787 58.867 26.1568 58.9046 25.6142C58.9422 25.0715 58.8299 24.529 58.5801 24.0458C58.3302 23.5626 57.9524 23.1574 57.4879 22.8744C57.0233 22.5913 56.49 22.4415 55.946 22.441L55.943 22.442ZM36.15 23.927H38.129C38.1945 23.9251 38.2598 23.9366 38.3207 23.9608C38.3816 23.9849 38.437 24.0213 38.4833 24.0677C38.5297 24.114 38.5661 24.1694 38.5903 24.2303C38.6145 24.2913 38.6259 24.3565 38.624 24.422V26.401C38.6259 26.4665 38.6145 26.5318 38.5903 26.5927C38.5661 26.6536 38.5297 26.709 38.4833 26.7554C38.437 26.8017 38.3816 26.8381 38.3207 26.8623C38.2598 26.8865 38.1945 26.898 38.129 26.896H36.15C36.0845 26.898 36.0192 26.8865 35.9583 26.8623C35.8974 26.8381 35.842 26.8017 35.7957 26.7554C35.7493 26.709 35.7129 26.6536 35.6887 26.5927C35.6645 26.5318 35.6531 26.4665 35.655 26.401V24.422C35.6529 24.3564 35.6643 24.2911 35.6884 24.23C35.7126 24.169 35.7489 24.1135 35.7953 24.067C35.8417 24.0206 35.8971 23.9841 35.9581 23.9598C36.0191 23.9356 36.0844 23.9251 36.15 23.927ZM18.336 24.422C18.5318 24.422 18.7232 24.4801 18.886 24.5889C19.0488 24.6976 19.1757 24.8523 19.2506 25.0332C19.3256 25.2141 19.3452 25.4131 19.307 25.6052C19.2688 25.7972 19.1745 25.9736 19.036 26.1121C18.8976 26.2505 18.7212 26.3448 18.5291 26.383C18.3371 26.4212 18.138 26.4016 17.9571 26.3267C17.7762 26.2517 17.6216 26.1248 17.5129 25.962C17.4041 25.7992 17.346 25.6078 17.346 25.412C17.3438 25.2814 17.368 25.1516 17.4169 25.0305C17.4659 24.9093 17.5387 24.7993 17.6311 24.7068C17.7234 24.6144 17.8334 24.5414 17.9545 24.4923C18.0756 24.4432 18.2054 24.419 18.336 24.421V24.422ZM55.943 24.422C56.1388 24.422 56.3302 24.4801 56.493 24.5889C56.6558 24.6976 56.7827 24.8523 56.8576 25.0332C56.9326 25.2141 56.9522 25.4131 56.914 25.6052C56.8758 25.7972 56.7815 25.9736 56.643 26.1121C56.5046 26.2505 56.3282 26.3448 56.1361 26.383C55.9441 26.4212 55.745 26.4016 55.5641 26.3267C55.3832 26.2517 55.2286 26.1248 55.1199 25.962C55.0111 25.7992 54.953 25.6078 54.953 25.412C54.9508 25.2814 54.975 25.1516 55.0239 25.0305C55.0729 24.9093 55.1457 24.7993 55.2381 24.7068C55.3304 24.6144 55.4404 24.5414 55.5615 24.4923C55.6826 24.4432 55.8124 24.419 55.943 24.421V24.422ZM21.305 41.247H23.284C23.3495 41.2451 23.4148 41.2566 23.4757 41.2808C23.5366 41.305 23.592 41.3413 23.6383 41.3877C23.6847 41.4341 23.7211 41.4894 23.7453 41.5503C23.7695 41.6113 23.7809 41.6765 23.779 41.742V43.721C23.7809 43.7866 23.7695 43.8518 23.7453 43.9127C23.7211 43.9737 23.6847 44.029 23.6383 44.0753C23.592 44.1217 23.5366 44.1581 23.4757 44.1823C23.4148 44.2065 23.3495 44.218 23.284 44.216H21.305C21.2395 44.218 21.1742 44.2065 21.1133 44.1823C21.0524 44.1581 20.997 44.1217 20.9507 44.0753C20.9043 44.029 20.8679 43.9737 20.8437 43.9127C20.8195 43.8518 20.8081 43.7866 20.81 43.721V41.742C20.8081 41.6765 20.8195 41.6113 20.8437 41.5503C20.8679 41.4894 20.9043 41.4341 20.9507 41.3877C20.997 41.3413 21.0524 41.305 21.1133 41.2808C21.1742 41.2566 21.2395 41.2451 21.305 41.247ZM50.995 41.247H52.974C53.0395 41.2451 53.1048 41.2566 53.1657 41.2808C53.2266 41.305 53.282 41.3413 53.3283 41.3877C53.3747 41.4341 53.4111 41.4894 53.4353 41.5503C53.4595 41.6113 53.4709 41.6765 53.469 41.742V43.721C53.4709 43.7866 53.4595 43.8518 53.4353 43.9127C53.4111 43.9737 53.3747 44.029 53.3283 44.0753C53.282 44.1217 53.2266 44.1581 53.1657 44.1823C53.1048 44.2065 53.0395 44.218 52.974 44.216H50.995C50.9295 44.218 50.8642 44.2065 50.8033 44.1823C50.7424 44.1581 50.687 44.1217 50.6407 44.0753C50.5943 44.029 50.5579 43.9737 50.5337 43.9127C50.5095 43.8518 50.4981 43.7866 50.5 43.721V41.742C50.4981 41.6765 50.5095 41.6113 50.5337 41.5503C50.5579 41.4894 50.5943 41.4341 50.6407 41.3877C50.687 41.3413 50.7424 41.305 50.8033 41.2808C50.8642 41.2566 50.9295 41.2451 50.995 41.247Z" fill="#252525"></path><path fill-rule="evenodd" clip-rule="evenodd" d="M31.9871 44.0191C31.9871 44.2149 31.929 44.4063 31.8202 44.5691C31.7115 44.7319 31.5568 44.8588 31.3759 44.9337C31.195 45.0086 30.996 45.0282 30.8039 44.99C30.6119 44.9518 30.4355 44.8576 30.297 44.7191C30.1586 44.5806 30.0643 44.4042 30.0261 44.2122C29.9879 44.0202 30.0075 43.8211 30.0824 43.6402C30.1574 43.4593 30.2843 43.3047 30.4471 43.1959C30.6099 43.0871 30.8013 43.0291 30.9971 43.0291C31.2596 43.0291 31.5115 43.1334 31.6971 43.319C31.8828 43.5047 31.9871 43.7565 31.9871 44.0191Z" fill="#252525"></path></svg>