<svg xmlns="http://www.w3.org/2000/svg" width="72" height="72" viewBox="0 0 72 72" fill="none"><path d="M36 72C55.8823 72 72 55.8823 72 36C72 16.1177 55.8823 0 36 0C16.1177 0 0 16.1177 0 36C0 55.8823 16.1177 72 36 72Z" fill="#FDE9FF"></path><path d="M27.752 44.4041C27.4455 44.4043 27.1491 44.2951 26.916 44.0961L18.561 36.9811C18.4188 36.8598 18.3046 36.7091 18.2263 36.5394C18.148 36.3697 18.1074 36.185 18.1074 35.9981C18.1074 35.8112 18.148 35.6265 18.2263 35.4568C18.3046 35.2871 18.4188 35.1364 18.561 35.0151L26.916 27.9001C27.1767 27.6781 27.5149 27.5688 27.8562 27.5962C28.1975 27.6236 28.514 27.7854 28.736 28.0461C28.958 28.3068 29.0673 28.645 29.0399 28.9863C29.0125 29.3277 28.8507 29.6441 28.59 29.8661L21.39 35.9981L28.59 42.1301C28.791 42.3016 28.9346 42.5305 29.0015 42.7862C29.0684 43.0418 29.0552 43.3118 28.9639 43.5597C28.8726 43.8076 28.7074 44.0216 28.4907 44.1728C28.274 44.3239 28.0162 44.404 27.752 44.4041Z" fill="#252525"></path><path d="M44.2481 44.4039C43.9839 44.4038 43.7261 44.3227 43.5094 44.1715C43.2927 44.0204 43.1275 43.8064 43.0362 43.5585C42.9449 43.3105 42.9318 43.0406 42.9986 42.785C43.0655 42.5293 43.2091 42.3004 43.4101 42.1289L50.6101 35.9969L43.4101 29.8649C43.281 29.755 43.1749 29.6207 43.0977 29.4698C43.0205 29.3188 42.9737 29.1541 42.9602 28.9851C42.9328 28.6438 43.0421 28.3056 43.2641 28.0449C43.4861 27.7842 43.8026 27.6223 44.1439 27.595C44.4852 27.5676 44.8234 27.6769 45.0841 27.8989L53.4391 35.0139C53.5813 35.1352 53.6955 35.2859 53.7738 35.4556C53.8521 35.6253 53.8927 35.81 53.8927 35.9969C53.8927 36.1838 53.8521 36.3685 53.7738 36.5382C53.6955 36.7079 53.5813 36.8586 53.4391 36.9799L45.0841 44.0949C44.8511 44.2939 44.5546 44.4031 44.2481 44.4029V44.4039Z" fill="#252525"></path><path d="M33.1119 49.6529C33.0219 49.6528 32.9321 49.6434 32.844 49.6249C32.6778 49.5902 32.5201 49.523 32.3799 49.4273C32.2397 49.3316 32.1198 49.2092 32.0269 49.0671C31.9341 48.925 31.8701 48.766 31.8387 48.5992C31.8073 48.4324 31.8091 48.261 31.844 48.0949L37.051 23.3709C37.0859 23.205 37.1532 23.0476 37.2489 22.9076C37.3447 22.7677 37.4671 22.648 37.6091 22.5554C37.7511 22.4627 37.91 22.399 38.0767 22.3678C38.2433 22.3366 38.4145 22.3385 38.5805 22.3734C38.7464 22.4083 38.9038 22.4756 39.0437 22.5714C39.1837 22.6671 39.3033 22.7895 39.396 22.9316C39.4886 23.0736 39.5523 23.2325 39.5836 23.3991C39.6148 23.5658 39.6129 23.737 39.5779 23.9029L34.3709 48.6269C34.3103 48.9162 34.1521 49.1759 33.923 49.3627C33.6938 49.5494 33.4075 49.6519 33.1119 49.6529Z" fill="#252525"></path></svg>