<svg xmlns="http://www.w3.org/2000/svg" width="13" height="13" viewBox="0 0 13 13" fill="none"><path d="M9.6 10.6L0.699997 1.725C0.499997 1.525 0.399996 1.28733 0.399996 1.012C0.399996 0.736666 0.499997 0.499333 0.699997 0.299999C0.899997 0.0999992 1.13766 -5.18519e-07 1.413 -5.06484e-07C1.68833 -4.94449e-07 1.92566 0.0999992 2.125 0.299999L11 9.2L11 1.6C11 1.31667 11.096 1.079 11.288 0.887C11.48 0.695 11.7173 0.599333 12 0.6C12.2833 0.6 12.521 0.696 12.713 0.888C12.905 1.08 13.0007 1.31733 13 1.6L13 11.6C13 11.8833 12.904 12.121 12.712 12.313C12.52 12.505 12.2827 12.6007 12 12.6L2 12.6C1.71666 12.6 1.479 12.504 1.287 12.312C1.095 12.12 0.999329 11.8827 0.999996 11.6C0.999996 11.3167 1.096 11.079 1.288 10.887C1.48 10.695 1.71733 10.5993 2 10.6L9.6 10.6Z" fill="#245EFE"></path></svg>