<svg xmlns="http://www.w3.org/2000/svg" width="95" height="25" viewBox="0 0 95 25" fill="none"><path d="M89.5303 24.0576H5.47104C2.44924 24.0576 0.00976562 21.6087 0.00976562 18.5961V5.47054C0.00976562 2.44851 2.45843 0.0090332 5.47104 0.0090332H89.5394C92.5612 0.0090332 95.0007 2.4577 95.0007 5.47054V18.5961C95.0007 21.6179 92.5523 24.0576 89.5303 24.0576Z" fill="#E00B14"></path><path d="M57.5625 24.0575H5.46128C2.44844 24.0575 0 21.6086 0 18.596V5.46128C0 2.44844 2.44866 0 5.46128 0H57.5625C60.5753 0 63.024 2.44866 63.024 5.46128V18.5868C63.024 21.6086 60.5753 24.0575 57.5625 24.0575Z" fill="black"></path><path d="M87.5183 14.8094C88.1282 13.7353 88.4923 12.5247 88.6198 11.3505H86.7355C86.6901 12.0786 86.5442 12.8159 86.2988 13.4712C86.0529 14.1176 85.7341 14.6907 85.3247 15.1734C84.7146 15.8834 83.9229 16.3385 83.0311 16.3385C81.975 16.3385 81.2469 15.8834 80.9647 15.1279H78.9441C78.6164 15.9107 77.8426 16.3112 76.8688 16.3112C75.7946 16.3112 74.6931 15.5376 74.5749 13.9631H80.8827C81.0465 13.1892 81.6566 12.6065 82.6487 12.2333C82.6487 12.2333 83.5679 11.8967 84.4781 11.5052C85.7341 10.9227 86.6811 9.88502 86.6811 8.56517C86.6811 6.6901 85.079 6.04395 83.6317 6.04395C81.8021 6.04395 80.455 6.99962 80.455 8.52889C80.455 9.42992 80.9466 10.2765 81.6655 11.1231C81.2832 11.2598 80.9192 11.4327 80.5824 11.651C79.9996 10.04 78.6619 9.00214 76.8322 9.00214C74.4201 9.00214 72.6816 10.8136 72.6816 13.3619C72.6816 15.7833 74.2382 17.8586 76.9599 17.8586C78.2067 17.8586 79.1535 17.4035 79.8088 16.7663C80.4733 17.4489 81.4747 17.8586 82.7034 17.8586C84.2145 17.8586 85.4432 17.2577 86.3899 16.3295L87.6005 17.6494H90.1672L87.5183 14.8094ZM83.6315 7.45473C84.3234 7.45473 84.8875 7.84623 84.8875 8.61982C84.8875 9.3298 84.4598 10.0214 83.5041 10.4492L83.4857 10.4311C82.9213 9.83038 82.3845 9.13853 82.3845 8.4832C82.3847 7.83705 82.967 7.45473 83.6315 7.45473ZM76.8141 10.4584C77.9154 10.4584 78.9259 11.2595 78.9714 12.5794H74.5659C74.7204 10.9773 75.931 10.4584 76.8141 10.4584Z" fill="white"></path><path d="M10.4689 17.8586C9.77705 17.8586 9.15799 17.7403 8.62114 17.4944C8.08406 17.2485 7.64709 16.9208 7.2921 16.5114C6.93711 16.1018 6.67305 15.6196 6.482 15.0731C6.29991 14.527 6.20898 13.9445 6.20898 13.3346C6.20898 12.6883 6.3091 12.1059 6.50933 11.5689C6.70956 11.0318 6.99176 10.5767 7.34675 10.1854C7.70174 9.79412 8.13871 9.49355 8.64846 9.27518C9.15822 9.05681 9.72262 8.94751 10.3414 8.94751C11.006 8.94751 11.5975 9.07495 12.1164 9.32983C12.6351 9.5847 13.0631 9.93051 13.4181 10.3764C13.7639 10.8226 14.028 11.3413 14.1919 11.9512C14.3648 12.561 14.4195 13.2164 14.383 13.9353H8.12975C8.13893 14.2722 8.20254 14.5909 8.32998 14.8731C8.44823 15.1642 8.61218 15.4099 8.81241 15.6285C9.01264 15.8379 9.24937 16.0019 9.51321 16.1199C9.78623 16.2384 10.0776 16.2928 10.3871 16.2928C11.4067 16.2928 12.0893 15.9016 12.4262 15.1096H14.2739C14.1828 15.4464 14.028 15.7831 13.8278 16.1107C13.6275 16.4476 13.3727 16.739 13.0631 16.9938C12.7536 17.2485 12.3805 17.4579 11.9435 17.6219C11.5249 17.7766 11.0333 17.8586 10.4689 17.8586ZM10.3414 10.4221C10.0776 10.4221 9.81355 10.4676 9.55867 10.5496C9.3038 10.6315 9.06706 10.759 8.86683 10.9411C8.65742 11.114 8.49347 11.3326 8.34812 11.6056C8.2115 11.8786 8.13871 12.1973 8.12952 12.5613H12.4622C12.453 12.2336 12.3894 11.9333 12.2712 11.6694C12.1529 11.3964 11.9982 11.178 11.8161 10.9959C11.6248 10.8139 11.4064 10.6775 11.1515 10.5771C10.8967 10.4676 10.6328 10.4221 10.3414 10.4221Z" fill="white"></path><path d="M15.7845 6.89062H17.6688V9.13883H19.3801V10.5042H17.6688V15.1372C17.6688 15.5742 17.7416 15.8564 17.8782 16.0019C18.0148 16.1473 18.2878 16.2111 18.6883 16.2111H19.3709V17.6495H17.9783C17.5232 17.6495 17.159 17.6132 16.8679 17.5493C16.5857 17.4766 16.3581 17.3581 16.2033 17.1944C16.0486 17.0214 15.9393 16.7939 15.8757 16.5025C15.821 16.2111 15.7847 15.8472 15.7847 15.4194V10.495H14.5195V9.12965H15.7847L15.7845 6.89062Z" fill="white"></path><path d="M22.3296 6.18066V8.08306H20.4453V6.18066H22.3296ZM22.3296 9.13885V17.6495H20.4453V9.13885H22.3296Z" fill="white"></path><path d="M29.0466 11.5325C28.9554 11.132 28.7281 10.8406 28.3821 10.6588C28.0362 10.4767 27.5901 10.3857 27.053 10.3857C26.6161 10.3857 26.2521 10.4677 25.9334 10.6314C25.6241 10.7952 25.4693 11.0229 25.4693 11.3049C25.4693 11.8328 25.879 12.1786 26.7072 12.3518L27.8633 12.5885C28.2819 12.6794 28.6824 12.7887 29.0558 12.9162C29.4289 13.0342 29.7566 13.1892 30.0298 13.3802C30.303 13.5713 30.5212 13.808 30.676 14.081C30.8307 14.3632 30.9127 14.7093 30.9127 15.1187C30.9127 15.5648 30.8126 15.9561 30.6215 16.3019C30.4303 16.6479 30.1664 16.9301 29.8296 17.1575C29.4927 17.3853 29.1104 17.5582 28.6734 17.6762C28.2365 17.7947 27.7724 17.8583 27.2718 17.8583C26.7258 17.8583 26.225 17.7855 25.7791 17.6397C25.3329 17.4941 24.9417 17.2939 24.6229 17.039C24.3045 16.7839 24.0404 16.4838 23.8491 16.138C23.6579 15.7919 23.5396 15.4096 23.4941 15.0002H25.3327C25.4147 15.4551 25.6241 15.8103 25.9518 16.056C26.2794 16.3109 26.7437 16.4383 27.3444 16.4383C27.8723 16.4383 28.2911 16.3382 28.6096 16.1469C28.9281 15.9557 29.0829 15.6829 29.0829 15.346C29.0829 15.0092 28.9462 14.7543 28.664 14.5724C28.3818 14.3906 28.0177 14.2537 27.5628 14.1628L26.2794 13.8895C25.9063 13.817 25.5694 13.7169 25.251 13.5984C24.9325 13.4799 24.6592 13.3159 24.4317 13.1249C24.2041 12.9339 24.022 12.6882 23.8948 12.4149C23.7582 12.1329 23.6944 11.7961 23.6944 11.4138C23.6944 11.0315 23.7855 10.6948 23.9674 10.3943C24.1495 10.0939 24.4044 9.83904 24.7231 9.62963C25.0415 9.42022 25.4057 9.25649 25.8335 9.13824C26.2523 9.01998 26.7072 8.96533 27.1807 8.96533C27.6268 8.96533 28.0454 9.01998 28.4459 9.1201C28.8466 9.22917 29.2105 9.38393 29.529 9.60253C29.8475 9.8209 30.1207 10.085 30.3483 10.4126C30.5758 10.7313 30.7306 11.1134 30.8126 11.5414H29.0468L29.0466 11.5325Z" fill="white"></path><path d="M35.6371 8.88379C36.1649 8.88379 36.6566 8.94762 37.1025 9.07506C37.5484 9.2025 37.9399 9.41191 38.2676 9.69411C38.5952 9.97632 38.8412 10.3494 39.0233 10.8137C39.1962 11.2778 39.2781 11.8514 39.2689 12.5249C39.2689 12.6342 39.2689 12.7708 39.2598 12.9435C39.2506 13.1164 39.2506 13.3076 39.2506 13.5079C39.2506 13.7083 39.2506 13.9177 39.2414 14.1361C39.2322 14.3547 39.2322 14.5547 39.2322 14.746C39.2322 15.2831 39.2506 15.8112 39.296 16.3388C39.3415 16.8576 39.4053 17.3037 39.4873 17.6589H37.7578C37.7305 17.4768 37.6942 17.3037 37.6669 17.1402C37.6396 16.9671 37.6122 16.7395 37.5941 16.4481C37.3303 16.9214 36.9569 17.2766 36.4745 17.5133C35.992 17.7501 35.4276 17.8681 34.7996 17.8681C34.3353 17.8681 33.9078 17.8045 33.5255 17.686C33.1431 17.5675 32.8063 17.3946 32.5241 17.1673C32.2419 16.9489 32.0327 16.6759 31.8779 16.3664C31.7232 16.0569 31.6504 15.7019 31.6504 15.3104C31.6504 14.7827 31.8052 14.3455 32.1055 13.9997C32.415 13.6537 32.8244 13.3623 33.3434 13.1441C33.8621 12.9255 34.4722 12.7526 35.1638 12.6346C35.8554 12.5161 36.5927 12.4158 37.3755 12.334V12.1246C37.3755 11.7696 37.33 11.4693 37.2299 11.2326C37.139 10.9958 37.0024 10.8048 36.8384 10.6592C36.6747 10.5136 36.4834 10.4133 36.2651 10.3589C36.0465 10.3042 35.8008 10.2679 35.5369 10.2679C35.0545 10.2679 34.6449 10.3954 34.3172 10.6502C33.9895 10.9051 33.8166 11.2874 33.7985 11.8064H31.9507C31.9781 11.3694 32.0963 10.9781 32.2874 10.6231C32.4784 10.2681 32.7335 9.95862 33.052 9.69456C33.3705 9.43968 33.7528 9.23945 34.1898 9.09387C34.6267 8.9568 35.1092 8.88379 35.6371 8.88379ZM37.4302 13.6535C36.7567 13.7173 36.1831 13.7899 35.7098 13.872C35.2366 13.9542 34.8451 14.0633 34.5356 14.1908C34.2263 14.318 34.0077 14.4638 33.8621 14.6456C33.7165 14.8185 33.6527 15.028 33.6527 15.2739C33.6527 15.647 33.7983 15.9292 34.0805 16.1476C34.3627 16.357 34.745 16.4663 35.2182 16.4663C35.9098 16.4663 36.4561 16.275 36.8474 15.8927C37.2387 15.5104 37.4299 14.8642 37.4299 13.9722V13.6535H37.4302Z" fill="white"></path><path d="M42.7182 17.6495H40.834V6.18066H42.7182V17.6495Z" fill="white"></path><path d="M47.9342 8.88379C48.4618 8.88379 48.9537 8.94762 49.3996 9.07506C49.8455 9.2025 50.237 9.41191 50.5647 9.69411C50.8923 9.97632 51.1383 10.3494 51.3201 10.8137C51.4928 11.2778 51.575 11.8514 51.566 12.5249C51.566 12.6342 51.566 12.7708 51.5569 12.9435C51.5477 13.1164 51.5477 13.3076 51.5477 13.5079C51.5477 13.7083 51.5477 13.9177 51.5385 14.1361C51.5295 14.3547 51.5295 14.5547 51.5295 14.746C51.5295 15.2831 51.5477 15.8112 51.5931 16.3388C51.6386 16.8576 51.7024 17.3037 51.7844 17.6589H50.0549C50.0274 17.4768 49.9911 17.3037 49.9638 17.1402C49.9364 16.9671 49.9093 16.7395 49.891 16.4481C49.6271 16.9214 49.2538 17.2766 48.7716 17.5133C48.2891 17.7501 47.7247 17.8681 47.0965 17.8681C46.6322 17.8681 46.2047 17.8045 45.8223 17.686C45.44 17.5675 45.1032 17.3946 44.821 17.1673C44.5388 16.9489 44.3296 16.6759 44.1748 16.3664C44.0201 16.0569 43.9473 15.7019 43.9473 15.3104C43.9473 14.7827 44.102 14.3455 44.4024 13.9997C44.7119 13.6537 45.1213 13.3623 45.6403 13.1441C46.159 12.9255 46.7691 12.7526 47.4607 12.6346C48.1525 12.5161 48.8896 12.4158 49.6726 12.334V12.1246C49.6726 11.7696 49.6271 11.4693 49.527 11.2326C49.4361 10.9958 49.2992 10.8048 49.1355 10.6592C48.9718 10.5136 48.7805 10.4133 48.5619 10.3589C48.3436 10.3042 48.0979 10.2679 47.8338 10.2679C47.3514 10.2679 46.9417 10.3954 46.6141 10.6502C46.2864 10.9051 46.1135 11.2874 46.0954 11.8064H44.2476C44.2749 11.3694 44.3932 10.9781 44.5842 10.6231C44.7753 10.2681 45.0304 9.95862 45.3489 9.69456C45.6674 9.43968 46.0497 9.23945 46.4866 9.09387C46.9236 8.9568 47.406 8.88379 47.9342 8.88379ZM49.7273 13.6535C49.0538 13.7173 48.4804 13.7899 48.0069 13.872C47.5335 13.954 47.1422 14.0633 46.8327 14.1908C46.5231 14.318 46.3048 14.4638 46.1592 14.6456C46.0136 14.8185 45.9498 15.028 45.9498 15.2739C45.9498 15.647 46.0954 15.9292 46.3776 16.1476C46.6598 16.357 47.0421 16.4663 47.5153 16.4663C48.2069 16.4663 48.7532 16.275 49.1447 15.8927C49.536 15.5104 49.7273 14.8642 49.7273 13.9722V13.6535Z" fill="white"></path><path d="M53.359 6.89062H55.243V9.13883H56.9543V10.5042H55.243V15.1372C55.243 15.5742 55.3158 15.8564 55.4526 16.0019C55.589 16.1473 55.862 16.2111 56.2627 16.2111H56.9452V17.6495H55.5525C55.0974 17.6495 54.7335 17.6132 54.4421 17.5493C54.1599 17.4766 53.9325 17.3581 53.7776 17.1944C53.6228 17.0214 53.5137 16.7939 53.4499 16.5025C53.3952 16.2111 53.359 15.8472 53.359 15.4194V10.495H52.0938V9.12965H53.359V6.89062Z" fill="white"></path><path d="M67.7047 5.1792V6.64463C67.7959 6.49009 67.9144 6.3808 68.0689 6.29883C68.2234 6.21685 68.4058 6.17139 68.6058 6.17139C68.7878 6.17139 68.9608 6.20789 69.1245 6.28068C69.2884 6.35347 69.425 6.46277 69.5433 6.59917C69.6616 6.73579 69.7527 6.90869 69.8163 7.09974C69.8801 7.29101 69.9164 7.50938 69.9164 7.75508C69.9164 8.00077 69.8801 8.21937 69.8163 8.41959C69.7527 8.61064 69.6618 8.78355 69.5433 8.92017C69.425 9.05679 69.2884 9.16609 69.1245 9.23888C68.9608 9.31167 68.7968 9.34795 68.6058 9.34795C68.4055 9.34795 68.2234 9.30248 68.0689 9.22051C67.9144 9.13854 67.7959 9.02028 67.7047 8.8747V9.27516H67.0312V5.1792H67.7047ZM67.6776 7.74589C67.6776 7.9188 67.6958 8.07356 67.7412 8.21018C67.7867 8.3468 67.8322 8.44692 67.905 8.53785C67.9777 8.62878 68.0595 8.69261 68.1598 8.7289C68.2599 8.77459 68.3603 8.79273 68.4694 8.79273C68.7061 8.79273 68.888 8.7018 69.0246 8.51053C69.1518 8.32844 69.2248 8.07356 69.2248 7.74589C69.2248 7.42719 69.1612 7.17231 69.0246 6.99022C68.8971 6.80813 68.7059 6.70802 68.4694 6.70802C68.3603 6.70802 68.2599 6.72638 68.1598 6.77185C68.0597 6.81732 67.9777 6.88092 67.905 6.96312C67.8322 7.04509 67.7775 7.15416 67.7412 7.29078C67.6958 7.42741 67.6776 7.57299 67.6776 7.74589Z" fill="white"></path><path d="M70.1633 10.258V9.74826H70.4182C70.491 9.74826 70.5546 9.74826 70.6094 9.73907C70.6643 9.72989 70.7096 9.72093 70.755 9.68443C70.8005 9.6571 70.8368 9.61164 70.8733 9.55699C70.9096 9.50234 70.9369 9.42037 70.9732 9.32944L71.0097 9.25664L69.9082 6.23462H70.6455L71.3374 8.41004L72.0292 6.23462H72.721L71.6561 9.2656C71.5833 9.45687 71.5194 9.62059 71.4464 9.74803C71.3828 9.87547 71.3011 9.97559 71.2189 10.0484C71.1279 10.1212 71.0276 10.1758 70.9185 10.2031C70.8003 10.2305 70.6545 10.2486 70.4907 10.2486H70.1631L70.1633 10.258Z" fill="white"></path></svg>