<svg xmlns="http://www.w3.org/2000/svg" width="60" height="60" viewBox="0 0 60 60" fill="none"><path d="M50.183 39.3601C50.3123 39.3601 50.4404 39.3346 50.5598 39.2851C50.6793 39.2356 50.7878 39.1631 50.8792 39.0717C50.9707 38.9802 51.0432 38.8717 51.0927 38.7523C51.1422 38.6328 51.1676 38.5048 51.1676 38.3755V37.3925C51.173 37.2599 51.1515 37.1277 51.1044 37.0037C51.0574 36.8797 50.9858 36.7664 50.8939 36.6708C50.802 36.5751 50.6918 36.499 50.5697 36.447C50.4477 36.395 50.3165 36.3682 50.1838 36.3682C50.0512 36.3682 49.9199 36.395 49.7979 36.447C49.6759 36.499 49.5656 36.5751 49.4737 36.6708C49.3818 36.7664 49.3102 36.8797 49.2632 37.0037C49.2162 37.1277 49.1947 37.2599 49.2 37.3925V38.3755C49.1998 38.5047 49.2251 38.6327 49.2744 38.7521C49.3237 38.8716 49.3961 38.9801 49.4874 39.0716C49.5787 39.163 49.6871 39.2356 49.8065 39.2851C49.9258 39.3346 50.0538 39.3601 50.183 39.3601Z" fill="#0B0B0B"></path><path d="M48.2152 39.36H47.2354C46.9741 39.36 46.7234 39.4639 46.5386 39.6487C46.3538 39.8335 46.25 40.0841 46.25 40.3454C46.25 40.6068 46.3538 40.8574 46.5386 41.0422C46.7234 41.227 46.9741 41.3308 47.2354 41.3308H48.2184C48.3509 41.3362 48.4832 41.3147 48.6072 41.2677C48.7312 41.2206 48.8444 41.149 48.9401 41.0571C49.0358 40.9653 49.1119 40.855 49.1638 40.733C49.2158 40.6109 49.2426 40.4797 49.2426 40.347C49.2426 40.2144 49.2158 40.0831 49.1638 39.9611C49.1119 39.8391 49.0358 39.7288 48.9401 39.637C48.8444 39.5451 48.7312 39.4735 48.6072 39.4264C48.4832 39.3794 48.3509 39.3579 48.2184 39.3632L48.2152 39.36Z" fill="#0B0B0B"></path><path d="M50.1832 41.3309C49.9225 41.3309 49.6725 41.4344 49.4881 41.6188C49.3038 41.8031 49.2002 42.0532 49.2002 42.3139V43.2985C49.2104 43.5525 49.3186 43.7928 49.5019 43.9689C49.6853 44.1451 49.9297 44.2434 50.184 44.2434C50.4383 44.2434 50.6827 44.1451 50.8661 43.9689C51.0494 43.7928 51.1576 43.5525 51.1678 43.2985V42.3139C51.1678 42.1847 51.1423 42.0567 51.0928 41.9373C51.0433 41.818 50.9708 41.7095 50.8793 41.6182C50.7879 41.5269 50.6793 41.4545 50.5599 41.4052C50.4404 41.3559 50.3124 41.3307 50.1832 41.3309Z" fill="#0B0B0B"></path><path d="M54.1177 40.3431C54.1177 40.0823 54.0141 39.8323 53.8297 39.648C53.6454 39.4636 53.3954 39.36 53.1346 39.36H52.15C51.896 39.3703 51.6557 39.4784 51.4796 39.6618C51.3034 39.8452 51.2051 40.0896 51.2051 40.3438C51.2051 40.5981 51.3034 40.8425 51.4796 41.0259C51.6557 41.2093 51.896 41.3174 52.15 41.3277H53.1394C53.3996 41.3264 53.6486 41.222 53.832 41.0375C54.0154 40.8529 54.1181 40.6032 54.1177 40.3431Z" fill="#0B0B0B"></path><path d="M33.4573 39.3601H31.4897V37.3925C31.495 37.2599 31.4736 37.1277 31.4265 37.0037C31.3795 36.8797 31.3079 36.7664 31.216 36.6708C31.1241 36.5751 31.0139 36.499 30.8918 36.447C30.7698 36.395 30.6385 36.3682 30.5059 36.3682C30.3733 36.3682 30.242 36.395 30.12 36.447C29.998 36.499 29.8877 36.5751 29.7958 36.6708C29.7039 36.7664 29.6323 36.8797 29.5853 37.0037C29.5383 37.1277 29.5168 37.2599 29.5221 37.3925V39.3601H27.5545C27.422 39.3547 27.2897 39.3762 27.1657 39.4233C27.0417 39.4703 26.9285 39.5419 26.8328 39.6338C26.7372 39.7257 26.6611 39.8359 26.6091 39.9579C26.5571 40.08 26.5303 40.2112 26.5303 40.3439C26.5303 40.4765 26.5571 40.6078 26.6091 40.7298C26.6611 40.8518 26.7372 40.9621 26.8328 41.054C26.9285 41.1458 27.0417 41.2174 27.1657 41.2645C27.2897 41.3115 27.422 41.333 27.5545 41.3277H29.5221V43.2953C29.5323 43.5493 29.6405 43.7896 29.8238 43.9657C30.0072 44.1419 30.2516 44.2402 30.5059 44.2402C30.7602 44.2402 31.0046 44.1419 31.188 43.9657C31.3714 43.7896 31.4795 43.5493 31.4897 43.2953V41.3309H33.4573C33.5898 41.3362 33.7221 41.3147 33.8461 41.2677C33.9701 41.2206 34.0834 41.149 34.179 41.0571C34.2747 40.9653 34.3508 40.855 34.4028 40.733C34.4547 40.611 34.4815 40.4797 34.4815 40.3471C34.4815 40.2144 34.4547 40.0832 34.4028 39.9611C34.3508 39.8391 34.2747 39.7288 34.179 39.637C34.0834 39.5451 33.9701 39.4735 33.8461 39.4264C33.7221 39.3794 33.5898 39.3579 33.4573 39.3633V39.3601Z" fill="#0B0B0B"></path><path d="M38.3768 43.2953H37.3922C37.1382 43.3055 36.8979 43.4137 36.7218 43.597C36.5456 43.7804 36.4473 44.0248 36.4473 44.2791C36.4473 44.5334 36.5456 44.7778 36.7218 44.9612C36.8979 45.1445 37.1382 45.2527 37.3922 45.2629H38.3768C38.6309 45.2527 38.8712 45.1445 39.0473 44.9612C39.2234 44.7778 39.3218 44.5334 39.3218 44.2791C39.3218 44.0248 39.2234 43.7804 39.0473 43.597C38.8712 43.4137 38.6309 43.3055 38.3768 43.2953Z" fill="#0B0B0B"></path><path d="M43.2953 43.2953H42.3123C42.1798 43.29 42.0475 43.3114 41.9235 43.3585C41.7995 43.4055 41.6863 43.4771 41.5906 43.569C41.495 43.6609 41.4189 43.7711 41.3669 43.8932C41.3149 44.0152 41.2881 44.1465 41.2881 44.2791C41.2881 44.4117 41.3149 44.543 41.3669 44.665C41.4189 44.787 41.495 44.8973 41.5906 44.9892C41.6863 45.0811 41.7995 45.1527 41.9235 45.1997C42.0475 45.2467 42.1798 45.2682 42.3123 45.2629H43.2953C43.4278 45.2682 43.5601 45.2467 43.6841 45.1997C43.8081 45.1527 43.9214 45.0811 44.017 44.9892C44.1127 44.8973 44.1888 44.787 44.2408 44.665C44.2928 44.543 44.3195 44.4117 44.3195 44.2791C44.3195 44.1465 44.2928 44.0152 44.2408 43.8932C44.1888 43.7711 44.1127 43.6609 44.017 43.569C43.9214 43.4771 43.8081 43.4055 43.6841 43.3585C43.5601 43.3114 43.4278 43.29 43.2953 43.2953Z" fill="#0B0B0B"></path><path d="M59.0186 40.2521C58.9556 38.1053 58.1313 36.0509 56.693 34.4559C55.2547 32.8609 53.2962 31.8293 51.1673 31.5455V3.9384C51.1677 3.42163 51.0663 2.90982 50.869 2.43222C50.6716 1.95462 50.3821 1.52057 50.0169 1.15486C49.6518 0.789143 49.2183 0.498926 48.741 0.300776C48.2637 0.102626 47.7521 0.000424135 47.2353 5.18215e-06H3.94159C3.42388 -0.000834974 2.91108 0.10049 2.43259 0.298177C1.9541 0.495863 1.51932 0.786024 1.15316 1.15203C0.787002 1.51804 0.496665 1.9527 0.298785 2.43112C0.100906 2.90953 -0.000627592 3.42228 2.9186e-06 3.94V43.2953C-0.000627592 43.813 0.100906 44.3257 0.298785 44.8042C0.496665 45.2826 0.787002 45.7172 1.15316 46.0832C1.51932 46.4492 1.9541 46.7394 2.43259 46.9371C2.91108 47.1348 3.42388 47.2361 3.94159 47.2353H15.7504V49.6609L10.2832 53.2993C10.1481 53.3896 10.0374 53.5118 9.96085 53.6552C9.8843 53.7985 9.84431 53.9586 9.84441 54.1211V57.0717C9.84378 57.3302 9.8941 57.5863 9.9925 57.8254C10.0909 58.0645 10.2354 58.2818 10.4179 58.465C10.6003 58.6481 10.8171 58.7936 11.0557 58.8929C11.2944 58.9923 11.5503 59.0437 11.8088 59.0441H39.3601C39.6194 59.0445 39.8763 58.9937 40.1159 58.8945C40.3555 58.7953 40.5731 58.6497 40.7563 58.4661C40.9394 58.2825 41.0845 58.0645 41.1831 57.8247C41.2817 57.5848 41.3319 57.3278 41.3309 57.0685V54.1179C41.3304 53.9483 41.286 53.7818 41.2021 53.6344C41.1183 53.4871 40.9977 53.3639 40.8521 53.2769L35.2222 49.8332L35.294 49.7039C35.3792 49.5505 35.5039 49.4227 35.6551 49.3338C35.8064 49.2448 35.9787 49.198 36.1541 49.1981H44.5256C44.7009 49.1977 44.8731 49.2445 45.0241 49.3335C45.1752 49.4225 45.2995 49.5504 45.3842 49.7039L49.064 56.3105C49.6357 57.3451 50.5355 58.1599 51.6216 58.6265C52.7077 59.093 53.9182 59.1847 55.0621 58.8871C56.2061 58.5895 57.2184 57.9196 57.9394 56.9829C58.6604 56.0462 59.0491 54.8962 59.0441 53.7142V40.6287C59.0441 40.5729 59.0441 40.5202 59.0441 40.4691C59.0441 40.4181 59.0441 40.3862 59.0441 40.3463C59.0392 40.3156 59.0328 40.2853 59.0249 40.2553L59.0186 40.2521ZM3.94159 1.9724H47.2353C47.7571 1.9724 48.2576 2.1797 48.6266 2.54869C48.9956 2.91769 49.2029 3.41816 49.2029 3.94V31.5471C47.0381 31.7817 45.0383 32.8143 43.5937 34.4434H37.1068C36.0904 33.2961 34.7913 32.435 33.3388 31.9458C31.8862 31.4565 30.3308 31.3562 28.8274 31.6547C27.324 31.9533 25.9251 32.6404 24.7697 33.6476C23.6143 34.6548 22.7429 35.947 22.2421 37.3957H1.97559V3.94C1.97559 3.41844 2.18267 2.91821 2.55132 2.54926C2.91997 2.18031 3.42003 1.97282 3.94159 1.9724ZM21.6548 53.1333H14.0748L17.027 51.1657H21.6548V53.1333ZM1.97399 43.2953V39.3601H21.749C21.7091 39.6553 21.6835 39.9505 21.6724 40.2521C21.6724 40.284 21.6532 40.3112 21.6532 40.3431C21.6532 40.375 21.6612 40.4229 21.6612 40.4643C21.6612 40.5058 21.6516 40.5729 21.6516 40.6239V45.2517H3.94159C3.42168 45.2517 2.9229 45.0459 2.55422 44.6794C2.18554 44.3128 1.97694 43.8152 1.97399 43.2953ZM21.6516 47.2353V49.1981H17.7132V47.2353H21.6516ZM11.8088 55.1009H21.8623C22.0569 55.8215 22.4029 56.4922 22.8772 57.0685H11.8088V55.1009ZM31.0923 57.0685C31.2912 56.8313 31.469 56.5771 31.6237 56.3089L32.2907 55.1009H39.3569V57.0685H31.0923ZM36.8627 53.1397H33.3902L34.2679 51.5662L36.8627 53.1397ZM57.0781 53.7205C57.0811 54.4645 56.8364 55.1883 56.3827 55.7779C55.929 56.3675 55.292 56.7893 54.5721 56.9769C53.8521 57.1645 53.0903 57.1072 52.4065 56.8141C51.7227 56.5209 51.1559 56.0086 50.7955 55.3578L47.1172 48.7529C46.8613 48.2934 46.4874 47.9106 46.034 47.6441C45.5806 47.3775 45.0643 47.237 44.5384 47.2369H36.1589C35.633 47.2368 35.1166 47.3773 34.6632 47.6438C34.2098 47.9104 33.8358 48.2933 33.5801 48.7529L29.9098 55.3546C29.5516 56.0107 28.9843 56.5281 28.2982 56.8247C27.612 57.1212 26.8465 57.1799 26.1232 56.9913C25.3999 56.8027 24.7604 56.3778 24.3064 55.7839C23.8524 55.1901 23.61 54.4616 23.6176 53.7142V45.8852C24.298 46.7423 25.1319 47.4652 26.0767 48.0172C26.2256 48.1049 26.3955 48.1507 26.5682 48.1497C26.785 48.1503 26.996 48.0793 27.1682 47.9477C27.3405 47.816 27.4644 47.6311 27.5206 47.4217C27.5769 47.2124 27.5624 46.9903 27.4793 46.79C27.3962 46.5898 27.2493 46.4226 27.0613 46.3145C26.0346 45.7176 25.179 44.8661 24.5772 43.8422C23.9754 42.8183 23.6477 41.6566 23.6256 40.4691C23.6305 38.6427 24.3447 36.8895 25.6174 35.5795C26.8902 34.2696 28.622 33.5052 30.4476 33.4477C31.4691 33.4309 32.4811 33.6465 33.4072 34.078C34.3333 34.5095 35.1492 35.1457 35.7935 35.9387C36.4459 36.7186 36.9169 37.6338 37.1722 38.618C37.2269 38.8301 37.3508 39.018 37.5242 39.1518C37.6976 39.2856 37.9107 39.3578 38.1297 39.3569C38.2147 39.3571 38.2994 39.347 38.3818 39.3266C38.5071 39.2942 38.6247 39.2375 38.728 39.1597C38.8313 39.0819 38.9183 38.9844 38.9839 38.873C39.0496 38.7616 39.0926 38.6383 39.1106 38.5102C39.1286 38.3821 39.1212 38.2517 39.0888 38.1265C38.9309 37.531 38.7105 36.9539 38.4313 36.4047H42.2692C41.9915 36.9543 41.7717 37.5314 41.6133 38.1265C41.5482 38.379 41.5857 38.6469 41.7175 38.8718C41.8494 39.0966 42.065 39.2602 42.3171 39.3266C42.3981 39.3462 42.4811 39.3563 42.5644 39.3569C42.7835 39.358 42.9967 39.286 43.1702 39.1521C43.3437 39.0183 43.4675 38.8303 43.5219 38.618C43.9109 37.143 44.7754 35.8374 45.9817 34.9035C47.1879 33.9696 48.6684 33.4596 50.1939 33.4525H50.2513C52.0744 33.5099 53.8041 34.2723 55.0765 35.5792C56.3489 36.8861 57.0647 38.6356 57.0733 40.4596C57.0518 41.6474 56.7243 42.8095 56.1225 43.8338C55.5206 44.858 54.6648 45.7097 53.6376 46.3065C53.5191 46.3676 53.4142 46.4521 53.3293 46.5549C53.2444 46.6577 53.1813 46.7767 53.1438 46.9046C53.1062 47.0325 53.0951 47.1667 53.111 47.2991C53.1269 47.4315 53.1695 47.5592 53.2362 47.6746C53.3029 47.7901 53.3924 47.8907 53.4992 47.9705C53.606 48.0503 53.7279 48.1076 53.8575 48.1389C53.9871 48.1702 54.1217 48.1748 54.2531 48.1525C54.3846 48.1302 54.5101 48.0815 54.6222 48.0092C55.5662 47.4587 56.4 46.738 57.0813 45.8836L57.0781 53.7205Z" fill="#0B0B0B"></path><path d="M18.0036 27.2656C18.1903 27.4393 18.4371 27.5337 18.692 27.5291C18.9469 27.5245 19.1901 27.4212 19.3704 27.2409C19.5507 27.0606 19.654 26.8174 19.6586 26.5625C19.6632 26.3076 19.5688 26.0608 19.3951 25.8741L12.2141 18.6931L19.3951 11.512C19.5688 11.3253 19.6632 11.0786 19.6586 10.8236C19.654 10.5687 19.5507 10.3255 19.3704 10.1452C19.1901 9.9649 18.9469 9.86158 18.692 9.85697C18.4371 9.85237 18.1903 9.94683 18.0036 10.1205L10.1332 18.0037C10.0417 18.0948 9.9692 18.2032 9.9197 18.3224C9.87021 18.4417 9.84473 18.5695 9.84473 18.6986C9.84473 18.8278 9.87021 18.9556 9.9197 19.0749C9.9692 19.1941 10.0417 19.3024 10.1332 19.3936L18.0036 27.2656Z" fill="#0B0B0B"></path><path d="M31.7788 27.2656C31.9634 27.4495 32.2133 27.5527 32.4738 27.5527C32.7343 27.5527 32.9842 27.4495 33.1688 27.2656L41.0408 19.3936C41.2246 19.209 41.3279 18.9591 41.3279 18.6986C41.3279 18.4381 41.2246 18.1882 41.0408 18.0036L33.1688 10.1316C32.9842 9.94731 32.734 9.84384 32.4732 9.84399C32.2124 9.84414 31.9623 9.94789 31.778 10.1324C31.5937 10.3169 31.4902 10.5671 31.4904 10.828C31.4905 11.0888 31.5943 11.3388 31.7788 11.5232L38.9599 18.7042L31.7788 25.8852C31.6873 25.9765 31.6148 26.085 31.5652 26.2044C31.5157 26.3238 31.4902 26.4517 31.4902 26.581C31.4902 26.7102 31.5157 26.8382 31.5652 26.9576C31.6148 27.077 31.6873 27.1854 31.7788 27.2767V27.2656Z" fill="#0B0B0B"></path><path d="M22.2898 27.4906C22.5343 27.5817 22.8049 27.5722 23.0423 27.4643C23.2798 27.3563 23.4648 27.1586 23.5569 26.9145L29.4613 11.1737C29.5123 11.0515 29.538 10.9203 29.5371 10.7879C29.5362 10.6556 29.5086 10.5247 29.456 10.4033C29.4034 10.2818 29.3268 10.1722 29.2308 10.081C29.1348 9.9898 29.0215 9.91889 28.8975 9.87252C28.7735 9.82614 28.6414 9.80524 28.5092 9.81108C28.3769 9.81691 28.2472 9.84936 28.1278 9.90647C28.0083 9.96358 27.9017 10.0442 27.8141 10.1435C27.7265 10.2428 27.6599 10.3587 27.6182 10.4843L21.7138 26.2268C21.6685 26.3476 21.6475 26.4761 21.652 26.605C21.6564 26.734 21.6863 26.8607 21.7398 26.9781C21.7933 27.0955 21.8694 27.2012 21.9638 27.2891C22.0582 27.3771 22.169 27.4455 22.2898 27.4906Z" fill="#0B0B0B"></path></svg>