<svg xmlns="http://www.w3.org/2000/svg" width="22" height="20" viewBox="0 0 22 20" fill="none"><path d="M11.5051 16.03C11.3443 15.8795 11.1312 15.7974 10.911 15.8011C10.6908 15.8048 10.4806 15.8939 10.3248 16.0496C10.1691 16.2054 10.08 16.4156 10.0763 16.6358C10.0726 16.856 10.1546 17.0691 10.3051 17.2299L12.5601 19.4849C12.7193 19.6439 12.9351 19.7333 13.1602 19.7333C13.3852 19.7333 13.6009 19.6439 13.7601 19.4849L20.8151 12.4299C20.9656 12.2691 21.0477 12.056 21.044 11.8358C21.0403 11.6156 20.9512 11.4054 20.7955 11.2496C20.6397 11.0939 20.4295 11.0048 20.2093 11.0011C19.989 10.9974 19.776 11.0794 19.6151 11.2299L13.1602 17.6849L11.5051 16.03Z" fill="white"></path><path d="M3.078 19.736H8.17799C8.40343 19.736 8.61963 19.6464 8.77904 19.487C8.93844 19.3276 9.028 19.1114 9.028 18.886C9.028 18.6606 8.93844 18.4444 8.77904 18.285C8.61963 18.1256 8.40343 18.036 8.17799 18.036H3.078C2.71341 18.0357 2.36382 17.8908 2.10602 17.633C1.84821 17.3752 1.70327 17.0256 1.703 16.661V8.73499H18.075L19.775 8.69499V4.87C19.7742 4.05496 19.4501 3.27353 18.8738 2.69722C18.2974 2.12091 17.516 1.79678 16.701 1.79599H14.674V0.849991C14.674 0.624557 14.5845 0.408353 14.425 0.248947C14.2656 0.0895412 14.0494 0 13.824 0C13.5986 0 13.3824 0.0895412 13.223 0.248947C13.0636 0.408353 12.974 0.624557 12.974 0.849991V1.79599H6.974V0.849991C6.974 0.624557 6.88444 0.408353 6.72504 0.248947C6.56563 0.0895412 6.34944 0 6.12401 0C5.89857 0 5.68237 0.0895412 5.52296 0.248947C5.36356 0.408353 5.274 0.624557 5.274 0.849991V1.79599H3.07401C2.25897 1.79678 1.47754 2.12091 0.90123 2.69722C0.324915 3.27353 0.000794249 4.05496 0 4.87V16.66C0.000131301 17.0641 0.0798488 17.4642 0.234604 17.8374C0.389359 18.2107 0.616128 18.5498 0.901947 18.8355C1.18777 19.1211 1.52704 19.3476 1.90041 19.5022C2.27378 19.6567 2.67393 19.7361 3.078 19.736ZM1.703 4.87199C1.70327 4.5074 1.84821 4.15781 2.10602 3.90001C2.36382 3.6422 2.71341 3.49726 3.078 3.49699H16.7C17.0644 3.49752 17.4138 3.64258 17.6713 3.90036C17.9289 4.15814 18.0737 4.50758 18.074 4.87199V7.28299H1.70399L1.703 4.87199Z" fill="white"></path></svg>