<svg xmlns="http://www.w3.org/2000/svg" width="92" height="92" viewBox="0 0 92 92" fill="none"><circle opacity="0.21" cx="46" cy="46" r="46" fill="white"></circle><path d="M57.1248 30.4402C55.3246 28.8172 53.1985 27.5974 50.8887 26.8626C48.5789 26.1279 46.1388 25.8951 43.7317 26.1798C40.0986 26.5948 36.6934 28.1607 34.0136 30.6487C31.3338 33.1368 29.5199 36.4166 28.8369 40.009C28.1538 43.6014 28.6375 47.318 30.2172 50.6159C31.7969 53.9139 34.3898 56.6202 37.6171 58.3395V68.4466C37.6177 68.9816 37.8304 69.4945 38.2087 69.8728C38.587 70.2511 39.1 70.4639 39.635 70.4644H41.6528V72.4823C41.6534 73.0173 41.8661 73.5302 42.2444 73.9085C42.6227 74.2868 43.1357 74.4996 43.6707 74.5002H47.7064C48.2414 74.4996 48.7544 74.2868 49.1327 73.9085C49.511 73.5302 49.7237 73.0173 49.7243 72.4823V70.4644H51.7421C52.2771 70.4639 52.7901 70.2511 53.1684 69.8728C53.5467 69.4945 53.7594 68.9816 53.76 68.4466V58.34C56.1951 57.0431 58.281 55.1773 59.8405 52.9014C61.3999 50.6254 62.3868 48.0066 62.7171 45.2675C63.0475 42.5284 62.7115 39.75 61.7379 37.1686C60.7643 34.5871 59.1817 32.2789 57.1248 30.4402ZM51.7421 62.393V64.4109H39.635V62.393H51.7421ZM47.7079 72.4823H43.6707V70.4644H47.7069L47.7079 72.4823ZM48.7153 68.4466H39.635V66.4287H51.7421V68.4466H48.7153ZM52.3086 56.8159C52.1387 56.8986 51.9955 57.0275 51.8953 57.1878C51.7952 57.3481 51.7421 57.5333 51.7421 57.7223V60.3752H46.6975V55.7483L49.4286 53.017C49.6124 52.8267 49.7141 52.5719 49.7118 52.3074C49.7095 52.0428 49.6034 51.7898 49.4164 51.6027C49.2293 51.4156 48.9762 51.3095 48.7117 51.3072C48.4472 51.3049 48.1923 51.4066 48.002 51.5904L45.6886 53.9038L43.3751 51.5904C43.1848 51.4066 42.9299 51.3049 42.6654 51.3072C42.4009 51.3095 42.1478 51.4156 41.9607 51.6027C41.7737 51.7898 41.6676 52.0428 41.6653 52.3074C41.663 52.5719 41.7647 52.8267 41.9485 53.017L44.6796 55.7483V60.3752H39.635V57.7223C39.635 57.5333 39.5819 57.3481 39.4818 57.1878C39.3816 57.0275 39.2384 56.8986 39.0685 56.8159C36.1232 55.3855 33.7218 53.0379 32.2249 50.1259C30.728 47.2139 30.2165 43.8948 30.7673 40.6673C31.3181 37.4398 32.9015 34.4782 35.2795 32.2275C37.6574 29.9768 40.7016 28.5586 43.9545 28.186C44.5372 28.1209 45.123 28.0882 45.7092 28.0879C49.4283 28.0768 53.0182 29.4514 55.7788 31.9435C57.6294 33.5975 59.0443 35.6816 59.8986 38.0119C60.7529 40.3422 61.0204 42.847 60.6774 45.3051C60.3345 47.7632 59.3916 50.0991 57.9321 52.1066C56.4725 54.114 54.5412 55.7316 52.3086 56.8159Z" fill="white"></path><path d="M45.6876 24.0536C45.9552 24.0536 46.2118 23.9473 46.4011 23.7581C46.5903 23.5689 46.6966 23.3122 46.6966 23.0446V19.0089C46.6966 18.7413 46.5903 18.4847 46.4011 18.2955C46.2118 18.1063 45.9552 18 45.6876 18C45.4201 18 45.1634 18.1063 44.9742 18.2955C44.785 18.4847 44.6787 18.7413 44.6787 19.0089V23.0446C44.6787 23.3122 44.785 23.5689 44.9742 23.7581C45.1634 23.9473 45.4201 24.0536 45.6876 24.0536Z" fill="white"></path><path d="M30.7068 29.6681C30.7999 29.7644 30.9112 29.8413 31.0343 29.8942C31.1574 29.9471 31.2898 29.9749 31.4237 29.9761C31.5577 29.9772 31.6906 29.9517 31.8145 29.901C31.9385 29.8502 32.0512 29.7753 32.1459 29.6806C32.2407 29.5859 32.3156 29.4732 32.3663 29.3492C32.417 29.2252 32.4426 29.0924 32.4414 28.9584C32.4402 28.8244 32.4124 28.692 32.3595 28.569C32.3066 28.4459 32.2298 28.3345 32.1334 28.2415L29.2796 25.3876C29.1865 25.2912 29.0752 25.2144 28.9521 25.1615C28.829 25.1086 28.6966 25.0808 28.5626 25.0796C28.4287 25.0785 28.2958 25.104 28.1718 25.1547C28.0478 25.2055 27.9352 25.2804 27.8404 25.3751C27.7457 25.4698 27.6708 25.5825 27.6201 25.7065C27.5693 25.8305 27.5438 25.9633 27.545 26.0973C27.5461 26.2313 27.574 26.3636 27.6268 26.4867C27.6797 26.6098 27.7566 26.7212 27.8529 26.8142L30.7068 29.6681Z" fill="white"></path><path d="M25.5095 42.2144H21.4738C21.2062 42.2144 20.9496 42.3207 20.7604 42.5099C20.5711 42.6991 20.4648 42.9557 20.4648 43.2233C20.4648 43.4909 20.5711 43.7475 20.7604 43.9367C20.9496 44.1259 21.2062 44.2322 21.4738 44.2322H25.5095C25.7771 44.2322 26.0337 44.1259 26.2229 43.9367C26.4121 43.7475 26.5184 43.4909 26.5184 43.2233C26.5184 42.9557 26.4121 42.6991 26.2229 42.5099C26.0337 42.3207 25.7771 42.2144 25.5095 42.2144Z" fill="white"></path><path d="M30.7068 56.7783L27.8529 59.6322C27.7566 59.7253 27.6797 59.8366 27.6268 59.9597C27.574 60.0828 27.5461 60.2152 27.545 60.3491C27.5438 60.4831 27.5693 60.616 27.6201 60.7399C27.6708 60.8639 27.7457 60.9766 27.8404 61.0713C27.9352 61.1661 28.0478 61.241 28.1718 61.2917C28.2958 61.3424 28.4287 61.368 28.5626 61.3668C28.6966 61.3656 28.829 61.3378 28.9521 61.2849C29.0752 61.232 29.1865 61.1552 29.2796 61.0588L32.1334 58.205C32.3172 58.0147 32.4189 57.7598 32.4166 57.4953C32.4143 57.2307 32.3082 56.9777 32.1211 56.7906C31.9341 56.6036 31.681 56.4975 31.4165 56.4952C31.1519 56.4929 30.8971 56.5946 30.7068 56.7783Z" fill="white"></path><path d="M62.0974 25.3876L59.2436 28.2415C59.1472 28.3345 59.0703 28.4459 59.0175 28.569C58.9646 28.692 58.9367 28.8244 58.9356 28.9584C58.9344 29.0924 58.9599 29.2252 59.0107 29.3492C59.0614 29.4732 59.1363 29.5859 59.2311 29.6806C59.3258 29.7753 59.4384 29.8502 59.5624 29.901C59.6864 29.9517 59.8193 29.9772 59.9532 29.9761C60.0872 29.9749 60.2196 29.9471 60.3427 29.8942C60.4658 29.8413 60.5771 29.7644 60.6702 29.6681L63.524 26.8142C63.6204 26.7212 63.6973 26.6098 63.7501 26.4867C63.803 26.3636 63.8309 26.2313 63.832 26.0973C63.8332 25.9633 63.8077 25.8305 63.7569 25.7065C63.7062 25.5825 63.6313 25.4698 63.5365 25.3751C63.4418 25.2804 63.3292 25.2055 63.2052 25.1547C63.0812 25.104 62.9483 25.0785 62.8144 25.0796C62.6804 25.0808 62.548 25.1086 62.4249 25.1615C62.3018 25.2144 62.1905 25.2912 62.0974 25.3876Z" fill="white"></path><path d="M60.6698 56.7783C60.4795 56.5946 60.2247 56.4929 59.9601 56.4952C59.6956 56.4975 59.4425 56.6036 59.2555 56.7906C59.0684 56.9777 58.9623 57.2307 58.96 57.4953C58.9577 57.7598 59.0594 58.0147 59.2432 58.205L62.097 61.0588C62.2873 61.2426 62.5422 61.3443 62.8067 61.342C63.0713 61.3397 63.3243 61.2336 63.5114 61.0465C63.6984 60.8595 63.8045 60.6064 63.8068 60.3419C63.8091 60.0773 63.7074 59.8225 63.5237 59.6322L60.6698 56.7783Z" fill="white"></path><path d="M69.9021 42.2144H65.8664C65.5988 42.2144 65.3421 42.3207 65.1529 42.5099C64.9637 42.6991 64.8574 42.9557 64.8574 43.2233C64.8574 43.4909 64.9637 43.7475 65.1529 43.9367C65.3421 44.1259 65.5988 44.2322 65.8664 44.2322H69.9021C70.1696 44.2322 70.4263 44.1259 70.6155 43.9367C70.8047 43.7475 70.911 43.4909 70.911 43.2233C70.911 42.9557 70.8047 42.6991 70.6155 42.5099C70.4263 42.3207 70.1696 42.2144 69.9021 42.2144Z" fill="white"></path></svg>