<svg xmlns="http://www.w3.org/2000/svg" width="83" height="42" viewBox="0 0 83 42" fill="none"><path d="M24.5784 27.4293C25.7971 29.9345 27.456 31.8868 30.5255 32.0109C33.1661 32.1125 35.5021 32.8685 36.3259 35.622C37.1497 38.3755 35.5698 40.2263 33.3693 41.6707H29.6678C28.6296 40.3842 26.8805 39.4138 26.982 37.5518C27.1852 33.839 24.8379 31.6724 22.4681 29.4154C20.0983 27.1584 17.6946 24.6758 15.291 22.3285C14.2189 21.2903 13.2484 19.812 11.4428 20.3875C9.63725 20.963 9.86295 22.7348 9.70496 24.2356C9.28742 28.1966 6.68062 30.1602 3.38545 29.3251C1.88457 28.964 1.37675 27.418 0 26.9327V24.7999V22.6671C4.58164 18.2434 4.66064 17.5099 0.993066 13.2104C0.69966 12.8605 0.665805 12.2286 0 12.2399V8.561C1.54602 6.30404 3.46445 4.74673 6.3985 5.73979C9.72753 6.86828 10.54 10.897 8.01224 13.7633C6.97403 14.8918 5.89069 16.0203 6.13895 17.7243C6.24052 18.4127 6.00353 19.2252 6.89504 19.5412C7.24364 19.642 7.61437 19.6369 7.96003 19.5263C8.30569 19.4158 8.61064 19.2049 8.83603 18.9205C12.2215 15.535 15.6859 12.1496 19.0714 8.76413C20.1999 7.63565 20.008 5.93164 20.1999 4.44204C20.5835 1.50798 22.2537 -0.0718986 25.0298 0.00709524C26.1738 -0.0581669 27.2976 0.328801 28.1589 1.08455C29.0202 1.8403 29.55 2.90429 29.634 4.04707C30.0515 6.75543 28.6071 9.18167 25.7859 9.23809C20.9559 9.33966 18.7554 12.8831 15.8552 15.6027C15.0088 16.3927 14.2753 17.4873 15.2232 18.5594C18.1122 21.8094 20.8092 25.3303 24.6574 27.5872L24.5784 27.4293Z" fill="black"></path><path d="M72.4371 14.5419C73.4415 14.0002 74.1411 13.5714 74.8747 13.2442C79.8287 10.9872 82.8643 12.9169 82.9997 18.2998C82.9997 20.8501 82.9997 23.4118 82.9997 25.9622C82.9997 27.2035 82.7628 27.8129 81.3183 27.8016C79.8738 27.7903 79.7159 27.0004 79.7271 25.8493C79.7271 23.0958 79.7271 20.331 79.7271 17.5775C79.7271 15.8397 78.9259 15.5124 77.4025 15.772C75.9409 15.9571 74.6018 16.6833 73.6492 17.8071C72.6966 18.931 72.1997 20.371 72.2566 21.8432C72.3699 22.7575 72.3699 23.6824 72.2566 24.5967C71.9745 25.7252 73.4979 27.6662 70.8347 27.7677C68.1715 27.8693 69.3338 25.8493 69.2548 24.7547C69.0855 22.3059 69.1758 19.8458 69.2548 17.397C69.2548 16.2685 69.2548 15.2641 67.6975 15.5011C66.1402 15.7381 66.1853 14.7563 66.1289 13.6504C66.1289 12.2285 66.9753 12.0141 67.8893 12.3301C69.4128 12.8718 72.2791 10.5584 72.4371 14.5419Z" fill="black"></path><path d="M37.3067 14.5081C38.8569 13.4628 40.6041 12.7448 42.4413 12.3979C43.0994 12.2541 43.7818 12.2644 44.4352 12.4282C45.0885 12.5919 45.6952 12.9045 46.2077 13.3416C46.7202 13.7787 47.1246 14.3284 47.3894 14.9478C47.6542 15.5671 47.7721 16.2393 47.7339 16.9118C47.7339 17.7243 47.9371 18.6723 46.6055 18.5707C45.8042 18.5143 44.5516 19.0447 44.529 17.5438C44.529 15.1288 42.9492 15.6028 41.5611 15.9639C40.2253 16.2499 39.036 17.0045 38.2081 18.0911C37.3802 19.1777 36.9684 20.5246 37.0472 21.8884C37.0472 23.3103 37.0472 24.7435 37.0472 26.1654C37.0472 27.2262 36.8892 27.813 35.5802 27.8355C34.2711 27.8581 33.8762 27.2939 33.91 26.0525C33.9777 23.299 33.91 20.5568 33.91 17.8146C33.91 16.5394 34.0793 15.2417 32.127 15.5576C30.6261 15.7608 30.8744 14.7113 30.8067 13.8085C30.6938 12.522 31.4048 12.0819 32.4543 12.3866C34.1921 12.8041 37.0246 10.66 37.3067 14.5081Z" fill="black"></path><path d="M24.6673 27.5309C24.6673 24.1455 24.7238 20.76 24.7576 17.431C24.7576 16.3025 24.8253 15.2982 23.2342 15.5013C21.643 15.7044 21.6769 14.7565 21.6543 13.6167C21.6543 12.1384 22.5909 12.3415 23.505 12.2851C27.8158 12.003 27.8158 12.003 27.8158 16.3138C27.8158 19.1689 27.6578 22.0352 27.8158 24.879C27.9738 27.7228 27.1162 28.4563 24.5319 27.4294L24.6673 27.5309Z" fill="black"></path><path d="M56.966 20.2183C56.966 22.1593 56.966 24.1003 56.966 26.0413C56.966 27.0343 56.966 27.8017 55.5554 27.7904C54.1448 27.7791 53.716 27.4293 53.7611 26.0526C53.8514 23.299 53.7611 20.5455 53.7611 17.7808C53.7611 16.5056 53.9191 15.2417 51.9555 15.5238C50.466 15.7044 50.7255 14.5984 50.6691 13.6956C50.5901 12.5672 51.1882 12.285 52.1812 12.3415C52.7969 12.3978 53.4163 12.3978 54.032 12.3415C56.2099 12.0142 57.282 12.6349 56.966 15.0724C56.856 16.7859 56.856 18.5048 56.966 20.2183Z" fill="black"></path><path d="M63.0378 20.0603C63.0378 22.1028 63.0378 24.1341 63.0378 26.1654C63.0378 27.2939 62.7557 27.7904 61.5031 27.7791C60.2505 27.7678 59.8894 27.4744 59.9006 26.2444C59.9684 22.069 59.9684 17.8936 59.9006 13.7182C59.9006 12.4092 60.4875 12.2625 61.5821 12.2625C62.6767 12.2625 63.0378 12.5897 63.0153 13.6505C63.004 15.7833 63.0378 17.9274 63.0378 20.0603Z" fill="black"></path><path d="M54.6185 9.23829C52.6549 9.23829 51.8424 8.47092 51.9101 6.98133C51.9779 5.49173 53.2192 4.32939 54.3025 5.04033C56.7852 6.67664 58.8165 6.16882 61.2314 5.04033C61.5282 4.93615 61.8472 4.91182 62.1563 4.96978C62.4655 5.02774 62.754 5.16595 62.9929 5.37056C63.2318 5.57517 63.4127 5.83898 63.5175 6.13556C63.6223 6.43213 63.6473 6.75104 63.5899 7.06032C63.511 8.47092 62.6082 9.71226 61.2314 9.1593C58.76 8.12109 56.4918 7.25216 54.6185 9.23829Z" fill="#FA353C"></path></svg>