<svg xmlns="http://www.w3.org/2000/svg" width="99" height="24" viewBox="0 0 99 24" fill="none"><mask id="mask0_904_144" style="mask-type:luminance" maskUnits="userSpaceOnUse" x="0" y="0" width="99" height="24"><path d="M99 0H0V23.5186H99V0Z" fill="white"></path></mask><g mask="url(#mask0_904_144)"><path d="M50.4746 22.3849C50.4746 17.4217 50.4746 12.4459 50.4746 7.48263C50.4746 7.01654 50.588 6.78981 51.0919 6.84019C51.4267 6.87795 51.7648 6.87795 52.0996 6.84019C53.12 6.70163 53.7624 6.91577 53.3593 8.35183C54.2789 7.6464 54.871 6.85279 55.8787 6.63864C56.5127 6.43599 57.1831 6.37377 57.8435 6.45628C58.5039 6.5388 59.1384 6.76408 59.7029 7.11648C60.2675 7.46889 60.7486 7.93996 61.1128 8.49699C61.477 9.05402 61.7155 9.68366 61.8119 10.3422C62.1768 11.931 62.0628 13.5923 61.4844 15.1164C61.188 15.8488 60.7079 16.4924 60.0904 16.9853C59.473 17.4781 58.7389 17.8035 57.959 17.9301C57.1792 18.0567 56.3799 17.9802 55.6382 17.708C54.8965 17.4358 54.2375 16.9771 53.7246 16.3761C53.7246 16.3761 53.6239 16.2502 53.5987 16.2502C53.5735 16.2502 53.4853 16.3887 53.5357 16.4769C53.712 18.3665 53.6239 20.256 53.6239 22.133C53.5407 22.1219 53.4564 22.1431 53.3884 22.1923C53.3204 22.2416 53.274 22.315 53.2586 22.3975L50.4746 22.3849ZM58.7257 12.1435C58.7257 10.2288 57.6801 9.08246 55.9795 9.08246C54.2789 9.08246 53.2963 10.2288 53.3089 12.1939C53.3215 14.1591 54.2915 15.255 56.0173 15.2424C56.4128 15.2565 56.8065 15.183 57.1702 15.027C57.5339 14.8711 57.8586 14.6367 58.1211 14.3405C58.3835 14.0443 58.5772 13.6938 58.6883 13.3139C58.7993 12.9341 58.825 12.5344 58.7635 12.1435H58.7257Z" fill="#0B0A0A"></path><path d="M0.263856 17.4972H0.0371094V0.718018H0.251259L0.263856 17.4972Z" fill="#3C3B3B"></path><path d="M53.1953 22.3851C53.2107 22.3026 53.2572 22.2292 53.3252 22.1799C53.3932 22.1307 53.4774 22.1094 53.5606 22.1206L53.6362 22.3851H53.1953Z" fill="#6D6C6C"></path><path d="M87.4482 17.5477C86.1003 17.5477 84.9288 17.5477 83.7321 17.5477C83.2408 17.5477 83.1022 17.2832 82.9511 16.9178C82.5606 15.9353 82.4094 14.5496 81.6914 14.0835C80.9733 13.6174 79.5373 13.9324 78.4288 13.9072H78.3154C77.2919 13.7467 76.2466 13.7938 75.2417 14.0457C74.3599 14.474 74.4859 15.8471 74.108 16.7919C73.8686 17.3713 73.5915 17.5981 72.9742 17.5477C72.3039 17.4847 71.6291 17.4847 70.9587 17.5477C69.9132 17.6611 69.9132 17.2328 70.2155 16.4517C71.8531 12.2527 73.4739 8.05373 75.0779 3.85472C75.4684 2.85956 75.8716 1.8644 76.2243 0.869235C76.2727 0.654835 76.4017 0.46726 76.5846 0.345333C76.7675 0.223406 76.9903 0.176452 77.2068 0.214185C78.328 0.214185 79.5877 -0.0881361 80.5199 0.340163C81.452 0.768461 81.4898 2.21712 81.8929 3.21228C83.7447 7.94876 85.5335 12.6475 87.4482 17.5477ZM80.9104 10.9721C80.4569 9.71235 80.0538 8.56602 79.6507 7.43229C79.2476 6.29856 78.8822 5.15223 78.5043 4.0059C77.8493 6.18519 76.9675 8.16292 76.325 10.2288C76.2117 10.5941 76.0227 10.9721 76.6778 10.9721H80.9104Z" fill="#E48200"></path><path d="M0.263672 17.4975V0.718312C3.22397 0.491566 3.22397 0.491567 3.22397 3.37628V11.5769C4.3955 10.2165 5.41586 9.13311 6.29765 7.94899C6.54626 7.54231 6.91007 7.21864 7.34292 7.01903C7.77577 6.81943 8.25815 6.75289 8.72887 6.82786C9.48399 6.87395 10.2412 6.87395 10.9963 6.82786C9.85001 8.08756 8.86744 9.18351 7.84708 10.2669C6.58738 11.5266 6.58738 11.5266 7.74631 12.9248L11.4246 17.5479H7.83449C7.44398 17.5479 7.3558 17.2456 7.19203 17.0315L3.21138 11.8667C3.21138 13.6806 3.21138 15.1923 3.21138 16.7039C3.21138 17.3842 3.04761 17.6361 2.35478 17.5605C1.66194 17.4849 0.969105 17.5227 0.263672 17.4975Z" fill="#0A0909"></path><path d="M48.071 12.1942C48.0918 12.9742 47.9499 13.75 47.6543 14.4721C47.3587 15.1943 46.916 15.8469 46.3542 16.3885C45.7925 16.9301 45.1241 17.3488 44.3916 17.6178C43.6592 17.8868 42.8787 18.0003 42.1 17.951C41.3213 17.999 40.5411 17.8876 39.807 17.6235C39.0729 17.3594 38.4005 16.9482 37.8308 16.4152C37.2612 15.8821 36.8064 15.2384 36.4943 14.5234C36.1822 13.8084 36.0193 13.0373 36.0156 12.2572C36.0183 11.4778 36.1783 10.7069 36.4858 9.99076C36.7934 9.2746 37.2423 8.62785 37.8056 8.08921C38.369 7.55057 39.0352 7.13111 39.7644 6.85594C40.4936 6.58076 41.2709 6.45553 42.0496 6.48773C42.8276 6.43354 43.6085 6.54157 44.3426 6.80498C45.0767 7.06839 45.748 7.48143 46.3141 8.01792C46.8802 8.55441 47.3287 9.20263 47.6311 9.92154C47.9336 10.6404 48.0833 11.4143 48.071 12.1942ZM39.2531 12.1942C39.2041 12.5734 39.2395 12.9587 39.3568 13.3226C39.4741 13.6865 39.6703 14.02 39.9315 14.2993C40.1927 14.5785 40.5123 14.7966 40.8676 14.9379C41.2229 15.0792 41.605 15.1402 41.9866 15.1167C42.7417 15.1334 43.4724 14.8495 44.0181 14.3274C44.5639 13.8053 44.8798 13.0878 44.8965 12.3327C44.9132 11.5777 44.6293 10.8469 44.1072 10.3012C43.5851 9.75549 42.8676 9.43954 42.1126 9.42284C41.7387 9.37423 41.3586 9.41017 41.0004 9.52802C40.6422 9.64587 40.3151 9.84261 40.043 10.1037C39.771 10.3649 39.5611 10.6838 39.4287 11.0368C39.2964 11.3899 39.2449 11.7682 39.2783 12.1438L39.2531 12.1942Z" fill="#0D0C0C"></path><path d="M28.4046 17.9509C27.6301 17.9872 26.8563 17.8661 26.1301 17.5947C25.4038 17.3234 24.7401 16.9075 24.1792 16.3723C23.6182 15.8371 23.1717 15.1936 22.8667 14.4809C22.5616 13.7681 22.4043 13.0008 22.4043 12.2255C22.4043 11.4502 22.5616 10.683 22.8667 9.97022C23.1717 9.25746 23.6182 8.61399 24.1792 8.07876C24.7401 7.54354 25.4038 7.12768 26.1301 6.85635C26.8563 6.58502 27.6301 6.46386 28.4046 6.5002C29.179 6.46386 29.9528 6.58502 30.6791 6.85635C31.4054 7.12768 32.069 7.54354 32.63 8.07876C33.1909 8.61399 33.6374 9.25746 33.9425 9.97022C34.2476 10.683 34.4048 11.4502 34.4048 12.2255C34.4048 13.0008 34.2476 13.7681 33.9425 14.4809C33.6374 15.1936 33.1909 15.8371 32.63 16.3723C32.069 16.9075 31.4054 17.3234 30.6791 17.5947C29.9528 17.8661 29.179 17.9872 28.4046 17.9509ZM28.4046 15.0662C29.1287 15.0081 29.8036 14.6766 30.2922 14.139C30.7808 13.6014 31.0464 12.898 31.0352 12.1716C31.024 11.4453 30.7367 10.7504 30.2317 10.2281C29.7268 9.70586 29.042 9.39539 28.3164 9.35973C27.5923 9.41779 26.9174 9.74929 26.4288 10.2869C25.9402 10.8245 25.6745 11.5279 25.6858 12.2543C25.697 12.9806 25.9843 13.6755 26.4892 14.1978C26.9942 14.72 27.679 15.0305 28.4046 15.0662Z" fill="#0C0B0B"></path><path d="M94.0605 8.8935C94.0605 11.4129 94.0605 14.0457 94.0605 16.6155C94.0605 17.3083 93.9094 17.5603 93.1536 17.5728C90.3066 17.5728 90.3066 17.5729 90.3066 14.8015C90.3066 10.3044 90.3066 5.81983 90.3066 1.3227C90.3066 0.541682 90.4578 0.251955 91.3396 0.264552C94.0606 0.264552 94.0731 0.264553 94.0731 2.92252L94.0605 8.8935Z" fill="#E48200"></path><path d="M13.5293 12.1438C13.5293 10.67 13.5293 9.19613 13.5293 7.73488C13.5293 6.95386 13.7686 6.75232 14.4741 6.8405C14.7717 6.86568 15.0709 6.86568 15.3685 6.8405C16.2251 6.73972 16.8423 6.8405 16.6282 7.96163C16.6282 8.1002 16.5274 8.35213 16.7667 8.42772C17.0061 8.5033 17.195 8.21357 17.3336 8.01201C17.6794 7.45818 18.1841 7.02135 18.7818 6.75846C19.3795 6.49557 20.0425 6.41881 20.6844 6.53816C21.2387 6.53816 21.3646 6.86569 21.2765 7.34437C21.1883 7.82306 21.0623 8.60407 20.9741 9.3095C20.9741 9.7378 20.7978 9.87637 20.2687 9.80079C17.7493 9.43547 16.7541 10.2543 16.7037 12.8241C16.7037 14.1468 16.7037 15.4821 16.7037 16.8047C16.7037 17.359 16.5652 17.548 15.9605 17.5731C13.5545 17.5731 13.5671 17.6613 13.5671 15.2427L13.5293 12.1438Z" fill="#100F0F"></path><path d="M53.4727 16.4643C53.4727 16.3761 53.4727 16.2753 53.5356 16.2376C53.5986 16.1998 53.6238 16.3131 53.6616 16.3635L53.4727 16.4643Z" fill="#6D6C6C"></path></g></svg>