<svg xmlns="http://www.w3.org/2000/svg" width="72" height="72" viewBox="0 0 72 72" fill="none"><path d="M36 72C55.8823 72 72 55.8823 72 36C72 16.1177 55.8823 0 36 0C16.1177 0 0 16.1177 0 36C0 55.8823 16.1177 72 36 72Z" fill="#D5F8FC"></path><path d="M51.4812 21.5C51.4662 20.8765 51.2215 20.2805 50.7941 19.8263C50.3667 19.3722 49.7866 19.0918 49.1652 19.039C44.9376 18.768 40.7169 19.6654 36.9652 21.633C34.2598 23.219 31.8866 25.3131 29.9762 27.8L29.9022 27.9L25.2862 28.279C24.908 28.3118 24.5428 28.4332 24.2203 28.6336C23.8979 28.8339 23.6272 29.1074 23.4302 29.432L20.2812 34.493C20.1239 34.7475 20.0295 35.0358 20.0059 35.334C19.9822 35.6323 20.03 35.9319 20.1452 36.208C20.2522 36.4777 20.4265 36.7154 20.6515 36.8987C20.8764 37.082 21.1445 37.2046 21.4302 37.255L25.3192 37.895C25.3052 37.975 25.2912 38.056 25.2792 38.136C25.2147 38.5407 25.243 38.9547 25.3618 39.3469C25.4806 39.7391 25.687 40.0991 25.9652 40.4L31.3822 46.157C31.6033 46.3961 31.8711 46.5873 32.169 46.7189C32.4669 46.8505 32.7886 46.9196 33.1142 46.922C33.2483 46.9221 33.3822 46.9104 33.5142 46.887L33.7412 46.844L34.3412 50.977C34.3794 51.2684 34.4895 51.5458 34.6614 51.7842C34.8333 52.0227 35.0618 52.2147 35.3262 52.343C35.5837 52.4648 35.869 52.5157 36.1528 52.4904C36.4365 52.4651 36.7084 52.3645 36.9402 52.199L41.7002 48.851C42.0175 48.6241 42.2802 48.3292 42.4691 47.9879C42.6581 47.6466 42.7684 47.2674 42.7922 46.878L43.1492 41.973L43.2392 41.894C45.6232 39.8043 47.591 37.2831 49.0392 34.463C50.9016 30.4069 51.7401 25.9557 51.4812 21.5ZM40.6812 47.213L36.1252 50.413L35.5382 46.385C37.5584 45.7358 39.4635 44.772 41.1832 43.529L40.9512 46.729C40.9452 46.8251 40.9179 46.9187 40.8712 47.003C40.8245 47.0872 40.7596 47.16 40.6812 47.216V47.213ZM32.6812 44.768L27.2712 39.012C27.2028 38.9389 27.1518 38.8513 27.1222 38.7557C27.0926 38.66 27.085 38.5589 27.1002 38.46C27.2577 37.4697 27.4989 36.4945 27.8212 35.545L35.9482 44.183C35.0606 44.5242 34.1429 44.7813 33.2072 44.951C33.1123 44.9665 33.015 44.9581 32.9242 44.9265C32.8334 44.8949 32.7519 44.8411 32.6872 44.77L32.6812 44.768ZM25.4282 30.227L28.4352 29.98C27.2517 31.8384 26.3462 33.8597 25.7472 35.98L21.9572 35.356L24.9702 30.514C25.0188 30.4337 25.0855 30.3658 25.1651 30.316C25.2446 30.2661 25.3347 30.2357 25.4282 30.227ZM42.0582 40.386C40.7617 41.5491 39.3261 42.547 37.7842 43.357L28.6002 33.6C29.3547 31.9828 30.2943 30.4586 31.4002 29.058C33.1556 26.7703 35.3362 24.843 37.8222 23.382C41.2808 21.5737 45.1695 20.7497 49.0642 21C49.218 21.013 49.3615 21.0824 49.4673 21.1948C49.5731 21.3072 49.6336 21.4547 49.6372 21.609C49.8792 25.7159 49.1112 29.8196 47.4002 33.561C46.0654 36.1516 44.2537 38.4671 42.0602 40.386H42.0582Z" fill="#252525"></path><path d="M40.7101 36.576C42.1661 36.5749 43.5767 36.069 44.7015 35.1445C45.8264 34.2199 46.5959 32.934 46.879 31.5058C47.1621 30.0776 46.9413 28.5953 46.2541 27.3117C45.567 26.028 44.456 25.0223 43.1105 24.4658C41.765 23.9094 40.2682 23.8366 38.8751 24.26C37.482 24.6833 36.2787 25.5766 35.4703 26.7876C34.6619 27.9986 34.2984 29.4524 34.4417 30.9014C34.585 32.3503 35.2262 33.7048 36.2561 34.734C36.8406 35.3193 37.535 35.7832 38.2993 36.0993C39.0637 36.4155 39.883 36.5775 40.7101 36.576ZM38.0381 27.608C38.6564 26.9899 39.4698 26.6052 40.3399 26.5195C41.21 26.4339 42.0829 26.6526 42.8098 27.1384C43.5367 27.6241 44.0727 28.3469 44.3265 29.1836C44.5802 30.0203 44.536 30.919 44.2013 31.7268C43.8667 32.5345 43.2623 33.2012 42.4913 33.6133C41.7202 34.0253 40.83 34.1573 39.9725 33.9867C39.1151 33.816 38.3433 33.3534 37.7887 32.6775C37.2341 32.0016 36.931 31.1543 36.9311 30.28C36.9304 29.7838 37.0277 29.2922 37.2175 28.8337C37.4073 28.3751 37.6858 27.9586 38.0371 27.608H38.0381Z" fill="#252525"></path><path d="M21.284 46.9119C21.4495 46.9122 21.6135 46.8797 21.7664 46.8163C21.9193 46.753 22.0582 46.6601 22.175 46.5428L26.288 42.4299C26.405 42.3129 26.4978 42.1739 26.5612 42.0211C26.6245 41.8682 26.6571 41.7043 26.6571 41.5388C26.6571 41.3734 26.6245 41.2095 26.5612 41.0566C26.4978 40.9038 26.405 40.7649 26.288 40.6479C26.171 40.5308 26.0321 40.438 25.8792 40.3747C25.7263 40.3114 25.5625 40.2788 25.397 40.2788C25.0628 40.2788 24.7423 40.4115 24.506 40.6479L20.393 44.7579C20.2168 44.9341 20.0968 45.1586 20.0481 45.403C19.9995 45.6474 20.0245 45.9008 20.1198 46.131C20.2152 46.3613 20.3767 46.5581 20.584 46.6965C20.7912 46.835 21.0348 46.9089 21.284 46.9088V46.9119Z" fill="#252525"></path><path d="M30.0592 42.437C29.9422 42.3199 29.8032 42.2271 29.6504 42.1638C29.4975 42.1005 29.3336 42.0679 29.1682 42.0679C29.0027 42.0679 28.8388 42.1005 28.6859 42.1638C28.5331 42.2271 28.3942 42.3199 28.2772 42.437L20.3692 50.345C20.2434 50.4599 20.1422 50.5991 20.0717 50.7542C20.0013 50.9094 19.963 51.0772 19.9593 51.2475C19.9555 51.4178 19.9864 51.5871 20.0499 51.7452C20.1135 51.9033 20.2084 52.0468 20.329 52.1672C20.4496 52.2875 20.5934 52.3821 20.7516 52.4453C20.9098 52.5085 21.0792 52.539 21.2496 52.5349C21.4199 52.5307 21.5876 52.4921 21.7426 52.4213C21.8975 52.3505 22.0365 52.249 22.1512 52.123L30.0582 44.223C30.1758 44.106 30.2692 43.9668 30.333 43.8136C30.3968 43.6604 30.4297 43.4961 30.4298 43.3302C30.4298 43.1642 30.3972 42.9999 30.3336 42.8466C30.27 42.6933 30.1767 42.5541 30.0592 42.437Z" fill="#252525"></path><path d="M29.6578 46.212L25.5448 50.325C25.4237 50.441 25.3269 50.58 25.2602 50.7339C25.1935 50.8878 25.1582 51.0535 25.1563 51.2212C25.1545 51.3889 25.1862 51.5553 25.2495 51.7107C25.3128 51.866 25.4065 52.0071 25.525 52.1258C25.6436 52.2444 25.7847 52.3382 25.94 52.4016C26.0953 52.465 26.2617 52.4968 26.4294 52.495C26.5971 52.4933 26.7628 52.458 26.9168 52.3914C27.0707 52.3248 27.2098 52.2281 27.3258 52.107L31.4388 47.994C31.6669 47.7561 31.7926 47.4384 31.7892 47.1089C31.7857 46.7795 31.6534 46.4644 31.4205 46.2314C31.1875 45.9983 30.8726 45.8658 30.5431 45.8621C30.2136 45.8585 29.8958 45.9841 29.6578 46.212Z" fill="#252525"></path></svg>