<svg xmlns="http://www.w3.org/2000/svg" width="59" height="59" viewBox="0 0 59 59" fill="none"><path d="M43.6697 38.9508C41.9855 38.9508 40.3392 38.4514 38.9388 37.5157C37.5385 36.58 36.447 35.2501 35.8025 33.6941C35.158 32.1381 34.9894 30.4259 35.3179 28.7741C35.6465 27.1222 36.4575 25.6049 37.6484 24.414C38.8393 23.2231 40.3566 22.4121 42.0084 22.0835C43.6603 21.755 45.3724 21.9236 46.9284 22.5681C48.4844 23.2126 49.8144 24.3041 50.75 25.7044C51.6857 27.1048 52.1851 28.7512 52.1851 30.4353C52.1837 32.6933 51.2861 34.8584 49.6894 36.4551C48.0928 38.0517 45.9277 38.9493 43.6697 38.9508ZM43.6697 24.0021C42.3971 24.001 41.1528 24.3774 40.0941 25.0836C39.0354 25.7898 38.21 26.7942 37.7222 27.9696C37.2345 29.1451 37.1063 30.4388 37.3539 31.687C37.6015 32.9353 38.2138 34.0822 39.1133 34.9824C40.0128 35.8827 41.1591 36.4959 42.4071 36.7446C43.6552 36.9933 44.949 36.8662 46.1249 36.3794C47.3007 35.8927 48.3058 35.0681 49.0129 34.01C49.7201 32.952 50.0975 31.708 50.0975 30.4353C50.096 28.7305 49.4185 27.0959 48.2136 25.8899C47.0086 24.6839 45.3745 24.005 43.6697 24.0021Z" fill="#0B0B0B"></path><path d="M27.568 58.4817C27.0376 58.4817 26.529 58.271 26.154 57.896C25.7789 57.521 25.5682 57.0123 25.5682 56.482V50.2959C25.5697 49.766 25.7808 49.2582 26.1556 48.8835C26.5303 48.5088 27.0381 48.2976 27.568 48.2962H29.5348V42.198C29.5348 41.6677 29.7455 41.159 30.1205 40.784C30.4955 40.409 31.0042 40.1983 31.5345 40.1983H37.2756C35.3731 38.9541 33.8745 37.1824 32.9629 35.1H25.376C25.5122 35.758 25.5821 36.4279 25.5847 37.0998C25.5847 39.8245 24.5023 42.4376 22.5757 44.3642C20.6491 46.2909 18.036 47.3732 15.3113 47.3732C12.5866 47.3732 9.9735 46.2909 8.04686 44.3642C6.12021 42.4376 5.03783 39.8245 5.03783 37.0998C5.04042 36.4279 5.11036 35.758 5.2466 35.1H3.54351C2.60461 35.0971 1.70498 34.7229 1.04107 34.059C0.37716 33.395 0.00289788 32.4954 0 31.5565V3.53802C0.00290416 2.59962 0.377344 1.70057 1.04141 1.03753C1.70548 0.374494 2.60511 0.00144814 3.54351 0H54.9767C55.9155 -1.12835e-06 56.816 0.372578 57.4804 1.03593C58.1448 1.69928 58.5187 2.59918 58.5202 3.53802V31.584C58.5173 32.5229 58.143 33.4225 57.4791 34.0864C56.8152 34.7503 55.9156 35.1246 54.9767 35.1275H54.3778C53.4663 37.2099 51.9676 38.9815 50.0652 40.2258H55.559C56.0894 40.2258 56.598 40.4365 56.973 40.8115C57.3481 41.1865 57.5588 41.6951 57.5588 42.2255V48.4116C57.5588 48.9419 57.3481 49.4506 56.973 49.8256C56.598 50.2006 56.0894 50.4113 55.559 50.4113H53.5922V56.5095C53.5908 57.0403 53.3789 57.549 53.003 57.9238C52.6271 58.2987 52.1179 58.5092 51.587 58.5092L27.568 58.4817ZM51.5265 56.3941V50.3838H48.4116V56.3941H51.5265ZM46.3239 56.3941V50.3838H43.2254V56.3941H46.3239ZM41.1377 56.3941V50.3838H38.0502V56.3941H41.1377ZM35.9571 56.3941V50.3838H32.8585V56.3941H35.9571ZM30.7709 56.3941V50.3838H27.6559V56.3941H30.7709ZM55.4931 48.2962V42.2859H52.3781V48.2962H55.4931ZM50.2904 48.2962V42.2859H47.1919V48.2962H50.2904ZM45.1043 48.2962V42.2859H42.0113V48.2962H45.1043ZM39.9236 48.2962V42.2859H36.8251V48.2962H39.9236ZM34.7374 48.2962V42.2859H31.6224V48.2962H34.7374ZM15.3058 28.9195C13.6883 28.9216 12.1078 29.4033 10.7641 30.3034C9.42025 31.2036 8.37348 32.482 7.75601 33.9769C7.13855 35.4719 6.97812 37.1163 7.295 38.7024C7.61188 40.2885 8.39184 41.7451 9.53631 42.888C10.6808 44.0309 12.1384 44.8089 13.7249 45.1237C15.3114 45.4384 16.9557 45.2758 18.4498 44.6563C19.9439 44.0369 21.2208 42.9884 22.1192 41.6434C23.0176 40.2984 23.4971 38.7172 23.4971 37.0998C23.4942 34.9292 22.6299 32.8486 21.094 31.3148C19.5582 29.781 17.4763 28.9195 15.3058 28.9195ZM43.6704 20.8381C41.7721 20.8381 39.9165 21.401 38.3382 22.4556C36.7598 23.5102 35.5297 25.0091 34.8033 26.7629C34.0768 28.5166 33.8868 30.4464 34.2571 32.3082C34.6274 34.17 35.5415 35.8801 36.8838 37.2224C38.226 38.5646 39.9362 39.4787 41.798 39.8491C43.6597 40.2194 45.5895 40.0293 47.3433 39.3029C49.097 38.5765 50.596 37.3463 51.6506 35.768C52.7052 34.1896 53.2681 32.334 53.2681 30.4358C53.2652 27.8912 52.2531 25.4517 50.4538 23.6524C48.6545 21.8531 46.215 20.841 43.6704 20.8381ZM32.2817 33.0124C32.0863 32.1674 31.9868 31.3031 31.985 30.4358C31.985 27.3366 33.2162 24.3644 35.4076 22.173C37.599 19.9815 40.5712 18.7504 43.6704 18.7504C46.7695 18.7504 49.7417 19.9815 51.9332 22.173C54.1246 24.3644 55.3557 27.3366 55.3557 30.4358C55.3536 31.3012 55.2541 32.1637 55.0591 33.0069C55.4298 32.9859 55.7785 32.824 56.0338 32.5544C56.2891 32.2848 56.4317 31.9278 56.4325 31.5565V3.53802C56.4311 3.15286 56.2771 2.78396 56.0042 2.51212C55.7313 2.24028 55.3618 2.08765 54.9767 2.08765H3.54351C3.15834 2.08765 2.78887 2.24028 2.516 2.51212C2.24313 2.78396 2.08911 3.15286 2.08765 3.53802V31.584C2.08765 31.9701 2.24104 32.3404 2.51406 32.6134C2.78709 32.8865 3.15739 33.0398 3.54351 33.0398H5.89487C6.69063 31.2034 8.006 29.6398 9.67907 28.5414C11.3521 27.443 13.3099 26.8577 15.3113 26.8577C17.3127 26.8577 19.2704 27.443 20.9435 28.5414C22.6166 29.6398 23.9319 31.2034 24.7277 33.0398L32.2817 33.0124Z" fill="#0B0B0B"></path><path d="M43.6695 35.984C43.3931 35.9826 43.1285 35.8721 42.933 35.6767C42.7376 35.4812 42.6272 35.2166 42.6257 34.9402V34.7204C42.1163 34.5128 41.68 34.1587 41.3719 33.703C41.0639 33.2472 40.8979 32.7104 40.8952 32.1603C40.8952 31.8835 41.0051 31.618 41.2009 31.4222C41.3966 31.2264 41.6621 31.1165 41.939 31.1165C42.2158 31.1165 42.4813 31.2264 42.6771 31.4222C42.8728 31.618 42.9828 31.8835 42.9828 32.1603C42.9817 32.2977 43.0215 32.4323 43.0972 32.5469C43.1728 32.6616 43.2809 32.7512 43.4076 32.8042C43.5343 32.8573 43.6739 32.8715 43.8087 32.845C43.9435 32.8184 44.0673 32.7524 44.1645 32.6552C44.2616 32.5581 44.3277 32.4343 44.3542 32.2995C44.3807 32.1647 44.3666 32.025 44.3135 31.8983C44.2604 31.7716 44.1708 31.6636 44.0562 31.5879C43.9415 31.5123 43.8069 31.4725 43.6695 31.4736C43.0078 31.5096 42.3553 31.3051 41.8325 30.8979C41.3096 30.4906 40.9516 29.9081 40.8245 29.2577C40.6973 28.6073 40.8096 27.9328 41.1406 27.3587C41.4717 26.7845 41.9991 26.3494 42.6257 26.1336V25.9303C42.6257 25.6535 42.7357 25.388 42.9314 25.1922C43.1272 24.9964 43.3927 24.8865 43.6695 24.8865C43.9464 24.8865 44.2119 24.9964 44.4076 25.1922C44.6034 25.388 44.7134 25.6535 44.7134 25.9303V26.1391C45.2229 26.3471 45.6596 26.7011 45.9685 27.1566C46.2774 27.6121 46.4447 28.1488 46.4494 28.6992C46.4494 28.976 46.3394 29.2415 46.1437 29.4373C45.9479 29.633 45.6824 29.743 45.4056 29.743C45.1287 29.743 44.8632 29.633 44.6675 29.4373C44.4717 29.2415 44.3618 28.976 44.3618 28.6992C44.3618 28.5623 44.3212 28.4284 44.2451 28.3146C44.169 28.2008 44.0609 28.1121 43.9344 28.0597C43.8079 28.0073 43.6688 27.9936 43.5345 28.0203C43.4002 28.047 43.2769 28.1129 43.1801 28.2097C43.0832 28.3065 43.0173 28.4299 42.9906 28.5641C42.9639 28.6984 42.9776 28.8376 43.03 28.9641C43.0824 29.0906 43.1711 29.1987 43.285 29.2747C43.3988 29.3508 43.5326 29.3914 43.6695 29.3914C44.3282 29.36 44.9763 29.5667 45.4952 29.9736C46.0141 30.3805 46.3694 30.9605 46.496 31.6077C46.6227 32.2549 46.5122 32.926 46.1849 33.4985C45.8576 34.071 45.3353 34.5067 44.7134 34.7259V34.9402C44.7119 35.2166 44.6015 35.4812 44.406 35.6767C44.2106 35.8721 43.9459 35.9826 43.6695 35.984Z" fill="#0B0B0B"></path><path d="M13.8775 40.6043C13.7026 40.6074 13.53 40.5638 13.3776 40.4779C13.2575 40.4139 13.1514 40.3264 13.0655 40.2207C12.9797 40.1151 12.9158 39.9933 12.8776 39.8626C12.8376 39.7311 12.8243 39.5928 12.8385 39.456C12.8526 39.3192 12.894 39.1866 12.96 39.066L15.6245 34.171C15.7128 34.0045 15.8449 33.8652 16.0066 33.7684C16.1684 33.6715 16.3535 33.6208 16.542 33.6217C16.7224 33.622 16.8997 33.669 17.0565 33.7583C17.2133 33.8475 17.3443 33.9758 17.4367 34.1308C17.5291 34.2857 17.5798 34.462 17.5838 34.6423C17.5878 34.8227 17.5449 35.001 17.4595 35.1599L14.817 40.0659C14.7255 40.2338 14.5893 40.373 14.4234 40.4681C14.2576 40.5631 14.0686 40.6103 13.8775 40.6043Z" fill="#0B0B0B"></path><path d="M12.4381 36.5883C12.1325 36.5848 11.8382 36.4721 11.6085 36.2706C11.3788 36.0691 11.2287 35.792 11.1855 35.4895C11.141 35.1639 11.2251 34.8338 11.42 34.5691C11.6148 34.3045 11.9051 34.1262 12.2293 34.0721H12.4161C12.7388 34.0665 13.0513 34.1845 13.2897 34.4021C13.5281 34.6196 13.6743 34.9201 13.6982 35.2419C13.722 35.5638 13.6219 35.8826 13.4182 36.1329C13.2146 36.3832 12.9228 36.5462 12.6029 36.5883H12.4161H12.4381Z" fill="#0B0B0B"></path><path d="M18.184 40.1427C17.8613 40.1483 17.5487 40.0302 17.3103 39.8127C17.0719 39.5952 16.9258 39.2947 16.9019 38.9729C16.878 38.651 16.9782 38.3322 17.1818 38.0819C17.3855 37.8316 17.6772 37.6686 17.9972 37.6265H18.184C18.5066 37.6209 18.8192 37.739 19.0576 37.9565C19.296 38.174 19.4422 38.4745 19.466 38.7964C19.4899 39.1182 19.3898 39.437 19.1861 39.6873C18.9825 39.9377 18.6907 40.1006 18.3708 40.1427H18.184Z" fill="#0B0B0B"></path><path d="M15.3109 58.1622C15.1734 58.1634 15.037 58.1374 14.9097 58.0855C14.7824 58.0336 14.6667 57.957 14.5692 57.86L12.5255 55.8109C12.3803 55.6649 12.2815 55.4792 12.2415 55.2773C12.2016 55.0753 12.2222 54.866 12.3009 54.6757C12.3796 54.4855 12.5128 54.3227 12.6838 54.208C12.8547 54.0932 13.0558 54.0316 13.2617 54.0309C13.5389 54.0307 13.8051 54.1392 14.0033 54.333L14.267 54.6022V50.7565C14.267 50.4797 14.377 50.2142 14.5728 50.0184C14.7685 49.8227 15.034 49.7127 15.3109 49.7127C15.5877 49.7127 15.8532 49.8227 16.049 50.0184C16.2447 50.2142 16.3547 50.4797 16.3547 50.7565V54.6022L16.6184 54.3385C16.7142 54.2405 16.8287 54.1627 16.9552 54.1099C17.0817 54.057 17.2175 54.0301 17.3546 54.0309C17.6318 54.0307 17.898 54.1392 18.0962 54.333C18.2912 54.5295 18.4005 54.7951 18.4005 55.0719C18.4005 55.3487 18.2912 55.6143 18.0962 55.8109L16.0745 57.86C15.9746 57.96 15.8554 58.0383 15.724 58.0903C15.5927 58.1423 15.452 58.1667 15.3109 58.1622Z" fill="#0B0B0B"></path><path d="M8.3288 54.1133C8.19187 54.1131 8.05633 54.0858 7.92999 54.033C7.80364 53.9802 7.68899 53.9029 7.59263 53.8056L5.54893 51.7509C5.35435 51.5553 5.24512 51.2906 5.24512 51.0147C5.24512 50.7388 5.35435 50.4742 5.54893 50.2786C5.64504 50.1809 5.75963 50.1033 5.88602 50.0504C6.01241 49.9974 6.14807 49.9702 6.2851 49.9702C6.42213 49.9702 6.55779 49.9974 6.68418 50.0504C6.81057 50.1033 6.92516 50.1809 7.02127 50.2786L7.29047 50.5423V47.1416C7.29047 46.8648 7.40044 46.5993 7.5962 46.4035C7.79195 46.2077 8.05746 46.0978 8.3343 46.0978C8.61114 46.0978 8.87664 46.2077 9.07239 46.4035C9.26815 46.5993 9.37812 46.8648 9.37812 47.1416V50.5368L9.63633 50.2731C9.73352 50.1754 9.84911 50.0979 9.9764 50.0451C10.1037 49.9923 10.2402 49.9652 10.378 49.9654C10.5864 49.9618 10.7912 50.0206 10.9659 50.1343C11.1406 50.2481 11.2772 50.4115 11.3582 50.6036C11.4391 50.7957 11.4607 51.0077 11.4202 51.2121C11.3796 51.4166 11.2788 51.6043 11.1307 51.7509L9.08695 53.8056C8.98781 53.9053 8.86956 53.9839 8.73928 54.0368C8.609 54.0897 8.46938 54.1157 8.3288 54.1133Z" fill="#0B0B0B"></path><path d="M8.10342 26.1944C7.17122 26.158 6.28932 25.7621 5.64265 25.0896C4.99598 24.4172 4.63477 23.5206 4.63477 22.5877C4.63477 21.6548 4.99598 20.7581 5.64265 20.0857C6.28932 19.4133 7.17122 19.0174 8.10342 18.981C8.80753 18.9796 9.49607 19.1881 10.0812 19.5798L16.8935 13.2344C16.6731 12.771 16.5586 12.2643 16.5584 11.7511C16.5566 11.2008 16.6806 10.6573 16.921 10.1622C17.1615 9.66718 17.5119 9.23366 17.9456 8.89482C18.3793 8.55599 18.8847 8.32081 19.4232 8.20727C19.9617 8.09373 20.519 8.10484 21.0526 8.23974C21.5861 8.37464 22.0818 8.62977 22.5016 8.98561C22.9214 9.34145 23.2543 9.78859 23.4749 10.2928C23.6954 10.7971 23.7977 11.345 23.7739 11.8949C23.7501 12.4447 23.601 12.9818 23.3378 13.4652L27.9691 18.2063C28.5535 17.8528 29.228 17.6765 29.9107 17.6989C30.5933 17.7213 31.2548 17.9415 31.8147 18.3327L38.5941 12.2895C38.3664 11.8184 38.2481 11.3019 38.248 10.7787C38.2491 10.065 38.4617 9.36774 38.859 8.77489C39.2562 8.18205 39.8203 7.72027 40.48 7.44792C41.1396 7.17558 41.8652 7.10488 42.565 7.24477C43.2648 7.38466 43.9074 7.72886 44.4116 8.23387C44.9159 8.73888 45.2591 9.38203 45.3979 10.082C45.5368 10.7821 45.465 11.5075 45.1916 12.1667C44.9183 12.8259 44.4556 13.3893 43.8622 13.7857C43.2687 14.1821 42.5711 14.3936 41.8574 14.3936C41.1938 14.3898 40.5446 14.1994 39.9841 13.8442L33.1388 19.9589C33.3169 20.3833 33.4084 20.8391 33.408 21.2994C33.4269 21.7848 33.3476 22.2692 33.1749 22.7233C33.0022 23.1774 32.7396 23.592 32.4028 23.9421C32.066 24.2923 31.662 24.5709 31.215 24.7612C30.768 24.9515 30.2871 25.0496 29.8013 25.0496C29.3154 25.0496 28.8346 24.9515 28.3875 24.7612C27.9405 24.5709 27.5365 24.2923 27.1997 23.9421C26.8629 23.592 26.6003 23.1774 26.4276 22.7233C26.2549 22.2692 26.1756 21.7848 26.1946 21.2994C26.1943 20.7619 26.3184 20.2316 26.5572 19.7501L21.8544 14.943C21.334 15.2215 20.7527 15.3668 20.1624 15.366C19.4909 15.3685 18.833 15.1778 18.267 14.8166L11.4217 21.184C11.6164 21.6254 11.7174 22.1025 11.7183 22.5849C11.7169 23.5427 11.3354 24.4608 10.6576 25.1375C9.97984 25.8143 9.06121 26.1944 8.10342 26.1944ZM8.10342 21.0686C7.80244 21.0697 7.50854 21.16 7.25889 21.3281C7.00924 21.4963 6.81505 21.7346 6.70088 22.0131C6.5867 22.2916 6.55767 22.5977 6.61745 22.8927C6.67724 23.1877 6.82315 23.4583 7.03674 23.6703C7.25034 23.8824 7.52201 24.0264 7.81742 24.084C8.11283 24.1417 8.4187 24.1104 8.69635 23.9942C8.974 23.8781 9.21097 23.6821 9.37728 23.4313C9.54359 23.1804 9.63178 22.8859 9.6307 22.5849C9.6307 22.3849 9.59112 22.1868 9.51424 22.0021C9.43735 21.8174 9.32468 21.6498 9.18271 21.5088C9.04074 21.3679 8.87229 21.2564 8.68705 21.1809C8.50182 21.1053 8.30346 21.0672 8.10342 21.0686ZM29.8095 19.7831C29.5083 19.7831 29.2138 19.8725 28.9635 20.0399C28.7131 20.2074 28.518 20.4454 28.403 20.7238C28.288 21.0022 28.2582 21.3084 28.3174 21.6038C28.3765 21.8991 28.522 22.1703 28.7354 22.3829C28.9488 22.5955 29.2204 22.74 29.516 22.7981C29.8116 22.8562 30.1177 22.8252 30.3957 22.7092C30.6737 22.5932 30.9109 22.3973 31.0775 22.1463C31.244 21.8953 31.3324 21.6006 31.3313 21.2994C31.3298 20.8967 31.1689 20.511 30.8836 20.2268C30.5984 19.9426 30.2122 19.7831 29.8095 19.7831ZM20.1624 10.2348C19.8611 10.2348 19.5667 10.3242 19.3163 10.4917C19.066 10.6591 18.8709 10.8971 18.7559 11.1755C18.6409 11.4539 18.6111 11.7602 18.6702 12.0555C18.7294 12.3509 18.8749 12.622 19.0882 12.8346C19.3016 13.0472 19.5733 13.1917 19.8688 13.2498C20.1644 13.3079 20.4706 13.277 20.7485 13.161C21.0265 13.0449 21.2638 12.849 21.4303 12.5981C21.5969 12.3471 21.6852 12.0523 21.6841 11.7511C21.6827 11.3484 21.5217 10.9628 21.2365 10.6786C20.9512 10.3944 20.565 10.2348 20.1624 10.2348ZM41.8574 9.27888C41.5565 9.27997 41.2626 9.37028 41.0129 9.5384C40.7633 9.70652 40.5691 9.94489 40.4549 10.2234C40.3407 10.5019 40.3117 10.808 40.3715 11.1029C40.4313 11.3979 40.5772 11.6685 40.7908 11.8806C41.0044 12.0927 41.276 12.2366 41.5715 12.2943C41.8669 12.3519 42.1727 12.3207 42.4504 12.2045C42.728 12.0883 42.965 11.8924 43.1313 11.6416C43.2976 11.3907 43.3858 11.0962 43.3847 10.7952C43.3847 10.5951 43.3452 10.397 43.2683 10.2124C43.1914 10.0277 43.0787 9.86003 42.9367 9.71909C42.7948 9.57814 42.6263 9.46668 42.4411 9.39113C42.2558 9.31558 42.0575 9.27743 41.8574 9.27888Z" fill="#0B0B0B"></path><path d="M6.08191 6.9441C5.80507 6.9441 5.53957 6.83412 5.34381 6.63837C5.14806 6.44261 5.03809 6.17711 5.03809 5.90027C5.03809 5.62343 5.14806 5.35793 5.34381 5.16218C5.53957 4.96642 5.80507 4.85645 6.08191 4.85645H14.7347C15.0115 4.85645 15.277 4.96642 15.4728 5.16218C15.6685 5.35793 15.7785 5.62343 15.7785 5.90027C15.7785 6.17711 15.6685 6.44261 15.4728 6.63837C15.277 6.83412 15.0115 6.9441 14.7347 6.9441H6.08191Z" fill="#0B0B0B"></path><path d="M6.08191 10.2348C5.80507 10.2348 5.53957 10.1248 5.34381 9.92908C5.14806 9.73332 5.03809 9.46782 5.03809 9.19098C5.03809 8.91414 5.14806 8.64864 5.34381 8.45288C5.53957 8.25713 5.80507 8.14716 6.08191 8.14716H10.2572C10.5341 8.14716 10.7996 8.25713 10.9953 8.45288C11.1911 8.64864 11.301 8.91414 11.301 9.19098C11.301 9.46782 11.1911 9.73332 10.9953 9.92908C10.7996 10.1248 10.5341 10.2348 10.2572 10.2348H6.08191Z" fill="#0B0B0B"></path></svg>