<svg xmlns="http://www.w3.org/2000/svg" width="91" height="15" viewBox="0 0 91 15" fill="none"><path d="M63.3401 0.884851C61.2831 2.72336 59.2581 4.60044 57.1561 6.38752C56.3718 7.03035 56.2882 7.42248 57.1561 8.13603C59.406 10.0645 61.5659 12.0445 64.0022 14.2173C61.3666 14.4487 59.2324 14.5837 57.4968 12.4945C56.5132 11.3116 55.2597 9.56313 53.9033 9.6467C52.6884 9.72384 51.5634 11.4531 50.4127 12.4752C48.1371 14.513 48.1435 14.5194 43.9844 14.2044L51.6984 7.26177C49.4549 5.25613 47.2693 3.32763 45.1222 1.36055C44.7686 1.04556 44.0937 0.852707 44.3444 0.13916H48.2014C49.8535 1.5984 51.5377 3.01906 53.1383 4.52972C53.7812 5.12756 54.1476 5.17256 54.8097 4.52972C56.3075 3.11549 57.8889 1.79768 59.4381 0.434869C60.6981 0.666289 62.1123 -0.0472597 63.3401 0.884851Z" fill="black"></path><path d="M90.146 2.98024C87.9604 3.01238 85.7683 3.17309 83.5955 3.04453C81.982 2.9481 81.6285 3.50737 81.667 4.97303C81.7892 7.65365 81.667 10.3471 81.7313 13.0278C81.7763 14.262 81.2235 14.3841 80.2142 14.3584C79.205 14.3327 78.6136 14.3584 78.6586 13.0728C78.7614 10.18 78.6586 7.28724 78.7164 4.38163C78.7164 3.36595 78.4593 2.92239 77.3793 3.06381C76.8072 3.14095 76.1836 2.96739 75.6308 3.06381C73.278 3.59094 71.8638 2.1767 70.4367 0.743177C70.1089 0.421759 70.6039 0.331762 70.5846 0.100342H71.8702C72.0695 0.428188 72.3974 0.415328 72.7124 0.4089H86.4433C86.7583 0.4089 87.0861 0.441041 87.2918 0.106767H87.6133C87.9604 1.52743 89.5353 1.82957 90.146 2.98024Z" fill="black"></path><path d="M15.4171 14.3008L0.046875 14.3844V13.7415C0.567571 13.343 0.368293 12.7773 0.368293 12.2759C0.368293 8.41887 0.368293 4.61328 0.368293 0.781982L0.786131 1.04555C0.786131 1.23197 0.850422 1.28983 1.02399 1.2384L2.82393 2.67192L3.14534 3.2119C3.14534 5.46825 3.24177 7.71174 3.14534 9.98095C3.07463 11.2666 3.56961 11.5045 4.76528 11.4916C9.17513 11.4466 13.585 11.4916 17.9948 11.5366C18.3934 12.5973 19.6469 12.9766 20.039 14.0372C19.5762 14.0951 19.0684 13.928 18.6634 14.288H17.3777C17.262 14.0887 17.1463 14.0887 17.0306 14.288H16.092C16.059 14.2264 16.0097 14.1752 15.9494 14.14C15.8892 14.1047 15.8204 14.0867 15.7506 14.0881C15.6808 14.0894 15.6128 14.11 15.5539 14.1475C15.4951 14.185 15.4477 14.2381 15.4171 14.3008Z" fill="black"></path><path d="M87.291 0.138993C87.0917 0.473267 86.7574 0.441126 86.4424 0.441126H72.7308C72.4158 0.441126 72.088 0.441129 71.8887 0.132568L87.291 0.138993Z" fill="black"></path><path d="M90.1461 2.9803C89.5032 1.82963 87.9604 1.51464 87.6133 0.138973C88.5711 0.138973 89.9146 -0.233869 90.3903 0.241829C90.866 0.717527 90.4996 2.04177 90.4996 2.99316L90.1461 2.9803Z" fill="black"></path><path d="M0.354621 0.8011C0.354621 4.65811 0.354621 8.4637 0.354621 12.295C0.354621 12.7964 0.553899 13.3621 0.0332031 13.7607V0.775391L0.354621 0.8011Z" fill="black"></path><path d="M0.355276 0.80127H0.0274336C0.162429 0.601992 -0.281127 0.119865 0.348851 0.158435C1.59595 0.60842 3.63374 0.312716 2.81091 2.72978L1.01097 1.29626L0.773124 1.1034L0.355276 0.80127Z" fill="black"></path><path d="M68.6823 0.13916C68.6823 1.17412 68.6181 2.20909 68.5924 3.25048C68.4895 3.06406 68.3802 2.87764 68.2774 2.68479C68.4381 0.383442 68.4381 0.383439 66.0339 0.512006C65.6546 0.711285 65.706 1.03271 65.7767 1.36055C65.7416 1.37228 65.7039 1.37429 65.6677 1.36637C65.6315 1.35845 65.5981 1.34089 65.571 1.31555L65.4746 0.13916H68.6823Z" fill="black"></path><path d="M2.81167 2.69097C3.6345 0.293194 1.59671 0.588898 0.349609 0.119629H3.26165C3.22951 1.15459 3.19737 2.18313 3.1588 3.21166L2.81167 2.69097Z" fill="black"></path><path d="M59.3867 0.460578V0.13916H63.8866C63.848 0.486291 63.803 0.826996 63.353 0.884851C62.1123 -0.0472597 60.6981 0.666285 59.3867 0.460578Z" fill="black"></path><path d="M22.8672 11.4978H36.8874C40.0566 11.4978 40.0566 11.4978 42.2358 14.1077C42.1137 14.1849 41.998 14.307 41.8758 14.307C36.6517 14.3327 31.4255 14.3477 26.1971 14.352C24.4036 14.3841 23.96 12.6035 22.8672 11.4978Z" fill="black"></path><path d="M42.3314 8.7079C36.7773 8.7079 31.3453 8.7529 25.9134 8.7079C24.2934 8.7079 23.8692 6.95297 22.6992 6.2587L22.8406 5.86658H33.3124C34.3246 5.94059 35.3409 5.94059 36.353 5.86658C38.9179 5.4423 40.8786 6.3037 42.3314 8.7079Z" fill="black"></path><path d="M23.0332 0.884677C23.496 0.241842 24.2032 0.505407 24.7946 0.505407C29.8023 0.473265 34.8035 0.505407 39.8112 0.505407L42.2025 3.07675C36.6999 3.07675 31.2744 3.11532 25.7974 3.07675C24.4732 2.99318 23.9332 1.60465 23.0332 0.884677Z" fill="black"></path><path d="M68.5225 4.56164C68.5547 7.50583 68.5225 10.4564 68.6318 13.4006C68.664 14.5256 67.9568 14.4163 67.269 14.3327C66.5812 14.2492 65.5333 14.802 65.5591 13.4006C65.6105 10.2443 65.6298 7.08799 65.6683 3.93167C66.6712 3.91238 67.4426 4.92806 68.5225 4.56164Z" fill="black"></path><path d="M68.521 4.56178C67.441 4.9282 66.6696 3.91894 65.6668 3.91894C65.5303 3.50125 65.5303 3.05097 65.6668 2.63327C66.4189 2.73613 66.8046 2.42114 66.7918 1.6626C67.3639 1.88759 67.621 2.56257 68.2703 2.66542C68.3731 2.85827 68.4824 3.04468 68.5853 3.23111C68.566 3.68752 68.5467 4.09894 68.521 4.56178Z" fill="black"></path><path d="M19.9739 14.0562C19.5818 12.9956 18.3282 12.6163 17.9297 11.5556C20.6489 11.3178 20.6489 11.3178 20.3982 14.082L19.9739 14.0562Z" fill="black"></path><path d="M66.7981 1.68185C66.7981 2.4404 66.4253 2.75538 65.6732 2.65253C65.6346 2.20897 65.6025 1.76541 65.5703 1.31543C65.5974 1.34077 65.6308 1.35833 65.667 1.36625C65.7032 1.37417 65.7409 1.37216 65.776 1.36043H66.4574L66.7917 1.71398L66.7981 1.68185Z" fill="black"></path><path d="M19.9733 14.0564H20.3976C19.864 14.6221 19.2148 14.3264 18.5977 14.2814C19.0284 13.9471 19.5362 14.1143 19.9733 14.0564Z" fill="black"></path><path d="M15.416 14.3007C15.4501 14.2463 15.4975 14.2014 15.5537 14.1702C15.61 14.1391 15.6732 14.1228 15.7374 14.1228C15.8017 14.1228 15.8649 14.1391 15.9211 14.1702C15.9773 14.2014 16.0247 14.2463 16.0589 14.3007H15.416Z" fill="black"></path><path d="M17.0176 14.3071C17.1333 14.1014 17.249 14.1014 17.3647 14.3071H17.0176Z" fill="black"></path><path d="M0.77286 1.0647L1.01071 1.25755C0.83714 1.30898 0.760003 1.25112 0.77286 1.0647Z" fill="black"></path><path d="M68.2761 2.68466C67.6333 2.58181 67.3697 1.90683 66.7976 1.68184C66.8012 1.63613 66.7952 1.59016 66.7799 1.54692C66.7647 1.50368 66.7405 1.46412 66.709 1.4308C66.6775 1.39748 66.6394 1.37115 66.5971 1.35349C66.5547 1.33583 66.5092 1.32724 66.4633 1.32828H66.4955L66.0391 0.473309C68.4368 0.383312 68.4368 0.383314 68.2761 2.68466Z" fill="black"></path><path d="M66.0334 0.511719L66.4898 1.36669H65.7763C65.7056 1.03242 65.6542 0.710998 66.0334 0.511719Z" fill="black"></path><path d="M66.459 1.36019C66.5048 1.35915 66.5504 1.36773 66.5927 1.38539C66.635 1.40305 66.6732 1.42939 66.7047 1.46271C66.7362 1.49603 66.7603 1.53559 66.7756 1.57883C66.7908 1.62207 66.7969 1.66803 66.7933 1.71374L66.459 1.36019Z" fill="black"></path></svg>