<svg xmlns="http://www.w3.org/2000/svg" width="47" height="62" viewBox="0 0 47 62" fill="none"><path d="M38.7447 43.1731L30.0265 40.11V38.2066C32.5098 36.3158 34.4384 33.6198 35.6406 31.0941H35.6706C36.4484 31.0932 37.1942 30.7838 37.7442 30.2338C38.2942 29.6838 38.6036 28.938 38.6044 28.1602V26.8051H40.7489C41.0335 26.8051 41.3064 26.6921 41.5076 26.4908C41.7089 26.2896 41.8219 26.0167 41.8219 25.7321V21.4431C41.8219 21.3023 41.7942 21.1628 41.7402 21.0328C41.6863 20.9027 41.6072 20.7845 41.5076 20.685C41.4079 20.5854 41.2896 20.5066 41.1594 20.4528C41.0292 20.399 40.8897 20.3715 40.7489 20.3717H38.6044V19.0166C38.6026 18.3781 38.3921 17.7577 38.0049 17.2499C37.6178 16.7421 37.0752 16.3749 36.46 16.2041V13.5759C38.3137 13.0354 39.9425 11.9089 41.1023 10.365C42.2621 8.82119 42.8905 6.94313 42.8934 5.01217V1.07302C42.8936 0.932186 42.866 0.79269 42.8123 0.662514C42.7585 0.532338 42.6796 0.414036 42.5801 0.314376C42.4806 0.214716 42.3624 0.135653 42.2323 0.0817095C42.1022 0.0277657 41.9628 -1.52289e-07 41.8219 0H18.1067C15.2966 0.00333596 12.6025 1.12113 10.6154 3.10819C8.62836 5.09525 7.51056 7.78933 7.50723 10.5995V20.3685H5.36276C5.22192 20.3683 5.08242 20.3959 4.95225 20.4496C4.82207 20.5034 4.70377 20.5823 4.60411 20.6818C4.50445 20.7813 4.42538 20.8995 4.37144 21.0296C4.3175 21.1597 4.28973 21.2992 4.28973 21.44V25.7289C4.28973 26.0135 4.40278 26.2864 4.60401 26.4877C4.80524 26.6889 5.07817 26.802 5.36276 26.802H7.50723V28.157C7.50723 28.5427 7.5832 28.9246 7.7308 29.281C7.8784 29.6373 8.09474 29.9611 8.36746 30.2338C8.64019 30.5065 8.96397 30.7229 9.3203 30.8705C9.67664 31.0181 10.0586 31.0941 10.4443 31.0941H10.7436C11.7804 33.0258 13.6602 35.7249 16.0883 37.7827V40.11L7.3276 43.1888C2.88109 44.9646 0.000787873 48.9605 0.000787873 53.3723V60.0468C-0.00474347 60.1911 0.018895 60.335 0.070288 60.4699C0.121681 60.6048 0.199771 60.7279 0.299883 60.832C0.399995 60.936 0.52007 61.0187 0.652917 61.0753C0.785764 61.1318 0.928652 61.1609 1.07302 61.1609C1.2174 61.1609 1.36028 61.1318 1.49313 61.0753C1.62598 61.0187 1.74605 60.936 1.84616 60.832C1.94628 60.7279 2.02437 60.6048 2.07576 60.4699C2.12715 60.335 2.15079 60.1911 2.14526 60.0468V53.3723C2.14526 49.8444 4.48984 46.6285 8.07604 45.1962L16.0867 42.3758C16.1056 45.6153 19.2238 48.2451 23.0558 48.2451C26.8878 48.2451 30.0061 45.6216 30.025 42.3758L37.9931 45.1741C41.6171 46.6222 43.9664 49.8381 43.9664 53.3676V60.0421C43.9609 60.1863 43.9845 60.3302 44.0359 60.4651C44.0873 60.6001 44.1654 60.7232 44.2655 60.8272C44.3656 60.9313 44.4857 61.014 44.6185 61.0705C44.7514 61.1271 44.8943 61.1562 45.0386 61.1562C45.183 61.1562 45.3259 61.1271 45.4587 61.0705C45.5916 61.014 45.7117 60.9313 45.8118 60.8272C45.9119 60.7232 45.99 60.6001 46.0414 60.4651C46.0928 60.3302 46.1164 60.1863 46.1109 60.0421V53.3723C46.1109 48.9605 43.2369 44.9646 38.7447 43.1731ZM38.6044 22.5225H39.6775V24.6669H38.6044V22.5225ZM7.50723 24.6606H6.43578V22.5225H7.50723V24.6606ZM9.65643 10.5963C9.65893 8.35467 10.5505 6.20557 12.1356 4.62049C13.7207 3.03542 15.8698 2.14382 18.1114 2.14132H40.7536V5.01217C40.7507 6.80821 40.036 8.52984 38.766 9.79983C37.496 11.0698 35.7743 11.7846 33.9783 11.7875H12.8692C12.5846 11.7875 12.3117 11.9006 12.1105 12.1018C11.9092 12.303 11.7962 12.5759 11.7962 12.8605V16.0764H10.4443C10.1772 16.0804 9.91201 16.1218 9.65643 16.1993V10.5963ZM34.3155 13.9194V16.0812H13.9406V13.9367H33.9688C34.0791 13.9367 34.1989 13.9241 34.3155 13.9194ZM10.4443 28.9496C10.2353 28.9496 10.0349 28.8666 9.88718 28.7188C9.73943 28.5711 9.65643 28.3707 9.65643 28.1618V19.0229C9.65643 18.814 9.73943 18.6136 9.88718 18.4659C10.0349 18.3181 10.2353 18.2351 10.4443 18.2351H35.6706C35.8795 18.2351 36.0799 18.3181 36.2276 18.4659C36.3754 18.6136 36.4584 18.814 36.4584 19.0229V28.1618C36.4584 28.3707 36.3754 28.5711 36.2276 28.7188C36.0799 28.8666 35.8795 28.9496 35.6706 28.9496H29.8406C28.7739 28.9496 27.7607 28.3997 26.9887 27.4007C26.5898 26.8795 26.0757 26.4576 25.4866 26.1682C24.8975 25.8787 24.2495 25.7294 23.5931 25.7321H22.5217C21.8645 25.7299 21.2158 25.88 20.6264 26.1706C20.037 26.4612 19.523 26.8844 19.1246 27.407C18.3525 28.406 17.3409 28.9559 16.2726 28.9559L10.4443 28.9496ZM27.8852 42.3537C27.8852 44.4226 25.7203 46.1069 23.059 46.1069C20.3977 46.1069 18.2312 44.4241 18.2312 42.3537V39.3048C19.7202 40.1793 21.3447 40.745 23.0558 40.745C24.7362 40.7324 26.3898 40.3232 27.8821 39.5506L27.8852 42.3537ZM23.0495 38.5942C19.0994 38.5942 15.2878 34.4975 13.2032 31.0878H16.2742C17.9948 31.0878 19.6524 30.2196 20.8215 28.7069C21.0213 28.4464 21.2785 28.2355 21.5731 28.0907C21.8678 27.9459 22.1918 27.871 22.5201 27.8718H23.5931C23.9212 27.8711 24.2451 27.9459 24.5396 28.0905C24.8342 28.235 25.0915 28.4454 25.2917 28.7054C26.4608 30.2196 28.1184 31.0878 29.839 31.0878H33.2346C31.2036 34.8126 27.5827 38.5942 23.0495 38.5942Z" fill="#0B0B0B"></path><path d="M36.4599 54.6864C36.3192 54.6862 36.1797 54.7138 36.0497 54.7675C35.9196 54.8213 35.8014 54.9002 35.7018 54.9998C35.6023 55.0993 35.5234 55.2175 35.4696 55.3476C35.4159 55.4777 35.3883 55.6171 35.3885 55.7578V60.0468C35.383 60.1911 35.4066 60.335 35.458 60.4699C35.5094 60.6048 35.5875 60.7279 35.6876 60.832C35.7877 60.936 35.9078 61.0187 36.0406 61.0753C36.1735 61.1318 36.3163 61.1609 36.4607 61.1609C36.6051 61.1609 36.748 61.1318 36.8808 61.0753C37.0137 61.0187 37.1338 60.936 37.2339 60.832C37.334 60.7279 37.4121 60.6048 37.4635 60.4699C37.5148 60.335 37.5385 60.1911 37.533 60.0468V55.7578C37.533 55.617 37.5052 55.4776 37.4512 55.3475C37.3973 55.2174 37.3182 55.0992 37.2186 54.9997C37.1189 54.9002 37.0006 54.8213 36.8704 54.7675C36.7403 54.7138 36.6008 54.6862 36.4599 54.6864Z" fill="#0B0B0B"></path><path d="M8.58065 54.6864C8.43981 54.6862 8.30031 54.7138 8.17014 54.7675C8.03996 54.8213 7.92166 54.9002 7.822 54.9997C7.72234 55.0992 7.64328 55.2174 7.58933 55.3475C7.53539 55.4776 7.50762 55.617 7.50762 55.7578V60.0468C7.50209 60.1911 7.52573 60.335 7.57712 60.4699C7.62852 60.6048 7.70661 60.7279 7.80672 60.832C7.90683 60.936 8.0269 61.0187 8.15975 61.0753C8.2926 61.1318 8.43549 61.1609 8.57986 61.1609C8.72423 61.1609 8.86712 61.1318 8.99997 61.0753C9.13281 61.0187 9.25289 60.936 9.353 60.832C9.45311 60.7279 9.5312 60.6048 9.5826 60.4699C9.63399 60.335 9.65763 60.1911 9.6521 60.0468V55.7578C9.6523 55.6171 9.62473 55.4777 9.57096 55.3476C9.51719 55.2175 9.43827 55.0993 9.33874 54.9998C9.2392 54.9002 9.12101 54.8213 8.99092 54.7675C8.86083 54.7138 8.72141 54.6862 8.58065 54.6864Z" fill="#0B0B0B"></path><path d="M17.158 20.3717C17.1582 20.2309 17.1306 20.0914 17.0769 19.9612C17.0231 19.831 16.9442 19.7127 16.8447 19.6131C16.7452 19.5134 16.627 19.4344 16.4969 19.3804C16.3668 19.3265 16.2273 19.2987 16.0865 19.2987H12.869C12.7248 19.2932 12.5809 19.3168 12.4459 19.3682C12.311 19.4196 12.1879 19.4977 12.0838 19.5978C11.9798 19.6979 11.8971 19.818 11.8405 19.9508C11.784 20.0837 11.7549 20.2266 11.7549 20.3709C11.7549 20.5153 11.784 20.6582 11.8405 20.791C11.8971 20.9239 11.9798 21.044 12.0838 21.1441C12.1879 21.2442 12.311 21.3223 12.4459 21.3737C12.5809 21.4251 12.7248 21.4487 12.869 21.4432H16.0865C16.2273 21.4434 16.3667 21.4158 16.4968 21.362C16.6269 21.3083 16.7451 21.2293 16.8446 21.1298C16.9441 21.0303 17.0231 20.9121 17.0768 20.782C17.1306 20.6519 17.1582 20.5125 17.158 20.3717Z" fill="#0B0B0B"></path><path d="M30.5618 26.8051C31.3041 26.8051 32.0298 26.585 32.647 26.1726C33.2642 25.7602 33.7453 25.174 34.0293 24.4882C34.3134 23.8024 34.3877 23.0478 34.2429 22.3197C34.0981 21.5917 33.7406 20.9229 33.2157 20.398C32.6908 19.8731 32.0221 19.5156 31.294 19.3708C30.566 19.226 29.8113 19.3003 29.1255 19.5844C28.4397 19.8685 27.8535 20.3495 27.4411 20.9667C27.0287 21.584 26.8086 22.3096 26.8086 23.0519C26.8098 24.047 27.2057 25.0009 27.9093 25.7045C28.6129 26.4081 29.5668 26.8039 30.5618 26.8051ZM30.5618 21.4479C30.88 21.4479 31.191 21.5423 31.4556 21.719C31.7201 21.8958 31.9263 22.1471 32.0481 22.441C32.1699 22.735 32.2017 23.0584 32.1397 23.3705C32.0776 23.6826 31.9244 23.9692 31.6994 24.1942C31.4744 24.4192 31.1877 24.5724 30.8757 24.6345C30.5636 24.6966 30.2401 24.6647 29.9462 24.5429C29.6522 24.4212 29.401 24.215 29.2242 23.9504C29.0474 23.6859 28.9531 23.3748 28.9531 23.0567C28.9527 22.8451 28.9939 22.6354 29.0746 22.4398C29.1552 22.2442 29.2736 22.0663 29.423 21.9165C29.5725 21.7667 29.7499 21.6477 29.9453 21.5665C30.1407 21.4853 30.3502 21.4434 30.5618 21.4432V21.4479Z" fill="#0B0B0B"></path><path d="M24.6835 30.9113C23.6703 31.7874 22.4177 31.7779 21.4124 30.8956C21.1986 30.7075 20.9189 30.6121 20.6348 30.6302C20.3507 30.6484 20.0854 30.7787 19.8974 30.9925C19.7093 31.2062 19.6139 31.4859 19.6321 31.77C19.6502 32.0541 19.7805 32.3194 19.9943 32.5075C20.8203 33.2761 21.9055 33.7053 23.0338 33.7097C24.1621 33.7141 25.2507 33.2933 26.0826 32.5311C26.1922 32.44 26.2824 32.3279 26.3481 32.2015C26.4138 32.0751 26.4537 31.9368 26.4653 31.7948C26.4769 31.6528 26.4601 31.5099 26.4158 31.3745C26.3715 31.2391 26.3007 31.1138 26.2075 31.0061C26.1142 30.8984 26.0004 30.8103 25.8727 30.7471C25.745 30.6839 25.606 30.6468 25.4638 30.638C25.3216 30.6292 25.179 30.6488 25.0445 30.6957C24.91 30.7427 24.7862 30.816 24.6803 30.9113H24.6835Z" fill="#0B0B0B"></path></svg>