<svg xmlns="http://www.w3.org/2000/svg" width="54" height="56" viewBox="0 0 54 56" fill="none"><path d="M29.8268 5.59252H24.2329C23.9857 5.59252 23.7486 5.49431 23.5738 5.31951C23.399 5.14471 23.3008 4.90763 23.3008 4.66042C23.3008 4.41322 23.399 4.17614 23.5738 4.00134C23.7486 3.82653 23.9857 3.72833 24.2329 3.72833H29.8268C30.074 3.72833 30.3111 3.82653 30.4859 4.00134C30.6607 4.17614 30.7589 4.41322 30.7589 4.66042C30.7589 4.90763 30.6607 5.14471 30.4859 5.31951C30.3111 5.49431 30.074 5.59252 29.8268 5.59252Z" fill="#0B0B0B"></path><path d="M37.2849 55.9339H16.7747C15.539 55.9328 14.3543 55.4414 13.4805 54.5677C12.6067 53.6939 12.1154 52.5091 12.1143 51.2734V19.5767C12.1143 19.3295 12.2125 19.0925 12.3873 18.9177C12.5621 18.7429 12.7991 18.6447 13.0464 18.6447C13.2936 18.6447 13.5306 18.7429 13.7054 18.9177C13.8802 19.0925 13.9784 19.3295 13.9784 19.5767V51.2734C13.9792 52.0148 14.274 52.7256 14.7983 53.2499C15.3225 53.7741 16.0333 54.069 16.7747 54.0697H37.2849C38.0263 54.069 38.7371 53.7741 39.2614 53.2499C39.7856 52.7256 40.0805 52.0148 40.0812 51.2734V19.5767C40.0905 19.3356 40.1928 19.1074 40.3667 18.94C40.5406 18.7727 40.7726 18.6792 41.014 18.6792C41.2553 18.6792 41.4873 18.7727 41.6612 18.94C41.8351 19.1074 41.9375 19.3356 41.9467 19.5767V51.2734C41.9453 52.5092 41.4536 53.694 40.5796 54.5677C39.7056 55.4415 38.5207 55.9328 37.2849 55.9339Z" fill="#0B0B0B"></path><path d="M41.0133 26.1027C40.7661 26.1027 40.529 26.0045 40.3542 25.8297C40.1794 25.6549 40.0812 25.4178 40.0812 25.1706V4.66046C40.0805 3.91907 39.7856 3.20825 39.2614 2.684C38.7371 2.15976 38.0263 1.86492 37.2849 1.86418H16.7747C16.0333 1.86492 15.3225 2.15976 14.7983 2.684C14.274 3.20825 13.9792 3.91907 13.9784 4.66046V25.1706C13.9784 25.4178 13.8802 25.6549 13.7054 25.8297C13.5306 26.0045 13.2936 26.1027 13.0464 26.1027C12.7991 26.1027 12.5621 26.0045 12.3873 25.8297C12.2125 25.6549 12.1143 25.4178 12.1143 25.1706V4.66046C12.1154 3.42477 12.6067 2.24 13.4805 1.36623C14.3543 0.492463 15.539 0.00109856 16.7747 0H37.2849C38.5207 0.00109797 39.7056 0.492418 40.5796 1.36615C41.4536 2.23988 41.9453 3.42464 41.9467 4.66046V25.1706C41.9464 25.418 41.8479 25.6551 41.6729 25.8298C41.4978 26.0046 41.2606 26.1027 41.0133 26.1027Z" fill="#0B0B0B"></path><path d="M41.9984 48.3305C41.9317 48.3292 41.8654 48.3204 41.8007 48.3042C41.561 48.2441 41.355 48.0914 41.2277 47.8796C41.1004 47.6678 41.0623 47.4142 41.1217 47.1744L41.8256 44.3421C41.8669 44.1712 41.9559 44.0154 42.0822 43.893C42.2085 43.7706 42.367 43.6866 42.5392 43.6507C43.445 43.4577 44.3156 43.1256 45.1197 42.666C45.2713 42.5797 45.444 42.5376 45.6183 42.5444C45.7925 42.5513 45.9614 42.6068 46.1057 42.7047L47.9132 43.9425L49.0915 42.8264L47.9685 40.9664C47.8787 40.8162 47.8327 40.6438 47.8359 40.4687C47.8391 40.2937 47.8913 40.1231 47.9865 39.9762C48.4955 39.2027 48.8804 38.3544 49.1274 37.4621C49.1739 37.2936 49.2665 37.1414 49.3948 37.0226C49.523 36.9039 49.6819 36.8233 49.8535 36.79L51.9915 36.3834L52.0413 34.7861L49.9337 34.2495C49.7645 34.2059 49.6109 34.1158 49.4902 33.9894C49.3695 33.8631 49.2865 33.7056 49.2505 33.5346C49.0593 32.6284 48.7275 31.7577 48.2673 30.954C48.1805 30.8022 48.1385 30.6289 48.146 30.4541C48.1536 30.2794 48.2105 30.1104 48.3101 29.9666L49.5478 28.1564L48.4415 26.9795L46.5607 28.1052C46.411 28.1946 46.2391 28.2401 46.0647 28.2364C45.8904 28.2327 45.7205 28.1801 45.5747 28.0844C44.801 27.5751 43.9528 27.1893 43.0605 26.9408C42.8914 26.8947 42.7387 26.8017 42.6203 26.6725C42.5018 26.5432 42.4224 26.3831 42.3912 26.2106L41.9984 24.0823L41.1839 24.056C41.0597 24.0549 40.937 24.0291 40.823 23.9799C40.7089 23.9308 40.6059 23.8593 40.5198 23.7698C40.4338 23.6803 40.3665 23.5744 40.3219 23.4585C40.2773 23.3426 40.2563 23.219 40.2602 23.0949C40.2641 22.9708 40.2927 22.8487 40.3444 22.7358C40.3961 22.6229 40.4699 22.5214 40.5614 22.4374C40.6528 22.3534 40.7601 22.2886 40.877 22.2466C40.9939 22.2047 41.118 22.1865 41.242 22.1932L42.8075 22.2416C43.0204 22.2483 43.2247 22.3279 43.386 22.4671C43.5473 22.6063 43.656 22.7967 43.6939 23.0063L44.1199 25.3186C44.8052 25.5508 45.4655 25.8515 46.0905 26.2161L48.1317 24.9978C48.3145 24.8894 48.5287 24.8465 48.7391 24.8761C48.9495 24.9058 49.1436 25.0062 49.2892 25.1609L51.4217 27.4289C51.5669 27.5839 51.6548 27.7838 51.6709 27.9956C51.687 28.2073 51.6303 28.4182 51.5102 28.5934L50.1674 30.5544C50.4919 31.2023 50.7509 31.881 50.9405 32.5803L53.225 33.1626C53.4314 33.215 53.6137 33.3362 53.7419 33.5061C53.8701 33.676 53.9366 33.8846 53.9303 34.0974L53.8335 37.191C53.8268 37.4031 53.7479 37.6066 53.6098 37.7678C53.4718 37.929 53.2829 38.0382 53.0743 38.0775L50.7579 38.5159C50.5257 39.2017 50.225 39.8624 49.8604 40.4879L51.0774 42.5111C51.1876 42.6927 51.2321 42.9067 51.2034 43.1171C51.1747 43.3276 51.0745 43.5218 50.9197 43.6673L48.6503 45.8177C48.4952 45.9635 48.295 46.0521 48.0828 46.0687C47.8706 46.0853 47.659 46.0289 47.4831 45.909L45.5221 44.562C44.8751 44.8858 44.1973 45.1444 43.4989 45.3337L42.9305 47.6169C42.8795 47.8238 42.7592 48.007 42.5896 48.136C42.4201 48.2651 42.2115 48.3322 41.9984 48.3263V48.3305Z" fill="#0B0B0B"></path><path d="M41.5378 40.6995C41.3529 40.6241 41.197 40.4913 41.0932 40.3207C40.9895 40.1501 40.9432 39.9506 40.9613 39.7517C40.9795 39.5529 41.061 39.3651 41.1939 39.216C41.3268 39.0669 41.5041 38.9645 41.6996 38.9238C42.4807 38.7584 43.1882 38.347 43.7183 37.75C44.2483 37.153 44.5731 36.4018 44.6449 35.6066C44.7167 34.8114 44.5317 34.0142 44.1171 33.3319C43.7025 32.6496 43.0801 32.1182 42.3413 31.8156C42.1091 31.7215 41.8682 31.6507 41.6222 31.604C41.5014 31.5817 41.3862 31.5359 41.2831 31.4691C41.1801 31.4024 41.0912 31.316 41.0215 31.2148C40.9518 31.1137 40.9028 30.9998 40.8771 30.8797C40.8514 30.7597 40.8497 30.6357 40.8719 30.5149C40.8942 30.3941 40.94 30.2789 41.0068 30.1759C41.0735 30.0728 41.1599 29.9839 41.2611 29.9142C41.3622 29.8446 41.4761 29.7955 41.5961 29.7699C41.7162 29.7442 41.8402 29.7424 41.961 29.7647C42.3309 29.8348 42.6931 29.9409 43.0424 30.0814C44.1541 30.5325 45.0913 31.329 45.7157 32.3534C46.3401 33.3779 46.6186 34.5759 46.5101 35.7707C46.4016 36.9655 45.9119 38.0938 45.1132 38.989C44.3145 39.8842 43.2491 40.4989 42.0744 40.7424C41.8933 40.7803 41.7051 40.7635 41.5336 40.6939L41.5378 40.6995Z" fill="#0B0B0B"></path><path d="M11.6266 25.6546C10.5254 25.1757 9.60756 24.3551 9.00876 23.3142C8.40996 22.2733 8.16202 21.0674 8.30159 19.8747C8.44116 18.682 8.96084 17.5658 9.78378 16.6913C10.6067 15.8168 11.6892 15.2303 12.8713 15.0185C12.9919 14.9968 13.1156 14.999 13.2353 15.0251C13.355 15.0512 13.4685 15.1007 13.5691 15.1706C13.6697 15.2406 13.7555 15.3297 13.8216 15.4329C13.8877 15.5361 13.9328 15.6513 13.9544 15.7719C13.9759 15.8926 13.9735 16.0163 13.9472 16.136C13.9208 16.2557 13.8712 16.369 13.801 16.4695C13.7309 16.5699 13.6416 16.6556 13.5383 16.7215C13.435 16.7874 13.3197 16.8324 13.199 16.8537C12.4128 16.9975 11.6935 17.3897 11.1469 17.9728C10.6002 18.5558 10.2551 19.2989 10.1622 20.0927C10.0693 20.8865 10.2336 21.6892 10.6309 22.3827C11.0282 23.0762 11.6375 23.6239 12.3693 23.9453C12.5944 24.0436 12.8288 24.1192 13.069 24.1708C13.192 24.1931 13.3092 24.2399 13.4137 24.3084C13.5182 24.377 13.6079 24.4658 13.6774 24.5697C13.7468 24.6736 13.7947 24.7904 13.8181 24.9132C13.8416 25.0359 13.8401 25.1622 13.8137 25.2843C13.7874 25.4065 13.7367 25.5221 13.6648 25.6243C13.5928 25.7265 13.5011 25.8132 13.395 25.8793C13.2889 25.9453 13.1705 25.9893 13.0471 26.0087C12.9236 26.0281 12.7975 26.0224 12.6763 25.9921C12.3153 25.9158 11.9631 25.8027 11.6252 25.6546H11.6266Z" fill="#0B0B0B"></path><path d="M13.0424 33.5608H11.4714C11.2583 33.5605 11.0518 33.4871 10.8862 33.353C10.7206 33.2189 10.606 33.0321 10.5614 32.8237L10.0636 30.5253C9.37198 30.3158 8.70303 30.0378 8.06661 29.6955L6.06413 30.9761C5.88501 31.0905 5.67217 31.1403 5.46089 31.1172C5.24961 31.094 5.05258 30.9994 4.90247 30.8489L2.705 28.6431C2.55473 28.4928 2.46044 28.2956 2.43779 28.0843C2.41515 27.8729 2.46553 27.6602 2.58054 27.4815L3.86528 25.4776C3.52252 24.8405 3.24454 24.1705 3.03552 23.4779L0.732951 22.9662C0.525237 22.9205 0.339352 22.8053 0.206064 22.6396C0.0727754 22.4738 7.62488e-05 22.2676 0 22.0549V18.9613C0.00032118 18.749 0.0729667 18.5432 0.205957 18.3778C0.338947 18.2124 0.524342 18.0972 0.731568 18.0513L3.03414 17.541C3.24255 16.8481 3.52056 16.1782 3.8639 15.5413L2.58192 13.5568C2.46631 13.3784 2.41532 13.1658 2.43747 12.9545C2.45961 12.7431 2.55355 12.5456 2.70362 12.3951L4.90524 10.1755C5.055 10.0241 5.25225 9.92861 5.46398 9.9052C5.6757 9.88179 5.88904 9.93182 6.06828 10.0469L8.07076 11.3275C8.70729 10.9855 9.37623 10.7075 10.0677 10.4978L10.5656 8.19933C10.6243 7.96466 10.772 7.76202 10.9773 7.63422C11.1827 7.50642 11.4298 7.46348 11.6662 7.51448C11.9027 7.56547 12.1101 7.7064 12.2446 7.90749C12.379 8.10857 12.4301 8.35407 12.3869 8.59208L11.7729 11.4451C11.7361 11.6164 11.6517 11.7739 11.5294 11.8994C11.407 12.0249 11.2517 12.1134 11.0814 12.1545C10.1814 12.3749 9.32115 12.7336 8.53127 13.218C8.38258 13.3089 8.21137 13.3564 8.03707 13.3549C7.86278 13.3534 7.69239 13.3031 7.54525 13.2097L5.69904 12.0287L4.55674 13.1696L5.73776 15.0006C5.83312 15.1476 5.8849 15.3186 5.88711 15.4939C5.88931 15.6691 5.84184 15.8414 5.75021 15.9907C5.26551 16.7798 4.90715 17.6397 4.68812 18.5395C4.64654 18.7089 4.5585 18.8634 4.4339 18.9856C4.3093 19.1078 4.15309 19.1927 3.98283 19.2309L1.85865 19.7011V21.2984L3.98283 21.77C4.15309 21.8082 4.3093 21.8932 4.4339 22.0153C4.5585 22.1375 4.64654 22.292 4.68812 22.4615C4.90539 23.3646 5.26234 24.2282 5.74606 25.0212C5.8375 25.1701 5.88498 25.3418 5.88303 25.5166C5.88107 25.6913 5.82975 25.8619 5.735 26.0087L4.55674 27.8549L5.69766 28.9958L7.54525 27.8134C7.69277 27.7203 7.86334 27.6702 8.03777 27.6687C8.21221 27.6672 8.38359 27.7145 8.53266 27.8051C9.3223 28.2892 10.182 28.6484 11.0814 28.8699C11.2517 28.9107 11.407 28.9988 11.5294 29.1241C11.6518 29.2494 11.7362 29.4067 11.7729 29.578L12.2265 31.7008H13.0424C13.2836 31.7101 13.5118 31.8124 13.6791 31.9863C13.8465 32.1602 13.9399 32.3922 13.9399 32.6336C13.9399 32.8749 13.8465 33.1069 13.6791 33.2808C13.5118 33.4547 13.2836 33.5571 13.0424 33.5664V33.5608Z" fill="#0B0B0B"></path><path d="M26.0983 32.6288C25.9568 32.628 25.8173 32.5952 25.6904 32.5328C25.5634 32.4705 25.4522 32.3801 25.3652 32.2686C25.2781 32.157 25.2175 32.0272 25.1878 31.8889C25.1581 31.7506 25.1602 31.6073 25.1939 31.4699L27.058 24.0118C27.0877 23.893 27.1405 23.7812 27.2134 23.6829C27.2863 23.5845 27.3778 23.5014 27.4828 23.4385C27.5878 23.3755 27.7042 23.3338 27.8253 23.3158C27.9464 23.2977 28.0698 23.3037 28.1886 23.3334C28.3074 23.3631 28.4191 23.4159 28.5175 23.4888C28.6159 23.5617 28.6989 23.6532 28.7619 23.7582C28.8249 23.8632 28.8666 23.9796 28.8846 24.1007C28.9026 24.2218 28.8966 24.3452 28.8669 24.464L27.0027 31.9221C26.9526 32.124 26.8363 32.3034 26.6724 32.4315C26.5085 32.5596 26.3063 32.629 26.0983 32.6288Z" fill="#0B0B0B"></path><path d="M31.6906 32.6288C31.5064 32.6287 31.3263 32.5741 31.1731 32.4717C31.0199 32.3694 30.9005 32.2239 30.8299 32.0538C30.7593 31.8836 30.7408 31.6963 30.7765 31.5156C30.8123 31.3349 30.9009 31.1688 31.031 31.0384L34.1025 27.9669L31.0324 24.8982C30.8576 24.7232 30.7595 24.486 30.7596 24.2387C30.7597 23.9915 30.8581 23.7543 31.0331 23.5796C31.208 23.4048 31.4452 23.3067 31.6925 23.3068C31.9398 23.307 32.1769 23.4053 32.3517 23.5803L36.0856 27.3142C36.2603 27.489 36.3585 27.726 36.3585 27.9731C36.3585 28.2203 36.2603 28.4573 36.0856 28.6321L32.3517 32.366C32.1743 32.5369 31.9369 32.6312 31.6906 32.6288Z" fill="#0B0B0B"></path><path d="M22.3684 32.6287C22.1206 32.6276 21.8833 32.5281 21.7088 32.3521L17.9749 28.6182C17.8008 28.4431 17.7031 28.2062 17.7031 27.9593C17.7031 27.7124 17.8008 27.4755 17.9749 27.3003L21.7088 23.5664C21.8847 23.3972 22.1199 23.3038 22.364 23.3061C22.608 23.3085 22.8414 23.4065 23.014 23.5791C23.1866 23.7517 23.2846 23.9851 23.287 24.2291C23.2893 24.4732 23.1959 24.7084 23.0267 24.8843L19.958 27.9669L23.0267 31.0356C23.2014 31.2104 23.2996 31.4474 23.2996 31.6946C23.2996 31.9417 23.2014 32.1787 23.0267 32.3535C22.9408 32.4409 22.8384 32.5103 22.7253 32.5576C22.6123 32.6048 22.4909 32.629 22.3684 32.6287Z" fill="#0B0B0B"></path></svg>