<svg xmlns="http://www.w3.org/2000/svg" width="99" height="40" viewBox="0 0 99 40" fill="none"><path d="M17.4225 0C17.5205 0.252724 17.7784 0.288828 17.9744 0.402296L31.4616 8.05623C31.6494 8.16049 31.8228 8.2888 31.9774 8.4379C30.9149 8.41211 29.8782 8.68546 28.826 8.06655C25.489 6.09633 22.1211 4.22411 18.7325 2.31578C17.8867 1.83612 17.8918 1.83612 17.8918 2.83154C17.8918 4.73471 17.8918 6.64304 17.8918 8.54621C17.8918 9.06197 18.0053 9.23217 18.5572 9.24765C23.7509 9.39206 28.9447 9.57258 34.1436 9.76341L34.4014 9.79436C34.3228 10.0926 34.1841 10.3716 33.994 10.6144C31.5114 14.7887 29.022 18.9629 26.5257 23.1372C26.2678 23.5704 26.304 23.7561 26.7424 24.0088C28.7074 25.1486 30.6518 26.3246 32.6066 27.4799C32.7507 27.6109 32.93 27.6969 33.1223 27.7275C33.2025 27.5063 33.2221 27.2677 33.1791 27.0363C33.1791 23.426 33.2564 19.8156 33.1481 16.2517C33.1163 14.8628 33.5726 13.5067 34.4375 12.4196C34.4375 12.6672 34.4685 12.8477 34.4685 13.0282V28.7487C34.4685 29.6203 34.0456 29.8782 33.3029 29.4398C30.9407 28.0369 28.5682 26.6547 26.2317 25.2105C25.6386 24.8443 25.4065 24.963 25.0919 25.52C23.2403 28.7693 21.3578 32.0031 19.4856 35.2421C19.2019 35.727 18.9234 36.2169 18.6139 36.743C18.9285 36.7791 19.1297 36.5831 19.3154 36.4645C22.3687 34.7109 25.4375 32.9676 28.4702 31.1728C29.2061 30.6778 30.0873 30.4453 30.9716 30.5126C31.3533 30.5539 31.7453 30.5126 32.3435 30.5126C31.9516 30.7498 31.7349 30.8943 31.5029 31.0284C26.971 33.5969 22.4392 36.1757 17.9073 38.7648C17.732 38.8628 17.4895 38.8989 17.3916 39.1413H17.1337C16.9893 39.0433 16.8552 38.9402 16.7056 38.8576L3.12037 31.049C2.88312 30.9149 2.65618 30.7705 2.42409 30.6312C2.93687 30.5607 3.45378 30.5246 3.97138 30.5229C4.65979 30.4808 5.34344 30.6616 5.92097 31.0387C9.05681 32.9109 12.2236 34.7367 15.3801 36.578C15.5039 36.6502 15.6173 36.841 15.8339 36.7069C13.6437 32.9246 11.4586 29.1424 9.27859 25.3601C9.03618 24.932 8.84535 24.9114 8.4379 25.159C6.1118 26.5722 3.75476 27.9389 1.43898 29.3676C1.23842 29.5357 0.986546 29.6303 0.724929 29.636C0.463312 29.6416 0.207597 29.5578 0 29.3985L0 12.0895C0.237251 12.4763 0.448714 12.8786 0.716912 13.2448C1.14687 13.8646 1.35412 14.6119 1.30488 15.3646C1.30488 19.2844 1.30488 23.1991 1.30488 27.1189C1.30488 27.3406 1.30488 27.5624 1.33583 27.8616C3.53298 26.5567 5.64246 25.2827 7.77256 24.0552C8.2419 23.7819 8.28832 23.591 7.9995 23.132C5.8436 19.599 3.72897 15.9887 1.59887 12.4505C1.11765 11.5599 0.583744 10.6988 0 9.87172L0 9.74794L12.4041 9.31985C13.6162 9.27859 14.8282 9.22702 16.0403 9.19607C16.4735 9.19607 16.6334 9.04134 16.6231 8.58231C16.6231 7.24132 16.6231 5.89518 16.6231 4.5542V1.84128C16.3446 1.99085 16.1537 2.08369 15.968 2.18684C12.5331 4.12611 9.09292 6.03444 5.69919 8.0356C4.66766 8.64936 3.63613 8.40179 2.54787 8.41211C4.74503 7.0866 6.96281 5.83329 9.17544 4.56967L17.1646 0H17.4225ZM10.2018 23.4982H24.2409C21.9251 19.3721 19.6506 15.2769 17.3348 11.1199C14.9571 15.2821 12.5846 19.3566 10.1915 23.4982H10.2018ZM16.0299 10.5113L2.40346 11.0992L9.20638 22.4925L16.0299 10.5113ZM25.2724 22.5801C27.5108 18.8151 29.6719 15.1738 31.8484 11.5428C32.1476 11.027 31.8484 11.0786 31.508 11.0683L25.4581 10.831L18.6964 10.5835L25.2724 22.5801ZM17.2471 36.4026C19.4237 32.6375 21.5435 28.9653 23.6684 25.3034C23.9521 24.8186 23.6271 24.8753 23.3332 24.8753H11.1147C10.7227 24.8753 10.5989 24.932 10.831 25.3292C12.9611 28.9859 15.0809 32.6582 17.2471 36.4026Z" fill="#057A8E"></path><path d="M98.9491 29.1151C98.3877 29.0713 97.8238 29.0713 97.2625 29.1151C96.2774 29.2647 95.6843 28.8469 95.1324 28.0836C94.2092 26.7735 93.1673 25.5563 92.1977 24.2772C91.9192 23.9111 91.7748 23.9368 91.5117 24.2772C90.4028 25.773 89.263 27.2429 88.1541 28.7386C88.0744 28.8648 87.9615 28.9666 87.8278 29.033C87.6941 29.0994 87.5447 29.1278 87.3959 29.1151C86.6223 29.0893 85.8487 29.1151 85.0234 29.1151C85.1283 28.8198 85.3057 28.5556 85.5392 28.3466C87.0504 26.397 88.5616 24.4474 90.1037 22.5185C90.4028 22.1471 90.3513 21.9305 90.1037 21.5901C88.4223 19.5993 86.808 17.5826 85.1008 15.4732C86.1323 15.4732 87.0401 15.4732 87.9478 15.4732C88.1748 15.4732 88.2418 15.7104 88.3604 15.8548C89.392 17.1649 90.4235 18.4801 91.455 19.7953C91.5891 19.9603 91.7284 20.1202 91.8883 20.311C93.0642 18.805 94.2195 17.3454 95.3439 15.8651C95.436 15.7226 95.5655 15.6082 95.7184 15.5345C95.8713 15.4608 96.0415 15.4306 96.2103 15.4474C96.9634 15.4732 97.7164 15.4474 98.6035 15.4474L95.7874 18.97C95.055 19.8778 94.3278 20.7958 93.5903 21.6984C93.5422 21.7401 93.5037 21.7915 93.4772 21.8494C93.4508 21.9072 93.4371 21.9701 93.4371 22.0337C93.4371 22.0973 93.4508 22.1601 93.4772 22.218C93.5037 22.2758 93.5422 22.3273 93.5903 22.3689C95.349 24.5351 97.0975 26.7168 98.8459 28.8933C98.8929 28.9313 98.945 28.9626 99.0006 28.9862L98.9491 29.1151Z" fill="#057A8E"></path><path d="M67.6102 26.9177C67.6102 27.5366 67.5844 28.0782 67.6102 28.6146C67.6102 29.0375 67.4709 29.1303 67.0944 29.1303C66.4703 29.0787 65.6657 29.383 65.2686 29.022C64.8715 28.661 65.15 27.8358 65.1448 27.2168C65.1448 21.626 65.1448 16.0402 65.1448 10.4545C65.1448 9.93875 65.2738 9.71697 65.8205 9.77886C66.3672 9.84075 67.1511 9.54161 67.5122 9.89749C67.8732 10.2534 67.6153 11.0064 67.6205 11.584C67.6205 13.5697 67.6205 15.5606 67.6205 17.701C68.1693 16.7744 69.0035 16.0506 69.9982 15.6379C72.8091 14.56 76.4091 15.4574 77.6624 18.9491C78.6011 21.5641 78.565 24.1893 77.1724 26.6856C75.1094 30.2959 69.5494 30.198 67.7855 27.0879C67.7649 27.0054 67.7185 26.9899 67.6102 26.9177ZM67.6102 22.4667C67.5991 23.1332 67.6895 23.7975 67.8784 24.4369C68.0671 25.2631 68.5316 26.0003 69.1953 26.5272C69.8591 27.0541 70.6825 27.3392 71.53 27.3355C72.3582 27.4063 73.1858 27.1924 73.8761 26.7291C74.5663 26.2658 75.0778 25.5809 75.326 24.7876C75.9494 23.1126 75.9403 21.2677 75.3002 19.599C75.0552 18.9855 74.659 18.4438 74.1486 18.0244C73.6381 17.605 73.03 17.3214 72.3806 17.1999C71.7312 17.0785 71.0616 17.1232 70.4341 17.3298C69.8066 17.5364 69.2415 17.8983 68.7913 18.3818C67.7752 19.4752 67.5947 20.8523 67.5947 22.4667H67.6102Z" fill="#057A8E"></path><path d="M55.5079 20.2744C55.5079 21.7031 55.477 23.1317 55.5079 24.5604C55.4872 25.0184 55.5856 25.4739 55.7935 25.8825C56.0014 26.2911 56.3118 26.6388 56.6942 26.8917C57.0374 27.1137 57.431 27.246 57.8387 27.2763C58.2464 27.3065 58.6552 27.2339 59.0275 27.0649C59.3998 26.896 59.7236 26.6362 59.9693 26.3094C60.215 25.9826 60.3746 25.5994 60.4335 25.1948C60.5427 24.6429 60.5928 24.081 60.5831 23.5186C60.5831 21.0274 60.5831 18.5414 60.5831 16.0503C60.5831 15.581 60.681 15.385 61.1865 15.4365C61.7796 15.4984 62.5636 15.1993 62.9401 15.55C63.3166 15.9007 63.0639 16.695 63.0587 17.2933C63.0278 19.8721 63.1928 22.4509 62.971 25.0298C62.6719 28.4751 60.32 29.5685 57.2976 29.3312C55.3738 29.1765 53.9245 28.2997 53.3108 26.3656C53.0657 25.4898 52.9527 24.5824 52.9755 23.6733C52.9755 21.0945 52.9755 18.5621 52.9755 16.009C52.9755 15.5345 53.1457 15.4159 53.579 15.4469C54.1773 15.4881 54.9612 15.2663 55.3377 15.5655C55.7142 15.8646 55.4512 16.7002 55.4667 17.2985C55.4667 18.2939 55.4667 19.2893 55.4667 20.2847L55.5079 20.2744Z" fill="#057A8E"></path><path d="M45.4176 17.7321C45.8574 16.8734 46.5503 16.1705 47.4027 15.7185C48.255 15.2664 49.2256 15.0872 50.1832 15.2048C50.699 15.2358 50.9311 15.3957 50.8692 15.9527C50.8407 16.4818 50.8407 17.0121 50.8692 17.5413C50.1849 17.3159 49.4595 17.2437 48.7442 17.3298C47.8499 17.4286 47.0248 17.8578 46.4304 18.5333C45.836 19.2087 45.5153 20.0818 45.531 20.9814C45.4743 23.4519 45.4949 25.9224 45.531 28.3878C45.531 28.9345 45.4434 29.1975 44.8348 29.115C44.4252 29.0686 44.0117 29.0686 43.6021 29.115C43.1379 29.1563 43.0244 28.9757 43.0244 28.5322C43.0244 25.8451 43.0244 23.1579 43.0244 20.476C43.0244 18.9287 42.9935 17.3814 42.8594 15.865C42.8594 15.5504 42.8594 15.4112 43.2101 15.4473H43.2771C43.927 15.5349 44.7935 15.1223 45.17 15.6329C45.5465 16.1435 45.3402 16.912 45.4176 17.7321Z" fill="#057A8E"></path><path d="M82.7234 14.6631C82.8266 14.8254 82.8618 15.0218 82.8214 15.2098C82.8214 19.6454 82.8214 24.0809 82.8214 28.5165C82.8214 28.991 82.7234 29.1715 82.2231 29.1251C81.6248 29.0684 80.8357 29.3108 80.4643 29.0065C80.093 28.7022 80.3457 27.877 80.3457 27.2787C80.3457 23.7508 80.3457 20.2282 80.3457 16.7004C80.3203 16.5114 80.3569 16.3193 80.4499 16.1529C80.5429 15.9864 80.6873 15.8546 80.8615 15.7771C81.4907 15.4419 82.1045 15.0396 82.7234 14.6631Z" fill="#057A8E"></path><path d="M82.8261 9.76343C82.8261 10.7176 82.8261 11.5738 82.8261 12.4299C82.8359 12.5039 82.8229 12.5791 82.7888 12.6455C82.7547 12.7118 82.7011 12.7662 82.6353 12.8013C81.8977 13.2345 81.1653 13.6781 80.3556 14.1629V11.4809C80.3425 11.4066 80.351 11.3301 80.3803 11.2606C80.4096 11.1911 80.4583 11.1315 80.5206 11.0889L82.8261 9.76343Z" fill="#057A8E"></path></svg>