<svg xmlns="http://www.w3.org/2000/svg" xmlns:xlink="http://www.w3.org/1999/xlink" viewBox="0 0 1657.38 431.58"><defs><style>.cls-1,.cls-3{fill:none;}.cls-2{clip-path:url(#clip-path);}.cls-3{stroke:#231f20;stroke-miterlimit:10;stroke-width:4px;}</style><clipPath id="clip-path" transform="translate(0 0)"><rect class="cls-1" width="1657.38" height="431.58"></rect></clipPath></defs><g id="Layer_2" data-name="Layer 2"><g id="Layer_1-2" data-name="Layer 1"><g class="cls-2"><path d="M379.47,109.18,378,295.57a59.53,59.53,0,0,1-29.63,51l-146.24,85,1.38-176.65a76.63,76.63,0,0,1,38.13-65.66l137.82-80.08Z" transform="translate(0 0)"></path><path d="M367.05,92.78,229.83,172.52a76.63,76.63,0,0,1-76.83.11L14.7,92.78,160.48,8.06A59.55,59.55,0,0,1,220.18,8l146.87,84.8Z" transform="translate(0 0)"></path><path d="M177.86,255.88l-1.38,175.7-146.7-84.7A59.57,59.57,0,0,1,0,294.84L1.46,109.18,139.54,188.9a76.64,76.64,0,0,1,38.32,67Z" transform="translate(0 0)"></path></g><path d="M531,220.09h2.44v50.17q0,14.46-15.75,14.45H480.46q-25.5,0-25.49-6.33v-4.55q4.21-7.95,48.71-34.59,27.26-15.41,27.27-19.15ZM470.54,172h.81q58,31.5,58,39v1q0,6.18-47.25,32.8-53.58-31.17-53.58-35.56l-.81-3.57q0-9.25,42.86-33.61Zm-33-43.68H487.1q14,0,16.56,6.33v1.79q0,9.09-40.59,31-32.15,20.29-38,26.3h-.81V147.34q0-19,13.31-19Z" transform="translate(0 0)"></path><path d="M642.17,46.36q47.9,24,47.9,37.35V240.24q0,10.88-10.72,10.88-8.45-.81-43.84-25.49l-.81-3.57V61q0-14.61,7.47-14.61ZM599.14,213q71.45,44.49,77,44.49v1q-48.71,32.64-55.37,32.64-5.85,0-63.65-37.18a13.37,13.37,0,0,1-2.6-7.31q0-9.57,44.66-33.61Zm18.19-87.36q9.9,0,11.53,20v36.37q0,5.69-17.21,13.64-51,31.34-58,38.16v1h-2.44V179.17q0-18.34,24.84-28.09l41.25-25.49Z" transform="translate(0 0)"></path><path d="M770.44,57.4V276.6q0,11.85-9.09,11.85-8.61,0-25.66-12.83-20.62-9.9-20.62-16.4v-170a37.22,37.22,0,0,1,3.25-14.61,195.53,195.53,0,0,1,45.46-28.25c4.45,1.3,6.66,5,6.66,11Z" transform="translate(0 0)"></path><path d="M867.38,123.81q54.55,31.5,54.56,36.37l.81,2.6q0,4.71-37.18,24.68Q880.38,192,874.85,192q-18.18-4.38-18.18-11.85V143.79q0-15.93,10.71-20ZM885.57,211q47.89,26.31,47.9,31.83-.16,9.09-53.75,39.13-9.09,7.31-16.56,7.31-8.45-2.28-53.58-32.64v-1q6.17,0,76-44.66Zm-33.94-81.83h.81v1l-1.62,5.36v84.6q0,6.5-19.81,15.59-17.21,13.63-27.28,13.64-7.47,0-8.28-11V175.61q0-16.23,23.22-25.49l33-21Z" transform="translate(0 0)"></path><path d="M681.65,336.77A19.29,19.29,0,0,0,679.4,329a17.13,17.13,0,0,0-4.83-5.54,22.1,22.1,0,0,0-6.89-3.35,29.77,29.77,0,0,0-8.43-1.16,23.21,23.21,0,0,0-11,2.51,24,24,0,0,0-8,6.7,30.19,30.19,0,0,0-4.89,9.53,36.46,36.46,0,0,0-1.67,11,46.9,46.9,0,0,0,1.55,12.36,28.14,28.14,0,0,0,4.76,9.85,22.1,22.1,0,0,0,8,6.5,25.42,25.42,0,0,0,11.2,2.32,23.18,23.18,0,0,0,8.56-1.55,22.87,22.87,0,0,0,7-4.25,22,22,0,0,0,5-6.5,26.35,26.35,0,0,0,2.57-8.31h4.9A31.16,31.16,0,0,1,684,369.72a25.8,25.8,0,0,1-6.18,7.79,26.93,26.93,0,0,1-8.5,4.83,32.95,32.95,0,0,1-23.88-1.23,26.52,26.52,0,0,1-9.4-7.79,33,33,0,0,1-5.41-11.27,50.39,50.39,0,0,1-1.74-13.33,42.16,42.16,0,0,1,2-13.13,32,32,0,0,1,5.86-10.82,27.73,27.73,0,0,1,9.53-7.34,29.9,29.9,0,0,1,13-2.7,36.55,36.55,0,0,1,10.11,1.35,26.06,26.06,0,0,1,8.37,4.06,21.26,21.26,0,0,1,6,6.89,24.56,24.56,0,0,1,2.83,9.72h-4.91v0Z" transform="translate(0 0)"></path><path d="M726.2,349.38a38.85,38.85,0,0,0,1.67,11.39,30.86,30.86,0,0,0,4.89,9.72,23.8,23.8,0,0,0,8,6.76,25.1,25.1,0,0,0,21.88,0,23.7,23.7,0,0,0,8-6.76,30.86,30.86,0,0,0,4.89-9.72,39.71,39.71,0,0,0,0-22.79,30.86,30.86,0,0,0-4.89-9.72,23.9,23.9,0,0,0-8-6.76,25.1,25.1,0,0,0-21.88,0,23.7,23.7,0,0,0-8,6.76,30.65,30.65,0,0,0-4.89,9.72,39.07,39.07,0,0,0-1.67,11.4Zm-4.89,0a43.3,43.3,0,0,1,2-13.33,33.44,33.44,0,0,1,5.86-11,27.72,27.72,0,0,1,9.53-7.53,31.91,31.91,0,0,1,26,0,28,28,0,0,1,9.53,7.53,33.44,33.44,0,0,1,5.86,11,43.56,43.56,0,0,1,2,13.33,44.13,44.13,0,0,1-2,13.39,32.57,32.57,0,0,1-5.86,11,28.29,28.29,0,0,1-9.53,7.47,31.91,31.91,0,0,1-26,0,28,28,0,0,1-9.53-7.47,32.48,32.48,0,0,1-5.86-11,44.13,44.13,0,0,1-2-13.39Z" transform="translate(0 0)"></path><path d="M824.19,331h.39a16.13,16.13,0,0,1,3.28-6.05,23,23,0,0,1,5.79-4.89,29,29,0,0,1,7.6-3.16,30.56,30.56,0,0,1,8.69-1v4.89a23.38,23.38,0,0,0-8.82.77,21.42,21.42,0,0,0-9.46,5.66,46.38,46.38,0,0,0-3.15,3.73,18.08,18.08,0,0,0-2.26,4,25.12,25.12,0,0,0-1.41,4.89,42.39,42.39,0,0,0-.65,6.44v36.18H819.3V316.29h4.89V331Z" transform="translate(0 0)"></path><path d="M911.17,379.77a24,24,0,0,0,11.17-2.45,22.18,22.18,0,0,0,7.75-6.57,28.71,28.71,0,0,0,4.52-9.59,45.5,45.5,0,0,0,.06-22.79,30.8,30.8,0,0,0-4.39-9.79,22.63,22.63,0,0,0-7.68-6.95A23,23,0,0,0,911.18,319,22.79,22.79,0,0,0,900,321.57a21.76,21.76,0,0,0-7.55,6.82,28.81,28.81,0,0,0-4.2,9.72,49.53,49.53,0,0,0-1.29,11.39,55.09,55.09,0,0,0,1.16,11.4,27.8,27.8,0,0,0,3.94,9.66,20.26,20.26,0,0,0,7.49,6.7,24.55,24.55,0,0,0,11.67,2.51Zm-24.4-48.28H887a25.3,25.3,0,0,1,2.58-5.41,22.76,22.76,0,0,1,4.78-5.47,25.39,25.39,0,0,1,16.78-5.86,29.12,29.12,0,0,1,13.23,2.83,26.79,26.79,0,0,1,9.29,7.6,32.82,32.82,0,0,1,5.49,11.07A48.15,48.15,0,0,1,941,349.51a50.21,50.21,0,0,1-1.81,13.91,30.49,30.49,0,0,1-5.49,10.88,25.1,25.1,0,0,1-9.29,7.14A31.42,31.42,0,0,1,911.17,384a29.72,29.72,0,0,1-14.72-3.6Q890,376.82,887,368.7h-.26v37.47H882V316.29h4.76v15.2Z" transform="translate(0 0)"></path><path d="M1033.37,141.51V102.85L1004.58,50.4H1018l12.84,25.14c3.51,6.9,6.22,12.44,9.06,18.79h.27c2.57-6,5.68-11.89,9.19-18.79l13.11-25.14h13.38l-30.55,52.32v38.8h-11.89Z" transform="translate(0 0)"></path><path d="M1082.84,108.93c0,14.33,8.25,25.14,19.87,25.14,11.35,0,19.87-10.68,19.87-25.41,0-11.09-5.54-25.14-19.6-25.14s-20.14,13-20.14,25.41Zm51.91-.67c0,24.2-16.76,34.74-32.58,34.74-17.71,0-31.36-13-31.36-33.66,0-21.9,14.33-34.74,32.44-34.74,18.8,0,31.5,13.65,31.5,33.66Z" transform="translate(0 0)"></path><path d="M1204.51,123.67c0,6.76.14,12.71.54,17.84h-10.54l-.68-10.68h-.27A24.62,24.62,0,0,1,1171.93,143c-10.27,0-22.57-5.68-22.57-28.66V76.08h11.9v36.23c0,12.44,3.79,20.82,14.6,20.82,8,0,13.52-5.54,15.68-10.81a17.31,17.31,0,0,0,1.08-6.08V76.09h11.9v47.58Z" transform="translate(0 0)"></path><path d="M1224.25,96.5c0-7.7-.14-14.33-.54-20.41h10.41l.41,12.84h.54c3-8.79,10.14-14.33,18.11-14.33a12.9,12.9,0,0,1,3.38.4V86.22a17.93,17.93,0,0,0-4.06-.4c-8.38,0-14.33,6.35-16,15.27a33.45,33.45,0,0,0-.54,5.54v34.88h-11.76v-45Z" transform="translate(0 0)"></path><polygon points="1030.39 179.49 1002.68 179.49 1002.68 169.49 1070.13 169.49 1070.13 179.5 1042.28 179.5 1042.28 260.61 1030.38 260.61 1030.38 179.49 1030.39 179.49 1030.39 179.49"></polygon><path d="M1111.77,221.53c.14-7.57-3.11-19.33-16.49-19.33-12,0-17.3,11.09-18.25,19.33Zm-34.87,8.52c.27,16.09,10.54,22.71,22.44,22.71,8.52,0,13.65-1.49,18.11-3.38l2,8.52c-4.19,1.89-11.36,4.05-21.76,4.05-20.14,0-32.17-13.25-32.17-33s11.63-35.28,30.69-35.28c21.36,0,27,18.79,27,30.82a43.49,43.49,0,0,1-.41,5.54Z" transform="translate(0 0)"></path><path d="M1184.64,258.17c-3.11,1.62-10,3.78-18.79,3.78-19.74,0-32.58-13.38-32.58-33.39s13.79-34.74,35.15-34.74a39.77,39.77,0,0,1,16.49,3.38l-2.7,9.19c-2.84-1.62-7.3-3.11-13.79-3.11-15,0-23.11,11.09-23.11,24.74,0,15.14,9.73,24.47,22.71,24.47a33.91,33.91,0,0,0,14.6-3.24l2,8.92Z" transform="translate(0 0)"></path><path d="M1198.56,164.62h11.9v40.82h.27a22,22,0,0,1,8.52-8.38,24.46,24.46,0,0,1,12.17-3.38c8.79,0,22.84,5.41,22.84,28v38.93h-11.9V223c0-10.55-3.92-19.47-15.14-19.47-7.71,0-13.79,5.41-16,11.9a14.33,14.33,0,0,0-.81,5.68v39.47h-11.9v-96Z" transform="translate(0 0)"></path><path d="M1273.59,212.88c0-6.76-.14-12.3-.54-17.71h10.54l.68,10.82h.27c3.24-6.22,10.81-12.3,21.63-12.3,9.06,0,23.11,5.41,23.11,27.85v39.07h-11.9V222.89c0-10.54-3.92-19.33-15.14-19.33a16.9,16.9,0,0,0-16,12.17,17.11,17.11,0,0,0-.81,5.54v39.34h-11.9V212.88Z" transform="translate(0 0)"></path><path d="M1355.92,228c0,14.33,8.25,25.14,19.87,25.14,11.35,0,19.87-10.68,19.87-25.41,0-11.09-5.54-25.14-19.6-25.14s-20.14,13-20.14,25.41Zm51.91-.67c0,24.2-16.76,34.74-32.58,34.74-17.71,0-31.36-13-31.36-33.66,0-21.9,14.33-34.74,32.44-34.74,18.79,0,31.5,13.65,31.5,33.66Z" transform="translate(0 0)"></path><polygon points="1422.84 164.62 1434.74 164.62 1434.74 260.6 1422.84 260.6 1422.84 164.62 1422.84 164.62"></polygon><path d="M1462,228c0,14.33,8.25,25.14,19.87,25.14,11.35,0,19.87-10.68,19.87-25.41,0-11.09-5.54-25.14-19.6-25.14S1462,215.59,1462,228Zm51.91-.67c0,24.2-16.76,34.74-32.58,34.74-17.71,0-31.36-13-31.36-33.66,0-21.9,14.33-34.74,32.44-34.74,18.79,0,31.5,13.65,31.5,33.66Z" transform="translate(0 0)"></path><path d="M1573,221a17,17,0,0,0-.68-5.41c-2.16-6.89-8-12.57-16.63-12.57-11.35,0-19.46,9.6-19.46,24.74,0,12.84,6.49,23.52,19.33,23.52a17.38,17.38,0,0,0,16.49-12.16,20.56,20.56,0,0,0,1-6.35V221Zm12.3-25.82c-.27,4.73-.54,10-.54,18v38c0,15-3,24.2-9.33,29.87-6.35,5.95-15.55,7.84-23.79,7.84-7.84,0-16.49-1.89-21.77-5.41l3-9.06a37,37,0,0,0,19.2,5.14c12.16,0,21.09-6.35,21.09-22.84v-7.3h-.27c-3.65,6.08-10.68,10.95-20.82,10.95-16.22,0-27.85-13.79-27.85-31.9,0-22.17,14.46-34.74,29.47-34.74,11.36,0,17.57,5.95,20.41,11.35h.27l.54-9.87Z" transform="translate(0 0)"></path><path d="M1608.85,195.17l14.33,38.66c1.49,4.32,3.11,9.46,4.19,13.38h.27c1.22-3.92,2.57-8.92,4.19-13.65l13-38.39h12.57l-17.84,46.64c-8.52,22.44-14.33,33.93-22.44,41a32.13,32.13,0,0,1-14.6,7.7l-3-10a31.69,31.69,0,0,0,10.41-5.81,36.12,36.12,0,0,0,10-13.25,8.58,8.58,0,0,0,1-2.84,10.45,10.45,0,0,0-.81-3.11l-24.2-60.29Z" transform="translate(0 0)"></path><path d="M1024.85,333.6a39.21,39.21,0,0,0,9.73.95c14.19,0,22.85-6.9,22.85-19.46,0-12-8.52-17.85-21.49-17.85a49.39,49.39,0,0,0-11.09.95V333.6Zm-11.76-43.94a135.88,135.88,0,0,1,22.58-1.76c11.62,0,20.14,2.7,25.55,7.57,5,4.32,8,10.95,8,19.06s-2.43,14.74-7,19.47c-6.22,6.62-16.36,10-27.85,10a40.79,40.79,0,0,1-9.46-.81v36.5h-11.76v-90Z" transform="translate(0 0)"></path><path d="M1115.56,346.3c-13-.27-27.71,2-27.71,14.73,0,7.7,5.14,11.35,11.22,11.35a16.29,16.29,0,0,0,15.82-10.95,12.26,12.26,0,0,0,.68-3.78V346.3Zm1.76,33.39-1-8.24H1116a24.36,24.36,0,0,1-20,9.73c-13.25,0-20-9.33-20-18.79,0-15.81,14.06-24.47,39.34-24.33v-1.35c0-5.41-1.49-15.14-14.87-15.14a32.53,32.53,0,0,0-17,4.87l-2.7-7.84c5.41-3.51,13.25-5.81,21.49-5.81,20,0,24.87,13.65,24.87,26.77V364a92.21,92.21,0,0,0,1.08,15.68h-10.8v0Z" transform="translate(0 0)"></path><path d="M1146.25,334.68c0-7.7-.14-14.33-.54-20.41h10.41l.41,12.84h.54c3-8.79,10.14-14.33,18.11-14.33a12.9,12.9,0,0,1,3.38.4V324.4a17.93,17.93,0,0,0-4.06-.4c-8.38,0-14.33,6.35-16,15.27a33.45,33.45,0,0,0-.54,5.54v34.88h-11.76v-45Z" transform="translate(0 0)"></path><path d="M1208,295.48v18.79h17v9.06h-17v35.28c0,8.11,2.3,12.71,8.92,12.71a26.63,26.63,0,0,0,6.89-.81l.54,8.92a29.05,29.05,0,0,1-10.54,1.62c-5.54,0-10-1.76-12.84-5-3.38-3.51-4.6-9.33-4.6-17V323.33h-10.14v-9.06h10.14V298.59l11.63-3.11Z" transform="translate(0 0)"></path><path d="M1238.44,332c0-6.76-.14-12.3-.54-17.71h10.54l.68,10.82h.27c3.24-6.22,10.81-12.3,21.63-12.3,9.06,0,23.11,5.41,23.11,27.85V379.7h-11.9V342c0-10.54-3.92-19.33-15.14-19.33a16.9,16.9,0,0,0-15.95,12.17,17.11,17.11,0,0,0-.81,5.54V379.7h-11.9V332Z" transform="translate(0 0)"></path><path d="M1355,340.63c.14-7.57-3.11-19.33-16.49-19.33-12,0-17.3,11.09-18.25,19.33Zm-34.88,8.51c.27,16.09,10.54,22.71,22.44,22.71,8.52,0,13.65-1.49,18.11-3.38l2,8.52c-4.19,1.89-11.36,4.05-21.76,4.05-20.14,0-32.17-13.25-32.17-33s11.63-35.28,30.69-35.28c21.36,0,27,18.79,27,30.82a43.49,43.49,0,0,1-.41,5.54Z" transform="translate(0 0)"></path><path d="M1381.2,334.68c0-7.7-.14-14.33-.54-20.41h10.41l.41,12.84h.54c3-8.79,10.14-14.33,18.11-14.33a12.9,12.9,0,0,1,3.38.4V324.4a17.93,17.93,0,0,0-4.06-.4c-8.38,0-14.33,6.35-16,15.27a33.45,33.45,0,0,0-.54,5.54v34.88H1381.2v-45Z" transform="translate(0 0)"></path><line class="cls-3" x1="969.98" y1="84.43" x2="969.98" y2="347.15"></line></g></g></svg>