<svg xmlns="http://www.w3.org/2000/svg" width="291" height="66" viewBox="0 0 291 66" fill="none"><path d="M58.212 16.938L57.9891 45.2009C57.9765 46.7692 57.5555 48.3071 56.7677 49.6632C55.9799 51.0192 54.8523 52.1466 53.4962 52.9343L31.3213 65.8231L31.5305 39.037C31.5463 37.0182 32.0878 35.0383 33.1016 33.2925C34.1155 31.5466 35.5667 30.095 37.3123 29.0808L58.2104 16.938H58.212Z" fill="white"></path><path d="M56.3284 14.4511L35.5213 26.5423C33.7527 27.5703 31.7442 28.1132 29.6985 28.1162C27.6529 28.1191 25.6428 27.5819 23.8713 26.559L2.90039 14.4511L25.0055 1.60468C26.3801 0.80654 27.941 0.385391 29.5306 0.383794C31.1201 0.382196 32.6818 0.800207 34.058 1.59558L56.3284 14.4541V14.4511Z" fill="white"></path><path d="M27.6417 39.1826L27.4324 65.8246L5.18778 52.9813C3.80467 52.1826 2.65805 51.0315 1.86479 49.6453C1.07153 48.2591 0.659997 46.6873 0.672136 45.0903L0.893521 16.938L21.8311 29.0262C23.6118 30.0542 25.0878 31.5362 26.1087 33.3211C27.1295 35.1059 27.6585 37.1296 27.6417 39.1856V39.1826Z" fill="white"></path><path d="M86.515 31.9875H86.9563V41.0603C86.9563 42.8037 86.0068 43.6747 84.108 43.6735H77.3752C74.3009 43.6735 72.7644 43.2919 72.7656 42.5288V41.7059C73.2731 40.7475 76.2094 38.6624 81.5744 35.4506C84.8609 33.5928 86.5048 32.4384 86.506 31.9875H86.515ZM75.5813 23.2908H75.7278C82.7203 27.0885 86.2166 29.4394 86.2166 30.3436V30.5245C86.2166 31.2695 83.3683 33.2467 77.6718 36.4561C71.2121 32.6982 67.9823 30.5546 67.9823 30.0253L67.8358 29.3797C67.8358 28.2645 70.4195 26.2385 75.5867 23.3016L75.5813 23.2908ZM69.6135 15.3916H78.576C80.2639 15.3916 81.2621 15.7732 81.5708 16.5363V16.86C81.5708 17.9559 79.124 19.8246 74.2304 22.4661C70.3543 24.9123 68.0637 26.4977 67.3584 27.2223H67.2119V18.8312C67.2119 16.5405 68.0142 15.3952 69.6189 15.3952L69.6135 15.3916Z" fill="white"></path><path d="M106.619 0.569824C112.394 3.4633 115.282 5.71478 115.282 7.32428V35.6315C115.282 36.9432 114.635 37.5991 113.343 37.5991C112.324 37.5014 109.682 35.9648 105.415 32.9894L105.268 32.3438V3.21735C105.268 1.45595 105.719 0.575249 106.619 0.575249V0.569824ZM98.8377 30.7054C107.452 36.0691 112.093 38.751 112.763 38.751V38.9319C106.89 42.867 103.552 44.8346 102.749 44.8346C102.044 44.8346 98.2071 42.5933 91.2387 38.1108C90.9547 37.7264 90.7911 37.2663 90.7685 36.7889C90.7685 35.6351 93.4606 33.6091 98.8449 30.7108L98.8377 30.7054ZM102.127 14.907C103.321 14.907 104.016 16.1126 104.212 18.5238V25.1011C104.212 25.7871 103.175 26.6093 101.1 27.5677C94.9514 31.3461 91.4551 33.6465 90.6112 34.4687V34.6495H90.1699V24.5875C90.1699 22.3764 91.6673 20.6831 94.662 19.5076L102.122 14.8979L102.127 14.907Z" fill="white"></path><path d="M129.816 2.56632V42.2069C129.816 43.6356 129.268 44.3499 128.172 44.3499C127.134 44.3499 125.587 43.5765 123.532 42.0297C121.046 40.8361 119.803 39.8475 119.803 39.0639V8.32072C119.818 7.4093 120.018 6.51043 120.39 5.67861C122.884 3.6069 125.65 1.88787 128.612 0.569824C129.416 0.804919 129.816 1.47403 129.816 2.55909V2.56632Z" fill="white"></path><path d="M147.347 14.5759C153.923 18.3736 157.212 20.566 157.214 21.1531L157.36 21.6233C157.36 22.1911 155.119 23.6789 150.636 26.0865C150.011 26.6338 149.364 26.9075 148.698 26.9075C146.506 26.3794 145.41 25.6651 145.41 24.7645V18.1891C145.41 16.2686 146.056 15.063 147.347 14.5723V14.5759ZM150.636 30.3435C156.41 33.5155 159.297 35.4342 159.299 36.0997C159.279 37.1956 156.039 39.5544 149.578 43.1761C148.483 44.0574 147.484 44.498 146.584 44.498C145.565 44.2231 142.335 42.2556 136.894 38.5953V38.4145C137.638 38.4145 142.219 35.7224 150.638 30.3381L150.636 30.3435ZM144.499 15.5452H144.645V15.726L144.352 16.6954V31.9946C144.352 32.7782 143.158 33.718 140.77 34.8139C138.695 36.4572 137.05 37.2794 135.836 37.2806C134.936 37.2806 134.437 36.6175 134.339 35.2913V23.9435C134.339 21.9868 135.739 20.4502 138.538 19.3338L144.506 15.5362L144.499 15.5452Z" fill="white"></path><path d="M113.759 53.0878C113.724 52.5959 113.586 52.117 113.352 51.6827C113.137 51.2895 112.839 50.9476 112.479 50.6808C112.102 50.4079 111.68 50.2028 111.233 50.075C110.737 49.9324 110.224 49.8618 109.708 49.8652C109.018 49.8506 108.335 50.0065 107.719 50.3191C107.154 50.612 106.66 51.0257 106.272 51.5308C105.877 52.0479 105.578 52.6316 105.388 53.2542C105.186 53.8979 105.084 54.5688 105.086 55.2435C105.08 55.9977 105.174 56.7494 105.366 57.4787C105.534 58.123 105.826 58.7282 106.227 59.26C106.61 59.7603 107.106 60.1631 107.674 60.4354C108.308 60.7273 109.001 60.8708 109.699 60.855C110.228 60.8601 110.754 60.765 111.247 60.5747C111.712 60.3967 112.141 60.1364 112.513 59.8061C112.886 59.4744 113.192 59.0757 113.417 58.6306C113.655 58.1589 113.812 57.6511 113.882 57.1278H114.768C114.69 57.7972 114.492 58.4471 114.184 59.0466C113.907 59.5842 113.527 60.0627 113.067 60.4553C112.612 60.8378 112.091 61.1339 111.529 61.3288C110.113 61.798 108.572 61.7186 107.211 61.1064C106.542 60.7754 105.96 60.293 105.511 59.6976C105.058 59.0868 104.726 58.395 104.533 57.6595C104.321 56.8736 104.215 56.0629 104.218 55.2489C104.212 54.4433 104.334 53.6418 104.58 52.8744C104.803 52.1598 105.163 51.4953 105.639 50.9177C106.11 50.3545 106.698 49.9014 107.363 49.5903C108.1 49.2534 108.903 49.0866 109.714 49.1021C110.332 49.0976 110.947 49.1798 111.542 49.3462C112.087 49.4982 112.599 49.7469 113.056 50.0804C113.503 50.4122 113.874 50.8374 114.141 51.3264C114.432 51.8704 114.606 52.4691 114.653 53.0842H113.765L113.759 53.0878Z" fill="white"></path><path d="M121.815 55.3687C121.813 56.0665 121.915 56.7607 122.117 57.4285C122.306 58.0621 122.605 58.6573 123.002 59.1862C123.387 59.6961 123.881 60.1137 124.448 60.4087C125.065 60.7074 125.741 60.8626 126.427 60.8626C127.112 60.8626 127.788 60.7074 128.405 60.4087C128.972 60.1142 129.467 59.6965 129.852 59.1862C130.248 58.6573 130.548 58.0621 130.736 57.4285C131.139 56.0842 131.139 54.6514 130.736 53.3071C130.548 52.6734 130.248 52.0782 129.852 51.5493C129.466 51.0398 128.972 50.6223 128.405 50.3268C127.788 50.0281 127.112 49.873 126.427 49.873C125.741 49.873 125.065 50.0281 124.448 50.3268C123.881 50.6213 123.387 51.039 123.002 51.5493C122.604 52.0778 122.305 52.6731 122.117 53.3071C121.915 53.9756 121.813 54.6703 121.815 55.3687ZM120.931 55.3687C120.925 54.5512 121.047 53.7378 121.293 52.958C121.518 52.2344 121.878 51.5596 122.352 50.9688C122.819 50.393 123.408 49.928 124.076 49.607C124.816 49.277 125.617 49.1064 126.427 49.1064C127.237 49.1064 128.038 49.277 128.778 49.607C129.445 49.9294 130.033 50.3942 130.501 50.9688C130.976 51.5596 131.335 52.2344 131.561 52.958C131.806 53.738 131.928 54.5512 131.922 55.3687C131.927 56.1896 131.805 57.0064 131.561 57.7901C131.339 58.5153 130.979 59.1907 130.501 59.7794C130.031 60.3488 129.443 60.8097 128.778 61.1303C128.038 61.4603 127.237 61.6309 126.427 61.6309C125.617 61.6309 124.816 61.4603 124.076 61.1303C123.41 60.8111 122.821 60.35 122.352 59.7794C121.874 59.1909 121.514 58.5154 121.293 57.7901C121.048 57.0064 120.926 56.1896 120.931 55.3687Z" fill="white"></path><path d="M139.537 52.0451H139.607C139.724 51.6419 139.926 51.2687 140.2 50.951C140.498 50.6003 140.852 50.3015 141.247 50.0666C141.676 49.8118 142.139 49.6194 142.622 49.4952C143.134 49.3599 143.664 49.299 144.193 49.3143V50.1987C143.658 50.1431 143.116 50.1903 142.598 50.3379C141.949 50.524 141.359 50.8769 140.888 51.3615C140.686 51.5762 140.496 51.8013 140.318 52.036C140.151 52.2588 140.014 52.5019 139.909 52.7594C139.794 53.0448 139.709 53.3411 139.654 53.6437C139.585 54.0283 139.546 54.4177 139.537 54.8083V61.3512H138.652V49.3849H139.537V52.0451Z" fill="white"></path><path d="M155.265 60.8648C155.965 60.882 156.658 60.73 157.285 60.4218C157.838 60.1395 158.318 59.7328 158.687 59.2336C159.065 58.7113 159.342 58.1232 159.504 57.4993C159.858 56.1487 159.861 54.7304 159.515 53.378C159.356 52.7459 159.087 52.1467 158.721 51.6075C158.362 51.0868 157.886 50.6566 157.332 50.3507C156.697 50.0165 155.985 49.8526 155.267 49.875C154.565 49.855 153.869 50.015 153.245 50.3398C152.699 50.6372 152.231 51.0599 151.88 51.5732C151.52 52.1071 151.263 52.7031 151.12 53.3309C150.963 54.0062 150.885 54.6974 150.887 55.3907C150.885 56.0833 150.956 56.7743 151.097 57.4523C151.222 58.0744 151.464 58.6671 151.81 59.1993C152.152 59.7105 152.618 60.1272 153.164 60.4109C153.819 60.7335 154.544 60.8894 155.274 60.8648H155.265ZM150.853 52.1338H150.894C151.011 51.7903 151.167 51.4619 151.361 51.1554C151.594 50.7815 151.886 50.4475 152.225 50.1662C153.076 49.4589 154.154 49.0826 155.26 49.1065C156.087 49.0869 156.906 49.2622 157.653 49.6182C158.309 49.9434 158.884 50.4133 159.333 50.9926C159.787 51.5911 160.124 52.2704 160.325 52.9946C160.548 53.7744 160.661 54.5815 160.66 55.3925C160.669 56.2422 160.559 57.089 160.333 57.908C160.137 58.624 159.8 59.2932 159.34 59.8756C158.889 60.4325 158.314 60.875 157.66 61.1668C156.905 61.4926 156.088 61.6506 155.265 61.6298C154.337 61.6464 153.42 61.4221 152.603 60.9787C151.826 60.5471 151.256 59.8419 150.894 58.8629H150.847V65.639H149.99V49.385H150.851V52.1338H150.853Z" fill="white"></path><path d="M177.365 17.7768V10.7855L172.158 1.30029H174.585L176.907 5.84666C177.542 7.09447 178.032 8.09634 178.546 9.24469H178.594C179.059 8.15963 179.622 7.09447 180.256 5.84666L182.627 1.30029H185.047L179.522 10.762V17.7786H177.372L177.365 17.7768Z" fill="white"></path><path d="M186.311 11.8856C186.311 14.477 187.803 16.4319 189.905 16.4319C191.957 16.4319 193.498 14.5005 193.498 11.8367C193.498 9.83119 192.496 7.29036 189.953 7.29036C187.411 7.29036 186.311 9.64131 186.311 11.8856ZM195.699 11.7644C195.699 16.1408 192.668 18.0468 189.807 18.0468C186.604 18.0468 184.136 15.6959 184.136 11.9597C184.136 7.99926 186.727 5.67725 190.002 5.67725C193.402 5.67725 195.699 8.14574 195.699 11.7644Z" fill="white"></path><path d="M208.314 14.5506C208.314 15.7731 208.34 16.8491 208.412 17.7768H206.506L206.383 15.8454H206.334C205.935 16.5258 205.363 17.0881 204.676 17.4748C203.989 17.8615 203.211 18.0587 202.422 18.0463C200.565 18.0463 198.341 17.0191 198.341 12.8634V5.94434H200.493V12.4962C200.493 14.7459 201.178 16.2614 203.133 16.2614C204.58 16.2614 205.578 15.2595 205.969 14.3065C206.099 13.9546 206.165 13.5822 206.164 13.207V5.94614H208.316V14.5506H208.314Z" fill="white"></path><path d="M211.884 9.63745C211.884 8.24496 211.858 7.04598 211.786 5.94646H213.669L213.743 8.26847H213.84C214.383 6.67887 215.674 5.677 217.116 5.677C217.322 5.67401 217.527 5.69834 217.727 5.74934V7.77839C217.486 7.72642 217.239 7.70215 216.993 7.70605C215.477 7.70605 214.401 8.8544 214.099 10.4675C214.039 10.7982 214.006 11.1333 214.001 11.4694V17.7771H211.875V9.63926L211.884 9.63745Z" fill="white"></path><path d="M176.827 24.6453H171.815V22.8369H184.013V24.6471H178.977V39.3152H176.825V24.6453H176.827Z" fill="white"></path><path d="M191.543 32.2482C191.568 30.8792 190.98 28.7525 188.561 28.7525C186.39 28.7525 185.432 30.7581 185.26 32.2482H191.543ZM185.237 33.789C185.286 36.6987 187.143 37.8959 189.295 37.8959C190.836 37.8959 191.763 37.6265 192.57 37.2847L192.932 38.8254C192.174 39.1672 190.877 39.5579 188.996 39.5579C185.354 39.5579 183.179 37.1617 183.179 33.5901C183.179 30.0184 185.282 27.21 188.729 27.21C192.592 27.21 193.611 30.608 193.611 32.7835C193.608 33.1187 193.583 33.4533 193.537 33.7854L185.237 33.789Z" fill="white"></path><path d="M204.721 38.874C204.158 39.1669 202.912 39.5575 201.322 39.5575C197.753 39.5575 195.431 37.1379 195.431 33.5192C195.431 29.9006 197.924 27.2368 201.787 27.2368C202.814 27.2254 203.83 27.4338 204.769 27.848L204.281 29.51C203.767 29.217 202.961 28.9475 201.787 28.9475C199.075 28.9475 197.608 30.9531 197.608 33.4216C197.608 36.1595 199.368 37.8468 201.715 37.8468C202.628 37.8504 203.53 37.6502 204.355 37.2608L204.717 38.874H204.721Z" fill="white"></path><path d="M207.239 21.9565H209.391V29.3384H209.439C209.803 28.7008 210.337 28.1763 210.98 27.823C211.648 27.4301 212.407 27.2193 213.181 27.2117C214.771 27.2117 217.311 28.1901 217.311 32.2753V39.3155H215.159V32.514C215.159 30.6061 214.451 28.993 212.421 28.993C211.027 28.993 209.928 29.9714 209.528 31.145C209.41 31.4741 209.361 31.8235 209.382 32.1722V39.3101H207.229V21.9492L207.239 21.9565Z" fill="white"></path><path d="M220.807 30.6833C220.807 29.4608 220.781 28.4589 220.709 27.4805H222.615L222.738 29.4372H222.787C223.373 28.3124 224.742 27.2129 226.698 27.2129C228.337 27.2129 230.878 28.1912 230.878 32.2493V39.3148H228.726V32.4935C228.726 30.5874 228.017 28.9978 225.988 28.9978C225.333 29.0065 224.699 29.225 224.178 29.6212C223.657 30.0174 223.277 30.5704 223.094 31.1986C222.991 31.5223 222.941 31.8608 222.948 32.2005V39.3148H220.796V30.6833H220.807Z" fill="white"></path><path d="M235.695 33.4183C235.695 36.0097 237.187 37.9646 239.288 37.9646C241.341 37.9646 242.882 36.0332 242.882 33.3694C242.882 31.3639 241.88 28.8231 239.337 28.8231C236.795 28.8231 235.695 31.174 235.695 33.4183ZM245.083 33.2971C245.083 37.6735 242.052 39.5796 239.191 39.5796C235.988 39.5796 233.52 37.2286 233.52 33.4924C233.52 29.532 236.111 27.21 239.386 27.21C242.784 27.21 245.083 29.6785 245.083 33.2971Z" fill="white"></path><path d="M247.797 21.9561H249.949V39.3133H247.797V21.9561Z" fill="white"></path><path d="M254.879 33.4183C254.879 36.0097 256.371 37.9646 258.472 37.9646C260.525 37.9646 262.065 36.0332 262.065 33.3694C262.065 31.3639 261.063 28.8231 258.521 28.8231C255.978 28.8231 254.879 31.174 254.879 33.4183ZM264.266 33.2971C264.266 37.6735 261.235 39.5796 258.374 39.5796C255.172 39.5796 252.703 37.2286 252.703 33.4924C252.703 29.532 255.295 27.21 258.57 27.21C261.968 27.21 264.266 29.6785 264.266 33.2971Z" fill="white"></path><path d="M274.952 32.1523C274.964 31.8217 274.923 31.4913 274.829 31.1739C274.439 29.9279 273.383 28.9007 271.822 28.9007C269.769 28.9007 268.303 30.6368 268.303 33.3748C268.303 35.6968 269.476 37.6282 271.798 37.6282C272.464 37.6248 273.112 37.41 273.648 37.0148C274.184 36.6196 274.581 36.0643 274.781 35.4291C274.901 35.0582 274.962 34.6707 274.961 34.2808V32.1523H274.952ZM277.177 27.4829C277.128 28.3383 277.079 29.2913 277.079 30.7381V37.6101C277.079 40.3227 276.537 41.9865 275.392 43.0118C274.243 44.0878 272.58 44.4296 271.09 44.4296C269.672 44.4296 268.107 44.0879 267.153 43.4513L267.695 41.8129C268.746 42.4336 269.947 42.755 271.167 42.7424C273.366 42.7424 274.981 41.594 274.981 38.6119V37.2918H274.932C274.272 38.3913 273.001 39.272 271.167 39.272C268.234 39.272 266.131 36.7782 266.131 33.5032C266.131 29.4939 268.746 27.2207 271.46 27.2207C273.515 27.2207 274.638 28.2967 275.151 29.2733H275.2L275.298 27.4884L277.177 27.4829Z" fill="white"></path><path d="M281.436 27.481L284.027 34.4723C284.297 35.2536 284.59 36.1831 284.785 36.892H284.834C285.055 36.1831 285.299 35.2789 285.592 34.4235L287.943 27.481H290.216L286.99 35.9154C285.449 39.9735 284.398 42.0514 282.932 43.33C282.188 44.0161 281.278 44.4961 280.291 44.7224L279.749 42.914C280.437 42.686 281.076 42.3295 281.631 41.8633C282.412 41.2158 283.031 40.3955 283.44 39.4672C283.53 39.308 283.591 39.1341 283.621 38.9536C283.601 38.7597 283.552 38.57 283.474 38.3912L279.098 27.4882L281.436 27.481Z" fill="white"></path><path d="M175.824 52.5149C176.401 52.6453 176.992 52.703 177.584 52.6867C180.15 52.6867 181.716 51.4389 181.716 49.1675C181.716 46.9974 180.175 45.9395 177.829 45.9395C177.157 45.921 176.484 45.9786 175.824 46.1113V52.5149ZM173.697 44.5687C175.047 44.3491 176.413 44.2427 177.781 44.2504C179.882 44.2504 181.423 44.7387 182.401 45.6194C183.305 46.4006 183.848 47.5996 183.848 49.0662C183.848 50.5328 183.408 51.7318 182.582 52.5872C181.457 53.7844 179.623 54.3956 177.546 54.3956C176.972 54.4136 176.397 54.3644 175.835 54.2492V60.8499H173.708V44.5741L173.697 44.5687Z" fill="white"></path><path d="M192.227 54.812C189.876 54.7631 187.216 55.1737 187.216 57.4758C187.216 58.8683 188.146 59.5283 189.245 59.5283C189.871 59.5448 190.485 59.3617 190.999 59.0057C191.514 58.6497 191.901 58.1392 192.106 57.5481C192.183 57.3281 192.224 57.0974 192.229 56.8645V54.812H192.227ZM192.546 60.8503L192.365 59.3602H192.307C191.887 59.9195 191.34 60.3708 190.711 60.6768C190.082 60.9828 189.389 61.1346 188.69 61.1197C186.294 61.1197 185.073 59.4325 185.073 57.7217C185.073 54.8626 187.616 53.2965 192.188 53.3218V53.0777C192.188 52.0993 191.918 50.3397 189.498 50.3397C188.412 50.3438 187.348 50.6486 186.424 51.2204L185.936 49.8026C186.914 49.1679 188.332 48.752 189.822 48.752C193.439 48.752 194.32 51.2204 194.32 53.5931V58.0129C194.304 58.9619 194.369 59.9106 194.515 60.8485H192.562L192.546 60.8503Z" fill="white"></path><path d="M197.778 52.7102C197.778 51.3177 197.753 50.1187 197.681 49.0192H199.563L199.637 51.3412H199.735C200.278 49.7516 201.569 48.7498 203.01 48.7498C203.216 48.7468 203.422 48.7711 203.621 48.8221V50.8511C203.38 50.7992 203.134 50.7749 202.887 50.7788C201.372 50.7788 200.296 51.9272 199.994 53.5403C199.933 53.8709 199.901 54.206 199.896 54.5421V60.8499H197.769V52.712L197.778 52.7102Z" fill="white"></path><path d="M208.946 45.6211V49.0191H212.02V50.6575H208.946V57.0377C208.946 58.5043 209.362 59.3362 210.559 59.3362C210.979 59.3419 211.398 59.2926 211.805 59.1897L211.902 60.8028C211.291 61.0172 210.644 61.1165 209.996 61.0957C208.995 61.0957 208.188 60.7775 207.674 60.1915C207.063 59.5568 206.843 58.5043 206.843 57.1172V50.6575H205.009V49.0191H206.843V46.1835L208.946 45.6211Z" fill="white"></path><path d="M214.45 52.2257C214.45 51.0032 214.425 50.0014 214.353 49.023H216.259L216.382 50.9797H216.43C217.016 49.8549 218.385 48.7554 220.342 48.7554C221.98 48.7554 224.521 49.7337 224.521 53.7918V60.8519H222.369V54.0342C222.369 52.1281 221.66 50.5385 219.631 50.5385C218.978 50.5491 218.346 50.7685 217.827 51.1646C217.308 51.5606 216.93 52.1125 216.747 52.7393C216.643 53.063 216.594 53.4015 216.6 53.7412V60.8519H214.448V52.2257H214.45Z" fill="white"></path><path d="M235.529 53.7862C235.554 52.4172 234.966 50.2905 232.547 50.2905C230.377 50.2905 229.418 52.296 229.246 53.7862H235.529ZM229.221 55.3251C229.27 58.2349 231.127 59.4321 233.279 59.4321C234.82 59.4321 235.748 59.1626 236.554 58.8208L236.916 60.3616C236.158 60.7034 234.862 61.094 232.981 61.094C229.339 61.094 227.163 58.6978 227.163 55.1262C227.163 51.5546 229.266 48.7461 232.713 48.7461C236.576 48.7461 237.596 52.1441 237.596 54.3196C237.593 54.6548 237.568 54.9895 237.522 55.3215L229.221 55.3251Z" fill="white"></path><path d="M240.268 52.7102C240.268 51.3177 240.242 50.1187 240.17 49.0192H242.052L242.127 51.3412H242.224C242.767 49.7516 244.058 48.7498 245.499 48.7498C245.705 48.7468 245.911 48.7711 246.111 48.8221V50.8511C245.869 50.7992 245.623 50.7749 245.376 50.7788C243.861 50.7788 242.785 51.9272 242.483 53.5403C242.423 53.8709 242.39 54.206 242.385 54.5421V60.8499H240.268V52.712V52.7102Z" fill="white"></path><path d="M165.901 7.45459V54.9654" stroke="white" stroke-miterlimit="10"></path></svg>