<svg xmlns="http://www.w3.org/2000/svg" width="499" height="259" viewBox="0 0 499 259" fill="none"><mask id="mask0_894_8065" style="mask-type:alpha" maskUnits="userSpaceOnUse" x="0" y="0" width="597" height="259"><rect width="597" height="259" fill="white"></rect></mask><g mask="url(#mask0_894_8065)"><g opacity="0.3"><path d="M531.171 324.48C530.94 325.649 530.313 326.703 529.395 327.459C528.478 328.216 527.328 328.63 526.14 328.629H266.694C265.936 328.629 265.188 328.461 264.503 328.136C263.818 327.811 263.213 327.337 262.732 326.749C262.251 326.161 261.906 325.473 261.721 324.735C261.536 323.997 261.517 323.227 261.664 322.48L313.245 62.3097C313.476 61.1396 314.103 60.0859 315.02 59.3287C315.938 58.5714 317.088 58.1576 318.276 58.1578H577.722C578.48 58.158 579.228 58.3268 579.913 58.6522C580.598 58.9776 581.203 59.4515 581.684 60.0397C582.165 60.628 582.51 61.316 582.695 62.0543C582.88 62.7926 582.899 63.5628 582.752 64.3096L531.171 324.48Z" fill="#0092FF"></path><path d="M526.121 329.18H266.675C265.836 329.18 265.008 328.994 264.249 328.634C263.491 328.274 262.822 327.75 262.289 327.099C261.757 326.448 261.375 325.687 261.171 324.869C260.966 324.052 260.945 323.2 261.108 322.374L312.709 62.201C312.967 60.9083 313.662 59.7451 314.677 58.9087C315.692 58.0722 316.963 57.6141 318.276 57.612H577.722C578.56 57.6124 579.388 57.7994 580.146 58.1596C580.904 58.5197 581.573 59.0439 582.105 59.6947C582.637 60.3454 583.019 61.1065 583.224 61.9232C583.428 62.7399 583.45 63.592 583.288 64.4182L531.697 324.586C531.439 325.881 530.743 327.046 529.726 327.884C528.71 328.721 527.436 329.179 526.121 329.18ZM318.276 58.7061C317.216 58.708 316.19 59.0776 315.371 59.7524C314.552 60.4272 313.991 61.3656 313.782 62.4087L262.198 322.586C262.067 323.253 262.084 323.941 262.249 324.601C262.415 325.26 262.723 325.874 263.153 326.4C263.582 326.925 264.123 327.348 264.734 327.639C265.346 327.93 266.015 328.081 266.692 328.081H526.121C527.181 328.079 528.208 327.708 529.027 327.032C529.846 326.356 530.407 325.415 530.615 324.371L582.208 64.2009C582.34 63.5338 582.322 62.8459 582.157 62.1865C581.992 61.5271 581.683 60.9127 581.254 60.3873C580.824 59.862 580.284 59.4387 579.672 59.148C579.06 58.8573 578.391 58.7064 577.714 58.7061H318.276Z" fill="white"></path><path d="M330.845 217.229H300.767C300.687 217.228 300.608 217.21 300.535 217.176C300.463 217.141 300.398 217.091 300.347 217.029C300.296 216.967 300.259 216.894 300.239 216.816C300.219 216.738 300.216 216.656 300.231 216.577L305.663 187.926C305.686 187.801 305.752 187.687 305.85 187.605C305.948 187.524 306.072 187.479 306.199 187.48H336.277C336.357 187.48 336.437 187.497 336.51 187.532C336.583 187.566 336.647 187.616 336.698 187.679C336.749 187.741 336.786 187.814 336.806 187.892C336.826 187.971 336.828 188.052 336.813 188.132L331.384 216.782C331.359 216.908 331.292 217.021 331.194 217.102C331.096 217.184 330.973 217.228 330.845 217.229ZM301.428 216.13H330.396L335.618 188.576H306.651L301.428 216.13Z" fill="white"></path><path d="M364.682 217.229H334.604C334.524 217.229 334.444 217.211 334.371 217.177C334.298 217.142 334.234 217.091 334.184 217.028C334.132 216.966 334.095 216.894 334.074 216.816C334.054 216.738 334.051 216.656 334.066 216.577L339.498 187.926C339.521 187.801 339.588 187.688 339.686 187.606C339.783 187.524 339.907 187.48 340.034 187.48H370.112C370.192 187.48 370.272 187.497 370.344 187.532C370.417 187.566 370.482 187.616 370.533 187.679C370.584 187.741 370.621 187.814 370.641 187.892C370.661 187.971 370.663 188.052 370.648 188.132L365.219 216.782C365.195 216.907 365.128 217.02 365.03 217.102C364.932 217.183 364.809 217.228 364.682 217.229ZM335.266 216.13H364.228L369.453 188.576H340.493L335.266 216.13Z" fill="white"></path><path d="M398.519 217.229H368.441C368.361 217.228 368.282 217.21 368.209 217.176C368.136 217.141 368.072 217.091 368.021 217.029C367.97 216.967 367.933 216.894 367.913 216.816C367.893 216.738 367.89 216.656 367.905 216.577L373.334 187.927C373.358 187.801 373.425 187.687 373.523 187.605C373.621 187.524 373.745 187.479 373.873 187.48H403.948C404.029 187.479 404.109 187.497 404.182 187.531C404.255 187.565 404.32 187.616 404.371 187.678C404.423 187.74 404.46 187.813 404.48 187.892C404.5 187.97 404.502 188.052 404.487 188.132L399.055 216.782C399.032 216.908 398.965 217.021 398.867 217.102C398.769 217.184 398.646 217.229 398.519 217.229ZM369.107 216.12H398.072L403.294 188.567H374.325L369.107 216.12Z" fill="white"></path><path d="M432.346 217.229H402.29C402.209 217.228 402.13 217.21 402.058 217.176C401.985 217.141 401.921 217.091 401.87 217.029C401.818 216.967 401.782 216.894 401.762 216.816C401.741 216.738 401.739 216.656 401.754 216.577L407.185 187.926C407.208 187.801 407.275 187.687 407.373 187.605C407.471 187.524 407.594 187.479 407.721 187.48H437.8C437.88 187.48 437.959 187.497 438.032 187.532C438.105 187.566 438.169 187.616 438.221 187.679C438.272 187.741 438.309 187.814 438.329 187.892C438.348 187.971 438.351 188.052 438.336 188.132L432.904 216.782C432.88 216.911 432.81 217.028 432.708 217.11C432.605 217.192 432.477 217.234 432.346 217.229ZM402.929 216.13H431.894L437.117 188.576H408.162L402.929 216.13Z" fill="white"></path><path d="M466.191 217.229H436.116C436.035 217.229 435.955 217.211 435.883 217.177C435.81 217.142 435.746 217.091 435.695 217.028C435.644 216.966 435.607 216.894 435.586 216.816C435.566 216.738 435.563 216.656 435.577 216.577L441.002 187.917C441.025 187.791 441.091 187.677 441.189 187.596C441.287 187.514 441.41 187.47 441.538 187.47H471.616C471.696 187.47 471.776 187.488 471.849 187.522C471.921 187.557 471.986 187.607 472.037 187.669C472.088 187.731 472.125 187.804 472.145 187.883C472.165 187.961 472.167 188.043 472.152 188.122L466.73 216.772C466.708 216.9 466.642 217.016 466.543 217.099C466.445 217.182 466.32 217.228 466.191 217.229ZM436.774 216.13H465.739L470.962 188.576H441.997L436.774 216.13Z" fill="white"></path><path d="M500.03 217.229H469.952C469.872 217.228 469.792 217.21 469.72 217.176C469.647 217.141 469.583 217.091 469.532 217.029C469.481 216.967 469.444 216.894 469.424 216.816C469.404 216.738 469.401 216.656 469.416 216.577L474.845 187.927C474.869 187.801 474.935 187.687 475.034 187.605C475.132 187.524 475.256 187.479 475.384 187.48H505.459C505.54 187.48 505.619 187.498 505.692 187.532C505.765 187.566 505.829 187.616 505.881 187.679C505.932 187.741 505.969 187.814 505.99 187.892C506.01 187.97 506.013 188.052 505.998 188.132L500.566 216.782C500.543 216.908 500.476 217.021 500.378 217.102C500.28 217.184 500.157 217.229 500.03 217.229ZM470.613 216.13H499.578L504.8 188.576H475.836L470.613 216.13Z" fill="white"></path><path d="M324.828 249.243H294.752C294.672 249.243 294.592 249.226 294.519 249.191C294.446 249.157 294.382 249.107 294.33 249.044C294.279 248.982 294.242 248.909 294.222 248.831C294.201 248.753 294.199 248.671 294.213 248.591L299.645 219.941C299.668 219.815 299.735 219.702 299.833 219.62C299.931 219.538 300.054 219.494 300.182 219.494H330.259C330.34 219.494 330.419 219.512 330.492 219.547C330.565 219.581 330.629 219.631 330.681 219.693C330.732 219.756 330.769 219.829 330.789 219.907C330.809 219.985 330.811 220.067 330.796 220.146L325.366 248.797C325.342 248.922 325.275 249.036 325.177 249.117C325.079 249.199 324.955 249.244 324.828 249.243ZM295.411 248.144H324.383L329.605 220.593H300.636L295.411 248.144Z" fill="white"></path><path d="M358.667 249.243H328.589C328.509 249.244 328.429 249.226 328.356 249.191C328.284 249.157 328.219 249.107 328.168 249.044C328.117 248.982 328.08 248.909 328.06 248.831C328.04 248.752 328.038 248.671 328.053 248.591L333.482 219.941C333.506 219.815 333.573 219.702 333.672 219.62C333.77 219.539 333.893 219.494 334.021 219.494H364.096C364.177 219.494 364.257 219.512 364.33 219.546C364.403 219.58 364.468 219.63 364.519 219.693C364.571 219.755 364.608 219.828 364.628 219.906C364.648 219.985 364.65 220.067 364.635 220.146L359.203 248.797C359.18 248.922 359.113 249.036 359.015 249.117C358.917 249.199 358.794 249.243 358.667 249.243ZM329.25 248.144H358.215L363.438 220.593H334.483L329.25 248.144Z" fill="white"></path><path d="M392.503 249.243H362.425C362.345 249.243 362.265 249.226 362.192 249.191C362.119 249.157 362.055 249.107 362.004 249.044C361.953 248.982 361.916 248.909 361.896 248.831C361.876 248.752 361.874 248.671 361.889 248.591L367.321 219.941C367.344 219.815 367.41 219.702 367.508 219.62C367.606 219.538 367.729 219.494 367.857 219.494H397.935C398.015 219.494 398.095 219.512 398.167 219.547C398.24 219.581 398.305 219.631 398.356 219.693C398.407 219.756 398.444 219.829 398.464 219.907C398.484 219.985 398.486 220.067 398.471 220.146L393.039 248.797C393.016 248.922 392.949 249.036 392.851 249.117C392.753 249.199 392.63 249.243 392.503 249.243ZM363.096 248.144H392.061L397.283 220.593H368.309L363.096 248.144Z" fill="white"></path><path d="M426.334 249.243H396.263C396.183 249.244 396.103 249.226 396.03 249.192C395.957 249.158 395.892 249.108 395.841 249.045C395.789 248.983 395.752 248.91 395.732 248.831C395.712 248.753 395.709 248.671 395.725 248.591L401.156 219.941C401.18 219.815 401.246 219.702 401.344 219.62C401.442 219.538 401.565 219.494 401.693 219.494H431.771C431.851 219.494 431.931 219.512 432.003 219.547C432.076 219.581 432.141 219.631 432.192 219.693C432.243 219.756 432.28 219.829 432.3 219.907C432.32 219.985 432.322 220.067 432.307 220.146L426.877 248.797C426.853 248.923 426.786 249.037 426.686 249.119C426.587 249.201 426.462 249.245 426.334 249.243ZM396.922 248.144H425.887L431.109 220.593H402.145L396.922 248.144Z" fill="white"></path><path d="M460.179 249.243H430.101C430.02 249.244 429.941 249.226 429.868 249.191C429.795 249.157 429.731 249.107 429.68 249.044C429.628 248.982 429.592 248.909 429.572 248.831C429.552 248.752 429.549 248.671 429.565 248.591L434.992 219.941C435.015 219.815 435.082 219.702 435.18 219.62C435.279 219.538 435.403 219.494 435.53 219.494H465.606C465.686 219.494 465.766 219.512 465.839 219.546C465.912 219.58 465.977 219.63 466.028 219.693C466.08 219.755 466.117 219.828 466.137 219.906C466.157 219.985 466.16 220.067 466.144 220.146L460.72 248.797C460.696 248.923 460.628 249.037 460.53 249.118C460.431 249.2 460.307 249.244 460.179 249.243ZM430.76 248.144H459.727L464.949 220.593H435.985L430.76 248.144Z" fill="white"></path><path d="M494.014 249.243H463.936C463.855 249.243 463.776 249.226 463.703 249.191C463.63 249.157 463.566 249.107 463.515 249.044C463.463 248.982 463.426 248.909 463.407 248.831C463.387 248.752 463.384 248.671 463.4 248.591L468.831 219.941C468.854 219.815 468.921 219.702 469.019 219.62C469.117 219.538 469.24 219.494 469.368 219.494H499.446C499.526 219.495 499.605 219.513 499.678 219.547C499.75 219.581 499.815 219.631 499.866 219.692C499.918 219.755 499.955 219.828 499.975 219.906C499.995 219.985 499.997 220.067 499.982 220.146L494.55 248.797C494.526 248.922 494.46 249.036 494.362 249.117C494.264 249.199 494.141 249.243 494.014 249.243ZM464.597 248.144H493.562L498.784 220.593H469.82L464.597 248.144Z" fill="white"></path><path d="M527.851 249.243H497.775C497.694 249.244 497.615 249.226 497.541 249.192C497.468 249.158 497.404 249.108 497.352 249.045C497.301 248.983 497.264 248.91 497.244 248.831C497.224 248.753 497.221 248.671 497.236 248.591L502.668 219.941C502.691 219.815 502.758 219.702 502.856 219.62C502.954 219.538 503.077 219.494 503.204 219.494H533.282C533.363 219.494 533.442 219.512 533.515 219.547C533.588 219.581 533.652 219.631 533.703 219.693C533.755 219.756 533.792 219.829 533.811 219.907C533.831 219.985 533.834 220.067 533.819 220.146L528.389 248.797C528.365 248.922 528.298 249.035 528.2 249.117C528.101 249.198 527.978 249.243 527.851 249.243ZM498.434 248.144H527.399L532.614 220.593H503.656L498.434 248.144Z" fill="white"></path><path d="M342.877 153.168H312.799C312.719 153.168 312.639 153.15 312.566 153.116C312.493 153.081 312.429 153.031 312.378 152.969C312.327 152.907 312.29 152.834 312.27 152.755C312.25 152.677 312.248 152.595 312.263 152.516L317.692 123.866C317.717 123.74 317.784 123.627 317.882 123.546C317.98 123.464 318.103 123.419 318.231 123.419H348.306C348.387 123.419 348.466 123.437 348.539 123.471C348.612 123.506 348.677 123.556 348.728 123.618C348.779 123.68 348.817 123.753 348.837 123.831C348.857 123.91 348.86 123.992 348.845 124.071L343.413 152.724C343.39 152.849 343.323 152.962 343.225 153.043C343.127 153.124 343.004 153.169 342.877 153.168ZM313.46 152.072H342.418L347.64 124.518H318.683L313.46 152.072Z" fill="white"></path><path d="M376.727 153.139H346.649C346.568 153.139 346.489 153.121 346.416 153.087C346.343 153.052 346.279 153.002 346.227 152.94C346.176 152.878 346.139 152.805 346.119 152.726C346.1 152.648 346.097 152.566 346.112 152.487L351.554 123.834C351.577 123.709 351.644 123.596 351.742 123.515C351.84 123.434 351.963 123.389 352.09 123.39H382.168C382.248 123.39 382.328 123.408 382.401 123.442C382.474 123.477 382.538 123.527 382.589 123.589C382.64 123.651 382.677 123.724 382.697 123.803C382.717 123.881 382.719 123.963 382.704 124.042L377.272 152.692C377.249 152.819 377.181 152.934 377.081 153.016C376.981 153.098 376.855 153.141 376.727 153.139ZM347.31 152.04H376.275L381.497 124.482H352.532L347.31 152.04Z" fill="white"></path><path d="M410.549 153.168H380.471C380.391 153.168 380.312 153.15 380.239 153.116C380.166 153.081 380.102 153.032 380.05 152.97C379.999 152.908 379.962 152.835 379.942 152.756C379.922 152.677 379.919 152.595 379.935 152.516L385.367 123.866C385.39 123.74 385.457 123.627 385.554 123.545C385.652 123.464 385.776 123.419 385.903 123.419H415.981C416.061 123.419 416.14 123.437 416.213 123.472C416.286 123.507 416.35 123.557 416.401 123.619C416.452 123.681 416.489 123.754 416.509 123.832C416.529 123.91 416.532 123.992 416.517 124.071L411.085 152.724C411.062 152.849 410.995 152.962 410.897 153.043C410.799 153.124 410.676 153.169 410.549 153.168ZM381.13 152.072H410.095L415.317 124.518H386.355L381.13 152.072Z" fill="white"></path><path d="M444.388 153.168H414.313C414.232 153.168 414.153 153.15 414.08 153.116C414.007 153.081 413.943 153.031 413.892 152.969C413.84 152.907 413.803 152.834 413.784 152.755C413.764 152.677 413.761 152.595 413.776 152.516L419.206 123.866C419.23 123.74 419.297 123.627 419.395 123.545C419.493 123.463 419.617 123.419 419.744 123.419H449.82C449.901 123.419 449.98 123.436 450.053 123.471C450.126 123.506 450.19 123.557 450.241 123.619C450.292 123.682 450.329 123.754 450.349 123.832C450.37 123.91 450.373 123.992 450.359 124.071L444.927 152.724C444.903 152.849 444.836 152.963 444.738 153.044C444.639 153.125 444.516 153.169 444.388 153.168ZM414.972 152.072H443.936L449.159 124.518H420.194L414.972 152.072Z" fill="white"></path><path d="M478.224 153.168H448.146C448.065 153.168 447.986 153.15 447.913 153.116C447.84 153.081 447.776 153.031 447.725 152.969C447.673 152.907 447.636 152.834 447.617 152.755C447.597 152.677 447.594 152.595 447.61 152.516L453.039 123.866C453.063 123.74 453.13 123.627 453.229 123.546C453.327 123.464 453.45 123.419 453.577 123.419H483.653C483.734 123.419 483.813 123.437 483.886 123.471C483.959 123.506 484.023 123.556 484.075 123.618C484.126 123.68 484.163 123.753 484.183 123.831C484.204 123.91 484.207 123.992 484.192 124.071L478.753 152.724C478.729 152.848 478.664 152.96 478.567 153.041C478.471 153.122 478.349 153.167 478.224 153.168ZM448.807 152.072H477.772L482.994 124.518H454.03L448.807 152.072Z" fill="white"></path><path d="M512.061 153.168H481.983C481.902 153.168 481.823 153.15 481.751 153.116C481.678 153.081 481.614 153.032 481.562 152.97C481.51 152.908 481.473 152.835 481.453 152.756C481.434 152.677 481.431 152.595 481.447 152.516L486.878 123.866C486.902 123.74 486.968 123.627 487.066 123.545C487.164 123.464 487.287 123.419 487.414 123.419H517.492C517.573 123.419 517.652 123.437 517.725 123.472C517.797 123.507 517.861 123.557 517.912 123.619C517.964 123.681 518.001 123.754 518.021 123.832C518.041 123.91 518.043 123.992 518.029 124.071L512.597 152.724C512.573 152.849 512.507 152.962 512.409 153.043C512.311 153.124 512.188 153.169 512.061 153.168ZM482.644 152.072H511.609L516.831 124.518H487.866L482.644 152.072Z" fill="white"></path><path d="M336.86 185.195H306.782C306.702 185.194 306.623 185.176 306.55 185.141C306.477 185.107 306.413 185.057 306.362 184.994C306.31 184.932 306.273 184.86 306.253 184.781C306.233 184.703 306.231 184.622 306.246 184.543L311.678 155.88C311.702 155.755 311.768 155.642 311.866 155.561C311.964 155.48 312.087 155.435 312.214 155.436H342.292C342.372 155.436 342.452 155.453 342.525 155.487C342.597 155.521 342.662 155.571 342.713 155.633C342.764 155.696 342.801 155.768 342.821 155.847C342.841 155.925 342.844 156.006 342.828 156.086L337.397 184.738C337.375 184.866 337.309 184.981 337.211 185.065C337.113 185.148 336.989 185.194 336.86 185.195ZM307.444 184.096H336.406L341.629 156.542H312.666L307.444 184.096Z" fill="white"></path><path d="M370.698 185.195H340.622C340.542 185.195 340.462 185.177 340.389 185.142C340.316 185.108 340.252 185.058 340.201 184.996C340.149 184.933 340.112 184.861 340.092 184.782C340.072 184.704 340.069 184.622 340.084 184.543L345.515 155.88C345.539 155.755 345.606 155.642 345.703 155.561C345.801 155.48 345.925 155.435 346.052 155.436H376.13C376.21 155.436 376.289 155.453 376.362 155.487C376.435 155.521 376.499 155.571 376.551 155.633C376.602 155.696 376.639 155.768 376.659 155.847C376.679 155.925 376.681 156.006 376.666 156.086L371.236 184.738C371.214 184.866 371.148 184.981 371.049 185.064C370.951 185.148 370.826 185.194 370.698 185.195ZM341.281 184.096H370.246L375.468 156.542H346.506L341.281 184.096Z" fill="white"></path><path d="M404.533 185.195H374.458C374.377 185.194 374.298 185.176 374.225 185.142C374.152 185.107 374.088 185.057 374.037 184.994C373.986 184.932 373.949 184.86 373.928 184.782C373.908 184.704 373.905 184.622 373.919 184.543L379.351 155.88C379.375 155.755 379.442 155.642 379.54 155.561C379.639 155.479 379.762 155.435 379.889 155.436H409.965C410.045 155.436 410.124 155.454 410.197 155.488C410.27 155.522 410.334 155.572 410.385 155.634C410.437 155.696 410.474 155.769 410.494 155.847C410.515 155.925 410.518 156.006 410.503 156.086L405.072 184.738C405.05 184.866 404.984 184.982 404.885 185.065C404.787 185.148 404.662 185.194 404.533 185.195ZM375.119 184.096H404.083L409.308 156.542H380.341L375.119 184.096Z" fill="white"></path><path d="M438.372 185.195H408.301C408.22 185.194 408.141 185.176 408.068 185.141C407.996 185.107 407.931 185.057 407.88 184.994C407.829 184.932 407.792 184.86 407.772 184.781C407.752 184.703 407.75 184.622 407.765 184.543L413.189 155.88C413.213 155.755 413.279 155.642 413.377 155.561C413.475 155.48 413.598 155.435 413.725 155.436H443.803C443.884 155.436 443.963 155.454 444.035 155.488C444.108 155.523 444.173 155.572 444.224 155.634C444.275 155.696 444.312 155.769 444.332 155.847C444.352 155.925 444.355 156.007 444.34 156.086L438.908 184.738C438.886 184.866 438.821 184.981 438.723 185.065C438.624 185.148 438.5 185.194 438.372 185.195ZM408.955 184.096H437.92L443.142 156.542H414.177L408.955 184.096Z" fill="white"></path><path d="M472.207 185.195H442.129C442.049 185.194 441.969 185.176 441.897 185.141C441.824 185.106 441.76 185.056 441.708 184.994C441.657 184.932 441.62 184.86 441.6 184.781C441.58 184.703 441.578 184.622 441.593 184.543L447.025 155.88C447.048 155.755 447.115 155.642 447.213 155.561C447.311 155.48 447.434 155.435 447.561 155.436H477.639C477.719 155.436 477.799 155.453 477.871 155.487C477.944 155.521 478.009 155.571 478.06 155.633C478.111 155.696 478.148 155.768 478.168 155.847C478.188 155.925 478.19 156.006 478.175 156.086L472.741 184.748C472.716 184.873 472.65 184.985 472.553 185.067C472.456 185.148 472.333 185.193 472.207 185.195ZM442.79 184.096H471.755L476.978 156.542H448.013L442.79 184.096Z" fill="white"></path><path d="M506.044 185.195H475.968C475.888 185.194 475.809 185.176 475.736 185.142C475.663 185.107 475.599 185.057 475.548 184.995C475.496 184.933 475.459 184.86 475.439 184.782C475.418 184.704 475.415 184.622 475.43 184.543L480.862 155.88C480.885 155.755 480.952 155.642 481.05 155.561C481.148 155.48 481.271 155.435 481.398 155.436H511.476C511.556 155.436 511.636 155.453 511.708 155.487C511.781 155.521 511.846 155.571 511.897 155.633C511.948 155.696 511.985 155.768 512.005 155.847C512.025 155.925 512.027 156.006 512.012 156.086L506.583 184.738C506.561 184.866 506.494 184.982 506.396 185.065C506.297 185.148 506.173 185.194 506.044 185.195ZM476.627 184.096H505.592L510.814 156.542H481.85L476.627 184.096Z" fill="white"></path><path d="M367.996 58.1989C367.924 58.1992 367.853 58.1852 367.786 58.1578C367.72 58.1304 367.659 58.0901 367.608 58.0391C367.558 57.9882 367.517 57.9276 367.49 57.861C367.462 57.7943 367.448 57.7228 367.448 57.6506C367.465 52.8525 365.872 48.1887 362.925 44.4124C362.845 44.2967 362.812 44.1548 362.833 44.0157C362.854 43.8766 362.928 43.7509 363.038 43.6644C363.149 43.5778 363.288 43.5371 363.427 43.5504C363.567 43.5637 363.696 43.6302 363.788 43.7361C366.884 47.706 368.559 52.6076 368.542 57.6506C368.542 57.796 368.484 57.9354 368.382 58.0383C368.28 58.1411 368.141 58.1989 367.996 58.1989Z" fill="white"></path><path d="M345.993 80.3012C342.445 80.3009 338.947 79.4597 335.784 77.846C332.621 76.2323 329.881 73.8916 327.788 71.0142C325.695 68.1368 324.307 64.8039 323.738 61.2864C323.168 57.7689 323.433 54.166 324.511 50.7706C325.588 47.3752 327.448 44.2832 329.94 41.7458C332.431 39.2084 335.483 37.2973 338.848 36.1678C342.213 35.0383 345.796 34.7222 349.305 35.2454C352.814 35.7685 356.151 37.116 359.045 39.1785C359.154 39.2662 359.226 39.3929 359.246 39.5325C359.266 39.672 359.231 39.8138 359.15 39.9286C359.069 40.0435 358.947 40.1226 358.809 40.1497C358.671 40.1769 358.528 40.15 358.41 40.0745C355.657 38.1122 352.482 36.8301 349.142 36.3324C345.803 35.8347 342.394 36.1354 339.193 37.2103C335.991 38.2851 333.087 40.1036 330.717 42.518C328.346 44.9323 326.577 47.8745 325.551 51.1052C324.526 54.3359 324.274 57.764 324.816 61.1109C325.358 64.4578 326.679 67.629 328.671 70.3667C330.662 73.1045 333.269 75.3315 336.279 76.8667C339.289 78.402 342.617 79.2022 345.993 79.2022C346.068 79.1972 346.143 79.2077 346.214 79.2331C346.284 79.2585 346.349 79.2981 346.404 79.3496C346.459 79.4011 346.502 79.4634 346.532 79.5326C346.562 79.6017 346.577 79.6763 346.577 79.7517C346.577 79.8271 346.562 79.9017 346.532 79.9708C346.502 80.04 346.459 80.1023 346.404 80.1538C346.349 80.2053 346.284 80.2449 346.214 80.2703C346.143 80.2957 346.068 80.3062 345.993 80.3012Z" fill="white"></path><path d="M397.48 58.1989C397.336 58.1989 397.197 58.1411 397.095 58.0383C396.992 57.9355 396.935 57.796 396.935 57.6506C396.949 52.7385 395.273 47.9723 392.191 44.1588C392.109 44.0443 392.075 43.9029 392.094 43.7637C392.113 43.6244 392.185 43.4978 392.294 43.4098C392.403 43.3218 392.541 43.2791 392.681 43.2903C392.82 43.3016 392.95 43.366 393.044 43.4704C396.253 47.4944 398.004 52.4949 398.01 57.6506C398.01 57.7931 397.954 57.9301 397.856 58.0324C397.757 58.1348 397.622 58.1945 397.48 58.1989Z" fill="white"></path><path d="M375.47 80.3012C371.953 80.3002 368.486 79.4731 365.344 77.8861C362.203 76.2991 359.475 73.9961 357.377 71.1611C355.28 68.326 353.872 65.0376 353.265 61.5584C352.658 58.0793 352.87 54.5058 353.883 51.1235C354.897 47.7412 356.683 44.6438 359.101 42.0787C361.518 39.5137 364.499 37.5521 367.806 36.3506C371.113 35.1492 374.653 34.7412 378.145 35.1592C381.637 35.5772 384.983 36.8097 387.915 38.7582C388.027 38.8429 388.102 38.9669 388.125 39.1051C388.148 39.2433 388.118 39.3853 388.041 39.502C387.964 39.6187 387.845 39.7015 387.709 39.7333C387.573 39.7652 387.43 39.7439 387.31 39.6736C384.519 37.8192 381.335 36.6462 378.013 36.2482C374.69 35.8502 371.321 36.2383 368.174 37.3814C365.028 38.5246 362.191 40.3911 359.891 42.8319C357.591 45.2727 355.891 48.2201 354.926 51.4386C353.962 54.6571 353.761 58.0575 354.339 61.368C354.916 64.6786 356.256 67.8076 358.253 70.5051C360.249 73.2025 362.845 75.3936 365.835 76.9033C368.824 78.413 372.124 79.1995 375.47 79.1998C375.609 79.2091 375.739 79.271 375.834 79.373C375.929 79.475 375.982 79.6095 375.982 79.7493C375.982 79.889 375.929 80.0235 375.834 80.1256C375.739 80.2276 375.609 80.2895 375.47 80.2988V80.3012Z" fill="white"></path><path d="M426.948 58.1989C426.876 58.1992 426.805 58.1852 426.738 58.1578C426.672 58.1304 426.611 58.0901 426.56 58.0391C426.509 57.9882 426.469 57.9277 426.442 57.861C426.414 57.7943 426.4 57.7228 426.4 57.6506C426.396 52.665 424.674 47.8345 421.526 43.9801C421.442 43.8665 421.405 43.725 421.422 43.5847C421.439 43.4445 421.51 43.3162 421.618 43.2265C421.727 43.1369 421.866 43.0926 422.006 43.1029C422.147 43.1133 422.278 43.1774 422.372 43.282C425.677 47.3351 427.485 52.4115 427.489 57.6506C427.489 57.7952 427.432 57.9339 427.331 58.0366C427.229 58.1393 427.092 58.1976 426.948 58.1989Z" fill="white"></path><path d="M404.934 80.3012C401.395 80.3008 397.906 79.4638 394.749 77.8577C391.591 76.2517 388.855 73.9218 386.76 71.0564C384.666 68.191 383.272 64.8706 382.692 61.3639C382.112 57.8571 382.361 54.2624 383.421 50.8706C384.48 47.4787 386.319 44.3849 388.789 41.8395C391.26 39.294 394.292 37.3683 397.641 36.2182C400.989 35.0681 404.56 34.7259 408.065 35.2191C411.57 35.7124 414.91 37.0274 417.815 39.0577C417.874 39.0989 417.924 39.1514 417.963 39.2121C418.001 39.2729 418.028 39.3407 418.04 39.4116C418.053 39.4826 418.052 39.5554 418.036 39.6259C418.021 39.6963 417.992 39.763 417.951 39.8221C417.91 39.8813 417.857 39.9317 417.797 39.9706C417.737 40.0095 417.669 40.036 417.598 40.0487C417.528 40.0614 417.455 40.0599 417.385 40.0445C417.315 40.029 417.249 39.9998 417.19 39.9586C414.426 38.0273 411.248 36.7765 407.914 36.3074C404.58 35.8382 401.182 36.1638 397.997 37.2579C394.811 38.3519 391.926 40.1837 389.576 42.6052C387.225 45.0266 385.475 47.9697 384.467 51.1964C383.459 54.4231 383.22 57.8428 383.772 61.1791C384.323 64.5154 385.648 67.6745 387.64 70.4011C389.632 73.1276 392.235 75.3451 395.238 76.874C398.241 78.403 401.56 79.2005 404.927 79.2022C405.002 79.1972 405.077 79.2078 405.147 79.2331C405.218 79.2585 405.283 79.2981 405.338 79.3496C405.392 79.4012 405.436 79.4634 405.466 79.5326C405.496 79.6017 405.511 79.6763 405.511 79.7517C405.511 79.8271 405.496 79.9017 405.466 79.9708C405.436 80.04 405.392 80.1023 405.338 80.1538C405.283 80.2053 405.218 80.245 405.147 80.2703C405.077 80.2957 405.002 80.3062 404.927 80.3012H404.934Z" fill="white"></path><path d="M456.422 58.1989C456.35 58.1992 456.279 58.1852 456.213 58.1578C456.147 58.1303 456.086 58.09 456.035 58.039C455.985 57.988 455.945 57.9274 455.917 57.8608C455.89 57.7941 455.876 57.7227 455.876 57.6506C455.874 52.5989 454.108 47.7082 450.885 43.8303C450.839 43.775 450.804 43.7111 450.783 43.6423C450.761 43.5735 450.754 43.5011 450.76 43.4293C450.767 43.3576 450.787 43.2878 450.82 43.224C450.854 43.1602 450.899 43.1036 450.954 43.0574C451.009 43.0113 451.073 42.9765 451.141 42.955C451.21 42.9336 451.282 42.9258 451.354 42.9324C451.425 42.9389 451.494 42.9594 451.558 42.9929C451.621 43.0264 451.678 43.0721 451.724 43.1274C455.111 47.2021 456.967 52.342 456.968 57.6506C456.968 57.7227 456.954 57.7941 456.927 57.8608C456.9 57.9274 456.86 57.988 456.809 58.039C456.758 58.09 456.698 58.1303 456.631 58.1578C456.565 58.1852 456.494 58.1992 456.422 58.1989Z" fill="white"></path><path d="M434.421 80.3012C430.896 80.3009 427.42 79.4705 424.272 77.8767C421.125 76.2828 418.393 73.9699 416.296 71.1236C414.199 68.2774 412.796 64.9769 412.199 61.4873C411.602 57.9977 411.828 54.4161 412.858 51.0299C413.888 47.6438 415.694 44.5474 418.132 41.9894C420.569 39.4314 423.569 37.4829 426.892 36.3004C430.215 35.118 433.767 34.7344 437.264 35.1805C440.761 35.6266 444.105 36.89 447.027 38.8693C447.092 38.9075 447.148 38.9586 447.192 39.0193C447.236 39.0801 447.267 39.1493 447.284 39.2226C447.3 39.2959 447.301 39.3718 447.287 39.4457C447.274 39.5196 447.245 39.5898 447.203 39.652C447.161 39.7143 447.107 39.7673 447.044 39.8077C446.981 39.8482 446.91 39.8752 446.836 39.8872C446.762 39.8991 446.687 39.8958 446.614 39.8773C446.542 39.8589 446.474 39.8257 446.414 39.7799C443.633 37.8968 440.451 36.6949 437.124 36.2706C433.797 35.8463 430.417 36.2114 427.256 37.3366C424.094 38.4619 421.24 40.3159 418.921 42.7499C416.602 45.1839 414.883 48.1301 413.903 51.352C412.923 54.5738 412.708 57.9817 413.277 61.3019C413.845 64.6222 415.18 67.7624 417.175 70.4705C419.17 73.1786 421.77 75.3792 424.765 76.8956C427.759 78.412 431.067 79.202 434.421 79.2022C434.559 79.2115 434.69 79.2734 434.785 79.3754C434.88 79.4775 434.933 79.612 434.933 79.7517C434.933 79.8914 434.88 80.026 434.785 80.128C434.69 80.23 434.559 80.2919 434.421 80.3012Z" fill="white"></path><path d="M485.899 58.1989C485.827 58.1992 485.756 58.1853 485.689 58.1578C485.623 58.1304 485.562 58.0901 485.511 58.0392C485.46 57.9882 485.42 57.9277 485.392 57.861C485.365 57.7943 485.351 57.7228 485.351 57.6506C485.369 52.7859 483.73 48.0611 480.708 44.2602C480.617 44.1462 480.576 44.0009 480.592 43.8561C480.609 43.7114 480.682 43.5792 480.795 43.4886C480.909 43.3979 481.054 43.3563 481.198 43.3728C481.342 43.3893 481.473 43.4627 481.564 43.5767C484.742 47.5709 486.466 52.537 486.447 57.6506C486.447 57.7228 486.433 57.7943 486.405 57.861C486.378 57.9277 486.337 57.9882 486.286 58.0392C486.235 58.0901 486.175 58.1304 486.109 58.1578C486.042 58.1853 485.971 58.1992 485.899 58.1989Z" fill="white"></path><path d="M463.895 80.3012C460.372 80.3006 456.899 79.4709 453.753 77.8788C450.607 76.2866 447.876 73.9762 445.779 71.1328C443.682 68.2895 442.278 64.9922 441.679 61.5053C441.079 58.0184 441.301 54.4389 442.327 51.0538C443.353 47.6687 445.154 44.5721 447.586 42.0123C450.019 39.4525 453.014 37.5007 456.332 36.3133C459.651 35.1259 463.2 34.736 466.696 35.1749C470.191 35.6137 473.536 36.8691 476.461 38.8403C476.582 38.9213 476.665 39.0472 476.693 39.1901C476.722 39.333 476.692 39.4813 476.611 39.6023C476.531 39.7234 476.405 39.8073 476.263 39.8356C476.121 39.8639 475.973 39.8343 475.853 39.7533C473.069 37.8776 469.887 36.6831 466.561 36.2654C463.235 35.8478 459.858 36.2187 456.701 37.3483C453.543 38.478 450.693 40.335 448.379 42.7706C446.065 45.2061 444.351 48.1524 443.375 51.3732C442.398 54.594 442.187 57.9998 442.757 61.3175C443.327 64.6352 444.664 67.7726 446.659 70.4781C448.654 73.1836 451.252 75.382 454.245 76.897C457.238 78.412 460.543 79.2015 463.895 79.2022C463.97 79.1972 464.045 79.2077 464.116 79.2331C464.187 79.2585 464.251 79.2981 464.306 79.3496C464.361 79.4011 464.404 79.4634 464.434 79.5326C464.464 79.6017 464.48 79.6763 464.48 79.7517C464.48 79.8271 464.464 79.9017 464.434 79.9708C464.404 80.04 464.361 80.1023 464.306 80.1538C464.251 80.2053 464.187 80.2449 464.116 80.2703C464.045 80.2957 463.97 80.3062 463.895 80.3012Z" fill="white"></path><path d="M493.371 80.3012C489.86 80.3023 486.398 79.48 483.259 77.8997C480.121 76.3194 477.393 74.0247 475.293 71.1985C473.193 68.3723 471.779 65.0926 471.164 61.6206C470.548 58.1486 470.748 54.5802 471.748 51.1997C472.748 47.8192 474.52 44.7198 476.923 42.1486C479.326 39.5773 482.293 37.6051 485.589 36.3891C488.884 35.1731 492.417 34.7469 495.905 35.1443C499.394 35.5418 502.742 36.752 505.682 38.6785C505.794 38.7622 505.87 38.8857 505.895 39.0238C505.919 39.1619 505.89 39.3041 505.814 39.4215C505.737 39.5389 505.619 39.6226 505.484 39.6555C505.348 39.6884 505.205 39.6681 505.084 39.5987C502.286 37.7682 499.101 36.619 495.783 36.2424C492.465 35.8659 489.105 36.2725 485.971 37.4298C482.837 38.5871 480.015 40.4632 477.73 42.9088C475.445 45.3544 473.76 48.302 472.808 51.517C471.857 54.7321 471.666 58.1258 472.25 61.4282C472.834 64.7305 474.177 67.8503 476.173 70.5394C478.169 73.2284 480.762 75.4124 483.746 76.9175C486.73 78.4227 490.023 79.2075 493.362 79.2095C493.5 79.2187 493.631 79.2806 493.726 79.3827C493.821 79.4847 493.874 79.6192 493.874 79.759C493.874 79.8987 493.821 80.0332 493.726 80.1352C493.631 80.2373 493.5 80.2992 493.362 80.3084L493.371 80.3012Z" fill="white"></path><path d="M346.418 84.3395C345.777 84.3387 345.143 84.2043 344.556 83.9449C343.969 83.6855 343.442 83.3067 343.009 82.8324C342.96 82.7793 342.923 82.7171 342.898 82.6494C342.874 82.5816 342.863 82.5097 342.866 82.4377C342.869 82.3657 342.886 82.2951 342.916 82.2298C342.947 82.1645 342.99 82.1058 343.042 82.0571C343.095 82.0084 343.157 81.9706 343.225 81.946C343.292 81.9213 343.364 81.9103 343.435 81.9134C343.507 81.9166 343.577 81.9338 343.642 81.9643C343.707 81.9947 343.766 82.0378 343.814 82.0909C344.307 82.63 344.954 83.0028 345.666 83.1583C346.379 83.3138 347.121 83.2443 347.793 82.9594C348.464 82.6745 349.031 82.1881 349.417 81.5668C349.802 80.9455 349.987 80.2197 349.946 79.4888C349.905 78.7579 349.64 78.0576 349.187 77.4838C348.735 76.91 348.117 76.4908 347.418 76.2835C346.719 76.0763 345.973 76.0912 345.283 76.3261C344.592 76.5611 343.991 77.0047 343.562 77.596C343.476 77.7136 343.348 77.7922 343.205 77.8146C343.061 77.8371 342.915 77.8014 342.798 77.7156C342.681 77.6298 342.603 77.5007 342.581 77.3569C342.558 77.2131 342.594 77.0663 342.679 76.9487C343.146 76.3066 343.769 75.7954 344.488 75.4639C345.208 75.1325 346 74.9919 346.789 75.0556C347.578 75.1193 348.337 75.3852 348.995 75.8278C349.652 76.2704 350.186 76.875 350.544 77.5838C350.903 78.2925 351.074 79.0819 351.043 79.8763C351.011 80.6707 350.777 81.4437 350.363 82.1214C349.949 82.799 349.369 83.3588 348.679 83.7471C347.988 84.1355 347.21 84.3394 346.418 84.3395Z" fill="white"></path><path d="M375.384 84.3395C374.743 84.3384 374.109 84.2039 373.521 83.9446C372.934 83.6852 372.407 83.3065 371.972 82.8324C371.874 82.7251 371.823 82.5831 371.829 82.4377C371.836 82.2923 371.899 82.1554 372.006 82.0571C372.113 81.9588 372.254 81.9071 372.399 81.9134C372.544 81.9198 372.68 81.9836 372.778 82.0909C373.27 82.6322 373.916 83.0075 374.628 83.1654C375.341 83.3233 376.084 83.2561 376.757 82.9729C377.43 82.6898 377.999 82.2046 378.387 81.5838C378.774 80.963 378.961 80.2371 378.922 79.5053C378.883 78.7736 378.62 78.0719 378.168 77.4964C377.717 76.921 377.099 76.4998 376.4 76.2908C375.7 76.0817 374.954 76.0949 374.263 76.3286C373.571 76.5622 372.969 77.0049 372.537 77.596C372.495 77.6542 372.442 77.7035 372.381 77.741C372.319 77.7785 372.251 77.8035 372.18 77.8146C372.109 77.8257 372.037 77.8227 371.967 77.8057C371.898 77.7887 371.832 77.7581 371.774 77.7156C371.716 77.6731 371.667 77.6196 371.63 77.558C371.592 77.4965 371.567 77.4281 371.556 77.3569C371.545 77.2857 371.548 77.213 371.565 77.143C371.582 77.0729 371.613 77.007 371.655 76.9487C372.122 76.3066 372.744 75.7954 373.464 75.4639C374.183 75.1325 374.975 74.9919 375.764 75.0556C376.553 75.1193 377.313 75.3852 377.97 75.8278C378.628 76.2704 379.161 76.875 379.52 77.5838C379.878 78.2925 380.05 79.0819 380.018 79.8763C379.987 80.6707 379.753 81.4437 379.339 82.1214C378.925 82.799 378.345 83.3588 377.654 83.7471C376.964 84.1355 376.185 84.3394 375.394 84.3395H375.384Z" fill="white"></path><path d="M404.352 84.3395C403.711 84.3384 403.076 84.2039 402.489 83.9446C401.902 83.6852 401.374 83.3065 400.94 82.8324C400.842 82.7251 400.791 82.5831 400.797 82.4377C400.803 82.2923 400.867 82.1554 400.974 82.0571C401.08 81.9588 401.222 81.9071 401.367 81.9134C401.511 81.9198 401.648 81.9836 401.746 82.0909C402.237 82.6322 402.884 83.0075 403.596 83.1654C404.308 83.3233 405.052 83.2561 405.725 82.9729C406.398 82.6898 406.967 82.2046 407.355 81.5838C407.742 80.963 407.929 80.2371 407.89 79.5053C407.851 78.7736 407.588 78.0719 407.136 77.4964C406.684 76.921 406.067 76.4998 405.367 76.2908C404.668 76.0817 403.922 76.0949 403.23 76.3286C402.539 76.5622 401.936 77.0049 401.505 77.596C401.463 77.6542 401.409 77.7035 401.348 77.741C401.287 77.7785 401.219 77.8035 401.148 77.8146C401.077 77.8257 401.005 77.8227 400.935 77.8057C400.865 77.7887 400.8 77.7581 400.742 77.7156C400.684 77.6731 400.635 77.6196 400.597 77.558C400.56 77.4965 400.535 77.4281 400.524 77.3569C400.513 77.2857 400.516 77.213 400.533 77.143C400.55 77.0729 400.58 77.007 400.623 76.9487C401.089 76.3066 401.712 75.7954 402.432 75.4639C403.151 75.1325 403.943 74.9919 404.732 75.0556C405.521 75.1193 406.28 75.3852 406.938 75.8278C407.595 76.2704 408.129 76.875 408.488 77.5838C408.846 78.2925 409.018 79.0819 408.986 79.8763C408.954 80.6707 408.72 81.4437 408.307 82.1214C407.893 82.799 407.313 83.3588 406.622 83.7471C405.931 84.1355 405.153 84.3394 404.362 84.3395H404.352Z" fill="white"></path><path d="M434.15 84.3395C433.508 84.3384 432.874 84.2039 432.287 83.9446C431.7 83.6852 431.172 83.3065 430.738 82.8324C430.64 82.7251 430.589 82.5831 430.595 82.4377C430.601 82.2923 430.665 82.1554 430.772 82.0571C430.878 81.9588 431.02 81.9071 431.164 81.9134C431.309 81.9198 431.446 81.9836 431.543 82.0909C432.035 82.6322 432.682 83.0075 433.394 83.1654C434.106 83.3233 434.85 83.2561 435.523 82.9729C436.196 82.6898 436.765 82.2046 437.152 81.5838C437.54 80.963 437.727 80.2371 437.688 79.5053C437.649 78.7736 437.385 78.0719 436.934 77.4964C436.482 76.921 435.864 76.4998 435.165 76.2908C434.466 76.0817 433.72 76.0949 433.028 76.3286C432.337 76.5622 431.734 77.0049 431.303 77.596C431.218 77.7136 431.089 77.7922 430.946 77.8146C430.803 77.8371 430.657 77.8014 430.54 77.7156C430.422 77.6298 430.344 77.5007 430.322 77.3569C430.3 77.2131 430.335 77.0663 430.421 76.9487C430.887 76.3066 431.51 75.7954 432.229 75.4639C432.949 75.1325 433.741 74.9919 434.53 75.0556C435.319 75.1193 436.078 75.3852 436.736 75.8278C437.393 76.2704 437.927 76.875 438.285 77.5838C438.644 78.2925 438.816 79.0819 438.784 79.8763C438.752 80.6707 438.518 81.4437 438.104 82.1214C437.691 82.799 437.111 83.3588 436.42 83.7471C435.729 84.1355 434.951 84.3394 434.16 84.3395H434.15Z" fill="white"></path><path d="M463.422 84.3395C462.78 84.3387 462.146 84.2043 461.559 83.9449C460.973 83.6855 460.446 83.3067 460.012 82.8324C459.96 82.78 459.919 82.7177 459.892 82.6492C459.865 82.5807 459.852 82.5073 459.853 82.4335C459.855 82.3598 459.872 82.2871 459.902 82.2199C459.932 82.1526 459.976 82.0922 460.03 82.0423C460.084 81.9924 460.147 81.9539 460.217 81.9292C460.286 81.9046 460.359 81.8942 460.433 81.8987C460.506 81.9033 460.578 81.9226 460.643 81.9557C460.709 81.9887 460.767 82.0347 460.815 82.0909C461.307 82.6322 461.953 83.0075 462.665 83.1654C463.378 83.3233 464.121 83.2561 464.794 82.9729C465.467 82.6898 466.036 82.2046 466.424 81.5838C466.812 80.963 466.999 80.2371 466.96 79.5053C466.92 78.7736 466.657 78.0719 466.205 77.4964C465.754 76.921 465.136 76.4998 464.437 76.2908C463.738 76.0817 462.991 76.0949 462.3 76.3286C461.608 76.5622 461.006 77.0049 460.574 77.596C460.489 77.7136 460.361 77.7922 460.217 77.8146C460.074 77.8371 459.928 77.8014 459.811 77.7156C459.694 77.6298 459.616 77.5007 459.593 77.3569C459.571 77.2131 459.607 77.0663 459.692 76.9487C460.159 76.3066 460.782 75.7954 461.501 75.4639C462.22 75.1325 463.012 74.9919 463.801 75.0556C464.59 75.1193 465.35 75.3852 466.007 75.8278C466.665 76.2704 467.198 76.875 467.557 77.5838C467.916 78.2925 468.087 79.0819 468.056 79.8763C468.024 80.6707 467.79 81.4437 467.376 82.1214C466.962 82.799 466.382 83.3588 465.691 83.7471C465.001 84.1355 464.223 84.3394 463.431 84.3395H463.422Z" fill="white"></path><path d="M494.093 84.3395C493.452 84.3384 492.818 84.2039 492.23 83.9446C491.643 83.6852 491.116 83.3065 490.681 82.8324C490.583 82.7251 490.532 82.5831 490.538 82.4377C490.545 82.2923 490.608 82.1554 490.715 82.0571C490.822 81.9588 490.963 81.9071 491.108 81.9134C491.253 81.9198 491.389 81.9836 491.487 82.0909C491.979 82.6322 492.625 83.0075 493.337 83.1654C494.05 83.3233 494.793 83.2561 495.466 82.9729C496.139 82.6898 496.708 82.2046 497.096 81.5838C497.483 80.963 497.671 80.2371 497.631 79.5053C497.592 78.7736 497.329 78.0719 496.877 77.4964C496.426 76.921 495.808 76.4998 495.109 76.2908C494.409 76.0817 493.663 76.0949 492.972 76.3286C492.28 76.5622 491.678 77.0049 491.246 77.596C491.161 77.7136 491.033 77.7922 490.889 77.8146C490.746 77.8371 490.6 77.8014 490.483 77.7156C490.366 77.6298 490.288 77.5007 490.265 77.3569C490.243 77.2131 490.278 77.0663 490.364 76.9487C490.831 76.3066 491.453 75.7954 492.173 75.4639C492.892 75.1325 493.684 74.9919 494.473 75.0556C495.262 75.1193 496.022 75.3852 496.679 75.8278C497.337 76.2704 497.87 76.875 498.229 77.5838C498.587 78.2925 498.759 79.0819 498.727 79.8763C498.696 80.6707 498.462 81.4437 498.048 82.1214C497.634 82.799 497.054 83.3588 496.363 83.7471C495.673 84.1355 494.894 84.3394 494.103 84.3395H494.093Z" fill="white"></path></g><path d="M172.737 85.9059V115.524C172.737 144.492 156.68 167.972 136.875 167.972C117.071 167.972 101.014 191.453 101.014 220.421C101.014 223 102.482 225.111 104.291 225.111L213.267 231.013C242.966 231.013 253.014 189.908 253.014 146.485V83.2694C253.014 65.9999 243.438 52 231.627 52H195.93C183.11 52.0134 172.737 67.1791 172.737 85.9059Z" fill="#0091FE"></path><path d="M213.473 232.77L104.043 226.839C101.823 226.839 100.05 224.454 100.05 221.406C100.05 191.952 116.535 167.991 136.798 167.991C156.243 167.991 172.059 144.697 172.059 116.064V86.3201C172.059 67.1437 182.824 51.5267 196.08 51.5267H231.903C244.149 51.5267 254.107 65.946 254.107 83.6724V147.156C254.114 172.886 250.164 232.77 213.473 232.77ZM196.08 53.0137C183.655 53.0137 173.539 67.9545 173.539 86.3201V116.064C173.539 145.518 157.054 169.478 136.791 169.478C117.349 169.478 101.53 192.773 101.53 221.406C101.53 223.546 102.697 225.356 104.077 225.356L213.507 231.287C248.805 231.287 252.62 172.439 252.62 147.14V83.6724C252.62 66.7669 243.321 53.0137 231.896 53.0137H196.08Z" fill="white"></path><path d="M178.545 213.937H169.909V320.134H178.545V213.937Z" fill="white"></path><path d="M178.549 320.878H169.91C169.712 320.878 169.523 320.799 169.384 320.66C169.244 320.52 169.166 320.331 169.166 320.134V213.937C169.166 213.74 169.244 213.551 169.384 213.412C169.523 213.272 169.712 213.194 169.91 213.194H178.549C178.746 213.194 178.935 213.272 179.075 213.412C179.214 213.551 179.292 213.74 179.292 213.937V320.134C179.292 320.331 179.214 320.52 179.075 320.66C178.935 320.799 178.746 320.878 178.549 320.878ZM170.656 319.391H177.806V214.681H170.656V319.391Z" fill="black"></path><path d="M163.766 180.126C163.766 180.126 100.8 163.399 62.0775 177.771C60.2062 178.47 58.5848 179.709 57.4197 181.331C56.2545 182.953 55.5981 184.885 55.5339 186.882C55.1336 198.684 59.3591 226.627 94.4553 276.123L114.278 275.372L95.875 211.478L172.466 220.938L163.766 180.126Z" fill="black"></path><path d="M234.93 182.36C234.93 182.36 243.96 193.18 239.64 214.936C238.952 218.432 237.187 221.625 234.592 224.066C231.998 226.508 228.705 228.076 225.174 228.552L154.524 225.097C154.524 225.097 183.87 277.916 181.707 306.199C181.707 306.199 174.027 313.093 164.512 316.036C164.512 316.036 125.756 254.349 109.527 221.678C107.903 218.44 107.446 214.741 108.234 211.205C109.021 207.669 111.005 204.513 113.85 202.27C123.455 194.778 141.632 185.428 172.577 185.351C224.296 185.22 234.93 182.36 234.93 182.36Z" fill="black"></path><path d="M159.665 233.824C159.531 233.824 159.4 233.788 159.285 233.72C159.17 233.652 159.076 233.554 159.012 233.437L147.701 212.78C147.606 212.607 147.584 212.403 147.639 212.214C147.694 212.024 147.823 211.864 147.996 211.769C148.169 211.674 148.373 211.652 148.562 211.707C148.752 211.762 148.912 211.89 149.007 212.063L160.314 232.723C160.361 232.809 160.391 232.903 160.402 233C160.413 233.097 160.405 233.195 160.378 233.289C160.351 233.383 160.305 233.47 160.244 233.546C160.183 233.623 160.107 233.686 160.021 233.733C159.912 233.793 159.789 233.824 159.665 233.824Z" fill="white"></path><path d="M108.75 212.181H108.673C108.575 212.172 108.48 212.143 108.393 212.097C108.306 212.051 108.229 211.988 108.166 211.912C108.104 211.836 108.057 211.749 108.028 211.654C108 211.56 107.99 211.461 108 211.364C109.494 197.298 130.251 191.979 131.136 191.76C131.326 191.717 131.525 191.751 131.69 191.853C131.855 191.955 131.974 192.118 132.021 192.307C132.067 192.496 132.038 192.695 131.939 192.863C131.841 193.03 131.68 193.153 131.493 193.203C131.287 193.254 110.859 198.492 109.48 211.522C109.46 211.702 109.374 211.868 109.24 211.989C109.105 212.111 108.931 212.179 108.75 212.181Z" fill="white"></path><path d="M117.275 103.636C114.768 102.963 104.723 174.151 68.8291 174.622L102.098 173.236C102.098 173.236 131.368 141.319 132.111 120.202C132.633 105.611 117.275 103.636 117.275 103.636Z" fill="white"></path><path d="M68.8291 175.362C68.6319 175.366 68.4412 175.292 68.2989 175.155C68.1567 175.019 68.0745 174.831 68.0705 174.634C68.0665 174.437 68.1409 174.246 68.2775 174.104C68.4141 173.962 68.6017 173.879 68.7988 173.875L70.3296 173.811C96.8704 171.924 108.632 129.77 113.709 111.572C115.831 103.959 116.249 102.627 117.409 102.903C118.388 103.051 133.363 105.547 132.848 120.222C132.104 141.37 103.841 172.422 102.64 173.714C102.574 173.786 102.494 173.845 102.405 173.887C102.316 173.928 102.22 173.952 102.122 173.956L70.4137 175.278C69.8922 175.312 69.364 175.336 68.8291 175.342V175.362ZM117.49 104.43C117.009 105.308 116.104 108.558 115.135 111.983C110.502 128.589 100.396 164.802 78.4341 173.485L101.752 172.513C104.363 169.61 130.685 139.859 131.358 120.182C131.825 107.384 119.63 104.766 117.49 104.43Z" fill="black"></path><path d="M167.066 83.3326C149.209 82.2022 125.218 84.8129 122.907 92.5675L105.749 116.006L120.437 144.011L134.433 132.949C137.827 144.203 140.253 152.327 140.253 152.327C140.253 152.327 138.494 185.795 165.028 188.803C191.562 191.81 235.913 185.566 235.913 185.566C235.913 185.566 223.452 86.9055 167.066 83.3326Z" fill="white"></path><path d="M181.923 190.357C176.256 190.398 170.591 190.127 164.954 189.543C138.897 186.589 139.439 154.766 139.516 152.421C139.217 151.412 137.04 144.142 134.046 134.211L120.925 144.593C120.84 144.661 120.74 144.709 120.634 144.734C120.528 144.759 120.417 144.761 120.31 144.738C120.203 144.716 120.102 144.67 120.015 144.604C119.928 144.538 119.856 144.454 119.805 144.357L105.117 116.35C105.052 116.227 105.023 116.088 105.033 115.95C105.043 115.811 105.092 115.678 105.174 115.566L122.244 92.2277C125.003 83.7969 150.09 81.5125 167.124 82.5925C190.479 84.0727 209.917 102.371 223.331 135.509C233.424 160.422 236.63 185.223 236.663 185.472C236.687 185.666 236.634 185.862 236.515 186.018C236.396 186.173 236.221 186.275 236.027 186.303C235.671 186.354 206.873 190.357 181.923 190.357ZM134.433 132.205C134.508 132.205 134.583 132.216 134.655 132.239C134.771 132.275 134.876 132.339 134.961 132.426C135.046 132.512 135.108 132.618 135.143 132.734C138.541 143.991 140.966 152.115 140.966 152.115C140.99 152.196 141 152.28 140.997 152.364C140.997 152.701 139.587 185.169 165.112 188.066C189.388 190.818 229.185 185.711 235.089 184.93C234.48 180.661 230.995 158.393 221.945 136.041C212.75 113.342 195.76 85.8962 167.033 84.0761C147.695 82.8515 125.652 86.0543 123.634 92.7795C123.61 92.8607 123.573 92.937 123.523 93.0049L106.651 116.07L120.707 142.87L133.982 132.354C134.112 132.255 134.27 132.203 134.433 132.205Z" fill="black"></path><path d="M134.395 133.4C134.217 133.4 134.044 133.335 133.909 133.218C133.774 133.1 133.686 132.938 133.662 132.761L129.894 106.27C129.88 106.173 129.886 106.075 129.91 105.98C129.935 105.886 129.977 105.797 130.036 105.719C130.095 105.641 130.168 105.575 130.253 105.525C130.337 105.475 130.43 105.443 130.527 105.429C130.623 105.415 130.722 105.421 130.816 105.445C130.911 105.47 131 105.512 131.078 105.571C131.156 105.63 131.222 105.703 131.272 105.788C131.321 105.872 131.354 105.965 131.368 106.062L135.132 132.552C135.146 132.649 135.142 132.747 135.118 132.842C135.094 132.936 135.051 133.025 134.993 133.103C134.934 133.182 134.861 133.247 134.777 133.297C134.693 133.347 134.6 133.379 134.503 133.393C134.468 133.399 134.431 133.401 134.395 133.4Z" fill="black"></path><path d="M158.252 78.6091L176.463 84.8331C149.151 93.015 136.841 86.384 136.841 86.384L143.96 83.0197L142.197 78.9355C140.401 79.79 138.705 80.7253 137.43 80.2038C134.48 78.996 132.872 74.0775 132.872 74.0775L131.526 74.2423C131.428 74.2564 131.329 74.2489 131.235 74.2204C131.141 74.1919 131.054 74.1431 130.981 74.0775C130.906 74.0129 130.846 73.9335 130.803 73.8443C130.761 73.7551 130.738 73.6581 130.735 73.5594C130.655 70.8679 130.755 68.8931 129.995 66.6222C129.235 64.3513 128.673 64.4085 127.977 58.9685L140.122 50.7664L146.295 59.8768C146.295 59.8768 147.351 57.4108 149.626 58.2519C151.278 58.8642 152.028 64.1192 150.484 65.1588L158.252 78.6091Z" fill="white"></path><path d="M151.547 89.6877C141.588 89.6877 136.804 87.2082 136.488 87.04C136.367 86.9743 136.267 86.8765 136.198 86.7574C136.13 86.6384 136.095 86.5027 136.099 86.3653C136.102 86.2279 136.144 86.0941 136.218 85.9787C136.293 85.8633 136.398 85.7707 136.522 85.7111L142.995 82.6429L141.82 79.9279C140.138 80.7387 138.554 81.4553 137.147 80.88C134.527 79.8035 132.925 76.2811 132.377 74.8748L131.63 74.969C131.429 74.9954 131.225 74.9791 131.031 74.9211C130.836 74.8631 130.657 74.7648 130.503 74.6326C130.351 74.5007 130.228 74.3387 130.142 74.1569C130.055 73.9751 130.008 73.7773 130.002 73.5762C130.002 73.1355 129.982 72.7116 129.971 72.3045C129.934 70.259 129.901 68.6442 129.299 66.851C129.11 66.2925 128.932 65.8754 128.76 65.4716C128.252 64.2874 127.775 63.1671 127.25 59.056C127.234 58.9181 127.258 58.7786 127.317 58.6532C127.377 58.5278 127.47 58.4215 127.586 58.3461L139.735 50.144C139.815 50.0893 139.906 50.051 140.001 50.0313C140.097 50.0117 140.195 50.0111 140.29 50.0295C140.386 50.048 140.477 50.0851 140.558 50.1388C140.64 50.1925 140.71 50.2617 140.764 50.3425L146.305 58.521C146.719 57.9896 147.295 57.6074 147.946 57.432C148.596 57.2566 149.286 57.2976 149.912 57.5488C151.176 58.0164 151.836 59.9273 152.031 61.5556C152.108 62.1982 152.256 64.136 151.436 65.2563L158.766 77.9901L176.711 84.1232C176.861 84.174 176.99 84.2709 177.08 84.4C177.171 84.529 177.218 84.6836 177.215 84.8412C177.212 84.9989 177.159 85.1515 177.064 85.277C176.968 85.4025 176.836 85.4945 176.684 85.5396C166.134 88.7053 157.814 89.6877 151.547 89.6877ZM138.685 86.3234C142.547 87.6691 153.989 90.3269 173.99 84.7691L158.013 79.3056C157.841 79.2474 157.697 79.1275 157.609 78.9691L149.871 65.512C149.778 65.3492 149.75 65.1571 149.792 64.9742C149.834 64.7914 149.944 64.6314 150.1 64.5263C150.456 64.2841 150.739 63.2209 150.557 61.7238C150.376 60.2267 149.814 59.0862 149.397 58.9315C147.802 58.3427 147.042 60.0787 147.008 60.1527C146.956 60.2753 146.871 60.3816 146.763 60.4602C146.655 60.5389 146.529 60.5871 146.396 60.5999C146.263 60.6126 146.129 60.5893 146.008 60.5326C145.888 60.4758 145.784 60.3876 145.71 60.2772L139.953 51.7824L128.804 59.3117C129.272 62.8441 129.679 63.7895 130.15 64.8762C130.335 65.3068 130.527 65.7542 130.732 66.3699C131.405 68.3885 131.438 70.1783 131.479 72.2641C131.479 72.6678 131.479 73.085 131.509 73.5224L132.801 73.3205C132.972 73.2994 133.146 73.3385 133.292 73.4311C133.438 73.5238 133.547 73.6642 133.601 73.8285C133.601 73.8722 135.139 78.4376 137.733 79.5007C138.581 79.8371 139.95 79.1878 141.4 78.4914L141.898 78.2492C141.988 78.2056 142.087 78.1807 142.188 78.1761C142.288 78.1716 142.388 78.1874 142.483 78.2226C142.577 78.2577 142.663 78.3116 142.736 78.3809C142.809 78.4503 142.867 78.5336 142.907 78.626L144.67 82.7102C144.746 82.8869 144.751 83.0862 144.683 83.2662C144.615 83.4463 144.48 83.5931 144.307 83.6758L138.685 86.3234Z" fill="black"></path><path d="M150.413 58.4167C150.413 58.4167 146.555 58.0803 146.827 59.8331C147.207 62.2789 147.688 62.7634 147.241 63.7323C147.102 63.9924 146.897 64.2114 146.646 64.3673C146.396 64.5232 146.109 64.6105 145.814 64.6205C144.681 64.6373 144.307 62.7365 142.299 60.6271C141.628 59.9171 140.872 59.2933 140.048 58.77C136.149 56.4487 131.728 61.6969 126.991 60.1897C123.839 59.1804 121.346 55.4427 121.965 52.9195C122.224 51.8631 123.109 50.6856 130.874 48.1321C138.733 45.5484 142.649 44.2565 145.004 45.4407C150.538 48.2263 150.43 57.7136 150.413 58.4167Z" fill="black"></path><path d="M142.198 79.6655C142.041 79.6637 141.89 79.6126 141.764 79.5195C141.638 79.4264 141.545 79.2961 141.498 79.1471C141.45 78.998 141.451 78.8378 141.5 78.6893C141.549 78.5408 141.644 78.4115 141.77 78.3198L144.882 76.1297C145.412 75.7581 145.828 75.2469 146.085 74.653C146.341 74.0591 146.428 73.4057 146.336 72.7654L146.215 71.9041C146.198 71.7145 146.255 71.5257 146.373 71.3766C146.491 71.2275 146.662 71.1295 146.851 71.1028C147.039 71.0761 147.231 71.1226 147.386 71.2329C147.541 71.3432 147.648 71.5088 147.685 71.6956L147.809 72.5534C147.942 73.4662 147.819 74.3979 147.453 75.2449C147.088 76.0918 146.495 76.8209 145.74 77.3509L142.625 79.5411C142.499 79.6266 142.35 79.6702 142.198 79.6655Z" fill="black"></path><path d="M215.748 113.736C215.748 113.736 214.486 150.817 206.018 165.239C195.902 182.461 144.879 159.264 144.879 159.264L138.945 155.9C136.961 154.772 134.763 154.069 132.492 153.837C130.222 153.606 127.928 153.85 125.757 154.554L120.542 156.237C120.279 156.321 119.996 156.316 119.737 156.222C119.478 156.127 119.258 155.95 119.111 155.716C118.964 155.483 118.899 155.208 118.926 154.933C118.953 154.659 119.071 154.401 119.26 154.201C122.18 151.096 126.719 146.689 130.82 144.468C133.969 142.766 138.046 144.367 141.498 146.557C147.506 150.314 154.502 152.183 161.583 151.923L181.802 151.318C183.455 151.266 185.031 150.608 186.23 149.468C187.428 148.328 188.164 146.786 188.298 145.138L191.357 102.294L215.748 113.736Z" fill="white"></path><path d="M190.552 172.355C172.167 172.355 146.087 160.63 144.573 159.944L138.578 156.536C136.683 155.46 134.585 154.79 132.417 154.568C130.249 154.346 128.059 154.578 125.985 155.247L120.771 156.93C120.351 157.065 119.898 157.057 119.484 156.907C119.069 156.757 118.716 156.473 118.481 156.1C118.246 155.727 118.141 155.286 118.184 154.847C118.227 154.409 118.415 153.997 118.718 153.676C121.793 150.41 126.328 146.043 130.466 143.802C133.366 142.231 137.195 142.944 141.905 145.915C147.784 149.599 154.636 151.429 161.569 151.167L181.788 150.561C183.257 150.514 184.656 149.93 185.722 148.919C186.787 147.908 187.444 146.541 187.568 145.077L190.616 102.25C190.625 102.129 190.663 102.013 190.727 101.91C190.791 101.807 190.879 101.722 190.983 101.661C191.087 101.6 191.205 101.565 191.326 101.56C191.447 101.555 191.567 101.579 191.676 101.631L216.067 113.069C216.199 113.131 216.31 113.23 216.386 113.353C216.462 113.477 216.499 113.621 216.494 113.766C216.441 115.29 215.128 151.204 206.661 165.623C203.754 170.562 197.739 172.355 190.552 172.355ZM130.81 153C133.79 152.998 136.72 153.771 139.311 155.244L145.246 158.608C145.69 158.807 195.71 181.304 205.375 164.852C213.13 151.644 214.795 118.61 214.984 114.19L192.019 103.424L189.039 145.188C188.885 147.017 188.065 148.725 186.735 149.988C185.404 151.252 183.656 151.983 181.822 152.041L161.603 152.647C154.367 152.92 147.217 151.01 141.081 147.166C138.198 145.333 134.133 143.489 131.156 145.104C127.193 147.251 122.786 151.496 119.785 154.689C119.705 154.768 119.655 154.873 119.645 154.985C119.634 155.097 119.664 155.209 119.728 155.301C119.782 155.398 119.869 155.473 119.973 155.511C120.078 155.549 120.192 155.549 120.296 155.51L125.511 153.828C127.223 153.275 129.011 152.996 130.81 153Z" fill="black"></path><path d="M175.45 83.4604C199.552 84.2174 219.135 98.5997 224.034 133.793L184.487 129.628L175.45 83.4604Z" fill="white"></path><path d="M224.033 134.537H223.956L184.409 130.369C184.251 130.352 184.103 130.285 183.986 130.178C183.869 130.071 183.79 129.929 183.76 129.773L181.617 118.836C181.579 118.642 181.619 118.441 181.729 118.278C181.839 118.114 182.01 118.001 182.204 117.963C182.397 117.925 182.598 117.965 182.762 118.076C182.926 118.186 183.039 118.356 183.077 118.55L185.112 128.949L223.162 132.952C218.647 102.566 202.156 86.0711 175.426 85.2301C175.329 85.227 175.233 85.2047 175.144 85.1644C175.055 85.1242 174.974 85.0669 174.908 84.9956C174.841 84.9244 174.789 84.8407 174.754 84.7493C174.72 84.6579 174.703 84.5606 174.706 84.463C174.71 84.3654 174.732 84.2693 174.772 84.1803C174.812 84.0912 174.87 84.011 174.941 83.9442C175.012 83.8773 175.096 83.8251 175.187 83.7906C175.279 83.7561 175.376 83.74 175.473 83.743C194.875 84.3553 219.179 93.4994 224.77 133.689C224.785 133.794 224.776 133.902 224.746 134.004C224.716 134.105 224.664 134.2 224.594 134.28C224.524 134.36 224.438 134.425 224.341 134.469C224.245 134.513 224.14 134.536 224.033 134.537Z" fill="black"></path><path d="M134.699 78.054C134.521 78.0534 134.35 77.9893 134.216 77.8732C134.081 77.7571 133.993 77.5968 133.966 77.4211C133.94 77.2455 133.977 77.0662 134.071 76.9157C134.166 76.7652 134.311 76.6535 134.48 76.6007L141.882 74.3298C143.615 73.7969 145.103 72.6661 146.08 71.1387C147.057 69.6113 147.46 67.7866 147.218 65.9897L146.699 62.0535C146.687 61.9565 146.694 61.858 146.719 61.7636C146.744 61.6692 146.788 61.5807 146.848 61.5033C146.908 61.4258 146.982 61.3608 147.067 61.3121C147.152 61.2633 147.245 61.2318 147.342 61.2192C147.439 61.2066 147.538 61.2132 147.632 61.2387C147.726 61.2642 147.815 61.308 147.892 61.3677C147.97 61.4273 148.035 61.5017 148.083 61.5865C148.132 61.6712 148.164 61.7648 148.176 61.8617L148.691 65.798C148.979 67.9458 148.494 70.126 147.324 71.9495C146.153 73.773 144.372 75.121 142.299 75.7529L134.898 78.0238C134.833 78.0422 134.766 78.0524 134.699 78.054Z" fill="black"></path><path d="M150.003 61.2966C149.846 61.2959 149.693 61.2458 149.566 61.1534C149.44 61.061 149.345 60.931 149.296 60.7818C149.243 60.6204 143.934 44.6333 136.115 46.8201C136.021 46.8464 135.923 46.8539 135.826 46.8421C135.729 46.8304 135.635 46.7997 135.55 46.7517C135.465 46.7038 135.39 46.6395 135.329 46.5626C135.269 46.4858 135.225 46.3978 135.198 46.3037C135.172 46.2095 135.165 46.1112 135.176 46.0142C135.188 45.9172 135.219 45.8235 135.267 45.7383C135.315 45.6532 135.379 45.5783 135.456 45.518C135.533 45.4577 135.621 45.4132 135.715 45.3869C144.886 42.8233 150.477 59.6043 150.709 60.3209C150.74 60.4137 150.752 60.5116 150.744 60.609C150.737 60.7064 150.711 60.8013 150.667 60.8885C150.623 60.9757 150.562 61.0533 150.488 61.117C150.414 61.1806 150.328 61.2291 150.235 61.2596C150.16 61.2833 150.082 61.2958 150.003 61.2966Z" fill="white"></path><path d="M133.931 78.1112C133.538 77.6385 133.347 77.0292 133.402 76.4165C133.456 75.8038 133.75 75.2374 134.221 74.8411C134.45 74.6418 134.716 74.4898 135.003 74.3937C135.291 74.2976 135.595 74.2594 135.898 74.2813C136.201 74.3032 136.496 74.3847 136.767 74.5212C137.038 74.6577 137.28 74.8465 137.477 75.0766C137.87 75.5492 138.06 76.1582 138.005 76.7704C137.95 77.3826 137.655 77.9482 137.185 78.3434C136.956 78.5428 136.691 78.695 136.403 78.7914C136.116 78.8877 135.812 78.9262 135.51 78.9046C135.207 78.883 134.912 78.8018 134.641 78.6656C134.37 78.5295 134.129 78.3411 133.931 78.1112Z" fill="black"></path><path d="M140.516 64.967C138.275 61.5119 139.015 57.0374 142.168 54.9717C142.837 54.5785 143.525 54.2192 144.23 53.8952C147.258 52.6706 149.949 54.4133 151.934 57.4882C154.084 60.8054 154.34 64.7618 151.5 66.9082C151.379 66.999 150.491 67.5272 150.35 67.581C146.676 69.4146 142.76 68.4322 140.516 64.967Z" fill="black"></path><path d="M151.259 65.9435C154.499 64.0218 155.423 59.5921 153.322 56.0496C151.221 52.507 146.891 51.193 143.651 53.1147C140.41 55.0365 139.486 59.4662 141.587 63.0088C143.688 66.5513 148.018 67.8653 151.259 65.9435Z" fill="white"></path><path d="M148.227 68.5567C147.65 68.5551 147.076 68.4885 146.514 68.3582C144.328 67.8247 142.442 66.4485 141.266 64.5296C138.881 60.691 139.813 55.7825 143.348 53.5486C144.16 53.0446 145.064 52.7071 146.007 52.5557C146.95 52.4044 147.914 52.4423 148.842 52.6672C151.028 53.2005 152.914 54.5753 154.091 56.4924C156.476 60.3344 155.541 65.2597 152.008 67.4767C150.875 68.1863 149.564 68.5607 148.227 68.5567ZM147.13 53.9557C146.073 53.9513 145.036 54.2464 144.139 54.8069C141.296 56.5899 140.576 60.6002 142.531 63.7458C143.498 65.3278 145.05 66.4642 146.851 66.9082C147.589 67.0892 148.356 67.1211 149.107 67.0021C149.858 66.8831 150.578 66.6156 151.224 66.2151C154.067 64.4321 154.787 60.4252 152.832 57.2796C151.866 55.6961 150.314 54.5583 148.513 54.1138C148.063 54.0139 147.604 53.9643 147.143 53.9658L147.13 53.9557Z" fill="black"></path><path d="M150.131 174.064H67.5343C66.8449 174.064 66.2861 174.623 66.2861 175.312V181.297C66.2861 181.986 66.8449 182.545 67.5343 182.545H150.131C150.82 182.545 151.379 181.986 151.379 181.297V175.312C151.379 174.623 150.82 174.064 150.131 174.064Z" fill="white"></path><path d="M150.131 183.289H67.5346C67.0067 183.288 66.5006 183.078 66.1273 182.704C65.754 182.331 65.5439 181.825 65.543 181.297V175.312C65.5439 174.784 65.754 174.278 66.1273 173.905C66.5006 173.531 67.0067 173.321 67.5346 173.32H150.131C150.393 173.32 150.652 173.372 150.893 173.472C151.135 173.572 151.354 173.719 151.539 173.904C151.724 174.089 151.871 174.308 151.971 174.55C152.071 174.791 152.123 175.05 152.123 175.312V181.297C152.122 181.825 151.912 182.331 151.538 182.704C151.165 183.078 150.659 183.288 150.131 183.289ZM67.5346 174.807C67.4008 174.807 67.2724 174.861 67.1778 174.955C67.0832 175.05 67.03 175.178 67.03 175.312V181.297C67.03 181.431 67.0832 181.559 67.1778 181.654C67.2724 181.748 67.4008 181.802 67.5346 181.802H150.131C150.265 181.802 150.393 181.748 150.488 181.654C150.583 181.559 150.636 181.431 150.636 181.297V175.312C150.636 175.178 150.583 175.05 150.488 174.955C150.393 174.861 150.265 174.807 150.131 174.807H67.5346Z" fill="black"></path><path d="M50.6626 165.135L157.044 165.364C157.252 165.376 157.46 165.342 157.654 165.266C157.848 165.189 158.022 165.072 158.166 164.921C158.31 164.77 158.419 164.59 158.486 164.393C158.553 164.196 158.577 163.986 158.555 163.779L153.774 98.8857C153.657 97.3044 152.18 95.8141 150.558 95.8141L45.6162 95.9083L50.6626 165.135Z" fill="black"></path><path d="M48.4757 165.054H152.688C152.896 165.065 153.104 165.031 153.298 164.953C153.491 164.876 153.666 164.758 153.809 164.607C153.953 164.455 154.062 164.275 154.129 164.077C154.196 163.88 154.22 163.67 154.198 163.463L149.488 99.1548C149.357 97.3684 147.624 95.7905 145.787 95.7905H42.9246C42.7164 95.7797 42.5083 95.8141 42.3146 95.8914C42.1209 95.9686 41.9463 96.087 41.8028 96.2382C41.6592 96.3894 41.5501 96.57 41.483 96.7674C41.4159 96.9648 41.3924 97.1744 41.4141 97.3818L46.225 163.005C46.2971 163.558 46.5628 164.067 46.9749 164.442C47.387 164.817 47.9188 165.034 48.4757 165.054Z" fill="white"></path><path d="M152.688 165.798H48.4759C47.7281 165.783 47.0114 165.496 46.4602 164.991C45.9089 164.485 45.561 163.796 45.4817 163.053L40.6708 97.4289C40.6437 97.1244 40.6802 96.8177 40.7781 96.5281C40.876 96.2385 41.0331 95.9724 41.2393 95.7468C41.4552 95.5187 41.7163 95.3384 42.006 95.2173C42.2957 95.0962 42.6075 95.037 42.9215 95.0437H145.791C147.995 95.0437 150.067 96.9411 150.225 99.1043L154.935 163.413C154.962 163.717 154.926 164.024 154.828 164.313C154.73 164.603 154.573 164.869 154.367 165.095C154.151 165.322 153.89 165.502 153.601 165.623C153.312 165.744 153.001 165.803 152.688 165.798ZM42.9248 96.5273C42.8151 96.5222 42.7056 96.5399 42.6031 96.5793C42.5006 96.6186 42.4074 96.6788 42.3293 96.7561C42.2636 96.8328 42.2144 96.9224 42.1849 97.0191C42.1553 97.1157 42.1461 97.2175 42.1578 97.3179L46.9687 162.945C47.0236 163.312 47.2041 163.649 47.4795 163.898C47.755 164.147 48.1083 164.293 48.4793 164.311H152.691C152.801 164.316 152.91 164.298 153.013 164.259C153.115 164.219 153.209 164.159 153.287 164.082C153.352 164.005 153.402 163.916 153.431 163.819C153.461 163.722 153.47 163.621 153.458 163.52L148.748 99.2086C148.644 97.8057 147.238 96.5172 145.798 96.5172L42.9248 96.5273Z" fill="black"></path><path d="M111.993 180.903H96.0464L92.0664 137.548C92.0501 137.432 92.0594 137.314 92.0938 137.202C92.1282 137.089 92.1867 136.986 92.2653 136.899C92.344 136.812 92.4407 136.744 92.5488 136.698C92.6568 136.653 92.7735 136.632 92.8907 136.636H106.143C106.641 136.644 107.118 136.838 107.48 137.18C107.842 137.522 108.064 137.986 108.101 138.483L111.993 180.903Z" fill="black"></path><path d="M109.49 180.9H93.5399L89.6172 137.531H105.564L109.49 180.9Z" fill="white"></path><path d="M109.49 181.644H93.54C93.355 181.644 93.1767 181.575 93.0398 181.45C92.903 181.326 92.8174 181.155 92.7998 180.971L88.8771 137.602C88.8677 137.499 88.8799 137.395 88.9129 137.297C88.9458 137.199 88.9988 137.11 89.0684 137.033C89.138 136.957 89.2228 136.896 89.3173 136.854C89.4118 136.813 89.514 136.791 89.6172 136.791H105.564C105.749 136.791 105.928 136.86 106.065 136.984C106.203 137.108 106.289 137.279 106.307 137.464L110.23 180.836C110.24 180.939 110.228 181.043 110.194 181.141C110.161 181.239 110.108 181.329 110.038 181.405C109.968 181.48 109.883 181.54 109.789 181.581C109.695 181.622 109.593 181.643 109.49 181.644ZM94.2195 180.157H108.686L104.884 138.275H90.4179L94.2195 180.157Z" fill="black"></path><path d="M82.5119 181.714H125.467C125.98 181.714 126.396 181.298 126.396 180.786V175.05C126.396 174.537 125.98 174.121 125.467 174.121H82.5119C81.9991 174.121 81.5833 174.537 81.5833 175.05V180.786C81.5833 181.298 81.9991 181.714 82.5119 181.714Z" fill="black"></path><path d="M79.3294 181.048H124.142V174.787H79.3294V181.048Z" fill="white"></path><path d="M124.141 181.808H79.3324C79.2344 181.808 79.1375 181.789 79.0471 181.751C78.9566 181.714 78.8746 181.659 78.8055 181.589C78.7364 181.52 78.6816 181.438 78.6445 181.347C78.6073 181.256 78.5884 181.159 78.5889 181.062V174.801C78.5889 174.603 78.6672 174.414 78.8067 174.275C78.9461 174.135 79.1352 174.057 79.3324 174.057H124.141C124.239 174.057 124.336 174.076 124.426 174.113C124.517 174.15 124.599 174.205 124.668 174.274C124.737 174.343 124.792 174.425 124.829 174.516C124.866 174.606 124.885 174.703 124.885 174.801V181.062C124.885 181.159 124.866 181.256 124.829 181.347C124.792 181.438 124.737 181.52 124.668 181.589C124.599 181.659 124.517 181.714 124.427 181.751C124.336 181.789 124.239 181.808 124.141 181.808ZM80.0692 180.318H123.398V175.544H80.0759L80.0692 180.318Z" fill="black"></path><path d="M241.709 336C241.518 335.996 241.336 335.919 241.203 335.788C241.07 335.656 240.997 335.479 241 335.296L243.557 206.679C243.563 206.496 243.643 206.323 243.78 206.196C243.917 206.07 244.101 205.999 244.291 206C244.483 206.004 244.665 206.081 244.798 206.213C244.931 206.346 245.003 206.524 245 206.707L242.443 335.324C242.439 335.507 242.359 335.681 242.222 335.807C242.084 335.934 241.899 336.003 241.709 336Z" fill="white"></path><path d="M262.612 326.859H262.565C262.368 326.847 262.184 326.757 262.053 326.61C261.923 326.462 261.856 326.269 261.868 326.072L270.117 193.429L20.4206 193.799L31.802 329.342C31.8225 329.538 31.7642 329.735 31.6399 329.888C31.5156 330.041 31.3355 330.139 31.1392 330.16C30.9429 330.18 30.7465 330.122 30.5932 329.998C30.4399 329.873 30.3422 329.693 30.3217 329.497L18.8562 193.133C18.8459 193.029 18.8573 192.925 18.8896 192.827C18.9219 192.728 18.9744 192.638 19.0437 192.561C19.1131 192.484 19.1978 192.422 19.2924 192.38C19.387 192.338 19.4894 192.315 19.593 192.315L270.905 191.942C271.006 191.943 271.106 191.965 271.199 192.005C271.292 192.046 271.376 192.104 271.446 192.177C271.516 192.251 271.571 192.338 271.605 192.434C271.64 192.529 271.655 192.631 271.648 192.732L263.352 326.163C263.339 326.351 263.256 326.527 263.118 326.656C262.981 326.786 262.8 326.858 262.612 326.859Z" fill="white"></path><path d="M272.903 179.393H14.9165C13.7162 179.393 12.7432 180.366 12.7432 181.566V191.434C12.7432 192.634 13.7162 193.607 14.9165 193.607H272.903C274.103 193.607 275.076 192.634 275.076 191.434V181.566C275.076 180.366 274.103 179.393 272.903 179.393Z" fill="white"></path><path d="M272.903 194.35H14.9168C14.1435 194.35 13.4021 194.042 12.8553 193.495C12.3085 192.948 12.0009 192.207 12 191.434V181.563C12.0009 180.79 12.3086 180.049 12.8555 179.502C13.4024 178.956 14.1438 178.649 14.9168 178.649H272.903C273.676 178.649 274.418 178.956 274.965 179.502C275.511 180.049 275.819 180.79 275.82 181.563V191.434C275.819 192.207 275.512 192.948 274.965 193.495C274.418 194.042 273.677 194.35 272.903 194.35ZM14.9168 180.126C14.5382 180.126 14.175 180.276 13.907 180.544C13.6389 180.811 13.4879 181.174 13.487 181.553V191.423C13.4879 191.802 13.6389 192.165 13.907 192.432C14.175 192.7 14.5382 192.85 14.9168 192.85H272.903C273.091 192.85 273.277 192.814 273.45 192.742C273.624 192.671 273.781 192.566 273.914 192.433C274.047 192.301 274.152 192.143 274.224 191.97C274.296 191.797 274.333 191.611 274.333 191.423V181.553C274.333 181.365 274.296 181.179 274.224 181.006C274.152 180.833 274.047 180.675 273.914 180.543C273.781 180.41 273.624 180.305 273.45 180.234C273.277 180.162 273.091 180.126 272.903 180.126H14.9168Z" fill="black"></path><path d="M188.198 190.32C188 190.32 187.811 190.242 187.672 190.102C187.532 189.963 187.454 189.774 187.454 189.577V183.04C187.454 182.843 187.532 182.653 187.672 182.514C187.811 182.375 188 182.296 188.198 182.296C188.395 182.296 188.584 182.375 188.723 182.514C188.863 182.653 188.941 182.843 188.941 183.04V189.577C188.941 189.774 188.863 189.963 188.723 190.102C188.584 190.242 188.395 190.32 188.198 190.32Z" fill="black"></path><path d="M86.8477 51.4749C89.9752 48.3242 94.1339 46.589 98.5576 46.589C102.981 46.589 107.14 48.3242 110.268 51.4749C113.393 54.624 115.115 58.8107 115.115 63.2636C115.115 65.8784 114.499 68.4741 113.333 70.7919C113.886 73.0084 115.44 74.8554 117.537 75.7655C118.007 75.9559 118.155 76.6084 117.813 76.9827C116.444 78.5571 114.467 79.46 112.39 79.46C110.495 79.46 108.695 78.7138 107.354 77.3928C104.72 79.06 101.693 79.9382 98.5575 79.9382C94.1337 79.9382 89.9751 78.2031 86.8476 75.0523C83.7215 71.9031 82 67.7165 82 63.2637C82 58.8108 83.7216 54.624 86.8477 51.4749ZM98.5576 78.3912C101.602 78.3912 104.534 77.4777 107.035 75.7494L107.035 75.7496C107.36 75.5245 107.809 75.58 108.068 75.8888C109.146 77.1752 110.722 77.913 112.39 77.913C113.681 77.913 114.922 77.4679 115.916 76.6688C113.798 75.4065 112.276 73.2995 111.759 70.8502C111.718 70.6568 111.754 70.4654 111.845 70.3065C112.972 68.1514 113.568 65.7169 113.568 63.2637C113.568 54.9223 106.834 48.1361 98.5576 48.1361C90.2807 48.1361 83.5471 54.9222 83.5471 63.2637C83.5471 71.6051 90.2807 78.3912 98.5576 78.3912Z" fill="white"></path><path d="M90.8699 64.0371H92.6494C93.0765 64.0371 93.4229 63.6908 93.4229 63.2636C93.4229 62.8364 93.0765 62.4901 92.6494 62.4901H90.8699C90.4427 62.4901 90.0964 62.8364 90.0964 63.2636C90.0964 63.6908 90.4427 64.0371 90.8699 64.0371Z" fill="white"></path><path d="M97.654 64.0371H99.4335C99.8607 64.0371 100.207 63.6908 100.207 63.2636C100.207 62.8364 99.8607 62.4901 99.4335 62.4901H97.654C97.2268 62.4901 96.8805 62.8364 96.8805 63.2636C96.8805 63.6908 97.2268 64.0371 97.654 64.0371Z" fill="white"></path><path d="M104.466 64.0371H106.245C106.672 64.0371 107.019 63.6908 107.019 63.2636C107.019 62.8364 106.672 62.4901 106.245 62.4901H104.466C104.038 62.4901 103.692 62.8364 103.692 63.2636C103.692 63.6908 104.038 64.0371 104.466 64.0371Z" fill="white"></path></g></svg>