<svg width="371" height="143" viewBox="0 0 371 143" fill="none" xmlns="http://www.w3.org/2000/svg">
<mask id="mask0_965_1460" style="mask-type:alpha" maskUnits="userSpaceOnUse" x="0" y="0" width="371" height="143">
<rect x="0.871094" y="0.21106" width="370" height="142.418" fill="white"/>
</mask>
<g mask="url(#mask0_965_1460)">
<path d="M378.182 184.622H221.028C220.52 184.623 220.018 184.51 219.559 184.291C219.1 184.073 218.694 183.755 218.372 183.36C218.049 182.965 217.818 182.503 217.694 182.007C217.571 181.511 217.558 180.994 217.657 180.493L248.912 22.636C249.069 21.8517 249.49 21.1459 250.104 20.6385C250.719 20.131 251.489 19.853 252.284 19.8517H409.438C409.946 19.852 410.447 19.9654 410.906 20.1839C411.365 20.4024 411.771 20.7205 412.093 21.1153C412.415 21.5102 412.647 21.9719 412.771 22.4675C412.895 22.963 412.908 23.48 412.81 23.9813L381.56 181.835C381.403 182.621 380.982 183.328 380.366 183.836C379.75 184.344 378.978 184.622 378.182 184.622ZM252.284 20.5155C251.643 20.5167 251.021 20.741 250.525 21.1504C250.029 21.5598 249.689 22.1292 249.562 22.7621L218.316 180.622C218.237 181.027 218.248 181.444 218.348 181.844C218.448 182.244 218.635 182.617 218.895 182.936C219.155 183.254 219.482 183.511 219.853 183.688C220.224 183.864 220.628 183.955 221.038 183.956H378.182C378.824 183.954 379.446 183.729 379.942 183.319C380.439 182.909 380.778 182.338 380.904 181.705L412.156 23.8494C412.235 23.4447 412.224 23.0273 412.124 22.6272C412.024 22.2272 411.837 21.8544 411.577 21.5356C411.317 21.2169 410.99 20.9601 410.619 20.7837C410.248 20.6073 409.844 20.5157 409.434 20.5155H252.284Z" fill="white" fill-opacity="0.3"/>
<path d="M259.873 116.477H242.32C242.273 116.476 242.227 116.466 242.185 116.446C242.143 116.426 242.105 116.396 242.075 116.36C242.045 116.324 242.024 116.282 242.012 116.236C242 116.191 241.999 116.144 242.007 116.098L245.177 99.4455C245.191 99.3724 245.229 99.3063 245.287 99.2589C245.344 99.2114 245.416 99.1855 245.49 99.1858H263.042C263.089 99.1858 263.136 99.1961 263.178 99.2161C263.221 99.2361 263.258 99.2653 263.288 99.3015C263.318 99.3378 263.34 99.3801 263.351 99.4257C263.363 99.4712 263.364 99.5187 263.355 99.5648L260.187 116.217C260.173 116.29 260.134 116.356 260.076 116.403C260.019 116.45 259.947 116.476 259.873 116.477ZM242.706 115.838H259.61L262.658 99.8231H245.754L242.706 115.838Z" fill="white" fill-opacity="0.3"/>
<path d="M281.067 116.477H262.679C262.629 116.477 262.581 116.466 262.536 116.446C262.492 116.426 262.452 116.397 262.421 116.36C262.39 116.324 262.367 116.282 262.355 116.236C262.342 116.191 262.34 116.144 262.349 116.098L265.67 99.4455C265.684 99.3725 265.725 99.3066 265.785 99.2592C265.845 99.2118 265.92 99.1858 265.998 99.1858H284.386C284.435 99.1858 284.484 99.1961 284.528 99.2161C284.573 99.2361 284.612 99.2653 284.644 99.3015C284.675 99.3378 284.697 99.3801 284.71 99.4257C284.722 99.4712 284.723 99.5187 284.714 99.5648L281.395 116.217C281.38 116.29 281.339 116.355 281.28 116.403C281.22 116.45 281.145 116.476 281.067 116.477ZM263.083 115.838H280.789L283.983 99.8231H266.279L263.083 115.838Z" fill="white" fill-opacity="0.3"/>
<path d="M301.407 116.477H283.019C282.97 116.476 282.922 116.466 282.877 116.446C282.833 116.426 282.794 116.396 282.762 116.36C282.731 116.324 282.708 116.282 282.696 116.236C282.684 116.191 282.682 116.144 282.691 116.098L286.011 99.4455C286.025 99.3723 286.066 99.3062 286.126 99.2588C286.186 99.2113 286.262 99.1855 286.34 99.1858H304.726C304.776 99.1856 304.825 99.1958 304.869 99.2157C304.914 99.2356 304.953 99.2648 304.985 99.301C305.016 99.3372 305.039 99.3797 305.051 99.4253C305.064 99.4709 305.065 99.5186 305.056 99.5648L301.735 116.217C301.721 116.29 301.68 116.356 301.62 116.403C301.56 116.451 301.485 116.477 301.407 116.477ZM283.426 115.832H301.134L304.327 99.8175H286.616L283.426 115.832Z" fill="white" fill-opacity="0.3"/>
<path d="M321.737 116.476H303.362C303.313 116.476 303.264 116.466 303.22 116.445C303.176 116.425 303.136 116.396 303.105 116.36C303.074 116.324 303.051 116.282 303.039 116.236C303.027 116.191 303.025 116.143 303.034 116.097L306.355 99.4455C306.369 99.3724 306.409 99.3063 306.469 99.2589C306.529 99.2114 306.605 99.1855 306.683 99.1858H325.071C325.12 99.1858 325.169 99.1961 325.213 99.2161C325.258 99.2361 325.297 99.2653 325.328 99.3015C325.359 99.3378 325.382 99.3801 325.394 99.4257C325.406 99.4712 325.408 99.5187 325.399 99.5648L322.078 116.217C322.063 116.292 322.02 116.359 321.958 116.407C321.895 116.455 321.817 116.479 321.737 116.476ZM303.753 115.838H321.46L324.653 99.8231H306.952L303.753 115.838Z" fill="white" fill-opacity="0.3"/>
<path d="M342.095 116.477H323.705C323.656 116.477 323.607 116.466 323.562 116.446C323.518 116.426 323.479 116.397 323.448 116.36C323.416 116.324 323.394 116.282 323.381 116.236C323.369 116.191 323.367 116.144 323.375 116.098L326.692 99.4454C326.707 99.3723 326.747 99.3063 326.807 99.2589C326.867 99.2114 326.942 99.1855 327.02 99.1858H345.412C345.462 99.1858 345.51 99.1961 345.555 99.2161C345.599 99.2361 345.639 99.2653 345.67 99.3015C345.701 99.3377 345.724 99.3801 345.736 99.4256C345.748 99.4711 345.75 99.5186 345.74 99.5647L342.425 116.211C342.411 116.285 342.371 116.353 342.311 116.401C342.251 116.45 342.174 116.476 342.095 116.477ZM324.108 115.838H341.819L345.013 99.8285H327.301L324.108 115.838Z" fill="white" fill-opacity="0.3"/>
<path d="M362.434 116.477H344.045C343.996 116.476 343.948 116.466 343.904 116.446C343.859 116.426 343.82 116.396 343.789 116.36C343.757 116.324 343.735 116.282 343.723 116.236C343.71 116.191 343.709 116.144 343.718 116.098L347.037 99.4455C347.051 99.3723 347.092 99.3062 347.152 99.2588C347.213 99.2113 347.288 99.1855 347.366 99.1858H365.753C365.802 99.1858 365.851 99.1962 365.896 99.2162C365.94 99.2362 365.98 99.2653 366.011 99.3015C366.042 99.3377 366.065 99.38 366.077 99.4255C366.09 99.4711 366.092 99.5186 366.082 99.5648L362.762 116.217C362.747 116.29 362.707 116.356 362.647 116.403C362.587 116.451 362.512 116.477 362.434 116.477ZM344.45 115.838H362.158L365.35 99.8231H347.643L344.45 115.838Z" fill="white" fill-opacity="0.3"/>
<path d="M382.943 116.477H365.391C365.344 116.476 365.297 116.466 365.255 116.446C365.213 116.426 365.175 116.396 365.146 116.36C365.116 116.324 365.094 116.282 365.082 116.236C365.071 116.191 365.069 116.144 365.078 116.098L368.247 99.4455C368.261 99.3724 368.3 99.3063 368.357 99.2589C368.414 99.2114 368.486 99.1855 368.56 99.1858H386.113C386.16 99.186 386.206 99.1964 386.248 99.2163C386.291 99.2362 386.328 99.2651 386.358 99.3009C386.388 99.3372 386.41 99.3797 386.422 99.4253C386.433 99.4709 386.435 99.5186 386.426 99.5648L383.256 116.217C383.242 116.29 383.203 116.356 383.146 116.403C383.089 116.451 383.017 116.477 382.943 116.477ZM365.777 115.838H382.679L385.727 99.8231H368.824L365.777 115.838Z" fill="white" fill-opacity="0.3"/>
<path d="M256.655 135.802H238.269C238.219 135.801 238.171 135.791 238.126 135.771C238.082 135.751 238.042 135.722 238.011 135.686C237.979 135.65 237.957 135.607 237.944 135.562C237.932 135.516 237.93 135.469 237.939 135.422L241.26 118.77C241.274 118.697 241.315 118.631 241.375 118.584C241.435 118.536 241.51 118.51 241.588 118.511H259.976C260.025 118.511 260.074 118.521 260.118 118.541C260.163 118.561 260.202 118.59 260.233 118.626C260.265 118.663 260.287 118.705 260.3 118.751C260.312 118.796 260.313 118.844 260.304 118.89L256.985 135.542C256.97 135.615 256.929 135.681 256.869 135.728C256.809 135.776 256.733 135.802 256.655 135.802ZM238.671 135.163H256.383L259.576 119.149H241.866L238.671 135.163Z" fill="white" fill-opacity="0.3"/>
<path d="M276.997 135.802H258.609C258.56 135.802 258.511 135.791 258.467 135.771C258.422 135.751 258.383 135.722 258.352 135.686C258.32 135.65 258.298 135.607 258.286 135.562C258.274 135.516 258.272 135.469 258.281 135.422L261.601 118.77C261.615 118.697 261.656 118.631 261.716 118.584C261.776 118.537 261.852 118.511 261.93 118.511H280.316C280.366 118.511 280.414 118.521 280.459 118.541C280.504 118.561 280.543 118.59 280.575 118.626C280.606 118.662 280.629 118.705 280.641 118.75C280.653 118.796 280.655 118.844 280.646 118.89L277.325 135.542C277.311 135.615 277.27 135.681 277.21 135.728C277.15 135.776 277.075 135.801 276.997 135.802ZM259.014 135.163H276.721L279.914 119.149H262.212L259.014 135.163Z" fill="white" fill-opacity="0.3"/>
<path d="M297.339 135.802H278.951C278.902 135.802 278.853 135.791 278.809 135.771C278.764 135.751 278.725 135.722 278.694 135.686C278.662 135.65 278.64 135.607 278.628 135.562C278.615 135.516 278.614 135.469 278.623 135.422L281.944 118.77C281.958 118.697 281.999 118.631 282.059 118.584C282.118 118.536 282.194 118.51 282.272 118.511H300.66C300.709 118.511 300.757 118.521 300.802 118.541C300.846 118.561 300.886 118.59 300.917 118.626C300.948 118.663 300.971 118.705 300.983 118.751C300.995 118.796 300.997 118.844 300.987 118.89L297.667 135.542C297.652 135.615 297.612 135.681 297.552 135.728C297.492 135.776 297.417 135.801 297.339 135.802ZM279.361 135.163H297.068L300.261 119.149H282.548L279.361 135.163Z" fill="white" fill-opacity="0.3"/>
<path d="M317.845 135.801H300.297C300.25 135.802 300.203 135.792 300.16 135.772C300.118 135.752 300.08 135.723 300.05 135.686C300.02 135.65 299.998 135.608 299.987 135.562C299.975 135.516 299.973 135.469 299.982 135.422L303.152 118.77C303.166 118.697 303.204 118.631 303.261 118.584C303.319 118.536 303.391 118.51 303.465 118.511H321.017C321.064 118.511 321.11 118.521 321.153 118.541C321.195 118.561 321.233 118.59 321.263 118.626C321.293 118.663 321.314 118.705 321.326 118.751C321.337 118.796 321.339 118.844 321.33 118.89L318.162 135.542C318.148 135.615 318.108 135.682 318.05 135.729C317.992 135.777 317.919 135.802 317.845 135.801ZM300.681 135.163H317.584L320.631 119.149H303.729L300.681 135.163Z" fill="white" fill-opacity="0.3"/>
<path d="M338.191 135.802H320.638C320.591 135.802 320.545 135.791 320.502 135.771C320.46 135.751 320.422 135.722 320.392 135.686C320.362 135.65 320.341 135.607 320.329 135.562C320.318 135.516 320.316 135.469 320.325 135.422L323.492 118.77C323.506 118.697 323.545 118.631 323.602 118.584C323.66 118.536 323.732 118.51 323.807 118.511H341.358C341.405 118.511 341.452 118.521 341.495 118.541C341.537 118.561 341.575 118.59 341.605 118.626C341.635 118.662 341.657 118.705 341.669 118.75C341.68 118.796 341.682 118.844 341.673 118.89L338.507 135.542C338.493 135.615 338.454 135.681 338.396 135.729C338.338 135.776 338.266 135.802 338.191 135.802ZM321.022 135.163H337.927L340.975 119.149H324.072L321.022 135.163Z" fill="white" fill-opacity="0.3"/>
<path d="M359.383 135.802H340.995C340.946 135.802 340.897 135.791 340.853 135.771C340.808 135.751 340.769 135.722 340.738 135.686C340.706 135.65 340.684 135.607 340.671 135.562C340.659 135.516 340.658 135.469 340.667 135.422L343.988 118.77C344.002 118.697 344.043 118.631 344.102 118.584C344.162 118.536 344.238 118.51 344.316 118.511H362.703C362.753 118.511 362.801 118.521 362.845 118.541C362.89 118.561 362.929 118.59 362.961 118.626C362.992 118.662 363.015 118.705 363.027 118.75C363.039 118.796 363.041 118.844 363.031 118.89L359.711 135.542C359.696 135.615 359.656 135.681 359.596 135.728C359.536 135.776 359.461 135.801 359.383 135.802ZM341.399 135.163H359.106L362.299 119.149H344.592L341.399 135.163Z" fill="white" fill-opacity="0.3"/>
<path d="M379.725 135.802H361.338C361.289 135.802 361.24 135.792 361.195 135.772C361.151 135.752 361.111 135.723 361.08 135.686C361.048 135.65 361.026 135.608 361.013 135.562C361.001 135.516 361 135.469 361.009 135.422L364.33 118.77C364.344 118.697 364.384 118.631 364.444 118.584C364.504 118.536 364.58 118.51 364.657 118.511H383.045C383.095 118.511 383.143 118.521 383.188 118.541C383.232 118.561 383.271 118.59 383.303 118.626C383.334 118.663 383.357 118.705 383.369 118.751C383.381 118.796 383.382 118.844 383.373 118.89L380.054 135.542C380.039 135.615 379.998 135.681 379.938 135.728C379.878 135.775 379.803 135.801 379.725 135.802ZM361.741 135.163H379.448L382.637 119.149H364.934L361.741 135.163Z" fill="white" fill-opacity="0.3"/>
<path d="M267.844 77.8267H249.456C249.407 77.8267 249.358 77.8157 249.314 77.7945C249.269 77.7733 249.23 77.7425 249.199 77.7041C249.167 77.6658 249.145 77.6209 249.132 77.5727C249.12 77.5245 249.119 77.4742 249.128 77.4253L252.447 59.7938C252.462 59.7165 252.503 59.6469 252.563 59.5967C252.623 59.5466 252.699 59.5191 252.777 59.5188H271.163C271.213 59.5188 271.261 59.5298 271.306 59.551C271.35 59.5722 271.39 59.603 271.421 59.6413C271.453 59.6796 271.475 59.7245 271.488 59.7727C271.5 59.8208 271.502 59.8712 271.493 59.9201L268.172 77.5532C268.157 77.6303 268.117 77.6999 268.057 77.7498C267.997 77.7998 267.922 77.827 267.844 77.8267ZM249.86 77.1518H267.563L270.756 60.1951H253.053L249.86 77.1518Z" fill="white" fill-opacity="0.3"/>
<path d="M288.18 77.8266H269.797C269.747 77.8266 269.699 77.8157 269.654 77.7945C269.61 77.7733 269.571 77.7424 269.539 77.7041C269.508 77.6657 269.485 77.6208 269.473 77.5726C269.461 77.5245 269.46 77.4741 269.469 77.4253L272.795 59.7923C272.809 59.7152 272.85 59.6456 272.91 59.5956C272.969 59.5457 273.045 59.5185 273.122 59.5188H291.505C291.555 59.5188 291.603 59.5297 291.648 59.5509C291.692 59.5721 291.731 59.603 291.763 59.6413C291.794 59.6797 291.817 59.7246 291.829 59.7728C291.841 59.821 291.842 59.8713 291.833 59.9201L288.513 77.5516C288.499 77.6299 288.457 77.7005 288.396 77.7508C288.335 77.8011 288.258 77.828 288.18 77.8266ZM270.201 77.1503H287.903L291.095 60.1907H273.393L270.201 77.1503Z" fill="white" fill-opacity="0.3"/>
<path d="M308.528 77.8267H290.14C290.091 77.8264 290.042 77.8154 289.998 77.7944C289.953 77.7733 289.914 77.7427 289.882 77.7048C289.851 77.6664 289.828 77.6214 289.816 77.5731C289.804 77.5247 289.802 77.4743 289.812 77.4253L293.133 59.7938C293.147 59.7165 293.188 59.6467 293.247 59.5965C293.307 59.5463 293.383 59.5188 293.46 59.5188H311.848C311.898 59.519 311.946 59.5302 311.99 59.5515C312.035 59.5727 312.074 59.6036 312.105 59.6419C312.136 59.6802 312.159 59.7249 312.171 59.773C312.184 59.8211 312.185 59.8713 312.176 59.9201L308.856 77.5532C308.841 77.6303 308.8 77.6999 308.741 77.7498C308.681 77.7998 308.605 77.827 308.528 77.8267ZM290.542 77.1518H308.25L311.443 60.1951H293.737L290.542 77.1518Z" fill="white" fill-opacity="0.3"/>
<path d="M328.868 77.8267H310.481C310.432 77.8267 310.384 77.8157 310.339 77.7945C310.295 77.7733 310.255 77.7425 310.224 77.7041C310.193 77.6658 310.17 77.6209 310.158 77.5727C310.146 77.5245 310.144 77.4742 310.154 77.4253L313.473 59.7938C313.488 59.7164 313.528 59.6466 313.589 59.5964C313.649 59.5462 313.724 59.5188 313.802 59.5188H332.189C332.238 59.5186 332.287 59.5296 332.332 59.5509C332.376 59.5723 332.415 59.6035 332.446 59.6422C332.478 59.6804 332.5 59.7251 332.513 59.7731C332.525 59.8211 332.527 59.8713 332.518 59.9201L329.198 77.5532C329.183 77.6305 329.142 77.7003 329.082 77.7503C329.022 77.8003 328.946 77.8273 328.868 77.8267ZM310.884 77.1518H328.592L331.785 60.1951H314.077L310.884 77.1518Z" fill="white" fill-opacity="0.3"/>
<path d="M349.212 77.8267H330.824C330.775 77.8267 330.726 77.8157 330.682 77.7945C330.637 77.7733 330.598 77.7425 330.567 77.7041C330.535 77.6658 330.513 77.6209 330.501 77.5727C330.488 77.5245 330.487 77.4742 330.496 77.4253L333.816 59.7938C333.831 59.7165 333.871 59.6469 333.932 59.5967C333.992 59.5466 334.067 59.5191 334.145 59.5188H352.531C352.581 59.5188 352.629 59.5298 352.674 59.551C352.718 59.5722 352.758 59.603 352.789 59.6413C352.821 59.6796 352.843 59.7245 352.856 59.7727C352.868 59.8208 352.87 59.8712 352.861 59.9201L349.536 77.5532C349.521 77.6296 349.481 77.6986 349.422 77.7484C349.363 77.7983 349.289 77.826 349.212 77.8267ZM331.228 77.1518H348.936L352.129 60.1951H334.421L331.228 77.1518Z" fill="white" fill-opacity="0.3"/>
<path d="M369.721 77.8267H352.168C352.122 77.8264 352.075 77.8154 352.033 77.7944C351.99 77.7733 351.953 77.7427 351.923 77.7048C351.893 77.6664 351.871 77.6214 351.859 77.5731C351.848 77.5247 351.846 77.4743 351.855 77.4253L355.025 59.7938C355.039 59.7165 355.078 59.6467 355.135 59.5965C355.192 59.5463 355.264 59.5188 355.338 59.5188H372.89C372.937 59.519 372.984 59.5302 373.026 59.5515C373.068 59.5727 373.106 59.6036 373.136 59.6419C373.165 59.6802 373.187 59.7249 373.199 59.773C373.21 59.8211 373.212 59.8713 373.203 59.9201L370.034 77.5532C370.02 77.6303 369.981 77.6999 369.924 77.7498C369.867 77.7998 369.795 77.827 369.721 77.8267ZM352.554 77.1518H369.457L372.505 60.1951H355.602L352.554 77.1518Z" fill="white" fill-opacity="0.3"/>
<path d="M263.774 97.1515H245.387C245.337 97.1512 245.289 97.1407 245.244 97.1206C245.2 97.1004 245.161 97.0712 245.129 97.0351C245.098 96.999 245.075 96.9568 245.063 96.9114C245.051 96.866 245.049 96.8186 245.059 96.7726L248.379 80.119C248.394 80.0462 248.435 79.9805 248.494 79.9333C248.554 79.8861 248.63 79.8605 248.707 79.8608H267.095C267.144 79.8605 267.193 79.8707 267.237 79.8906C267.282 79.9104 267.321 79.9394 267.353 79.9755C267.384 80.0116 267.406 80.0539 267.419 80.0993C267.431 80.1448 267.432 80.1922 267.423 80.2383L264.102 96.8863C264.089 96.9603 264.049 97.0275 263.989 97.076C263.929 97.1245 263.853 97.1513 263.774 97.1515ZM245.791 96.513H263.497L266.689 80.5035H248.984L245.791 96.513Z" fill="white" fill-opacity="0.3"/>
<path d="M284.116 97.1515H265.73C265.68 97.1515 265.632 97.1411 265.587 97.1212C265.543 97.1012 265.503 97.072 265.472 97.0359C265.44 96.9997 265.418 96.9574 265.405 96.9119C265.393 96.8664 265.391 96.8188 265.4 96.7726L268.721 80.119C268.735 80.0462 268.776 79.9805 268.836 79.9333C268.896 79.8861 268.971 79.8605 269.049 79.8608H287.437C287.486 79.8605 287.535 79.8707 287.579 79.8906C287.624 79.9104 287.663 79.9394 287.694 79.9755C287.726 80.0116 287.748 80.0539 287.76 80.0993C287.773 80.1448 287.774 80.1922 287.765 80.2383L284.445 96.8863C284.432 96.9603 284.391 97.0273 284.331 97.0758C284.271 97.1243 284.195 97.1511 284.116 97.1515ZM266.132 96.513H283.84L287.033 80.5035H269.327L266.132 96.513Z" fill="white" fill-opacity="0.3"/>
<path d="M304.624 97.1515H287.073C287.026 97.1513 286.98 97.1408 286.938 97.1207C286.895 97.1005 286.858 97.0713 286.828 97.0351C286.798 96.9989 286.776 96.9567 286.764 96.9114C286.753 96.8661 286.751 96.8188 286.759 96.7726L289.929 80.119C289.943 80.0461 289.982 79.9803 290.039 79.9332C290.097 79.886 290.169 79.8604 290.243 79.8608H307.794C307.84 79.8608 307.887 79.8712 307.929 79.8911C307.971 79.911 308.009 79.94 308.039 79.976C308.069 80.012 308.091 80.0542 308.103 80.0995C308.114 80.1448 308.116 80.1922 308.108 80.2383L304.938 96.8863C304.925 96.9604 304.887 97.0276 304.829 97.0761C304.772 97.1246 304.699 97.1513 304.624 97.1515ZM287.459 96.513H304.361L307.41 80.5035H290.507L287.459 96.513Z" fill="white" fill-opacity="0.3"/>
<path d="M324.967 97.1515H307.415C307.368 97.1512 307.322 97.1407 307.28 97.1206C307.237 97.1004 307.2 97.0712 307.17 97.0351C307.14 96.999 307.118 96.9568 307.107 96.9114C307.095 96.866 307.094 96.8186 307.102 96.7726L310.269 80.119C310.282 80.0462 310.321 79.9805 310.378 79.9333C310.436 79.8861 310.507 79.8605 310.582 79.8608H328.137C328.184 79.861 328.23 79.8714 328.273 79.8913C328.315 79.9111 328.353 79.94 328.383 79.9758C328.413 80.0119 328.434 80.0541 328.446 80.0995C328.458 80.1449 328.459 80.1923 328.45 80.2383L325.28 96.8863C325.267 96.9603 325.229 97.0275 325.172 97.076C325.114 97.1245 325.042 97.1513 324.967 97.1515ZM307.797 96.513H324.703L327.751 80.5035H310.845L307.797 96.513Z" fill="white" fill-opacity="0.3"/>
<path d="M346.16 97.1515H327.772C327.723 97.1511 327.675 97.1404 327.63 97.1203C327.586 97.1002 327.547 97.0711 327.515 97.0351C327.484 96.999 327.461 96.9568 327.449 96.9114C327.437 96.866 327.435 96.8186 327.444 96.7726L330.765 80.119C330.78 80.0462 330.82 79.9805 330.88 79.9333C330.94 79.8861 331.015 79.8605 331.093 79.8608H349.481C349.53 79.8605 349.579 79.8707 349.623 79.8906C349.668 79.9104 349.707 79.9394 349.738 79.9755C349.77 80.0116 349.792 80.0539 349.804 80.0993C349.817 80.1448 349.818 80.1922 349.809 80.2383L346.487 96.8919C346.472 96.9644 346.431 97.0298 346.372 97.0771C346.312 97.1244 346.238 97.1507 346.16 97.1515ZM328.177 96.513H345.884L349.077 80.5035H331.369L328.177 96.513Z" fill="white" fill-opacity="0.3"/>
<path d="M386.845 97.1515H368.457C368.408 97.1512 368.359 97.1407 368.315 97.1206C368.27 97.1004 368.231 97.0712 368.2 97.0351C368.168 96.999 368.146 96.9568 368.133 96.9114C368.121 96.866 368.12 96.8186 368.129 96.7726L371.45 80.119C371.464 80.0462 371.505 79.9805 371.565 79.9333C371.625 79.8861 371.7 79.8605 371.777 79.8608H390.165C390.215 79.8605 390.263 79.8707 390.308 79.8906C390.352 79.9104 390.392 79.9394 390.423 79.9755C390.454 80.0116 390.477 80.0539 390.489 80.0993C390.501 80.1448 390.503 80.1922 390.493 80.2383L387.173 96.8863C387.159 96.9603 387.119 97.0275 387.059 97.076C386.999 97.1245 386.923 97.1513 386.845 97.1515ZM368.861 96.513H386.568L389.761 80.5035H372.054L368.861 96.513Z" fill="white" fill-opacity="0.3"/>
<path d="M366.502 97.1515H348.115C348.066 97.1513 348.017 97.1407 347.973 97.1207C347.928 97.1006 347.889 97.0715 347.858 97.0354C347.826 96.9993 347.804 96.957 347.791 96.9116C347.779 96.8662 347.777 96.8188 347.786 96.7726L351.106 80.119C351.121 80.0462 351.162 79.9805 351.221 79.9333C351.281 79.8861 351.357 79.8605 351.434 79.8608H369.823C369.872 79.8605 369.92 79.8707 369.965 79.8906C370.009 79.9104 370.049 79.9394 370.08 79.9755C370.111 80.0116 370.134 80.0539 370.146 80.0993C370.158 80.1448 370.16 80.1922 370.15 80.2383L366.831 96.8863C366.818 96.9604 366.777 97.0276 366.717 97.0761C366.657 97.1246 366.581 97.1513 366.502 97.1515ZM348.518 96.513H366.226L369.418 80.5035H351.711L348.518 96.513Z" fill="white" fill-opacity="0.3"/>
<path d="M282.395 20.8688C282.356 20.869 282.318 20.8603 282.283 20.8431C282.247 20.826 282.215 20.8008 282.188 20.769C282.161 20.7371 282.139 20.6993 282.124 20.6577C282.109 20.616 282.102 20.5713 282.102 20.5262C282.111 17.5284 281.26 14.6144 279.687 12.255C279.644 12.1827 279.627 12.094 279.638 12.0071C279.649 11.9202 279.689 11.8417 279.747 11.7876C279.806 11.7335 279.881 11.7081 279.955 11.7164C280.03 11.7247 280.099 11.7662 280.148 11.8324C281.801 14.3128 282.695 17.3754 282.686 20.5262C282.686 20.6171 282.655 20.7042 282.601 20.7684C282.546 20.8327 282.472 20.8688 282.395 20.8688Z" fill="white" fill-opacity="0.3"/>
<path d="M269.691 34.0905C267.575 34.0903 265.489 33.5804 263.602 32.6022C261.715 31.624 260.08 30.2051 258.832 28.4608C257.583 26.7166 256.755 24.6962 256.416 22.5639C256.076 20.4316 256.234 18.2476 256.877 16.1894C257.52 14.1311 258.629 12.2568 260.115 10.7186C261.601 9.18049 263.422 8.022 265.429 7.3373C267.436 6.6526 269.574 6.46102 271.667 6.77814C273.761 7.09525 275.751 7.91212 277.477 9.16233C277.542 9.21553 277.585 9.29233 277.597 9.37692C277.609 9.46152 277.588 9.54747 277.54 9.61708C277.491 9.68669 277.418 9.73465 277.336 9.75111C277.254 9.76756 277.169 9.75125 277.098 9.70552C275.456 8.51597 273.562 7.73876 271.57 7.43706C269.578 7.13536 267.545 7.31769 265.635 7.96923C263.725 8.62076 261.993 9.72312 260.579 11.1867C259.165 12.6503 258.109 14.4337 257.498 16.3922C256.886 18.3506 256.736 20.4287 257.059 22.4575C257.382 24.4864 258.17 26.4087 259.358 28.0683C260.546 29.7279 262.101 31.0779 263.897 32.0085C265.692 32.9392 267.678 33.4243 269.691 33.4243C269.736 33.4213 269.781 33.4276 269.823 33.443C269.865 33.4584 269.904 33.4824 269.936 33.5136C269.969 33.5449 269.995 33.5826 270.013 33.6245C270.031 33.6665 270.04 33.7117 270.04 33.7574C270.04 33.8031 270.031 33.8483 270.013 33.8902C269.995 33.9321 269.969 33.9699 269.936 34.0011C269.904 34.0323 269.865 34.0564 269.823 34.0717C269.781 34.0871 269.736 34.0935 269.691 34.0905Z" fill="white" fill-opacity="0.3"/>
<path d="M300.631 20.8688C300.531 20.8688 300.436 20.8333 300.365 20.7702C300.295 20.7071 300.256 20.6214 300.256 20.5322C300.265 17.5165 299.114 14.5904 296.996 12.2491C296.94 12.1788 296.916 12.092 296.929 12.0065C296.943 11.921 296.992 11.8433 297.067 11.7893C297.142 11.7353 297.237 11.709 297.333 11.7159C297.429 11.7228 297.518 11.7624 297.582 11.8265C299.787 14.2969 300.99 17.3669 300.994 20.5322C300.994 20.6197 300.956 20.7038 300.888 20.7666C300.821 20.8294 300.728 20.8661 300.631 20.8688Z" fill="white" fill-opacity="0.3"/>
<path d="M287.209 34.0912C285.076 34.0906 282.972 33.5892 281.066 32.6272C279.16 31.6651 277.505 30.269 276.232 28.5504C274.96 26.8318 274.105 24.8383 273.737 22.7292C273.369 20.6202 273.498 18.4539 274.113 16.4035C274.727 14.3532 275.811 12.4755 277.278 10.9206C278.745 9.36562 280.553 8.17649 282.559 7.44816C284.566 6.71983 286.714 6.47249 288.832 6.7259C290.95 6.97931 292.98 7.72646 294.76 8.90764C294.827 8.95896 294.873 9.03417 294.887 9.11795C294.901 9.20173 294.883 9.28777 294.836 9.35853C294.789 9.42929 294.717 9.47944 294.634 9.49877C294.552 9.5181 294.465 9.50514 294.392 9.46255C292.699 8.33842 290.767 7.62732 288.752 7.38605C286.736 7.14478 284.692 7.38004 282.783 8.07303C280.874 8.76601 279.153 9.89752 277.757 11.3771C276.362 12.8568 275.33 14.6435 274.745 16.5945C274.161 18.5456 274.038 20.6069 274.389 22.6138C274.739 24.6207 275.552 26.5175 276.763 28.1527C277.974 29.7879 279.55 31.1162 281.363 32.0314C283.177 32.9466 285.179 33.4233 287.209 33.4235C287.293 33.4291 287.372 33.4667 287.43 33.5285C287.487 33.5904 287.519 33.6719 287.519 33.7566C287.519 33.8413 287.487 33.9229 287.43 33.9847C287.372 34.0466 287.293 34.0841 287.209 34.0897V34.0912Z" fill="white" fill-opacity="0.3"/>
<path d="M318.013 20.8688C317.977 20.869 317.941 20.8605 317.907 20.8439C317.874 20.8273 317.844 20.8028 317.818 20.7719C317.792 20.741 317.772 20.7043 317.758 20.6639C317.744 20.6235 317.737 20.5801 317.737 20.5363C317.735 17.5135 316.87 14.5846 315.288 12.2476C315.245 12.1787 315.227 12.0929 315.235 12.0079C315.244 11.9228 315.279 11.8451 315.334 11.7907C315.389 11.7363 315.459 11.7095 315.529 11.7157C315.6 11.722 315.665 11.7609 315.713 11.8243C317.374 14.2818 318.283 17.3598 318.285 20.5363C318.285 20.624 318.256 20.7081 318.205 20.7704C318.154 20.8326 318.085 20.868 318.013 20.8688Z" fill="white" fill-opacity="0.3"/>
<path d="M305.344 34.0905C303.224 34.0903 301.135 33.5828 299.244 32.6093C297.353 31.6357 295.714 30.2233 294.459 28.4864C293.205 26.7494 292.37 24.7366 292.023 22.6109C291.675 20.4851 291.825 18.3061 292.459 16.25C293.094 14.1939 294.195 12.3184 295.675 10.7754C297.154 9.23236 298.97 8.06504 300.976 7.36786C302.982 6.67068 305.12 6.46321 307.219 6.76223C309.319 7.06126 311.319 7.85838 313.059 9.08913C313.094 9.11412 313.124 9.14594 313.147 9.18275C313.171 9.21957 313.186 9.26066 313.194 9.30369C313.201 9.34672 313.201 9.39084 313.191 9.43354C313.182 9.47623 313.165 9.51666 313.14 9.55252C313.116 9.58838 313.084 9.61896 313.048 9.64252C313.012 9.66609 312.971 9.68217 312.929 9.68985C312.887 9.69753 312.843 9.69666 312.801 9.68729C312.759 9.67792 312.72 9.66024 312.684 9.63524C311.029 8.46453 309.126 7.70632 307.129 7.42191C305.132 7.1375 303.097 7.33488 301.189 7.99809C299.281 8.6613 297.553 9.77172 296.146 11.2396C294.738 12.7074 293.69 14.4915 293.086 16.4474C292.482 18.4034 292.339 20.4765 292.669 22.4989C292.999 24.5213 293.793 26.4363 294.986 28.0891C296.179 29.7419 297.738 31.0861 299.537 32.0129C301.335 32.9398 303.323 33.4233 305.34 33.4243C305.385 33.4213 305.43 33.4276 305.472 33.443C305.514 33.4584 305.553 33.4824 305.586 33.5136C305.619 33.5449 305.645 33.5826 305.663 33.6245C305.681 33.6665 305.69 33.7117 305.69 33.7574C305.69 33.8031 305.681 33.8483 305.663 33.8902C305.645 33.9321 305.619 33.9699 305.586 34.0011C305.553 34.0323 305.514 34.0564 305.472 34.0717C305.43 34.0871 305.385 34.0935 305.34 34.0905H305.344Z" fill="white" fill-opacity="0.3"/>
<path d="M336.235 20.8688C336.188 20.869 336.142 20.8606 336.098 20.8441C336.055 20.8277 336.015 20.8035 335.982 20.7729C335.949 20.7424 335.922 20.706 335.904 20.6661C335.887 20.6261 335.877 20.5833 335.878 20.5401C335.876 17.5115 334.719 14.5794 332.607 12.2545C332.577 12.2213 332.555 12.183 332.541 12.1418C332.527 12.1005 332.522 12.0572 332.526 12.0141C332.53 11.9711 332.544 11.9293 332.565 11.891C332.587 11.8528 332.617 11.8188 332.653 11.7912C332.689 11.7635 332.731 11.7426 332.776 11.7298C332.821 11.7169 332.868 11.7123 332.915 11.7162C332.961 11.7201 333.007 11.7324 333.049 11.7525C333.09 11.7726 333.127 11.8 333.157 11.8331C335.376 14.276 336.592 17.3575 336.593 20.5401C336.593 20.5833 336.584 20.6261 336.566 20.6661C336.548 20.706 336.522 20.7424 336.489 20.7729C336.455 20.8035 336.416 20.8277 336.372 20.8441C336.329 20.8606 336.282 20.869 336.235 20.8688Z" fill="white" fill-opacity="0.3"/>
<path d="M322.726 34.0912C320.601 34.091 318.505 33.5876 316.607 32.6214C314.709 31.6552 313.062 30.2532 311.798 28.5277C310.533 26.8023 309.687 24.8016 309.327 22.6861C308.967 20.5707 309.103 18.3995 309.725 16.3468C310.346 14.2941 311.435 12.4171 312.905 10.8664C314.374 9.31572 316.183 8.13456 318.187 7.41773C320.19 6.7009 322.332 6.46838 324.44 6.73882C326.549 7.00927 328.565 7.77515 330.328 8.97498C330.366 8.99815 330.4 9.02911 330.427 9.06594C330.453 9.10277 330.472 9.1447 330.482 9.18915C330.492 9.23361 330.493 9.27963 330.484 9.3244C330.476 9.36917 330.459 9.41174 330.433 9.44948C330.408 9.48723 330.375 9.51934 330.337 9.54385C330.299 9.56837 330.257 9.58475 330.212 9.59201C330.168 9.59927 330.122 9.59725 330.078 9.58606C330.035 9.57488 329.994 9.55477 329.958 9.52697C328.281 8.38545 326.362 7.65684 324.356 7.39962C322.35 7.14241 320.312 7.36375 318.406 8.04588C316.5 8.72801 314.779 9.85194 313.38 11.3274C311.982 12.8029 310.946 14.5889 310.355 16.542C309.764 18.4952 309.635 20.561 309.977 22.5738C310.32 24.5865 311.125 26.4901 312.328 28.1318C313.531 29.7735 315.098 31.1075 316.904 32.0267C318.71 32.946 320.704 33.4249 322.726 33.425C322.81 33.4306 322.888 33.4681 322.946 33.53C323.003 33.5918 323.035 33.6734 323.035 33.7581C323.035 33.8428 323.003 33.9243 322.946 33.9862C322.888 34.0481 322.81 34.0856 322.726 34.0912Z" fill="white" fill-opacity="0.3"/>
<path d="M354.52 20.8688C354.47 20.869 354.42 20.8604 354.374 20.8434C354.328 20.8265 354.286 20.8016 354.251 20.7702C354.215 20.7387 354.187 20.7014 354.168 20.6602C354.149 20.619 354.139 20.5749 354.139 20.5303C354.151 17.5275 353.014 14.611 350.914 12.2648C350.852 12.1944 350.823 12.1047 350.834 12.0154C350.846 11.926 350.897 11.8444 350.975 11.7885C351.054 11.7325 351.155 11.7068 351.255 11.717C351.355 11.7272 351.446 11.7725 351.509 11.8429C353.716 14.3084 354.913 17.3739 354.9 20.5303C354.9 20.5749 354.89 20.619 354.871 20.6602C354.852 20.7014 354.824 20.7387 354.789 20.7702C354.753 20.8016 354.711 20.8265 354.665 20.8434C354.619 20.8604 354.57 20.869 354.52 20.8688Z" fill="white" fill-opacity="0.3"/>
<path d="M341.059 34.0905C338.931 34.0901 336.833 33.5872 334.932 32.622C333.031 31.6569 331.381 30.2563 330.115 28.5327C328.848 26.8091 327.999 24.8103 327.637 22.6966C327.275 20.5829 327.409 18.413 328.029 16.361C328.649 14.309 329.737 12.4319 331.206 10.8802C332.676 9.32845 334.485 8.14528 336.49 7.42551C338.495 6.70573 340.639 6.46938 342.751 6.7354C344.863 7.00141 346.884 7.7624 348.651 8.95735C348.724 9.00647 348.774 9.08273 348.791 9.16936C348.808 9.25599 348.791 9.34589 348.742 9.41928C348.693 9.49267 348.617 9.54354 348.531 9.5607C348.446 9.57786 348.356 9.55991 348.283 9.51079C346.602 8.37377 344.679 7.64965 342.67 7.39647C340.661 7.1433 338.62 7.36813 336.713 8.05293C334.805 8.73772 333.083 9.86343 331.685 11.3398C330.287 12.8162 329.252 14.6022 328.662 16.5546C328.072 18.5071 327.944 20.5716 328.289 22.5828C328.633 24.5939 329.441 26.4958 330.646 28.1358C331.851 29.7759 333.421 31.1085 335.229 32.0269C337.038 32.9453 339.034 33.4239 341.059 33.4243C341.105 33.4213 341.15 33.4276 341.193 33.443C341.235 33.4584 341.274 33.4824 341.308 33.5136C341.341 33.5449 341.367 33.5826 341.385 33.6245C341.403 33.6665 341.412 33.7117 341.412 33.7574C341.412 33.8031 341.403 33.8483 341.385 33.8902C341.367 33.9321 341.341 33.9699 341.308 34.0011C341.274 34.0323 341.235 34.0564 341.193 34.0717C341.15 34.0871 341.105 34.0935 341.059 34.0905Z" fill="white" fill-opacity="0.3"/>
<path d="M371.904 20.8688C371.866 20.869 371.829 20.8603 371.794 20.8433C371.759 20.8263 371.728 20.8013 371.701 20.7697C371.674 20.7381 371.653 20.7006 371.639 20.6593C371.625 20.6179 371.617 20.5737 371.617 20.529C371.626 17.5294 370.774 14.6153 369.201 12.2652C369.178 12.2301 369.161 12.1899 369.15 12.1469C369.14 12.1039 369.137 12.059 369.142 12.0146C369.146 11.9703 369.158 11.9274 369.176 11.8885C369.195 11.8496 369.219 11.8153 369.249 11.7877C369.279 11.7601 369.313 11.7396 369.349 11.7275C369.385 11.7155 369.423 11.7119 369.461 11.7172C369.498 11.7225 369.534 11.7365 369.567 11.7583C369.6 11.7802 369.629 11.8095 369.652 11.8446C371.305 14.3133 372.2 17.3747 372.191 20.526C372.191 20.5709 372.184 20.6155 372.17 20.6572C372.156 20.6988 372.135 20.7367 372.108 20.7686C372.081 20.8006 372.05 20.8258 372.015 20.843C371.98 20.8602 371.942 20.869 371.904 20.8688Z" fill="white" fill-opacity="0.3"/>
<path d="M358.459 34.0868C356.322 34.0875 354.214 33.5891 352.304 32.6312C350.393 31.6734 348.733 30.2826 347.455 28.5696C346.176 26.8566 345.316 24.8688 344.941 22.7644C344.566 20.66 344.688 18.4971 345.297 16.4482C345.906 14.3992 346.984 12.5207 348.447 10.9622C349.91 9.40373 351.716 8.20838 353.722 7.47135C355.728 6.73432 357.878 6.47596 360.002 6.71687C362.125 6.95777 364.163 7.69127 365.953 8.85896C366.021 8.90971 366.068 8.98457 366.083 9.06825C366.097 9.15194 366.08 9.23815 366.033 9.3093C365.987 9.38045 365.915 9.43117 365.832 9.45113C365.75 9.47109 365.663 9.45879 365.589 9.41671C363.886 8.30724 361.947 7.61067 359.927 7.38245C357.908 7.15423 355.863 7.40065 353.955 8.1021C352.047 8.80355 350.329 9.94068 348.938 11.423C347.547 12.9053 346.521 14.6918 345.942 16.6405C345.363 18.5892 345.247 20.6461 345.602 22.6477C345.958 24.6493 346.776 26.5402 347.99 28.1701C349.205 29.7999 350.784 31.1236 352.6 32.0359C354.417 32.9482 356.421 33.4239 358.453 33.4251C358.538 33.4307 358.617 33.4682 358.675 33.5301C358.733 33.5919 358.765 33.6735 358.765 33.7582C358.765 33.8429 358.733 33.9244 358.675 33.9862C358.617 34.0481 358.538 34.0856 358.453 34.0912L358.459 34.0868Z" fill="white" fill-opacity="0.3"/>
<path d="M376.768 34.0905C374.631 34.0902 372.524 33.5914 370.615 32.634C368.705 31.6765 367.045 30.2867 365.766 28.5751C364.488 26.8635 363.627 24.8773 363.251 22.7744C362.875 20.6715 362.996 18.51 363.602 16.4618C364.209 14.4135 365.285 12.535 366.745 10.9757C368.205 9.41632 370.009 8.21911 372.014 7.47925C374.018 6.73939 376.167 6.4773 378.29 6.71382C380.414 6.95034 382.453 7.67894 384.245 8.84168C384.319 8.88983 384.371 8.9654 384.389 9.05175C384.407 9.1381 384.391 9.22818 384.342 9.30215C384.294 9.37613 384.219 9.42794 384.132 9.4462C384.046 9.46446 383.956 9.44766 383.882 9.39951C382.176 8.2935 380.237 7.60053 378.216 7.37573C376.196 7.15093 374.151 7.4005 372.244 8.10457C370.338 8.80865 368.621 9.94782 367.232 11.4315C365.843 12.9152 364.819 14.7025 364.242 16.6513C363.665 18.6 363.551 20.6565 363.908 22.6572C364.266 24.6579 365.085 26.5477 366.301 28.1762C367.517 29.8047 369.097 31.127 370.914 32.0381C372.731 32.9492 374.735 33.4238 376.768 33.4243C376.814 33.4213 376.859 33.4276 376.902 33.443C376.945 33.4584 376.985 33.4824 377.018 33.5136C377.052 33.5449 377.078 33.5826 377.096 33.6245C377.115 33.6665 377.124 33.7117 377.124 33.7574C377.124 33.8031 377.115 33.8483 377.096 33.8902C377.078 33.9321 377.052 33.9699 377.018 34.0011C376.985 34.0323 376.945 34.0564 376.902 34.0717C376.859 34.0871 376.814 34.0935 376.768 34.0905Z" fill="white" fill-opacity="0.3"/>
<path d="M269.737 36.1254C269.352 36.1249 268.972 36.0514 268.619 35.9095C268.267 35.7677 267.951 35.5605 267.69 35.3011C267.661 35.2721 267.639 35.2381 267.624 35.201C267.609 35.164 267.603 35.1247 267.605 35.0853C267.607 35.0459 267.617 35.0073 267.635 34.9715C267.653 34.9358 267.679 34.9037 267.711 34.8771C267.742 34.8505 267.78 34.8298 267.82 34.8164C267.861 34.8029 267.903 34.7968 267.947 34.7985C267.99 34.8003 268.032 34.8097 268.071 34.8264C268.11 34.843 268.145 34.8665 268.174 34.8956C268.47 35.1904 268.858 35.3943 269.286 35.4794C269.713 35.5644 270.159 35.5264 270.562 35.3706C270.965 35.2148 271.306 34.9488 271.537 34.609C271.768 34.2692 271.879 33.8723 271.855 33.4725C271.83 33.0728 271.671 32.6898 271.399 32.376C271.128 32.0622 270.757 31.8329 270.337 31.7196C269.917 31.6062 269.47 31.6144 269.055 31.7429C268.641 31.8714 268.28 32.114 268.022 32.4374C267.971 32.5017 267.894 32.5447 267.808 32.5569C267.722 32.5692 267.634 32.5497 267.564 32.5028C267.494 32.4558 267.447 32.3853 267.434 32.3066C267.42 32.228 267.441 32.1477 267.493 32.0834C267.773 31.7322 268.147 31.4526 268.579 31.2713C269.01 31.0901 269.486 31.0132 269.959 31.048C270.433 31.0829 270.889 31.2283 271.284 31.4703C271.678 31.7124 271.999 32.043 272.214 32.4307C272.429 32.8183 272.532 33.25 272.513 33.6844C272.494 34.1189 272.354 34.5416 272.105 34.9123C271.857 35.2829 271.508 35.589 271.094 35.8014C270.679 36.0138 270.212 36.1253 269.737 36.1254Z" fill="white" fill-opacity="0.3"/>
<path d="M287.022 36.1254C286.637 36.1248 286.257 36.0512 285.904 35.9094C285.552 35.7675 285.235 35.5604 284.974 35.3011C284.916 35.2424 284.885 35.1648 284.888 35.0853C284.892 35.0058 284.93 34.9309 284.995 34.8771C285.059 34.8233 285.143 34.7951 285.23 34.7985C285.317 34.802 285.399 34.8369 285.458 34.8956C285.753 35.1916 286.141 35.3969 286.569 35.4832C286.996 35.5696 287.443 35.5328 287.846 35.378C288.25 35.2231 288.592 34.9578 288.825 34.6183C289.057 34.2788 289.17 33.8817 289.146 33.4816C289.123 33.0814 288.965 32.6976 288.693 32.3829C288.422 32.0682 288.052 31.8379 287.632 31.7235C287.212 31.6092 286.764 31.6164 286.349 31.7442C285.934 31.872 285.572 32.1141 285.313 32.4374C285.288 32.4692 285.256 32.4962 285.219 32.5167C285.183 32.5372 285.142 32.5509 285.099 32.5569C285.057 32.563 285.013 32.5613 284.971 32.5521C284.929 32.5428 284.89 32.526 284.855 32.5028C284.82 32.4795 284.791 32.4502 284.769 32.4166C284.746 32.3829 284.731 32.3456 284.725 32.3066C284.718 32.2677 284.72 32.2279 284.73 32.1896C284.74 32.1513 284.758 32.1152 284.784 32.0834C285.064 31.7322 285.438 31.4526 285.87 31.2713C286.301 31.0901 286.777 31.0132 287.25 31.048C287.724 31.0829 288.18 31.2283 288.575 31.4703C288.969 31.7124 289.29 32.043 289.505 32.4307C289.72 32.8183 289.823 33.25 289.804 33.6844C289.785 34.1189 289.645 34.5416 289.396 34.9123C289.148 35.2829 288.8 35.589 288.385 35.8014C287.97 36.0138 287.503 36.1253 287.028 36.1254H287.022Z" fill="white" fill-opacity="0.3"/>
<path d="M304.312 36.1254C303.927 36.1248 303.547 36.0512 303.194 35.9094C302.842 35.7675 302.525 35.5604 302.264 35.3011C302.206 35.2424 302.175 35.1648 302.179 35.0853C302.182 35.0058 302.22 34.9309 302.285 34.8771C302.349 34.8233 302.434 34.7951 302.52 34.7985C302.607 34.802 302.689 34.8369 302.748 34.8956C303.043 35.1916 303.431 35.3969 303.859 35.4832C304.286 35.5696 304.733 35.5328 305.136 35.378C305.54 35.2231 305.882 34.9578 306.115 34.6183C306.347 34.2788 306.46 33.8817 306.436 33.4816C306.413 33.0814 306.255 32.6976 305.983 32.3829C305.712 32.0682 305.342 31.8379 304.922 31.7235C304.502 31.6092 304.054 31.6164 303.639 31.7442C303.224 31.872 302.862 32.1141 302.604 32.4374C302.578 32.4692 302.546 32.4962 302.509 32.5167C302.473 32.5372 302.432 32.5509 302.389 32.5569C302.347 32.563 302.303 32.5613 302.261 32.5521C302.219 32.5428 302.18 32.526 302.145 32.5028C302.11 32.4795 302.081 32.4502 302.059 32.4166C302.036 32.3829 302.021 32.3456 302.015 32.3066C302.008 32.2677 302.01 32.2279 302.02 32.1896C302.03 32.1513 302.048 32.1152 302.074 32.0834C302.354 31.7322 302.728 31.4526 303.16 31.2713C303.592 31.0901 304.067 31.0132 304.54 31.048C305.014 31.0829 305.47 31.2283 305.865 31.4703C306.259 31.7124 306.58 32.043 306.795 32.4307C307.01 32.8183 307.113 33.25 307.094 33.6844C307.075 34.1189 306.935 34.5416 306.686 34.9123C306.438 35.2829 306.09 35.589 305.675 35.8014C305.26 36.0138 304.793 36.1253 304.318 36.1254H304.312Z" fill="white" fill-opacity="0.3"/>
<path d="M322.621 36.1254C322.236 36.1248 321.855 36.0512 321.503 35.9094C321.15 35.7675 320.834 35.5604 320.573 35.3011C320.514 35.2424 320.483 35.1648 320.487 35.0853C320.491 35.0058 320.529 34.9309 320.593 34.8771C320.657 34.8233 320.742 34.7951 320.829 34.7985C320.916 34.802 320.998 34.8369 321.056 34.8956C321.352 35.1916 321.74 35.3969 322.167 35.4832C322.595 35.5696 323.041 35.5328 323.445 35.378C323.849 35.2231 324.191 34.9578 324.423 34.6183C324.656 34.2788 324.768 33.8817 324.745 33.4816C324.721 33.0814 324.563 32.6976 324.292 32.3829C324.021 32.0682 323.65 31.8379 323.23 31.7235C322.811 31.6092 322.363 31.6164 321.948 31.7442C321.533 31.872 321.171 32.1141 320.912 32.4374C320.861 32.5017 320.784 32.5447 320.698 32.5569C320.612 32.5692 320.524 32.5497 320.454 32.5028C320.384 32.4558 320.337 32.3853 320.323 32.3066C320.31 32.228 320.331 32.1477 320.382 32.0834C320.663 31.7322 321.036 31.4526 321.468 31.2713C321.9 31.0901 322.375 31.0132 322.849 31.048C323.323 31.0829 323.779 31.2283 324.173 31.4703C324.568 31.7124 324.888 32.043 325.103 32.4307C325.319 32.8183 325.422 33.25 325.403 33.6844C325.384 34.1189 325.243 34.5416 324.995 34.9123C324.746 35.2829 324.398 35.589 323.984 35.8014C323.569 36.0138 323.102 36.1253 322.627 36.1254H322.621Z" fill="white" fill-opacity="0.3"/>
<path d="M340.928 36.1254C340.543 36.1249 340.162 36.0514 339.81 35.9095C339.458 35.7677 339.141 35.5605 338.881 35.3011C338.85 35.2725 338.826 35.2384 338.809 35.2009C338.793 35.1635 338.785 35.1233 338.786 35.083C338.787 35.0426 338.797 35.0029 338.815 34.9661C338.833 34.9294 338.859 34.8963 338.892 34.869C338.924 34.8417 338.962 34.8207 339.004 34.8072C339.046 34.7937 339.09 34.788 339.134 34.7905C339.178 34.793 339.221 34.8036 339.26 34.8216C339.299 34.8397 339.335 34.8649 339.363 34.8956C339.658 35.1916 340.046 35.3969 340.474 35.4832C340.901 35.5696 341.348 35.5328 341.752 35.378C342.156 35.2231 342.497 34.9578 342.73 34.6183C342.963 34.2788 343.075 33.8817 343.051 33.4816C343.028 33.0814 342.87 32.6976 342.599 32.3829C342.328 32.0682 341.957 31.8379 341.537 31.7235C341.117 31.6092 340.669 31.6164 340.254 31.7442C339.839 31.872 339.478 32.1141 339.219 32.4374C339.167 32.5017 339.09 32.5447 339.004 32.5569C338.919 32.5692 338.831 32.5497 338.761 32.5028C338.69 32.4558 338.643 32.3853 338.63 32.3066C338.616 32.228 338.638 32.1477 338.689 32.0834C338.969 31.7322 339.343 31.4526 339.775 31.2713C340.207 31.0901 340.682 31.0132 341.156 31.048C341.629 31.0829 342.085 31.2283 342.48 31.4703C342.875 31.7124 343.195 32.043 343.41 32.4307C343.625 32.8183 343.728 33.25 343.709 33.6844C343.69 34.1189 343.55 34.5416 343.301 34.9123C343.053 35.2829 342.705 35.589 342.29 35.8014C341.876 36.0138 341.408 36.1253 340.933 36.1254H340.928Z" fill="white" fill-opacity="0.3"/>
<path d="M359.236 36.1254C358.851 36.1248 358.47 36.0512 358.118 35.9094C357.766 35.7675 357.449 35.5604 357.188 35.3011C357.129 35.2424 357.099 35.1648 357.102 35.0853C357.106 35.0058 357.144 34.9309 357.208 34.8771C357.273 34.8233 357.357 34.7951 357.444 34.7985C357.531 34.802 357.613 34.8369 357.672 34.8956C357.967 35.1916 358.355 35.3969 358.782 35.4832C359.21 35.5696 359.656 35.5328 360.06 35.378C360.464 35.2231 360.806 34.9578 361.038 34.6183C361.271 34.2788 361.383 33.8817 361.36 33.4816C361.336 33.0814 361.178 32.6976 360.907 32.3829C360.636 32.0682 360.265 31.8379 359.846 31.7235C359.426 31.6092 358.978 31.6164 358.563 31.7442C358.148 31.872 357.786 32.1141 357.527 32.4374C357.476 32.5017 357.399 32.5447 357.313 32.5569C357.227 32.5692 357.139 32.5497 357.069 32.5028C356.999 32.4558 356.952 32.3853 356.938 32.3066C356.925 32.228 356.946 32.1477 356.998 32.0834C357.278 31.7322 357.652 31.4526 358.083 31.2713C358.515 31.0901 358.991 31.0132 359.464 31.048C359.938 31.0829 360.394 31.2283 360.788 31.4703C361.183 31.7124 361.503 32.043 361.719 32.4307C361.934 32.8183 362.037 33.25 362.018 33.6844C361.999 34.1189 361.858 34.5416 361.61 34.9123C361.362 35.2829 361.013 35.589 360.599 35.8014C360.184 36.0138 359.717 36.1253 359.242 36.1254H359.236Z" fill="white" fill-opacity="0.3"/>
<path d="M175.788 33.3714V51.0705C175.788 68.3813 166.177 82.4129 154.323 82.4129C142.469 82.4129 132.858 96.4445 132.858 113.755C132.858 115.297 133.737 116.558 134.82 116.558L200.048 120.085C217.824 120.085 223.838 95.5216 223.838 69.5725V31.7958C223.838 21.4758 218.106 13.1097 211.037 13.1097H189.67C181.997 13.1177 175.788 22.1805 175.788 33.3714Z" fill="#0091FE" fill-opacity="0.12"/>
<path d="M199.841 121.085L135.217 117.552C133.905 117.552 132.858 116.131 132.858 114.315C132.858 96.7675 142.594 82.4932 154.56 82.4932C166.044 82.4932 175.384 68.6157 175.384 51.5575V33.8378C175.384 22.4135 181.742 13.1097 189.569 13.1097H210.725C217.957 13.1097 223.838 21.7 223.838 32.2604V70.0808C223.842 85.4094 221.509 121.085 199.841 121.085ZM189.569 13.9956C182.232 13.9956 176.258 22.8965 176.258 33.8378V51.5575C176.258 69.1047 166.523 83.3791 154.556 83.3791C143.074 83.3791 133.733 97.2566 133.733 114.315C133.733 115.59 134.422 116.668 135.237 116.668L199.861 120.201C220.707 120.201 222.96 85.1428 222.96 70.0708V32.2604C222.96 22.189 217.468 13.9956 210.721 13.9956H189.569Z" fill="white"/>
<path d="M178.848 109.088H173.85V173.073H178.848V109.088Z" fill="white"/>
<path d="M179.408 173.073H174.29C174.173 173.073 174.061 173.027 173.979 172.944C173.896 172.861 173.85 172.749 173.85 172.632V109.53C173.85 109.413 173.896 109.3 173.979 109.217C174.061 109.135 174.173 109.088 174.29 109.088H179.408C179.525 109.088 179.637 109.135 179.719 109.217C179.802 109.3 179.848 109.413 179.848 109.53V172.632C179.848 172.749 179.802 172.861 179.719 172.944C179.637 173.027 179.525 173.073 179.408 173.073ZM174.732 172.19H178.967V109.972H174.732V172.19Z" fill="black"/>
<path d="M170.642 88.9633C170.642 88.9633 132.965 79.0108 109.794 87.5621C108.674 87.9776 107.704 88.7148 107.007 89.68C106.31 90.6453 105.917 91.7949 105.879 92.9826C105.639 100.005 108.168 116.631 129.168 146.08L141.03 145.633L130.018 107.617L175.848 113.246L170.642 88.9633Z" fill="black"/>
<path d="M212.346 91.0921C212.346 91.0921 217.71 97.4848 215.144 110.34C214.735 112.405 213.687 114.291 212.146 115.734C210.604 117.177 208.648 118.103 206.55 118.384L164.58 116.343C164.58 116.343 182.014 147.551 180.729 164.262C180.729 164.262 176.166 168.335 170.514 170.074C170.514 170.074 147.49 133.626 137.849 114.323C136.884 112.41 136.613 110.224 137.081 108.135C137.549 106.046 138.727 104.181 140.417 102.856C146.123 98.4289 156.921 92.905 175.304 92.8592C206.029 92.7817 212.346 91.0921 212.346 91.0921Z" fill="black"/>
<path d="M167.445 121.085C167.372 121.085 167.3 121.064 167.237 121.024C167.174 120.984 167.123 120.927 167.088 120.858L160.903 108.735C160.851 108.634 160.839 108.514 160.869 108.403C160.899 108.292 160.969 108.198 161.064 108.142C161.158 108.086 161.27 108.073 161.374 108.106C161.477 108.138 161.565 108.213 161.617 108.315L167.8 120.44C167.826 120.49 167.842 120.545 167.848 120.602C167.854 120.659 167.85 120.716 167.835 120.771C167.82 120.827 167.795 120.878 167.762 120.923C167.728 120.967 167.687 121.004 167.64 121.032C167.58 121.067 167.513 121.086 167.445 121.085Z" fill="white"/>
<path d="M137.328 108.088H137.279C137.218 108.083 137.159 108.066 137.105 108.039C137.051 108.012 137.003 107.975 136.964 107.93C136.925 107.886 136.895 107.834 136.877 107.779C136.86 107.724 136.854 107.666 136.86 107.608C137.791 99.3519 150.737 96.2298 151.289 96.1014C151.407 96.0764 151.531 96.096 151.634 96.156C151.737 96.2161 151.811 96.3117 151.84 96.4226C151.87 96.5334 151.851 96.6505 151.79 96.7489C151.728 96.8472 151.628 96.9189 151.511 96.9486C151.383 96.9782 138.643 100.053 137.783 107.701C137.77 107.807 137.717 107.904 137.633 107.976C137.549 108.047 137.441 108.087 137.328 108.088Z" fill="white"/>
<path d="M142.942 44.1055C141.437 43.7075 135.408 85.8146 113.863 86.0932L133.832 85.2733C133.832 85.2733 151.401 66.3948 151.847 53.904C152.16 45.2736 142.942 44.1055 142.942 44.1055Z" fill="white"/>
<path d="M114.308 86.0929C114.193 86.0953 114.081 86.0511 113.997 85.9701C113.914 85.8891 113.866 85.7779 113.863 85.661C113.861 85.5441 113.905 85.431 113.985 85.3466C114.065 85.2622 114.175 85.2135 114.29 85.2111L115.188 85.1732C130.751 84.0539 137.647 59.0553 140.624 48.2637C141.869 43.7488 142.114 42.9587 142.794 43.1223C143.368 43.2101 152.149 44.6905 151.847 53.3931C151.411 65.9344 134.838 84.3492 134.134 85.1153C134.095 85.1583 134.048 85.1931 133.996 85.2177C133.944 85.2424 133.888 85.2564 133.83 85.259L115.237 86.043C114.932 86.063 114.622 86.077 114.308 86.081V86.0929ZM142.842 44.0281C142.559 44.5488 142.029 46.4761 141.461 48.5071C138.744 58.355 132.818 79.8303 119.94 84.9797L133.613 84.4031C135.144 82.6813 150.579 65.0386 150.973 53.3692C151.247 45.7798 144.096 44.2276 142.842 44.0281Z" fill="black"/>
<path d="M172.123 31.2567C161.562 30.5778 147.373 32.1457 146.006 36.803L135.858 50.8798L144.546 67.6984L152.823 61.055C154.83 67.8135 156.265 72.693 156.265 72.693C156.265 72.693 155.224 92.7929 170.917 94.5993C186.61 96.4056 212.841 92.6555 212.841 92.6555C212.841 92.6555 205.471 33.4025 172.123 31.2567Z" fill="white"/>
<path d="M181.409 95.0887C178.052 95.1132 174.696 94.9522 171.357 94.6064C155.921 92.8567 156.242 74.0062 156.287 72.6172C156.11 72.0194 154.821 67.7128 153.047 61.8299L145.274 67.9798C145.223 68.0201 145.164 68.0487 145.101 68.0636C145.038 68.0785 144.973 68.0793 144.909 68.066C144.846 68.0527 144.786 68.0256 144.735 67.9865C144.683 67.9475 144.641 67.8976 144.61 67.8403L135.909 51.2498C135.871 51.1769 135.854 51.0948 135.86 51.0128C135.866 50.9307 135.894 50.8519 135.943 50.7854L146.055 36.961C147.69 31.9669 162.551 30.6137 172.642 31.2534C186.477 32.1303 197.993 42.9695 205.939 62.5991C211.918 77.3562 213.817 92.0476 213.837 92.1951C213.852 92.3101 213.82 92.4261 213.75 92.5181C213.679 92.6102 213.575 92.6709 213.461 92.6873C213.249 92.7172 196.189 95.0887 181.409 95.0887ZM153.276 60.6421C153.321 60.6419 153.365 60.6486 153.408 60.662C153.476 60.6835 153.538 60.7214 153.589 60.7725C153.639 60.8236 153.676 60.8863 153.697 60.955C155.709 67.6231 157.146 72.4359 157.146 72.4359C157.16 72.4837 157.166 72.5335 157.164 72.5833C157.164 72.7826 156.329 92.0157 171.45 93.7315C185.832 95.3617 209.407 92.3366 212.905 91.8742C212.544 89.3453 210.479 76.1545 205.118 62.914C199.671 49.4682 189.606 33.2104 172.588 32.1323C161.132 31.4069 148.074 33.3041 146.878 37.2878C146.865 37.3359 146.842 37.3811 146.813 37.4213L136.818 51.0844L145.145 66.9595L153.009 60.7298C153.086 60.6715 153.18 60.6406 153.276 60.6421Z" fill="black"/>
<path d="M152.43 61.0986C152.328 61.0986 152.229 61.0617 152.152 60.9945C152.075 60.9273 152.025 60.8345 152.011 60.7332L149.86 45.5875C149.852 45.5322 149.855 45.4759 149.869 45.4218C149.883 45.3677 149.907 45.3168 149.941 45.2722C149.974 45.2275 150.016 45.1899 150.064 45.1615C150.112 45.1331 150.166 45.1144 150.221 45.1066C150.276 45.0988 150.332 45.1019 150.386 45.1159C150.44 45.1298 150.491 45.1543 150.536 45.1878C150.58 45.2214 150.618 45.2635 150.646 45.3116C150.674 45.3597 150.693 45.4129 150.701 45.4682L152.85 60.6139C152.858 60.6691 152.856 60.7254 152.842 60.7795C152.828 60.8336 152.804 60.8845 152.771 60.9292C152.737 60.9739 152.695 61.0115 152.647 61.04C152.599 61.0684 152.546 61.087 152.491 61.0948C152.471 61.098 152.45 61.0993 152.43 61.0986Z" fill="black"/>
<path d="M166.959 28.8904L177.849 32.6415C161.517 37.5726 154.156 33.5762 154.156 33.5762L158.413 31.5486L157.359 29.0871C156.285 29.6021 155.271 30.1658 154.508 29.8515C152.744 29.1236 151.783 26.1593 151.783 26.1593L150.978 26.2586C150.92 26.2671 150.86 26.2626 150.804 26.2454C150.748 26.2282 150.696 26.1988 150.652 26.1593C150.607 26.1204 150.571 26.0725 150.546 26.0187C150.521 25.965 150.507 25.9065 150.505 25.847C150.457 24.2249 150.517 23.0347 150.063 21.6661C149.608 20.2974 149.272 20.3319 148.855 17.0533L156.118 12.11L159.809 17.6007C159.809 17.6007 160.441 16.1145 161.801 16.6214C162.789 16.9904 163.237 20.1575 162.314 20.7841L166.959 28.8904Z" fill="white"/>
<path d="M162.955 35.1048C157.178 35.1048 154.402 33.6676 154.218 33.5701C154.148 33.532 154.09 33.4753 154.05 33.4063C154.01 33.3373 153.99 33.2586 153.992 33.179C153.995 33.0994 154.018 33.0218 154.062 32.9549C154.105 32.888 154.166 32.8344 154.238 32.7998L157.993 31.0214L157.312 29.4477C156.336 29.9177 155.417 30.333 154.601 29.9996C153.08 29.3756 152.151 27.3339 151.833 26.5188L151.4 26.5734C151.283 26.5887 151.165 26.5792 151.052 26.5456C150.939 26.512 150.835 26.455 150.746 26.3784C150.658 26.3019 150.586 26.208 150.536 26.1026C150.486 25.9973 150.458 25.8827 150.455 25.7661C150.455 25.5106 150.443 25.2649 150.437 25.0289C150.416 23.8433 150.396 22.9073 150.047 21.8679C149.938 21.5442 149.834 21.3024 149.735 21.0684C149.44 20.382 149.163 19.7327 148.858 17.3497C148.849 17.2698 148.863 17.189 148.897 17.1163C148.932 17.0436 148.986 16.982 149.053 16.9383L156.102 12.1841C156.149 12.1524 156.201 12.1302 156.257 12.1188C156.312 12.1074 156.369 12.1071 156.425 12.1177C156.48 12.1284 156.533 12.15 156.58 12.1811C156.627 12.2122 156.668 12.2523 156.699 12.2991L159.914 17.0397C160.155 16.7316 160.489 16.5101 160.866 16.4084C161.244 16.3068 161.644 16.3305 162.007 16.4761C162.741 16.7472 163.123 17.8548 163.237 18.7986C163.281 19.1711 163.367 20.2943 162.891 20.9436L167.144 28.3245L177.556 31.8794C177.643 31.9088 177.718 31.965 177.771 32.0398C177.823 32.1146 177.851 32.2042 177.849 32.2956C177.847 32.387 177.816 32.4754 177.761 32.5482C177.706 32.6209 177.628 32.6742 177.541 32.7004C171.419 34.5353 166.592 35.1048 162.955 35.1048ZM155.493 33.1547C157.734 33.9347 164.373 35.4753 175.977 32.2538L166.707 29.087C166.608 29.0533 166.524 28.9838 166.473 28.892L161.983 21.0918C161.929 20.9974 161.913 20.8861 161.937 20.7801C161.962 20.6741 162.026 20.5814 162.116 20.5205C162.323 20.3801 162.487 19.7639 162.382 18.8961C162.276 18.0283 161.95 17.3673 161.708 17.2776C160.783 16.9363 160.342 17.9425 160.322 17.9854C160.292 18.0565 160.243 18.1181 160.18 18.1637C160.118 18.2093 160.044 18.2372 159.967 18.2446C159.89 18.252 159.812 18.2385 159.742 18.2056C159.672 18.1727 159.612 18.1216 159.569 18.0576L156.229 13.1338L149.76 17.4979C150.031 19.5455 150.267 20.0934 150.541 20.7233C150.648 20.9729 150.759 21.2322 150.878 21.5891C151.269 22.7591 151.288 23.7965 151.312 25.0055C151.312 25.2396 151.312 25.4814 151.329 25.7349L152.079 25.6179C152.179 25.6056 152.279 25.6283 152.364 25.682C152.449 25.7357 152.512 25.8171 152.544 25.9123C152.544 25.9377 153.436 28.5839 154.941 29.2001C155.432 29.3951 156.227 29.0187 157.068 28.6151L157.357 28.4747C157.41 28.4494 157.467 28.435 157.525 28.4323C157.584 28.4297 157.642 28.4388 157.697 28.4592C157.751 28.4796 157.801 28.5108 157.844 28.551C157.886 28.5912 157.92 28.6395 157.943 28.6931L158.966 31.0604C159.01 31.1628 159.012 31.2783 158.973 31.3827C158.934 31.4871 158.856 31.5721 158.755 31.6201L155.493 33.1547Z" fill="black"/>
<path d="M162.85 16.6311C162.85 16.6311 160.552 16.4426 160.715 17.4249C160.941 18.7957 161.227 19.0672 160.961 19.6103C160.878 19.756 160.756 19.8788 160.607 19.9661C160.458 20.0535 160.287 20.1024 160.112 20.108C159.437 20.1175 159.214 19.0521 158.018 17.8699C157.619 17.472 157.169 17.1224 156.678 16.8291C154.357 15.5281 151.725 18.4695 148.905 17.6248C147.028 17.0591 145.543 14.9643 145.912 13.5502C146.066 12.9581 146.593 12.2982 151.216 10.867C155.895 9.41896 158.227 8.69491 159.629 9.35862C162.924 10.9198 162.86 16.237 162.85 16.6311Z" fill="black"/>
<path d="M157.313 29.1058C157.215 29.1047 157.12 29.0749 157.042 29.0206C156.963 28.9663 156.905 28.8903 156.875 28.8034C156.846 28.7164 156.846 28.623 156.877 28.5364C156.907 28.4498 156.967 28.3744 157.046 28.3209L158.991 27.0434C159.322 26.8267 159.582 26.5286 159.742 26.1822C159.903 25.8357 159.957 25.4546 159.899 25.0812L159.824 24.5788C159.813 24.4682 159.848 24.3581 159.922 24.2711C159.996 24.1842 160.103 24.127 160.221 24.1114C160.339 24.0958 160.459 24.123 160.556 24.1873C160.653 24.2516 160.719 24.3482 160.742 24.4572L160.82 24.9575C160.903 25.4899 160.826 26.0334 160.598 26.5274C160.37 27.0214 159.999 27.4466 159.527 27.7557L157.58 29.0332C157.501 29.0831 157.408 29.1085 157.313 29.1058Z" fill="black"/>
<path d="M200.843 49.8698C200.843 49.8698 200.101 71.8007 195.117 80.3306C189.163 90.5161 159.134 76.7969 159.134 76.7969L155.642 74.8071C154.474 74.1397 153.181 73.7242 151.844 73.5872C150.508 73.4501 149.158 73.5946 147.88 74.0113L144.811 75.0061C144.657 75.0561 144.49 75.053 144.337 74.9973C144.185 74.9416 144.055 74.8365 143.969 74.6985C143.882 74.5605 143.844 74.3976 143.86 74.2353C143.876 74.073 143.945 73.9207 144.057 73.8023C145.775 71.9658 148.446 69.3593 150.86 68.046C152.713 67.0392 155.113 67.9863 157.145 69.2817C160.68 71.5032 164.798 72.6087 168.965 72.4553L180.865 72.0971C181.838 72.0666 182.766 71.677 183.471 71.0028C184.176 70.3286 184.61 69.417 184.689 68.442L186.488 43.1028L200.843 49.8698Z" fill="white"/>
<path d="M186.279 85.0934C175.249 85.0934 159.602 77.9738 158.694 77.557L155.097 75.4875C153.96 74.8343 152.701 74.4274 151.401 74.2927C150.1 74.158 148.786 74.2984 147.542 74.7051L144.414 75.7265C144.162 75.8089 143.89 75.8041 143.642 75.7129C143.393 75.6217 143.181 75.4492 143.04 75.2228C142.899 74.9963 142.836 74.7287 142.862 74.4622C142.888 74.1957 143.001 73.9455 143.183 73.751C145.027 71.7673 147.748 69.1156 150.231 67.755C151.971 66.8009 154.267 67.234 157.093 69.0379C160.62 71.275 164.731 72.3861 168.891 72.227L181.021 71.8592C181.902 71.8309 182.742 71.476 183.381 70.8621C184.02 70.2482 184.414 69.418 184.489 68.5292L186.317 42.5225C186.323 42.4493 186.345 42.3785 186.384 42.3161C186.422 42.2538 186.475 42.2019 186.537 42.1648C186.6 42.1278 186.671 42.1068 186.743 42.1036C186.815 42.1005 186.888 42.1152 186.953 42.1466L201.586 49.0926C201.665 49.1299 201.732 49.1898 201.777 49.265C201.823 49.3402 201.846 49.4274 201.843 49.5155C201.81 50.441 201.023 72.2494 195.943 81.0055C194.199 84.0045 190.59 85.0934 186.279 85.0934ZM150.437 73.3404C152.225 73.3391 153.982 73.8087 155.537 74.703L159.097 76.746C159.364 76.8665 189.373 90.5277 195.172 80.5377C199.824 72.5171 200.823 52.4574 200.937 49.7729L187.159 43.2355L185.371 68.5967C185.279 69.7069 184.787 70.7443 183.989 71.5116C183.19 72.2788 182.142 72.7225 181.041 72.7581L168.911 73.1259C164.57 73.2916 160.28 72.132 156.599 69.7979C154.869 68.6845 152.431 67.565 150.644 68.5456C148.267 69.849 145.623 72.4272 143.822 74.3659C143.774 74.4139 143.745 74.4775 143.738 74.5455C143.732 74.6135 143.75 74.6816 143.788 74.7377C143.821 74.7967 143.873 74.8419 143.935 74.8651C143.998 74.8884 144.067 74.8881 144.129 74.8644L147.258 73.8429C148.285 73.5073 149.357 73.3377 150.437 73.3404Z" fill="black"/>
<path d="M176.849 32.1053C191.232 32.5564 202.919 41.1268 205.842 62.0985L182.241 59.6166L176.849 32.1053Z" fill="white"/>
<path d="M206.396 62.0985H206.35L182.661 59.6372C182.566 59.6274 182.478 59.588 182.408 59.5246C182.337 59.4613 182.29 59.3775 182.272 59.2856L180.988 52.8273C180.965 52.713 180.99 52.5944 181.056 52.4977C181.122 52.4011 181.224 52.3342 181.34 52.3118C181.456 52.2894 181.576 52.3133 181.674 52.3783C181.772 52.4434 181.84 52.5441 181.863 52.6584L183.082 58.7989L205.874 61.1629C203.17 43.2203 193.291 33.4803 177.28 32.9836C177.222 32.9818 177.164 32.9686 177.111 32.9449C177.057 32.9211 177.009 32.8873 176.969 32.8452C176.929 32.8031 176.898 32.7537 176.877 32.6998C176.857 32.6458 176.847 32.5883 176.849 32.5307C176.851 32.473 176.864 32.4163 176.888 32.3637C176.912 32.3112 176.947 32.2638 176.989 32.2243C177.032 32.1848 177.082 32.154 177.137 32.1337C177.192 32.1133 177.25 32.1037 177.308 32.1056C188.93 32.4671 203.488 37.8666 206.838 61.5979C206.846 61.6601 206.841 61.7234 206.823 61.7836C206.805 61.8438 206.774 61.8994 206.732 61.9468C206.69 61.9942 206.639 62.0323 206.581 62.0584C206.523 62.0846 206.46 62.0983 206.396 62.0985Z" fill="black"/>
<path d="M153.305 28.1063C153.197 28.106 153.093 28.0679 153.011 27.999C152.929 27.9301 152.876 27.8349 152.86 27.7306C152.843 27.6263 152.866 27.5199 152.923 27.4306C152.981 27.3412 153.069 27.2749 153.172 27.2435L157.667 25.8954C158.72 25.5791 159.624 24.9077 160.217 24.001C160.811 23.0943 161.056 22.011 160.908 20.9443L160.593 18.6076C160.586 18.55 160.59 18.4915 160.605 18.4355C160.621 18.3794 160.647 18.3269 160.684 18.2809C160.72 18.2349 160.765 18.1963 160.817 18.1674C160.868 18.1385 160.925 18.1197 160.984 18.1123C161.043 18.1048 161.103 18.1087 161.16 18.1239C161.217 18.139 161.271 18.165 161.318 18.2004C161.365 18.2358 161.405 18.28 161.434 18.3303C161.464 18.3806 161.483 18.4362 161.491 18.4937L161.803 20.8305C161.978 22.1055 161.684 23.3998 160.973 24.4824C160.261 25.5649 159.18 26.3651 157.921 26.7402L153.425 28.0883C153.386 28.0993 153.345 28.1054 153.305 28.1063Z" fill="black"/>
<path d="M162.375 18.1086C162.274 18.1082 162.176 18.0803 162.095 18.0289C162.013 17.9775 161.953 17.9052 161.921 17.8222C161.887 17.7324 158.479 8.83946 153.461 10.0559C153.4 10.0705 153.337 10.0747 153.275 10.0681C153.212 10.0616 153.152 10.0445 153.098 10.0179C153.043 9.99119 152.995 9.95544 152.956 9.91268C152.918 9.86991 152.889 9.82096 152.872 9.76861C152.855 9.71626 152.85 9.66155 152.858 9.60759C152.865 9.55363 152.885 9.5015 152.916 9.45415C152.947 9.40679 152.988 9.36515 153.037 9.33161C153.087 9.29807 153.143 9.27328 153.204 9.25865C159.09 7.83264 162.679 17.1672 162.828 17.5658C162.848 17.6175 162.856 17.6719 162.851 17.7261C162.846 17.7803 162.829 17.8331 162.801 17.8816C162.773 17.9301 162.734 17.9732 162.686 18.0087C162.639 18.0441 162.583 18.071 162.524 18.088C162.476 18.1012 162.425 18.1081 162.375 18.1086Z" fill="white"/>
<path d="M152.204 28.589C151.949 28.2831 151.825 27.8888 151.86 27.4924C151.896 27.0959 152.087 26.7294 152.392 26.473C152.54 26.344 152.713 26.2456 152.9 26.1834C153.087 26.1212 153.284 26.0965 153.48 26.1107C153.677 26.1249 153.868 26.1776 154.044 26.266C154.22 26.3543 154.377 26.4764 154.505 26.6254C154.76 26.9312 154.883 27.3252 154.848 27.7214C154.812 28.1175 154.621 28.4835 154.315 28.7392C154.167 28.8682 153.995 28.9668 153.808 29.0291C153.622 29.0914 153.425 29.1163 153.228 29.1024C153.032 29.0884 152.841 29.0358 152.665 28.9477C152.489 28.8596 152.332 28.7377 152.204 28.589Z" fill="black"/>
<path d="M156.574 20.9935C155.327 18.9192 155.739 16.2329 157.494 14.9928C157.866 14.7568 158.25 14.541 158.642 14.3465C160.328 13.6113 161.826 14.6575 162.931 16.5036C164.127 18.495 164.27 20.8703 162.689 22.1588C162.622 22.2134 162.127 22.5305 162.049 22.5628C160.004 23.6635 157.824 23.0738 156.574 20.9935Z" fill="black"/>
<path d="M162.886 21.36C164.815 20.2164 165.365 17.5803 164.115 15.4721C162.864 13.3639 160.287 12.5819 158.359 13.7255C156.431 14.8692 155.881 17.5053 157.131 19.6135C158.381 21.7217 160.958 22.5036 162.886 21.36Z" fill="white"/>
<path d="M161.207 23.1074C160.835 23.1065 160.463 23.0651 160.1 22.9841C158.687 22.6527 157.468 21.7977 156.708 20.6055C155.166 18.2206 155.768 15.171 158.054 13.7831C158.578 13.4699 159.163 13.2602 159.772 13.1662C160.382 13.0722 161.005 13.0957 161.605 13.2355C163.018 13.5668 164.237 14.421 164.998 15.612C166.539 17.999 165.935 21.0591 163.651 22.4365C162.919 22.8774 162.071 23.11 161.207 23.1074ZM160.498 14.036C159.815 14.0333 159.144 14.2166 158.565 14.5648C156.727 15.6726 156.262 18.1641 157.525 20.1185C158.151 21.1014 159.154 21.8074 160.318 22.0832C160.795 22.1957 161.291 22.2155 161.776 22.1416C162.262 22.0677 162.727 21.9015 163.145 21.6527C164.982 20.5449 165.448 18.0554 164.184 16.1011C163.56 15.1173 162.556 14.4104 161.392 14.1343C161.101 14.0722 160.805 14.0413 160.507 14.0423L160.498 14.036Z" fill="black"/>
<path d="M162.104 86.0931H112.611C112.198 86.0931 111.863 86.4225 111.863 86.8288V90.3564C111.863 90.7626 112.198 91.092 112.611 91.092H162.104C162.517 91.092 162.852 90.7626 162.852 90.3564V86.8288C162.852 86.4225 162.517 86.0931 162.104 86.0931Z" fill="white"/>
<path d="M162.656 91.092H113.059C112.742 91.0915 112.438 90.965 112.214 90.7404C111.99 90.5158 111.864 90.2112 111.863 89.8935V86.2919C111.864 85.9742 111.99 85.6697 112.214 85.445C112.438 85.2204 112.742 85.0939 113.059 85.0934H162.656C162.813 85.0934 162.968 85.1244 163.113 85.1846C163.258 85.2448 163.39 85.3331 163.501 85.4444C163.612 85.5557 163.7 85.6878 163.76 85.8333C163.821 85.9787 163.851 86.1345 163.851 86.2919V89.8935C163.851 90.2112 163.725 90.5158 163.501 90.7404C163.276 90.965 162.973 91.0915 162.656 91.092ZM113.059 85.9882C112.979 85.9882 112.902 86.0202 112.845 86.0772C112.788 86.1341 112.756 86.2113 112.756 86.2919V89.8935C112.756 89.974 112.788 90.0513 112.845 90.1082C112.902 90.1652 112.979 90.1972 113.059 90.1972H162.656C162.736 90.1972 162.813 90.1652 162.87 90.1082C162.927 90.0513 162.959 89.974 162.959 89.8935V86.2919C162.959 86.2113 162.927 86.1341 162.87 86.0772C162.813 86.0202 162.736 85.9882 162.656 85.9882H113.059Z" fill="black"/>
<path d="M101.829 79.4839L164.92 79.6187C165.043 79.6257 165.167 79.606 165.282 79.5609C165.397 79.5158 165.5 79.4465 165.585 79.3576C165.671 79.2688 165.735 79.1626 165.775 79.0464C165.815 78.9303 165.829 78.8069 165.816 78.6848L162.981 40.4396C162.911 39.5078 162.035 38.6294 161.073 38.6294L98.8359 38.6849L101.829 79.4839Z" fill="black"/>
<path d="M102.065 80.0934H163.95C164.074 80.0998 164.198 80.0794 164.313 80.0337C164.428 79.988 164.531 79.9179 164.617 79.8285C164.702 79.739 164.767 79.6321 164.806 79.5153C164.846 79.3985 164.86 79.2744 164.847 79.1517L162.05 41.0959C161.972 40.0387 160.944 39.105 159.853 39.105H98.7689C98.6452 39.0986 98.5216 39.1189 98.4066 39.1646C98.2916 39.2104 98.1879 39.2804 98.1027 39.3699C98.0174 39.4594 97.9526 39.5662 97.9128 39.6831C97.8729 39.7999 97.859 39.9239 97.8718 40.0467L100.729 78.8809C100.772 79.2079 100.929 79.5092 101.174 79.7312C101.419 79.9532 101.735 80.0815 102.065 80.0934Z" fill="white"/>
<path d="M163.51 81.0941H101.515C101.071 81.0854 100.644 80.9151 100.316 80.6152C99.9884 80.3152 99.7815 79.9062 99.7343 79.4649L96.8723 40.5197C96.8562 40.339 96.878 40.1569 96.9362 39.9851C96.9944 39.8132 97.0879 39.6553 97.2106 39.5214C97.339 39.3861 97.4943 39.279 97.6667 39.2072C97.839 39.1353 98.0245 39.1002 98.2112 39.1041H159.407C160.718 39.1041 161.951 40.2302 162.045 41.514L164.847 79.6785C164.863 79.8592 164.841 80.0413 164.783 80.2131C164.724 80.385 164.631 80.5429 164.508 80.6768C164.38 80.8116 164.225 80.9183 164.053 80.9901C163.881 81.0619 163.696 81.0974 163.51 81.0941ZM98.2132 39.9846C98.148 39.9816 98.0828 39.9921 98.0219 40.0154C97.9609 40.0388 97.9054 40.0745 97.859 40.1204C97.8199 40.1659 97.7906 40.2191 97.7731 40.2764C97.7555 40.3338 97.75 40.3942 97.7569 40.4538L100.619 79.401C100.652 79.619 100.759 79.8189 100.923 79.9667C101.087 80.1145 101.297 80.2011 101.517 80.2116H163.512C163.577 80.2146 163.642 80.2041 163.703 80.1808C163.764 80.1574 163.82 80.1217 163.866 80.0758C163.905 80.0303 163.934 79.9771 163.952 79.9198C163.969 79.8624 163.975 79.802 163.968 79.7424L161.166 41.5759C161.104 40.7433 160.267 39.9786 159.411 39.9786L98.2132 39.9846Z" fill="black"/>
<path d="M139.858 90.0922H130.26L127.865 63.6547C127.855 63.5839 127.861 63.5118 127.882 63.4434C127.902 63.3751 127.937 63.3122 127.985 63.2592C128.032 63.2061 128.09 63.1643 128.155 63.1365C128.22 63.1088 128.291 63.0959 128.361 63.0987H136.337C136.636 63.1035 136.923 63.2217 137.141 63.4301C137.36 63.6386 137.493 63.9221 137.515 64.225L139.858 90.0922Z" fill="black"/>
<path d="M137.858 90.0922H128.229L125.86 64.0981H135.487L137.858 90.0922Z" fill="white"/>
<path d="M138.405 90.0922H128.7C128.587 90.0922 128.479 90.0507 128.395 89.9758C128.312 89.901 128.26 89.7981 128.249 89.6872L125.862 63.5863C125.857 63.5244 125.864 63.462 125.884 63.4031C125.904 63.3442 125.936 63.29 125.979 63.2441C126.021 63.1982 126.073 63.1615 126.13 63.1364C126.188 63.1113 126.25 63.0984 126.313 63.0983H136.016C136.129 63.0983 136.238 63.1397 136.321 63.2145C136.405 63.2894 136.457 63.3923 136.469 63.5033L138.855 89.6063C138.861 89.6682 138.854 89.7306 138.834 89.7896C138.814 89.8485 138.781 89.9026 138.739 89.9484C138.696 89.9938 138.644 90.0299 138.587 90.0546C138.53 90.0794 138.468 90.0921 138.405 90.0922ZM129.113 89.1973H137.916L135.603 63.9912H126.8L129.113 89.1973Z" fill="black"/>
<path d="M122.4 90.0922H147.317C147.614 90.0922 147.855 89.8732 147.855 89.6031V86.5821C147.855 86.312 147.614 86.0931 147.317 86.0931H122.4C122.103 86.0931 121.861 86.312 121.861 86.5821V89.6031C121.861 89.8732 122.103 90.0922 122.4 90.0922Z" fill="black"/>
<path d="M119.863 90.0922H146.856V86.0931H119.863V90.0922Z" fill="white"/>
<path d="M146.422 90.0922H120.295C120.238 90.0922 120.181 90.0823 120.128 90.0629C120.076 90.0435 120.028 90.0151 119.988 89.9793C119.947 89.9435 119.915 89.901 119.894 89.8542C119.872 89.8075 119.861 89.7574 119.861 89.7069V86.4768C119.861 86.375 119.907 86.2774 119.988 86.2055C120.07 86.1336 120.18 86.0931 120.295 86.0931H146.422C146.479 86.0929 146.535 86.1027 146.588 86.1219C146.641 86.1411 146.688 86.1693 146.729 86.205C146.769 86.2407 146.801 86.283 146.823 86.3297C146.844 86.3763 146.855 86.4263 146.855 86.4768V89.7069C146.855 89.7574 146.844 89.8075 146.823 89.8542C146.801 89.901 146.769 89.9435 146.729 89.9793C146.689 90.0151 146.641 90.0435 146.588 90.0629C146.535 90.0823 146.479 90.0922 146.422 90.0922ZM120.724 89.3233H145.988V86.8603H120.728L120.724 89.3233Z" fill="black"/>
<path d="M216.371 182.071C216.228 182.069 216.092 182.024 215.992 181.945C215.893 181.867 215.838 181.763 215.84 181.654L217.757 105.491C217.761 105.383 217.821 105.28 217.924 105.205C218.027 105.13 218.165 105.088 218.308 105.089C218.452 105.091 218.588 105.137 218.688 105.215C218.787 105.294 218.842 105.399 218.839 105.508L216.922 181.671C216.919 181.779 216.859 181.882 216.756 181.957C216.653 182.032 216.514 182.073 216.371 182.071Z" fill="white"/>
<path d="M229.439 177.088H229.41C229.293 177.081 229.183 177.027 229.105 176.938C229.027 176.85 228.987 176.734 228.995 176.616L233.921 96.9836L84.8066 97.2057L91.6033 178.579C91.6155 178.697 91.5807 178.815 91.5065 178.907C91.4323 178.999 91.3247 179.057 91.2075 179.07C91.0903 179.082 90.973 179.047 90.8814 178.972C90.7899 178.898 90.7316 178.79 90.7193 178.672L83.8723 96.8058C83.8662 96.7439 83.873 96.6814 83.8922 96.6223C83.9115 96.5632 83.9429 96.5088 83.9843 96.4625C84.0257 96.4163 84.0763 96.3793 84.1328 96.3539C84.1893 96.3285 84.2504 96.3153 84.3123 96.315L234.391 96.0908C234.451 96.0918 234.511 96.1048 234.567 96.1291C234.622 96.1534 234.672 96.1884 234.714 96.2322C234.756 96.2764 234.789 96.3288 234.809 96.3862C234.83 96.4435 234.839 96.5045 234.835 96.5655L229.88 176.67C229.873 176.783 229.823 176.889 229.741 176.966C229.659 177.044 229.551 177.087 229.439 177.088Z" fill="white"/>
<path d="M235.543 89.0923H82.1622C81.4486 89.0923 80.8701 89.6398 80.8701 90.3152V95.8676C80.8701 96.543 81.4486 97.0905 82.1622 97.0905H235.543C236.256 97.0905 236.835 96.543 236.835 95.8676V90.3152C236.835 89.6398 236.256 89.0923 235.543 89.0923Z" fill="white"/>
<path d="M235.1 98.0904H81.6065C81.1464 98.0899 80.7053 97.894 80.38 97.5458C80.0546 97.1976 79.8716 96.7255 79.8711 96.2331V89.9479C79.8716 89.4557 80.0547 88.9838 80.3801 88.636C80.7055 88.2881 81.1466 88.0927 81.6065 88.0927H235.1C235.56 88.0927 236.001 88.2881 236.326 88.636C236.652 88.9838 236.835 89.4557 236.835 89.9479V96.2331C236.835 96.7255 236.652 97.1976 236.327 97.5458C236.001 97.894 235.56 98.0899 235.1 98.0904ZM81.6065 89.0331C81.3812 89.0331 81.1652 89.1288 81.0057 89.299C80.8462 89.4693 80.7564 89.7004 80.7558 89.9414V96.2267C80.7564 96.4678 80.8462 96.6988 81.0057 96.8691C81.1652 97.0394 81.3812 97.135 81.6065 97.135H235.1C235.212 97.1353 235.322 97.112 235.425 97.0665C235.529 97.021 235.622 96.9541 235.701 96.8697C235.78 96.7854 235.843 96.6851 235.886 96.5748C235.929 96.4644 235.951 96.3462 235.951 96.2267V89.9414C235.951 89.822 235.929 89.7037 235.886 89.5934C235.843 89.483 235.78 89.3828 235.701 89.2984C235.622 89.214 235.529 89.1472 235.425 89.1017C235.322 89.0561 235.212 89.0329 235.1 89.0331H81.6065Z" fill="black"/>
<path d="M124.556 12.7495C126.417 10.8745 128.892 9.84192 131.524 9.84192C134.157 9.84192 136.632 10.8745 138.493 12.7495C140.353 14.6236 141.378 17.1151 141.378 19.765C141.378 21.3211 141.011 22.8658 140.317 24.2451C140.646 25.5642 141.572 26.6633 142.819 27.2049C143.099 27.3183 143.187 27.7066 142.983 27.9293C142.169 28.8662 140.992 29.4036 139.756 29.4036C138.628 29.4036 137.557 28.9595 136.759 28.1734C135.192 29.1655 133.39 29.6882 131.524 29.6882C128.892 29.6882 126.417 28.6556 124.556 26.7805C122.696 24.9064 121.671 22.415 121.671 19.7651C121.671 17.1151 122.696 14.6236 124.556 12.7495ZM131.524 28.7675C133.337 28.7675 135.081 28.2239 136.569 27.1954L136.57 27.1955C136.763 27.0615 137.03 27.0946 137.184 27.2783C137.826 28.0439 138.763 28.4829 139.756 28.4829C140.524 28.4829 141.263 28.2181 141.855 27.7425C140.594 26.9913 139.688 25.7374 139.381 24.2798C139.356 24.1647 139.378 24.0509 139.432 23.9563C140.103 22.6738 140.457 21.225 140.457 19.7651C140.457 14.8011 136.45 10.7626 131.524 10.7626C126.599 10.7626 122.592 14.8011 122.592 19.7651C122.592 24.7291 126.599 28.7675 131.524 28.7675Z" fill="white"/>
<path d="M126.949 20.2254H128.008C128.263 20.2254 128.469 20.0193 128.469 19.7651C128.469 19.5109 128.263 19.3048 128.008 19.3048H126.949C126.695 19.3048 126.489 19.5109 126.489 19.7651C126.489 20.0193 126.695 20.2254 126.949 20.2254Z" fill="white"/>
<path d="M130.987 20.2254H132.046C132.3 20.2254 132.506 20.0193 132.506 19.7651C132.506 19.5109 132.3 19.3048 132.046 19.3048H130.987C130.732 19.3048 130.526 19.5109 130.526 19.7651C130.526 20.0193 130.732 20.2254 130.987 20.2254Z" fill="white"/>
<path d="M135.04 20.2254H136.099C136.353 20.2254 136.56 20.0193 136.56 19.7651C136.56 19.5109 136.353 19.3048 136.099 19.3048H135.04C134.786 19.3048 134.58 19.5109 134.58 19.7651C134.58 20.0193 134.786 20.2254 135.04 20.2254Z" fill="white"/>
</g>
</svg>
