<svg xmlns="http://www.w3.org/2000/svg" width="38" height="33" viewBox="0 0 38 33" fill="none"><path d="M37.0682 14.828C37.0671 13.995 36.7357 13.1964 36.1467 12.6074C35.5577 12.0184 34.7591 11.6871 33.9262 11.686H28.0612C28.9432 9.28732 29.3507 6.74012 29.2612 4.18599C29.258 3.88526 29.2396 3.58488 29.2062 3.28599C29.1853 2.46016 28.8401 1.67575 28.2453 1.10256C27.6504 0.529365 26.8537 0.213508 26.0276 0.223369C25.2016 0.233229 24.4127 0.56801 23.8317 1.15524C23.2506 1.74247 22.9242 2.53489 22.9232 3.36099V4.14699C22.9232 9.11499 16.5432 11.907 11.7282 13.104C11.5447 12.6836 11.2427 12.3258 10.859 12.0743C10.4754 11.8228 10.0268 11.6886 9.56815 11.688H1.71715C1.50869 11.688 1.30877 11.7708 1.16137 11.9182C1.01396 12.0656 0.931152 12.2655 0.931152 12.474V31.328C0.931152 31.5364 1.01396 31.7364 1.16137 31.8838C1.30877 32.0312 1.50869 32.114 1.71715 32.114H9.57315C10.0289 32.1134 10.4747 31.9809 10.8568 31.7325C11.2388 31.484 11.5408 31.1303 11.7262 30.714C12.1262 30.816 12.4962 30.912 12.8362 31.002C15.4038 31.7877 18.0795 32.1627 20.7642 32.113H29.2122C29.7813 32.1131 30.3397 31.9585 30.8278 31.6658C31.3159 31.3731 31.7153 30.9533 31.9834 30.4512C32.2514 29.9492 32.378 29.3837 32.3496 28.8153C32.3212 28.2469 32.1389 27.6968 31.8222 27.224C32.2742 27.0644 32.6839 26.8038 33.0201 26.462C33.3562 26.1202 33.61 25.7062 33.762 25.2516C33.9141 24.7969 33.9604 24.3136 33.8976 23.8384C33.8347 23.3631 33.6642 22.9084 33.3992 22.509C33.8511 22.3498 34.2607 22.0892 34.5964 21.7473C34.9322 21.4055 35.1853 20.9913 35.3364 20.5365C35.4874 20.0817 35.5324 19.5984 35.4679 19.1236C35.4034 18.6488 35.2311 18.195 34.9642 17.797C35.5795 17.5815 36.1126 17.1799 36.4895 16.648C36.8665 16.116 37.0687 15.48 37.0682 14.828ZM10.3582 29.754C10.3582 29.9624 10.2753 30.1624 10.1279 30.3098C9.98053 30.4572 9.78061 30.54 9.57215 30.54H2.50215V13.257H9.57215C9.78061 13.257 9.98053 13.3398 10.1279 13.4872C10.2753 13.6346 10.3582 13.8345 10.3582 14.043V29.754ZM33.9252 16.399H29.9972C29.7937 16.4062 29.601 16.4922 29.4596 16.6387C29.3182 16.7852 29.2392 16.9809 29.2392 17.1845C29.2392 17.3881 29.3182 17.5838 29.4596 17.7303C29.601 17.8768 29.7937 17.9627 29.9972 17.97H32.3542C32.7708 17.97 33.1704 18.1355 33.465 18.4301C33.7596 18.7247 33.9252 19.1243 33.9252 19.541C33.9252 19.9576 33.7596 20.3572 33.465 20.6519C33.1704 20.9465 32.7708 21.112 32.3542 21.112H28.4312C28.3256 21.1082 28.2205 21.1258 28.1219 21.1635C28.0233 21.2013 27.9333 21.2586 27.8573 21.3319C27.7814 21.4052 27.7209 21.4931 27.6797 21.5902C27.6384 21.6874 27.6171 21.7919 27.6171 21.8975C27.6171 22.0031 27.6384 22.1076 27.6797 22.2047C27.7209 22.3019 27.7814 22.3898 27.8573 22.4631C27.9333 22.5364 28.0233 22.5937 28.1219 22.6314C28.2205 22.6692 28.3256 22.6868 28.4312 22.683H30.7882C31.2048 22.683 31.6044 22.8485 31.899 23.1431C32.1936 23.4377 32.3592 23.8373 32.3592 24.254C32.3592 24.6706 32.1936 25.0702 31.899 25.3649C31.6044 25.6595 31.2048 25.825 30.7882 25.825H26.8552C26.7496 25.8212 26.6445 25.8387 26.5459 25.8765C26.4473 25.9143 26.3573 25.9716 26.2813 26.0449C26.2054 26.1182 26.1449 26.2061 26.1037 26.3032C26.0624 26.4004 26.0411 26.5049 26.0411 26.6105C26.0411 26.7161 26.0624 26.8206 26.1037 26.9177C26.1449 27.0149 26.2054 27.1028 26.2813 27.1761C26.3573 27.2494 26.4473 27.3067 26.5459 27.3444C26.6445 27.3822 26.7496 27.3997 26.8552 27.396H29.2122C29.6288 27.396 30.0284 27.5615 30.323 27.8561C30.6176 28.1507 30.7832 28.5503 30.7832 28.967C30.7832 29.3837 30.6176 29.7832 30.323 30.0779C30.0284 30.3725 29.6288 30.538 29.2122 30.538H20.7642C18.2134 30.5877 15.6711 30.2299 13.2332 29.478C12.8372 29.3747 12.4038 29.2623 11.9332 29.141V14.673C17.6182 13.319 24.5022 10.013 24.5022 4.14399V3.35799C24.5022 2.94133 24.6677 2.54175 24.9623 2.24713C25.2569 1.95251 25.6565 1.78699 26.0732 1.78699C26.4898 1.78699 26.8894 1.95251 27.184 2.24713C27.4786 2.54175 27.6442 2.94133 27.6442 3.35799C27.8648 6.19547 27.4257 9.04552 26.3612 11.685H23.7132C23.6076 11.6812 23.5025 11.6988 23.4039 11.7365C23.3053 11.7743 23.2153 11.8316 23.1393 11.9049C23.0634 11.9782 23.0029 12.0661 22.9617 12.1632C22.9204 12.2604 22.8991 12.3649 22.8991 12.4705C22.8991 12.5761 22.9204 12.6806 22.9617 12.7777C23.0029 12.8749 23.0634 12.9628 23.1393 13.0361C23.2153 13.1094 23.3053 13.1667 23.4039 13.2044C23.5025 13.2422 23.6076 13.2598 23.7132 13.256H33.9252C34.3418 13.256 34.7414 13.4215 35.036 13.7161C35.3306 14.0107 35.4962 14.4103 35.4962 14.827C35.4962 15.2436 35.3306 15.6432 35.036 15.9379C34.7414 16.2325 34.3418 16.399 33.9252 16.399Z" fill="#252525"></path></svg>