<svg xmlns="http://www.w3.org/2000/svg" width="72" height="72" viewBox="0 0 72 72" fill="none"><path d="M36 72C55.8823 72 72 55.8823 72 36C72 16.1177 55.8823 0 36 0C16.1177 0 0 16.1177 0 36C0 55.8823 16.1177 72 36 72Z" fill="#DFEEFF"></path><path d="M43.0712 15.8889C42.8627 15.8889 42.6628 15.9717 42.5154 16.1191C42.368 16.2665 42.2852 16.4665 42.2852 16.6749V20.2889C42.2814 20.3944 42.2989 20.4996 42.3367 20.5982C42.3745 20.6968 42.4317 20.7868 42.505 20.8627C42.5784 20.9387 42.6662 20.9991 42.7634 21.0404C42.8606 21.0817 42.9651 21.1029 43.0707 21.1029C43.1762 21.1029 43.2807 21.0817 43.3779 21.0404C43.4751 20.9991 43.563 20.9387 43.6363 20.8627C43.7096 20.7868 43.7669 20.6968 43.8046 20.5982C43.8424 20.4996 43.8599 20.3944 43.8562 20.2889V16.6749C43.8562 16.4666 43.7735 16.2669 43.6263 16.1195C43.4791 15.9721 43.2795 15.8892 43.0712 15.8889Z" fill="#252525"></path><path d="M25.0018 40.3979C24.8464 40.3979 24.6944 40.4441 24.5651 40.5304C24.4359 40.6168 24.3351 40.7395 24.2756 40.8831C24.2162 41.0268 24.2006 41.1848 24.2309 41.3373C24.2613 41.4897 24.3361 41.6298 24.446 41.7397C24.556 41.8497 24.696 41.9245 24.8485 41.9548C25.0009 41.9852 25.159 41.9696 25.3026 41.9101C25.4462 41.8506 25.569 41.7499 25.6554 41.6206C25.7417 41.4914 25.7878 41.3394 25.7878 41.184C25.7878 40.9755 25.705 40.7756 25.5576 40.6282C25.4102 40.4808 25.2103 40.3979 25.0018 40.3979Z" fill="#252525"></path><path d="M54.0682 38.828C54.0671 37.995 53.7357 37.1964 53.1467 36.6074C52.5577 36.0184 51.7591 35.6871 50.9262 35.686H45.0612C45.9432 33.2873 46.3507 30.7401 46.2612 28.186C46.258 27.8853 46.2396 27.5849 46.2062 27.286C46.1853 26.4602 45.8401 25.6757 45.2453 25.1026C44.6504 24.5294 43.8537 24.2135 43.0276 24.2234C42.2016 24.2332 41.4127 24.568 40.8317 25.1552C40.2506 25.7425 39.9242 26.5349 39.9232 27.361V28.147C39.9232 33.115 33.5432 35.907 28.7282 37.104C28.5447 36.6836 28.2427 36.3258 27.859 36.0743C27.4754 35.8228 27.0268 35.6886 26.5682 35.688H18.7172C18.5087 35.688 18.3088 35.7708 18.1614 35.9182C18.014 36.0656 17.9312 36.2655 17.9312 36.474V55.328C17.9312 55.5364 18.014 55.7364 18.1614 55.8838C18.3088 56.0312 18.5087 56.114 18.7172 56.114H26.5732C27.0289 56.1134 27.4747 55.9809 27.8568 55.7325C28.2388 55.484 28.5408 55.1303 28.7262 54.714C29.1262 54.816 29.4962 54.912 29.8362 55.002C32.4038 55.7877 35.0795 56.1627 37.7642 56.113H46.2122C46.7813 56.1131 47.3397 55.9585 47.8278 55.6658C48.3159 55.3731 48.7153 54.9533 48.9834 54.4512C49.2514 53.9492 49.378 53.3837 49.3496 52.8153C49.3212 52.2469 49.1389 51.6968 48.8222 51.224C49.2742 51.0644 49.6839 50.8038 50.0201 50.462C50.3562 50.1202 50.61 49.7062 50.762 49.2516C50.9141 48.7969 50.9604 48.3136 50.8976 47.8384C50.8347 47.3631 50.6642 46.9084 50.3992 46.509C50.8511 46.3498 51.2607 46.0892 51.5964 45.7473C51.9322 45.4055 52.1853 44.9913 52.3364 44.5365C52.4874 44.0817 52.5324 43.5984 52.4679 43.1236C52.4034 42.6488 52.2311 42.195 51.9642 41.797C52.5795 41.5815 53.1126 41.1799 53.4895 40.648C53.8665 40.116 54.0687 39.48 54.0682 38.828ZM27.3582 53.754C27.3582 53.9624 27.2753 54.1624 27.1279 54.3098C26.9805 54.4572 26.7806 54.54 26.5722 54.54H19.5022V37.257H26.5722C26.7806 37.257 26.9805 37.3398 27.1279 37.4872C27.2753 37.6346 27.3582 37.8345 27.3582 38.043V53.754ZM50.9252 40.399H46.9972C46.7937 40.4062 46.601 40.4922 46.4596 40.6387C46.3182 40.7852 46.2392 40.9809 46.2392 41.1845C46.2392 41.3881 46.3182 41.5838 46.4596 41.7303C46.601 41.8768 46.7937 41.9627 46.9972 41.97H49.3542C49.7708 41.97 50.1704 42.1355 50.465 42.4301C50.7596 42.7247 50.9252 43.1243 50.9252 43.541C50.9252 43.9576 50.7596 44.3572 50.465 44.6519C50.1704 44.9465 49.7708 45.112 49.3542 45.112H45.4312C45.3256 45.1082 45.2205 45.1258 45.1219 45.1635C45.0233 45.2013 44.9333 45.2586 44.8573 45.3319C44.7814 45.4052 44.7209 45.4931 44.6797 45.5902C44.6384 45.6874 44.6171 45.7919 44.6171 45.8975C44.6171 46.0031 44.6384 46.1076 44.6797 46.2047C44.7209 46.3019 44.7814 46.3898 44.8573 46.4631C44.9333 46.5364 45.0233 46.5937 45.1219 46.6314C45.2205 46.6692 45.3256 46.6868 45.4312 46.683H47.7882C48.2048 46.683 48.6044 46.8485 48.899 47.1431C49.1936 47.4377 49.3592 47.8373 49.3592 48.254C49.3592 48.6706 49.1936 49.0702 48.899 49.3649C48.6044 49.6595 48.2048 49.825 47.7882 49.825H43.8552C43.7496 49.8212 43.6445 49.8387 43.5459 49.8765C43.4473 49.9143 43.3573 49.9716 43.2813 50.0449C43.2054 50.1182 43.1449 50.2061 43.1037 50.3032C43.0624 50.4004 43.0411 50.5049 43.0411 50.6105C43.0411 50.7161 43.0624 50.8206 43.1037 50.9177C43.1449 51.0149 43.2054 51.1028 43.2813 51.1761C43.3573 51.2494 43.4473 51.3067 43.5459 51.3444C43.6445 51.3822 43.7496 51.3997 43.8552 51.396H46.2122C46.6288 51.396 47.0284 51.5615 47.323 51.8561C47.6176 52.1507 47.7832 52.5503 47.7832 52.967C47.7832 53.3837 47.6176 53.7832 47.323 54.0779C47.0284 54.3725 46.6288 54.538 46.2122 54.538H37.7642C35.2134 54.5877 32.6711 54.2299 30.2332 53.478C29.8372 53.3747 29.4038 53.2623 28.9332 53.141V38.673C34.6182 37.319 41.5022 34.013 41.5022 28.144V27.358C41.5022 26.9413 41.6677 26.5417 41.9623 26.2471C42.2569 25.9525 42.6565 25.787 43.0732 25.787C43.4898 25.787 43.8894 25.9525 44.184 26.2471C44.4786 26.5417 44.6442 26.9413 44.6442 27.358C44.8648 30.1955 44.4257 33.0455 43.3612 35.685H40.7132C40.6076 35.6812 40.5025 35.6988 40.4039 35.7365C40.3053 35.7743 40.2153 35.8316 40.1393 35.9049C40.0634 35.9782 40.0029 36.0661 39.9617 36.1632C39.9204 36.2604 39.8991 36.3649 39.8991 36.4705C39.8991 36.5761 39.9204 36.6806 39.9617 36.7777C40.0029 36.8749 40.0634 36.9628 40.1393 37.0361C40.2153 37.1094 40.3053 37.1667 40.4039 37.2044C40.5025 37.2422 40.6076 37.2598 40.7132 37.256H50.9252C51.3418 37.256 51.7414 37.4215 52.036 37.7161C52.3306 38.0107 52.4962 38.4103 52.4962 38.827C52.4962 39.2436 52.3306 39.6432 52.036 39.9379C51.7414 40.2325 51.3418 40.399 50.9252 40.399Z" fill="#252525"></path><path d="M25.0018 43.541C24.7934 43.541 24.5935 43.6238 24.446 43.7712C24.2986 43.9186 24.2158 44.1186 24.2158 44.327V50.612C24.2121 50.7175 24.2296 50.8227 24.2674 50.9213C24.3052 51.0199 24.3624 51.1098 24.4357 51.1858C24.509 51.2618 24.5969 51.3222 24.6941 51.3635C24.7913 51.4048 24.8958 51.4261 25.0013 51.4261C25.1069 51.4261 25.2114 51.4048 25.3086 51.3635C25.4058 51.3222 25.4936 51.2618 25.5669 51.1858C25.6403 51.1098 25.6975 51.0199 25.7353 50.9213C25.7731 50.8227 25.7906 50.7175 25.7868 50.612V44.327C25.7868 44.1187 25.7042 43.919 25.557 43.7716C25.4098 43.6242 25.2101 43.5413 25.0018 43.541Z" fill="#252525"></path><path d="M36.7851 25.7871H33.6431C33.5376 25.7834 33.4324 25.8009 33.3338 25.8387C33.2353 25.8764 33.1453 25.9337 33.0693 26.007C32.9933 26.0803 32.9329 26.1682 32.8916 26.2654C32.8504 26.3625 32.8291 26.467 32.8291 26.5726C32.8291 26.6782 32.8504 26.7827 32.8916 26.8799C32.9329 26.977 32.9933 27.0649 33.0693 27.1382C33.1453 27.2115 33.2353 27.2688 33.3338 27.3066C33.4324 27.3444 33.5376 27.3619 33.6431 27.3581H36.7851C36.8906 27.3619 36.9958 27.3444 37.0944 27.3066C37.193 27.2688 37.283 27.2115 37.3589 27.1382C37.4349 27.0649 37.4953 26.977 37.5366 26.8799C37.5779 26.7827 37.5992 26.6782 37.5992 26.5726C37.5992 26.467 37.5779 26.3625 37.5366 26.2654C37.4953 26.1682 37.4349 26.0803 37.3589 26.007C37.283 25.9337 37.193 25.8764 37.0944 25.8387C36.9958 25.8009 36.8906 25.7834 36.7851 25.7871Z" fill="#252525"></path><path d="M52.4961 25.7871H49.3541C49.2486 25.7834 49.1434 25.8009 49.0448 25.8387C48.9462 25.8764 48.8562 25.9337 48.7803 26.007C48.7043 26.0803 48.6439 26.1682 48.6026 26.2654C48.5613 26.3625 48.54 26.467 48.54 26.5726C48.54 26.6782 48.5613 26.7827 48.6026 26.8799C48.6439 26.977 48.7043 27.0649 48.7803 27.1382C48.8562 27.2115 48.9462 27.2688 49.0448 27.3066C49.1434 27.3444 49.2486 27.3619 49.3541 27.3581H52.4961C52.6016 27.3619 52.7068 27.3444 52.8054 27.3066C52.9039 27.2688 52.9939 27.2115 53.0699 27.1382C53.1459 27.0649 53.2063 26.977 53.2476 26.8799C53.2889 26.7827 53.3101 26.6782 53.3101 26.5726C53.3101 26.467 53.2889 26.3625 53.2476 26.2654C53.2063 26.1682 53.1459 26.0803 53.0699 26.007C52.9939 25.9337 52.9039 25.8764 52.8054 25.8387C52.7068 25.8009 52.6016 25.7834 52.4961 25.7871Z" fill="#252525"></path><path d="M50.2908 19.351C50.1434 19.2038 49.9436 19.1211 49.7353 19.1211C49.527 19.1211 49.3272 19.2038 49.1798 19.351L46.9578 21.57C46.8182 21.7189 46.7419 21.9162 46.7452 22.1203C46.7485 22.3244 46.831 22.5192 46.9753 22.6635C47.1196 22.8078 47.3144 22.8903 47.5185 22.8936C47.7226 22.8969 47.9199 22.8206 48.0688 22.681L50.2908 20.459C50.4371 20.3118 50.5192 20.1126 50.5192 19.905C50.5192 19.6974 50.4371 19.4983 50.2908 19.351Z" fill="#252525"></path><path d="M39.1819 21.5702L36.9599 19.3482C36.8878 19.2713 36.8011 19.2098 36.7048 19.1671C36.6084 19.1245 36.5045 19.1016 36.3992 19.1C36.2939 19.0983 36.1893 19.1178 36.0916 19.1573C35.994 19.1968 35.9053 19.2556 35.8308 19.3301C35.7563 19.4046 35.6976 19.4933 35.658 19.5909C35.6185 19.6885 35.599 19.7931 35.6007 19.8985C35.6024 20.0038 35.6252 20.1077 35.6679 20.204C35.7105 20.3003 35.7721 20.3871 35.8489 20.4592L38.0709 22.6812C38.2198 22.8208 38.4171 22.897 38.6212 22.8938C38.8253 22.8905 39.0201 22.808 39.1644 22.6636C39.3087 22.5193 39.3912 22.3245 39.3945 22.1205C39.3978 21.9164 39.3215 21.719 39.1819 21.5702Z" fill="#252525"></path></svg>