<svg xmlns="http://www.w3.org/2000/svg" width="92" height="92" viewBox="0 0 92 92" fill="none"><circle opacity="0.21" cx="46" cy="46" r="46" fill="white"></circle><g clip-path="url(#clip0_138_4332)"><path d="M30.7087 44.8919C31.0105 45.0282 31.3369 45.0986 31.667 45.0986C31.9971 45.0986 32.3235 45.0282 32.6254 44.8919C35.1387 43.7461 43.3337 39.4256 43.3337 31.9065C43.3808 30.0479 42.7039 28.246 41.4513 26.8953C40.1986 25.5447 38.4723 24.7553 36.6504 24.7002C35.698 24.7023 34.7578 24.9183 33.8965 25.3329C33.0353 25.7475 32.2741 26.3504 31.667 27.0989C31.06 26.3504 30.2988 25.7475 29.4375 25.3329C28.5762 24.9183 27.636 24.7023 26.6837 24.7002C24.8617 24.7553 23.1354 25.5447 21.8828 26.8953C20.6301 28.246 19.9533 30.0479 20.0004 31.9065C20.0004 39.4256 28.1954 43.7461 30.7087 44.8919ZM26.6837 26.4002C27.5561 26.4101 28.4103 26.6559 29.1592 27.1125C29.908 27.5692 30.5247 28.2203 30.9462 28.9995C31.0253 29.1205 31.1326 29.2196 31.2583 29.2882C31.384 29.3568 31.5244 29.3927 31.667 29.3927C31.8096 29.3927 31.95 29.3568 32.0757 29.2882C32.2015 29.2196 32.3087 29.1205 32.3879 28.9995C32.8094 28.2203 33.426 27.5692 34.1749 27.1125C34.9237 26.6559 35.7779 26.4101 36.6504 26.4002C38.0303 26.4551 39.3329 27.0652 40.273 28.0971C41.2131 29.129 41.7143 30.4987 41.667 31.9065C41.667 38.403 34.227 42.2994 31.9487 43.3381C31.8603 43.3785 31.7646 43.3993 31.6679 43.3993C31.5711 43.3993 31.4754 43.3785 31.387 43.3381C29.107 42.2994 21.667 38.403 21.667 31.9065C21.6197 30.4987 22.1209 29.129 23.061 28.0971C24.0012 27.0652 25.3037 26.4551 26.6837 26.4002Z" fill="white"></path><path d="M59.1663 23C57.0237 23 54.9292 23.6481 53.1477 24.8623C51.3661 26.0765 49.9776 27.8022 49.1577 29.8213C48.3377 31.8405 48.1232 34.0623 48.5412 36.2057C48.9592 38.3492 49.991 40.3182 51.506 41.8635C53.0211 43.4089 54.9514 44.4613 57.0529 44.8877C59.1543 45.314 61.3326 45.0952 63.3121 44.2589C65.2916 43.4225 66.9836 42.0062 68.1739 40.189C69.3643 38.3719 69.9997 36.2355 69.9997 34.05C69.9964 31.1204 68.8539 28.3117 66.823 26.2402C64.7921 24.1687 62.0385 23.0034 59.1663 23ZM59.1663 43.4C57.3534 43.4 55.5811 42.8516 54.0736 41.8242C52.5662 40.7968 51.3913 39.3366 50.6975 37.6281C50.0036 35.9196 49.8221 34.0396 50.1758 32.2259C50.5295 30.4122 51.4026 28.7462 52.6845 27.4386C53.9665 26.1309 55.5999 25.2404 57.378 24.8797C59.1562 24.5189 60.9993 24.704 62.6743 25.4117C64.3493 26.1194 65.7809 27.3178 66.7882 28.8554C67.7954 30.393 68.333 32.2007 68.333 34.05C68.3301 36.5289 67.3635 38.9054 65.645 40.6582C63.9265 42.411 61.5966 43.3971 59.1663 43.4Z" fill="white"></path><path d="M67.5 50.2002H22.5C21.837 50.2002 21.2011 50.4689 20.7322 50.9471C20.2634 51.4253 20 52.0739 20 52.7502C20 53.4265 20.2634 54.0751 20.7322 54.5533C21.2011 55.0315 21.837 55.3002 22.5 55.3002H42.0333L33.0667 68.7752C32.7308 69.268 32.5355 69.8461 32.5025 70.4453C32.4696 71.0445 32.6002 71.6413 32.88 72.1693C33.1736 72.7271 33.611 73.1924 34.1451 73.5151C34.6791 73.8378 35.2893 74.0055 35.91 74.0002H54.09C54.7107 74.0055 55.3209 73.8378 55.8549 73.5151C56.389 73.1924 56.8264 72.7271 57.12 72.1693C57.3998 71.6413 57.5304 71.0445 57.4975 70.4453C57.4645 69.8461 57.2692 69.268 56.9333 68.7752L47.9667 55.3002H67.5C68.163 55.3002 68.7989 55.0315 69.2678 54.5533C69.7366 54.0751 70 53.4265 70 52.7502C70 52.0739 69.7366 51.4253 69.2678 50.9471C68.7989 50.4689 68.163 50.2002 67.5 50.2002ZM46.4658 56.0711L55.555 69.7298C55.7198 69.9675 55.8158 70.2477 55.832 70.5383C55.8482 70.829 55.784 71.1185 55.6467 71.3737C55.4966 71.6599 55.2716 71.898 54.9968 72.0616C54.722 72.2251 54.4081 72.3077 54.09 72.3002H35.91C35.5919 72.3077 35.278 72.2251 35.0032 72.0616C34.7283 71.898 34.5034 71.6599 34.3533 71.3737C34.216 71.1185 34.1518 70.829 34.168 70.5383C34.1842 70.2477 34.2802 69.9675 34.445 69.7298L43.5342 56.0711C43.7005 55.8327 43.9204 55.6383 44.1754 55.5042C44.4304 55.3701 44.7131 55.3001 45 55.3001C45.2869 55.3001 45.5696 55.3701 45.8246 55.5042C46.0796 55.6383 46.2995 55.8327 46.4658 56.0711ZM67.5 53.6002H22.5C22.279 53.6002 22.067 53.5106 21.9107 53.3512C21.7545 53.1918 21.6667 52.9756 21.6667 52.7502C21.6667 52.5248 21.7545 52.3086 21.9107 52.1492C22.067 51.9897 22.279 51.9002 22.5 51.9002H67.5C67.721 51.9002 67.933 51.9897 68.0893 52.1492C68.2455 52.3086 68.3333 52.5248 68.3333 52.7502C68.3333 52.9756 68.2455 53.1918 68.0893 53.3512C67.933 53.5106 67.721 53.6002 67.5 53.6002Z" fill="white"></path><path d="M59.1663 29.8C59.6084 29.8 60.0323 29.9791 60.3449 30.2979C60.6574 30.6167 60.833 31.0491 60.833 31.5C60.833 31.7254 60.9208 31.9416 61.0771 32.101C61.2334 32.2604 61.4453 32.35 61.6663 32.35C61.8874 32.35 62.0993 32.2604 62.2556 32.101C62.4119 31.9416 62.4997 31.7254 62.4997 31.5C62.4969 30.7484 62.2501 30.0189 61.7978 29.4256C61.3454 28.8323 60.7131 28.4086 59.9997 28.2207V28.1C59.9997 27.8746 59.9119 27.6584 59.7556 27.499C59.5993 27.3396 59.3874 27.25 59.1663 27.25C58.9453 27.25 58.7334 27.3396 58.5771 27.499C58.4208 27.6584 58.333 27.8746 58.333 28.1V28.2207C57.5483 28.4267 56.8643 28.9177 56.4094 29.6016C55.9544 30.2856 55.7599 31.1153 55.8621 31.9352C55.9644 32.755 56.3566 33.5086 56.9649 34.0545C57.5733 34.6004 58.3561 34.901 59.1663 34.9C59.496 34.9 59.8182 34.9997 60.0923 35.1865C60.3664 35.3733 60.58 35.6388 60.7061 35.9494C60.8323 36.2601 60.8653 36.6019 60.801 36.9317C60.7367 37.2614 60.5779 37.5643 60.3449 37.8021C60.1118 38.0398 59.8148 38.2017 59.4915 38.2673C59.1682 38.3329 58.8331 38.2993 58.5285 38.1706C58.224 38.0419 57.9637 37.824 57.7806 37.5445C57.5974 37.2649 57.4997 36.9362 57.4997 36.6C57.4997 36.3746 57.4119 36.1584 57.2556 35.999C57.0993 35.8396 56.8874 35.75 56.6663 35.75C56.4453 35.75 56.2334 35.8396 56.0771 35.999C55.9208 36.1584 55.833 36.3746 55.833 36.6C55.8358 37.3516 56.0826 38.081 56.5349 38.6744C56.9872 39.2677 57.6196 39.6914 58.333 39.8793V40C58.333 40.2254 58.4208 40.4416 58.5771 40.601C58.7334 40.7604 58.9453 40.85 59.1663 40.85C59.3874 40.85 59.5993 40.7604 59.7556 40.601C59.9119 40.4416 59.9997 40.2254 59.9997 40V39.8793C60.7844 39.6733 61.4684 39.1823 61.9233 38.4984C62.3782 37.8144 62.5728 36.9847 62.4705 36.1648C62.3682 35.345 61.9761 34.5914 61.3678 34.0455C60.7594 33.4996 59.9766 33.199 59.1663 33.2C58.7243 33.2 58.3004 33.0209 57.9878 32.7021C57.6753 32.3833 57.4997 31.9509 57.4997 31.5C57.4997 31.0491 57.6753 30.6167 57.9878 30.2979C58.3004 29.9791 58.7243 29.8 59.1663 29.8Z" fill="white"></path></g><defs><clipPath id="clip0_138_4332"><rect width="50" height="51" fill="white" transform="translate(20 23)"></rect></clipPath></defs></svg>