<svg xmlns="http://www.w3.org/2000/svg" width="28" height="18" viewBox="0 0 28 18" fill="none"><path d="M10.9306 12.8571L18.0218 9L10.9306 5.14286V12.8571ZM26.7253 2.79C26.903 3.39429 27.0259 4.20429 27.1079 5.23286C27.2036 6.26143 27.2446 7.14857 27.2446 7.92L27.3265 9C27.3265 11.8157 27.1079 13.8857 26.7253 15.21C26.3838 16.3671 25.5913 17.1129 24.3616 17.4343C23.7194 17.6014 22.5444 17.7171 20.7408 17.7943C18.9646 17.8843 17.3387 17.9229 15.8357 17.9229L13.6633 18C7.93836 18 4.37225 17.7943 2.96493 17.4343C1.73523 17.1129 0.942765 16.3671 0.601184 15.21C0.423561 14.6057 0.300592 13.7957 0.218612 12.7671C0.12297 11.7386 0.0819795 10.8514 0.0819795 10.08L0 9C0 6.18429 0.218612 4.11429 0.601184 2.79C0.942765 1.63286 1.73523 0.887143 2.96493 0.565714C3.6071 0.398571 4.78214 0.282857 6.58569 0.205714C8.36192 0.115714 9.98785 0.0771428 11.4908 0.0771428L13.6633 0C19.3882 0 22.9543 0.205714 24.3616 0.565714C25.5913 0.887143 26.3838 1.63286 26.7253 2.79Z" fill="#0B0B0B"></path></svg>