<svg xmlns="http://www.w3.org/2000/svg" width="62" height="63" viewBox="0 0 62 63" fill="none"><path d="M58.1302 45.5166C59.0081 44.4774 59.7107 43.3019 60.2102 42.0366C61.2668 39.4707 61.3451 36.6063 60.4302 33.9865C59.9916 32.8192 59.3101 31.7583 58.431 30.874C57.5518 29.9896 56.4949 29.302 55.3302 28.8565C51.2602 27.2865 46.8802 28.8565 44.2402 32.7165C44.1935 32.7138 44.1468 32.7138 44.1002 32.7165C43.6657 32.9058 43.2737 33.1803 42.9473 33.5239C42.621 33.8674 42.3669 34.273 42.2002 34.7165L41.9802 35.2965C41.8013 35.7598 41.7214 36.2554 41.7455 36.7514C41.7696 37.2474 41.8972 37.7328 42.1202 38.1765C41.8182 40.1498 42.0961 42.1683 42.9202 43.9866L36.6602 49.0366C34.9501 48.9866 32.3801 49.2066 31.8101 50.7166C31.2401 52.2266 32.8101 53.4166 33.3801 53.8266C36.2202 56.1066 39.5102 55.3366 41.7802 54.0966L41.0602 60.9466C41.0479 61.0804 41.0626 61.2152 41.1036 61.3432C41.1446 61.4711 41.2109 61.5895 41.2987 61.6912C41.3864 61.7929 41.4937 61.876 41.6143 61.9353C41.7348 61.9946 41.866 62.0291 42.0002 62.0366C42.1308 62.0504 42.263 62.0384 42.389 62.0012C42.515 61.9639 42.6325 61.9022 42.7346 61.8196C42.8368 61.7369 42.9216 61.6349 42.9844 61.5194C43.0471 61.404 43.0864 61.2773 43.1002 61.1466L44.0402 52.1466C44.0632 51.9459 44.0248 51.7429 43.9302 51.5644C43.8356 51.3859 43.6892 51.2402 43.5102 51.1466C43.3311 51.0544 43.1284 51.0185 42.9285 51.0434C42.7287 51.0684 42.541 51.1532 42.3902 51.2866C42.2102 51.4466 38.1002 54.9966 34.6701 52.2866C34.347 52.0461 34.0606 51.7597 33.8201 51.4366C34.8267 51.1123 35.8844 50.9767 36.9402 51.0366C37.1887 51.0457 37.4327 50.9679 37.6302 50.8166L44.0002 45.6966C44.9842 46.9428 46.2868 47.8998 47.7702 48.4666C48.7815 48.858 49.8558 49.0614 50.9402 49.0666C53.0468 49.0433 55.0811 48.2946 56.7002 46.9466C58.1902 47.9466 59.9802 49.6266 60.0302 50.7466C60.0302 50.9666 60.0302 51.2666 59.5002 51.6266C55.7202 54.4666 53.1402 55.2966 52.2602 54.8466C51.8805 54.6673 51.4811 54.533 51.0702 54.4466L51.5802 54.0566C52.8661 53.0666 54.2012 52.1421 55.5802 51.2866C55.7697 51.1372 55.8989 50.9243 55.9438 50.6871C55.9887 50.45 55.9463 50.2046 55.8245 49.9963C55.7027 49.7879 55.5096 49.6307 55.2809 49.5536C55.0522 49.4764 54.8033 49.4846 54.5802 49.5766C53.1317 50.4638 51.7298 51.4251 50.3802 52.4566C49.0602 53.4566 48.1502 54.2166 48.3802 55.1666C48.6102 56.1166 49.4402 56.1666 50.1302 56.2966C50.553 56.3569 50.9664 56.4712 51.3602 56.6366C51.815 56.8563 52.3151 56.9659 52.8202 56.9566C54.7375 56.7518 56.5714 56.0636 58.1502 54.9566L57.7502 60.9566C57.741 61.0879 57.7577 61.2197 57.7995 61.3446C57.8413 61.4694 57.9072 61.5848 57.9936 61.6842C58.0799 61.7835 58.185 61.8649 58.3028 61.9237C58.4206 61.9824 58.5489 62.0174 58.6802 62.0266C58.8115 62.0358 58.9433 62.019 59.0682 61.9772C59.193 61.9355 59.3084 61.8695 59.4078 61.7832C59.5071 61.6968 59.5885 61.5917 59.6473 61.4739C59.706 61.3561 59.741 61.2279 59.7502 61.0966L60.2602 53.5466L60.7102 53.2166C61.1218 52.9314 61.4554 52.5478 61.6807 52.1006C61.9061 51.6535 62.0159 51.157 62.0002 50.6566C61.9102 48.5466 59.4802 46.4966 58.1302 45.5166ZM58.3402 41.2666C58.3402 41.3366 58.2702 41.4066 58.2402 41.4866L55.4702 40.4166L55.6502 39.9666L58.4202 41.0366C58.3902 41.1066 58.3702 41.1866 58.3402 41.2666ZM54.6102 30.6765C55.5249 31.0171 56.3556 31.5506 57.0459 32.2409C57.7361 32.9311 58.2696 33.7618 58.6102 34.6765C59.1234 36.0945 59.251 37.6232 58.9802 39.1066L55.8902 37.9166C55.8393 37.6626 55.7623 37.4146 55.6602 37.1765C55.4681 36.7439 55.1926 36.3534 54.8494 36.0274C54.5062 35.7013 54.1021 35.4462 53.6602 35.2765L46.8902 32.6665C47.8275 31.5968 49.0657 30.8346 50.4429 30.4796C51.8202 30.1246 53.2725 30.1932 54.6102 30.6765ZM43.8502 36.0365L44.0702 35.4565C44.1848 35.1584 44.3882 34.9026 44.6529 34.7238C44.9176 34.5449 45.2308 34.4516 45.5502 34.4565C45.7479 34.4548 45.9444 34.4887 46.1302 34.5565L52.9002 37.1765C53.2801 37.3287 53.5867 37.6215 53.7562 37.9941C53.9257 38.3666 53.945 38.7901 53.8102 39.1765L53.5802 39.7566C53.432 40.1399 53.1402 40.4504 52.7668 40.6222C52.3934 40.794 51.9677 40.8135 51.5802 40.6766L44.7602 38.0365C44.3802 37.8844 44.0736 37.5916 43.9041 37.219C43.7346 36.8465 43.7153 36.423 43.8502 36.0365ZM48.4602 46.6366C47.1211 46.1035 45.9767 45.1745 45.1797 43.9737C44.3828 42.7729 43.9712 41.3575 44.0002 39.9166L50.7702 42.5266C51.1813 42.6881 51.6185 42.7728 52.0602 42.7766C52.5628 42.7729 53.0594 42.6675 53.5202 42.4666C53.7538 42.3571 53.975 42.223 54.1802 42.0666L57.2702 43.2666C55.2402 46.4866 51.7802 47.8766 48.4602 46.6066V46.6366Z" fill="#048DEF"></path><path d="M39.0001 38.0367C38.9989 36.4748 38.5886 34.9406 37.8101 33.5867C39.8049 30.9224 41.138 27.8221 41.6993 24.5415C42.2606 21.2608 42.034 17.8937 41.0383 14.7178C40.0427 11.5419 38.3063 8.64811 35.9726 6.27509C33.6388 3.90206 30.7744 2.11774 27.6155 1.06924C24.4566 0.0207361 21.0938 -0.261912 17.8042 0.244597C14.5147 0.751107 11.3926 2.03226 8.69544 3.98244C5.99829 5.93262 3.80331 8.49596 2.29147 11.4611C0.779625 14.4263 -0.00577095 17.7083 3.19231e-05 21.0366C3.19231e-05 26.6062 2.21253 31.9476 6.1508 35.8859C10.0891 39.8242 15.4305 42.0367 21.0001 42.0367H21.9401C22.8429 43.8537 24.3332 45.3124 26.1692 46.1761C28.0052 47.0397 30.0791 47.2577 32.0545 46.7945C34.03 46.3313 35.7909 45.2142 37.0517 43.6245C38.3124 42.0348 38.999 40.0656 39.0001 38.0367ZM6.00004 25.6166V32.6667C3.39983 29.3485 1.99099 25.2523 2.00003 21.0366C1.99702 18.0519 2.69723 15.1084 4.04393 12.4447C5.39063 9.78107 7.34593 7.47215 9.75138 5.70507C12.1568 3.938 14.9448 2.76249 17.8892 2.2738C20.8337 1.78512 23.8519 1.99701 26.6992 2.8923C29.5465 3.7876 32.1429 5.34111 34.2778 7.42694C36.4128 9.51277 38.0263 12.0722 38.9876 14.8979C39.9489 17.7237 40.231 20.7361 39.811 23.6911C39.391 26.6462 38.2807 29.4607 36.5701 31.9066C36.3901 31.71 36.1998 31.5231 36.0001 31.3467V25.6166C36.0001 23.0866 33.6501 20.9566 30.2801 20.4466L23.9301 19.4466C25.6636 18.7643 27.1047 17.4983 28.0047 15.8671C28.9047 14.2359 29.2071 12.3417 28.8599 10.5114C28.5126 8.68099 27.5374 7.02921 26.1026 5.84095C24.6677 4.6527 22.8631 4.00249 21.0001 4.00249C19.137 4.00249 17.3324 4.6527 15.8975 5.84095C14.4627 7.02921 13.4875 8.68099 13.1402 10.5114C12.793 12.3417 13.0954 14.2359 13.9954 15.8671C14.8954 17.4983 16.3365 18.7643 18.07 19.4466L11.72 20.4466C8.35004 20.9566 6.00004 23.0866 6.00004 25.6166ZM21.0001 18.0366C19.8134 18.0366 18.6533 17.6847 17.6666 17.0255C16.6799 16.3662 15.9109 15.4291 15.4568 14.3327C15.0026 13.2364 14.8838 12.03 15.1153 10.8661C15.3468 9.7022 15.9183 8.6331 16.7574 7.79398C17.5965 6.95487 18.6656 6.38342 19.8295 6.15191C20.9934 5.9204 22.1998 6.03922 23.2962 6.49335C24.3925 6.94747 25.3296 7.71651 25.9889 8.7032C26.6482 9.6899 27.0001 10.8499 27.0001 12.0366C27.0001 13.6279 26.3679 15.1541 25.2427 16.2793C24.1175 17.4045 22.5914 18.0366 21.0001 18.0366ZM21.9401 27.9166L21.0001 29.7966L20.0601 27.9166L21.0001 24.1566L21.9401 27.9166ZM21.2301 40.0367H21.0001C16.1622 40.0441 11.507 38.1892 8.00004 34.8567V25.6166C8.00004 24.1166 9.69004 22.7766 12 22.4266L19.6501 21.2566L18 27.7966C17.9434 28.0288 17.9718 28.2736 18.08 28.4866L20.0801 32.4867C20.164 32.6505 20.2915 32.7879 20.4485 32.8839C20.6055 32.9799 20.786 33.0307 20.9701 33.0307C21.1541 33.0307 21.3346 32.9799 21.4916 32.8839C21.6486 32.7879 21.7761 32.6505 21.8601 32.4867L23.8601 28.4866C23.9683 28.2736 23.9967 28.0288 23.9401 27.7966L22.3001 21.2566L30.0001 22.4266C32.3301 22.7766 34.0001 24.1166 34.0001 25.6166V30.0366C32.6326 29.3582 31.1151 29.0386 29.5902 29.1081C28.0652 29.1776 26.583 29.6338 25.283 30.4339C23.9829 31.2339 22.9077 32.3515 22.1585 33.6815C21.4092 35.0115 21.0106 36.5102 21.0001 38.0367C21.0001 38.7099 21.0773 39.381 21.2301 40.0367ZM30.0001 45.0367C28.6156 45.0367 27.2622 44.6261 26.1111 43.8569C24.9599 43.0878 24.0627 41.9945 23.5329 40.7154C23.0031 39.4364 22.8645 38.0289 23.1346 36.671C23.4047 35.3132 24.0713 34.0659 25.0503 33.0869C26.0293 32.1079 27.2766 31.4412 28.6344 31.1712C29.9923 30.9011 31.3998 31.0397 32.6788 31.5695C33.9579 32.0993 35.0512 32.9965 35.8204 34.1477C36.5895 35.2988 37.0001 36.6522 37.0001 38.0367C37.0001 39.8932 36.2626 41.6737 34.9498 42.9864C33.6371 44.2992 31.8566 45.0367 30.0001 45.0367Z" fill="#048DEF"></path><path d="M24.5752 37.8966C24.6478 38.0845 24.7754 38.2462 24.9413 38.3604C25.1072 38.4746 25.3038 38.536 25.5052 38.5366H27.0052V42.5366C27.0052 42.8018 27.1106 43.0562 27.2981 43.2437C27.4857 43.4312 27.74 43.5366 28.0052 43.5366H32.0053C32.2705 43.5366 32.5248 43.4312 32.7124 43.2437C32.8999 43.0562 33.0053 42.8018 33.0053 42.5366V38.5366H34.5053C34.7067 38.536 34.9033 38.4746 35.0692 38.3604C35.2352 38.2462 35.3627 38.0845 35.4353 37.8966C35.509 37.7061 35.5226 37.4977 35.4744 37.2992C35.4261 37.1008 35.3182 36.9219 35.1653 36.7866L30.6653 32.7866C30.4828 32.6263 30.2482 32.5378 30.0053 32.5378C29.7623 32.5378 29.5277 32.6263 29.3453 32.7866L24.8452 36.7866C24.6923 36.9219 24.5844 37.1008 24.5361 37.2992C24.4879 37.4977 24.5015 37.7061 24.5752 37.8966ZM30.0053 34.8966L31.8853 36.5666C31.6413 36.5961 31.4168 36.7143 31.2545 36.8987C31.0922 37.0832 31.0035 37.3209 31.0053 37.5666V41.5666H29.0053V37.5666C29.007 37.3209 28.9183 37.0832 28.756 36.8987C28.5937 36.7143 28.3692 36.5961 28.1253 36.5666L30.0053 34.8966Z" fill="#048DEF"></path></svg>