<svg xmlns="http://www.w3.org/2000/svg" width="62" height="62" viewBox="0 0 62 62" fill="none"><path d="M24.2255 43.6806C24.4494 43.6812 24.6678 43.6114 24.8498 43.4811C25.0318 43.3509 25.1683 43.1667 25.2399 42.9546L25.2404 42.9532L26.2556 39.7914C26.2557 39.791 26.2559 39.7905 26.256 39.7901C26.45 39.2423 26.8094 38.7684 27.2844 38.4338C27.7599 38.099 28.3278 37.9203 28.9093 37.9226H28.9097L33.0129 37.9226L33.0133 37.9226C33.5948 37.9203 34.1627 38.099 34.6381 38.4338C35.1134 38.7685 35.4728 39.2426 35.6667 39.7906C35.6668 39.7909 35.6669 39.7911 35.667 39.7914L36.7213 42.9542L36.7214 42.9545C36.7952 43.1737 36.9381 43.363 37.1287 43.4939C37.3188 43.6244 37.5459 43.6899 37.7762 43.6806H45.5161C49.6492 43.6806 53.613 42.0388 56.5356 39.1162C59.4581 36.1937 61.1 32.2299 61.1 28.0968C61.1 23.9637 59.4581 19.9999 56.5356 17.0773C53.613 14.1548 49.6492 12.5129 45.5161 12.5129H35.9387V9.70968C35.9387 9.42649 35.8262 9.15491 35.626 8.95467C35.4257 8.75443 35.1541 8.64194 34.871 8.64194H32.0677V7.77419C32.0677 7.54405 32.1592 7.32334 32.3219 7.16061C32.4846 6.99787 32.7053 6.90645 32.9355 6.90645H45.5161C46.3126 6.90645 47.0765 6.59004 47.6397 6.02683C48.2029 5.46361 48.5194 4.69973 48.5194 3.90323C48.5194 3.10672 48.2029 2.34284 47.6397 1.77962C47.0765 1.21641 46.3126 0.9 45.5161 0.9H26.1613H26.0613V1V2.93548V3.03548H26.1613H45.5161C45.7463 3.03548 45.967 3.12691 46.1297 3.28964C46.2924 3.45237 46.3839 3.67309 46.3839 3.90323C46.3839 4.13337 46.2924 4.35408 46.1297 4.51681C45.967 4.67954 45.7463 4.77097 45.5161 4.77097H32.9355C32.139 4.77097 31.3751 5.08738 30.8119 5.65059C30.2487 6.21381 29.9323 6.97769 29.9323 7.77419V8.64194H27.129C26.8458 8.64194 26.5743 8.75443 26.374 8.95467C26.1738 9.15491 26.0613 9.42649 26.0613 9.70968V12.5129H16.4839C12.3508 12.5129 8.38695 14.1548 5.46441 17.0773C2.54187 19.9999 0.9 23.9637 0.9 28.0968C0.9 32.2299 2.54187 36.1937 5.46441 39.1162C8.38695 42.0388 12.3508 43.6806 16.4839 43.6806H24.2255ZM24.2255 43.6806L24.2258 43.581V43.6806H24.2255ZM16.4839 14.6484H29.9323V35.7387H28.9484H28.9483C27.9122 35.7395 26.9026 36.0661 26.0623 36.6724C25.2221 37.2786 24.5938 38.1338 24.2664 39.1168L23.457 41.5452H16.4839C12.9171 41.5452 9.49649 40.1283 6.97443 37.6062C4.45236 35.0842 3.03548 31.6635 3.03548 28.0968C3.03548 24.53 4.45236 21.1094 6.97443 18.5873C9.49649 16.0653 12.9171 14.6484 16.4839 14.6484ZM33.0517 35.7387H33.0516H32.0677V14.6484H45.5161C49.0829 14.6484 52.5035 16.0653 55.0256 18.5873C57.5476 21.1094 58.9645 24.53 58.9645 28.0968C58.9645 31.6635 57.5476 35.0842 55.0256 37.6062C52.5035 40.1283 49.0829 41.5452 45.5161 41.5452H38.543L37.7336 39.1168C37.4062 38.1338 36.7779 37.2786 35.9377 36.6724C35.0974 36.0661 34.0878 35.7395 33.0517 35.7387ZM28.1968 10.7774H33.8032V12.5129H28.1968V10.7774Z" fill="#047BDC" stroke="#047BDC" stroke-width="0.2"></path><path d="M4.76719 28.0967C4.76719 30.2219 5.39738 32.2994 6.57807 34.0664C7.75877 35.8334 9.43693 37.2107 11.4004 38.0239C13.3638 38.8372 15.5243 39.05 17.6086 38.6354C19.693 38.2208 21.6076 37.1974 23.1103 35.6947C24.6131 34.1919 25.6364 32.2773 26.051 30.193C26.4656 28.1086 26.2529 25.9481 25.4396 23.9847C24.6263 22.0213 23.2491 20.3431 21.482 19.1624C19.715 17.9817 17.6375 17.3515 15.5123 17.3515C12.6626 17.3515 9.92948 18.4836 7.91437 20.4987C5.89926 22.5138 4.76719 25.2469 4.76719 28.0967ZM24.122 28.0967C24.122 29.7995 23.6171 31.4641 22.671 32.88C21.725 34.2958 20.3803 35.3994 18.8071 36.051C17.2339 36.7026 15.5028 36.8731 13.8327 36.5409C12.1626 36.2087 10.6285 35.3887 9.42439 34.1847C8.2203 32.9806 7.40031 31.4465 7.0681 29.7764C6.7359 28.1063 6.9064 26.3751 7.55804 24.8019C8.20969 23.2287 9.31321 21.8841 10.7291 20.938C12.1449 19.992 13.8095 19.487 15.5123 19.487C17.7958 19.487 19.9857 20.3941 21.6003 22.0087C23.2149 23.6234 24.122 25.8133 24.122 28.0967Z" fill="#047BDC" stroke="#047BDC" stroke-width="0.2"></path><path d="M14.3397 24.9833L15.5171 23.7967L16.6945 24.9833L16.7652 25.0545L16.8362 24.9835L18.2104 23.6093L18.2811 23.5386L18.2104 23.4679L16.2752 21.5327C16.2752 21.5327 16.2751 21.5326 16.2751 21.5326C16.1758 21.4326 16.0578 21.3532 15.9277 21.299C15.7976 21.2448 15.6581 21.2169 15.5171 21.2169C15.3762 21.2169 15.2366 21.2448 15.1065 21.299C14.9764 21.3532 14.8584 21.4326 14.7592 21.5326C14.7591 21.5326 14.7591 21.5327 14.759 21.5327L12.8238 23.4679L12.7531 23.5386L12.8238 23.6093L14.198 24.9835L14.269 25.0545L14.3397 24.9833Z" fill="#047BDC" stroke="#047BDC" stroke-width="0.2"></path><path d="M15.5171 32.3967L14.3397 31.2102L14.269 31.1389L14.198 31.2099L12.8238 32.5841L12.7531 32.6548L12.8238 32.7255L14.759 34.6607C14.7591 34.6608 14.7591 34.6608 14.7591 34.6609C14.8584 34.7609 14.9764 34.8403 15.1065 34.8945C15.2366 34.9487 15.3762 34.9766 15.5171 34.9766C15.6581 34.9766 15.7976 34.9487 15.9277 34.8945C16.0578 34.8403 16.1759 34.7609 16.2751 34.6609C16.2751 34.6608 16.2752 34.6608 16.2752 34.6607L18.2104 32.7255L18.2811 32.6548L18.2104 32.5841L16.8362 31.2099L16.7652 31.1389L16.6945 31.2102L15.5171 32.3967Z" fill="#047BDC" stroke="#047BDC" stroke-width="0.2"></path><path d="M20.0066 30.79L20.0773 30.8607L20.148 30.79L22.0832 28.8548C22.0833 28.8548 22.0833 28.8547 22.0833 28.8547C22.1834 28.7554 22.2628 28.6374 22.3169 28.5073C22.3711 28.3772 22.3991 28.2377 22.3991 28.0967C22.3991 27.9557 22.3711 27.8162 22.3169 27.6861C22.2628 27.556 22.1834 27.438 22.0834 27.3387C22.0833 27.3387 22.0833 27.3386 22.0832 27.3386L20.148 25.4034L20.0773 25.3327L20.0066 25.4034L18.6324 26.7776L18.5614 26.8486L18.6327 26.9193L19.8192 28.0967L18.6327 29.2741L18.5614 29.3448L18.6324 29.4158L20.0066 30.79Z" fill="#047BDC" stroke="#047BDC" stroke-width="0.2"></path><path d="M11.019 25.4034L10.9483 25.3327L10.8776 25.4034L8.9424 27.3386C8.94235 27.3387 8.9423 27.3387 8.94225 27.3388C8.84224 27.438 8.76286 27.556 8.70868 27.6861C8.65447 27.8162 8.62656 27.9557 8.62656 28.0967C8.62656 28.2377 8.65447 28.3772 8.70868 28.5073C8.76286 28.6374 8.84225 28.7554 8.94226 28.8547C8.94231 28.8547 8.94235 28.8548 8.9424 28.8548L10.8776 30.79L10.9483 30.8607L11.019 30.79L12.3932 29.4158L12.4642 29.3448L12.3929 29.2741L11.2064 28.0967L12.3929 26.9193L12.4642 26.8486L12.3932 26.7776L11.019 25.4034Z" fill="#047BDC" stroke="#047BDC" stroke-width="0.2"></path><path d="M46.4843 29.9323C45.6989 29.9323 44.9311 30.1652 44.2781 30.6016C43.6251 31.0379 43.1161 31.6581 42.8156 32.3837C42.515 33.1093 42.4364 33.9077 42.5896 34.678C42.7428 35.4483 43.121 36.1559 43.6764 36.7112C44.2317 37.2666 44.9393 37.6448 45.7096 37.798C46.4798 37.9512 47.2783 37.8726 48.0039 37.572C48.7295 37.2715 49.3497 36.7625 49.786 36.1095C50.2223 35.4564 50.4552 34.6887 50.4552 33.9033C50.4552 32.8502 50.0368 31.8401 49.2921 31.0954C48.5474 30.3507 47.5374 29.9323 46.4843 29.9323ZM46.4843 35.7388C46.1212 35.7388 45.7664 35.6312 45.4645 35.4295C45.1627 35.2278 44.9274 34.9411 44.7885 34.6057C44.6496 34.2703 44.6132 33.9013 44.684 33.5452C44.7549 33.1892 44.9297 32.8621 45.1864 32.6054C45.4431 32.3487 45.7701 32.1739 46.1262 32.1031C46.4822 32.0323 46.8513 32.0686 47.1867 32.2076C47.5221 32.3465 47.8087 32.5817 48.0104 32.8836C48.2121 33.1854 48.3197 33.5403 48.3197 33.9033C48.3197 34.3901 48.1264 34.857 47.7821 35.2012C47.4379 35.5454 46.9711 35.7388 46.4843 35.7388Z" fill="#047BDC" stroke="#047BDC" stroke-width="0.2"></path><path d="M46.4842 26.2612C47.2696 26.2612 48.0374 26.0284 48.6904 25.592C49.3434 25.1557 49.8524 24.5355 50.1529 23.8099C50.4535 23.0843 50.5321 22.2859 50.3789 21.5156C50.2257 20.7453 49.8475 20.0377 49.2921 19.4824C48.7368 18.927 48.0292 18.5488 47.2589 18.3956C46.4887 18.2424 45.6902 18.321 44.9646 18.6216C44.239 18.9221 43.6188 19.4311 43.1825 20.0841C42.7462 20.7372 42.5133 21.5049 42.5133 22.2903C42.5133 23.3434 42.9317 24.3535 43.6764 25.0982C44.4211 25.8429 45.4311 26.2612 46.4842 26.2612ZM46.4842 20.4548C46.8473 20.4548 47.2021 20.5624 47.504 20.7641C47.8058 20.9658 48.0411 21.2525 48.18 21.5879C48.3189 21.9233 48.3553 22.2923 48.2845 22.6484C48.2136 23.0044 48.0388 23.3315 47.7821 23.5882C47.5254 23.8449 47.1984 24.0197 46.8423 24.0905C46.4863 24.1613 46.1172 24.125 45.7818 23.986C45.4464 23.8471 45.1598 23.6119 44.9581 23.31C44.7564 23.0082 44.6488 22.6533 44.6488 22.2903C44.6488 21.8035 44.8421 21.3366 45.1864 20.9924C45.5306 20.6482 45.9974 20.4548 46.4842 20.4548Z" fill="#047BDC" stroke="#047BDC" stroke-width="0.2"></path><path d="M44.6466 28.0968C44.6466 27.3114 44.4137 26.5437 43.9774 25.8906C43.5411 25.2376 42.9209 24.7287 42.1953 24.4281C41.4697 24.1276 40.6713 24.0489 39.901 24.2021C39.1307 24.3554 38.4231 24.7336 37.8678 25.2889C37.3124 25.8443 36.9342 26.5518 36.781 27.3221C36.6278 28.0924 36.7064 28.8908 37.007 29.6164C37.3075 30.342 37.8165 30.9622 38.4695 31.3985C39.1225 31.8349 39.8903 32.0678 40.6757 32.0678C41.7288 32.0678 42.7389 31.6494 43.4836 30.9047C44.2283 30.16 44.6466 29.15 44.6466 28.0968ZM40.6757 29.9323C40.3126 29.9323 39.9578 29.8246 39.6559 29.6229C39.3541 29.4213 39.1188 29.1346 38.9799 28.7992C38.841 28.4638 38.8046 28.0948 38.8754 27.7387C38.9463 27.3827 39.1211 27.0556 39.3778 26.7989C39.6345 26.5422 39.9615 26.3674 40.3176 26.2966C40.6736 26.2258 41.0427 26.2621 41.3781 26.401C41.7135 26.54 42.0001 26.7752 42.2018 27.0771C42.4035 27.3789 42.5111 27.7338 42.5111 28.0968C42.5111 28.5836 42.3178 29.0505 41.9735 29.3947C41.6293 29.7389 41.1625 29.9323 40.6757 29.9323Z" fill="#047BDC" stroke="#047BDC" stroke-width="0.2"></path><path d="M52.2889 24.1258C51.5036 24.1258 50.7358 24.3587 50.0828 24.7951C49.4298 25.2314 48.9208 25.8516 48.6202 26.5772C48.3197 27.3028 48.2411 28.1012 48.3943 28.8715C48.5475 29.6418 48.9257 30.3493 49.481 30.9047C50.0364 31.46 50.7439 31.8382 51.5142 31.9915C52.2845 32.1447 53.083 32.066 53.8086 31.7655C54.5342 31.4649 55.1543 30.956 55.5907 30.3029C56.027 29.6499 56.2599 28.8822 56.2599 28.0968C56.2599 27.0436 55.8415 26.0336 55.0968 25.2889C54.3521 24.5442 53.3421 24.1258 52.2889 24.1258ZM52.2889 29.9323C51.9259 29.9323 51.571 29.8246 51.2692 29.6229C50.9674 29.4213 50.7321 29.1346 50.5932 28.7992C50.4542 28.4638 50.4179 28.0948 50.4887 27.7387C50.5595 27.3827 50.7344 27.0556 50.9911 26.7989C51.2478 26.5422 51.5748 26.3674 51.9309 26.2966C52.2869 26.2258 52.656 26.2621 52.9913 26.401C53.3267 26.54 53.6134 26.7752 53.8151 27.0771C54.0168 27.3789 54.1244 27.7338 54.1244 28.0968C54.1244 28.5836 53.931 29.0505 53.5868 29.3947C53.2426 29.7389 52.7757 29.9323 52.2889 29.9323Z" fill="#047BDC" stroke="#047BDC" stroke-width="0.2"></path><path d="M22.2891 0.9H22.1891V1V2.93548V3.03548H22.2891H24.2245H24.3245V2.93548V1V0.9H24.2245H22.2891Z" fill="#047BDC" stroke="#047BDC" stroke-width="0.2"></path><path d="M14.5469 0.9H14.4469V1V2.93548V3.03548H14.5469H20.3533H20.4533V2.93548V1V0.9H20.3533H14.5469Z" fill="#047BDC" stroke="#047BDC" stroke-width="0.2"></path><path d="M11.6493 61.0999H28.1009C28.2667 61.0999 28.4302 61.0613 28.5784 60.9871C28.7267 60.913 28.8557 60.8054 28.9551 60.6728L31.0042 57.9438L33.0532 60.6728C33.1526 60.8054 33.2816 60.913 33.4299 60.9871C33.5781 61.0613 33.7416 61.0999 33.9074 61.0999H50.359C51.1555 61.0999 51.9194 60.7835 52.4826 60.2202C53.0458 59.657 53.3622 58.8931 53.3622 58.0966V46.4837C53.3622 46.2006 53.2497 45.929 53.0495 45.7287C52.8492 45.5285 52.5777 45.416 52.2945 45.416H9.71384C9.43065 45.416 9.15907 45.5285 8.95883 45.7287C8.75859 45.929 8.64609 46.2006 8.64609 46.4837V58.0966C8.64609 58.8931 8.9625 59.657 9.52572 60.2202C10.0889 60.7835 10.8528 61.0999 11.6493 61.0999ZM10.7816 47.5515H51.2267V58.0966C51.2267 58.3268 51.1353 58.5475 50.9726 58.7102C50.8098 58.873 50.5891 58.9644 50.359 58.9644H34.4413L31.8584 55.5205C31.7589 55.3879 31.6299 55.2803 31.4817 55.2061C31.3334 55.132 31.1699 55.0934 31.0042 55.0934C30.8384 55.0934 30.6749 55.132 30.5266 55.2061C30.3784 55.2803 30.2494 55.3879 30.15 55.5205L27.5671 58.9644H11.6493C11.4192 58.9644 11.1985 58.873 11.0357 58.7102C10.873 58.5475 10.7816 58.3268 10.7816 58.0966V47.5515Z" fill="#047BDC" stroke="#047BDC" stroke-width="0.2"></path><path d="M13.581 57.2291H23.2584C23.5416 57.2291 23.8132 57.1166 24.0135 56.9164C24.2137 56.7162 24.3262 56.4446 24.3262 56.1614V50.3549C24.3262 50.0718 24.2137 49.8002 24.0135 49.5999C23.8132 49.3997 23.5416 49.2872 23.2584 49.2872H13.581C13.2978 49.2872 13.0263 49.3997 12.826 49.5999C12.6258 49.8002 12.5133 50.0718 12.5133 50.3549V56.1614C12.5133 56.4446 12.6258 56.7162 12.826 56.9164C13.0263 57.1166 13.2978 57.2291 13.581 57.2291ZM14.6488 51.4227H22.1907V55.0937H14.6488V51.4227Z" fill="#047BDC" stroke="#047BDC" stroke-width="0.2"></path><path d="M38.7412 57.2291H48.4186C48.7018 57.2291 48.9734 57.1166 49.1736 56.9164C49.3738 56.7162 49.4863 56.4446 49.4863 56.1614V50.3549C49.4863 50.0718 49.3738 49.8002 49.1736 49.5999C48.9734 49.3997 48.7018 49.2872 48.4186 49.2872H38.7412C38.458 49.2872 38.1864 49.3997 37.9862 49.5999C37.7859 49.8002 37.6734 50.0718 37.6734 50.3549V56.1614C37.6734 56.4446 37.7859 56.7162 37.9862 56.9164C38.1864 57.1166 38.458 57.2291 38.7412 57.2291ZM39.8089 51.4227H47.3509V55.0937H39.8089V51.4227Z" fill="#047BDC" stroke="#047BDC" stroke-width="0.2"></path></svg>