<svg xmlns="http://www.w3.org/2000/svg" width="58" height="51" viewBox="0 0 58 51" fill="none"><path d="M56.6595 4.37603H47.094C46.7071 4.37603 46.3584 4.60907 46.2102 4.96647C46.0622 5.32386 46.1439 5.7353 46.4174 6.00888L49.0891 8.68054L48.0505 9.71912L43.9441 5.61274C43.7647 5.43339 43.5215 5.33259 43.2677 5.33259C43.014 5.33259 42.7708 5.43339 42.5913 5.61274L40.4146 7.78951C38.3523 6.441 36.1007 5.47966 33.7022 4.92378V1.50636C33.7022 0.978103 33.2739 0.549805 32.7456 0.549805H25.0931C24.5649 0.549805 24.1366 0.978103 24.1366 1.50636V4.92378C21.738 5.47966 19.4864 6.44088 17.4242 7.78963L15.2474 5.61286C15.0679 5.43339 14.8247 5.33259 14.571 5.33259C14.3173 5.33259 14.0741 5.43339 13.8946 5.61274L9.11182 10.3955C8.73829 10.7691 8.73829 11.3747 9.11182 11.7482L11.2887 13.9251C9.93996 15.9874 8.97862 18.2391 8.42286 20.6375H5.00544C4.47718 20.6375 4.04888 21.0657 4.04888 21.5941V29.2465C4.04888 29.7748 4.47718 30.2031 5.00544 30.2031H8.42286C8.6553 31.2063 8.95973 32.1833 9.33279 33.1319L0.502808 41.9619C0.129272 42.3354 0.129272 42.9411 0.502808 43.3146L3.37248 46.1843C3.55925 46.3712 3.80401 46.4645 4.04888 46.4645C4.29376 46.4645 4.53852 46.3712 4.72529 46.1844L9.78823 41.1215L13.8946 45.2278C14.0741 45.4072 14.3173 45.508 14.571 45.508C14.8247 45.508 15.0679 45.4072 15.2474 45.2278L17.4242 43.0509C19.4864 44.3996 21.738 45.3609 24.1366 45.9168V49.3342C24.1366 49.8625 24.5649 50.2908 25.0931 50.2908H32.7456C33.2739 50.2908 33.7022 49.8625 33.7022 49.3342V45.9168C36.1007 45.3609 38.3523 44.3997 40.4146 43.0509L42.5913 45.2278C42.7708 45.4072 43.014 45.508 43.2677 45.508C43.5215 45.508 43.7647 45.4072 43.9441 45.2278L48.7269 40.445C49.1004 40.0715 49.1004 39.4659 48.7269 39.0924L46.55 36.9155C47.8987 34.8531 48.86 32.6015 49.4159 30.2031H52.8333C53.3616 30.2031 53.7898 29.7748 53.7898 29.2465V21.5941C53.7898 21.0657 53.3616 20.6375 52.8333 20.6375H49.4154C49.1836 19.6416 48.8774 18.6622 48.5034 17.7112L53.3116 12.903L55.9831 15.5746C56.2568 15.8481 56.6683 15.9299 57.0256 15.7819C57.383 15.6339 57.6162 15.2851 57.6162 14.8982V5.33259C57.6161 4.80421 57.1878 4.37603 56.6595 4.37603ZM4.04888 44.1552L2.5319 42.6383L10.174 34.9963C10.5101 35.6523 10.8813 36.2926 11.2886 36.9155L9.1117 39.0924L4.04888 44.1552ZM47.7021 21.7756C47.789 22.2256 48.1829 22.5506 48.6412 22.5506H51.8767V28.29H48.6412C48.1828 28.29 47.7888 28.6152 47.702 29.0652C47.1837 31.7505 46.1177 34.2446 44.5334 36.4782C44.2635 36.8587 44.3074 37.3782 44.6372 37.708L46.6977 39.7686L43.2677 43.1986L41.2073 41.1381C40.8775 40.8083 40.358 40.7643 39.9774 41.0343C37.744 42.6186 35.25 43.6847 32.5644 44.2029C32.1143 44.2897 31.7892 44.6837 31.7892 45.1421V48.3777H26.0498V45.1421C26.0498 44.6837 25.7246 44.2897 25.2745 44.2029C22.589 43.6847 20.095 42.6186 17.8616 41.0343C17.481 40.7643 16.9616 40.8083 16.6317 41.1381L14.571 43.1986L11.1409 39.7686L13.2015 37.7081C13.5312 37.3783 13.5751 36.8587 13.3052 36.4783C11.721 34.2448 10.6549 31.7507 10.1367 29.0654C10.0498 28.6152 9.65598 28.29 9.19755 28.29H5.962V22.5506H9.19755C9.65598 22.5506 10.05 22.2254 10.1368 21.7753C10.655 19.09 11.7211 16.5959 13.3054 14.3624C13.5752 13.9819 13.5314 13.4624 13.2016 13.1326L11.1409 11.0719L14.571 7.64196L16.6314 9.7025C16.9613 10.0324 17.4809 10.0764 17.8613 9.80629C20.0948 8.22199 22.5888 7.15591 25.2743 6.63769C25.7245 6.55088 26.0497 6.1569 26.0497 5.69847V2.46292H31.789V5.69847C31.789 6.1569 32.1143 6.55088 32.5643 6.63769C35.2499 7.15591 37.7438 8.22199 39.9773 9.80629C40.3579 10.0763 40.8773 10.0323 41.2072 9.7025L43.2677 7.64196L46.6977 11.0719L42.6888 15.0809C39.4397 10.7534 34.3756 8.20226 28.9194 8.20226C19.4253 8.20226 11.7013 15.9262 11.7013 25.4203C11.7013 34.9144 19.4253 42.6383 28.9194 42.6383C38.4134 42.6383 46.1374 34.9144 46.1374 25.4203C46.1374 23.8214 45.9185 22.2455 45.4884 20.7261L47.0137 19.2008C47.3024 20.0418 47.5336 20.9031 47.7021 21.7756ZM40.3902 25.8244C40.1765 31.9673 35.1134 36.899 28.9194 36.899C24.8789 36.899 21.3196 34.8003 19.2736 31.6361L25.0931 25.8165L32.0692 32.7926C32.256 32.9794 32.5007 33.0727 32.7456 33.0727C32.9905 33.0727 33.2352 32.9794 33.422 32.7926L40.3902 25.8244ZM39.947 17.8226C37.4614 14.2209 33.3419 12.0285 28.9194 12.0285C21.5351 12.0285 15.5276 18.036 15.5276 25.4203C15.5276 32.8046 21.5351 38.8121 28.9194 38.8121C36.3036 38.8121 42.3112 32.8046 42.3112 25.4203C42.3112 24.9395 42.2853 24.4569 42.2345 23.9801L43.906 22.3086C44.1161 23.3263 44.2243 24.3672 44.2243 25.4203C44.2243 33.8595 37.3585 40.7252 28.9194 40.7252C20.4803 40.7252 13.6145 33.8595 13.6145 25.4203C13.6145 16.9811 20.4803 10.1154 28.9194 10.1154C33.8605 10.1154 38.4395 12.4699 41.3201 16.4497L39.947 17.8226ZM38.5683 19.2014L32.7456 25.024L25.7695 18.048C25.3959 17.6744 24.7904 17.6744 24.4167 18.048L17.4486 25.0161C17.6622 18.8733 22.7253 13.9416 28.9194 13.9416C32.8286 13.9416 36.4621 15.9401 38.5683 19.2014ZM55.703 12.5888L53.988 10.8738C53.6143 10.5003 53.0088 10.5003 52.6352 10.8738L32.7456 30.7634L25.7695 23.7873C25.3959 23.4138 24.7904 23.4138 24.4167 23.7873L18.3372 29.8668C18.0245 29.1254 17.788 28.3444 17.6365 27.5338L25.0931 20.0772L32.0692 27.0533C32.4428 27.4268 33.0483 27.4268 33.422 27.0533L51.1183 9.35695C51.4918 8.98341 51.4918 8.37779 51.1183 8.00425L49.4033 6.28915H55.703V12.5888Z" fill="#0369CA"></path></svg>