<svg xmlns="http://www.w3.org/2000/svg" width="48" height="38" viewBox="0 0 48 38" fill="none"><path d="M10.8828 4.81451H10.8828V4.81579V21.8467C10.8828 24.0867 12.7086 25.9125 14.9486 25.9125H34.642C34.6456 25.9125 34.6585 25.914 34.676 25.9214C34.6839 25.9247 34.6907 25.9284 34.6959 25.9317C34.7005 25.9347 34.7025 25.9365 34.7025 25.9365L40.523 31.757C40.766 32 41.0892 32.1213 41.4004 32.1213C41.5581 32.1213 41.7141 32.0949 41.8675 32.0437L41.8787 32.04L41.8894 32.0353C42.3427 31.8353 42.6421 31.4031 42.6421 30.8904V26.0074C42.6421 25.9623 42.6811 25.9233 42.7263 25.9233H43.4592C45.6992 25.9233 47.525 24.0975 47.525 21.8575V4.81579C47.525 2.5758 45.6992 0.75 43.4592 0.75H14.9486C12.7187 0.75 10.8943 2.57623 10.8828 4.81451ZM35.7996 24.839L35.7997 24.8389L35.796 24.8354C35.483 24.535 35.0664 24.3562 34.6312 24.3562H14.9486C13.5668 24.3562 12.4392 23.2285 12.4392 21.8467V4.81671C12.4494 3.43296 13.5789 2.30635 14.9486 2.30635H43.4592C44.841 2.30635 45.9687 3.43401 45.9687 4.81579V21.8467C45.9687 23.2285 44.841 24.3562 43.4592 24.3562H42.7263C41.8229 24.3562 41.0858 25.0933 41.0858 25.9967V30.1251L35.7996 24.839Z" fill="#048DEF" stroke="#048DEF" stroke-width="0.5"></path><path d="M5.2632 37.4481L5.26319 37.4482L5.26704 37.4497C5.40358 37.5043 5.54284 37.5323 5.69404 37.5323C5.97754 37.5323 6.28297 37.4257 6.49856 37.1978L11.0793 32.6278H26.5839C28.4466 32.6278 29.9598 31.1146 29.9598 29.2519V25.145C29.9598 24.7159 29.6107 24.3669 29.1816 24.3669C28.7525 24.3669 28.4035 24.7159 28.4035 25.145V29.2519C28.4035 30.268 27.5875 31.0822 26.5839 31.0822H11.0189C10.6369 31.0822 10.2723 31.2402 10.0014 31.5112L6.10572 35.4068V32.5287C6.10572 31.7101 5.44262 31.0607 4.63769 31.0607H4.05562C3.04117 31.0607 2.22526 30.2357 2.22526 29.2303V15.778C2.22526 14.7752 3.04941 13.9584 4.05562 13.9584H11.6872C12.1163 13.9584 12.4654 13.6094 12.4654 13.1803C12.4654 12.7512 12.1163 12.4021 11.6872 12.4021H4.05562C2.1929 12.4021 0.679688 13.9153 0.679688 15.778V29.2411C0.679688 31.1038 2.1929 32.617 4.05562 32.617H4.56015V36.3984C4.56015 36.8561 4.8374 37.2696 5.2632 37.4481Z" fill="#048DEF" stroke="#048DEF" stroke-width="0.5"></path><path d="M38.6279 21.1305L38.628 21.1306L38.633 21.1255C39.2265 20.5086 39.5548 19.7025 39.5436 18.8485V9.93591C39.5436 8.13728 38.0837 6.68933 36.297 6.68933H22.1333C20.3347 6.68933 18.8867 8.14923 18.8867 9.93591V18.8502C18.8867 20.6488 20.3466 22.0968 22.1333 22.0968H36.3078C37.1851 22.0968 38.0016 21.7452 38.6279 21.1305ZM37.5107 20.0316L37.5082 20.0342C37.1889 20.3628 36.7686 20.5404 36.3078 20.5404H22.1333C21.2042 20.5404 20.4431 19.7793 20.4431 18.8502V9.93591C20.4431 9.00686 21.2042 8.24568 22.1333 8.24568H36.297C37.2261 8.24568 37.9872 9.00686 37.9872 9.93591V18.861H37.9872L37.9873 18.8663C37.9966 19.3028 37.8305 19.7119 37.5107 20.0316Z" fill="#048DEF" stroke="#048DEF" stroke-width="0.5"></path><path d="M27.5243 18.9384H30.9305C31.3455 18.9384 31.7086 18.5926 31.7086 18.1603C31.7086 17.7311 31.3596 17.3821 30.9305 17.3821H27.5243C27.0952 17.3821 26.7461 17.7311 26.7461 18.1603C26.7461 18.5894 27.0952 18.9384 27.5243 18.9384Z" fill="#048DEF" stroke="#048DEF" stroke-width="0.5"></path><path d="M27.8372 13.7088L27.8374 13.7088V13.6977V13.6761V11.2724C27.8374 10.6493 27.3375 10.1493 26.7143 10.1493H24.3106C23.6875 10.1493 23.1875 10.6493 23.1875 11.2724V13.6869C23.1875 14.31 23.6875 14.81 24.3106 14.81H26.7143C27.3305 14.81 27.8101 14.3192 27.8372 13.7088ZM26.2811 11.7164V13.2537H24.7438V11.7164H26.2811Z" fill="#048DEF" stroke="#048DEF" stroke-width="0.5"></path><path d="M35.2436 13.6817L35.2437 13.6817V13.6761V11.2724C35.2437 10.6493 34.7437 10.1493 34.1206 10.1493H31.7169C31.0937 10.1493 30.5938 10.6493 30.5938 11.2724V13.6869C30.5938 14.31 31.0937 14.81 31.7169 14.81H34.1206C34.7398 14.81 35.23 14.2934 35.2436 13.6817ZM33.6766 11.7164V13.2537H32.1393V11.7164H33.6766Z" fill="#048DEF" stroke="#048DEF" stroke-width="0.5"></path><path d="M34.9056 7.48588L34.9062 7.47666V7.46741V6.32483C34.9062 5.36872 34.1272 4.57654 33.158 4.57654H25.3108C24.3547 4.57654 23.5625 5.3556 23.5625 6.32483V7.46741C23.5625 7.89652 23.9116 8.24558 24.3407 8.24558C24.7698 8.24558 25.1188 7.89651 25.1188 7.46741V6.32483C25.1188 6.22576 25.2117 6.13289 25.3108 6.13289H33.1472C33.2462 6.13289 33.3391 6.22576 33.3391 6.32483V7.46741C33.3391 7.89651 33.6882 8.24558 34.1173 8.24558C34.5419 8.24558 34.8754 7.89364 34.9056 7.48588Z" fill="#048DEF" stroke="#048DEF" stroke-width="0.5"></path><path d="M18.2661 18.3349H19.6674C20.1039 18.3349 20.4455 17.9892 20.4455 17.5783C20.4455 17.1492 20.0965 16.8001 19.6674 16.8001H18.2661C18.1239 16.8001 18.0095 16.6857 18.0095 16.5435V12.2427C18.0095 12.1005 18.1239 11.986 18.2661 11.986H19.6674C20.0965 11.986 20.4455 11.637 20.4455 11.2079C20.4455 10.7788 20.0965 10.4297 19.6674 10.4297H18.2661C17.2657 10.4297 16.4531 11.2423 16.4531 12.2427V16.5219C16.4531 17.5223 17.2657 18.3349 18.2661 18.3349Z" fill="#048DEF" stroke="#048DEF" stroke-width="0.5"></path><path d="M38.7547 18.3349H40.1452C41.1467 18.3349 41.9582 17.5212 41.9582 16.5112V12.2427C41.9582 11.2423 41.1456 10.4297 40.1452 10.4297H38.7547C38.3256 10.4297 37.9766 10.7788 37.9766 11.2079C37.9766 11.637 38.3256 11.986 38.7547 11.986H40.1452C40.2874 11.986 40.4019 12.1005 40.4019 12.2427V16.5219C40.4019 16.6641 40.2874 16.7786 40.1452 16.7786H38.7547C38.3256 16.7786 37.9766 17.1276 37.9766 17.5567C37.9766 17.9858 38.3256 18.3349 38.7547 18.3349Z" fill="#048DEF" stroke="#048DEF" stroke-width="0.5"></path></svg>