<svg xmlns="http://www.w3.org/2000/svg" width="42" height="42" viewBox="0 0 42 42" fill="none"><mask id="path-1-outside-1_1577_201" maskUnits="userSpaceOnUse" x="-0.714844" y="-0.171753" width="43" height="42" fill="black"><rect fill="white" x="-0.714844" y="-0.171753" width="43" height="42"></rect><path d="M2.92572 22.8414H4.246V24.1363H2.92572V22.8414ZM5.56628 24.1363H6.88656V22.8414H5.56628V24.1363ZM16.7887 22.8414V24.1363H18.1089V22.8414H16.7887ZM41.2138 19.6042V39.0275C41.2133 39.5425 41.0044 40.0362 40.6331 40.4003C40.2619 40.7644 39.7585 40.9693 39.2334 40.9698H27.3509C26.8258 40.9693 26.3225 40.7644 25.9512 40.4003C25.5799 40.0362 25.3711 39.5425 25.3705 39.0275V31.9056H7.5467C7.37162 31.9056 7.20371 31.8374 7.07991 31.716C6.95611 31.5946 6.88656 31.4299 6.88656 31.2582C6.88758 30.3999 7.23567 29.5771 7.85445 28.9702C8.47322 28.3633 9.31217 28.022 10.1873 28.0209H13.0799L13.7401 26.7261H2.26558C1.74052 26.7255 1.23713 26.5207 0.865859 26.1565C0.494586 25.7924 0.285746 25.2987 0.285156 24.7837V2.77058C0.285746 2.25562 0.494586 1.76192 0.865859 1.39778C1.23713 1.03365 1.74052 0.828825 2.26558 0.828247H32.632C33.1571 0.828825 33.6605 1.03365 34.0317 1.39778C34.403 1.76192 34.6119 2.25562 34.6124 2.77058V17.6618H39.2334C39.7585 17.6624 40.2619 17.8672 40.6331 18.2314C41.0044 18.5955 41.2133 19.0892 41.2138 19.6042ZM39.2334 18.9567H27.3509C27.1759 18.9569 27.0081 19.0252 26.8843 19.1465C26.7605 19.2679 26.6909 19.4325 26.6908 19.6042V22.8414H39.8936V19.6042C39.8934 19.4325 39.8238 19.2679 39.7 19.1465C39.5763 19.0252 39.4085 18.9569 39.2334 18.9567ZM25.3705 28.0209V26.7261H21.1576L21.8177 28.0209H25.3705ZM26.6908 34.4954H39.8936V24.1363H26.6908V34.4954ZM1.60544 2.77058V20.2516H25.3705V19.6042C25.3711 19.0892 25.5799 18.5955 25.9512 18.2314C26.3225 17.8672 26.8258 17.6624 27.3509 17.6618H33.2922V2.77058C33.292 2.59892 33.2224 2.43434 33.0986 2.31296C32.9749 2.19158 32.8071 2.12331 32.632 2.12314H2.26558C2.09055 2.12331 1.92274 2.19158 1.79898 2.31296C1.67522 2.43434 1.60561 2.59892 1.60544 2.77058ZM2.26558 25.4312H25.3705V21.5465H1.60544V24.7837C1.60555 24.9554 1.67513 25.12 1.79891 25.2414C1.92268 25.3628 2.09053 25.4311 2.26558 25.4312ZM14.5562 28.0209H20.3415L19.6813 26.7261H15.2163L14.5562 28.0209ZM25.3705 30.6107V29.3158H10.1873C9.77779 29.3163 9.3785 29.4411 9.04414 29.6729C8.70977 29.9047 8.45671 30.2323 8.31964 30.6107H25.3705ZM39.8936 39.0275V35.7903H26.6908V39.0275C26.6909 39.1992 26.7605 39.3638 26.8842 39.4852C27.008 39.6066 27.1759 39.6749 27.3509 39.675H39.2334C39.4085 39.6749 39.5763 39.6066 39.7001 39.4852C39.8239 39.3638 39.8935 39.1992 39.8936 39.0275ZM33.2922 20.2516H30.6516V21.5465H33.2922V20.2516ZM35.9327 20.2516H34.6124V21.5465H35.9327V20.2516ZM28.011 38.3801H30.6516V37.0852H28.011V38.3801ZM35.9327 38.3801H38.5733V37.0852H35.9327V38.3801ZM31.9719 27.3735C31.9719 27.7577 31.8557 28.1332 31.6381 28.4526C31.4205 28.772 31.1112 29.021 30.7493 29.168C30.3875 29.315 29.9893 29.3535 29.6051 29.2785C29.2209 29.2036 28.8681 29.0186 28.5911 28.7469C28.3141 28.4753 28.1255 28.1292 28.0491 27.7524C27.9727 27.3757 28.0119 26.9851 28.1618 26.6302C28.3117 26.2753 28.5655 25.9719 28.8912 25.7585C29.2169 25.5451 29.5998 25.4312 29.9915 25.4312C30.5165 25.4317 31.0199 25.6366 31.3912 26.0007C31.7625 26.3648 31.9713 26.8585 31.9719 27.3735ZM30.6516 27.3735C30.6516 27.2454 30.6129 27.1203 30.5404 27.0138C30.4678 26.9073 30.3647 26.8243 30.2441 26.7753C30.1235 26.7263 29.9907 26.7135 29.8627 26.7385C29.7346 26.7635 29.617 26.8251 29.5247 26.9157C29.4324 27.0062 29.3695 27.1216 29.344 27.2472C29.3185 27.3728 29.3316 27.503 29.3816 27.6213C29.4315 27.7396 29.5162 27.8407 29.6247 27.9118C29.7333 27.983 29.8609 28.0209 29.9915 28.0209C30.1665 28.0208 30.3344 27.9526 30.4581 27.8312C30.5819 27.7098 30.6515 27.5452 30.6516 27.3735ZM2.92572 8.59759C2.92572 7.57317 3.23545 6.57175 3.81575 5.71998C4.39604 4.8682 5.22084 4.20433 6.18584 3.8123C7.15084 3.42027 8.2127 3.3177 9.23713 3.51755C10.2616 3.71741 11.2026 4.21071 11.9412 4.93509C12.6797 5.65946 13.1827 6.58237 13.3865 7.58711C13.5903 8.59184 13.4857 9.63328 13.086 10.5797C12.6862 11.5262 12.0093 12.3351 11.1409 12.9042C10.2724 13.4734 9.25135 13.7772 8.20684 13.7772C6.80669 13.7756 5.46434 13.2294 4.47428 12.2584C3.48423 11.2873 2.92731 9.97081 2.92572 8.59759ZM4.246 8.59759C4.246 9.3659 4.4783 10.117 4.91352 10.7558C5.34874 11.3946 5.96734 11.8925 6.69109 12.1866C7.41484 12.4806 8.21123 12.5575 8.97956 12.4076C9.74789 12.2577 10.4536 11.8877 11.0076 11.3445C11.5615 10.8012 11.9387 10.109 12.0916 9.35545C12.2444 8.6019 12.166 7.82082 11.8662 7.11099C11.5664 6.40116 11.0587 5.79446 10.4074 5.3676C9.75601 4.94075 8.99022 4.71292 8.20684 4.71292C7.15671 4.71403 6.14991 5.12367 5.40736 5.85194C4.6648 6.58022 4.24713 7.56765 4.246 8.59759ZM29.9915 33.2005H31.3117V31.9056H29.9915V33.2005ZM32.632 33.2005H33.9523V31.9056H32.632V33.2005ZM35.2726 31.9056V33.2005H36.5929V31.9056H35.2726ZM18.1089 17.6618H16.7887V18.9567H18.1089V17.6618ZM20.7495 17.6618H19.4292V18.9567H20.7495V17.6618ZM15.4684 17.6618H14.1481V18.9567H15.4684V17.6618Z"></path></mask><path d="M2.92572 22.8414H4.246V24.1363H2.92572V22.8414ZM5.56628 24.1363H6.88656V22.8414H5.56628V24.1363ZM16.7887 22.8414V24.1363H18.1089V22.8414H16.7887ZM41.2138 19.6042V39.0275C41.2133 39.5425 41.0044 40.0362 40.6331 40.4003C40.2619 40.7644 39.7585 40.9693 39.2334 40.9698H27.3509C26.8258 40.9693 26.3225 40.7644 25.9512 40.4003C25.5799 40.0362 25.3711 39.5425 25.3705 39.0275V31.9056H7.5467C7.37162 31.9056 7.20371 31.8374 7.07991 31.716C6.95611 31.5946 6.88656 31.4299 6.88656 31.2582C6.88758 30.3999 7.23567 29.5771 7.85445 28.9702C8.47322 28.3633 9.31217 28.022 10.1873 28.0209H13.0799L13.7401 26.7261H2.26558C1.74052 26.7255 1.23713 26.5207 0.865859 26.1565C0.494586 25.7924 0.285746 25.2987 0.285156 24.7837V2.77058C0.285746 2.25562 0.494586 1.76192 0.865859 1.39778C1.23713 1.03365 1.74052 0.828825 2.26558 0.828247H32.632C33.1571 0.828825 33.6605 1.03365 34.0317 1.39778C34.403 1.76192 34.6119 2.25562 34.6124 2.77058V17.6618H39.2334C39.7585 17.6624 40.2619 17.8672 40.6331 18.2314C41.0044 18.5955 41.2133 19.0892 41.2138 19.6042ZM39.2334 18.9567H27.3509C27.1759 18.9569 27.0081 19.0252 26.8843 19.1465C26.7605 19.2679 26.6909 19.4325 26.6908 19.6042V22.8414H39.8936V19.6042C39.8934 19.4325 39.8238 19.2679 39.7 19.1465C39.5763 19.0252 39.4085 18.9569 39.2334 18.9567ZM25.3705 28.0209V26.7261H21.1576L21.8177 28.0209H25.3705ZM26.6908 34.4954H39.8936V24.1363H26.6908V34.4954ZM1.60544 2.77058V20.2516H25.3705V19.6042C25.3711 19.0892 25.5799 18.5955 25.9512 18.2314C26.3225 17.8672 26.8258 17.6624 27.3509 17.6618H33.2922V2.77058C33.292 2.59892 33.2224 2.43434 33.0986 2.31296C32.9749 2.19158 32.8071 2.12331 32.632 2.12314H2.26558C2.09055 2.12331 1.92274 2.19158 1.79898 2.31296C1.67522 2.43434 1.60561 2.59892 1.60544 2.77058ZM2.26558 25.4312H25.3705V21.5465H1.60544V24.7837C1.60555 24.9554 1.67513 25.12 1.79891 25.2414C1.92268 25.3628 2.09053 25.4311 2.26558 25.4312ZM14.5562 28.0209H20.3415L19.6813 26.7261H15.2163L14.5562 28.0209ZM25.3705 30.6107V29.3158H10.1873C9.77779 29.3163 9.3785 29.4411 9.04414 29.6729C8.70977 29.9047 8.45671 30.2323 8.31964 30.6107H25.3705ZM39.8936 39.0275V35.7903H26.6908V39.0275C26.6909 39.1992 26.7605 39.3638 26.8842 39.4852C27.008 39.6066 27.1759 39.6749 27.3509 39.675H39.2334C39.4085 39.6749 39.5763 39.6066 39.7001 39.4852C39.8239 39.3638 39.8935 39.1992 39.8936 39.0275ZM33.2922 20.2516H30.6516V21.5465H33.2922V20.2516ZM35.9327 20.2516H34.6124V21.5465H35.9327V20.2516ZM28.011 38.3801H30.6516V37.0852H28.011V38.3801ZM35.9327 38.3801H38.5733V37.0852H35.9327V38.3801ZM31.9719 27.3735C31.9719 27.7577 31.8557 28.1332 31.6381 28.4526C31.4205 28.772 31.1112 29.021 30.7493 29.168C30.3875 29.315 29.9893 29.3535 29.6051 29.2785C29.2209 29.2036 28.8681 29.0186 28.5911 28.7469C28.3141 28.4753 28.1255 28.1292 28.0491 27.7524C27.9727 27.3757 28.0119 26.9851 28.1618 26.6302C28.3117 26.2753 28.5655 25.9719 28.8912 25.7585C29.2169 25.5451 29.5998 25.4312 29.9915 25.4312C30.5165 25.4317 31.0199 25.6366 31.3912 26.0007C31.7625 26.3648 31.9713 26.8585 31.9719 27.3735ZM30.6516 27.3735C30.6516 27.2454 30.6129 27.1203 30.5404 27.0138C30.4678 26.9073 30.3647 26.8243 30.2441 26.7753C30.1235 26.7263 29.9907 26.7135 29.8627 26.7385C29.7346 26.7635 29.617 26.8251 29.5247 26.9157C29.4324 27.0062 29.3695 27.1216 29.344 27.2472C29.3185 27.3728 29.3316 27.503 29.3816 27.6213C29.4315 27.7396 29.5162 27.8407 29.6247 27.9118C29.7333 27.983 29.8609 28.0209 29.9915 28.0209C30.1665 28.0208 30.3344 27.9526 30.4581 27.8312C30.5819 27.7098 30.6515 27.5452 30.6516 27.3735ZM2.92572 8.59759C2.92572 7.57317 3.23545 6.57175 3.81575 5.71998C4.39604 4.8682 5.22084 4.20433 6.18584 3.8123C7.15084 3.42027 8.2127 3.3177 9.23713 3.51755C10.2616 3.71741 11.2026 4.21071 11.9412 4.93509C12.6797 5.65946 13.1827 6.58237 13.3865 7.58711C13.5903 8.59184 13.4857 9.63328 13.086 10.5797C12.6862 11.5262 12.0093 12.3351 11.1409 12.9042C10.2724 13.4734 9.25135 13.7772 8.20684 13.7772C6.80669 13.7756 5.46434 13.2294 4.47428 12.2584C3.48423 11.2873 2.92731 9.97081 2.92572 8.59759ZM4.246 8.59759C4.246 9.3659 4.4783 10.117 4.91352 10.7558C5.34874 11.3946 5.96734 11.8925 6.69109 12.1866C7.41484 12.4806 8.21123 12.5575 8.97956 12.4076C9.74789 12.2577 10.4536 11.8877 11.0076 11.3445C11.5615 10.8012 11.9387 10.109 12.0916 9.35545C12.2444 8.6019 12.166 7.82082 11.8662 7.11099C11.5664 6.40116 11.0587 5.79446 10.4074 5.3676C9.75601 4.94075 8.99022 4.71292 8.20684 4.71292C7.15671 4.71403 6.14991 5.12367 5.40736 5.85194C4.6648 6.58022 4.24713 7.56765 4.246 8.59759ZM29.9915 33.2005H31.3117V31.9056H29.9915V33.2005ZM32.632 33.2005H33.9523V31.9056H32.632V33.2005ZM35.2726 31.9056V33.2005H36.5929V31.9056H35.2726ZM18.1089 17.6618H16.7887V18.9567H18.1089V17.6618ZM20.7495 17.6618H19.4292V18.9567H20.7495V17.6618ZM15.4684 17.6618H14.1481V18.9567H15.4684V17.6618Z" fill="#047BDC"></path><path d="M2.92572 22.8414H4.246V24.1363H2.92572V22.8414ZM5.56628 24.1363H6.88656V22.8414H5.56628V24.1363ZM16.7887 22.8414V24.1363H18.1089V22.8414H16.7887ZM41.2138 19.6042V39.0275C41.2133 39.5425 41.0044 40.0362 40.6331 40.4003C40.2619 40.7644 39.7585 40.9693 39.2334 40.9698H27.3509C26.8258 40.9693 26.3225 40.7644 25.9512 40.4003C25.5799 40.0362 25.3711 39.5425 25.3705 39.0275V31.9056H7.5467C7.37162 31.9056 7.20371 31.8374 7.07991 31.716C6.95611 31.5946 6.88656 31.4299 6.88656 31.2582C6.88758 30.3999 7.23567 29.5771 7.85445 28.9702C8.47322 28.3633 9.31217 28.022 10.1873 28.0209H13.0799L13.7401 26.7261H2.26558C1.74052 26.7255 1.23713 26.5207 0.865859 26.1565C0.494586 25.7924 0.285746 25.2987 0.285156 24.7837V2.77058C0.285746 2.25562 0.494586 1.76192 0.865859 1.39778C1.23713 1.03365 1.74052 0.828825 2.26558 0.828247H32.632C33.1571 0.828825 33.6605 1.03365 34.0317 1.39778C34.403 1.76192 34.6119 2.25562 34.6124 2.77058V17.6618H39.2334C39.7585 17.6624 40.2619 17.8672 40.6331 18.2314C41.0044 18.5955 41.2133 19.0892 41.2138 19.6042ZM39.2334 18.9567H27.3509C27.1759 18.9569 27.0081 19.0252 26.8843 19.1465C26.7605 19.2679 26.6909 19.4325 26.6908 19.6042V22.8414H39.8936V19.6042C39.8934 19.4325 39.8238 19.2679 39.7 19.1465C39.5763 19.0252 39.4085 18.9569 39.2334 18.9567ZM25.3705 28.0209V26.7261H21.1576L21.8177 28.0209H25.3705ZM26.6908 34.4954H39.8936V24.1363H26.6908V34.4954ZM1.60544 2.77058V20.2516H25.3705V19.6042C25.3711 19.0892 25.5799 18.5955 25.9512 18.2314C26.3225 17.8672 26.8258 17.6624 27.3509 17.6618H33.2922V2.77058C33.292 2.59892 33.2224 2.43434 33.0986 2.31296C32.9749 2.19158 32.8071 2.12331 32.632 2.12314H2.26558C2.09055 2.12331 1.92274 2.19158 1.79898 2.31296C1.67522 2.43434 1.60561 2.59892 1.60544 2.77058ZM2.26558 25.4312H25.3705V21.5465H1.60544V24.7837C1.60555 24.9554 1.67513 25.12 1.79891 25.2414C1.92268 25.3628 2.09053 25.4311 2.26558 25.4312ZM14.5562 28.0209H20.3415L19.6813 26.7261H15.2163L14.5562 28.0209ZM25.3705 30.6107V29.3158H10.1873C9.77779 29.3163 9.3785 29.4411 9.04414 29.6729C8.70977 29.9047 8.45671 30.2323 8.31964 30.6107H25.3705ZM39.8936 39.0275V35.7903H26.6908V39.0275C26.6909 39.1992 26.7605 39.3638 26.8842 39.4852C27.008 39.6066 27.1759 39.6749 27.3509 39.675H39.2334C39.4085 39.6749 39.5763 39.6066 39.7001 39.4852C39.8239 39.3638 39.8935 39.1992 39.8936 39.0275ZM33.2922 20.2516H30.6516V21.5465H33.2922V20.2516ZM35.9327 20.2516H34.6124V21.5465H35.9327V20.2516ZM28.011 38.3801H30.6516V37.0852H28.011V38.3801ZM35.9327 38.3801H38.5733V37.0852H35.9327V38.3801ZM31.9719 27.3735C31.9719 27.7577 31.8557 28.1332 31.6381 28.4526C31.4205 28.772 31.1112 29.021 30.7493 29.168C30.3875 29.315 29.9893 29.3535 29.6051 29.2785C29.2209 29.2036 28.8681 29.0186 28.5911 28.7469C28.3141 28.4753 28.1255 28.1292 28.0491 27.7524C27.9727 27.3757 28.0119 26.9851 28.1618 26.6302C28.3117 26.2753 28.5655 25.9719 28.8912 25.7585C29.2169 25.5451 29.5998 25.4312 29.9915 25.4312C30.5165 25.4317 31.0199 25.6366 31.3912 26.0007C31.7625 26.3648 31.9713 26.8585 31.9719 27.3735ZM30.6516 27.3735C30.6516 27.2454 30.6129 27.1203 30.5404 27.0138C30.4678 26.9073 30.3647 26.8243 30.2441 26.7753C30.1235 26.7263 29.9907 26.7135 29.8627 26.7385C29.7346 26.7635 29.617 26.8251 29.5247 26.9157C29.4324 27.0062 29.3695 27.1216 29.344 27.2472C29.3185 27.3728 29.3316 27.503 29.3816 27.6213C29.4315 27.7396 29.5162 27.8407 29.6247 27.9118C29.7333 27.983 29.8609 28.0209 29.9915 28.0209C30.1665 28.0208 30.3344 27.9526 30.4581 27.8312C30.5819 27.7098 30.6515 27.5452 30.6516 27.3735ZM2.92572 8.59759C2.92572 7.57317 3.23545 6.57175 3.81575 5.71998C4.39604 4.8682 5.22084 4.20433 6.18584 3.8123C7.15084 3.42027 8.2127 3.3177 9.23713 3.51755C10.2616 3.71741 11.2026 4.21071 11.9412 4.93509C12.6797 5.65946 13.1827 6.58237 13.3865 7.58711C13.5903 8.59184 13.4857 9.63328 13.086 10.5797C12.6862 11.5262 12.0093 12.3351 11.1409 12.9042C10.2724 13.4734 9.25135 13.7772 8.20684 13.7772C6.80669 13.7756 5.46434 13.2294 4.47428 12.2584C3.48423 11.2873 2.92731 9.97081 2.92572 8.59759ZM4.246 8.59759C4.246 9.3659 4.4783 10.117 4.91352 10.7558C5.34874 11.3946 5.96734 11.8925 6.69109 12.1866C7.41484 12.4806 8.21123 12.5575 8.97956 12.4076C9.74789 12.2577 10.4536 11.8877 11.0076 11.3445C11.5615 10.8012 11.9387 10.109 12.0916 9.35545C12.2444 8.6019 12.166 7.82082 11.8662 7.11099C11.5664 6.40116 11.0587 5.79446 10.4074 5.3676C9.75601 4.94075 8.99022 4.71292 8.20684 4.71292C7.15671 4.71403 6.14991 5.12367 5.40736 5.85194C4.6648 6.58022 4.24713 7.56765 4.246 8.59759ZM29.9915 33.2005H31.3117V31.9056H29.9915V33.2005ZM32.632 33.2005H33.9523V31.9056H32.632V33.2005ZM35.2726 31.9056V33.2005H36.5929V31.9056H35.2726ZM18.1089 17.6618H16.7887V18.9567H18.1089V17.6618ZM20.7495 17.6618H19.4292V18.9567H20.7495V17.6618ZM15.4684 17.6618H14.1481V18.9567H15.4684V17.6618Z" stroke="#047BDC" stroke-width="0.4" mask="url(#path-1-outside-1_1577_201)"></path></svg>