<svg xmlns="http://www.w3.org/2000/svg" width="62" height="60" viewBox="0 0 62 60" fill="none"><mask id="path-1-outside-1_1591_206" maskUnits="userSpaceOnUse" x="0" y="0" width="62" height="60" fill="black"><rect fill="white" width="62" height="60"></rect><path d="M60.3484 48.5104L40.375 42.2867V41.9919C44.1325 39.5419 45.9447 35.9535 46.615 32.9494H48.8125C51.3972 32.9494 53.5 30.9019 53.5 28.3853V21.0826C53.5 19.5728 52.2381 18.3441 50.6875 18.3441H49.75C49.75 16.9 48.5931 15.7262 47.1353 15.6248C47.8497 11.8174 47.3528 9.00134 45.625 7.26879C43.8053 5.44405 41.2038 5.39293 39.9625 5.49334C39.0991 4.10858 36.4487 1.00039 30.0625 1.00039C23.965 1.00039 20.2347 2.74664 18.8538 3.5408L15.625 1.18296C15.3597 0.989441 15.01 0.945625 14.7034 1.06977C14.3978 1.193 14.1813 1.46502 14.1344 1.7836L13.3966 6.81238L9.92031 4.78133C9.64656 4.62159 9.30719 4.60881 9.02219 4.74573C8.73625 4.88357 8.54219 5.15377 8.50656 5.46322C7.84844 11.2268 11.0753 14.5303 13.4134 16.136C12.7122 16.6344 12.2509 17.435 12.2509 18.3432H11.3134C9.76281 18.3432 8.50094 19.5719 8.50094 21.0817V28.3844C8.50094 30.901 10.6038 32.9485 13.1884 32.9485H15.3859C16.0563 35.9526 17.8684 39.5419 21.6259 41.991V42.2858L1.65156 48.5104C1.26344 48.6318 1 48.9832 1 49.3803V58.5086C1 59.0125 1.42 59.4214 1.9375 59.4214H60.0625C60.58 59.4214 61 59.0125 61 58.5086V49.3803C61 48.9832 60.7366 48.6318 60.3484 48.5104ZM23.5 43.0307C25.5166 43.98 27.9672 44.6327 30.9409 44.8144C30.9606 44.8153 30.9803 44.8162 31 44.8162C31.0197 44.8162 31.0394 44.8162 31.0581 44.8144C34.0328 44.6336 36.4834 43.98 38.5 43.0307V48.0485C37.7003 48.6619 35.1813 50.2932 31 50.2932C26.8187 50.2932 24.2959 48.6592 23.5 48.0494V43.0307ZM50.6875 20.1698C51.2041 20.1698 51.625 20.5797 51.625 21.0826V28.3853C51.625 29.8951 50.3631 31.1237 48.8125 31.1237H46.8981C46.9244 30.8052 46.9375 30.4994 46.9375 30.2109C48.4881 30.2109 49.75 28.9823 49.75 27.4724V20.1698H50.6875ZM47.875 18.3441V27.4724C47.875 27.9754 47.4541 28.3853 46.9375 28.3853H34.6319C34.2147 26.8125 32.7447 25.6468 31 25.6468C29.2553 25.6468 27.7862 26.8125 27.3681 28.3853H15.0625C14.5459 28.3853 14.125 27.9754 14.125 27.4724V18.3441C14.125 17.8412 14.5459 17.4313 15.0625 17.4313H46.9375C47.4541 17.4313 47.875 17.8412 47.875 18.3441ZM10.2963 7.13095L13.6431 9.08623C13.9141 9.24415 14.245 9.25876 14.5281 9.12731C14.8122 8.99586 15.0091 8.73479 15.0531 8.43265L15.7666 3.5691L18.25 5.38197C18.5828 5.6257 19.0422 5.6257 19.375 5.38197C19.4097 5.35641 22.9572 2.82605 30.0625 2.82605C36.775 2.82605 38.5 6.65993 38.5666 6.81694C38.5722 6.82972 39.4375 8.57596 39.4375 11.0415C39.4375 11.5454 39.8575 11.9543 40.375 11.9543C40.8925 11.9543 41.3125 11.5454 41.3125 11.0415C41.3125 9.4541 41.0191 8.16245 40.7444 7.28705C41.7559 7.28887 43.2391 7.49609 44.2797 8.54036C45.5875 9.85118 45.9034 12.293 45.2313 15.6057H16.1847C15.265 15.2241 10.3928 12.9292 10.2963 7.13095ZM13.1875 31.1237C11.6369 31.1237 10.375 29.8951 10.375 28.3853V21.0826C10.375 20.5797 10.7959 20.1698 11.3125 20.1698H12.25V27.4724C12.25 28.9823 13.5119 30.2109 15.0625 30.2109C15.0625 30.4994 15.0756 30.8052 15.1019 31.1237H13.1875ZM16.9375 30.2109H28.1875C28.705 30.2109 29.125 29.802 29.125 29.2981C29.125 28.2912 29.9659 27.4724 31 27.4724C32.0341 27.4724 32.875 28.2912 32.875 29.2981C32.875 29.802 33.295 30.2109 33.8125 30.2109H45.0625C45.0606 30.713 44.8441 42.1142 31 42.9887C17.1456 42.1133 16.9394 30.6956 16.9375 30.2109ZM59.125 57.5958H2.875V50.0467L21.625 44.2046V48.4675C21.625 48.7094 21.7234 48.9422 21.8997 49.1129C22.0253 49.2361 25.0553 52.1188 31 52.1188C36.9447 52.1188 39.9747 49.2361 40.1003 49.1129C40.2766 48.9413 40.375 48.7094 40.375 48.4675V44.2046L59.125 50.0467V57.5958Z"></path></mask><path d="M60.3484 48.5104L40.375 42.2867V41.9919C44.1325 39.5419 45.9447 35.9535 46.615 32.9494H48.8125C51.3972 32.9494 53.5 30.9019 53.5 28.3853V21.0826C53.5 19.5728 52.2381 18.3441 50.6875 18.3441H49.75C49.75 16.9 48.5931 15.7262 47.1353 15.6248C47.8497 11.8174 47.3528 9.00134 45.625 7.26879C43.8053 5.44405 41.2038 5.39293 39.9625 5.49334C39.0991 4.10858 36.4487 1.00039 30.0625 1.00039C23.965 1.00039 20.2347 2.74664 18.8538 3.5408L15.625 1.18296C15.3597 0.989441 15.01 0.945625 14.7034 1.06977C14.3978 1.193 14.1813 1.46502 14.1344 1.7836L13.3966 6.81238L9.92031 4.78133C9.64656 4.62159 9.30719 4.60881 9.02219 4.74573C8.73625 4.88357 8.54219 5.15377 8.50656 5.46322C7.84844 11.2268 11.0753 14.5303 13.4134 16.136C12.7122 16.6344 12.2509 17.435 12.2509 18.3432H11.3134C9.76281 18.3432 8.50094 19.5719 8.50094 21.0817V28.3844C8.50094 30.901 10.6038 32.9485 13.1884 32.9485H15.3859C16.0563 35.9526 17.8684 39.5419 21.6259 41.991V42.2858L1.65156 48.5104C1.26344 48.6318 1 48.9832 1 49.3803V58.5086C1 59.0125 1.42 59.4214 1.9375 59.4214H60.0625C60.58 59.4214 61 59.0125 61 58.5086V49.3803C61 48.9832 60.7366 48.6318 60.3484 48.5104ZM23.5 43.0307C25.5166 43.98 27.9672 44.6327 30.9409 44.8144C30.9606 44.8153 30.9803 44.8162 31 44.8162C31.0197 44.8162 31.0394 44.8162 31.0581 44.8144C34.0328 44.6336 36.4834 43.98 38.5 43.0307V48.0485C37.7003 48.6619 35.1813 50.2932 31 50.2932C26.8187 50.2932 24.2959 48.6592 23.5 48.0494V43.0307ZM50.6875 20.1698C51.2041 20.1698 51.625 20.5797 51.625 21.0826V28.3853C51.625 29.8951 50.3631 31.1237 48.8125 31.1237H46.8981C46.9244 30.8052 46.9375 30.4994 46.9375 30.2109C48.4881 30.2109 49.75 28.9823 49.75 27.4724V20.1698H50.6875ZM47.875 18.3441V27.4724C47.875 27.9754 47.4541 28.3853 46.9375 28.3853H34.6319C34.2147 26.8125 32.7447 25.6468 31 25.6468C29.2553 25.6468 27.7862 26.8125 27.3681 28.3853H15.0625C14.5459 28.3853 14.125 27.9754 14.125 27.4724V18.3441C14.125 17.8412 14.5459 17.4313 15.0625 17.4313H46.9375C47.4541 17.4313 47.875 17.8412 47.875 18.3441ZM10.2963 7.13095L13.6431 9.08623C13.9141 9.24415 14.245 9.25876 14.5281 9.12731C14.8122 8.99586 15.0091 8.73479 15.0531 8.43265L15.7666 3.5691L18.25 5.38197C18.5828 5.6257 19.0422 5.6257 19.375 5.38197C19.4097 5.35641 22.9572 2.82605 30.0625 2.82605C36.775 2.82605 38.5 6.65993 38.5666 6.81694C38.5722 6.82972 39.4375 8.57596 39.4375 11.0415C39.4375 11.5454 39.8575 11.9543 40.375 11.9543C40.8925 11.9543 41.3125 11.5454 41.3125 11.0415C41.3125 9.4541 41.0191 8.16245 40.7444 7.28705C41.7559 7.28887 43.2391 7.49609 44.2797 8.54036C45.5875 9.85118 45.9034 12.293 45.2313 15.6057H16.1847C15.265 15.2241 10.3928 12.9292 10.2963 7.13095ZM13.1875 31.1237C11.6369 31.1237 10.375 29.8951 10.375 28.3853V21.0826C10.375 20.5797 10.7959 20.1698 11.3125 20.1698H12.25V27.4724C12.25 28.9823 13.5119 30.2109 15.0625 30.2109C15.0625 30.4994 15.0756 30.8052 15.1019 31.1237H13.1875ZM16.9375 30.2109H28.1875C28.705 30.2109 29.125 29.802 29.125 29.2981C29.125 28.2912 29.9659 27.4724 31 27.4724C32.0341 27.4724 32.875 28.2912 32.875 29.2981C32.875 29.802 33.295 30.2109 33.8125 30.2109H45.0625C45.0606 30.713 44.8441 42.1142 31 42.9887C17.1456 42.1133 16.9394 30.6956 16.9375 30.2109ZM59.125 57.5958H2.875V50.0467L21.625 44.2046V48.4675C21.625 48.7094 21.7234 48.9422 21.8997 49.1129C22.0253 49.2361 25.0553 52.1188 31 52.1188C36.9447 52.1188 39.9747 49.2361 40.1003 49.1129C40.2766 48.9413 40.375 48.7094 40.375 48.4675V44.2046L59.125 50.0467V57.5958Z" fill="#047BDC"></path><path d="M60.3484 48.5104L40.375 42.2867V41.9919C44.1325 39.5419 45.9447 35.9535 46.615 32.9494H48.8125C51.3972 32.9494 53.5 30.9019 53.5 28.3853V21.0826C53.5 19.5728 52.2381 18.3441 50.6875 18.3441H49.75C49.75 16.9 48.5931 15.7262 47.1353 15.6248C47.8497 11.8174 47.3528 9.00134 45.625 7.26879C43.8053 5.44405 41.2038 5.39293 39.9625 5.49334C39.0991 4.10858 36.4487 1.00039 30.0625 1.00039C23.965 1.00039 20.2347 2.74664 18.8538 3.5408L15.625 1.18296C15.3597 0.989441 15.01 0.945625 14.7034 1.06977C14.3978 1.193 14.1813 1.46502 14.1344 1.7836L13.3966 6.81238L9.92031 4.78133C9.64656 4.62159 9.30719 4.60881 9.02219 4.74573C8.73625 4.88357 8.54219 5.15377 8.50656 5.46322C7.84844 11.2268 11.0753 14.5303 13.4134 16.136C12.7122 16.6344 12.2509 17.435 12.2509 18.3432H11.3134C9.76281 18.3432 8.50094 19.5719 8.50094 21.0817V28.3844C8.50094 30.901 10.6038 32.9485 13.1884 32.9485H15.3859C16.0563 35.9526 17.8684 39.5419 21.6259 41.991V42.2858L1.65156 48.5104C1.26344 48.6318 1 48.9832 1 49.3803V58.5086C1 59.0125 1.42 59.4214 1.9375 59.4214H60.0625C60.58 59.4214 61 59.0125 61 58.5086V49.3803C61 48.9832 60.7366 48.6318 60.3484 48.5104ZM23.5 43.0307C25.5166 43.98 27.9672 44.6327 30.9409 44.8144C30.9606 44.8153 30.9803 44.8162 31 44.8162C31.0197 44.8162 31.0394 44.8162 31.0581 44.8144C34.0328 44.6336 36.4834 43.98 38.5 43.0307V48.0485C37.7003 48.6619 35.1813 50.2932 31 50.2932C26.8187 50.2932 24.2959 48.6592 23.5 48.0494V43.0307ZM50.6875 20.1698C51.2041 20.1698 51.625 20.5797 51.625 21.0826V28.3853C51.625 29.8951 50.3631 31.1237 48.8125 31.1237H46.8981C46.9244 30.8052 46.9375 30.4994 46.9375 30.2109C48.4881 30.2109 49.75 28.9823 49.75 27.4724V20.1698H50.6875ZM47.875 18.3441V27.4724C47.875 27.9754 47.4541 28.3853 46.9375 28.3853H34.6319C34.2147 26.8125 32.7447 25.6468 31 25.6468C29.2553 25.6468 27.7862 26.8125 27.3681 28.3853H15.0625C14.5459 28.3853 14.125 27.9754 14.125 27.4724V18.3441C14.125 17.8412 14.5459 17.4313 15.0625 17.4313H46.9375C47.4541 17.4313 47.875 17.8412 47.875 18.3441ZM10.2963 7.13095L13.6431 9.08623C13.9141 9.24415 14.245 9.25876 14.5281 9.12731C14.8122 8.99586 15.0091 8.73479 15.0531 8.43265L15.7666 3.5691L18.25 5.38197C18.5828 5.6257 19.0422 5.6257 19.375 5.38197C19.4097 5.35641 22.9572 2.82605 30.0625 2.82605C36.775 2.82605 38.5 6.65993 38.5666 6.81694C38.5722 6.82972 39.4375 8.57596 39.4375 11.0415C39.4375 11.5454 39.8575 11.9543 40.375 11.9543C40.8925 11.9543 41.3125 11.5454 41.3125 11.0415C41.3125 9.4541 41.0191 8.16245 40.7444 7.28705C41.7559 7.28887 43.2391 7.49609 44.2797 8.54036C45.5875 9.85118 45.9034 12.293 45.2313 15.6057H16.1847C15.265 15.2241 10.3928 12.9292 10.2963 7.13095ZM13.1875 31.1237C11.6369 31.1237 10.375 29.8951 10.375 28.3853V21.0826C10.375 20.5797 10.7959 20.1698 11.3125 20.1698H12.25V27.4724C12.25 28.9823 13.5119 30.2109 15.0625 30.2109C15.0625 30.4994 15.0756 30.8052 15.1019 31.1237H13.1875ZM16.9375 30.2109H28.1875C28.705 30.2109 29.125 29.802 29.125 29.2981C29.125 28.2912 29.9659 27.4724 31 27.4724C32.0341 27.4724 32.875 28.2912 32.875 29.2981C32.875 29.802 33.295 30.2109 33.8125 30.2109H45.0625C45.0606 30.713 44.8441 42.1142 31 42.9887C17.1456 42.1133 16.9394 30.6956 16.9375 30.2109ZM59.125 57.5958H2.875V50.0467L21.625 44.2046V48.4675C21.625 48.7094 21.7234 48.9422 21.8997 49.1129C22.0253 49.2361 25.0553 52.1188 31 52.1188C36.9447 52.1188 39.9747 49.2361 40.1003 49.1129C40.2766 48.9413 40.375 48.7094 40.375 48.4675V44.2046L59.125 50.0467V57.5958Z" stroke="#047BDC" stroke-width="0.4" mask="url(#path-1-outside-1_1591_206)"></path><path d="M38.0254 32.9606V32.9606L38.0251 32.9605C37.5176 32.7129 36.896 32.9081 36.6338 33.4034L36.6336 33.4038C36.5709 33.5234 34.9598 36.5013 30.9959 36.5013C27.0348 36.5013 25.4232 33.5274 25.3613 33.4088C25.1042 32.9085 24.4832 32.7073 23.9706 32.9568C23.4584 33.2062 23.2485 33.8153 23.5064 34.3174C23.5978 34.4955 25.73 38.5279 30.9969 38.5279C36.2639 38.5279 38.395 34.4954 38.4872 34.3178L38.5213 34.252L38.5181 34.2489C38.7242 33.7627 38.5115 33.1997 38.0254 32.9606Z" fill="#047BDC" stroke="#047BDC" stroke-width="0.2"></path><path d="M42.25 19.1574H42.15V19.2574V21.0831V21.1831H42.25H44.025V24.7344V24.8344H44.125H46H46.1V24.7344V20.1703C46.1 19.6087 45.6327 19.1574 45.0625 19.1574H42.25Z" fill="#047BDC" stroke="#047BDC" stroke-width="0.2"></path><path d="M38.5 19.1574H38.4V19.2574V21.0831V21.1831H38.5H40.375H40.475V21.0831V19.2574V19.1574H40.375H38.5Z" fill="#047BDC" stroke="#047BDC" stroke-width="0.2"></path><path d="M17.9789 21.083V20.983H17.8789H16.0039H15.9039V21.083V25.6472C15.9039 26.2088 16.3712 26.66 16.9414 26.66H19.7539H19.8539V26.56V24.7343V24.6343H19.7539H17.9789V21.083Z" fill="#047BDC" stroke="#047BDC" stroke-width="0.2"></path><path d="M21.6289 24.6344H21.5289V24.7344V26.56V26.66H21.6289H23.5039H23.6039V26.56V24.7344V24.6344H23.5039H21.6289Z" fill="#047BDC" stroke="#047BDC" stroke-width="0.2"></path></svg>