<svg xmlns="http://www.w3.org/2000/svg" width="62" height="60" viewBox="0 0 62 60" fill="none"><g clip-path="url(#clip0_1657_37)"><path d="M10.2188 22.6089L13.7943 13.7664L17.3664 22.6089" stroke="#0369CA" stroke-width="2" stroke-miterlimit="10" stroke-linecap="round" stroke-linejoin="round"></path><path d="M21.6133 22.6089V13.7664" stroke="#0369CA" stroke-width="2" stroke-miterlimit="10" stroke-linecap="round" stroke-linejoin="round"></path><path d="M11.1289 20.3645H16.4598" stroke="#0369CA" stroke-width="2" stroke-miterlimit="10" stroke-linecap="round" stroke-linejoin="round"></path><mask id="mask0_1657_37" style="mask-type:luminance" maskUnits="userSpaceOnUse" x="0" y="0" width="62" height="60"><path d="M0 3.8147e-06H62V60H0V3.8147e-06Z" fill="white"></path></mask><g mask="url(#mask0_1657_37)"><path d="M57.53 4.14823C59.1456 4.14823 60.4579 5.41562 60.4579 6.98019C60.4579 8.54476 59.1456 9.81226 57.53 9.81226C55.9142 9.81226 54.6055 8.54476 54.6055 6.98019C54.6055 5.41562 55.9142 4.14823 57.53 4.14823Z" stroke="#0369CA" stroke-width="2" stroke-miterlimit="10" stroke-linecap="round" stroke-linejoin="round"></path><path d="M54.6055 6.98022H49.9766" stroke="#0369CA" stroke-width="2" stroke-miterlimit="10" stroke-linecap="round" stroke-linejoin="round"></path><path d="M49.978 6.98023L48.7578 12.0897" stroke="#0369CA" stroke-width="2" stroke-miterlimit="10" stroke-linecap="round" stroke-linejoin="round"></path><path d="M57.8658 16.4598C59.4816 16.4598 60.7904 17.7306 60.7904 19.295C60.7904 20.8596 59.4816 22.1271 57.8658 22.1271C56.2502 22.1271 54.9414 20.8596 54.9414 19.295C54.9414 17.7306 56.2502 16.4598 57.8658 16.4598Z" stroke="#0369CA" stroke-width="2" stroke-miterlimit="10" stroke-linecap="round" stroke-linejoin="round"></path><path d="M48.7565 26.4971H38.9023" stroke="#0369CA" stroke-width="2" stroke-miterlimit="10" stroke-linecap="round" stroke-linejoin="round"></path><path d="M54.9388 19.295L37.3438 19.2918" stroke="#0369CA" stroke-width="2" stroke-miterlimit="10" stroke-linecap="round" stroke-linejoin="round"></path><path d="M48.7565 12.0896H38.9023" stroke="#0369CA" stroke-width="2" stroke-miterlimit="10" stroke-linecap="round" stroke-linejoin="round"></path><path d="M57.53 34.4385C59.1456 34.4385 60.4579 33.1711 60.4579 31.6065C60.4579 30.042 59.1456 28.7713 57.53 28.7713C55.9142 28.7713 54.6055 30.042 54.6055 31.6065C54.6055 33.1711 55.9142 34.4385 57.53 34.4385Z" stroke="#0369CA" stroke-width="2" stroke-miterlimit="10" stroke-linecap="round" stroke-linejoin="round"></path><path d="M54.6055 31.6066H49.9766" stroke="#0369CA" stroke-width="2" stroke-miterlimit="10" stroke-linecap="round" stroke-linejoin="round"></path><path d="M49.978 31.6066L48.7578 26.4971" stroke="#0369CA" stroke-width="2" stroke-miterlimit="10" stroke-linecap="round" stroke-linejoin="round"></path><path d="M13.8225 6.21444C12.3092 6.54444 10.8946 7.12217 9.62671 7.90112L8.71657 7.01987C8.23934 6.55768 7.45877 6.55768 6.98154 7.01987L4.55119 9.37323C4.07408 9.8353 4.07408 10.5912 4.55119 11.0532L5.46133 11.9345C4.65702 13.1624 4.06052 14.5322 3.71952 15.9976H2.43798C1.763 15.9976 1.21094 16.5323 1.21094 17.1859V20.513C1.21094 21.1665 1.763 21.7012 2.43798 21.7012H3.71952C4.06052 23.1667 4.65702 24.5365 5.46133 25.7644L4.55119 26.6456C4.07408 27.1077 4.07408 27.8635 4.55119 28.3256L6.98154 30.6791C7.45877 31.1412 8.23934 31.1412 8.71657 30.6791L9.62671 29.7977C10.8946 30.5768 12.3092 31.1543 13.8225 31.4844V32.7255C13.8225 33.379 14.3748 33.9137 15.0497 33.9137H18.4854C19.1603 33.9137 19.7126 33.379 19.7126 32.7255V31.4844C21.2259 31.1543 22.6404 30.5768 23.9084 29.7977L24.8185 30.6791C25.2958 31.1412 26.0762 31.1412 26.5536 30.6791L28.9838 28.3256C29.461 27.8635 29.461 27.1077 28.9838 26.6456L28.0738 25.7644C28.8781 24.5365 29.4746 23.1667 29.8155 21.7012H31.097C31.7721 21.7012 32.3242 21.1665 32.3242 20.513V17.1859C32.3242 16.5323 31.7721 15.9976 31.097 15.9976H29.8155C29.4746 14.5322 28.8781 13.1624 28.0738 11.9345L28.9838 11.0532C29.461 10.5912 29.461 9.8353 28.9838 9.37323L26.5536 7.01987C26.0762 6.55768 25.2958 6.55768 24.8185 7.01987L23.9084 7.90112C22.6404 7.12217 21.2259 6.54444 19.7126 6.21444V4.97342C19.7126 4.31987 19.1603 3.78514 18.4854 3.78514H15.0497C14.3748 3.78514 13.8225 4.31987 13.8225 4.97342V6.21444Z" stroke="#0369CA" stroke-width="2" stroke-miterlimit="10" stroke-linecap="round" stroke-linejoin="round"></path><path d="M16.9609 33.9138C18.413 35.9733 19.6571 38.2178 20.107 41.2545M32.095 1.95007C30.8372 1.68932 29.5589 1.5671 28.2842 1.58362C25.1211 1.54073 21.9272 2.36596 19.1355 3.96674M36.4579 41.2545C37.7871 32.2733 46.087 30.2435 46.0733 19.2918C46.0701 14.1097 44.1611 9.92444 41.2503 6.92737" stroke="#0369CA" stroke-width="2" stroke-miterlimit="10" stroke-linecap="round" stroke-linejoin="round"></path><path d="M37.0461 3.7522L37.0391 3.74885" stroke="#0369CA" stroke-width="2" stroke-miterlimit="10" stroke-linecap="round" stroke-linejoin="round"></path><path d="M35.2145 51.6152V55.0182C35.2145 56.8897 33.6329 58.418 31.7003 58.418H24.8662C22.937 58.418 21.3555 56.8897 21.3555 55.0182V51.6152" stroke="#0369CA" stroke-width="2" stroke-miterlimit="10" stroke-linecap="round" stroke-linejoin="round"></path><path d="M21.0815 41.2478H35.486C36.9585 41.2478 38.1618 42.413 38.1618 43.8388C38.1618 45.2648 36.9585 46.4332 35.486 46.4332H21.0815C19.609 46.4332 18.4023 45.2648 18.4023 43.8388C18.4023 42.413 19.609 41.2478 21.0815 41.2478Z" stroke="#0369CA" stroke-width="2" stroke-miterlimit="10" stroke-linecap="round" stroke-linejoin="round"></path><path d="M35.486 46.4332C36.9585 46.4332 38.1618 47.5983 38.1618 49.0242C38.1618 50.4502 36.9585 51.6152 35.486 51.6152H21.0815C19.609 51.6152 18.4023 50.4502 18.4023 49.0242C18.4023 47.5983 19.609 46.4332 21.0815 46.4332" stroke="#0369CA" stroke-width="2" stroke-miterlimit="10" stroke-linecap="round" stroke-linejoin="round"></path></g></g><defs><clipPath id="clip0_1657_37"><rect width="62" height="60" fill="white"></rect></clipPath></defs></svg>