<svg xmlns="http://www.w3.org/2000/svg" width="62" height="42" viewBox="0 0 62 42" fill="none"><path d="M52.7995 41.2832H39.1842C38.9177 41.2781 38.6637 41.1687 38.477 40.9784C38.2903 40.7881 38.1857 40.5321 38.1857 40.2655C38.1857 39.9989 38.2903 39.743 38.477 39.5527C38.6637 39.3624 38.9177 39.2529 39.1842 39.2479H51.7818V36.1869L51.275 36.6937C50.3558 37.6403 48.8881 36.1749 49.836 35.2546C50.6494 34.3917 51.5058 33.5704 52.402 32.7939C52.5838 32.7186 52.7834 32.6969 52.9771 32.7314C53.1708 32.7659 53.3506 32.8552 53.4952 32.9887C53.5208 33.0086 55.7353 35.2308 55.7612 35.2547C56.7083 36.1739 55.2418 37.6415 54.322 36.6937L53.8172 36.1889V40.2655C53.8173 40.3992 53.791 40.5316 53.7399 40.6551C53.6888 40.7786 53.6138 40.8908 53.5193 40.9853C53.4248 41.0798 53.3126 41.1548 53.1891 41.2059C53.0656 41.257 52.9332 41.2833 52.7995 41.2832ZM30.6354 41.2832H3.75064C2.75605 41.2816 1.80267 40.8857 1.09957 40.1822C0.396471 39.4787 0.00104417 38.5251 0 37.5305V20.9795C0.001459 19.9852 0.397088 19.032 1.10016 18.3289C1.80323 17.6259 2.75639 17.2302 3.75068 17.2288H11.3275V15.5195C11.3287 14.6495 11.6749 13.8155 12.29 13.2004C12.9052 12.5852 13.7391 12.2391 14.6091 12.2379H19.773C20.6429 12.2391 21.4769 12.5852 22.0921 13.2004C22.7072 13.8155 23.0533 14.6495 23.0546 15.5195V17.2288H26.841V11.1685C26.837 11.1322 26.835 11.0957 26.835 11.0592V8.74162C26.8361 7.74754 27.2313 6.79443 27.934 6.09132C28.6367 5.38821 29.5896 4.99249 30.5837 4.99096H38.1666V3.28158C38.1678 2.41163 38.5139 1.57766 39.1291 0.962508C39.7442 0.347359 40.5782 0.00122762 41.4482 0H46.612C47.482 0.00122761 48.316 0.347358 48.9311 0.962507C49.5463 1.57766 49.8924 2.41162 49.8936 3.28158V4.99096H57.4784C58.4725 4.99249 59.4254 5.38821 60.1282 6.09132C60.8309 6.79443 61.2261 7.74754 61.2271 8.74162V25.3006C61.2257 26.2949 60.83 27.2481 60.127 27.9511C59.4239 28.6542 58.4707 29.0498 57.4765 29.0513H34.3861V37.5305C34.3851 38.5251 33.9896 39.4787 33.2865 40.1822C32.5834 40.8857 31.63 41.2816 30.6354 41.2832ZM2.03534 24.8256V37.5305C2.03568 37.9856 2.21645 38.4219 2.53801 38.7438C2.85957 39.0657 3.29567 39.247 3.75068 39.2479H30.6355C31.0905 39.247 31.5266 39.0657 31.8482 38.7438C32.1697 38.4219 32.3505 37.9856 32.3508 37.5305V24.8296C28.828 26.3083 23.639 28.4727 19.7969 30.0709C19.8984 30.4679 19.9078 30.8829 19.8244 31.2841C19.7409 31.6853 19.5669 32.0621 19.3155 32.3857C19.0641 32.7093 18.7421 32.9712 18.374 33.1513C18.0059 33.3314 17.6015 33.4249 17.1917 33.4247C16.782 33.4246 16.3776 33.3307 16.0097 33.1504C15.6417 32.97 15.3199 32.7079 15.0688 32.3841C14.8177 32.0603 14.6439 31.6833 14.5608 31.282C14.4777 30.8808 14.4874 30.4658 14.5892 30.0689L2.03534 24.8256ZM16.875 31.3232C16.9571 31.3719 17.0499 31.4 17.1453 31.405C17.2407 31.4101 17.3359 31.3918 17.4226 31.352C17.5094 31.3121 17.5853 31.2517 17.6436 31.1761C17.7019 31.1004 17.741 31.0118 17.7575 30.9177C17.7595 30.8938 17.7616 30.87 17.7616 30.8441V29.3991C17.7567 29.1114 17.8232 28.6804 17.521 28.5086C17.4421 28.4595 17.3528 28.4296 17.2603 28.4211C17.1677 28.4127 17.0745 28.426 16.988 28.4599C16.9015 28.4939 16.8241 28.5477 16.7621 28.6169C16.7 28.686 16.655 28.7688 16.6306 28.8584C16.6931 29.377 16.4064 31.0491 16.875 31.3232ZM18.6062 26.7894C19.0505 27.0616 19.3976 27.4671 19.5981 27.9481C23.52 26.3149 29.1262 23.9794 32.3507 22.6213V20.9795C32.3503 20.5247 32.1695 20.0886 31.8479 19.767C31.5263 19.4454 31.0902 19.2645 30.6354 19.2641H3.75064C3.29584 19.2646 2.85979 19.4454 2.5382 19.767C2.21661 20.0886 2.03576 20.5247 2.03534 20.9795V22.6193L14.786 27.9461C14.9407 27.6007 15.1677 27.2926 15.4517 27.0425C15.7357 26.7924 16.0702 26.6062 16.4323 26.4966C16.7945 26.3869 17.1761 26.3563 17.5511 26.4068C17.9261 26.4573 18.286 26.5878 18.6062 26.7894ZM34.3861 27.016H57.4765C57.9313 27.0155 58.3673 26.8347 58.6889 26.5131C59.0105 26.1915 59.1914 25.7554 59.1918 25.3006V12.5917L46.6279 17.841C46.7288 18.237 46.7378 18.6508 46.6543 19.0508C46.5708 19.4509 46.3969 19.8265 46.1461 20.1491C45.8952 20.4717 45.574 20.7328 45.2069 20.9122C44.8397 21.0917 44.4364 21.185 44.0278 21.1848C43.6191 21.1846 43.2159 21.0911 42.8489 20.9113C42.4819 20.7315 42.1609 20.4703 41.9103 20.1475C41.6597 19.8247 41.4862 19.4489 41.403 19.0488C41.3198 18.6487 41.3291 18.2349 41.4303 17.8389L28.8763 12.5936V17.2287H30.6353C31.6297 17.2302 32.5828 17.6258 33.2859 18.3289C33.989 19.032 34.3846 19.9852 34.3861 20.9795V27.016ZM43.6624 19.0535C43.7452 19.1186 43.8446 19.1594 43.9493 19.1714C44.054 19.1834 44.16 19.166 44.2554 19.1213C44.3508 19.0766 44.432 19.0062 44.4897 18.9181C44.5475 18.8299 44.5797 18.7275 44.5827 18.6221C44.5769 18.2904 44.5867 17.0222 44.5926 16.716C44.5824 16.5739 44.5187 16.4409 44.4143 16.3438C44.31 16.2468 44.1727 16.193 44.0301 16.1933C43.8876 16.1935 43.7505 16.2478 43.6465 16.3452C43.5425 16.4426 43.4792 16.5759 43.4696 16.718C43.5298 17.053 43.3005 18.862 43.6624 19.0535ZM13.3628 17.2288H21.0192C20.984 16.1753 21.3639 14.3097 19.7729 14.2732H14.6091C13.0211 14.3071 13.3961 16.1786 13.3628 17.2288ZM37.0257 13.7922L41.6291 15.7142C41.8383 15.2532 42.1759 14.8621 42.6014 14.5876C43.0269 14.3132 43.5225 14.167 44.0288 14.1666C44.5352 14.1662 45.0309 14.3115 45.4569 14.5852C45.8829 14.8589 46.2211 15.2494 46.4312 15.7102L59.1918 10.3815V8.74166C59.1914 8.28717 59.0109 7.85135 58.6897 7.52979C58.3685 7.20823 57.9329 7.02717 57.4784 7.02634H30.5837C30.1292 7.02717 29.6936 7.20823 29.3724 7.52979C29.0512 7.85135 28.8707 8.28717 28.8704 8.74166V10.3815L37.0257 13.7922ZM40.202 4.99096H47.8583C47.8231 3.93745 48.203 2.07185 46.612 2.03538H41.4482C39.8601 2.06923 40.2352 3.94074 40.202 4.99096ZM5.16588 13.5597C4.5742 13.7254 2.86328 11.5677 2.20226 11.0196C1.25532 10.1006 2.72147 8.63255 3.64143 9.58065L4.14823 10.0874V6.00863C4.14815 5.87496 4.17442 5.7426 4.22553 5.61909C4.27665 5.49559 4.35161 5.38337 4.44612 5.28885C4.54064 5.19434 4.65285 5.11938 4.77636 5.06827C4.89986 5.01715 5.03223 4.99088 5.1659 4.99096H18.7792C19.0458 4.99602 19.2997 5.10546 19.4864 5.29576C19.6732 5.48606 19.7778 5.74202 19.7778 6.00863C19.7778 6.27523 19.6732 6.5312 19.4864 6.7215C19.2997 6.9118 19.0458 7.02124 18.7792 7.0263H6.18365V10.0872L6.69045 9.58044C7.60975 8.63371 9.07733 10.0995 8.12943 11.0196C7.43697 11.597 5.77226 13.7141 5.16588 13.5597Z" fill="#047BDC"></path></svg>