<svg xmlns="http://www.w3.org/2000/svg" width="64" height="64" viewBox="0 0 64 64" fill="none"><path d="M43.8936 35.8844L41.2232 33.893C41.3512 33.2823 41.4183 32.6493 41.4183 32.0004C41.4183 31.3514 41.3512 30.7184 41.2232 30.1066L43.8936 28.1152C44.3703 27.7605 44.5046 27.1063 44.2071 26.5923L42.873 24.2908C42.5755 23.7767 41.9388 23.5665 41.3918 23.8001L38.3226 25.1086C37.3788 24.2674 36.2622 23.6164 35.0326 23.2139L34.6359 19.9151C34.5655 19.3267 34.0632 18.8828 33.4682 18.8828H30.7989C30.2038 18.8828 29.7026 19.3268 29.6312 19.9151L29.2356 23.2139C28.0049 23.6165 26.8884 24.2674 25.9445 25.1086L22.8764 23.8001C22.3282 23.5665 21.6926 23.7768 21.3951 24.2908L20.0599 26.5923C19.7624 27.1064 19.8968 27.7606 20.3735 28.1152L23.0449 30.1066C22.9169 30.7184 22.8497 31.3514 22.8497 32.0004C22.8497 32.6493 22.9169 33.2823 23.0449 33.893L20.3735 35.8844C19.8967 36.2401 19.7624 36.8943 20.0599 37.4073L21.3951 39.7098C21.6926 40.2228 22.3282 40.4341 22.8764 40.2005L25.9445 38.892C26.8883 39.7332 28.0049 40.3842 29.2356 40.7867L29.6312 44.0855C29.7027 44.6738 30.2039 45.1168 30.7989 45.1168H33.4682C34.0633 45.1168 34.5655 44.6739 34.6359 44.0855L35.0326 40.7867C36.2622 40.3841 37.3788 39.7332 38.3226 38.892L41.3918 40.2005C41.9389 40.4341 42.5755 40.2228 42.873 39.7098L44.2071 37.4073C44.5047 36.8945 44.3703 36.2401 43.8936 35.8844ZM32.134 36.819C29.4614 36.819 27.2955 34.6608 27.2955 32.0004C27.2955 29.3388 29.4614 27.1817 32.134 27.1817C34.8054 27.1817 36.9713 29.3388 36.9713 32.0004C36.9713 34.6609 34.8054 36.819 32.134 36.819Z" stroke="#047BDC" stroke-width="1.5" stroke-miterlimit="10" stroke-linecap="round" stroke-linejoin="round"></path><path d="M23.5172 53.4699H3.12086C1.94951 53.4699 1 52.5243 1 51.3577V47.229C1 46.0624 1.94951 45.1168 3.12086 45.1168H23.5172C24.6886 45.1168 25.6381 46.0624 25.6381 47.229V51.3577C25.6381 52.5243 24.6886 53.4699 23.5172 53.4699Z" stroke="#047BDC" stroke-width="1.5" stroke-miterlimit="10" stroke-linecap="round" stroke-linejoin="round"></path><path d="M18.4444 61.8226H23.5176C24.6888 61.8226 25.6383 60.877 25.6383 59.7106V55.5826C25.6383 54.4162 24.6888 53.4706 23.5176 53.4706H3.12073C1.94951 53.4706 1 54.4162 1 55.5826V59.7106C1 60.877 1.94951 61.8226 3.12073 61.8226H14.0601" stroke="#047BDC" stroke-width="1.5" stroke-miterlimit="10" stroke-linecap="round" stroke-linejoin="round"></path><path d="M5.68717 51.0554C6.66427 51.0554 7.45637 50.2665 7.45637 49.2934C7.45637 48.3203 6.66427 47.5315 5.68717 47.5315C4.71007 47.5315 3.91797 48.3203 3.91797 49.2934C3.91797 50.2665 4.71007 51.0554 5.68717 51.0554Z" stroke="#047BDC" stroke-width="1.5" stroke-miterlimit="10" stroke-linecap="round" stroke-linejoin="round"></path><path d="M11.5504 51.0554C12.5275 51.0554 13.3196 50.2665 13.3196 49.2934C13.3196 48.3203 12.5275 47.5315 11.5504 47.5315C10.5733 47.5315 9.78125 48.3203 9.78125 49.2934C9.78125 50.2665 10.5733 51.0554 11.5504 51.0554Z" stroke="#047BDC" stroke-width="1.5" stroke-miterlimit="10" stroke-linecap="round" stroke-linejoin="round"></path><path d="M5.68717 59.4083C6.66427 59.4083 7.45637 58.6194 7.45637 57.6463C7.45637 56.6732 6.66427 55.8844 5.68717 55.8844C4.71007 55.8844 3.91797 56.6732 3.91797 57.6463C3.91797 58.6194 4.71007 59.4083 5.68717 59.4083Z" stroke="#047BDC" stroke-width="1.5" stroke-miterlimit="10" stroke-linecap="round" stroke-linejoin="round"></path><path d="M11.5504 59.4083C12.5275 59.4083 13.3196 58.6194 13.3196 57.6463C13.3196 56.6732 12.5275 55.8844 11.5504 55.8844C10.5733 55.8844 9.78125 56.6732 9.78125 57.6463C9.78125 58.6194 10.5733 59.4083 11.5504 59.4083Z" stroke="#047BDC" stroke-width="1.5" stroke-miterlimit="10" stroke-linecap="round" stroke-linejoin="round"></path><path d="M16.8906 49.2935H22.44" stroke="#047BDC" stroke-width="1.5" stroke-miterlimit="10" stroke-linecap="round" stroke-linejoin="round"></path><path d="M16.8906 57.6465H22.44" stroke="#047BDC" stroke-width="1.5" stroke-miterlimit="10" stroke-linecap="round" stroke-linejoin="round"></path><path d="M58.5805 22.9231H61.4403C62.3033 22.9231 63.0023 22.227 63.0023 21.3674V2.55501C63.0023 1.69672 62.3033 1.00061 61.4403 1.00061H55.9437C54.6371 1.00061 53.3832 1.51708 52.4588 2.43774L47.0837 7.79205C46.1605 8.71271 45.6406 9.96021 45.6406 11.2614V21.3674C45.6406 22.227 46.3396 22.9231 47.2027 22.9231H54.1962" stroke="#047BDC" stroke-width="1.5" stroke-miterlimit="10" stroke-linecap="round" stroke-linejoin="round"></path><path d="M56.3882 1C55.0152 1 53.9022 2.10841 53.9022 3.47581V7.67417C53.9022 8.53295 53.2031 9.22919 52.3408 9.22919H48.1266C46.7536 9.22919 45.6406 10.3376 45.6406 11.705" stroke="#047BDC" stroke-width="1.5" stroke-miterlimit="10" stroke-linecap="round" stroke-linejoin="round"></path><path d="M50.4062 13.7124H58.2358" stroke="#047BDC" stroke-width="1.5" stroke-miterlimit="10" stroke-linecap="round" stroke-linejoin="round"></path><path d="M50.4062 17.611H58.2358" stroke="#047BDC" stroke-width="1.5" stroke-miterlimit="10" stroke-linecap="round" stroke-linejoin="round"></path><path d="M61.5264 28.3342C61.3985 27.3174 60.4682 26.5962 59.446 26.7236C58.425 26.8509 57.7008 27.7786 57.8287 28.7954C57.961 29.8465 58.0279 30.9247 58.0279 32.0003C58.0279 37.669 56.2174 43.0472 52.7923 47.5536C49.8582 51.414 45.8329 54.4081 41.3179 56.1223L41.0004 54.2465C40.875 53.5055 39.991 53.1776 39.4094 53.6564L33.4341 58.5748C32.8525 59.0535 33.0094 59.9796 33.7164 60.242L40.9805 62.9372C41.6876 63.1996 42.4146 62.6013 42.2892 61.8603L41.948 59.8447C47.3935 57.9332 52.2602 54.4032 55.7637 49.7936C59.6829 44.6372 61.7545 38.4843 61.7545 32.0004C61.7544 30.771 61.6776 29.5376 61.5264 28.3342Z" stroke="#047BDC" stroke-width="1.5" stroke-miterlimit="10" stroke-linecap="round" stroke-linejoin="round"></path><path d="M18.6302 9.98766C19.9956 9.15307 21.4361 8.44574 22.9318 7.87812L23.25 9.75437C23.3752 10.4954 24.2596 10.8222 24.8408 10.3444L30.816 5.42552C31.3972 4.94647 31.2406 4.02082 30.5341 3.75885L23.27 1.06298C22.5623 0.801003 21.8357 1.39981 21.961 2.13958L22.3017 4.15555C16.8564 6.06674 11.9899 9.59718 8.48626 14.2067C4.56672 19.3639 2.49609 25.5166 2.49609 31.9999C2.49609 33.2287 2.57251 34.4625 2.72408 35.6664C2.84182 36.6045 3.64477 37.2919 4.57048 37.2919C4.64689 37.2919 4.72581 37.2869 4.80472 37.2769C5.82563 37.1497 6.54966 36.2215 6.42189 35.2048C6.28911 34.1544 6.22272 33.0753 6.22272 31.9999C6.22272 26.3313 8.0328 20.9533 11.4575 16.4473C12.5336 15.0313 13.7561 13.7327 15.0965 12.5712" stroke="#047BDC" stroke-width="1.5" stroke-miterlimit="10" stroke-linecap="round" stroke-linejoin="round"></path></svg>