<svg xmlns="http://www.w3.org/2000/svg" width="56" height="62" viewBox="0 0 56 62" fill="none"><path d="M53.1844 22.121C54.2593 20.9585 54.9153 19.4122 54.9153 17.7157C54.9153 14.1156 51.9579 11.1864 48.3214 11.1864C44.6849 11.1864 41.7276 14.1156 41.7276 17.7157C41.7276 20.812 43.9154 23.4094 46.8397 24.0766C46.8092 24.1069 46.7799 24.1359 46.7493 24.1662L40.1323 30.7209H32.3926C30.6129 30.7209 29.1653 32.1546 29.1653 33.9177C29.1653 34.3645 29.2582 34.7896 29.4268 35.177H26.5732C26.7406 34.7908 26.8347 34.3645 26.8347 33.9177C26.8347 32.1558 25.3871 30.7209 23.6074 30.7209H15.8677L9.25067 24.1662C9.22136 24.1371 9.19082 24.1069 9.1615 24.0778C12.0883 23.4106 14.2773 20.8132 14.2773 17.7169C14.2773 14.1168 11.3175 11.1876 7.67978 11.1876C4.0445 11.1876 1.08594 14.1168 1.08594 17.7169C1.08594 19.4134 1.74313 20.9597 2.81686 22.1222C1.16901 22.7664 0 24.3587 0 26.2163V43.9622C0 45.9324 1.61853 47.5356 3.60841 47.5356H12.3937V58.4266C12.3937 60.3967 14.0122 62 16.0021 62C17.992 62 19.6105 60.3967 19.6105 58.4266V43.961C19.6105 43.3713 19.4651 42.8155 19.2086 42.3251H27.0252V57.1067H25.3786C24.0154 57.1067 22.9074 58.2038 22.9074 59.5515V61.0301C22.9074 61.5653 23.3447 61.9988 23.8847 61.9988H32.1227C32.6626 61.9988 33.0999 61.5653 33.0999 61.0301V59.5503C33.0999 58.2026 31.9907 57.1055 30.6287 57.1055H28.9797V42.3239H36.7914C36.5349 42.8143 36.3895 43.3713 36.3895 43.9598V58.4242C36.3895 60.3943 38.008 61.9976 39.9979 61.9976C41.9878 61.9976 43.6063 60.3943 43.6063 58.4242V47.5332H52.3916C54.3815 47.5332 56 45.93 56 43.9598V26.2151C56.0012 24.3563 54.8322 22.7652 53.1844 22.121ZM31.1442 59.5503V60.0613H24.8607V59.5503C24.8607 59.2706 25.0927 59.0429 25.3774 59.0429H30.6263C30.9121 59.0429 31.1442 59.2706 31.1442 59.5503ZM43.6833 17.7157C43.6833 15.1836 45.7648 13.1239 48.3227 13.1239C50.8805 13.1239 52.962 15.1836 52.962 17.7157C52.962 20.2477 50.8805 22.3075 48.3227 22.3075C45.7648 22.3075 43.6833 20.2477 43.6833 17.7157ZM31.1222 33.9165C31.1222 33.2226 31.6927 32.6571 32.3951 32.6571H40.539C40.798 32.6571 41.046 32.5554 41.2292 32.3738L48.1333 25.5358C49.0592 24.6179 49.9339 23.7509 51.5573 23.7509C52.9303 23.7509 54.0468 24.8564 54.0468 26.2151V40.3876H47.514V32.4525L49.8239 30.1651C50.2063 29.7873 50.2063 29.1733 49.8251 28.7955C49.444 28.4165 48.8247 28.4165 48.4436 28.7943L42.4568 34.7217C42.1454 35.0329 41.7911 35.177 41.344 35.177H32.3963C31.6927 35.1758 31.1222 34.6115 31.1222 33.9165ZM42.32 40.3864V36.9813C42.8893 36.8227 43.4048 36.5212 43.8396 36.0889L45.5595 34.3863V40.3864H42.32ZM10.4453 40.3864V34.3863L12.1628 36.0864C12.5989 36.5212 13.1144 36.8227 13.6848 36.9813V40.3864H10.4453ZM15.6393 37.1133H40.3668V40.3864H15.6393V37.1133ZM7.68223 13.1239C10.2426 13.1239 12.3253 15.1836 12.3253 17.7157C12.3253 20.2477 10.2426 22.3075 7.68223 22.3075C5.12433 22.3075 3.04284 20.2477 3.04284 17.7157C3.04284 15.1836 5.12433 13.1239 7.68223 13.1239ZM4.4476 23.7509C6.0698 23.7509 6.94442 24.6179 7.87034 25.5358L14.7745 32.375C14.9577 32.5566 15.2057 32.6583 15.4646 32.6583H23.6086C24.311 32.6583 24.8814 33.2226 24.8814 33.9177C24.8814 34.6116 24.311 35.177 23.6086 35.177H14.6608C14.2125 35.177 13.8595 35.0317 13.5456 34.7193L7.56129 28.7943C7.18018 28.4165 6.56086 28.4165 6.17974 28.7955C5.79862 29.1745 5.79862 29.7873 6.18096 30.1651L8.49088 32.4525V40.3876H1.95812V26.2151C1.95812 24.8564 3.0746 23.7509 4.4476 23.7509ZM17.6609 43.961V58.4254C17.6609 59.3275 16.9182 60.0613 16.007 60.0613C15.0957 60.0613 14.353 59.3275 14.353 58.4254V46.5657C14.353 46.0305 13.9157 45.597 13.3758 45.597H3.61208C2.69959 45.597 1.95812 44.8631 1.95812 43.961V42.3251H16.007C16.9195 42.3239 17.6609 43.0577 17.6609 43.961ZM54.0468 43.961C54.0468 44.8631 53.3041 45.597 52.3928 45.597H42.6303C42.0904 45.597 41.6531 46.0305 41.6531 46.5657V58.4254C41.6531 59.3275 40.9104 60.0613 39.9991 60.0613C39.0879 60.0613 38.3452 59.3275 38.3452 58.4254V43.961C38.3452 43.0589 39.0879 42.3251 39.9991 42.3251H54.048V43.961H54.0468ZM17.6878 17.5486H18.3291V19.9474C18.3291 20.3203 18.5453 20.6594 18.8837 20.8205C19.0181 20.8846 19.1622 20.9161 19.3063 20.9161C19.525 20.9161 19.7412 20.8435 19.9183 20.703L23.8834 17.5486H28.7781C30.2672 17.5486 31.4789 16.3485 31.4789 14.8737V14.0987H32.1202L36.0853 17.2531C36.2625 17.3936 36.4787 17.4662 36.6973 17.4662C36.8415 17.4662 36.9856 17.4347 37.12 17.3706C37.4583 17.2095 37.6745 16.8692 37.6745 16.4975V14.0987H38.3195C39.8061 14.0987 41.0167 12.8999 41.0167 11.4274V2.67491C41.0167 1.20002 39.8073 0 38.3195 0H27.2255C25.7365 0 24.5247 1.20002 24.5247 2.67491V3.44989H17.6878C16.1988 3.44989 14.987 4.64991 14.987 6.1248V14.8737C14.9882 16.3485 16.1988 17.5486 17.6878 17.5486ZM26.4804 2.67491C26.4804 2.27531 26.8224 1.93746 27.2268 1.93746H38.3207C38.7226 1.93746 39.0634 2.27531 39.0634 2.67491V11.4274C39.0634 11.8318 38.7299 12.1612 38.3207 12.1612H36.6985C36.1586 12.1612 35.7213 12.5947 35.7213 13.1299V14.4777L33.0767 12.3743C32.9032 12.2363 32.687 12.1612 32.4647 12.1612H31.4801V6.1248C31.4801 4.64991 30.2684 3.44989 28.7793 3.44989H26.4804V2.67491ZM16.9427 6.1248C16.9427 5.71794 17.2774 5.38736 17.689 5.38736H28.7793C29.191 5.38736 29.5257 5.71794 29.5257 6.1248V14.8737C29.5257 15.2733 29.1837 15.6111 28.7793 15.6111H23.5402C23.3179 15.6111 23.1016 15.6862 22.9282 15.8242L20.2836 17.9276V16.5798C20.2836 16.0446 19.8463 15.6111 19.3063 15.6111H17.6878C17.2762 15.6111 16.9415 15.2805 16.9415 14.8737V6.1248H16.9427ZM18.6174 12.0619C18.6174 11.5267 19.0547 11.0932 19.5946 11.0932H26.8713C27.4112 11.0932 27.8485 11.5267 27.8485 12.0619C27.8485 12.5971 27.4112 13.0306 26.8713 13.0306H19.5946C19.0559 13.0306 18.6174 12.5971 18.6174 12.0619ZM21.0971 8.93533C21.0971 8.40011 21.5344 7.9666 22.0743 7.9666H26.8725C27.4124 7.9666 27.8497 8.40011 27.8497 8.93533C27.8497 9.47056 27.4124 9.90406 26.8725 9.90406H22.0743C21.5344 9.90406 21.0971 9.47056 21.0971 8.93533ZM18.6186 8.93533C18.6186 8.40011 19.0559 7.9666 19.5958 7.9666H19.5971C20.137 7.9666 20.5743 8.40011 20.5743 8.93533C20.5743 9.47056 20.137 9.90406 19.5971 9.90406C19.0571 9.90406 18.6186 9.47056 18.6186 8.93533Z" fill="#048DEF"></path></svg>