<svg xmlns="http://www.w3.org/2000/svg" width="60" height="61" viewBox="0 0 60 61" fill="none"><path d="M54.6669 0H4.79534C2.15119 0 0 2.19256 0 4.88756V41.0555C0 43.7505 2.15119 45.9431 4.79534 45.9431H22.7424C23.5279 47.0868 23.9767 48.4475 23.9767 49.8531C23.9767 50.8736 23.7408 51.8727 23.3159 52.7857H19.1814C16.5372 52.7857 14.386 54.9782 14.386 57.6732V59.6282C14.386 60.1678 14.8147 60.6058 15.3451 60.6058H44.1172C44.6475 60.6058 45.0762 60.1678 45.0762 59.6282V57.6732C45.0762 54.9782 42.925 52.7857 40.2809 52.7857H36.1463C35.7205 51.8727 35.4855 50.8727 35.4855 49.8531C35.4855 48.4289 35.9229 47.0936 36.716 45.9431H54.6669C57.3111 45.9431 59.4623 43.7505 59.4623 41.0555V4.88756C59.4623 2.19256 57.3111 0 54.6669 0ZM4.79534 1.95502H54.6669C56.2532 1.95502 57.5441 3.27076 57.5441 4.88756V32.2579H55.626V5.86507C55.626 4.78688 54.7657 3.91005 53.7078 3.91005H5.75441C4.69656 3.91005 3.83627 4.78688 3.83627 5.86507V32.2579H1.91814V4.88756C1.91814 3.27076 3.20904 1.95502 4.79534 1.95502ZM37.5648 14.6656C38.3666 14.041 39.3535 13.6852 40.3816 13.6852C42.3611 13.6852 44.1373 14.9921 44.801 16.9383C44.9362 17.3313 45.2987 17.5952 45.7073 17.5952H53.7078V19.5502H45.6958C45.2882 19.5502 44.9256 19.8122 44.7914 20.2032C44.2131 21.8787 42.7812 23.1328 41.1412 23.3977C39.8359 23.6108 38.5555 23.2609 37.559 22.4789C39.6028 22.3968 41.2399 20.6754 41.2399 18.5727C41.2399 16.4721 39.6057 14.7526 37.5648 14.6656ZM53.7078 15.6402H46.3518C45.2671 13.2756 42.9471 11.7301 40.3816 11.7301C38.0252 11.7301 35.8298 13.0439 34.6521 15.1573C34.4833 15.4603 34.4852 15.8308 34.6569 16.1319C34.8286 16.433 35.1451 16.6177 35.4865 16.6177H37.4037C38.4615 16.6177 39.3218 17.4945 39.3218 18.5727C39.3218 19.6509 38.4615 20.5278 37.4027 20.5278L35.4846 20.5287C35.1441 20.5287 34.8276 20.7135 34.6569 21.0155C34.4852 21.3166 34.4833 21.6881 34.6521 21.9901C35.8538 24.1426 38.028 25.4153 40.3825 25.4153C40.7326 25.4153 41.0865 25.387 41.4423 25.3303C43.5455 24.9891 45.4033 23.518 46.3374 21.5062H53.7078V32.2589H5.75441V5.86507H53.7078V15.6402ZM43.1581 57.6732V58.6507H16.3042V57.6732C16.3042 56.0564 17.5951 54.7407 19.1814 54.7407H40.2809C41.8672 54.7407 43.1581 56.0564 43.1581 57.6732ZM34.0786 52.7857H25.3837C25.7098 51.8472 25.8949 50.859 25.8949 49.8531C25.8949 48.4885 25.5745 47.1513 24.9866 45.9431H34.4756C33.8887 47.1523 33.5674 48.4914 33.5674 49.8531C33.5674 50.858 33.7535 51.8472 34.0786 52.7857ZM54.6669 43.9881H4.79534C3.20904 43.9881 1.91814 42.6723 1.91814 41.0555V34.2129H57.5441V41.0555C57.5441 42.6723 56.2532 43.9881 54.6669 43.9881Z" fill="#047BDC"></path><path d="M29.7288 36.168C28.1425 36.168 26.8516 37.4837 26.8516 39.1005C26.8516 40.7173 28.1425 42.033 29.7288 42.033C31.3151 42.033 32.606 40.7173 32.606 39.1005C32.606 37.4837 31.3151 36.168 29.7288 36.168ZM29.7288 40.078C29.1994 40.078 28.7697 39.6391 28.7697 39.1005C28.7697 38.5619 29.1994 38.123 29.7288 38.123C30.2582 38.123 30.6878 38.5619 30.6878 39.1005C30.6878 39.6391 30.2582 40.078 29.7288 40.078Z" fill="#047BDC"></path><path d="M12.4669 21.5052H13.7923L14.1769 22.2902L12.7479 23.7467C12.3729 24.1289 12.3729 24.7467 12.7479 25.1289L15.6251 28.0614C16.0001 28.4436 16.6062 28.4436 16.9812 28.0614L18.4102 26.6049L19.1804 26.9969V28.3478C19.1804 28.8874 19.6091 29.3253 20.1394 29.3253H23.9757C24.5061 29.3253 24.9348 28.8874 24.9348 28.3478V26.9969L25.7049 26.6049L27.1339 28.0614C27.5089 28.4436 28.115 28.4436 28.49 28.0614L31.3672 25.1289C31.7422 24.7467 31.7422 24.1289 31.3672 23.7467L29.9382 22.2902L30.3228 21.5052H31.6483C32.1786 21.5052 32.6073 21.0673 32.6073 20.5277V16.6177C32.6073 16.0781 32.1786 15.6402 31.6483 15.6402H30.3228L29.9382 14.8552L31.3672 13.3987C31.7422 13.0165 31.7422 12.3987 31.3672 12.0165L28.49 9.08399C28.115 8.70178 27.5089 8.70178 27.1339 9.08399L25.7049 10.5405L24.9348 10.1485V8.79758C24.9348 8.25799 24.5061 7.82007 23.9757 7.82007H20.1394C19.6091 7.82007 19.1804 8.25799 19.1804 8.79758V10.1485L18.4102 10.5405L16.9812 9.08399C16.6062 8.70178 16.0001 8.70178 15.6251 9.08399L12.7479 12.0165C12.3729 12.3987 12.3729 13.0165 12.7479 13.3987L14.1769 14.8552L13.7923 15.6402H12.4669C11.9365 15.6402 11.5078 16.0781 11.5078 16.6177V20.5277C11.5078 21.0673 11.9365 21.5052 12.4669 21.5052ZM13.4259 17.5952H14.385C14.7485 17.5952 15.0803 17.386 15.2434 17.0546L16.2025 15.0996C16.3866 14.7233 16.3147 14.2687 16.0221 13.9716L14.7821 12.7076L16.3032 11.1573L17.5432 12.4212C17.8367 12.7194 18.2827 12.7917 18.65 12.605L20.5681 11.6275C20.8933 11.4613 21.0985 11.1231 21.0985 10.7526V9.77509H23.0166V10.7526C23.0166 11.1231 23.2219 11.4613 23.547 11.6275L25.4651 12.605C25.8344 12.7907 26.2794 12.7194 26.5719 12.4212L27.812 11.1573L29.3331 12.7076L28.093 13.9716C27.8005 14.2687 27.7285 14.7233 27.9127 15.0996L28.8718 17.0546C29.0348 17.386 29.3666 17.5952 29.7301 17.5952H30.6892V19.5502H29.7301C29.3666 19.5502 29.0348 19.7594 28.8718 20.0908L27.9127 22.0458C27.7285 22.4221 27.8005 22.8767 28.093 23.1739L29.3331 24.4378L27.812 25.9881L26.5719 24.7242C26.2794 24.427 25.8344 24.3557 25.4651 24.5404L23.547 25.5179C23.2219 25.6841 23.0166 26.0223 23.0166 26.3928V27.3703H21.0985V26.3928C21.0985 26.0223 20.8933 25.6841 20.5681 25.5179L18.65 24.5404C18.2808 24.3537 17.8357 24.4251 17.5432 24.7242L16.3032 25.9881L14.7821 24.4378L16.0221 23.1739C16.3147 22.8767 16.3866 22.4221 16.2025 22.0458L15.2434 20.0908C15.0803 19.7594 14.7485 19.5502 14.385 19.5502H13.4259V17.5952Z" fill="#047BDC"></path><path d="M22.061 23.4602C24.7051 23.4602 26.8563 21.2676 26.8563 18.5726C26.8563 15.8776 24.7051 13.6851 22.061 13.6851C19.4168 13.6851 17.2656 15.8776 17.2656 18.5726C17.2656 21.2676 19.4168 23.4602 22.061 23.4602ZM22.061 15.6401C23.6473 15.6401 24.9382 16.9558 24.9382 18.5726C24.9382 20.1894 23.6473 21.5052 22.061 21.5052C20.4747 21.5052 19.1838 20.1894 19.1838 18.5726C19.1838 16.9558 20.4747 15.6401 22.061 15.6401Z" fill="#047BDC"></path></svg>