<svg xmlns="http://www.w3.org/2000/svg" id="Layer_1" data-name="Layer 1" viewBox="0 0 73 61"><defs><style>.cls-1{fill:#0449a9;}</style></defs><path class="cls-1" d="M10.06,25.43a1.13,1.13,0,0,1-1.13-1.12A12.38,12.38,0,0,1,21.31,11.94h1.78a1.13,1.13,0,0,1,0,2.25H21.31A10.13,10.13,0,0,0,11.18,24.31,1.12,1.12,0,0,1,10.06,25.43Z"></path><path class="cls-1" d="M24.26,19.44a1.14,1.14,0,0,1-1.06-.75,13.5,13.5,0,1,1,25.57-.29,1.13,1.13,0,0,1-2.14-.7,11.25,11.25,0,1,0-21.3.24,1.12,1.12,0,0,1-.69,1.43A1,1,0,0,1,24.26,19.44Z"></path><path class="cls-1" d="M35.94,9.68a1.13,1.13,0,0,1-1.13-1.12V6.31a1.13,1.13,0,1,1,2.25,0V8.56A1.12,1.12,0,0,1,35.94,9.68Z"></path><path class="cls-1" d="M58.07,60.32H14.93a6,6,0,0,1-6-6V23.56a6,6,0,0,1,6-6H58.07a6,6,0,0,1,6,6V54.32A6,6,0,0,1,58.07,60.32ZM14.93,19.81a3.75,3.75,0,0,0-3.75,3.75V54.32a3.75,3.75,0,0,0,3.75,3.75H58.07a3.75,3.75,0,0,0,3.75-3.75V23.56a3.75,3.75,0,0,0-3.75-3.75Z"></path><path class="cls-1" d="M62.94,47.94H50a7.32,7.32,0,0,1,0-14.63H62.94a1.14,1.14,0,0,1,1.13,1.13V46.81A1.13,1.13,0,0,1,62.94,47.94ZM50,35.56a5.07,5.07,0,0,0,0,10.13H61.82V35.56Z"></path><path class="cls-1" d="M50,44.56a3.94,3.94,0,1,1,3.94-3.93A3.94,3.94,0,0,1,50,44.56Zm0-5.62a1.69,1.69,0,1,0,1.69,1.69A1.69,1.69,0,0,0,50,38.94Z"></path><path class="cls-1" d="M12.31,25.44H10.06a1.13,1.13,0,1,1,0-2.25h2.25a1.13,1.13,0,0,1,0,2.25Z"></path><path class="cls-1" d="M56.29,25.44h-4.4a1.13,1.13,0,0,1,0-2.25h4.4a1.13,1.13,0,1,1,0,2.25Zm-8.79,0H43.1a1.13,1.13,0,1,1,0-2.25h4.4a1.13,1.13,0,0,1,0,2.25Zm-8.8,0H34.3a1.13,1.13,0,0,1,0-2.25h4.4a1.13,1.13,0,0,1,0,2.25Zm-8.8,0H25.5a1.13,1.13,0,0,1,0-2.25h4.4a1.13,1.13,0,1,1,0,2.25Zm-8.79,0h-4.4a1.13,1.13,0,1,1,0-2.25h4.4a1.13,1.13,0,0,1,0,2.25Z"></path><path class="cls-1" d="M62.94,25.44H60.69a1.13,1.13,0,0,1,0-2.25h2.25a1.13,1.13,0,1,1,0,2.25Z"></path><path class="cls-1" d="M34.62,18.69V15.5a.11.11,0,0,1,.12-.12h2.79a1.8,1.8,0,0,1,2,1.85,1.75,1.75,0,0,1-.66,1.46h2.75a4.79,4.79,0,0,0,.23-1.48,3.18,3.18,0,0,0-1.79-3v0a3,3,0,0,0,1.55-2.83c0-2.14-1.34-3.56-4.17-3.56h-5a.19.19,0,0,0-.19.2V18.69Zm0-8.76c0-.07,0-.11.12-.11h2.67a1.77,1.77,0,1,1,0,3.52H34.74a.11.11,0,0,1-.12-.12Z"></path></svg>