<svg xmlns="http://www.w3.org/2000/svg" width="52" height="56" viewBox="0 0 52 56" fill="none"><path d="M17.3945 48.4915L18.7982 47.0878H30.3954C32.7573 47.0878 35.0226 46.1501 36.6935 44.481L49.3652 31.8222C50.5843 30.6044 50.5849 28.6287 49.3663 27.4102C48.1358 26.1797 46.1583 26.1797 44.9386 27.3994L38.0729 34.2651L34.3708 37.6072" stroke="#048DEF" stroke-width="2" stroke-miterlimit="10" stroke-linecap="round" stroke-linejoin="round"></path><path d="M23.9757 40.6591L31.1606 40.6603C32.9339 40.6606 34.3714 39.2232 34.3714 37.4501C34.3714 35.6529 32.9277 34.2088 31.1463 34.209C29.9081 34.2092 28.5196 34.2092 27.3796 34.2093C25.8459 34.2094 24.33 33.7895 23.0112 33.0065C21.6373 32.1907 20.0689 31.7601 18.471 31.7601C15.8523 31.7601 13.3532 32.7994 11.5155 34.6477C10.2835 35.8868 8.80306 37.3719 7.39453 38.7835" stroke="#048DEF" stroke-width="2" stroke-miterlimit="10" stroke-linecap="round" stroke-linejoin="round"></path><path d="M10.7544 52.2531L13.446 54.9448L18.3716 50.0191L6.02331 37.6708L1.09766 42.5964L3.78907 45.2878" stroke="#048DEF" stroke-width="2" stroke-miterlimit="10" stroke-linecap="round" stroke-linejoin="round"></path><path d="M42.6342 21.2883V7.82576L30.9753 1.09448L19.3164 7.82576V21.2883L30.9753 28.0196L42.6342 21.2883Z" stroke="#048DEF" stroke-width="2" stroke-miterlimit="10" stroke-linecap="round" stroke-linejoin="round"></path><path d="M19.3164 7.82581L30.9753 14.5571L42.6342 7.82581" stroke="#048DEF" stroke-width="2" stroke-miterlimit="10" stroke-linecap="round" stroke-linejoin="round"></path><path d="M30.9766 14.557V28.0196" stroke="#048DEF" stroke-width="2" stroke-miterlimit="10" stroke-linecap="round" stroke-linejoin="round"></path></svg>