<svg xmlns="http://www.w3.org/2000/svg" id="Layer_1" data-name="Layer 1" viewBox="0 0 73 61"><defs><style>.cls-1{fill:#048def;}</style></defs><path class="cls-1" d="M24.87,4.44H8.11a.93.93,0,0,0-.93.93V22.13a.93.93,0,0,0,.93.93H24.87a.93.93,0,0,0,.93-.93V5.37A.93.93,0,0,0,24.87,4.44ZM23.94,21.2H9V6.3h14.9Z"></path><path class="cls-1" d="M28.59.72H11.83a.93.93,0,1,0,0,1.86H27.66V18.4a.93.93,0,1,0,1.86,0V1.65A.92.92,0,0,0,28.59.72Z"></path><path class="cls-1" d="M12.49,1a.93.93,0,0,0-1.31,0L7.45,4.71A.94.94,0,0,0,7.45,6,.94.94,0,0,0,8.77,6l3.72-3.72A.92.92,0,0,0,12.49,1Z"></path><path class="cls-1" d="M29.25,17.75a.92.92,0,0,0-1.32,0l-3.72,3.72a.93.93,0,0,0,.66,1.59.91.91,0,0,0,.65-.27l3.73-3.73A.93.93,0,0,0,29.25,17.75Z"></path><path class="cls-1" d="M29.25,1a.94.94,0,0,0-1.32,0L24.21,4.71a.93.93,0,0,0,.66,1.59A.91.91,0,0,0,25.52,6l3.73-3.72A.94.94,0,0,0,29.25,1Z"></path><path class="cls-1" d="M24.87,41.67H8.11a.93.93,0,0,0-.93.93V59.35a.93.93,0,0,0,.93.93H24.87a.93.93,0,0,0,.93-.93V42.6A.93.93,0,0,0,24.87,41.67Zm-.93,16.75H9V43.53h14.9Z"></path><path class="cls-1" d="M28.59,37.94H11.83a.93.93,0,1,0,0,1.86H27.66V55.63a.93.93,0,0,0,1.86,0V38.87A.93.93,0,0,0,28.59,37.94Z"></path><path class="cls-1" d="M12.49,38.21a.93.93,0,0,0-1.31,0L7.45,41.94a.93.93,0,0,0,0,1.31.92.92,0,0,0,1.32,0l3.72-3.72A.92.92,0,0,0,12.49,38.21Z"></path><path class="cls-1" d="M29.25,55a.94.94,0,0,0-1.32,0l-3.72,3.72a.93.93,0,0,0,.66,1.59.91.91,0,0,0,.65-.27l3.73-3.72A.94.94,0,0,0,29.25,55Z"></path><path class="cls-1" d="M29.25,38.21a.94.94,0,0,0-1.32,0l-3.72,3.73a.91.91,0,0,0,0,1.31.9.9,0,0,0,.66.28.88.88,0,0,0,.65-.28l3.73-3.72A.94.94,0,0,0,29.25,38.21Z"></path><path class="cls-1" d="M18.35,33.29a.93.93,0,0,0-.93.93v6.51a.93.93,0,1,0,1.86,0V34.22A.92.92,0,0,0,18.35,33.29Z"></path><path class="cls-1" d="M18.35,25.84a3.73,3.73,0,0,0-3.72,3.72v3.73a3.72,3.72,0,1,0,7.44,0V29.56A3.73,3.73,0,0,0,18.35,25.84Zm1.86,7.45a1.86,1.86,0,1,1-3.72,0V29.56a1.86,1.86,0,0,1,3.72,0Z"></path><path class="cls-1" d="M18.35,21.19a.93.93,0,0,0-.93.93v6.51a.93.93,0,1,0,1.86,0V22.12A.92.92,0,0,0,18.35,21.19Z"></path><path class="cls-1" d="M33.24,48.18H26.72a.93.93,0,0,0,0,1.86h6.52a.93.93,0,0,0,0-1.86Z"></path><path class="cls-1" d="M37.89,45.39H34.17a3.73,3.73,0,0,0,0,7.45h3.72a3.73,3.73,0,1,0,0-7.45Zm0,5.58H34.17a1.86,1.86,0,0,1,0-3.72h3.72a1.86,1.86,0,1,1,0,3.72Z"></path><path class="cls-1" d="M44.41,48.18H38.82a.93.93,0,0,0,0,1.86h5.59a.93.93,0,0,0,0-1.86Z"></path><path class="cls-1" d="M33.24,11H26.72a.93.93,0,0,0,0,1.86h6.52a.93.93,0,0,0,0-1.86Z"></path><path class="cls-1" d="M37.89,8.15H34.17a3.73,3.73,0,0,0,0,7.45h3.72a3.73,3.73,0,1,0,0-7.45Zm0,5.59H34.17a1.86,1.86,0,1,1,0-3.72h3.72a1.86,1.86,0,1,1,0,3.72Z"></path><path class="cls-1" d="M44.41,11H38.82a.93.93,0,0,0,0,1.86h5.59a.93.93,0,0,0,0-1.86Z"></path><path class="cls-1" d="M61.17,4.44H44.41a.93.93,0,0,0-.93.93V22.13a.93.93,0,0,0,.93.93H61.17a.93.93,0,0,0,.93-.93V5.37A.93.93,0,0,0,61.17,4.44ZM60.23,21.2H45.34V6.3H60.23Z"></path><path class="cls-1" d="M64.89.72H48.13a.93.93,0,1,0,0,1.86H64V18.4a.93.93,0,1,0,1.86,0V1.65A.93.93,0,0,0,64.89.72Z"></path><path class="cls-1" d="M48.79,1a.93.93,0,0,0-1.31,0L43.75,4.71a.94.94,0,0,0,0,1.32.94.94,0,0,0,1.32,0l3.72-3.72A.92.92,0,0,0,48.79,1Z"></path><path class="cls-1" d="M65.55,17.75a.92.92,0,0,0-1.32,0l-3.72,3.72a.93.93,0,1,0,1.31,1.32l3.73-3.73A.93.93,0,0,0,65.55,17.75Z"></path><path class="cls-1" d="M65.55,1a.94.94,0,0,0-1.32,0L60.51,4.71A.93.93,0,1,0,61.82,6l3.73-3.72A.94.94,0,0,0,65.55,1Z"></path><path class="cls-1" d="M61.17,41.67H44.41a.92.92,0,0,0-.93.93V59.35a.92.92,0,0,0,.93.93H61.17a.93.93,0,0,0,.93-.93V42.6A.93.93,0,0,0,61.17,41.67Zm-.94,16.75H45.34V43.53H60.23Z"></path><path class="cls-1" d="M64.89,37.94H48.13a.93.93,0,0,0,0,1.86H64V55.63a.93.93,0,1,0,1.86,0V38.87A.93.93,0,0,0,64.89,37.94Z"></path><path class="cls-1" d="M48.79,38.21a.93.93,0,0,0-1.31,0l-3.73,3.73a.93.93,0,0,0,0,1.31.92.92,0,0,0,1.32,0l3.72-3.72A.92.92,0,0,0,48.79,38.21Z"></path><path class="cls-1" d="M65.55,55a.94.94,0,0,0-1.32,0l-3.72,3.72A.93.93,0,1,0,61.82,60l3.73-3.72A.94.94,0,0,0,65.55,55Z"></path><path class="cls-1" d="M65.55,38.21a.94.94,0,0,0-1.32,0l-3.72,3.73a.91.91,0,0,0,0,1.31.91.91,0,0,0,1.31,0l3.73-3.72A.94.94,0,0,0,65.55,38.21Z"></path><path class="cls-1" d="M54.65,33.29a.92.92,0,0,0-.93.93v6.51a.93.93,0,1,0,1.86,0V34.22A.93.93,0,0,0,54.65,33.29Z"></path><path class="cls-1" d="M54.65,25.84a3.73,3.73,0,0,0-3.72,3.72v3.73a3.72,3.72,0,0,0,7.44,0V29.56A3.73,3.73,0,0,0,54.65,25.84Zm1.86,7.45a1.86,1.86,0,0,1-3.72,0V29.56a1.86,1.86,0,1,1,3.72,0Z"></path><path class="cls-1" d="M54.65,21.19a.92.92,0,0,0-.93.93v6.51a.93.93,0,1,0,1.86,0V22.12A.93.93,0,0,0,54.65,21.19Z"></path></svg>