<svg xmlns="http://www.w3.org/2000/svg" width="62" height="62" viewBox="0 0 62 62" fill="none"><path d="M35.241 41.106C34.468 41.844 34.029 42.838 34.005 43.906C33.953 46.111 35.706 47.947 37.91 47.998C37.941 48 37.973 48 38.004 48C40.167 48 41.951 46.267 42.001 44.093C42.026 43.025 41.633 42.01 40.896 41.238C40.158 40.465 39.164 40.026 38.096 40.002C37.014 39.973 36.014 40.369 35.241 41.106ZM40.003 44.046C39.99 44.58 39.771 45.077 39.384 45.446C38.997 45.815 38.467 46.003 37.957 45.999C37.423 45.986 36.926 45.767 36.557 45.38C36.188 44.993 35.992 44.486 36.004 43.952C36.017 43.418 36.236 42.921 36.622 42.552C36.997 42.196 37.485 42 38.002 42H38.05C38.584 42.013 39.081 42.232 39.45 42.618C39.818 43.005 40.015 43.512 40.003 44.046Z" fill="#048DEF"></path><path d="M34.0045 15.9999C32.3502 15.9999 31.0039 17.3461 31.0039 19.0005C31.0039 20.6548 32.3502 22.0011 34.0045 22.0011C35.6588 22.0011 37.0051 20.6548 37.0051 19.0005C37.0051 17.3461 35.6588 15.9999 34.0045 15.9999ZM34.0045 20.0007C33.4534 20.0007 33.0043 19.5516 33.0043 19.0005C33.0043 18.4494 33.4534 18.0003 34.0045 18.0003C34.5556 18.0003 35.0047 18.4494 35.0047 19.0005C35.0047 19.5516 34.5556 20.0007 34.0045 20.0007Z" fill="#048DEF"></path><path d="M59 25C57.698 25 56.598 25.839 56.184 27H54.414L50.414 23H45.892C46.139 22.347 46.349 21.68 46.515 21H52.184C52.598 22.161 53.698 23 55 23C56.654 23 58 21.654 58 20C58 18.346 56.654 17 55 17C53.698 17 52.598 17.839 52.184 19H46.88C46.959 18.339 47 17.672 47 17H50.414L54.414 13H56.184C56.598 14.161 57.698 15 59 15C60.654 15 62 13.654 62 12C62 10.346 60.654 9 59 9C57.698 9 56.598 9.839 56.184 11H53.586L49.586 15H46.872C45.877 6.567 38.696 0 30 0C23.646 0 18.192 4.32 16.736 10.505L15.678 15H12.414L8.414 11H5.816C5.402 9.839 4.302 9 3 9C1.346 9 0 10.346 0 12C0 13.654 1.346 15 3 15C4.302 15 5.402 14.161 5.816 13H7.586L11.586 17H15.208L15.099 17.464C15.033 17.743 15 18.03 15 18.316C15 18.549 15.029 18.776 15.07 19H9.816C9.402 17.839 8.302 17 7 17C5.346 17 4 18.346 4 20C4 21.654 5.346 23 7 23C8.302 23 9.402 22.161 9.816 21H16.146C16.413 21.255 16.716 21.476 17.059 21.647L17.194 23H11.586L7.586 27H5.816C5.402 25.839 4.302 25 3 25C1.346 25 0 26.346 0 28C0 29.654 1.346 31 3 31C4.302 31 5.402 30.161 5.816 29H8.414L12.414 25H17.394L17.464 25.697C17.824 29.29 20.819 32 24.43 32H25V41.241C21.415 44.604 19.138 49.331 19.006 54.539L18.999 62H44V49.286C45.247 47.875 45.954 46.091 45.998 44.186C46.048 42.05 45.263 40.022 43.787 38.476C42.501 37.129 40.824 36.289 39 36.063V31.5L40.2 30.6C42.205 29.096 43.823 27.17 44.981 25H49.585L53.585 29H56.183C56.597 30.161 57.697 31 58.999 31C60.653 31 61.999 29.654 61.999 28C61.999 26.346 60.654 25 59 25ZM55 19C55.551 19 56 19.449 56 20C56 20.551 55.551 21 55 21C54.449 21 54 20.551 54 20C54 19.449 54.449 19 55 19ZM59 11C59.551 11 60 11.449 60 12C60 12.551 59.551 13 59 13C58.449 13 58 12.551 58 12C58 11.449 58.449 11 59 11ZM3 13C2.449 13 2 12.551 2 12C2 11.449 2.449 11 3 11C3.551 11 4 11.449 4 12C4 12.551 3.551 13 3 13ZM7 21C6.449 21 6 20.551 6 20C6 19.449 6.449 19 7 19C7.551 19 8 19.449 8 20C8 20.551 7.551 21 7 21ZM3 29C2.449 29 2 28.551 2 28C2 27.449 2.449 27 3 27C3.551 27 4 27.449 4 28C4 28.551 3.551 29 3 29ZM19.455 25.498L18.941 20.352L17.954 19.858C17.365 19.564 17 18.974 17 18.316C17 18.183 17.016 18.05 17.046 17.921L18.683 10.963C19.023 9.519 19.626 8.2 20.422 7.037C21.75 10.411 24.103 14.501 27.248 17.18C27.091 17.761 27 18.37 27 19C27 22.673 29.845 25.688 33.446 25.972L36.132 30H24.43C21.851 30 19.711 28.064 19.455 25.498ZM34 24C31.243 24 29 21.757 29 19C29 16.243 31.243 14 34 14C36.757 14 39 16.243 39 19C39 21.757 36.757 24 34 24ZM34 50.928C35.148 51.593 36.45 51.966 37.814 51.997C37.878 51.999 37.941 52 38.005 52C39.429 52 40.795 51.621 42 50.921V56H34V50.928ZM31 37.435C31 35.5 31 33.261 31 32H33V36.785C32.318 36.968 31.648 37.18 31 37.435ZM35.792 36.239C35.524 36.269 35.264 36.324 35 36.364V32H37V36.072C36.786 36.099 36.575 36.132 36.365 36.175L35.792 36.239ZM27 32H29V38.366C28.304 38.74 27.64 39.161 27 39.616V32ZM21.005 54.565C21.177 47.789 25.424 41.907 31.447 39.406C30.544 40.689 30.039 42.21 30.002 43.814C29.955 45.841 30.667 47.765 32 49.277V60H21.001L21.005 54.565ZM34 60V58H42V60H34ZM43.999 44.139C43.961 45.742 43.303 47.233 42.144 48.34C40.984 49.446 39.455 50.037 37.862 49.998C36.259 49.96 34.768 49.302 33.661 48.143C32.555 46.983 31.966 45.463 32.003 43.861C32.041 42.258 32.699 40.767 33.858 39.66C34.667 38.889 35.654 38.38 36.719 38.149L38.049 38.001C38.079 38.001 38.11 38.001 38.14 38.002C39.743 38.04 41.234 38.698 42.341 39.857C43.447 41.017 44.036 42.537 43.999 44.139ZM39 29L38.246 29.566L35.72 25.778C38.749 25.008 41 22.265 41 19C41 15.14 37.86 12 34 12C31.515 12 29.334 13.305 28.092 15.262C25.126 12.525 22.98 8.4 21.906 5.273C24.014 3.228 26.877 2 30 2C38.271 2 45 8.729 45 17C45 21.696 42.757 26.182 39 29ZM59 29C58.449 29 58 28.551 58 28C58 27.449 58.449 27 59 27C59.551 27 60 27.449 60 28C60 28.551 59.551 29 59 29Z" fill="#048DEF"></path></svg>