<svg xmlns="http://www.w3.org/2000/svg" width="51" height="50" viewBox="0 0 51 50" fill="none"><path d="M18.5469 23.949H20.1513V25.5456H18.5469V23.949Z" fill="#047BDC"></path><path d="M21.7578 23.949H23.3623V25.5456H21.7578V23.949Z" fill="#047BDC"></path><path d="M32.9877 36.7217H50.6368V33.9612C50.6368 32.4389 50.0407 31.0083 48.9593 29.9322C48.2253 29.2018 47.3051 28.6837 46.2991 28.4338L44.88 28.0809L44.6168 27.0352C45.5097 26.3949 46.1715 25.4585 46.4603 24.3713L46.8679 23.9849C47.6902 23.2049 48.3143 22.2262 48.6729 21.1557C48.912 20.446 49.0323 19.7084 49.0323 18.9612V18.3609C49.0323 17.1594 48.6336 15.9684 47.9092 15.008C46.8542 13.6086 45.1752 12.7728 43.4167 12.7728H40.2078C38.4493 12.7728 36.7702 13.6086 35.7153 15.008C34.9909 15.9684 34.5921 17.1594 34.5921 18.3609V18.9612C34.5921 19.7084 34.7125 20.446 34.9499 21.1541C35.3085 22.2254 35.9335 23.2041 36.7558 23.9841L37.1633 24.3705C37.4521 25.4585 38.1139 26.3941 39.0068 27.0352L38.7437 28.0809L37.3253 28.4338C36.3185 28.6837 35.3984 29.2018 34.6651 29.9322C34.5007 30.0959 34.3515 30.2707 34.2095 30.4495L33.3463 30.02C34.1365 28.4266 34.5921 26.6408 34.5921 24.7473C34.5921 20.553 32.4093 16.8617 29.1201 14.7222L32.1742 9.29539C32.6796 9.4758 33.2219 9.57958 33.7899 9.57958C36.4445 9.57958 38.6033 7.43136 38.6033 4.78979C38.6033 2.14822 36.4445 0 33.7899 0C31.1353 0 28.9765 2.14822 28.9765 4.78979C28.9765 6.29458 29.6793 7.63812 30.7727 8.51705L27.7178 13.9463C26.1519 13.2015 24.407 12.7728 22.5587 12.7728C19.6281 12.7728 16.9415 13.8233 14.8516 15.562C14.4216 14.6831 13.7317 13.9503 12.8774 13.4697C14.3783 12.7472 15.3386 11.2584 15.3386 9.57958L14.5821 5.36856C14.0141 2.25759 11.2954 0 8.11852 0C4.94168 0 2.22292 2.25759 1.65494 5.36856L0.911273 9.43748L0.898438 9.57958C0.898438 11.2616 1.86192 12.7528 3.3669 13.4737C1.88278 14.3039 0.898438 15.8782 0.898438 17.6416V19.1592H11.9243C11.1534 20.6057 10.6808 22.2286 10.5661 23.949H6.38329C6.03512 22.7986 4.97377 21.9532 3.70625 21.9532C2.15794 21.9532 0.898438 23.2065 0.898438 24.7473C0.898438 26.288 2.15794 27.5413 3.70625 27.5413C4.97377 27.5413 6.03512 26.6959 6.38329 25.5456H10.5661C10.7402 28.1544 11.747 30.5381 13.3386 32.4269L12.3912 33.1342C12.3567 33.107 12.3262 33.0759 12.2909 33.0496C11.325 32.3287 10.1281 31.9319 8.92075 31.9319H7.31629C6.10893 31.9319 4.912 32.3287 3.94692 33.0496C2.5406 34.0993 1.70067 35.7702 1.70067 37.52C1.70067 38.2481 1.98546 38.933 2.51814 39.4623L4.33038 41.1722C4.5165 41.7247 4.81092 42.2244 5.20321 42.6395L5.0564 43.2231L4.7684 43.2805C2.52616 43.726 0.898438 45.7018 0.898438 47.9769V49.4945H15.3386V47.9769C15.3386 45.7018 13.7109 43.726 11.4694 43.2805L11.1806 43.2231L11.0338 42.6395C11.4261 42.2244 11.7205 41.7247 11.9067 41.1722L13.7341 39.4471C14.2516 38.9322 14.5364 38.2481 14.5364 37.52C14.5364 36.3585 14.1593 35.2361 13.4991 34.3029L14.4642 33.5828C16.6045 35.5251 19.4404 36.7217 22.5587 36.7217C23.8543 36.7217 25.1001 36.511 26.2706 36.1326L28.0756 40.623C26.6942 41.4652 25.7676 42.9772 25.7676 44.7047C25.7676 47.3463 27.9264 49.4945 30.581 49.4945C33.2356 49.4945 35.3944 47.3463 35.3944 44.7047C35.3944 42.0631 33.2356 39.9149 30.581 39.9149C30.232 39.9149 29.8919 39.954 29.5638 40.0251L27.7571 35.5307C29.6985 34.5999 31.3575 33.1773 32.5513 31.4107L33.4016 31.8337C33.1313 32.5011 32.9877 33.2196 32.9877 33.9612V36.7217ZM33.7899 1.5966C35.5596 1.5966 36.9988 3.02874 36.9988 4.78979C36.9988 6.55084 35.5596 7.98298 33.7899 7.98298C32.0202 7.98298 30.581 6.55084 30.581 4.78979C30.581 3.02874 32.0202 1.5966 33.7899 1.5966ZM3.70625 25.9447C3.0428 25.9447 2.5029 25.4074 2.5029 24.7473C2.5029 24.0871 3.0428 23.5498 3.70625 23.5498C4.36969 23.5498 4.90959 24.0871 4.90959 24.7473C4.90959 25.4074 4.36969 25.9447 3.70625 25.9447ZM33.7899 44.7047C33.7899 46.4658 32.3507 47.8979 30.581 47.8979C28.8113 47.8979 27.3721 46.4658 27.3721 44.7047C27.3721 42.9437 28.8113 41.5115 30.581 41.5115C32.3507 41.5115 33.7899 42.9437 33.7899 44.7047ZM10.5252 8.78128C10.5252 10.1017 9.44541 11.1762 8.11852 11.1762C6.79163 11.1762 5.71182 10.1017 5.71182 8.78128V7.37308C5.71182 7.06893 5.8819 6.79512 6.15546 6.65941L8.11852 5.68229L10.0816 6.65941C10.3551 6.79512 10.5252 7.06893 10.5252 7.37308V8.78128ZM6.79965 12.5333C7.2152 12.6786 7.65402 12.7728 8.11852 12.7728C8.58301 12.7728 9.02183 12.6786 9.43738 12.5333L9.67484 13.4785L8.11852 16.5759L6.56219 13.4785L6.79965 12.5333ZM2.5037 9.64664L3.23373 5.65355C3.66293 3.30256 5.71744 1.5966 8.11852 1.5966C10.5196 1.5966 12.5741 3.30256 13.0033 5.65355L13.7333 9.64664C13.7069 10.7451 13.0338 11.7126 12.0037 12.1222L11.0812 12.4894L10.8742 11.6671C11.6435 10.9399 12.1297 9.91886 12.1297 8.78128V7.37308C12.1297 6.46063 11.6203 5.63998 10.7996 5.23125L8.11852 3.89729L5.43746 5.23125C4.61678 5.63918 4.10736 6.46063 4.10736 7.37308V8.78128C4.10736 9.91886 4.59351 10.9399 5.36285 11.6679L5.15588 12.4902L4.23251 12.123C3.20325 11.7126 2.53018 10.7459 2.5037 9.64664ZM5.08287 14.5107L5.26819 14.474L6.82051 17.5626H2.5045C2.5406 16.0793 3.61399 14.8028 5.08287 14.5107ZM9.41653 17.5626L10.9688 14.4732L11.155 14.5099C12.3374 14.7454 13.2809 15.6363 13.6058 16.7738C13.3779 17.0269 13.1613 17.2895 12.9552 17.5618L9.41653 17.5626ZM9.67484 43.813L8.11852 46.9112L6.56219 43.8138L6.61353 43.6094C7.07882 43.7978 7.58584 43.9064 8.11852 43.9064C8.6512 43.9064 9.15821 43.7978 9.6235 43.6094L9.67484 43.813ZM10.5252 39.9149C10.5252 41.2353 9.44541 42.3098 8.11852 42.3098C6.79163 42.3098 5.71182 41.2353 5.71182 39.9149V38.8117L8.11852 37.6142L10.5252 38.8117V39.9149ZM5.08287 44.846L5.26819 44.8093L6.82051 47.8979H2.5045C2.5406 46.4147 3.61399 45.1382 5.08287 44.846ZM13.7333 47.8979H9.41733L10.9696 44.8085L11.1558 44.8452C12.623 45.1382 13.6964 46.4147 13.7333 47.8979ZM12.615 38.3032L12.1297 38.7614V37.825L8.11852 35.8292L4.10736 37.825V38.7614L3.63725 38.3183C3.42627 38.1084 3.30513 37.817 3.30513 37.52C3.30513 36.2707 3.9052 35.0764 4.90959 34.3268C5.59871 33.8119 6.45389 33.5285 7.31629 33.5285H8.92075C9.78315 33.5285 10.6383 33.8119 11.3274 34.3268C12.3318 35.0764 12.9319 36.2699 12.9319 37.52C12.9319 37.817 12.8108 38.1084 12.615 38.3032ZM12.1297 24.7473C12.1297 19.025 16.8083 14.3694 22.5587 14.3694C28.3091 14.3694 32.9877 19.025 32.9877 24.7473C32.9877 26.7709 32.394 28.6549 31.3832 30.2531V23.64L26.5698 25.2366V21.2236L20.9542 15.6355L15.3386 21.2236V32.2185C13.3651 30.329 12.1297 27.681 12.1297 24.7473ZM24.9654 34.8354V27.4519L26.5698 26.9194V34.3252C26.0556 34.5384 25.5173 34.7044 24.9654 34.8354ZM20.8243 27.1421H18.5475V28.7387H20.152V30.3353H18.5475V31.9319H20.152V34.8354C18.996 34.5623 17.9154 34.1001 16.9431 33.4782V22.3524H24.9654V25.7683L20.8243 27.1421ZM18.0774 20.7558L20.9542 17.8931L23.831 20.7558H18.0774ZM28.1743 26.387L29.7788 25.8545V32.2185C29.2878 32.6887 28.7503 33.1102 28.1743 33.4782V26.387ZM21.7564 35.0844V28.5152L23.3609 27.9828V35.0836C23.0954 35.1052 22.8298 35.1251 22.5587 35.1251C22.2875 35.1251 22.022 35.1052 21.7564 35.0844ZM45.91 29.9825C46.6344 30.1629 47.2963 30.5357 47.8249 31.061C48.6031 31.8361 49.0323 32.8659 49.0323 33.9612V35.1251H42.6145V32.1978L44.5406 29.6416L45.91 29.9825ZM36.4718 20.6496C36.2889 20.1043 36.1966 19.5368 36.1966 18.9612V18.3609C36.1966 17.5027 36.4814 16.6517 36.9988 15.966C37.7521 14.9665 38.9515 14.3694 40.2078 14.3694H43.4167C44.6722 14.3694 45.8723 14.9665 46.6256 15.966C47.143 16.6517 47.4278 17.5027 47.4278 18.3609V18.9612C47.4278 19.536 47.3356 20.1043 47.1527 20.6496C47.0219 21.04 46.8422 21.412 46.6256 21.7616V21.3313C46.6256 20.6432 46.1852 20.0341 45.529 19.817C44.4307 19.4521 43.4175 18.8295 42.5992 18.0152L41.8122 17.2321L41.026 18.0144C40.2078 18.8287 39.1945 19.4513 38.0963 19.8162C37.4393 20.0341 36.9988 20.6432 36.9988 21.3313V21.7616C36.7822 21.412 36.6025 21.04 36.4718 20.6496ZM38.6033 21.3313C39.785 20.9394 40.8856 20.3007 41.8122 19.4721C42.7388 20.3007 43.8395 20.9394 45.0211 21.3313V23.1507C45.0211 24.9117 43.5819 26.3438 41.8122 26.3438C40.0425 26.3438 38.6033 24.9117 38.6033 23.1507V21.3313ZM41.8122 27.9404C42.2743 27.9404 42.7203 27.8718 43.1431 27.7497L43.3477 28.5639L41.8122 30.6012L40.2767 28.5639L40.4813 27.7497C40.9041 27.8718 41.3501 27.9404 41.8122 27.9404ZM37.7144 29.9825L39.083 29.6416L41.01 32.1978V35.1251H34.5921V33.9612C34.5921 32.8651 35.0213 31.8353 35.7995 31.061C36.3282 30.5357 36.99 30.1629 37.7144 29.9825Z" fill="#047BDC"></path></svg>