<svg xmlns="http://www.w3.org/2000/svg" width="64" height="63" viewBox="0 0 64 63" fill="none"><path d="M33.0644 53.5035V37.0779H38.9267V48.1379C38.9267 48.4436 39.0779 48.7395 39.219 48.9512L39.2245 48.9594L39.2315 48.9664L43.3765 53.1114C42.9805 53.7369 42.7844 54.4892 42.7844 55.3024C42.7844 57.6998 44.7581 59.6735 47.1556 59.6735C49.553 59.6735 51.5267 57.6998 51.5267 55.3024C51.5267 52.9049 49.553 50.9313 47.1556 50.9313C46.3367 50.9313 45.6484 51.1301 44.967 51.5258L41.1244 47.6832V37.0779H47.0556V45.7957C47.0556 46.4021 47.5826 46.9291 48.1889 46.9291H53.4166C53.9342 48.7928 55.6078 50.1668 57.6267 50.1668C60.0241 50.1668 61.9978 48.1932 61.9978 45.7957C61.9978 43.3962 60.022 41.4935 57.6267 41.4935C55.6078 41.4935 53.9342 42.8676 53.4166 44.7313H49.3222V37.0779H49.8422C56.9238 37.0779 63.1 30.9024 63.1 23.889C63.1 17.8054 59.5838 13.0252 53.8599 11.2744C53.284 6.857 50.3728 3.27151 46.1575 1.68214C41.9406 0.0921566 37.3107 0.979058 33.9801 3.86294C30.7256 2.43009 26.7276 2.44052 23.1433 3.95695C20.0456 5.26485 17.6952 7.59886 16.5714 10.4203C14.5026 10.3016 12.4389 11.0001 10.8526 12.4485C9.26901 13.8944 8.36289 15.8189 8.34043 17.8858C3.99615 18.9558 0.9 22.7669 0.9 27.4024C0.9 32.6932 5.35366 37.1468 10.6444 37.1468H14.6778V44.7313H10.5834C10.0658 42.8676 8.39218 41.4935 6.37333 41.4935C3.97588 41.4935 2.00222 43.4672 2.00222 45.8646C2.00222 48.2621 3.97588 50.2357 6.37333 50.2357C8.39218 50.2357 10.0658 48.8616 10.5834 46.9979H15.8111C16.4175 46.9979 16.9444 46.4709 16.9444 45.8646V37.0779H22.8067V47.6143L18.8977 51.5233C18.2721 51.1274 17.5198 50.9313 16.7067 50.9313C14.3092 50.9313 12.3356 52.9049 12.3356 55.3024C12.3356 57.6998 14.3092 59.6735 16.7067 59.6735C19.1041 59.6735 21.0778 57.6998 21.0778 55.3024C21.0778 54.4835 20.8789 53.7952 20.4833 53.1138L24.6307 48.9664C24.8627 48.7344 24.9356 48.4289 24.9356 48.1379V37.0779H30.7978V53.5035C28.9341 54.021 27.56 55.6946 27.56 57.7135C27.56 60.1109 29.5337 62.0846 31.9311 62.0846C34.3286 62.0846 36.3022 60.1109 36.3022 57.7135C36.3022 55.6946 34.9282 54.021 33.0644 53.5035ZM9.69219 19.9927L9.6924 19.9927C10.2919 19.9178 10.75 19.3916 10.6751 18.7813C10.5403 17.0206 11.1494 15.3979 12.4352 14.1797C13.4505 13.2322 14.8039 12.6913 16.1556 12.6913C16.5015 12.6913 16.8361 12.6916 17.1693 12.7582L17.1692 12.7585L17.1765 12.7594C17.7699 12.8336 18.3047 12.5342 18.4568 11.9275C19.1365 9.41407 21.1777 7.2312 24.0483 6.00096C27.2619 4.63355 30.95 4.70437 33.6757 6.13538L33.6775 6.13627C34.129 6.36202 34.6578 6.28601 35.0329 5.91087C37.7609 3.18294 41.7152 2.29643 45.3984 3.66054C49.0127 5.02457 51.4661 8.2276 51.74 12.1126C51.741 12.3453 51.8377 12.5727 51.9874 12.7504C52.1367 12.9277 52.3442 13.0621 52.5758 13.1023C57.6971 14.5384 60.8333 18.632 60.8333 23.889C60.8333 29.689 55.7118 34.8113 49.8422 34.8113H10.6444C6.56575 34.8113 3.16667 31.411 3.16667 27.4024C3.16667 23.5254 5.81646 20.4687 9.69219 19.9927ZM6.37333 47.9002C5.25541 47.9002 4.26889 46.9785 4.26889 45.7957C4.26889 44.6778 5.19058 43.6913 6.37333 43.6913C7.49125 43.6913 8.47778 44.613 8.47778 45.7957C8.47778 46.9785 7.49125 47.9002 6.37333 47.9002ZM16.7756 57.3379C15.6576 57.3379 14.6711 56.4162 14.6711 55.2335C14.6711 54.1156 15.5928 53.1291 16.7756 53.1291C17.8926 53.1291 18.8785 54.0493 18.88 55.2307C18.8125 56.4215 17.8877 57.3379 16.7756 57.3379ZM34.1044 57.7135C34.1044 58.8314 33.1828 59.8179 32 59.8179C30.8821 59.8179 29.8956 58.8962 29.8956 57.7135C29.8956 56.5956 30.8172 55.6091 32 55.6091C33.1179 55.6091 34.1044 56.5307 34.1044 57.7135ZM49.3289 55.2335C49.3289 56.3514 48.4072 57.3379 47.2244 57.3379C46.1065 57.3379 45.12 56.4162 45.12 55.2335C45.12 54.1164 46.0403 53.1306 47.2217 53.1291C48.4125 53.1966 49.3289 54.1213 49.3289 55.2335ZM57.6267 47.9002C56.5087 47.9002 55.5222 46.9785 55.5222 45.7957C55.5222 44.6778 56.4439 43.6913 57.6267 43.6913C58.7446 43.6913 59.7311 44.613 59.7311 45.7957C59.7311 46.9805 58.8114 47.9002 57.6267 47.9002Z" fill="#047BDC" stroke="#047BDC" stroke-width="0.2"></path></svg>