<svg xmlns="http://www.w3.org/2000/svg" width="62" height="62" viewBox="0 0 62 62" fill="none"><path d="M42.9034 13.97C45.6544 13.97 47.8926 11.7318 47.8926 8.98074C47.8926 6.22965 45.6544 3.99146 42.9034 3.99146C40.1523 3.99146 37.9141 6.22965 37.9141 8.98074C37.9141 11.7318 40.1523 13.97 42.9034 13.97ZM42.9034 5.98717C44.5538 5.98717 45.8969 7.33029 45.8969 8.98074C45.8969 10.6312 44.5538 11.9743 42.9034 11.9743C41.2529 11.9743 39.9098 10.6312 39.9098 8.98074C39.9098 7.33029 41.2529 5.98717 42.9034 5.98717Z" fill="#047BDC"></path><path d="M45.9015 55.88H42.9079C42.3571 55.88 41.91 55.432 41.91 54.8822V39.9143H45.9015V43.9057H57.8758V33.9272H45.9015V37.9186H38.9165C38.3656 37.9186 37.9186 37.4706 37.9186 36.9207V29.9357H55.88C59.182 29.9357 61.8672 27.2505 61.8672 23.9486C61.8672 20.9869 59.7058 18.5212 56.8779 18.0443C56.8779 18.0163 56.8779 17.9884 56.8779 17.9614C56.8779 14.3711 54.973 11.1421 51.8886 9.35691V6.28551L50.5704 5.80653L51.1652 4.53626L47.3533 0.724445L46.0831 1.31817L45.6031 0H40.2127L39.7347 1.31817L38.4644 0.724445L36.3819 2.80598C34.95 2.27911 33.4592 1.99572 31.9315 1.99572C25.0941 1.99572 19.4762 7.3123 18.9932 14.0279C15.0437 14.5059 11.9743 17.8776 11.9743 21.9529C11.9743 22.3101 12.0032 22.6653 12.0511 23.0186C7.89405 24.8986 4.98929 29.0766 4.98929 33.9272V38.9264C4.98929 40.4372 4.21595 41.924 2.86585 43.0067C1.67939 43.9596 0.997858 45.3786 0.997858 46.8993C0.997858 47.9541 1.34312 48.9749 1.96378 49.821C0.7454 51.0853 0 52.7857 0 54.6557V61.8672H33.9272V54.6557C33.9272 52.7857 33.1818 51.0853 31.9634 49.821C32.5841 48.9749 32.9293 47.9541 32.9293 46.8993C32.9293 45.3786 32.2478 43.9596 31.0613 43.0067C29.7112 41.924 28.9379 40.4362 28.9379 38.9264V33.9272C28.9379 32.5262 28.6834 31.1861 28.2394 29.9357H35.9229V36.9207C35.9229 38.5712 37.266 39.9143 38.9165 39.9143H39.9143V54.8822C39.9143 56.5326 41.2574 57.8758 42.9079 57.8758H45.9015V61.8672H61.8672V51.8886H45.9015V55.88ZM47.8972 35.9229H55.88V41.91H47.8972V35.9229ZM38.8865 3.12429L40.0849 3.68509L41.1596 3.23905L41.6117 1.99572H44.2041L44.5035 2.81695L44.715 3.263L45.7318 3.68509L46.9303 3.12429L48.7643 4.95736L48.2055 6.15279L48.6496 7.23148L49.8929 7.6845V10.2779L49.0717 10.5763L48.6296 10.7799L48.2055 11.8086L48.7643 13.0041L46.9303 14.8371L45.7318 14.2764L44.6571 14.7224L44.2041 15.9657H41.6117L41.3123 15.1445L41.1008 14.6984L40.0839 14.2764L38.8855 14.8371L37.0515 13.0041L37.6103 11.8086L37.1662 10.73L35.9229 10.2769V7.6845L36.7441 7.38614L37.1862 7.18258L37.6103 6.15379L37.0515 4.95836L38.8865 3.12429ZM1.99572 54.6557C1.99572 52.3187 3.5863 50.32 5.86241 49.7941L11.8256 48.4181L14.6885 59.8715H7.98286V53.8843H5.98715V59.8715H1.99572V54.6557ZM16.9636 44.8058C13.3124 43.0626 10.9764 39.3805 10.9764 35.3082V34.1627C10.9764 33.3933 11.3067 32.6848 11.8675 32.1969C13.9042 33.9621 16.4786 34.925 19.2008 34.925H22.5715C22.7811 34.925 22.9507 35.0947 22.9507 35.3082C22.9507 39.3815 20.6147 43.0626 16.9636 44.8058ZM16.5704 46.8185L16.9636 46.9871L17.3567 46.8185C17.9435 46.567 18.5033 46.2737 19.0341 45.9444C19.1908 46.6788 19.6149 47.3144 20.2166 47.7425L19.1788 51.8886H14.7493L13.7126 47.7415C14.3133 47.3134 14.7364 46.6788 14.894 45.9444C15.4249 46.2737 15.9847 46.567 16.5704 46.8185ZM18.6799 53.8843L17.1831 59.8715H16.7441L15.2473 53.8843H18.6799ZM31.9315 59.8715H27.94V53.8843H25.9443V59.8715H19.2387L22.1026 48.4191L28.0648 49.7951C30.3409 50.32 31.9315 52.3187 31.9315 54.6557V59.8715ZM29.812 44.5633C30.5245 45.1351 30.9336 45.9863 30.9336 46.8993C30.9336 47.518 30.737 48.0997 30.3828 48.5957C29.806 48.2704 29.1873 48.0049 28.5128 47.8493L21.7274 46.2836C21.2723 46.1789 20.955 45.7787 20.955 45.3117V44.4695C23.4546 42.1435 24.9464 38.8516 24.9464 35.3042C24.9464 33.994 23.8817 32.9293 22.5715 32.9293H19.2008C16.7371 32.9293 14.422 31.9704 12.6798 30.2281L12.1709 29.7192L11.5273 30.0405C9.95762 30.8268 8.98072 32.4064 8.98072 34.1627V35.3082C8.98072 38.8526 10.4725 42.1435 12.9722 44.4695V45.3117C12.9722 45.7787 12.6548 46.1789 12.1998 46.2836L5.41438 47.8493C4.73982 48.0059 4.12115 48.2714 3.54439 48.5957C3.19015 48.0997 2.99357 47.518 2.99357 46.8993C2.99357 45.9863 3.4027 45.1351 4.11517 44.5633C5.93925 43.0995 6.98501 41.0449 6.98501 38.9264V33.9272C6.98501 28.425 11.4614 23.9486 16.9636 23.9486C22.4658 23.9486 26.9422 28.425 26.9422 33.9272V38.9264C26.9422 41.0449 27.9879 43.0995 29.812 44.5633ZM16.9636 21.9529C15.9368 21.9529 14.9449 22.0966 13.993 22.341C13.985 22.2113 13.97 22.0826 13.97 21.9529C13.97 18.651 16.6552 15.9657 19.9572 15.9657H20.955V14.9679C20.955 8.91586 25.8794 3.99143 31.9315 3.99143C32.9064 3.99143 33.8643 4.13313 34.7983 4.38958L34.6516 4.53626L35.2463 5.80653L33.9272 6.28551V11.6749L35.2453 12.1539L34.6506 13.4242L38.4624 17.236L39.7327 16.6423L40.2127 17.9614H45.6031L46.0811 16.6433L47.3513 17.237L51.1632 13.4252L50.5684 12.1549L51.8138 11.7029C53.7297 13.1967 54.8822 15.4698 54.8822 17.9614C54.8822 18.2638 54.8612 18.5612 54.8283 18.8545L54.7046 19.9631H55.8202L55.9409 19.9572C58.1132 19.9901 59.8715 21.7683 59.8715 23.9486C59.8715 26.1499 58.0813 27.94 55.88 27.94H27.3174C25.2438 24.3667 21.3841 21.9529 16.9636 21.9529ZM47.8972 53.8843H59.8715V59.8715H47.8972V53.8843Z" fill="#047BDC"></path><path d="M32.9311 19.9572C31.2806 19.9572 29.9375 21.3003 29.9375 22.9507C29.9375 24.6012 31.2806 25.9443 32.9311 25.9443C34.5815 25.9443 35.9246 24.6012 35.9246 22.9507C35.9246 21.3003 34.5815 19.9572 32.9311 19.9572ZM32.9311 23.9486C32.3803 23.9486 31.9332 23.5005 31.9332 22.9507C31.9332 22.4009 32.3803 21.9529 32.9311 21.9529C33.4819 21.9529 33.9289 22.4009 33.9289 22.9507C33.9289 23.5005 33.4819 23.9486 32.9311 23.9486Z" fill="#047BDC"></path><path d="M40.9076 19.9572C39.2572 19.9572 37.9141 21.3003 37.9141 22.9507C37.9141 24.6012 39.2572 25.9443 40.9076 25.9443C42.5581 25.9443 43.9012 24.6012 43.9012 22.9507C43.9012 21.3003 42.5581 19.9572 40.9076 19.9572ZM40.9076 23.9486C40.3568 23.9486 39.9098 23.5005 39.9098 22.9507C39.9098 22.4009 40.3568 21.9529 40.9076 21.9529C41.4585 21.9529 41.9055 22.4009 41.9055 22.9507C41.9055 23.5005 41.4585 23.9486 40.9076 23.9486Z" fill="#047BDC"></path><path d="M48.892 19.9572C47.2416 19.9572 45.8984 21.3003 45.8984 22.9507C45.8984 24.6012 47.2416 25.9443 48.892 25.9443C50.5425 25.9443 51.8856 24.6012 51.8856 22.9507C51.8856 21.3003 50.5425 19.9572 48.892 19.9572ZM48.892 23.9486C48.3412 23.9486 47.8942 23.5005 47.8942 22.9507C47.8942 22.4009 48.3412 21.9529 48.892 21.9529C49.4428 21.9529 49.8899 22.4009 49.8899 22.9507C49.8899 23.5005 49.4428 23.9486 48.892 23.9486Z" fill="#047BDC"></path></svg>