<svg xmlns="http://www.w3.org/2000/svg" width="64" height="54" viewBox="0 0 64 54" fill="none"><path d="M62.8524 38.2874L62.8517 38.2886C62.5357 38.8453 62.0371 39.2391 61.4319 39.4055L54.6615 41.2854C54.4631 41.3462 54.2509 41.3762 54.0397 41.3762C53.0274 41.3762 52.0772 40.6977 51.7751 39.6855L51.7747 39.6842L46.5431 21.5293L46.5426 21.5275C46.3766 20.9239 46.4525 20.2903 46.7533 19.7338C47.0564 19.1731 47.5713 18.7802 48.1744 18.6143C48.1744 18.6143 48.1745 18.6142 48.1746 18.6142L54.9466 16.7339C54.9466 16.7339 54.9467 16.7339 54.9468 16.7338C56.1848 16.3867 57.4838 17.1105 57.8319 18.3359C57.8319 18.336 57.8319 18.336 57.832 18.3361L63.0634 36.4904L63.0634 36.4904L63.0639 36.4922C63.2296 37.0951 63.1545 37.7436 62.8524 38.2874L62.8524 38.2874ZM48.203 21.0506L53.434 39.2037C53.5387 39.5384 53.8832 39.73 54.2117 39.6395C54.2118 39.6395 54.2118 39.6395 54.2119 39.6394L60.9833 37.7451C60.9835 37.7451 60.9836 37.7451 60.9837 37.745C61.1461 37.6985 61.281 37.5956 61.3591 37.4506C61.441 37.2985 61.4626 37.1267 61.4177 36.9693C61.4177 36.9692 61.4176 36.9692 61.4176 36.9691L56.1866 18.8161C56.0819 18.4814 55.7375 18.2898 55.409 18.3802C55.4089 18.3803 55.4088 18.3803 55.4087 18.3803L48.6373 20.2746C48.6372 20.2746 48.6371 20.2747 48.6369 20.2747C48.4745 20.3212 48.3396 20.4241 48.2616 20.5691C48.1797 20.7212 48.1581 20.8931 48.203 21.0504C48.203 21.0505 48.203 21.0506 48.203 21.0506Z" fill="#0369CA" stroke="#0369CA" stroke-width="0.3"></path><path d="M53.8118 25.662L53.8118 25.662L53.8102 25.6624C53.5859 25.7222 53.3608 25.7523 53.1352 25.7523C52.7137 25.7523 52.2942 25.6468 51.8926 25.4386L51.8926 25.4386L51.888 25.436C51.3016 25.1053 50.8805 24.5636 50.7002 23.9176L50.6998 23.9164C50.3397 22.5808 51.1187 21.1673 52.4599 20.8057C53.7967 20.4452 55.1942 21.2256 55.5702 22.5642L55.5703 22.5645C55.751 23.2121 55.6601 23.8893 55.3302 24.4742C54.9995 25.0605 54.4578 25.4817 53.8118 25.662ZM53.5424 22.5234L53.5424 22.5235L53.5388 22.5213C53.4214 22.4509 53.2927 22.4154 53.1494 22.4154C53.0821 22.4154 53.0116 22.4265 52.9219 22.4521L52.9219 22.4521L52.9209 22.4524C52.4914 22.5717 52.2416 23.0124 52.3607 23.4413C52.4208 23.6576 52.5509 23.8228 52.7422 23.9304C52.933 24.0377 53.1598 24.0614 53.3616 24.0021L53.3637 24.0014C53.7932 23.8821 54.043 23.4414 53.9239 23.0126C53.8638 22.7962 53.7337 22.631 53.5424 22.5234Z" fill="#0369CA" stroke="#0369CA" stroke-width="0.3"></path><path d="M17.2362 21.5276L17.2362 21.5276L17.2357 21.5294L12.0045 39.6831C12.0044 39.6833 12.0044 39.6835 12.0043 39.6837C11.7164 40.7132 10.764 41.3764 9.75328 41.3764C9.54101 41.3764 9.32937 41.346 9.11873 41.2859C9.11856 41.2859 9.11839 41.2858 9.11822 41.2858L2.34692 39.4056C1.74226 39.2393 1.22894 38.8316 0.926756 38.288C0.609228 37.7282 0.549746 37.0933 0.715004 36.4923L0.715511 36.4906L5.94705 18.3357L5.94737 18.3346C6.30965 17.1119 7.59264 16.3864 8.83211 16.734C8.83218 16.734 8.83225 16.734 8.83232 16.734L15.6043 18.6144C15.6044 18.6144 15.6044 18.6144 15.6045 18.6144C16.2095 18.7808 16.7081 19.1746 17.0241 19.7313C17.342 20.2913 17.4016 20.9264 17.2362 21.5276ZM10.3581 39.1928L10.3585 39.1912L15.59 21.0366C15.59 21.0366 15.59 21.0365 15.59 21.0365C15.6349 20.8791 15.6134 20.7072 15.5314 20.5551C15.4534 20.4102 15.3186 20.3073 15.1562 20.2607C15.1561 20.2607 15.1559 20.2606 15.1557 20.2606L8.38938 18.3818C8.31861 18.3677 8.26407 18.3575 8.21209 18.3575C7.95152 18.3575 7.68663 18.5417 7.6068 18.8148C7.60677 18.8149 7.60674 18.815 7.60671 18.8151L2.37539 36.9692C2.37537 36.9693 2.37535 36.9694 2.37533 36.9694C2.33043 37.1268 2.35203 37.2986 2.43393 37.4507C2.51197 37.5957 2.64682 37.6986 2.80915 37.7451C2.80932 37.7452 2.80949 37.7452 2.80966 37.7453L9.58108 39.6254C9.58114 39.6254 9.5812 39.6254 9.58126 39.6255C9.91389 39.7171 10.2677 39.5205 10.3581 39.1928Z" fill="#0369CA" stroke="#0369CA" stroke-width="0.3"></path><path d="M13.1322 23.9036L13.1322 23.9036L13.132 23.9043C12.8165 25.0163 11.7952 25.7525 10.6972 25.7525C10.4721 25.7525 10.2493 25.7225 10.0436 25.6784L10.0436 25.6787L10.0345 25.6762C8.69742 25.3006 7.90014 23.9036 8.27633 22.5644C8.6519 21.2273 10.0488 20.4301 11.388 20.8062C12.0339 20.9865 12.5755 21.4076 12.9063 21.9939L12.9063 21.9939L12.9077 21.9965C13.2219 22.5801 13.3129 23.2561 13.1322 23.9036ZM10.9094 22.4519L10.9093 22.452L10.9042 22.4503C10.8339 22.4268 10.765 22.4156 10.6972 22.4156C10.3398 22.4156 10.0184 22.6538 9.92305 23.0112L9.92306 23.0112L9.92265 23.0127C9.80351 23.4416 10.0533 23.8823 10.4828 24.0016L10.4828 24.0016L10.485 24.0022C10.6861 24.0613 10.8988 24.0382 11.0902 23.9305C11.2792 23.8243 11.4116 23.6458 11.4723 23.4392C11.5315 23.2382 11.5083 23.0254 11.4007 22.834C11.2944 22.6451 11.1159 22.5126 10.9094 22.4519Z" fill="#0369CA" stroke="#0369CA" stroke-width="0.3"></path><path d="M18.9658 40.6378L18.9658 40.638C18.9487 41.1011 18.5706 41.4611 18.109 41.4611H18.1089H18.1088H18.1087H18.1086H18.1085H18.1085H18.1084H18.1083H18.1082H18.1081H18.1081H18.108H18.1079H18.1078H18.1077H18.1077H18.1076H18.1075H18.1074H18.1074H18.1073H18.1072H18.1071H18.1071H18.107H18.1069H18.1068H18.1068H18.1067H18.1066H18.1065H18.1065H18.1064H18.1063H18.1062H18.1062H18.1061H18.106H18.106H18.1059H18.1058H18.1057H18.1057H18.1056H18.1055H18.1055H18.1054H18.1053H18.1053H18.1052H18.1051H18.1051H18.105H18.1049H18.1049H18.1048H18.1047H18.1047H18.1046H18.1045H18.1045H18.1044H18.1043H18.1043H18.1042H18.1041H18.1041H18.104H18.1039H18.1039H18.1038H18.1038H18.1037H18.1036H18.1036H18.1035H18.1034H18.1034H18.1033H18.1033H18.1032H18.1031H18.1031H18.103H18.103H18.1029H18.1028H18.1028H18.1027H18.1027H18.1026H18.1025H18.1025H18.1024H18.1024H18.1023H18.1022H18.1022H18.1021H18.1021H18.102H18.102H18.1019H18.1019H18.1018H18.1017H18.1017H18.1016H18.1016H18.1015H18.1015H18.1014H18.1014H18.1013H18.1012H18.1012H18.1011H18.1011H18.101H18.101H18.1009H18.1009H18.1008H18.1008H18.1007H18.1007H18.1006H18.1006H18.1005H18.1005H18.1004H18.1004H18.1003H18.1003H18.1002H18.1002H18.1001H18.1001H18.1H18.1H18.0999H18.0999H18.0998H18.0998H18.0997H18.0997H18.0996H18.0996H18.0995H18.0995H18.0994H18.0994H18.0993H18.0993H18.0992H18.0992H18.0991H18.0991H18.099H18.099H18.0989H18.0989H18.0988H18.0988H18.0987H18.0987H18.0987H18.0986H18.0986H18.0985H18.0985H18.0984H18.0984H18.0983H18.0983H18.0982H18.0982H18.0981H18.0981H18.0981H18.098H18.098H18.0979H18.0979H18.0978H18.0978H18.0977H18.0977H18.0977H18.0976H18.0976H18.0975H18.0975H18.0974H18.0974H18.0973H18.0973H18.0973H18.0972H18.0972H18.0971H18.0971H18.097H18.097H18.097H18.0969H18.0969H18.0968H18.0968H18.0967H18.0967H18.0967H18.0966H18.0966H18.0965H18.0965H18.0964H18.0964H18.0964H18.0963H18.0963H18.0962H18.0962H18.0961H18.0961H18.0961H18.096H18.096H18.0959H18.0959H18.0959H18.0958H18.0958H18.0957H18.0957H18.0956H18.0956H18.0956H18.0955H18.0955H18.0954H18.0954H18.0954H18.0953H18.0953H18.0952H18.0952H18.0951H18.0951H18.0951H18.095H18.095H18.0949H18.0949H18.0949H18.0948H18.0948H18.0947H18.0947H18.0946H18.0946H18.0946H18.0945H18.0945H18.0944H18.0944H18.0944H18.0943H18.0943H18.0942H18.0942H18.0942H18.0941H18.0941H18.094H18.094H18.0939H18.0939H18.0939H18.0938H18.0938H18.0937H18.0937H18.0937H18.0936H18.0936H18.0935H18.0935H18.0934H18.0934H18.0934H18.0933H18.0933H18.0932H18.0932H18.0931H18.0931H18.0931H18.093H18.093H18.0929H18.0929H18.0928H18.0928H18.0928H18.0927H18.0927H18.0926H18.0926H18.0925H18.0925H18.0925H18.0924H18.0924H18.0923H18.0923H18.0922H18.0922H18.0922H18.0921H18.0921H18.092H18.092H18.0919H18.0919H18.0918H18.0918H18.0918H18.0917H18.0917H18.0916H18.0916H18.0915H18.0915H18.0914H18.0914H18.0913H18.0913H18.0913H18.0912H18.0912H18.0911H18.0911H18.091H18.091H18.0909H18.0909H18.0908H18.0908H18.0907H18.0907H18.0907H18.0906H18.0906H18.0905H18.0905H18.0904H18.0904H18.0903H18.0903H18.0902H18.0902H18.0901H18.0901H18.09H18.09H18.0899H18.0899H18.0898H18.0898H18.0897H18.0897H18.0896H18.0896H18.0895H18.0895H18.0894H18.0894H18.0893H18.0893H18.0892H18.0892H18.0891H18.0891H18.089H18.089H18.0889H18.0889H18.0888H18.0888H18.0887H18.0887H18.0886H18.0885H18.0885H18.0884H18.0884H18.0883H18.0883H18.0882H18.0882H18.0881H18.0881H18.088H18.0879H18.0879H18.0878H18.0878H18.0877H18.0877H18.0876H18.0876H18.0875H18.0874H18.0874H18.0873H18.0873H18.0872H18.0872H18.0871H18.087H18.087H18.0869H18.0869H18.0868H18.0867H18.0867H18.0866H18.0866H18.0865H18.0864H18.0864H18.0863H18.0863H18.0862H18.0861H18.0861H18.086H18.0859H18.0859H18.0858H18.0858H18.0857H18.0856H18.0856H18.0855H18.0854H18.0854H18.0853H18.0852H18.0852H18.0851H18.085H18.085H18.0849H18.0848H18.0848H18.0847H18.0846H18.0846H18.0845H18.0844H18.0844H18.0843H18.0842H18.0842H18.0841H18.084H18.084H18.0839H18.0838H18.0837H18.0837H18.0836H18.0835H18.0835H18.0834H18.0833H18.0832H18.0832H18.0831H18.083H18.0829H18.0829H18.0828H18.0827H18.0826H18.0826H18.0825H18.0824H18.0823H18.0823H18.0822H18.0821H18.082H18.082H18.0819H18.0818H18.0817H18.0816H18.0816H18.0815H18.0814H18.0813H18.0812H18.0812H18.0811H18.081H18.0809H18.0808H18.0808H18.0807C17.9915 41.4611 16.9977 41.421 15.6385 41.1128C14.2789 40.8045 12.5445 40.226 10.9822 39.1439L10.9819 39.1437C10.5907 38.8715 10.4857 38.3403 10.7606 37.9451C11.0328 37.5539 11.5639 37.449 11.9591 37.7238C13.3018 38.6561 14.8367 39.1629 16.0459 39.4363C16.6496 39.5728 17.1701 39.6506 17.5419 39.6943C17.7277 39.7162 17.8762 39.7294 17.9792 39.7372C18.0728 39.7443 18.1256 39.7467 18.1355 39.7471C18.1366 39.7472 18.1371 39.7472 18.1372 39.7472V39.7471L18.1426 39.7473C18.623 39.7645 18.9829 40.1608 18.9658 40.6378Z" fill="#0369CA" stroke="#0369CA" stroke-width="0.3"></path><path d="M52.708 38.2898L52.7081 38.2898L52.7054 38.2925L50.6154 40.3825C50.4564 40.5572 50.2314 40.6411 50.0118 40.6411C49.7893 40.6411 49.567 40.5554 49.3967 40.3851L49.3967 40.3852L49.394 40.3824C49.0704 40.0417 49.0704 39.5125 49.394 39.1719L49.394 39.1718L49.3967 39.1691L51.4893 37.0765C51.8292 36.7367 52.3788 36.7327 52.708 37.0792C53.0317 37.4199 53.0317 37.9491 52.708 38.2898Z" fill="#0369CA" stroke="#0369CA" stroke-width="0.3"></path><path d="M39.9815 51.0151L39.9815 51.0151L39.9788 51.0178L38.7775 52.2192C38.0548 52.9563 37.0824 53.3241 36.1258 53.3241C35.1679 53.3241 34.2108 52.9555 33.4612 52.2062C32.9303 51.688 32.5816 51.0334 32.4348 50.3327L31.9759 50.7916C30.5178 52.2498 28.1326 52.25 26.6742 50.7922C25.9521 50.0845 25.5693 49.1408 25.5693 48.1405C25.5693 47.1385 25.9673 46.1956 26.6737 45.4893C27.015 45.148 27.5483 45.148 27.8897 45.4893C28.2307 45.8304 28.231 46.363 27.8906 46.7044C27.5071 47.1015 27.2973 47.6015 27.2973 48.1546C27.2973 48.7096 27.5084 49.2226 27.8897 49.6039C28.6795 50.3936 29.9843 50.3936 30.7741 49.6039L33.4605 46.9174C33.8003 46.5776 34.35 46.5736 34.6792 46.9202C35.0029 47.2608 35.0029 47.79 34.6792 48.1307L34.6793 48.1307L34.6766 48.1334C34.4797 48.3302 34.3349 48.5534 34.2288 48.8048C34.1367 49.0423 34.0842 49.306 34.0842 49.5685C34.0842 50.1089 34.2949 50.622 34.6766 51.0037C35.4663 51.7934 36.7712 51.7934 37.5609 51.0037L38.7628 49.8018C39.1026 49.462 39.6522 49.458 39.9815 49.8046C40.3051 50.1453 40.3051 50.6744 39.9815 51.0151Z" fill="#0369CA" stroke="#0369CA" stroke-width="0.3"></path><path d="M33.3252 41.2873L33.3253 41.2873L33.3225 41.29L26.7336 47.8789C25.9977 48.6148 25.0402 48.9833 24.0825 48.9833C23.127 48.9833 22.1539 48.6304 21.4162 47.8638C19.9588 46.4053 19.9592 44.0205 21.4172 42.5625L28.0061 35.9736C28.3475 35.6322 28.8808 35.6322 29.2221 35.9736C29.5635 36.3149 29.5635 36.8482 29.2221 37.1896L22.6332 43.7785C21.8434 44.5683 21.8434 45.8731 22.6332 46.6629C23.423 47.4527 24.7278 47.4527 25.5176 46.6629L32.1065 40.074C32.4463 39.7342 32.996 39.7301 33.3252 40.0767C33.6489 40.4174 33.6489 40.9466 33.3252 41.2873Z" fill="#0369CA" stroke="#0369CA" stroke-width="0.3"></path><path d="M37.3939 31.903H37.3899L37.3475 31.8569L37.3198 31.8293V31.8269L34.0656 28.2921C34.0655 28.2921 34.0654 28.292 34.0654 28.2919C33.7028 27.9026 33.2604 27.6341 32.749 27.4859C31.768 27.2176 30.7074 27.4868 29.9831 28.2112L19.5076 38.6866C19.5073 38.6869 19.507 38.6872 19.5067 38.6875C19.1236 39.0843 18.9135 39.5982 18.9135 40.1376C18.9135 40.2535 18.9262 40.3572 18.9403 40.4702C19.0065 40.8907 19.2037 41.2844 19.505 41.5861C19.9021 41.9695 20.402 42.1792 20.9551 42.1792C21.5101 42.1792 22.0231 41.9682 22.4044 41.5869C22.7457 41.2455 23.279 41.2455 23.6204 41.5869C23.9616 41.9281 23.9617 42.461 23.6209 42.8024C22.9133 43.5245 21.9696 43.9073 20.9692 43.9073C19.9666 43.9073 19.0245 43.5088 18.2909 42.7899L18.2909 42.7899L18.2884 42.7874C17.7309 42.2152 17.3618 41.5083 17.2437 40.7256C17.2142 40.5336 17.1996 40.3282 17.1996 40.1235C17.1996 39.1216 17.5976 38.1787 18.304 37.4724L28.7812 26.9951C29.9371 25.8392 31.6475 25.4012 33.2258 25.8397L33.2258 25.8397L33.2275 25.8402C34.0315 26.074 34.7619 26.527 35.3316 27.1405L35.3321 27.141L38.5816 30.6731C39.5123 31.5878 41.0133 31.5741 41.9303 30.6577C42.6623 29.912 42.8346 28.7953 42.3426 27.8643C41.3882 26.0677 39.7546 23.6279 37.3927 22.1205C37.3912 22.1199 37.3898 22.1193 37.3883 22.1186H37.3838L37.3471 22.0953C35.4842 20.9137 33.43 20.5111 31.2475 20.9143L31.234 20.9168H31.2202H31.2202H31.2201H31.22H31.2199H31.2198H31.2198H31.2197H31.2196H31.2195H31.2194H31.2194H31.2193H31.2192H31.2191H31.219H31.219H31.2189H31.2188H31.2187H31.2186H31.2186H31.2185H31.2184H31.2183H31.2183H31.2182H31.2181H31.218H31.218H31.2179H31.2178H31.2178H31.2177H31.2176H31.2175H31.2175H31.2174H31.2173H31.2172H31.2172H31.2171H31.217H31.217H31.2169H31.2168H31.2168H31.2167H31.2166H31.2165H31.2165H31.2164H31.2163H31.2163H31.2162H31.2161H31.2161H31.216H31.2159H31.2159H31.2158H31.2157H31.2157H31.2156H31.2155H31.2155H31.2154H31.2154H31.2153H31.2152H31.2152H31.2151H31.215H31.215H31.2149H31.2149H31.2148H31.2147H31.2147H31.2146H31.2145H31.2145H31.2144H31.2144H31.2143H31.2142H31.2142H31.2141H31.2141H31.214H31.2139H31.2139H31.2138H31.2138H31.2137H31.2137H31.2136H31.2135H31.2135H31.2134H31.2134H31.2133H31.2133H31.2132H31.2131H31.2131H31.213H31.213H31.2129H31.2129H31.2128H31.2128H31.2127H31.2126H31.2126H31.2125H31.2125H31.2124H31.2124H31.2123H31.2123H31.2122H31.2122H31.2121H31.2121H31.212H31.212H31.2119H31.2118H31.2118H31.2117H31.2117H31.2116H31.2116H31.2115H31.2115H31.2114H31.2114H31.2113H31.2113H31.2112H31.2112H31.2111H31.2111H31.211H31.211H31.2109H31.2109H31.2108H31.2108H31.2107H31.2107H31.2106H31.2106H31.2106H31.2105H31.2105H31.2104H31.2104H31.2103H31.2103H31.2102H31.2102H31.2101H31.2101H31.21H31.21H31.2099H31.2099H31.2098H31.2098H31.2098H31.2097H31.2097H31.2096H31.2096H31.2095H31.2095H31.2094H31.2094H31.2093H31.2093H31.2093H31.2092H31.2092H31.2091H31.2091H31.209H31.209H31.2089H31.2089H31.2089H31.2088H31.2088H31.2087H31.2087H31.2086H31.2086H31.2085H31.2085H31.2085H31.2084H31.2084H31.2083H31.2083H31.2082H31.2082H31.2082H31.2081H31.2081H31.208H31.208H31.2079H31.2079H31.2079H31.2078H31.2078H31.2077H31.2077H31.2076H31.2076H31.2076H31.2075H31.2075H31.2074H31.2074H31.2074H31.2073H31.2073H31.2072H31.2072H31.2071H31.2071H31.2071H31.207H31.207H31.2069H31.2069H31.2069H31.2068H31.2068H31.2067H31.2067H31.2066H31.2066H31.2066H31.2065H31.2065H31.2064H31.2064H31.2064H31.2063H31.2063H31.2062H31.2062H31.2061H31.2061H31.2061H31.206H31.206H31.2059H31.2059H31.2059H31.2058H31.2058H31.2057H31.2057H31.2056H31.2056H31.2056H31.2055H31.2055H31.2054H31.2054H31.2054H31.2053H31.2053H31.2052H31.2052H31.2051H31.2051H31.2051H31.205H31.205H31.2049H31.2049H31.2049H31.2048H31.2048H31.2047H31.2047H31.2046H31.2046H31.2046H31.2045H31.2045H31.2044H31.2044H31.2043H31.2043H31.2043H31.2042H31.2042H31.2041H31.2041H31.204H31.204H31.204H31.2039H31.2039H31.2038H31.2038H31.2037H31.2037H31.2037H31.2036H31.2036H31.2035H31.2035H31.2034H31.2034H31.2034H31.2033H31.2033H31.2032H31.2032H31.2031H31.2031H31.203H31.203H31.203H31.2029H31.2029H31.2028H31.2028H31.2027H31.2027H31.2026H31.2026H31.2025H31.2025H31.2025H31.2024H31.2024H31.2023H31.2023H31.2022H31.2022H31.2021H31.2021H31.202H31.202H31.2019H31.2019H31.2018H31.2018H31.2018H31.2017H31.2017H31.2016H31.2016H31.2015H31.2015H31.2014H31.2014H31.2013H31.2013H31.2012H31.2012H31.2011H31.2011H31.201H31.201H31.2009H31.2009H31.2008H31.2008H31.2007H31.2007H31.2006H31.2006H31.2005H31.2005H31.2004H31.2004H31.2003H31.2003H31.2002H31.2002H31.2001H31.2H31.2H31.1999H31.1999H31.1998H31.1998H31.1997H31.1997H31.1996H31.1996H31.1995L31.1909 20.9179C31.1797 20.9194 31.1631 20.9218 31.1412 20.9251C31.0975 20.9318 31.0339 20.942 30.9522 20.9561C30.7887 20.9842 30.5531 21.0278 30.2591 21.089C29.6711 21.2116 28.8504 21.405 27.907 21.6881C26.0183 22.2549 23.6465 23.1787 21.6649 24.6071L21.6644 24.6075C21.4234 24.7797 21.099 24.8135 20.8247 24.6937C20.8246 24.6937 20.8244 24.6936 20.8243 24.6935L15.9329 22.5871L15.9318 22.5867C15.504 22.3984 15.2977 21.8866 15.4873 21.4558C15.6754 21.0282 16.1869 20.8218 16.6176 21.011C16.6178 21.0111 16.618 21.0112 16.6182 21.0112L21.0662 22.9294C25.2635 20.0953 30.5567 19.2781 30.9558 19.2189C33.5433 18.7619 35.9923 19.2177 38.2249 20.6146C38.2266 20.6153 38.2283 20.616 38.23 20.6168H38.234L38.2705 20.6397C40.9899 22.3428 42.8149 25.0848 43.8659 27.059L43.866 27.059C44.7171 28.6586 44.4234 30.5966 43.1468 31.8732C41.557 33.463 38.9958 33.4729 37.3939 31.903Z" fill="#0369CA" stroke="#0369CA" stroke-width="0.3"></path><path d="M37.7856 20.532C38.0455 20.5169 43.2204 20.3927 47.8223 21.4404C48.2856 21.5436 48.5757 22.006 48.4731 22.4677L48.4732 22.4677L37.8239 22.2458C37.3412 22.2616 36.9501 21.8656 36.9501 21.3888C36.9501 20.9238 37.3272 20.55 37.7856 20.532ZM37.7856 20.532C37.7849 20.5321 37.7842 20.5321 37.7836 20.5322L37.7929 20.6819L37.7874 20.532C37.7868 20.532 37.7862 20.532 37.7856 20.532Z" fill="#0369CA" stroke="#0369CA" stroke-width="0.3"></path><path d="M45.4257 40.4106L45.4257 40.4107L45.423 40.4134C45.0837 40.7527 44.5351 40.7572 44.2057 40.4121C43.6836 39.8893 43.3995 39.2013 43.3995 38.4692C43.3995 37.7365 43.684 37.048 44.207 36.525C45.2694 35.4626 47.0187 35.4626 48.0812 36.525L50.3152 38.759C50.8381 39.282 51.1227 39.9705 51.1227 40.7032C51.1227 41.4359 50.8381 42.1245 50.3152 42.6474C49.7923 43.1703 49.1037 43.4549 48.371 43.4549C47.6387 43.4549 46.9492 43.1705 46.4395 42.6458L46.4383 42.6446C46.1147 42.304 46.1147 41.7748 46.4383 41.4341L46.4383 41.4341L46.441 41.4314C46.7797 41.0927 47.3268 41.0876 47.6565 41.4307C47.8568 41.6173 48.1166 41.7268 48.3852 41.7268C48.6583 41.7268 48.9156 41.6282 49.1116 41.4331C49.2988 41.2325 49.4087 40.9723 49.4087 40.7032C49.4087 40.4293 49.3096 40.1713 49.1133 39.9751L46.8793 37.7411C46.4719 37.3336 45.8328 37.333 45.4247 37.7393C45.2375 37.9399 45.1276 38.2001 45.1276 38.4692C45.1276 38.7432 45.2267 39.0011 45.423 39.1974L45.423 39.1973L45.4257 39.2001C45.7493 39.5408 45.7493 40.0699 45.4257 40.4106Z" fill="#0369CA" stroke="#0369CA" stroke-width="0.3"></path><path d="M42.7511 43.0829L42.7511 43.0829L42.7484 43.0856C42.409 43.425 41.8605 43.4294 41.5311 43.0843C41.0089 42.5615 40.7249 41.8735 40.7249 41.1414C40.7249 40.4087 41.0094 39.7202 41.5324 39.1973C42.5948 38.1348 44.3441 38.1348 45.4066 39.1973L48.4324 42.2231C48.9553 42.746 49.2398 43.4345 49.2398 44.1673C49.2398 44.9 48.9553 45.5885 48.4324 46.1114C47.8943 46.6495 47.1912 46.9189 46.4882 46.9189C45.7855 46.9189 45.0832 46.6498 44.5455 46.1271L44.5455 46.1271L44.5413 46.1228C44.2211 45.7857 44.1993 45.2543 44.544 44.9096C44.8834 44.5702 45.4319 44.5657 45.7613 44.9108C46.1688 45.317 46.807 45.3172 47.2147 44.9113C47.4019 44.7107 47.5118 44.4505 47.5118 44.1814C47.5118 43.9074 47.4126 43.6495 47.2164 43.4532L47.2159 43.4527L44.2042 40.4128L44.2042 40.4128L44.2031 40.4116C43.811 40.0073 43.1591 40.0044 42.7501 40.4116C42.5629 40.6121 42.453 40.8724 42.453 41.1414C42.453 41.4154 42.5521 41.6733 42.7484 41.8696L42.7484 41.8696L42.7511 41.8724C43.0747 42.213 43.0747 42.7422 42.7511 43.0829Z" fill="#0369CA" stroke="#0369CA" stroke-width="0.3"></path><path d="M41.5187 43.086L41.5185 43.0858C41.3229 42.8901 41.0511 42.7904 40.7904 42.7904C40.5323 42.7904 40.2748 42.8883 40.0781 43.0841C39.8908 43.2846 39.7809 43.5449 39.7809 43.8139C39.7809 44.0879 39.8801 44.3458 40.0764 44.5421L43.977 48.4428C44.1776 48.63 44.4379 48.7399 44.707 48.7399C44.9801 48.7399 45.2374 48.6414 45.4334 48.4462C45.6206 48.2457 45.7305 47.9855 45.7305 47.7164C45.7305 47.4424 45.6314 47.1845 45.4351 46.9882L41.5187 43.086ZM46.6511 49.6606C46.1282 50.1835 45.4397 50.468 44.707 50.468C43.975 50.468 43.2858 50.184 42.7762 49.6598L38.8745 45.7581C38.3515 45.2352 38.067 44.5466 38.067 43.8139C38.067 43.0812 38.3515 42.3927 38.8745 41.8698C39.9369 40.8073 41.6862 40.8073 42.7487 41.8698L46.6511 45.7722C47.1741 46.2951 47.4586 46.9837 47.4586 47.7164C47.4586 48.4491 47.1741 49.1376 46.6511 49.6606Z" fill="#0369CA" stroke="#0369CA" stroke-width="0.3"></path><path d="M41.6277 47.3019L41.6277 47.3019L41.6304 47.2991C41.9698 46.9598 42.5184 46.9553 42.8478 47.3005C43.3699 47.8232 43.6539 48.5112 43.6539 49.2433C43.6539 49.976 43.3694 50.6646 42.8464 51.1875C42.3235 51.7104 41.635 51.995 40.9023 51.995C40.1704 51.995 39.4807 51.7109 38.9707 51.1719L36.2009 48.402C35.1385 47.3396 35.1385 45.5903 36.2009 44.5278C37.2634 43.4654 39.0127 43.4654 40.0751 44.5278L40.0752 44.5278L40.0778 44.5306C40.4015 44.8713 40.4015 45.4004 40.0778 45.7411L40.0779 45.7411L40.0751 45.7439C39.7358 46.0832 39.1873 46.0877 38.8579 45.7426C38.4498 45.3358 37.8104 45.3363 37.4028 45.7439C36.9948 46.1519 36.9948 46.7921 37.4028 47.2002L40.1723 49.9697C40.3729 50.157 40.6332 50.2669 40.9023 50.2669C41.1754 50.2669 41.4327 50.1683 41.6287 49.9732C41.8159 49.7726 41.9258 49.5124 41.9258 49.2433C41.9258 48.9694 41.8267 48.7114 41.6304 48.5152L41.6304 48.5152L41.6277 48.5124C41.3041 48.1717 41.3041 47.6426 41.6277 47.3019Z" fill="#0369CA" stroke="#0369CA" stroke-width="0.3"></path><path d="M25.252 22.6245C25.0946 22.7467 24.9054 22.7973 24.7359 22.7973C24.4907 22.7973 24.2238 22.6998 24.0749 22.4637C21.8379 19.4978 20.6552 15.9756 20.6552 12.2408V5.75081C20.6552 5.38894 20.8795 5.08272 21.1994 4.94802L21.1994 4.94797L21.2032 4.94647L31.5956 0.902628L31.5956 0.902593L31.5988 0.901449C31.7887 0.832367 32.0075 0.833778 32.2065 0.900115L32.2065 0.899942L32.2134 0.902628L42.6058 4.94647L42.6059 4.94642L42.6097 4.94802C42.9296 5.08272 43.1539 5.38894 43.1539 5.75081V12.2408C43.1539 15.7069 42.1125 19.0453 40.158 21.8701L40.1578 21.8705C39.8856 22.2617 39.3544 22.3666 38.9592 22.0917C38.568 21.8196 38.4631 21.2883 38.7379 20.8932L38.738 20.8932C40.5016 18.3597 41.4258 15.3639 41.4258 12.2408V6.33421L31.8904 2.6314L22.355 6.33421V12.2408C22.355 15.5882 23.4052 18.7798 25.4208 21.4252L25.4208 21.4252L25.4228 21.4279C25.696 21.8036 25.628 22.3337 25.252 22.6245ZM25.252 22.6245C25.252 22.6244 25.2521 22.6244 25.2522 22.6243L25.1601 22.5059M25.252 22.6245C25.2519 22.6245 25.2519 22.6246 25.2518 22.6246L25.1601 22.5059M25.1601 22.5059C25.0328 22.6049 24.8773 22.6473 24.7359 22.6473C24.5238 22.6473 24.3117 22.5625 24.1986 22.3787L25.3015 21.5162C25.5277 21.8272 25.4711 22.2655 25.1601 22.5059Z" fill="#0369CA" stroke="#0369CA" stroke-width="0.3"></path><path d="M28.9577 21.3138L28.9578 21.3138L28.9548 21.3165C28.7839 21.4703 28.5777 21.5389 28.3737 21.5389C28.149 21.5389 27.9274 21.4516 27.7445 21.2687L27.7443 21.2688L27.7398 21.2638C25.4805 18.7901 24.2364 15.5868 24.2364 12.2407V8.211C24.2364 7.84914 24.4607 7.54291 24.7806 7.40821L24.7806 7.40816L24.7845 7.40665L31.5855 4.7626L31.5855 4.76256L31.5886 4.76143C31.7786 4.69235 31.9973 4.69376 32.1963 4.7601L32.1964 4.75993L32.2032 4.7626L39.0042 7.40665L39.0043 7.4066L39.0081 7.40821C39.328 7.54291 39.5523 7.84914 39.5523 8.211V12.2548C39.5523 15.4437 38.4084 18.5324 36.3349 20.9492C36.0248 21.3109 35.4774 21.3429 35.1195 21.0361C34.7578 20.7261 34.7257 20.1786 35.0325 19.8207L35.0327 19.8205C36.8472 17.7129 37.8384 15.0188 37.8384 12.2407V8.8084L31.8944 6.49147L25.9503 8.8084V12.2407C25.9503 15.1582 27.0391 17.95 29.0075 20.0999L29.0081 20.1005C29.3334 20.4601 29.2973 20.9912 28.9577 21.3138Z" fill="#0369CA" stroke="#0369CA" stroke-width="0.3"></path><path d="M35.846 13.5769L35.846 13.5769L35.8487 13.5797C36.1709 13.9188 36.1747 14.4643 35.846 14.793L33.8833 16.7557C33.7243 16.9304 33.4993 17.0143 33.2797 17.0143C33.0561 17.0143 32.8369 16.928 32.6556 16.7632L32.6555 16.7634L32.6505 16.7583L27.9138 12.0216C27.574 11.6818 27.57 11.1322 27.9165 10.8029C28.2572 10.4793 28.7864 10.4793 29.1271 10.8029L29.1271 10.8029L29.1298 10.8056L33.2655 14.9414L34.63 13.5769L34.6299 13.5769L34.6327 13.5742C34.9719 13.2521 35.5173 13.2482 35.846 13.5769Z" fill="#0369CA" stroke="#0369CA" stroke-width="0.3"></path></svg>