<svg xmlns="http://www.w3.org/2000/svg" width="57" height="66" viewBox="0 0 57 66" fill="none"><mask id="path-1-outside-1_1679_9" maskUnits="userSpaceOnUse" x="0" y="0" width="57" height="66" fill="black"><rect fill="white" width="57" height="66"></rect><path d="M49.5467 32.7233C48.9626 30.4027 47.8082 28.2531 46.1137 26.3256C47.6739 24.3726 48.9878 22.0149 48.9878 18.6227C48.9878 14.8794 47.1086 11.7324 43.5536 9.52198C40.4415 7.58701 36.2679 6.52138 31.8014 6.52138C27.3348 6.52138 23.1612 7.58701 20.0491 9.52198C16.4941 11.7324 14.615 14.8794 14.615 18.6227C14.615 19.1272 14.6455 19.6075 14.7002 20.0683C10.5998 21.1643 7.27807 22.8704 5.07899 25.0192C5.06198 25.0358 5.04578 25.053 5.03057 25.0708C3.75479 26.5565 4.39334 27.4759 4.85965 28.1471C5.08095 28.4656 5.27199 28.7406 5.32286 29.101C5.39433 29.6087 4.7409 31.437 4.26379 32.772C3.87092 33.8714 3.4998 34.91 3.33804 35.6377C2.97673 37.2686 3.76068 38.0651 4.33298 38.6467C4.71686 39.0368 4.94846 39.2721 4.93293 39.7433C4.90708 40.5421 3.97478 42.0455 2.15925 44.2154C2.08777 44.3017 2.01809 44.3841 1.95103 44.4635C1.39263 45.1234 0.865146 45.7469 1.031 46.7347C1.23529 47.9539 2.55866 48.2449 3.43437 48.4375C4.15241 48.5954 4.60286 48.7087 4.80649 49.0329C4.83921 49.0852 4.89891 49.1802 4.77623 49.6576C4.32448 50.4841 4.28604 51.1279 4.65389 51.6787C4.79521 51.8902 4.97823 52.0585 5.18465 52.1974C5.02534 52.3543 4.87372 52.5353 4.74843 52.7408C4.73175 52.7682 4.71719 52.7965 4.70459 52.8252C4.54659 53.191 4.49736 53.9768 4.98461 54.6837C5.00097 54.7554 5.00915 54.9433 4.92998 55.4342C4.78932 56.3069 4.55395 57.7675 5.97073 58.6754C6.73309 59.1639 7.76025 59.3007 8.90208 59.3007C9.4541 59.3007 10.0331 59.2688 10.6216 59.2289C10.6363 59.2279 10.6512 59.2266 10.6659 59.2251C12.7018 59.0145 14.6316 58.7457 16.4532 58.4209C16.9375 58.6554 17.2287 59.216 17.3199 60.092C17.3353 60.3914 17.3185 63.6566 17.2809 64.1918C17.2661 64.4021 17.3626 64.6077 17.5481 64.7605C17.7334 64.9134 17.991 65 18.2608 65H39.9762C40.2418 65 40.496 64.916 40.6808 64.7671C40.8656 64.6181 40.9652 64.4171 40.9571 64.2098C40.7174 58.2021 41.1789 53.4954 42.2232 51.2881C42.9653 49.9789 43.8696 48.6876 44.8266 47.3211C47.7207 43.1889 51.0009 38.5055 49.5463 32.7231L49.5467 32.7233ZM31.8014 8.05392C39.1335 8.05392 47.0249 11.3612 47.0249 18.6227C47.0249 22.7983 44.8313 25.1878 42.71 27.4986C40.8826 29.4891 39.1505 31.3761 38.9431 34.1487H35.4279V26.3109C35.4279 26.1417 35.4298 25.9753 35.4339 25.8124C37.7956 25.1509 39.7106 23.8414 40.7629 22.0799C41.9468 20.0979 41.9638 18.3438 40.8082 17.3874C40.0882 16.7914 39.0293 16.6303 37.9758 16.9574C36.0144 17.5658 33.9321 19.9024 33.5332 24.634C32.419 24.8038 31.1836 24.8038 30.0693 24.634C29.6705 19.9024 27.588 17.5658 25.6266 16.9574C24.5729 16.6306 23.5144 16.7914 22.7942 17.3874C21.6388 18.3438 21.6556 20.0981 22.8395 22.0799C23.8917 23.8413 25.8068 25.1507 28.1685 25.8124C28.1724 25.9753 28.1746 26.1417 28.1746 26.3109V34.1487H24.6593C24.4519 31.3762 22.7198 29.4891 20.8926 27.4987C18.7712 25.1879 16.5777 22.7984 16.5777 18.6229C16.5777 11.3614 24.4692 8.05392 31.8014 8.05392ZM28.4487 42.0863H35.1539V42.558C35.1539 43.0753 34.6151 43.4961 33.9527 43.4961H29.65C28.9876 43.4961 28.4487 43.0753 28.4487 42.558V42.0863ZM37.0519 40.5537H26.5507C25.5193 40.5537 24.6801 39.8986 24.6801 39.0932V38.8838H38.9222V39.0932C38.9222 39.8986 38.0831 40.5537 37.0517 40.5537H37.0519ZM38.9224 37.3512H24.6802V35.6811H38.9224V37.3512ZM30.1371 26.1986C31.2193 26.3263 32.3832 26.3263 33.4654 26.1986C33.4653 26.2359 33.4651 26.2731 33.4651 26.3108V34.1486H30.1373V26.3108C30.1373 26.2732 30.1373 26.2359 30.1371 26.1986ZM35.5567 24.1102C36.0358 20.2591 37.7351 18.6809 38.7004 18.3815C38.8357 18.3396 38.9461 18.324 39.036 18.324C39.2415 18.324 39.3398 18.4054 39.3803 18.439C39.7024 18.7055 40.0341 19.6742 38.984 21.4322C38.2781 22.614 37.0676 23.5384 35.5566 24.1103L35.5567 24.1102ZM28.0458 24.1102C26.535 23.5381 25.3245 22.6139 24.6184 21.432C23.5683 19.6741 23.8999 18.7055 24.2221 18.4388C24.2626 18.4052 24.3609 18.3239 24.5664 18.3239C24.6563 18.3239 24.7669 18.3395 24.902 18.3814C25.8674 18.6809 27.5668 20.259 28.0457 24.11L28.0458 24.1102ZM43.1048 46.586C42.1653 47.9273 41.1939 49.3144 40.416 50.6901C40.4083 50.7038 40.4011 50.7176 40.3944 50.7316C39.2892 53.0428 38.7868 57.5475 38.9675 63.4676H19.2653C19.2876 62.253 19.2961 60.1915 19.2776 59.9807C19.1888 59.1093 18.924 58.4724 18.575 58.0065C21.5711 57.3679 24.236 56.563 26.5411 55.5953C27.0185 55.3949 27.1974 54.9303 26.9408 54.5576C26.6843 54.185 26.0893 54.0451 25.6119 54.2455C21.6566 55.9056 16.5489 57.0691 10.4307 57.7037C9.1641 57.7889 7.77285 57.8475 7.21625 57.4908C6.68124 57.1479 6.75075 56.4129 6.87751 55.6257C6.98808 54.9404 7.00852 54.4358 6.76858 54.0383C6.75664 54.0187 6.74372 53.9993 6.72965 53.9805C6.55562 53.7463 6.54532 53.4561 6.56315 53.3352C6.79622 53.0075 7.21036 52.7875 7.35217 52.7123C7.38913 52.6928 7.41694 52.6776 7.43444 52.6674C7.71658 52.5041 7.86542 52.2356 7.8247 51.9631C7.78413 51.6907 7.56022 51.4561 7.23767 51.3478C6.86279 51.222 6.47531 51.0919 6.39402 50.9703C6.32009 50.8596 6.40187 50.5726 6.61287 50.2026C6.64067 50.154 6.66177 50.1031 6.676 50.051C6.84987 49.415 6.89828 48.8839 6.56871 48.3587C5.9686 47.4029 4.81124 47.1484 3.96628 46.9626C3.05949 46.7631 3.00388 46.6973 2.97689 46.536C2.90967 46.1351 3.08157 45.9075 3.58845 45.3085C3.65927 45.2248 3.73287 45.1378 3.80517 45.0503C5.9053 42.5405 6.85821 40.9158 6.89501 39.7826C6.92822 38.7691 6.35215 38.1836 5.88927 37.7133C5.40627 37.2225 5.05723 36.8678 5.27183 35.8995C5.41658 35.2479 5.79146 34.1988 6.15408 33.1841C6.92085 31.0384 7.37883 29.6817 7.27349 28.9337C7.18059 28.2745 6.8502 27.7989 6.58474 27.4167C6.18646 26.8433 6.04907 26.6455 6.63806 25.9507C8.54388 24.1006 11.4208 22.6076 14.9921 21.6098C15.7691 24.5459 17.6181 26.5626 19.2971 28.3916C21.1322 30.3906 22.7172 32.1171 22.7172 34.7091V39.0933C22.7172 40.7268 24.4018 42.0579 26.4858 42.0851V42.5582C26.4858 43.9205 27.9052 45.0288 29.6499 45.0288H33.9525C35.6972 45.0288 37.1165 43.9205 37.1165 42.5582V42.0851C39.2002 42.0579 40.8849 40.7268 40.8849 39.0933V34.7091C40.8849 32.1172 42.4698 30.3906 44.305 28.3916C44.5109 28.1672 44.7195 27.94 44.9283 27.7087C46.2352 29.3286 47.14 31.1097 47.6204 33.0188C48.9381 38.2571 45.9725 42.4912 43.1046 46.5861L43.1048 46.586ZM7.54288 17.1429C7.54206 16.7198 7.98057 16.3762 8.52261 16.3754L11.7778 16.3712H11.7795C12.3208 16.3712 12.76 16.7134 12.7608 17.1362C12.7616 17.5594 12.3231 17.9031 11.7811 17.9037L8.52589 17.9079H8.52425C7.98303 17.9079 7.54386 17.5657 7.54288 17.1429ZM15.8777 6.12688C15.5142 5.81296 15.5456 5.32842 15.9478 5.04452C16.35 4.76087 16.9704 4.78526 17.334 5.0993L19.2562 6.76007C19.6196 7.07399 19.5882 7.55853 19.186 7.84243C18.9983 7.97487 18.7629 8.04013 18.5283 8.04013C18.2604 8.04013 17.9937 7.95495 17.7998 7.78764L15.8777 6.12688ZM30.7901 3.98808V1.76627C30.7901 1.34316 31.2296 1 31.7714 1C32.3133 1 32.7528 1.34316 32.7528 1.76627V3.98821C32.7528 4.41132 32.3133 4.75448 31.7714 4.75448C31.2296 4.75448 30.7901 4.41119 30.7901 3.98808ZM50.7821 17.136C50.7829 16.7133 51.2222 16.3711 51.7634 16.3711H51.7651L55.0203 16.3753C55.5623 16.3759 56.001 16.7196 56 17.1428C55.9992 17.5657 55.5599 17.9078 55.0186 17.9078H55.017L51.7618 17.9036C51.2197 17.903 50.7811 17.5593 50.7821 17.136ZM44.357 7.84231C43.955 7.55853 43.9236 7.07399 44.2869 6.75995L46.2089 5.09918C46.5723 4.78526 47.1929 4.76087 47.5951 5.04439C47.9971 5.32816 48.0285 5.8127 47.6652 6.12675L45.7432 7.78752C45.5494 7.95495 45.2826 8.04 45.0147 8.04C44.7802 8.04 44.5448 7.97474 44.357 7.84231Z"></path></mask><path d="M49.5467 32.7233C48.9626 30.4027 47.8082 28.2531 46.1137 26.3256C47.6739 24.3726 48.9878 22.0149 48.9878 18.6227C48.9878 14.8794 47.1086 11.7324 43.5536 9.52198C40.4415 7.58701 36.2679 6.52138 31.8014 6.52138C27.3348 6.52138 23.1612 7.58701 20.0491 9.52198C16.4941 11.7324 14.615 14.8794 14.615 18.6227C14.615 19.1272 14.6455 19.6075 14.7002 20.0683C10.5998 21.1643 7.27807 22.8704 5.07899 25.0192C5.06198 25.0358 5.04578 25.053 5.03057 25.0708C3.75479 26.5565 4.39334 27.4759 4.85965 28.1471C5.08095 28.4656 5.27199 28.7406 5.32286 29.101C5.39433 29.6087 4.7409 31.437 4.26379 32.772C3.87092 33.8714 3.4998 34.91 3.33804 35.6377C2.97673 37.2686 3.76068 38.0651 4.33298 38.6467C4.71686 39.0368 4.94846 39.2721 4.93293 39.7433C4.90708 40.5421 3.97478 42.0455 2.15925 44.2154C2.08777 44.3017 2.01809 44.3841 1.95103 44.4635C1.39263 45.1234 0.865146 45.7469 1.031 46.7347C1.23529 47.9539 2.55866 48.2449 3.43437 48.4375C4.15241 48.5954 4.60286 48.7087 4.80649 49.0329C4.83921 49.0852 4.89891 49.1802 4.77623 49.6576C4.32448 50.4841 4.28604 51.1279 4.65389 51.6787C4.79521 51.8902 4.97823 52.0585 5.18465 52.1974C5.02534 52.3543 4.87372 52.5353 4.74843 52.7408C4.73175 52.7682 4.71719 52.7965 4.70459 52.8252C4.54659 53.191 4.49736 53.9768 4.98461 54.6837C5.00097 54.7554 5.00915 54.9433 4.92998 55.4342C4.78932 56.3069 4.55395 57.7675 5.97073 58.6754C6.73309 59.1639 7.76025 59.3007 8.90208 59.3007C9.4541 59.3007 10.0331 59.2688 10.6216 59.2289C10.6363 59.2279 10.6512 59.2266 10.6659 59.2251C12.7018 59.0145 14.6316 58.7457 16.4532 58.4209C16.9375 58.6554 17.2287 59.216 17.3199 60.092C17.3353 60.3914 17.3185 63.6566 17.2809 64.1918C17.2661 64.4021 17.3626 64.6077 17.5481 64.7605C17.7334 64.9134 17.991 65 18.2608 65H39.9762C40.2418 65 40.496 64.916 40.6808 64.7671C40.8656 64.6181 40.9652 64.4171 40.9571 64.2098C40.7174 58.2021 41.1789 53.4954 42.2232 51.2881C42.9653 49.9789 43.8696 48.6876 44.8266 47.3211C47.7207 43.1889 51.0009 38.5055 49.5463 32.7231L49.5467 32.7233ZM31.8014 8.05392C39.1335 8.05392 47.0249 11.3612 47.0249 18.6227C47.0249 22.7983 44.8313 25.1878 42.71 27.4986C40.8826 29.4891 39.1505 31.3761 38.9431 34.1487H35.4279V26.3109C35.4279 26.1417 35.4298 25.9753 35.4339 25.8124C37.7956 25.1509 39.7106 23.8414 40.7629 22.0799C41.9468 20.0979 41.9638 18.3438 40.8082 17.3874C40.0882 16.7914 39.0293 16.6303 37.9758 16.9574C36.0144 17.5658 33.9321 19.9024 33.5332 24.634C32.419 24.8038 31.1836 24.8038 30.0693 24.634C29.6705 19.9024 27.588 17.5658 25.6266 16.9574C24.5729 16.6306 23.5144 16.7914 22.7942 17.3874C21.6388 18.3438 21.6556 20.0981 22.8395 22.0799C23.8917 23.8413 25.8068 25.1507 28.1685 25.8124C28.1724 25.9753 28.1746 26.1417 28.1746 26.3109V34.1487H24.6593C24.4519 31.3762 22.7198 29.4891 20.8926 27.4987C18.7712 25.1879 16.5777 22.7984 16.5777 18.6229C16.5777 11.3614 24.4692 8.05392 31.8014 8.05392ZM28.4487 42.0863H35.1539V42.558C35.1539 43.0753 34.6151 43.4961 33.9527 43.4961H29.65C28.9876 43.4961 28.4487 43.0753 28.4487 42.558V42.0863ZM37.0519 40.5537H26.5507C25.5193 40.5537 24.6801 39.8986 24.6801 39.0932V38.8838H38.9222V39.0932C38.9222 39.8986 38.0831 40.5537 37.0517 40.5537H37.0519ZM38.9224 37.3512H24.6802V35.6811H38.9224V37.3512ZM30.1371 26.1986C31.2193 26.3263 32.3832 26.3263 33.4654 26.1986C33.4653 26.2359 33.4651 26.2731 33.4651 26.3108V34.1486H30.1373V26.3108C30.1373 26.2732 30.1373 26.2359 30.1371 26.1986ZM35.5567 24.1102C36.0358 20.2591 37.7351 18.6809 38.7004 18.3815C38.8357 18.3396 38.9461 18.324 39.036 18.324C39.2415 18.324 39.3398 18.4054 39.3803 18.439C39.7024 18.7055 40.0341 19.6742 38.984 21.4322C38.2781 22.614 37.0676 23.5384 35.5566 24.1103L35.5567 24.1102ZM28.0458 24.1102C26.535 23.5381 25.3245 22.6139 24.6184 21.432C23.5683 19.6741 23.8999 18.7055 24.2221 18.4388C24.2626 18.4052 24.3609 18.3239 24.5664 18.3239C24.6563 18.3239 24.7669 18.3395 24.902 18.3814C25.8674 18.6809 27.5668 20.259 28.0457 24.11L28.0458 24.1102ZM43.1048 46.586C42.1653 47.9273 41.1939 49.3144 40.416 50.6901C40.4083 50.7038 40.4011 50.7176 40.3944 50.7316C39.2892 53.0428 38.7868 57.5475 38.9675 63.4676H19.2653C19.2876 62.253 19.2961 60.1915 19.2776 59.9807C19.1888 59.1093 18.924 58.4724 18.575 58.0065C21.5711 57.3679 24.236 56.563 26.5411 55.5953C27.0185 55.3949 27.1974 54.9303 26.9408 54.5576C26.6843 54.185 26.0893 54.0451 25.6119 54.2455C21.6566 55.9056 16.5489 57.0691 10.4307 57.7037C9.1641 57.7889 7.77285 57.8475 7.21625 57.4908C6.68124 57.1479 6.75075 56.4129 6.87751 55.6257C6.98808 54.9404 7.00852 54.4358 6.76858 54.0383C6.75664 54.0187 6.74372 53.9993 6.72965 53.9805C6.55562 53.7463 6.54532 53.4561 6.56315 53.3352C6.79622 53.0075 7.21036 52.7875 7.35217 52.7123C7.38913 52.6928 7.41694 52.6776 7.43444 52.6674C7.71658 52.5041 7.86542 52.2356 7.8247 51.9631C7.78413 51.6907 7.56022 51.4561 7.23767 51.3478C6.86279 51.222 6.47531 51.0919 6.39402 50.9703C6.32009 50.8596 6.40187 50.5726 6.61287 50.2026C6.64067 50.154 6.66177 50.1031 6.676 50.051C6.84987 49.415 6.89828 48.8839 6.56871 48.3587C5.9686 47.4029 4.81124 47.1484 3.96628 46.9626C3.05949 46.7631 3.00388 46.6973 2.97689 46.536C2.90967 46.1351 3.08157 45.9075 3.58845 45.3085C3.65927 45.2248 3.73287 45.1378 3.80517 45.0503C5.9053 42.5405 6.85821 40.9158 6.89501 39.7826C6.92822 38.7691 6.35215 38.1836 5.88927 37.7133C5.40627 37.2225 5.05723 36.8678 5.27183 35.8995C5.41658 35.2479 5.79146 34.1988 6.15408 33.1841C6.92085 31.0384 7.37883 29.6817 7.27349 28.9337C7.18059 28.2745 6.8502 27.7989 6.58474 27.4167C6.18646 26.8433 6.04907 26.6455 6.63806 25.9507C8.54388 24.1006 11.4208 22.6076 14.9921 21.6098C15.7691 24.5459 17.6181 26.5626 19.2971 28.3916C21.1322 30.3906 22.7172 32.1171 22.7172 34.7091V39.0933C22.7172 40.7268 24.4018 42.0579 26.4858 42.0851V42.5582C26.4858 43.9205 27.9052 45.0288 29.6499 45.0288H33.9525C35.6972 45.0288 37.1165 43.9205 37.1165 42.5582V42.0851C39.2002 42.0579 40.8849 40.7268 40.8849 39.0933V34.7091C40.8849 32.1172 42.4698 30.3906 44.305 28.3916C44.5109 28.1672 44.7195 27.94 44.9283 27.7087C46.2352 29.3286 47.14 31.1097 47.6204 33.0188C48.9381 38.2571 45.9725 42.4912 43.1046 46.5861L43.1048 46.586ZM7.54288 17.1429C7.54206 16.7198 7.98057 16.3762 8.52261 16.3754L11.7778 16.3712H11.7795C12.3208 16.3712 12.76 16.7134 12.7608 17.1362C12.7616 17.5594 12.3231 17.9031 11.7811 17.9037L8.52589 17.9079H8.52425C7.98303 17.9079 7.54386 17.5657 7.54288 17.1429ZM15.8777 6.12688C15.5142 5.81296 15.5456 5.32842 15.9478 5.04452C16.35 4.76087 16.9704 4.78526 17.334 5.0993L19.2562 6.76007C19.6196 7.07399 19.5882 7.55853 19.186 7.84243C18.9983 7.97487 18.7629 8.04013 18.5283 8.04013C18.2604 8.04013 17.9937 7.95495 17.7998 7.78764L15.8777 6.12688ZM30.7901 3.98808V1.76627C30.7901 1.34316 31.2296 1 31.7714 1C32.3133 1 32.7528 1.34316 32.7528 1.76627V3.98821C32.7528 4.41132 32.3133 4.75448 31.7714 4.75448C31.2296 4.75448 30.7901 4.41119 30.7901 3.98808ZM50.7821 17.136C50.7829 16.7133 51.2222 16.3711 51.7634 16.3711H51.7651L55.0203 16.3753C55.5623 16.3759 56.001 16.7196 56 17.1428C55.9992 17.5657 55.5599 17.9078 55.0186 17.9078H55.017L51.7618 17.9036C51.2197 17.903 50.7811 17.5593 50.7821 17.136ZM44.357 7.84231C43.955 7.55853 43.9236 7.07399 44.2869 6.75995L46.2089 5.09918C46.5723 4.78526 47.1929 4.76087 47.5951 5.04439C47.9971 5.32816 48.0285 5.8127 47.6652 6.12675L45.7432 7.78752C45.5494 7.95495 45.2826 8.04 45.0147 8.04C44.7802 8.04 44.5448 7.97474 44.357 7.84231Z" fill="#047BDC"></path><path d="M49.5467 32.7233C48.9626 30.4027 47.8082 28.2531 46.1137 26.3256C47.6739 24.3726 48.9878 22.0149 48.9878 18.6227C48.9878 14.8794 47.1086 11.7324 43.5536 9.52198C40.4415 7.58701 36.2679 6.52138 31.8014 6.52138C27.3348 6.52138 23.1612 7.58701 20.0491 9.52198C16.4941 11.7324 14.615 14.8794 14.615 18.6227C14.615 19.1272 14.6455 19.6075 14.7002 20.0683C10.5998 21.1643 7.27807 22.8704 5.07899 25.0192C5.06198 25.0358 5.04578 25.053 5.03057 25.0708C3.75479 26.5565 4.39334 27.4759 4.85965 28.1471C5.08095 28.4656 5.27199 28.7406 5.32286 29.101C5.39433 29.6087 4.7409 31.437 4.26379 32.772C3.87092 33.8714 3.4998 34.91 3.33804 35.6377C2.97673 37.2686 3.76068 38.0651 4.33298 38.6467C4.71686 39.0368 4.94846 39.2721 4.93293 39.7433C4.90708 40.5421 3.97478 42.0455 2.15925 44.2154C2.08777 44.3017 2.01809 44.3841 1.95103 44.4635C1.39263 45.1234 0.865146 45.7469 1.031 46.7347C1.23529 47.9539 2.55866 48.2449 3.43437 48.4375C4.15241 48.5954 4.60286 48.7087 4.80649 49.0329C4.83921 49.0852 4.89891 49.1802 4.77623 49.6576C4.32448 50.4841 4.28604 51.1279 4.65389 51.6787C4.79521 51.8902 4.97823 52.0585 5.18465 52.1974C5.02534 52.3543 4.87372 52.5353 4.74843 52.7408C4.73175 52.7682 4.71719 52.7965 4.70459 52.8252C4.54659 53.191 4.49736 53.9768 4.98461 54.6837C5.00097 54.7554 5.00915 54.9433 4.92998 55.4342C4.78932 56.3069 4.55395 57.7675 5.97073 58.6754C6.73309 59.1639 7.76025 59.3007 8.90208 59.3007C9.4541 59.3007 10.0331 59.2688 10.6216 59.2289C10.6363 59.2279 10.6512 59.2266 10.6659 59.2251C12.7018 59.0145 14.6316 58.7457 16.4532 58.4209C16.9375 58.6554 17.2287 59.216 17.3199 60.092C17.3353 60.3914 17.3185 63.6566 17.2809 64.1918C17.2661 64.4021 17.3626 64.6077 17.5481 64.7605C17.7334 64.9134 17.991 65 18.2608 65H39.9762C40.2418 65 40.496 64.916 40.6808 64.7671C40.8656 64.6181 40.9652 64.4171 40.9571 64.2098C40.7174 58.2021 41.1789 53.4954 42.2232 51.2881C42.9653 49.9789 43.8696 48.6876 44.8266 47.3211C47.7207 43.1889 51.0009 38.5055 49.5463 32.7231L49.5467 32.7233ZM31.8014 8.05392C39.1335 8.05392 47.0249 11.3612 47.0249 18.6227C47.0249 22.7983 44.8313 25.1878 42.71 27.4986C40.8826 29.4891 39.1505 31.3761 38.9431 34.1487H35.4279V26.3109C35.4279 26.1417 35.4298 25.9753 35.4339 25.8124C37.7956 25.1509 39.7106 23.8414 40.7629 22.0799C41.9468 20.0979 41.9638 18.3438 40.8082 17.3874C40.0882 16.7914 39.0293 16.6303 37.9758 16.9574C36.0144 17.5658 33.9321 19.9024 33.5332 24.634C32.419 24.8038 31.1836 24.8038 30.0693 24.634C29.6705 19.9024 27.588 17.5658 25.6266 16.9574C24.5729 16.6306 23.5144 16.7914 22.7942 17.3874C21.6388 18.3438 21.6556 20.0981 22.8395 22.0799C23.8917 23.8413 25.8068 25.1507 28.1685 25.8124C28.1724 25.9753 28.1746 26.1417 28.1746 26.3109V34.1487H24.6593C24.4519 31.3762 22.7198 29.4891 20.8926 27.4987C18.7712 25.1879 16.5777 22.7984 16.5777 18.6229C16.5777 11.3614 24.4692 8.05392 31.8014 8.05392ZM28.4487 42.0863H35.1539V42.558C35.1539 43.0753 34.6151 43.4961 33.9527 43.4961H29.65C28.9876 43.4961 28.4487 43.0753 28.4487 42.558V42.0863ZM37.0519 40.5537H26.5507C25.5193 40.5537 24.6801 39.8986 24.6801 39.0932V38.8838H38.9222V39.0932C38.9222 39.8986 38.0831 40.5537 37.0517 40.5537H37.0519ZM38.9224 37.3512H24.6802V35.6811H38.9224V37.3512ZM30.1371 26.1986C31.2193 26.3263 32.3832 26.3263 33.4654 26.1986C33.4653 26.2359 33.4651 26.2731 33.4651 26.3108V34.1486H30.1373V26.3108C30.1373 26.2732 30.1373 26.2359 30.1371 26.1986ZM35.5567 24.1102C36.0358 20.2591 37.7351 18.6809 38.7004 18.3815C38.8357 18.3396 38.9461 18.324 39.036 18.324C39.2415 18.324 39.3398 18.4054 39.3803 18.439C39.7024 18.7055 40.0341 19.6742 38.984 21.4322C38.2781 22.614 37.0676 23.5384 35.5566 24.1103L35.5567 24.1102ZM28.0458 24.1102C26.535 23.5381 25.3245 22.6139 24.6184 21.432C23.5683 19.6741 23.8999 18.7055 24.2221 18.4388C24.2626 18.4052 24.3609 18.3239 24.5664 18.3239C24.6563 18.3239 24.7669 18.3395 24.902 18.3814C25.8674 18.6809 27.5668 20.259 28.0457 24.11L28.0458 24.1102ZM43.1048 46.586C42.1653 47.9273 41.1939 49.3144 40.416 50.6901C40.4083 50.7038 40.4011 50.7176 40.3944 50.7316C39.2892 53.0428 38.7868 57.5475 38.9675 63.4676H19.2653C19.2876 62.253 19.2961 60.1915 19.2776 59.9807C19.1888 59.1093 18.924 58.4724 18.575 58.0065C21.5711 57.3679 24.236 56.563 26.5411 55.5953C27.0185 55.3949 27.1974 54.9303 26.9408 54.5576C26.6843 54.185 26.0893 54.0451 25.6119 54.2455C21.6566 55.9056 16.5489 57.0691 10.4307 57.7037C9.1641 57.7889 7.77285 57.8475 7.21625 57.4908C6.68124 57.1479 6.75075 56.4129 6.87751 55.6257C6.98808 54.9404 7.00852 54.4358 6.76858 54.0383C6.75664 54.0187 6.74372 53.9993 6.72965 53.9805C6.55562 53.7463 6.54532 53.4561 6.56315 53.3352C6.79622 53.0075 7.21036 52.7875 7.35217 52.7123C7.38913 52.6928 7.41694 52.6776 7.43444 52.6674C7.71658 52.5041 7.86542 52.2356 7.8247 51.9631C7.78413 51.6907 7.56022 51.4561 7.23767 51.3478C6.86279 51.222 6.47531 51.0919 6.39402 50.9703C6.32009 50.8596 6.40187 50.5726 6.61287 50.2026C6.64067 50.154 6.66177 50.1031 6.676 50.051C6.84987 49.415 6.89828 48.8839 6.56871 48.3587C5.9686 47.4029 4.81124 47.1484 3.96628 46.9626C3.05949 46.7631 3.00388 46.6973 2.97689 46.536C2.90967 46.1351 3.08157 45.9075 3.58845 45.3085C3.65927 45.2248 3.73287 45.1378 3.80517 45.0503C5.9053 42.5405 6.85821 40.9158 6.89501 39.7826C6.92822 38.7691 6.35215 38.1836 5.88927 37.7133C5.40627 37.2225 5.05723 36.8678 5.27183 35.8995C5.41658 35.2479 5.79146 34.1988 6.15408 33.1841C6.92085 31.0384 7.37883 29.6817 7.27349 28.9337C7.18059 28.2745 6.8502 27.7989 6.58474 27.4167C6.18646 26.8433 6.04907 26.6455 6.63806 25.9507C8.54388 24.1006 11.4208 22.6076 14.9921 21.6098C15.7691 24.5459 17.6181 26.5626 19.2971 28.3916C21.1322 30.3906 22.7172 32.1171 22.7172 34.7091V39.0933C22.7172 40.7268 24.4018 42.0579 26.4858 42.0851V42.5582C26.4858 43.9205 27.9052 45.0288 29.6499 45.0288H33.9525C35.6972 45.0288 37.1165 43.9205 37.1165 42.5582V42.0851C39.2002 42.0579 40.8849 40.7268 40.8849 39.0933V34.7091C40.8849 32.1172 42.4698 30.3906 44.305 28.3916C44.5109 28.1672 44.7195 27.94 44.9283 27.7087C46.2352 29.3286 47.14 31.1097 47.6204 33.0188C48.9381 38.2571 45.9725 42.4912 43.1046 46.5861L43.1048 46.586ZM7.54288 17.1429C7.54206 16.7198 7.98057 16.3762 8.52261 16.3754L11.7778 16.3712H11.7795C12.3208 16.3712 12.76 16.7134 12.7608 17.1362C12.7616 17.5594 12.3231 17.9031 11.7811 17.9037L8.52589 17.9079H8.52425C7.98303 17.9079 7.54386 17.5657 7.54288 17.1429ZM15.8777 6.12688C15.5142 5.81296 15.5456 5.32842 15.9478 5.04452C16.35 4.76087 16.9704 4.78526 17.334 5.0993L19.2562 6.76007C19.6196 7.07399 19.5882 7.55853 19.186 7.84243C18.9983 7.97487 18.7629 8.04013 18.5283 8.04013C18.2604 8.04013 17.9937 7.95495 17.7998 7.78764L15.8777 6.12688ZM30.7901 3.98808V1.76627C30.7901 1.34316 31.2296 1 31.7714 1C32.3133 1 32.7528 1.34316 32.7528 1.76627V3.98821C32.7528 4.41132 32.3133 4.75448 31.7714 4.75448C31.2296 4.75448 30.7901 4.41119 30.7901 3.98808ZM50.7821 17.136C50.7829 16.7133 51.2222 16.3711 51.7634 16.3711H51.7651L55.0203 16.3753C55.5623 16.3759 56.001 16.7196 56 17.1428C55.9992 17.5657 55.5599 17.9078 55.0186 17.9078H55.017L51.7618 17.9036C51.2197 17.903 50.7811 17.5593 50.7821 17.136ZM44.357 7.84231C43.955 7.55853 43.9236 7.07399 44.2869 6.75995L46.2089 5.09918C46.5723 4.78526 47.1929 4.76087 47.5951 5.04439C47.9971 5.32816 48.0285 5.8127 47.6652 6.12675L45.7432 7.78752C45.5494 7.95495 45.2826 8.04 45.0147 8.04C44.7802 8.04 44.5448 7.97474 44.357 7.84231Z" stroke="#047BDC" stroke-width="0.6" mask="url(#path-1-outside-1_1679_9)"></path></svg>