<svg xmlns="http://www.w3.org/2000/svg" width="52" height="52" viewBox="0 0 52 52" fill="none"><path d="M30.9199 12.6258H37.7772L28.3672 22.0362L30.4818 24.1508L39.8922 14.7407V21.5981H42.883V9.63501H30.9199V12.6258Z" fill="#047BDC"></path><path d="M45.875 0.66272V3.6535H48.8658V6.64427H51.8566V0.66272H45.875Z" fill="#047BDC"></path><path d="M48.8658 39.5428H45.875V42.5336H51.8566V36.552H48.8658V39.5428Z" fill="#047BDC"></path><path d="M48.8633 9.63501H51.8541V15.6166H48.8633V9.63501Z" fill="#047BDC"></path><path d="M48.8633 18.6074H51.8541V24.589H48.8633V18.6074Z" fill="#047BDC"></path><path d="M48.8633 27.5797H51.8541V33.5613H48.8633V27.5797Z" fill="#047BDC"></path><path d="M12.9752 3.6535H15.9659V0.66272H9.98438V6.64427H12.9752V3.6535Z" fill="#047BDC"></path><path d="M9.98438 9.63501H12.9752V15.6166H9.98438V9.63501Z" fill="#047BDC"></path><path d="M9.98438 18.6074H12.9752V24.589H9.98438V18.6074Z" fill="#047BDC"></path><path d="M18.957 0.66272H24.9386V3.6535H18.957V0.66272Z" fill="#047BDC"></path><path d="M27.9297 0.66272H33.9112V3.6535H27.9297V0.66272Z" fill="#047BDC"></path><path d="M36.9023 0.66272H42.8839V3.6535H36.9023V0.66272Z" fill="#047BDC"></path><path d="M27.9297 39.5428H33.9112V42.5336H27.9297V39.5428Z" fill="#047BDC"></path><path d="M36.9023 39.5428H42.8839V42.5336H36.9023V39.5428Z" fill="#047BDC"></path><path d="M0.8125 51.7053H24.7387V27.7791H0.8125V51.7053ZM3.80328 30.7698H21.7479V48.7145H3.80328V30.7698Z" fill="#047BDC"></path></svg>