<svg xmlns="http://www.w3.org/2000/svg" width="43" height="47" viewBox="0 0 43 47" fill="none"><path d="M39.973 16.698C40.7774 15.8205 41.2683 14.6533 41.2683 13.3727C41.2683 10.6552 39.0553 8.44409 36.3342 8.44409C33.613 8.44409 31.4001 10.6552 31.4001 13.3727C31.4001 15.7099 33.0371 17.6706 35.2254 18.1743C35.2026 18.1971 35.1806 18.219 35.1578 18.2419L30.2063 23.1897H24.4148C23.083 23.1897 21.9999 24.2719 21.9999 25.6028C21.9999 25.9401 22.0693 26.2609 22.1955 26.5534H20.0602C20.1855 26.2619 20.2559 25.9401 20.2559 25.6028C20.2559 24.2729 19.1727 23.1897 17.8409 23.1897H12.0494L7.09796 18.2419C7.07602 18.22 7.05317 18.1971 7.03123 18.1752C9.22132 17.6715 10.8593 15.7109 10.8593 13.3736C10.8593 10.6561 8.64455 8.445 5.92248 8.445C3.20223 8.445 0.988381 10.6561 0.988381 13.3736C0.988381 14.6542 1.48014 15.8215 2.2836 16.699C1.05054 17.1852 0.175781 18.3872 0.175781 19.7894V33.1849C0.175781 34.6721 1.38691 35.8823 2.87591 35.8823H9.44983V44.1034C9.44983 45.5906 10.661 46.8008 12.15 46.8008C13.639 46.8008 14.8501 45.5906 14.8501 44.1034V33.184C14.8501 32.7389 14.7413 32.3193 14.5494 31.9491H20.3984V43.1071H19.1663C18.1462 43.1071 17.3171 43.9352 17.3171 44.9526V46.0686C17.3171 46.4726 17.6444 46.7999 18.0484 46.7999H24.2128C24.6168 46.7999 24.9441 46.4726 24.9441 46.0686V44.9516C24.9441 43.9343 24.1141 43.1061 23.0949 43.1061H21.8609V31.9482H27.7064C27.5144 32.3184 27.4056 32.7389 27.4056 33.1831V44.1016C27.4056 45.5887 28.6168 46.799 30.1058 46.799C31.5948 46.799 32.8059 45.5887 32.8059 44.1016V35.8805H39.3798C40.8688 35.8805 42.0799 34.6703 42.0799 33.1831V19.7885C42.0809 18.3854 41.2061 17.1843 39.973 16.698ZM23.4807 44.9516V45.3374H18.7787V44.9516C18.7787 44.7405 18.9524 44.5686 19.1654 44.5686H23.0931C23.307 44.5686 23.4807 44.7405 23.4807 44.9516ZM32.8635 13.3727C32.8635 11.4614 34.421 9.90658 36.3351 9.90658C38.2491 9.90658 39.8067 11.4614 39.8067 13.3727C39.8067 15.284 38.2491 16.8388 36.3351 16.8388C34.421 16.8388 32.8635 15.284 32.8635 13.3727ZM23.4642 25.6019C23.4642 25.0781 23.8911 24.6513 24.4166 24.6513H30.5107C30.7045 24.6513 30.89 24.5745 31.0271 24.4374L36.1934 19.2757C36.8863 18.5828 37.5407 17.9284 38.7555 17.9284C39.7829 17.9284 40.6184 18.7629 40.6184 19.7885V30.4866H35.73V24.4968L37.4585 22.7701C37.7446 22.485 37.7446 22.0215 37.4594 21.7363C37.1742 21.4502 36.7108 21.4502 36.4256 21.7354L31.9458 26.2098C31.7127 26.4447 31.4476 26.5534 31.1131 26.5534H24.4176C23.8911 26.5525 23.4642 26.1266 23.4642 25.6019ZM31.8434 30.4857V27.9154C32.2693 27.7956 32.6551 27.568 32.9805 27.2417L34.2675 25.9566V30.4857H31.8434ZM7.99191 30.4857V25.9566L9.27708 27.2399C9.6034 27.568 9.98913 27.7956 10.416 27.9154V30.4857H7.99191ZM11.8785 28.015H30.3818V30.4857H11.8785V28.015ZM5.9243 9.90658C7.84017 9.90658 9.39865 11.4614 9.39865 13.3727C9.39865 15.284 7.84017 16.8388 5.9243 16.8388C4.01026 16.8388 2.4527 15.284 2.4527 13.3727C2.4527 11.4614 4.01026 9.90658 5.9243 9.90658ZM3.50387 17.9284C4.71774 17.9284 5.37221 18.5828 6.06507 19.2757L11.2313 24.4383C11.3684 24.5754 11.554 24.6522 11.7478 24.6522H17.8418C18.3674 24.6522 18.7943 25.0781 18.7943 25.6028C18.7943 26.1266 18.3674 26.5534 17.8418 26.5534H11.1463C10.8109 26.5534 10.5467 26.4438 10.3118 26.2079L5.83381 21.7354C5.54863 21.4502 5.0852 21.4502 4.80001 21.7363C4.51482 22.0224 4.51482 22.485 4.80092 22.7701L6.52941 24.4968V30.4866H1.64102V19.7885C1.64102 18.7629 2.47647 17.9284 3.50387 17.9284ZM13.3913 33.184V44.1025C13.3913 44.7834 12.8355 45.3374 12.1536 45.3374C11.4717 45.3374 10.916 44.7834 10.916 44.1025V35.1502C10.916 34.7462 10.5888 34.4189 10.1847 34.4189H2.87866C2.19585 34.4189 1.64102 33.865 1.64102 33.184V31.9491H12.1536C12.8364 31.9482 13.3913 32.5021 13.3913 33.184ZM40.6184 33.184C40.6184 33.865 40.0626 34.4189 39.3807 34.4189H32.0756C31.6715 34.4189 31.3443 34.7462 31.3443 35.1502V44.1025C31.3443 44.7834 30.7886 45.3374 30.1067 45.3374C29.4248 45.3374 28.869 44.7834 28.869 44.1025V33.184C28.869 32.5031 29.4248 31.9491 30.1067 31.9491H40.6193V33.184H40.6184ZM13.4114 13.2466H13.8913V15.0573C13.8913 15.3388 14.053 15.5948 14.3062 15.7163C14.4068 15.7648 14.5146 15.7886 14.6225 15.7886C14.7861 15.7886 14.9479 15.7337 15.0804 15.6277L18.0475 13.2466H21.7101C22.8244 13.2466 23.7311 12.3407 23.7311 11.2274V10.6424H24.211L27.178 13.0235C27.3106 13.1296 27.4724 13.1844 27.636 13.1844C27.7438 13.1844 27.8517 13.1606 27.9522 13.1122C28.2054 12.9906 28.3672 12.7338 28.3672 12.4532V10.6424H28.8498C29.9623 10.6424 30.8681 9.73748 30.8681 8.62598V2.01916C30.8681 0.905833 29.9632 0 28.8498 0H20.5483C19.4341 0 18.5274 0.905833 18.5274 2.01916V2.60416H13.4114C12.2971 2.60416 11.3904 3.50999 11.3904 4.62331V11.2274C11.3913 12.3407 12.2971 13.2466 13.4114 13.2466ZM19.9908 2.01916C19.9908 1.71752 20.2467 1.4625 20.5493 1.4625H28.8508C29.1515 1.4625 29.4065 1.71752 29.4065 2.01916V8.62598C29.4065 8.93128 29.157 9.1799 28.8508 9.1799H27.6369C27.2329 9.1799 26.9056 9.50714 26.9056 9.91115V10.9285L24.9267 9.34078C24.7969 9.23658 24.6351 9.1799 24.4688 9.1799H23.732V4.62331C23.732 3.50999 22.8253 2.60416 21.711 2.60416H19.9908V2.01916ZM12.8538 4.62331C12.8538 4.31619 13.1042 4.06665 13.4123 4.06665H21.711C22.0191 4.06665 22.2695 4.31619 22.2695 4.62331V11.2274C22.2695 11.529 22.0136 11.7841 21.711 11.7841H17.7906C17.6243 11.7841 17.4625 11.8407 17.3327 11.9449L15.3537 13.5327V12.5153C15.3537 12.1113 15.0265 11.7841 14.6225 11.7841H13.4114C13.1033 11.7841 12.8529 11.5345 12.8529 11.2274V4.62331H12.8538ZM14.107 9.10495C14.107 8.70094 14.4342 8.3737 14.8382 8.3737H20.2833C20.6873 8.3737 21.0145 8.70094 21.0145 9.10495C21.0145 9.50896 20.6873 9.8362 20.2833 9.8362H14.8382C14.4351 9.8362 14.107 9.50896 14.107 9.10495ZM15.9625 6.74485C15.9625 6.34083 16.2897 6.0136 16.6938 6.0136H20.2842C20.6882 6.0136 21.0154 6.34083 21.0154 6.74485C21.0154 7.14886 20.6882 7.4761 20.2842 7.4761H16.6938C16.2897 7.4761 15.9625 7.14886 15.9625 6.74485ZM14.1079 6.74485C14.1079 6.34083 14.4351 6.0136 14.8391 6.0136H14.84C15.2441 6.0136 15.5713 6.34083 15.5713 6.74485C15.5713 7.14886 15.2441 7.4761 14.84 7.4761C14.436 7.4761 14.1079 7.14886 14.1079 6.74485Z" fill="#048DEF"></path></svg>