<svg xmlns="http://www.w3.org/2000/svg" width="64" height="64" viewBox="0 0 64 64" fill="none"><path d="M0.366237 48.6338L15.3673 63.6338C15.8556 64.1221 16.6467 64.1221 17.135 63.6338L25.3856 55.3838C25.8739 54.8955 25.8739 54.1045 25.3856 53.6162L25.0193 53.25H43.0392C44.6218 53.25 46.1322 52.6567 47.2968 51.5757L62.4624 37.3633C63.9142 36.0151 64.3952 33.8735 63.6588 32.0347C63.1265 30.7036 62.0395 29.6851 60.6771 29.2402C59.3142 28.7944 57.8361 28.9751 56.6202 29.7349C56.6124 29.7397 53.2533 31.9438 53.2533 31.9438C53.2303 25.168 49.1348 17.9424 43.4972 14.6895C43.819 14.3198 44.0719 13.8823 44.2331 13.3926C44.8782 11.4302 43.8058 9.30615 41.8403 8.65723C41.7788 8.63672 41.7173 8.61865 41.6558 8.59961L44.8738 2.81934C45.0588 2.48682 45.0828 2.08789 44.9377 1.73633C44.7932 1.38428 44.4963 1.11719 44.1305 1.01123C41.8233 0.340332 39.4251 0 37.0026 0C34.5806 0 32.182 0.340332 29.8747 1.01074C29.5089 1.11719 29.212 1.38379 29.067 1.73584C28.9224 2.08789 28.9459 2.48682 29.1314 2.81934L32.3494 8.59961C32.2869 8.61914 32.2244 8.6377 32.1619 8.6582C30.1994 9.30615 29.1275 11.4297 29.7726 13.3936C29.9337 13.8823 30.1886 14.3184 30.5114 14.6885C24.7898 17.9897 20.7515 25.2896 20.7515 32C20.7515 32.1831 20.7559 32.3638 20.7617 32.543C18.5228 33.1538 16.4411 34.2666 14.6905 35.7993L10.8914 39.123L10.3845 38.6162C9.8962 38.1279 9.10513 38.1279 8.61682 38.6162L0.366237 46.8662C-0.122079 47.3545 -0.122079 48.1455 0.366237 48.6338ZM32.1063 3.02295C33.7079 2.67529 35.3487 2.5 37.0026 2.5C38.6565 2.5 40.2973 2.67529 41.8994 3.02295L39.1136 8.02637C37.7092 7.83057 36.295 7.83057 34.8921 8.02637L32.1063 3.02295ZM32.9423 11.0332C35.5074 10.1938 38.304 10.1304 41.0595 11.0322C41.7153 11.2485 42.0733 11.9575 41.8579 12.6118C41.6958 13.1045 41.2563 13.439 40.747 13.4688C38.282 12.6851 35.7218 12.6836 33.2577 13.4663C33.2577 13.4663 33.2577 13.4663 33.2572 13.4663C32.7435 13.4341 32.3074 13.0981 32.1473 12.6123C31.9319 11.957 32.2899 11.248 32.9423 11.0332ZM33.6337 15.9771C35.8013 15.1963 38.0471 15.1777 40.2201 15.9243C46.0281 17.9214 50.7536 25.1328 50.7536 32C50.7536 32.582 50.7169 33.1367 50.6447 33.6553L44.636 37.5972C43.7057 36.4448 42.2959 35.75 40.7529 35.75H38.2527V34.2852C39.7079 33.769 40.7529 32.3794 40.7529 30.75C40.7529 28.6821 39.0706 27 37.0026 27C36.3136 27 35.7525 26.4395 35.7525 25.75C35.7525 25.0605 36.3136 24.5 37.0026 24.5C37.4455 24.5 37.9128 24.7261 38.3547 25.1533C38.8509 25.6333 39.6424 25.6201 40.1225 25.1245C40.6025 24.6284 40.5893 23.8369 40.0932 23.3569C39.4588 22.7427 38.824 22.3955 38.2527 22.2061V20.75C38.2527 20.0596 37.6931 19.5 37.0026 19.5C36.3121 19.5 35.7525 20.0596 35.7525 20.75V22.2148C34.2978 22.731 33.2523 24.1206 33.2523 25.75C33.2523 27.8179 34.9346 29.5 37.0026 29.5C37.6921 29.5 38.2527 30.0605 38.2527 30.75C38.2527 31.4395 37.6921 32 37.0026 32C36.4684 32 35.8922 31.6641 35.3794 31.0542C34.9351 30.5259 34.1464 30.4575 33.6181 30.9019C33.0897 31.3462 33.0214 32.1348 33.4657 32.6631C34.1337 33.458 34.9199 34.0117 35.7525 34.291V35.75H35.3365C34.7222 35.75 34.4463 35.3496 34.0136 35.0698C31.3723 33.0903 28.1006 32 24.8006 32C24.2844 32 23.7673 32.0269 23.2526 32.0791C23.2526 32.0527 23.2516 32.0269 23.2516 32C23.2516 25.229 27.9092 18.0415 33.6337 15.9771ZM16.3371 37.6802C18.6859 35.6235 21.7042 34.5 24.8006 34.5C27.5635 34.5 30.3024 35.4126 32.5125 37.0693C32.8314 37.2559 33.7192 38.25 35.336 38.25H40.7529C42.1758 38.25 43.253 39.4067 43.253 40.75C43.253 42.1284 42.1314 43.25 40.7529 43.25H32.0023C31.3118 43.25 30.7522 43.8096 30.7522 44.5C30.7522 45.1904 31.3118 45.75 32.0023 45.75H40.7529C43.5099 45.75 45.7532 43.5068 45.7532 40.75C45.7532 40.4634 45.7278 40.1807 45.68 39.9023L57.9557 31.8486C58.5398 31.4878 59.2483 31.4033 59.9007 31.6162C60.557 31.8311 61.081 32.3218 61.3373 32.9634C61.6982 33.8638 61.4716 34.8721 60.7567 35.5356L45.5916 49.7476C44.8952 50.394 43.9889 50.75 43.0392 50.75H22.5192L12.6635 40.8945L16.3371 37.6802ZM9.50067 41.2676L22.734 54.5L16.2511 60.9824L3.01779 47.75L9.50067 41.2676Z" fill="#0369CA"></path></svg>