<svg xmlns="http://www.w3.org/2000/svg" width="45" height="47" viewBox="0 0 45 47" fill="none"><g clip-path="url(#clip0_1654_58)"><mask id="path-1-outside-1_1654_58" maskUnits="userSpaceOnUse" x="-1" y="0" width="47" height="47" fill="black"><rect fill="white" x="-1" width="47" height="47"></rect><path d="M31.9772 23.4166H25.3424C24.9541 23.4166 24.6393 23.7314 24.6393 24.1197V45.2968C24.6393 45.6851 24.9541 45.9999 25.3424 45.9999H31.9772C32.3655 45.9999 32.6803 45.6851 32.6803 45.2968V24.1197C32.6803 23.7314 32.3655 23.4166 31.9772 23.4166ZM31.274 44.5937H26.0455V24.8228H31.274V44.5937ZM19.6574 26.182H13.0227C12.6344 26.182 12.3195 26.4968 12.3195 26.8851V45.2969C12.3195 45.6852 12.6344 46 13.0227 46H19.6574C20.0457 46 20.3606 45.6852 20.3606 45.2969V26.8851C20.3606 26.4967 20.0458 26.182 19.6574 26.182ZM18.9543 44.5938H13.7258V27.5882H18.9543V44.5938ZM7.3379 14.7134H0.703125C0.314824 14.7134 0 15.0282 0 15.4165V45.2967C0 45.685 0.314824 45.9998 0.703125 45.9998H7.3379C7.7262 45.9998 8.04103 45.685 8.04103 45.2967V15.4165C8.04103 15.0281 7.7262 14.7134 7.3379 14.7134ZM6.63478 44.5936H1.40625V16.1196H6.63478V44.5936ZM44.2969 31.6312H37.6622C37.2739 31.6312 36.9591 31.946 36.9591 32.3343V45.2967C36.9591 45.685 37.2739 45.9998 37.6622 45.9998H44.2969C44.6852 45.9998 45 45.685 45 45.2967V32.3343C45 31.9459 44.6852 31.6312 44.2969 31.6312ZM43.5938 44.5936H38.3653V33.0375H43.5938V44.5936ZM37.1885 25.8233C36.8017 25.7883 36.5165 25.4464 36.5516 25.0597C36.5866 24.673 36.9295 24.3878 37.3152 24.4229L38.6586 24.5444L28.5219 16.6514L16.5567 20.5293C16.3043 20.6111 16.0275 20.5439 15.8407 20.3554L3.52125 7.93079C3.24782 7.65499 3.24976 7.20982 3.52547 6.93648C3.80118 6.66314 4.24644 6.6649 4.51978 6.9407L16.5347 19.0583L28.443 15.1986C28.6647 15.1267 28.9078 15.1695 29.0918 15.3127L39.6578 23.5401L39.0987 21.7094C38.9852 21.338 39.1943 20.945 39.5657 20.8316C39.9371 20.718 40.3301 20.9272 40.4436 21.2986L41.6521 25.255C41.7204 25.4789 41.6729 25.7221 41.5253 25.9037C41.3911 26.0689 41.1902 26.1635 40.9797 26.1635C40.9586 26.1635 40.9375 26.1626 40.9163 26.1606L37.1885 25.8233ZM20.6241 10.2028C20.7308 10.0795 20.7682 9.94138 20.7456 9.75522C20.7062 9.43021 20.5035 9.03127 19.2758 8.82982C17.3217 8.50894 16.8648 7.4807 16.8258 6.67475C16.7725 5.57893 17.5163 4.66152 18.6807 4.37289V4.0738C18.6807 3.6855 18.9955 3.37067 19.3838 3.37067C19.7721 3.37067 20.087 3.6855 20.087 4.0738V4.36489C20.8419 4.54305 21.5565 5.02943 21.9328 5.92574C22.083 6.28381 21.9147 6.69593 21.5567 6.84622C21.1984 6.99651 20.7865 6.82811 20.6362 6.47014C20.3445 5.77554 19.6294 5.59738 19.0499 5.72869C18.9075 5.76103 18.1986 5.9551 18.2303 6.60646C18.2386 6.77925 18.2609 7.23795 19.5035 7.44203C21.1133 7.70623 22.001 8.42746 22.1415 9.58568C22.212 10.1663 22.055 10.6978 21.6875 11.1226C21.3207 11.5467 20.7459 11.8458 20.0869 11.9703V12.2446C20.0869 12.6329 19.7721 12.9477 19.3838 12.9477C18.9954 12.9477 18.6806 12.6329 18.6806 12.2446V11.9587C17.6563 11.7354 16.8722 11.0356 16.6304 10.0658C16.5364 9.68904 16.7658 9.30742 17.1425 9.21347C17.5197 9.11942 17.9009 9.34882 17.9949 9.72561C18.1665 10.4136 18.8863 10.6415 19.4513 10.6284C19.9427 10.6167 20.414 10.4457 20.6241 10.2028ZM19.3838 15.3183C23.3314 15.3183 26.543 12.1067 26.543 8.15913C26.543 4.21152 23.3314 1 19.3838 1C15.4361 1 12.2245 4.21161 12.2245 8.15922C12.2245 12.1068 15.4362 15.3183 19.3838 15.3183ZM19.3838 2.40625C22.556 2.40625 25.1367 4.98698 25.1367 8.15922C25.1367 11.3315 22.556 13.9122 19.3838 13.9122C16.2115 13.9122 13.6308 11.3315 13.6308 8.15922C13.6308 4.98698 16.2116 2.40625 19.3838 2.40625Z"></path></mask><path d="M31.9772 23.4166H25.3424C24.9541 23.4166 24.6393 23.7314 24.6393 24.1197V45.2968C24.6393 45.6851 24.9541 45.9999 25.3424 45.9999H31.9772C32.3655 45.9999 32.6803 45.6851 32.6803 45.2968V24.1197C32.6803 23.7314 32.3655 23.4166 31.9772 23.4166ZM31.274 44.5937H26.0455V24.8228H31.274V44.5937ZM19.6574 26.182H13.0227C12.6344 26.182 12.3195 26.4968 12.3195 26.8851V45.2969C12.3195 45.6852 12.6344 46 13.0227 46H19.6574C20.0457 46 20.3606 45.6852 20.3606 45.2969V26.8851C20.3606 26.4967 20.0458 26.182 19.6574 26.182ZM18.9543 44.5938H13.7258V27.5882H18.9543V44.5938ZM7.3379 14.7134H0.703125C0.314824 14.7134 0 15.0282 0 15.4165V45.2967C0 45.685 0.314824 45.9998 0.703125 45.9998H7.3379C7.7262 45.9998 8.04103 45.685 8.04103 45.2967V15.4165C8.04103 15.0281 7.7262 14.7134 7.3379 14.7134ZM6.63478 44.5936H1.40625V16.1196H6.63478V44.5936ZM44.2969 31.6312H37.6622C37.2739 31.6312 36.9591 31.946 36.9591 32.3343V45.2967C36.9591 45.685 37.2739 45.9998 37.6622 45.9998H44.2969C44.6852 45.9998 45 45.685 45 45.2967V32.3343C45 31.9459 44.6852 31.6312 44.2969 31.6312ZM43.5938 44.5936H38.3653V33.0375H43.5938V44.5936ZM37.1885 25.8233C36.8017 25.7883 36.5165 25.4464 36.5516 25.0597C36.5866 24.673 36.9295 24.3878 37.3152 24.4229L38.6586 24.5444L28.5219 16.6514L16.5567 20.5293C16.3043 20.6111 16.0275 20.5439 15.8407 20.3554L3.52125 7.93079C3.24782 7.65499 3.24976 7.20982 3.52547 6.93648C3.80118 6.66314 4.24644 6.6649 4.51978 6.9407L16.5347 19.0583L28.443 15.1986C28.6647 15.1267 28.9078 15.1695 29.0918 15.3127L39.6578 23.5401L39.0987 21.7094C38.9852 21.338 39.1943 20.945 39.5657 20.8316C39.9371 20.718 40.3301 20.9272 40.4436 21.2986L41.6521 25.255C41.7204 25.4789 41.6729 25.7221 41.5253 25.9037C41.3911 26.0689 41.1902 26.1635 40.9797 26.1635C40.9586 26.1635 40.9375 26.1626 40.9163 26.1606L37.1885 25.8233ZM20.6241 10.2028C20.7308 10.0795 20.7682 9.94138 20.7456 9.75522C20.7062 9.43021 20.5035 9.03127 19.2758 8.82982C17.3217 8.50894 16.8648 7.4807 16.8258 6.67475C16.7725 5.57893 17.5163 4.66152 18.6807 4.37289V4.0738C18.6807 3.6855 18.9955 3.37067 19.3838 3.37067C19.7721 3.37067 20.087 3.6855 20.087 4.0738V4.36489C20.8419 4.54305 21.5565 5.02943 21.9328 5.92574C22.083 6.28381 21.9147 6.69593 21.5567 6.84622C21.1984 6.99651 20.7865 6.82811 20.6362 6.47014C20.3445 5.77554 19.6294 5.59738 19.0499 5.72869C18.9075 5.76103 18.1986 5.9551 18.2303 6.60646C18.2386 6.77925 18.2609 7.23795 19.5035 7.44203C21.1133 7.70623 22.001 8.42746 22.1415 9.58568C22.212 10.1663 22.055 10.6978 21.6875 11.1226C21.3207 11.5467 20.7459 11.8458 20.0869 11.9703V12.2446C20.0869 12.6329 19.7721 12.9477 19.3838 12.9477C18.9954 12.9477 18.6806 12.6329 18.6806 12.2446V11.9587C17.6563 11.7354 16.8722 11.0356 16.6304 10.0658C16.5364 9.68904 16.7658 9.30742 17.1425 9.21347C17.5197 9.11942 17.9009 9.34882 17.9949 9.72561C18.1665 10.4136 18.8863 10.6415 19.4513 10.6284C19.9427 10.6167 20.414 10.4457 20.6241 10.2028ZM19.3838 15.3183C23.3314 15.3183 26.543 12.1067 26.543 8.15913C26.543 4.21152 23.3314 1 19.3838 1C15.4361 1 12.2245 4.21161 12.2245 8.15922C12.2245 12.1068 15.4362 15.3183 19.3838 15.3183ZM19.3838 2.40625C22.556 2.40625 25.1367 4.98698 25.1367 8.15922C25.1367 11.3315 22.556 13.9122 19.3838 13.9122C16.2115 13.9122 13.6308 11.3315 13.6308 8.15922C13.6308 4.98698 16.2116 2.40625 19.3838 2.40625Z" fill="#047BDC"></path><path d="M31.9772 23.4166H25.3424C24.9541 23.4166 24.6393 23.7314 24.6393 24.1197V45.2968C24.6393 45.6851 24.9541 45.9999 25.3424 45.9999H31.9772C32.3655 45.9999 32.6803 45.6851 32.6803 45.2968V24.1197C32.6803 23.7314 32.3655 23.4166 31.9772 23.4166ZM31.274 44.5937H26.0455V24.8228H31.274V44.5937ZM19.6574 26.182H13.0227C12.6344 26.182 12.3195 26.4968 12.3195 26.8851V45.2969C12.3195 45.6852 12.6344 46 13.0227 46H19.6574C20.0457 46 20.3606 45.6852 20.3606 45.2969V26.8851C20.3606 26.4967 20.0458 26.182 19.6574 26.182ZM18.9543 44.5938H13.7258V27.5882H18.9543V44.5938ZM7.3379 14.7134H0.703125C0.314824 14.7134 0 15.0282 0 15.4165V45.2967C0 45.685 0.314824 45.9998 0.703125 45.9998H7.3379C7.7262 45.9998 8.04103 45.685 8.04103 45.2967V15.4165C8.04103 15.0281 7.7262 14.7134 7.3379 14.7134ZM6.63478 44.5936H1.40625V16.1196H6.63478V44.5936ZM44.2969 31.6312H37.6622C37.2739 31.6312 36.9591 31.946 36.9591 32.3343V45.2967C36.9591 45.685 37.2739 45.9998 37.6622 45.9998H44.2969C44.6852 45.9998 45 45.685 45 45.2967V32.3343C45 31.9459 44.6852 31.6312 44.2969 31.6312ZM43.5938 44.5936H38.3653V33.0375H43.5938V44.5936ZM37.1885 25.8233C36.8017 25.7883 36.5165 25.4464 36.5516 25.0597C36.5866 24.673 36.9295 24.3878 37.3152 24.4229L38.6586 24.5444L28.5219 16.6514L16.5567 20.5293C16.3043 20.6111 16.0275 20.5439 15.8407 20.3554L3.52125 7.93079C3.24782 7.65499 3.24976 7.20982 3.52547 6.93648C3.80118 6.66314 4.24644 6.6649 4.51978 6.9407L16.5347 19.0583L28.443 15.1986C28.6647 15.1267 28.9078 15.1695 29.0918 15.3127L39.6578 23.5401L39.0987 21.7094C38.9852 21.338 39.1943 20.945 39.5657 20.8316C39.9371 20.718 40.3301 20.9272 40.4436 21.2986L41.6521 25.255C41.7204 25.4789 41.6729 25.7221 41.5253 25.9037C41.3911 26.0689 41.1902 26.1635 40.9797 26.1635C40.9586 26.1635 40.9375 26.1626 40.9163 26.1606L37.1885 25.8233ZM20.6241 10.2028C20.7308 10.0795 20.7682 9.94138 20.7456 9.75522C20.7062 9.43021 20.5035 9.03127 19.2758 8.82982C17.3217 8.50894 16.8648 7.4807 16.8258 6.67475C16.7725 5.57893 17.5163 4.66152 18.6807 4.37289V4.0738C18.6807 3.6855 18.9955 3.37067 19.3838 3.37067C19.7721 3.37067 20.087 3.6855 20.087 4.0738V4.36489C20.8419 4.54305 21.5565 5.02943 21.9328 5.92574C22.083 6.28381 21.9147 6.69593 21.5567 6.84622C21.1984 6.99651 20.7865 6.82811 20.6362 6.47014C20.3445 5.77554 19.6294 5.59738 19.0499 5.72869C18.9075 5.76103 18.1986 5.9551 18.2303 6.60646C18.2386 6.77925 18.2609 7.23795 19.5035 7.44203C21.1133 7.70623 22.001 8.42746 22.1415 9.58568C22.212 10.1663 22.055 10.6978 21.6875 11.1226C21.3207 11.5467 20.7459 11.8458 20.0869 11.9703V12.2446C20.0869 12.6329 19.7721 12.9477 19.3838 12.9477C18.9954 12.9477 18.6806 12.6329 18.6806 12.2446V11.9587C17.6563 11.7354 16.8722 11.0356 16.6304 10.0658C16.5364 9.68904 16.7658 9.30742 17.1425 9.21347C17.5197 9.11942 17.9009 9.34882 17.9949 9.72561C18.1665 10.4136 18.8863 10.6415 19.4513 10.6284C19.9427 10.6167 20.414 10.4457 20.6241 10.2028ZM19.3838 15.3183C23.3314 15.3183 26.543 12.1067 26.543 8.15913C26.543 4.21152 23.3314 1 19.3838 1C15.4361 1 12.2245 4.21161 12.2245 8.15922C12.2245 12.1068 15.4362 15.3183 19.3838 15.3183ZM19.3838 2.40625C22.556 2.40625 25.1367 4.98698 25.1367 8.15922C25.1367 11.3315 22.556 13.9122 19.3838 13.9122C16.2115 13.9122 13.6308 11.3315 13.6308 8.15922C13.6308 4.98698 16.2116 2.40625 19.3838 2.40625Z" stroke="#047BDC" stroke-width="0.6" mask="url(#path-1-outside-1_1654_58)"></path></g><defs><clipPath id="clip0_1654_58"><rect width="45" height="47" fill="white"></rect></clipPath></defs></svg>