<svg xmlns="http://www.w3.org/2000/svg" width="57" height="62" viewBox="0 0 57 62" fill="none"><path d="M56.9911 10.7267C56.5285 -3.47718 -1.44614 -4.02442 0.13132 11.7847V43.0501C0.0482955 43.4028 0.000853132 43.7555 0.000853132 44.1081C-0.0584499 46.9051 2.97787 49.8724 7.88816 51.5992C8.23212 51.6114 8.54049 51.2952 8.54049 50.9304V37.7602C12.3715 36.2887 17.4004 35.2672 22.8325 34.8537C22.88 35.024 22.9274 35.1942 22.9867 35.3645C21.5279 36.3738 22.7021 39.1344 24.4456 38.4534C24.8133 39.1952 24.6472 40.168 25.5723 40.3748L25.3233 41.4084C16.0483 43.3177 17.1632 49.1427 17.175 56.9621C17.092 60.0753 18.2425 62.2034 21.4211 61.9846C23.7577 61.9846 26.1654 61.9845 28.5019 61.9967C30.8384 61.9845 33.2462 61.9846 35.5827 61.9846C38.7495 62.2034 39.9118 60.0753 39.8288 56.9621C39.8407 49.1306 40.9437 43.3177 31.6568 41.4084L31.3603 40.2775C32.0126 40.0221 31.9296 39.0006 32.321 38.4412C33.9934 39.1222 35.2032 36.6171 33.9697 35.4739C34.0408 35.2672 34.1001 35.0605 34.1476 34.8537C39.5916 35.2672 44.6323 36.2887 48.4633 37.7602V50.9304C48.4515 51.3803 48.9496 51.733 49.3529 51.5506C54.2869 49.5683 56.9911 46.9294 56.9911 44.1081C57.003 44.096 57.003 10.7388 56.9911 10.7267ZM7.24769 49.9453C3.15578 48.0239 0.866678 46.0417 1.41227 43.3177C1.48343 43.1839 1.41227 14.3871 1.43599 14.229C2.93042 15.9558 5.16022 17.1476 7.24769 18.0353V49.9453ZM23.9118 37.2251C23.8407 37.2616 23.6153 36.9211 23.6391 36.7265C23.7339 36.8846 23.8525 37.0427 23.9356 37.2251H23.9118ZM38.5478 52.7058L38.5241 56.9743C38.5241 60.3672 37.6227 60.8293 34.5983 60.6712V57.2905C34.5983 56.9256 34.3017 56.6216 33.9459 56.6216C33.5901 56.6216 33.2936 56.9256 33.2936 57.2905V60.6712C30.0912 60.6712 26.8889 60.6712 23.6865 60.6712V57.2905C23.6865 56.9256 23.39 56.6216 23.0342 56.6216C22.6783 56.6216 22.3818 56.9256 22.3818 57.2905V60.6712C19.3337 60.7928 18.4915 60.4036 18.456 56.9743C18.5034 54.4327 18.2306 50.7966 18.7169 48.3401C25.0505 50.2858 31.9178 50.2858 38.2513 48.3401C38.5597 49.7386 38.5478 51.2465 38.5478 52.7058ZM36.8992 45.3972C37.3143 45.8715 37.6464 46.4309 37.8955 47.0511C31.7992 48.9117 25.2165 48.936 19.1083 47.0511C20.1758 44.2905 22.9393 43.3177 25.7384 42.6853C27.3751 43.8528 29.6524 43.8649 31.2773 42.6853C33.4122 43.1839 35.5471 43.8649 36.8992 45.3972ZM26.6042 41.6881L26.8177 40.8004C27.9089 41.0436 29.0475 41.0193 30.1268 40.7396L30.3759 41.7125C29.2728 42.4299 27.7191 42.4421 26.6042 41.6881ZM32.9734 34.0633C32.8903 35.0848 32.321 36.0212 31.728 36.8116C31.728 36.7995 31.7399 36.7995 31.7399 36.7873C31.2654 37.517 30.8859 38.3317 30.6487 39.1587C29.178 39.791 27.5056 39.8032 26.0468 39.1587C25.7147 37.8331 25.1098 36.6049 24.4337 35.4496C23.7458 34.1606 23.6391 32.0568 24.5523 31.0717C25.0861 30.4394 25.8689 30.2691 26.4263 30.2448C26.5568 30.2326 26.6872 30.184 26.794 30.0989C29.6287 27.764 33.5189 30.5123 32.9734 34.0633ZM55.6983 44.1081C55.6983 46.1512 53.5515 48.255 49.768 49.9332C49.768 42.4786 49.768 25.6115 49.768 18.011C51.9385 17.0746 54.1564 15.895 55.6983 14.0466V44.1081ZM48.8784 16.9408C48.6294 17.0381 48.4633 17.2935 48.4633 17.561V36.3252C44.5612 34.8902 39.6983 33.9295 34.3017 33.5161C34.4322 29.1625 29.6642 26.2317 26.1535 28.9193C23.9237 29.0165 22.37 31.1569 22.5953 33.5282C17.3173 33.9417 12.3833 34.9267 8.54049 36.3252V17.561C8.54049 17.2813 8.37445 17.0381 8.12537 16.9408C-9.45206 9.31601 10.3196 0.985842 28.5019 1.2777C46.7198 0.985842 66.4084 9.31601 48.8784 16.9408ZM17.6613 30.0502C15.2892 30.3786 13.1187 30.9015 11.0668 31.4122C10.3314 31.4244 10.1773 30.2934 10.9008 30.0989C12.9171 29.5395 15.135 29.0774 17.4834 28.7247C18.3255 28.6152 18.5034 29.9164 17.6613 30.0502ZM15.1587 32.3608C15.2299 32.7256 14.9927 33.0661 14.6487 33.1391C13.3915 33.3701 12.2173 33.7106 11.0668 33.9782C10.3314 33.9903 10.1773 32.8594 10.9008 32.6648C12.0157 32.3608 13.1899 32.0689 14.3996 31.8257C14.7436 31.7649 15.0876 32.0081 15.1587 32.3608ZM47.2061 31.0109C47.0994 31.3636 46.7198 31.5582 46.3877 31.4487C44.6205 30.8772 42.6516 30.3786 40.5404 29.9894C40.1846 29.9286 39.9474 29.5759 40.0186 29.2111C40.0897 28.8463 40.4218 28.6152 40.7776 28.676C42.9481 29.0774 44.9644 29.5881 46.791 30.184C47.1231 30.2813 47.3128 30.6583 47.2061 31.0109ZM29.8659 22.5227V20.3824C29.8659 20.0175 29.5694 19.7135 29.2135 19.7135H27.1498C26.794 19.7135 26.4975 20.0175 26.4975 20.3824V21.0755H25.5842C25.6316 20.6621 25.3588 20.2608 24.9319 20.2608H22.0853V17.561H23.6272C23.983 17.561 24.2795 17.257 24.2795 16.8922V15.968H25.3707C25.7265 15.968 26.023 15.664 26.023 15.2991V14.1074H28.7391C29.0949 14.1074 29.3915 13.8034 29.3915 13.4385V10.9699C29.9845 11.0672 30.447 10.3983 30.0556 9.88757C27.9919 7.21219 24.8607 5.67992 21.5516 5.66776C15.6924 5.60696 10.5924 10.7753 10.6873 16.8071C10.5924 22.8267 15.6806 28.0194 21.5516 27.9464C24.9556 27.9342 28.1342 26.3412 30.1743 23.5685C30.4589 23.2158 30.281 22.6443 29.8659 22.5227ZM24.7302 14.6425H23.6391C23.2832 14.6425 22.9867 14.9465 22.9867 15.3113V16.2355H21.4448C21.089 16.2355 20.7925 16.5395 20.7925 16.9044V19.7257H17.4953C17.2106 17.8529 17.2106 15.7612 17.4953 13.8885H24.7302V14.6425ZM28.2766 9.83892C28.158 9.96053 28.0868 10.1186 28.0868 10.301V12.7818H26.7703C26.4026 10.9212 25.8095 9.07279 24.6946 7.55269C26.0349 8.0148 27.2565 8.79309 28.2766 9.83892ZM21.5634 7.00545C23.8881 7.22435 24.92 10.5686 25.4063 12.5629H17.7206C18.4322 9.2552 19.9623 7.00545 21.5634 7.00545ZM18.4085 7.56485C17.519 8.75661 16.8073 10.4713 16.3922 12.5629H12.9526C14.0557 10.1916 16.0364 8.41611 18.4085 7.56485ZM12.4308 13.8885H16.1669C15.9178 15.7734 15.9178 17.8407 16.1669 19.7257H12.4426C11.8496 17.8529 11.8496 15.7612 12.4308 13.8885ZM12.9408 21.0512H16.3804C16.7955 23.1429 17.5071 24.8454 18.3967 26.0371C16.0364 25.198 14.0557 23.4104 12.9408 21.0512ZM17.7206 21.0512H20.8162C20.8755 21.3552 21.1246 21.5984 21.4448 21.5984H24.2914C24.2321 22.0606 24.576 22.4619 25.0386 22.4132C22.9986 28.822 19.1083 27.4356 17.7206 21.0512ZM24.7065 26.0615C25.3944 25.1372 25.9756 23.909 26.4026 22.4132H27.1617C27.5175 22.4132 27.814 22.1092 27.814 21.7444V21.0512H28.5731C28.5968 21.2093 28.5256 23.3374 28.6205 23.4104C27.5412 24.6386 26.2009 25.5386 24.7065 26.0615ZM34.9066 15.3721C34.9066 15.0073 34.6101 14.7033 34.2543 14.7033H31.4552C31.0994 14.7033 30.8029 15.0073 30.8029 15.3721V18.2421C30.8029 18.6069 31.0994 18.9109 31.4552 18.9109C35.6301 18.8379 34.8355 19.6406 34.9066 15.3721ZM32.1075 16.0288H33.6138V17.5732H32.1075V16.0288ZM42.2009 19.6284C42.2721 23.909 41.4893 23.0942 45.6524 23.1672C46.0082 23.1672 46.3047 22.8632 46.3047 22.4983V19.6284C46.3047 19.2636 46.0082 18.9595 45.6524 18.9595H42.8532C42.4856 18.9595 42.2009 19.2636 42.2009 19.6284ZM43.5056 20.2972H45.0119V21.8417H43.5056V20.2972ZM33.4478 13.5723C36.4604 13.5601 36.0453 13.9736 36.069 10.8848C36.069 10.5199 35.7725 10.2159 35.4166 10.2159H33.4478C33.092 10.2159 32.7955 10.5199 32.7955 10.8848V12.9035C32.8073 13.2804 33.092 13.5723 33.4478 13.5723ZM34.1001 11.5536H34.7643V12.2346H34.1001V11.5536ZM28.1817 15.7248H26.5686C26.2128 15.7248 25.9163 16.0288 25.9163 16.3936V18.0475C25.9163 18.4123 26.2128 18.7163 26.5686 18.7163H28.1817C28.5375 18.7163 28.834 18.4123 28.834 18.0475V16.3936C28.834 16.0166 28.5375 15.7248 28.1817 15.7248ZM27.5293 17.3786H27.2091V17.0503H27.5293V17.3786ZM33.4596 7.83239H35.0727C35.4285 7.83239 35.725 7.52837 35.725 7.16354V5.50967C35.725 5.14485 35.4285 4.84082 35.0727 4.84082H33.4596C33.1038 4.84082 32.8073 5.14485 32.8073 5.50967V7.16354C32.8073 7.52837 33.092 7.83239 33.4596 7.83239ZM34.1001 6.17852H34.4204V6.50686H34.1001V6.17852ZM43.5056 14.0587V10.5807C43.5056 10.2159 43.2091 9.91189 42.8532 9.91189H39.473C39.1172 9.91189 38.8206 10.2159 38.8206 10.5807V14.0466C38.8206 14.4114 39.1172 14.7154 39.473 14.7154H42.8532C43.2091 14.7154 43.5056 14.4236 43.5056 14.0587ZM42.2009 13.3899H40.1134V11.2496H42.2009V13.3899ZM38.7969 17.938H36.4011C36.0453 17.938 35.7487 18.2421 35.7487 18.6069C35.7962 22.3038 35.2032 21.6836 38.7969 21.7322C39.1527 21.7322 39.4493 21.4282 39.4493 21.0634V18.6069C39.4374 18.2299 39.1527 17.938 38.7969 17.938ZM38.1446 20.3945H37.0415V19.2636H38.1446V20.3945ZM34.4204 21.6471C31.0757 21.6836 31.5975 21.1485 31.5619 24.5778C31.5619 24.9427 31.8585 25.2467 32.2143 25.2467H34.4204C34.7762 25.2467 35.0727 24.9427 35.0727 24.5778V22.3159C35.0727 21.9389 34.788 21.6471 34.4204 21.6471ZM33.768 23.909H32.8548V22.9726H33.768V23.909Z" fill="#0369CA"></path></svg>