<svg xmlns="http://www.w3.org/2000/svg" width="46" height="54" viewBox="0 0 46 54" fill="none"><mask id="path-1-outside-1_1589_188" maskUnits="userSpaceOnUse" x="-0.570312" y="-0.492188" width="47" height="54" fill="black"><rect fill="white" x="-0.570312" y="-0.492188" width="47" height="54"></rect><path d="M43.6867 34.6154C42.3031 33.7983 40.5499 33.8839 38.9912 34.8433L29.6908 39.91C29.6554 39.9293 29.6216 39.9515 29.5898 39.9762C29.4348 40.0941 29.2638 40.1895 29.0821 40.2596C29.39 39.8593 29.5694 39.375 29.5965 38.8707C29.6466 37.6878 28.8191 36.5577 27.137 35.5137C23.5939 33.3139 16.6527 31.8658 13.9032 33.3745C13.8942 33.3794 13.8853 33.3844 13.8766 33.3898L7.84648 37.033L7.72618 36.8248C7.38382 36.2347 6.82162 35.8042 6.16263 35.6276C5.50364 35.451 4.80153 35.5427 4.20997 35.8826L1.71476 37.3233C1.12464 37.6657 0.694181 38.2279 0.517596 38.8869C0.341011 39.5458 0.432685 40.248 0.772553 40.8395L6.86667 51.3953C7.20828 51.9862 7.77048 52.4173 8.42976 52.594C9.08904 52.7706 9.79148 52.6783 10.3828 52.3374L12.8782 50.8967C13.4515 50.5647 13.875 50.0247 14.0607 49.3887C14.2463 48.7527 14.1799 48.0697 13.8752 47.4814L14.4224 47.1279C14.478 47.146 14.5443 47.1665 14.6216 47.1878L23.5659 49.6449C24.3024 49.9085 25.0778 50.0467 25.86 50.0538C26.9883 50.0524 28.0924 49.727 29.041 49.1161L42.8385 40.796C44.9777 39.7995 45.3648 38.3696 45.4045 37.6031C45.466 36.4224 44.8076 35.2775 43.6867 34.6154ZM12.1389 49.6162L9.64345 51.0569C9.39174 51.2018 9.09282 51.2409 8.8123 51.1657C8.53178 51.0905 8.29257 50.907 8.14717 50.6556L2.05306 40.0998C1.90931 39.8478 1.87083 39.5492 1.94598 39.269C2.02113 38.9888 2.20385 38.7496 2.4544 38.6034L4.94982 37.1627C5.1147 37.0675 5.30179 37.0175 5.49216 37.0179C5.5896 37.018 5.68661 37.0308 5.78071 37.0561C5.91972 37.0926 6.05011 37.1564 6.16432 37.2436C6.27853 37.3309 6.37431 37.4399 6.4461 37.5644L12.5402 48.1201C12.6851 48.3718 12.7242 48.6706 12.6491 48.9511C12.5739 49.2315 12.3906 49.4707 12.1393 49.6162H12.1389ZM43.9283 37.5267C43.8892 38.2816 43.2696 38.9717 42.1836 39.4701C42.1584 39.4816 42.1339 39.4946 42.1102 39.5089L28.272 47.8534L28.2597 47.8609C26.9829 48.665 25.599 48.7891 24.03 48.2412C24.014 48.2357 23.9983 48.2306 23.9818 48.2262L15.0138 45.7625C14.917 45.7359 14.8489 45.7121 14.7887 45.6909C14.3053 45.5219 14.0521 45.6074 13.6335 45.878L13.1379 46.1982L8.5858 38.3143L14.6271 34.6645C16.6726 33.5603 23.0187 34.6979 26.3569 36.7704C27.5016 37.4811 28.1439 38.2239 28.1191 38.8088C28.0966 39.3403 27.502 39.9351 26.4442 40.4903C24.9991 40.367 22.9899 39.9448 20.1926 39.0234C20.0063 38.9621 19.8033 38.9772 19.6282 39.0656C19.4531 39.1539 19.3202 39.3082 19.2589 39.4944C19.1975 39.6807 19.2127 39.8837 19.301 40.0588C19.3893 40.2339 19.5436 40.3668 19.7299 40.4281C25.2038 42.2312 28.7113 42.4785 30.4475 41.1827L39.7161 36.1332C39.7284 36.1266 39.7404 36.1196 39.7523 36.1121C41.3192 35.1404 42.4998 35.6325 42.9346 35.8893C43.5802 36.2697 43.9609 36.8975 43.9283 37.5267ZM6.19821 40.744C6.24826 40.8282 6.2811 40.9214 6.29482 41.0183C6.30855 41.1153 6.30288 41.214 6.27816 41.3087C6.25345 41.4034 6.21016 41.4923 6.15082 41.5701C6.09148 41.648 6.01727 41.7133 5.93249 41.7622C5.84772 41.8112 5.75406 41.8428 5.65697 41.8553C5.55987 41.8678 5.46126 41.8608 5.36687 41.8349C5.27247 41.8089 5.18417 41.7645 5.10709 41.7042C5.03 41.6438 4.96567 41.5688 4.91782 41.4834L4.02926 39.9445C3.97921 39.8604 3.94638 39.7671 3.93265 39.6702C3.91893 39.5733 3.92459 39.4746 3.94931 39.3799C3.97403 39.2852 4.01731 39.1963 4.07665 39.1184C4.13599 39.0406 4.2102 38.9753 4.29498 38.9263C4.37976 38.8774 4.47341 38.8457 4.57051 38.8333C4.66761 38.8208 4.76621 38.8277 4.86061 38.8537C4.955 38.8796 5.0433 38.9241 5.12039 38.9844C5.19747 39.0447 5.26181 39.1198 5.30966 39.2052L6.19821 40.744ZM9.15708 19.7435C9.20037 19.6566 9.26036 19.5791 9.33362 19.5154C9.40687 19.4517 9.49196 19.403 9.58402 19.3722C9.67608 19.3413 9.77332 19.3289 9.87017 19.3357C9.96703 19.3424 10.0616 19.3682 10.1485 19.4115L10.9994 19.8357C10.06 17.0927 9.95952 14.1319 10.7107 11.3314C12.7946 3.55485 20.8172 -1.07689 28.5937 1.00705C31.0308 1.65949 33.2573 2.93228 35.0561 4.70133C35.126 4.7693 35.1818 4.85044 35.2203 4.94007C35.2587 5.0297 35.279 5.12605 35.28 5.22357C35.2811 5.32108 35.2628 5.41784 35.2263 5.50827C35.1898 5.5987 35.1357 5.68101 35.0673 5.75046C34.9988 5.81991 34.9173 5.87513 34.8274 5.91294C34.7375 5.95075 34.641 5.9704 34.5435 5.97076C34.446 5.97112 34.3493 5.95218 34.2592 5.91504C34.169 5.87789 34.0871 5.82327 34.0181 5.75433C31.9218 3.69243 29.1938 2.39427 26.2716 2.06804C23.3494 1.7418 20.4022 2.40639 17.9029 3.95522C15.4035 5.50405 13.4966 7.84739 12.4882 10.6094C11.4797 13.3714 11.428 16.3921 12.3414 19.187L12.5721 18.4154C12.6283 18.2275 12.7568 18.0697 12.9293 17.9765C13.1019 17.8834 13.3044 17.8626 13.4922 17.9188C13.6801 17.975 13.838 18.1034 13.9311 18.276C14.0242 18.4486 14.045 18.6511 13.9889 18.8389L13.1636 21.5998C13.1327 21.703 13.0796 21.7983 13.008 21.8789C12.9364 21.9595 12.8481 22.0235 12.7492 22.0664C12.6503 22.1093 12.5432 22.13 12.4354 22.1271C12.3277 22.1242 12.2218 22.0978 12.1253 22.0497L9.48882 20.7351C9.40194 20.6917 9.32443 20.6317 9.26074 20.5585C9.19704 20.4852 9.1484 20.4001 9.1176 20.308C9.08679 20.2159 9.07442 20.1187 9.0812 20.0218C9.08797 19.925 9.11376 19.8304 9.15708 19.7435ZM35.6097 11.3229L36.4351 8.56195C36.466 8.45866 36.5191 8.36337 36.5907 8.28276C36.6623 8.20216 36.7507 8.13818 36.8496 8.09533C36.9485 8.05247 37.0556 8.03177 37.1634 8.03467C37.2712 8.03757 37.377 8.06401 37.4735 8.11213L40.11 9.42685C40.2839 9.51526 40.4158 9.66883 40.477 9.85409C40.5381 10.0393 40.5236 10.2413 40.4365 10.4158C40.3495 10.5904 40.1969 10.7235 40.0121 10.7861C39.8274 10.8487 39.6253 10.8357 39.4501 10.75L38.6123 10.3323C39.5688 13.0899 39.6755 16.0711 38.9186 18.8899C37.1728 25.4057 31.2576 29.7138 24.8114 29.7138C20.9559 29.7104 17.2575 28.1849 14.5208 25.469C14.3841 25.3302 14.3077 25.1431 14.3082 24.9483C14.3087 24.7534 14.3861 24.5667 14.5236 24.4286C14.6611 24.2905 14.8475 24.2123 15.0423 24.2109C15.2371 24.2095 15.4246 24.2851 15.564 24.4212C17.6591 26.5023 20.3948 27.8161 23.3289 28.15C26.2629 28.484 29.2239 27.8187 31.7331 26.2616C34.2423 24.7046 36.153 22.3468 37.1564 19.5695C38.1598 16.7922 38.1972 13.7576 37.2626 10.9564L37.0264 11.7464C36.9702 11.9343 36.8417 12.0922 36.6692 12.1853C36.4966 12.2784 36.2941 12.2992 36.1063 12.243C35.9184 12.1869 35.7605 12.0584 35.6674 11.8858C35.5742 11.7133 35.5536 11.5108 35.6097 11.3229ZM28.94 9.93761C28.94 9.12503 28.6991 8.33069 28.2476 7.65505C27.7962 6.97941 27.1545 6.45281 26.4038 6.14185C25.653 5.83088 24.827 5.74952 24.03 5.90805C23.233 6.06658 22.5009 6.45788 21.9264 7.03246C21.3518 7.60705 20.9605 8.33911 20.802 9.13608C20.6434 9.93306 20.7248 10.7591 21.0357 11.5099C21.3467 12.2606 21.8733 12.9023 22.549 13.3537C23.2246 13.8052 24.0189 14.0461 24.8315 14.0461C25.9207 14.0448 26.965 13.6115 27.7352 12.8413C28.5054 12.0711 28.9387 11.0268 28.94 9.93761ZM22.2008 9.93761C22.2008 9.41748 22.355 8.90902 22.644 8.47654C22.933 8.04406 23.3437 7.70698 23.8243 7.50793C24.3048 7.30889 24.8336 7.2568 25.3437 7.35828C25.8539 7.45975 26.3225 7.71022 26.6903 8.07802C27.0581 8.44581 27.3085 8.91441 27.41 9.42455C27.5115 9.9347 27.4594 10.4635 27.2604 10.944C27.0613 11.4246 26.7242 11.8353 26.2917 12.1243C25.8593 12.4132 25.3508 12.5675 24.8307 12.5675C24.1335 12.5666 23.4651 12.2892 22.9721 11.7962C22.4791 11.3032 22.2017 10.6348 22.2008 9.93761ZM17.4808 20.9627C17.4425 21.2654 17.469 21.5729 17.5587 21.8646C17.6484 22.1563 17.7992 22.4256 18.001 22.6545C18.2028 22.8835 18.451 23.0668 18.7292 23.1924C19.0074 23.318 19.3091 23.3829 19.6142 23.3829H30.0482C30.3533 23.3829 30.655 23.318 30.9332 23.1924C31.2113 23.0668 31.4596 22.8835 31.6614 22.6545C31.8632 22.4256 32.014 22.1563 32.1037 21.8646C32.1934 21.5729 32.2199 21.2654 32.1816 20.9627C31.954 19.174 31.0819 17.5297 29.7288 16.338C28.3757 15.1462 26.6345 14.4887 24.8314 14.4887C23.0283 14.4887 21.287 15.1462 19.9339 16.338C18.5808 17.5297 17.7088 19.174 17.4811 20.9627H17.4808ZM24.8307 15.9676C26.2733 15.9693 27.6659 16.496 28.7486 17.4494C29.8312 18.4028 30.5299 19.7176 30.7141 21.1484C30.726 21.2429 30.7177 21.3388 30.6896 21.4299C30.6616 21.5209 30.6146 21.6049 30.5516 21.6764C30.4886 21.7479 30.4112 21.8051 30.3244 21.8444C30.2376 21.8836 30.1434 21.904 30.0482 21.904H19.6139C19.5186 21.904 19.4244 21.8837 19.3375 21.8445C19.2507 21.8052 19.1732 21.748 19.1102 21.6765C19.0471 21.605 19 21.5209 18.972 21.4298C18.944 21.3387 18.9357 21.2427 18.9476 21.1481C19.1318 19.7175 19.8305 18.4027 20.913 17.4494C21.9956 16.4961 23.3882 15.9694 24.8307 15.9676Z"></path></mask><path d="M43.6867 34.6154C42.3031 33.7983 40.5499 33.8839 38.9912 34.8433L29.6908 39.91C29.6554 39.9293 29.6216 39.9515 29.5898 39.9762C29.4348 40.0941 29.2638 40.1895 29.0821 40.2596C29.39 39.8593 29.5694 39.375 29.5965 38.8707C29.6466 37.6878 28.8191 36.5577 27.137 35.5137C23.5939 33.3139 16.6527 31.8658 13.9032 33.3745C13.8942 33.3794 13.8853 33.3844 13.8766 33.3898L7.84648 37.033L7.72618 36.8248C7.38382 36.2347 6.82162 35.8042 6.16263 35.6276C5.50364 35.451 4.80153 35.5427 4.20997 35.8826L1.71476 37.3233C1.12464 37.6657 0.694181 38.2279 0.517596 38.8869C0.341011 39.5458 0.432685 40.248 0.772553 40.8395L6.86667 51.3953C7.20828 51.9862 7.77048 52.4173 8.42976 52.594C9.08904 52.7706 9.79148 52.6783 10.3828 52.3374L12.8782 50.8967C13.4515 50.5647 13.875 50.0247 14.0607 49.3887C14.2463 48.7527 14.1799 48.0697 13.8752 47.4814L14.4224 47.1279C14.478 47.146 14.5443 47.1665 14.6216 47.1878L23.5659 49.6449C24.3024 49.9085 25.0778 50.0467 25.86 50.0538C26.9883 50.0524 28.0924 49.727 29.041 49.1161L42.8385 40.796C44.9777 39.7995 45.3648 38.3696 45.4045 37.6031C45.466 36.4224 44.8076 35.2775 43.6867 34.6154ZM12.1389 49.6162L9.64345 51.0569C9.39174 51.2018 9.09282 51.2409 8.8123 51.1657C8.53178 51.0905 8.29257 50.907 8.14717 50.6556L2.05306 40.0998C1.90931 39.8478 1.87083 39.5492 1.94598 39.269C2.02113 38.9888 2.20385 38.7496 2.4544 38.6034L4.94982 37.1627C5.1147 37.0675 5.30179 37.0175 5.49216 37.0179C5.5896 37.018 5.68661 37.0308 5.78071 37.0561C5.91972 37.0926 6.05011 37.1564 6.16432 37.2436C6.27853 37.3309 6.37431 37.4399 6.4461 37.5644L12.5402 48.1201C12.6851 48.3718 12.7242 48.6706 12.6491 48.9511C12.5739 49.2315 12.3906 49.4707 12.1393 49.6162H12.1389ZM43.9283 37.5267C43.8892 38.2816 43.2696 38.9717 42.1836 39.4701C42.1584 39.4816 42.1339 39.4946 42.1102 39.5089L28.272 47.8534L28.2597 47.8609C26.9829 48.665 25.599 48.7891 24.03 48.2412C24.014 48.2357 23.9983 48.2306 23.9818 48.2262L15.0138 45.7625C14.917 45.7359 14.8489 45.7121 14.7887 45.6909C14.3053 45.5219 14.0521 45.6074 13.6335 45.878L13.1379 46.1982L8.5858 38.3143L14.6271 34.6645C16.6726 33.5603 23.0187 34.6979 26.3569 36.7704C27.5016 37.4811 28.1439 38.2239 28.1191 38.8088C28.0966 39.3403 27.502 39.9351 26.4442 40.4903C24.9991 40.367 22.9899 39.9448 20.1926 39.0234C20.0063 38.9621 19.8033 38.9772 19.6282 39.0656C19.4531 39.1539 19.3202 39.3082 19.2589 39.4944C19.1975 39.6807 19.2127 39.8837 19.301 40.0588C19.3893 40.2339 19.5436 40.3668 19.7299 40.4281C25.2038 42.2312 28.7113 42.4785 30.4475 41.1827L39.7161 36.1332C39.7284 36.1266 39.7404 36.1196 39.7523 36.1121C41.3192 35.1404 42.4998 35.6325 42.9346 35.8893C43.5802 36.2697 43.9609 36.8975 43.9283 37.5267ZM6.19821 40.744C6.24826 40.8282 6.2811 40.9214 6.29482 41.0183C6.30855 41.1153 6.30288 41.214 6.27816 41.3087C6.25345 41.4034 6.21016 41.4923 6.15082 41.5701C6.09148 41.648 6.01727 41.7133 5.93249 41.7622C5.84772 41.8112 5.75406 41.8428 5.65697 41.8553C5.55987 41.8678 5.46126 41.8608 5.36687 41.8349C5.27247 41.8089 5.18417 41.7645 5.10709 41.7042C5.03 41.6438 4.96567 41.5688 4.91782 41.4834L4.02926 39.9445C3.97921 39.8604 3.94638 39.7671 3.93265 39.6702C3.91893 39.5733 3.92459 39.4746 3.94931 39.3799C3.97403 39.2852 4.01731 39.1963 4.07665 39.1184C4.13599 39.0406 4.2102 38.9753 4.29498 38.9263C4.37976 38.8774 4.47341 38.8457 4.57051 38.8333C4.66761 38.8208 4.76621 38.8277 4.86061 38.8537C4.955 38.8796 5.0433 38.9241 5.12039 38.9844C5.19747 39.0447 5.26181 39.1198 5.30966 39.2052L6.19821 40.744ZM9.15708 19.7435C9.20037 19.6566 9.26036 19.5791 9.33362 19.5154C9.40687 19.4517 9.49196 19.403 9.58402 19.3722C9.67608 19.3413 9.77332 19.3289 9.87017 19.3357C9.96703 19.3424 10.0616 19.3682 10.1485 19.4115L10.9994 19.8357C10.06 17.0927 9.95952 14.1319 10.7107 11.3314C12.7946 3.55485 20.8172 -1.07689 28.5937 1.00705C31.0308 1.65949 33.2573 2.93228 35.0561 4.70133C35.126 4.7693 35.1818 4.85044 35.2203 4.94007C35.2587 5.0297 35.279 5.12605 35.28 5.22357C35.2811 5.32108 35.2628 5.41784 35.2263 5.50827C35.1898 5.5987 35.1357 5.68101 35.0673 5.75046C34.9988 5.81991 34.9173 5.87513 34.8274 5.91294C34.7375 5.95075 34.641 5.9704 34.5435 5.97076C34.446 5.97112 34.3493 5.95218 34.2592 5.91504C34.169 5.87789 34.0871 5.82327 34.0181 5.75433C31.9218 3.69243 29.1938 2.39427 26.2716 2.06804C23.3494 1.7418 20.4022 2.40639 17.9029 3.95522C15.4035 5.50405 13.4966 7.84739 12.4882 10.6094C11.4797 13.3714 11.428 16.3921 12.3414 19.187L12.5721 18.4154C12.6283 18.2275 12.7568 18.0697 12.9293 17.9765C13.1019 17.8834 13.3044 17.8626 13.4922 17.9188C13.6801 17.975 13.838 18.1034 13.9311 18.276C14.0242 18.4486 14.045 18.6511 13.9889 18.8389L13.1636 21.5998C13.1327 21.703 13.0796 21.7983 13.008 21.8789C12.9364 21.9595 12.8481 22.0235 12.7492 22.0664C12.6503 22.1093 12.5432 22.13 12.4354 22.1271C12.3277 22.1242 12.2218 22.0978 12.1253 22.0497L9.48882 20.7351C9.40194 20.6917 9.32443 20.6317 9.26074 20.5585C9.19704 20.4852 9.1484 20.4001 9.1176 20.308C9.08679 20.2159 9.07442 20.1187 9.0812 20.0218C9.08797 19.925 9.11376 19.8304 9.15708 19.7435ZM35.6097 11.3229L36.4351 8.56195C36.466 8.45866 36.5191 8.36337 36.5907 8.28276C36.6623 8.20216 36.7507 8.13818 36.8496 8.09533C36.9485 8.05247 37.0556 8.03177 37.1634 8.03467C37.2712 8.03757 37.377 8.06401 37.4735 8.11213L40.11 9.42685C40.2839 9.51526 40.4158 9.66883 40.477 9.85409C40.5381 10.0393 40.5236 10.2413 40.4365 10.4158C40.3495 10.5904 40.1969 10.7235 40.0121 10.7861C39.8274 10.8487 39.6253 10.8357 39.4501 10.75L38.6123 10.3323C39.5688 13.0899 39.6755 16.0711 38.9186 18.8899C37.1728 25.4057 31.2576 29.7138 24.8114 29.7138C20.9559 29.7104 17.2575 28.1849 14.5208 25.469C14.3841 25.3302 14.3077 25.1431 14.3082 24.9483C14.3087 24.7534 14.3861 24.5667 14.5236 24.4286C14.6611 24.2905 14.8475 24.2123 15.0423 24.2109C15.2371 24.2095 15.4246 24.2851 15.564 24.4212C17.6591 26.5023 20.3948 27.8161 23.3289 28.15C26.2629 28.484 29.2239 27.8187 31.7331 26.2616C34.2423 24.7046 36.153 22.3468 37.1564 19.5695C38.1598 16.7922 38.1972 13.7576 37.2626 10.9564L37.0264 11.7464C36.9702 11.9343 36.8417 12.0922 36.6692 12.1853C36.4966 12.2784 36.2941 12.2992 36.1063 12.243C35.9184 12.1869 35.7605 12.0584 35.6674 11.8858C35.5742 11.7133 35.5536 11.5108 35.6097 11.3229ZM28.94 9.93761C28.94 9.12503 28.6991 8.33069 28.2476 7.65505C27.7962 6.97941 27.1545 6.45281 26.4038 6.14185C25.653 5.83088 24.827 5.74952 24.03 5.90805C23.233 6.06658 22.5009 6.45788 21.9264 7.03246C21.3518 7.60705 20.9605 8.33911 20.802 9.13608C20.6434 9.93306 20.7248 10.7591 21.0357 11.5099C21.3467 12.2606 21.8733 12.9023 22.549 13.3537C23.2246 13.8052 24.0189 14.0461 24.8315 14.0461C25.9207 14.0448 26.965 13.6115 27.7352 12.8413C28.5054 12.0711 28.9387 11.0268 28.94 9.93761ZM22.2008 9.93761C22.2008 9.41748 22.355 8.90902 22.644 8.47654C22.933 8.04406 23.3437 7.70698 23.8243 7.50793C24.3048 7.30889 24.8336 7.2568 25.3437 7.35828C25.8539 7.45975 26.3225 7.71022 26.6903 8.07802C27.0581 8.44581 27.3085 8.91441 27.41 9.42455C27.5115 9.9347 27.4594 10.4635 27.2604 10.944C27.0613 11.4246 26.7242 11.8353 26.2917 12.1243C25.8593 12.4132 25.3508 12.5675 24.8307 12.5675C24.1335 12.5666 23.4651 12.2892 22.9721 11.7962C22.4791 11.3032 22.2017 10.6348 22.2008 9.93761ZM17.4808 20.9627C17.4425 21.2654 17.469 21.5729 17.5587 21.8646C17.6484 22.1563 17.7992 22.4256 18.001 22.6545C18.2028 22.8835 18.451 23.0668 18.7292 23.1924C19.0074 23.318 19.3091 23.3829 19.6142 23.3829H30.0482C30.3533 23.3829 30.655 23.318 30.9332 23.1924C31.2113 23.0668 31.4596 22.8835 31.6614 22.6545C31.8632 22.4256 32.014 22.1563 32.1037 21.8646C32.1934 21.5729 32.2199 21.2654 32.1816 20.9627C31.954 19.174 31.0819 17.5297 29.7288 16.338C28.3757 15.1462 26.6345 14.4887 24.8314 14.4887C23.0283 14.4887 21.287 15.1462 19.9339 16.338C18.5808 17.5297 17.7088 19.174 17.4811 20.9627H17.4808ZM24.8307 15.9676C26.2733 15.9693 27.6659 16.496 28.7486 17.4494C29.8312 18.4028 30.5299 19.7176 30.7141 21.1484C30.726 21.2429 30.7177 21.3388 30.6896 21.4299C30.6616 21.5209 30.6146 21.6049 30.5516 21.6764C30.4886 21.7479 30.4112 21.8051 30.3244 21.8444C30.2376 21.8836 30.1434 21.904 30.0482 21.904H19.6139C19.5186 21.904 19.4244 21.8837 19.3375 21.8445C19.2507 21.8052 19.1732 21.748 19.1102 21.6765C19.0471 21.605 19 21.5209 18.972 21.4298C18.944 21.3387 18.9357 21.2427 18.9476 21.1481C19.1318 19.7175 19.8305 18.4027 20.913 17.4494C21.9956 16.4961 23.3882 15.9694 24.8307 15.9676Z" fill="#0369CA"></path><path d="M43.6867 34.6154C42.3031 33.7983 40.5499 33.8839 38.9912 34.8433L29.6908 39.91C29.6554 39.9293 29.6216 39.9515 29.5898 39.9762C29.4348 40.0941 29.2638 40.1895 29.0821 40.2596C29.39 39.8593 29.5694 39.375 29.5965 38.8707C29.6466 37.6878 28.8191 36.5577 27.137 35.5137C23.5939 33.3139 16.6527 31.8658 13.9032 33.3745C13.8942 33.3794 13.8853 33.3844 13.8766 33.3898L7.84648 37.033L7.72618 36.8248C7.38382 36.2347 6.82162 35.8042 6.16263 35.6276C5.50364 35.451 4.80153 35.5427 4.20997 35.8826L1.71476 37.3233C1.12464 37.6657 0.694181 38.2279 0.517596 38.8869C0.341011 39.5458 0.432685 40.248 0.772553 40.8395L6.86667 51.3953C7.20828 51.9862 7.77048 52.4173 8.42976 52.594C9.08904 52.7706 9.79148 52.6783 10.3828 52.3374L12.8782 50.8967C13.4515 50.5647 13.875 50.0247 14.0607 49.3887C14.2463 48.7527 14.1799 48.0697 13.8752 47.4814L14.4224 47.1279C14.478 47.146 14.5443 47.1665 14.6216 47.1878L23.5659 49.6449C24.3024 49.9085 25.0778 50.0467 25.86 50.0538C26.9883 50.0524 28.0924 49.727 29.041 49.1161L42.8385 40.796C44.9777 39.7995 45.3648 38.3696 45.4045 37.6031C45.466 36.4224 44.8076 35.2775 43.6867 34.6154ZM12.1389 49.6162L9.64345 51.0569C9.39174 51.2018 9.09282 51.2409 8.8123 51.1657C8.53178 51.0905 8.29257 50.907 8.14717 50.6556L2.05306 40.0998C1.90931 39.8478 1.87083 39.5492 1.94598 39.269C2.02113 38.9888 2.20385 38.7496 2.4544 38.6034L4.94982 37.1627C5.1147 37.0675 5.30179 37.0175 5.49216 37.0179C5.5896 37.018 5.68661 37.0308 5.78071 37.0561C5.91972 37.0926 6.05011 37.1564 6.16432 37.2436C6.27853 37.3309 6.37431 37.4399 6.4461 37.5644L12.5402 48.1201C12.6851 48.3718 12.7242 48.6706 12.6491 48.9511C12.5739 49.2315 12.3906 49.4707 12.1393 49.6162H12.1389ZM43.9283 37.5267C43.8892 38.2816 43.2696 38.9717 42.1836 39.4701C42.1584 39.4816 42.1339 39.4946 42.1102 39.5089L28.272 47.8534L28.2597 47.8609C26.9829 48.665 25.599 48.7891 24.03 48.2412C24.014 48.2357 23.9983 48.2306 23.9818 48.2262L15.0138 45.7625C14.917 45.7359 14.8489 45.7121 14.7887 45.6909C14.3053 45.5219 14.0521 45.6074 13.6335 45.878L13.1379 46.1982L8.5858 38.3143L14.6271 34.6645C16.6726 33.5603 23.0187 34.6979 26.3569 36.7704C27.5016 37.4811 28.1439 38.2239 28.1191 38.8088C28.0966 39.3403 27.502 39.9351 26.4442 40.4903C24.9991 40.367 22.9899 39.9448 20.1926 39.0234C20.0063 38.9621 19.8033 38.9772 19.6282 39.0656C19.4531 39.1539 19.3202 39.3082 19.2589 39.4944C19.1975 39.6807 19.2127 39.8837 19.301 40.0588C19.3893 40.2339 19.5436 40.3668 19.7299 40.4281C25.2038 42.2312 28.7113 42.4785 30.4475 41.1827L39.7161 36.1332C39.7284 36.1266 39.7404 36.1196 39.7523 36.1121C41.3192 35.1404 42.4998 35.6325 42.9346 35.8893C43.5802 36.2697 43.9609 36.8975 43.9283 37.5267ZM6.19821 40.744C6.24826 40.8282 6.2811 40.9214 6.29482 41.0183C6.30855 41.1153 6.30288 41.214 6.27816 41.3087C6.25345 41.4034 6.21016 41.4923 6.15082 41.5701C6.09148 41.648 6.01727 41.7133 5.93249 41.7622C5.84772 41.8112 5.75406 41.8428 5.65697 41.8553C5.55987 41.8678 5.46126 41.8608 5.36687 41.8349C5.27247 41.8089 5.18417 41.7645 5.10709 41.7042C5.03 41.6438 4.96567 41.5688 4.91782 41.4834L4.02926 39.9445C3.97921 39.8604 3.94638 39.7671 3.93265 39.6702C3.91893 39.5733 3.92459 39.4746 3.94931 39.3799C3.97403 39.2852 4.01731 39.1963 4.07665 39.1184C4.13599 39.0406 4.2102 38.9753 4.29498 38.9263C4.37976 38.8774 4.47341 38.8457 4.57051 38.8333C4.66761 38.8208 4.76621 38.8277 4.86061 38.8537C4.955 38.8796 5.0433 38.9241 5.12039 38.9844C5.19747 39.0447 5.26181 39.1198 5.30966 39.2052L6.19821 40.744ZM9.15708 19.7435C9.20037 19.6566 9.26036 19.5791 9.33362 19.5154C9.40687 19.4517 9.49196 19.403 9.58402 19.3722C9.67608 19.3413 9.77332 19.3289 9.87017 19.3357C9.96703 19.3424 10.0616 19.3682 10.1485 19.4115L10.9994 19.8357C10.06 17.0927 9.95952 14.1319 10.7107 11.3314C12.7946 3.55485 20.8172 -1.07689 28.5937 1.00705C31.0308 1.65949 33.2573 2.93228 35.0561 4.70133C35.126 4.7693 35.1818 4.85044 35.2203 4.94007C35.2587 5.0297 35.279 5.12605 35.28 5.22357C35.2811 5.32108 35.2628 5.41784 35.2263 5.50827C35.1898 5.5987 35.1357 5.68101 35.0673 5.75046C34.9988 5.81991 34.9173 5.87513 34.8274 5.91294C34.7375 5.95075 34.641 5.9704 34.5435 5.97076C34.446 5.97112 34.3493 5.95218 34.2592 5.91504C34.169 5.87789 34.0871 5.82327 34.0181 5.75433C31.9218 3.69243 29.1938 2.39427 26.2716 2.06804C23.3494 1.7418 20.4022 2.40639 17.9029 3.95522C15.4035 5.50405 13.4966 7.84739 12.4882 10.6094C11.4797 13.3714 11.428 16.3921 12.3414 19.187L12.5721 18.4154C12.6283 18.2275 12.7568 18.0697 12.9293 17.9765C13.1019 17.8834 13.3044 17.8626 13.4922 17.9188C13.6801 17.975 13.838 18.1034 13.9311 18.276C14.0242 18.4486 14.045 18.6511 13.9889 18.8389L13.1636 21.5998C13.1327 21.703 13.0796 21.7983 13.008 21.8789C12.9364 21.9595 12.8481 22.0235 12.7492 22.0664C12.6503 22.1093 12.5432 22.13 12.4354 22.1271C12.3277 22.1242 12.2218 22.0978 12.1253 22.0497L9.48882 20.7351C9.40194 20.6917 9.32443 20.6317 9.26074 20.5585C9.19704 20.4852 9.1484 20.4001 9.1176 20.308C9.08679 20.2159 9.07442 20.1187 9.0812 20.0218C9.08797 19.925 9.11376 19.8304 9.15708 19.7435ZM35.6097 11.3229L36.4351 8.56195C36.466 8.45866 36.5191 8.36337 36.5907 8.28276C36.6623 8.20216 36.7507 8.13818 36.8496 8.09533C36.9485 8.05247 37.0556 8.03177 37.1634 8.03467C37.2712 8.03757 37.377 8.06401 37.4735 8.11213L40.11 9.42685C40.2839 9.51526 40.4158 9.66883 40.477 9.85409C40.5381 10.0393 40.5236 10.2413 40.4365 10.4158C40.3495 10.5904 40.1969 10.7235 40.0121 10.7861C39.8274 10.8487 39.6253 10.8357 39.4501 10.75L38.6123 10.3323C39.5688 13.0899 39.6755 16.0711 38.9186 18.8899C37.1728 25.4057 31.2576 29.7138 24.8114 29.7138C20.9559 29.7104 17.2575 28.1849 14.5208 25.469C14.3841 25.3302 14.3077 25.1431 14.3082 24.9483C14.3087 24.7534 14.3861 24.5667 14.5236 24.4286C14.6611 24.2905 14.8475 24.2123 15.0423 24.2109C15.2371 24.2095 15.4246 24.2851 15.564 24.4212C17.6591 26.5023 20.3948 27.8161 23.3289 28.15C26.2629 28.484 29.2239 27.8187 31.7331 26.2616C34.2423 24.7046 36.153 22.3468 37.1564 19.5695C38.1598 16.7922 38.1972 13.7576 37.2626 10.9564L37.0264 11.7464C36.9702 11.9343 36.8417 12.0922 36.6692 12.1853C36.4966 12.2784 36.2941 12.2992 36.1063 12.243C35.9184 12.1869 35.7605 12.0584 35.6674 11.8858C35.5742 11.7133 35.5536 11.5108 35.6097 11.3229ZM28.94 9.93761C28.94 9.12503 28.6991 8.33069 28.2476 7.65505C27.7962 6.97941 27.1545 6.45281 26.4038 6.14185C25.653 5.83088 24.827 5.74952 24.03 5.90805C23.233 6.06658 22.5009 6.45788 21.9264 7.03246C21.3518 7.60705 20.9605 8.33911 20.802 9.13608C20.6434 9.93306 20.7248 10.7591 21.0357 11.5099C21.3467 12.2606 21.8733 12.9023 22.549 13.3537C23.2246 13.8052 24.0189 14.0461 24.8315 14.0461C25.9207 14.0448 26.965 13.6115 27.7352 12.8413C28.5054 12.0711 28.9387 11.0268 28.94 9.93761ZM22.2008 9.93761C22.2008 9.41748 22.355 8.90902 22.644 8.47654C22.933 8.04406 23.3437 7.70698 23.8243 7.50793C24.3048 7.30889 24.8336 7.2568 25.3437 7.35828C25.8539 7.45975 26.3225 7.71022 26.6903 8.07802C27.0581 8.44581 27.3085 8.91441 27.41 9.42455C27.5115 9.9347 27.4594 10.4635 27.2604 10.944C27.0613 11.4246 26.7242 11.8353 26.2917 12.1243C25.8593 12.4132 25.3508 12.5675 24.8307 12.5675C24.1335 12.5666 23.4651 12.2892 22.9721 11.7962C22.4791 11.3032 22.2017 10.6348 22.2008 9.93761ZM17.4808 20.9627C17.4425 21.2654 17.469 21.5729 17.5587 21.8646C17.6484 22.1563 17.7992 22.4256 18.001 22.6545C18.2028 22.8835 18.451 23.0668 18.7292 23.1924C19.0074 23.318 19.3091 23.3829 19.6142 23.3829H30.0482C30.3533 23.3829 30.655 23.318 30.9332 23.1924C31.2113 23.0668 31.4596 22.8835 31.6614 22.6545C31.8632 22.4256 32.014 22.1563 32.1037 21.8646C32.1934 21.5729 32.2199 21.2654 32.1816 20.9627C31.954 19.174 31.0819 17.5297 29.7288 16.338C28.3757 15.1462 26.6345 14.4887 24.8314 14.4887C23.0283 14.4887 21.287 15.1462 19.9339 16.338C18.5808 17.5297 17.7088 19.174 17.4811 20.9627H17.4808ZM24.8307 15.9676C26.2733 15.9693 27.6659 16.496 28.7486 17.4494C29.8312 18.4028 30.5299 19.7176 30.7141 21.1484C30.726 21.2429 30.7177 21.3388 30.6896 21.4299C30.6616 21.5209 30.6146 21.6049 30.5516 21.6764C30.4886 21.7479 30.4112 21.8051 30.3244 21.8444C30.2376 21.8836 30.1434 21.904 30.0482 21.904H19.6139C19.5186 21.904 19.4244 21.8837 19.3375 21.8445C19.2507 21.8052 19.1732 21.748 19.1102 21.6765C19.0471 21.605 19 21.5209 18.972 21.4298C18.944 21.3387 18.9357 21.2427 18.9476 21.1481C19.1318 19.7175 19.8305 18.4027 20.913 17.4494C21.9956 16.4961 23.3882 15.9694 24.8307 15.9676Z" stroke="#0369CA" stroke-width="0.8" mask="url(#path-1-outside-1_1589_188)"></path></svg>