<svg xmlns="http://www.w3.org/2000/svg" width="54" height="54" viewBox="0 0 54 54" fill="none"><path d="M36.8153 28.086C36.6954 27.9748 36.5459 27.901 36.3848 27.8735C36.2237 27.8461 36.0581 27.8661 35.9082 27.9312C35.7583 27.9964 35.6307 28.1037 35.5408 28.2403C35.451 28.3768 35.4029 28.5365 35.4023 28.6999V51.5758C35.4026 51.7153 35.4375 51.8526 35.504 51.9753C35.5705 52.0979 35.6664 52.2021 35.7832 52.2785C35.9001 52.3548 36.034 52.4009 36.1731 52.4126C36.3121 52.4242 36.4519 52.4011 36.5798 52.3453L41.1171 50.3689L42.3786 53.3125C42.4704 53.5141 42.6381 53.6714 42.8452 53.7501C43.0522 53.8288 43.282 53.8227 43.4846 53.733L49.6199 51.088C49.8215 50.9962 49.9787 50.8285 50.0575 50.6214C50.1362 50.4144 50.1301 50.1846 50.0404 49.982L48.7788 47.0384L53.3162 45.062C53.4442 45.0062 53.5563 44.9193 53.6424 44.8093C53.7284 44.6993 53.7857 44.5696 53.8091 44.4318C53.8325 44.2941 53.8212 44.1528 53.7762 44.0205C53.7313 43.8883 53.6541 43.7693 53.5516 43.6743L36.8153 28.086ZM47.3281 45.8274C47.1264 45.9192 46.9692 46.0868 46.8904 46.2939C46.8117 46.501 46.8179 46.7307 46.9076 46.9333L48.1691 49.8769L43.5771 51.8743L42.3156 48.9307C42.2238 48.7291 42.0561 48.5718 41.849 48.4931C41.642 48.4144 41.4122 48.4205 41.2096 48.5102L37.076 50.31V30.6511L51.4659 44.0486L47.3281 45.8274Z" fill="#047BDC"></path><path d="M32.7999 48.7794C33.023 48.7794 33.2369 48.6908 33.3946 48.5331C33.5524 48.3754 33.641 48.1614 33.641 47.9384C33.641 47.7153 33.5524 47.5014 33.3946 47.3437C33.2369 47.186 33.023 47.0974 32.7999 47.0974H5.07979C4.17865 47.0974 3.31442 46.7394 2.67722 46.1022C2.04002 45.465 1.68205 44.6008 1.68205 43.6996V15.1384H47.0974V34.9025C47.0974 35.1256 47.186 35.3395 47.3437 35.4972C47.5014 35.6549 47.7153 35.7435 47.9384 35.7435C48.1614 35.7435 48.3754 35.6549 48.5331 35.4972C48.6908 35.3395 48.7794 35.1256 48.7794 34.9025V5.07979C48.7783 3.73288 48.2427 2.44147 47.2903 1.48906C46.3379 0.536662 45.0465 0.0011136 43.6996 0L5.07979 0C3.73288 0.0011136 2.44147 0.536662 1.48906 1.48906C0.536662 2.44147 0.0011136 3.73288 0 5.07979L0 43.7038C0.00222646 45.05 0.538266 46.3403 1.49055 47.2918C2.44283 48.2433 3.73361 48.7783 5.07979 48.7794H32.7999ZM5.07979 1.68205H43.7038C44.6042 1.68316 45.4674 2.04163 46.1037 2.67871C46.74 3.31579 47.0974 4.17938 47.0974 5.07979V13.4564H1.68205V5.07979C1.68205 4.17865 2.04002 3.31442 2.67722 2.67722C3.31442 2.04002 4.17865 1.68205 5.07979 1.68205Z" fill="#047BDC"></path><path d="M41.2106 10.0923C41.7096 10.0923 42.1974 9.94431 42.6123 9.66707C43.0272 9.38983 43.3506 8.99578 43.5416 8.53475C43.7326 8.07372 43.7825 7.56642 43.6852 7.07699C43.5878 6.58756 43.3475 6.13799 42.9947 5.78513C42.6418 5.43228 42.1922 5.19198 41.7028 5.09462C41.2134 4.99727 40.7061 5.04724 40.245 5.2382C39.784 5.42917 39.39 5.75255 39.1127 6.16747C38.8355 6.58239 38.6875 7.0702 38.6875 7.56922C38.6875 8.23838 38.9533 8.88013 39.4265 9.3533C39.8997 9.82647 40.5414 10.0923 41.2106 10.0923ZM41.2106 6.72819C41.3769 6.72819 41.5395 6.77752 41.6778 6.86993C41.8161 6.96234 41.9239 7.09369 41.9876 7.24737C42.0512 7.40105 42.0679 7.57015 42.0354 7.73329C42.003 7.89643 41.9229 8.04629 41.8053 8.16391C41.6876 8.28153 41.5378 8.36163 41.3746 8.39408C41.2115 8.42653 41.0424 8.40988 40.8887 8.34622C40.735 8.28257 40.6037 8.17477 40.5113 8.03646C40.4189 7.89816 40.3695 7.73555 40.3695 7.56922C40.3695 7.34616 40.4582 7.13225 40.6159 6.97452C40.7736 6.8168 40.9875 6.72819 41.2106 6.72819Z" fill="#047BDC"></path><path d="M34.4801 10.0923C34.9791 10.0923 35.4669 9.94431 35.8818 9.66707C36.2968 9.38983 36.6202 8.99578 36.8111 8.53475C37.0021 8.07372 37.052 7.56642 36.9547 7.07699C36.8573 6.58756 36.617 6.13799 36.2642 5.78513C35.9113 5.43228 35.4618 5.19198 34.9723 5.09462C34.4829 4.99727 33.9756 5.04724 33.5146 5.2382C33.0535 5.42917 32.6595 5.75255 32.3822 6.16747C32.105 6.58239 31.957 7.0702 31.957 7.56922C31.957 8.23838 32.2229 8.88013 32.696 9.3533C33.1692 9.82647 33.8109 10.0923 34.4801 10.0923ZM34.4801 6.72819C34.6464 6.72819 34.809 6.77752 34.9474 6.86993C35.0857 6.96234 35.1935 7.09369 35.2571 7.24737C35.3208 7.40105 35.3374 7.57015 35.305 7.73329C35.2725 7.89643 35.1924 8.04629 35.0748 8.16391C34.9572 8.28153 34.8073 8.36163 34.6442 8.39408C34.481 8.42653 34.3119 8.40988 34.1583 8.34622C34.0046 8.28257 33.8732 8.17477 33.7808 8.03646C33.6884 7.89816 33.6391 7.73555 33.6391 7.56922C33.6391 7.34616 33.7277 7.13225 33.8854 6.97452C34.0431 6.8168 34.2571 6.72819 34.4801 6.72819Z" fill="#047BDC"></path><path d="M27.7535 10.0923C28.2526 10.0923 28.7404 9.94431 29.1553 9.66707C29.5702 9.38983 29.8936 8.99578 30.0846 8.53475C30.2755 8.07372 30.3255 7.56642 30.2281 7.07699C30.1308 6.58756 29.8905 6.13799 29.5376 5.78513C29.1848 5.43228 28.7352 5.19198 28.2458 5.09462C27.7563 4.99727 27.249 5.04724 26.788 5.2382C26.327 5.42917 25.9329 5.75255 25.6557 6.16747C25.3784 6.58239 25.2305 7.0702 25.2305 7.56922C25.2305 8.23838 25.4963 8.88013 25.9695 9.3533C26.4426 9.82647 27.0844 10.0923 27.7535 10.0923ZM27.7535 6.72819C27.9199 6.72819 28.0825 6.77752 28.2208 6.86993C28.3591 6.96234 28.4669 7.09369 28.5305 7.24737C28.5942 7.40105 28.6109 7.57015 28.5784 7.73329C28.546 7.89643 28.4659 8.04629 28.3482 8.16391C28.2306 8.28153 28.0808 8.36163 27.9176 8.39408C27.7545 8.42653 27.5854 8.40988 27.4317 8.34622C27.278 8.28257 27.1467 8.17477 27.0543 8.03646C26.9618 7.89816 26.9125 7.73555 26.9125 7.56922C26.9125 7.34616 27.0011 7.13225 27.1588 6.97452C27.3166 6.8168 27.5305 6.72819 27.7535 6.72819Z" fill="#047BDC"></path><path d="M31.1186 21.8666H15.0551C14.862 20.916 14.3463 20.0614 13.5953 19.4475C12.8442 18.8336 11.904 18.4983 10.934 18.4983C9.96404 18.4983 9.02387 18.8336 8.27283 19.4475C7.52178 20.0614 7.00605 20.916 6.81303 21.8666H5.8879C5.66485 21.8666 5.45093 21.9552 5.29321 22.1129C5.13548 22.2707 5.04688 22.4846 5.04688 22.7076C5.04688 22.9307 5.13548 23.1446 5.29321 23.3023C5.45093 23.46 5.66485 23.5487 5.8879 23.5487H6.81303C7.00605 24.4993 7.52178 25.3539 8.27283 25.9678C9.02387 26.5816 9.96404 26.917 10.934 26.917C11.904 26.917 12.8442 26.5816 13.5953 25.9678C14.3463 25.3539 14.862 24.4993 15.0551 23.5487H31.1186C31.3417 23.5487 31.5556 23.46 31.7133 23.3023C31.871 23.1446 31.9597 22.9307 31.9597 22.7076C31.9597 22.4846 31.871 22.2707 31.7133 22.1129C31.5556 21.9552 31.3417 21.8666 31.1186 21.8666ZM10.934 25.2307C10.435 25.2307 9.94722 25.0827 9.5323 24.8055C9.11738 24.5282 8.79399 24.1342 8.60303 23.6732C8.41206 23.2121 8.3621 22.7048 8.45945 22.2154C8.55681 21.726 8.7971 21.2764 9.14996 20.9235C9.50282 20.5707 9.95239 20.3304 10.4418 20.233C10.9312 20.1357 11.4386 20.1856 11.8996 20.3766C12.3606 20.5676 12.7547 20.891 13.0319 21.3059C13.3091 21.7208 13.4571 22.2086 13.4571 22.7076C13.4571 23.3768 13.1913 24.0185 12.7181 24.4917C12.245 24.9649 11.6032 25.2307 10.934 25.2307Z" fill="#047BDC"></path><path d="M22.6243 38.6872C22.4313 37.7366 21.9155 36.8819 21.1645 36.2681C20.4134 35.6542 19.4733 35.3188 18.5033 35.3188C17.5333 35.3188 16.5931 35.6542 15.842 36.2681C15.091 36.8819 14.5753 37.7366 14.3822 38.6872H5.8879C5.66485 38.6872 5.45093 38.7758 5.29321 38.9335C5.13548 39.0912 5.04688 39.3051 5.04688 39.5282C5.04688 39.7512 5.13548 39.9652 5.29321 40.1229C5.45093 40.2806 5.66485 40.3692 5.8879 40.3692H14.3822C14.5753 41.3198 15.091 42.1744 15.842 42.7883C16.5931 43.4022 17.5333 43.7375 18.5033 43.7375C19.4733 43.7375 20.4134 43.4022 21.1645 42.7883C21.9155 42.1744 22.4313 41.3198 22.6243 40.3692H31.1186C31.3417 40.3692 31.5556 40.2806 31.7133 40.1229C31.871 39.9652 31.9597 39.7512 31.9597 39.5282C31.9597 39.3051 31.871 39.0912 31.7133 38.9335C31.5556 38.7758 31.3417 38.6872 31.1186 38.6872H22.6243ZM18.5033 42.0513C18.0042 42.0513 17.5164 41.9033 17.1015 41.626C16.6866 41.3488 16.3632 40.9548 16.1722 40.4937C15.9813 40.0327 15.9313 39.5254 16.0287 39.036C16.126 38.5465 16.3663 38.097 16.7192 37.7441C17.072 37.3912 17.5216 37.1509 18.011 37.0536C18.5005 36.9562 19.0078 37.0062 19.4688 37.1972C19.9298 37.3881 20.3239 37.7115 20.6011 38.1264C20.8784 38.5414 21.0263 39.0292 21.0263 39.5282C21.0263 40.1973 20.7605 40.8391 20.2873 41.3123C19.8142 41.7854 19.1724 42.0513 18.5033 42.0513Z" fill="#047BDC"></path><path d="M27.7545 26.9127C26.7851 26.9125 25.8454 27.2473 25.0944 27.8603C24.3435 28.4733 23.8274 29.327 23.6335 30.2768H5.8879C5.66485 30.2768 5.45093 30.3654 5.29321 30.5231C5.13548 30.6809 5.04688 30.8948 5.04688 31.1178C5.04688 31.3409 5.13548 31.5548 5.29321 31.7125C5.45093 31.8703 5.66485 31.9589 5.8879 31.9589H23.6335C23.7926 32.7384 24.1697 33.4568 24.7208 34.0307C25.2719 34.6045 25.9745 35.0102 26.747 35.2007C27.5195 35.3912 28.3302 35.3586 29.0849 35.1067C29.8396 34.8548 30.5074 34.394 31.0107 33.7777C31.5139 33.1615 31.832 32.4151 31.9281 31.6253C32.0241 30.8355 31.894 30.0346 31.5531 29.3157C31.2121 28.5969 30.6742 27.9895 30.0018 27.5641C29.3294 27.1388 28.5502 26.9129 27.7545 26.9127ZM27.7545 33.6409C27.2555 33.6409 26.7677 33.4929 26.3528 33.2157C25.9379 32.9385 25.6145 32.5444 25.4235 32.0834C25.2325 31.6223 25.1826 31.115 25.2799 30.6256C25.3773 30.1362 25.6176 29.6866 25.9704 29.3338C26.3233 28.9809 26.7729 28.7406 27.2623 28.6432C27.7517 28.5459 28.259 28.5959 28.7201 28.7868C29.1811 28.9778 29.5751 29.3012 29.8524 29.7161C30.1296 30.131 30.2776 30.6188 30.2776 31.1178C30.2776 31.787 30.0118 32.4288 29.5386 32.9019C29.0654 33.3751 28.4237 33.6409 27.7545 33.6409Z" fill="#047BDC"></path></svg>