<svg xmlns="http://www.w3.org/2000/svg" width="48" height="55" viewBox="0 0 48 55" fill="none"><path d="M47.3099 36.3251C47.3099 36.3251 42.2541 23.2826 42.2479 23.2668C42.0666 22.7994 41.4987 22.5895 41.0571 22.8256L36.784 25.1129C35.8053 25.6219 34.7942 25.255 33.226 24.6139C31.0777 23.7358 28.169 22.5498 24.3813 24.8988C21.627 23.2691 19.2741 23.8235 17.3633 24.2748C15.8926 24.6222 14.7309 24.8964 13.6077 24.2645C13.5879 24.2534 13.5678 24.243 13.5471 24.2336L7.96495 21.6583C7.5421 21.4634 7.04049 21.6459 6.84226 22.0676C6.84226 22.0676 1.01363 34.469 1.01193 34.4727C0.807981 34.9066 1.01776 35.4402 1.4615 35.6196C1.53644 35.6519 6.6683 37.9619 7.15804 38.1521C7.56817 38.3113 7.6957 38.7822 7.87134 39.7448C7.96526 40.2599 8.06194 40.7879 8.27893 41.2681L7.44298 42.831C7.03126 43.6008 6.94466 44.4872 7.19917 45.327C7.45369 46.1669 8.01784 46.8561 8.78754 47.2677C9.26763 47.5245 9.79309 47.6548 10.3244 47.6548C10.3967 47.6548 10.469 47.6517 10.5414 47.6468C10.2709 49.0236 10.9115 50.4759 12.2116 51.1712C13.2115 51.706 14.45 51.6738 15.4261 51.1006C15.7077 51.7684 16.2103 52.348 16.8977 52.7156C17.7963 53.1962 18.9122 53.2232 19.8428 52.7872C20.1024 53.5433 20.636 54.2072 21.3948 54.6129C21.8749 54.8697 22.4003 55.0001 22.9315 55.0001C23.9867 55.0001 25.0042 54.4804 25.6142 53.6187L26.7679 54.2533C27.2677 54.528 27.8084 54.6584 28.3422 54.6584C29.5 54.6584 30.6239 54.0447 31.2201 52.9608C31.6004 52.2694 31.7034 51.4981 31.5663 50.776C32.657 50.714 33.6938 50.1102 34.2579 49.0844C34.5779 48.5028 34.6994 47.8624 34.6461 47.2416C34.799 47.2634 34.9524 47.2754 35.1053 47.2754C36.263 47.2754 37.387 46.6616 37.9832 45.5776C38.3454 44.9191 38.453 44.1854 38.3406 43.4903C38.6205 43.4851 38.9022 43.4448 39.1798 43.3659C40.034 43.1232 40.7389 42.5631 41.1648 41.7889C41.5288 41.1271 41.6349 40.387 41.5169 39.6862L46.8519 37.4116C47.2726 37.2323 47.4752 36.7516 47.3099 36.3251ZM9.58723 45.7722C8.83142 45.3678 8.53419 44.3865 8.93827 43.6309C8.93827 43.6309 10.4806 40.7472 10.4815 40.7456C10.8863 39.9887 11.8683 39.6931 12.6241 40.0975C13.3796 40.5017 13.676 41.4826 13.2718 42.238C13.2718 42.238 11.7264 45.127 11.7255 45.1287C11.3221 45.8828 10.3393 46.1746 9.58723 45.7722ZM14.2156 49.7919C13.8095 49.9151 13.3816 49.8736 13.0113 49.6757C12.242 49.2643 11.9509 48.3036 12.3623 47.5343L14.4563 43.6197C14.8693 42.8545 15.8269 42.5652 16.596 42.9766C16.9646 43.1729 17.2354 43.5044 17.3588 43.9103C17.4827 44.3179 17.4419 44.7464 17.2438 45.1169C17.2438 45.117 17.2437 45.1171 17.2437 45.1172L15.1527 49.0268C14.9546 49.3971 14.6218 49.6688 14.2156 49.7919ZM18.9017 51.3364C18.4954 51.4594 18.0678 51.4182 17.6974 51.2202C16.9281 50.8088 16.637 49.8482 17.0484 49.0788L18.7392 45.9171C18.8352 45.629 19.3218 45.2913 19.589 45.184C20.0033 45.0177 20.4911 45.06 20.8818 45.269C21.2504 45.4653 21.5213 45.7968 21.6447 46.2027C21.7686 46.6105 21.7278 47.0391 21.5296 47.4097L19.8388 50.5714C19.6408 50.9416 19.308 51.2133 18.9017 51.3364ZM23.3988 53.2338C22.9925 53.3569 22.5649 53.3157 22.1945 53.1176C21.4253 52.7063 21.1341 51.7456 21.5455 50.9763C21.5455 50.9763 23.025 48.2097 23.0254 48.2091C23.4123 47.4425 24.4233 47.1631 25.1678 47.5614C25.923 47.9654 26.2189 48.9476 25.8155 49.702L24.3359 52.4687C24.138 52.839 23.8051 53.1107 23.3988 53.2338ZM29.7338 52.1436C29.3134 52.9079 28.3492 53.1875 27.585 52.7673L26.4372 52.1361L27.3112 50.5018C27.5279 50.0965 27.6535 49.6586 27.6875 49.2123L29.0968 49.9874L29.1082 49.9936C29.8725 50.4167 30.1532 51.3812 29.7338 52.1436ZM39.6786 40.9717C39.2686 41.7172 38.2859 42.0223 37.5383 41.6002L31.5129 38.1967C31.1051 37.9663 30.5878 38.1102 30.3574 38.518C30.1271 38.9258 30.2709 39.4431 30.6787 39.6735C30.6787 39.6735 35.8451 42.5958 35.866 42.6076C36.6302 43.0377 36.9134 44.0035 36.497 44.7605C36.0766 45.5248 35.1125 45.8044 34.3482 45.3842L27.7847 41.7163C27.3766 41.4866 26.8594 41.6312 26.6297 42.0394C26.4 42.4475 26.5447 42.9647 26.9528 43.1944L32.1409 46.1144C32.9051 46.5447 33.1882 47.5104 32.7718 48.2674C32.3515 49.0317 31.3874 49.3114 30.623 48.8912L26.9351 46.8522C26.6691 46.533 26.3424 46.2655 25.9665 46.0653C25.1967 45.6536 24.3102 45.5671 23.4705 45.8215C23.4173 45.8376 23.3647 45.855 23.3127 45.8736C23.2991 45.8188 23.284 45.7641 23.2675 45.7096C23.0121 44.8698 22.4482 44.1817 21.6806 43.773C20.9108 43.3613 20.0243 43.2747 19.1845 43.5292C19.1313 43.5453 19.0788 43.5627 19.0269 43.5812C19.0132 43.5264 18.9982 43.4718 18.9816 43.4173C18.7263 42.5775 18.1623 41.8894 17.3946 41.4806C16.6759 41.0963 15.8769 41.0087 15.1376 41.1735C15.1161 40.9606 15.0736 40.7478 15.0098 40.5381C14.7544 39.6983 14.1905 39.0102 13.4229 38.6014C12.6531 38.1896 11.7666 38.1031 10.9268 38.3576C10.3742 38.525 9.88743 38.8273 9.50137 39.2333C9.31989 38.268 9.0199 37.0558 7.7717 36.5713C7.28292 36.3814 4.62063 35.1818 3.19031 34.5373C3.08897 34.4916 2.99728 34.4502 2.91407 34.4128L8.0189 23.5514L12.807 25.7604C14.4967 26.6951 16.152 26.3041 17.753 25.9258C19.4088 25.5347 20.9873 25.1619 22.8511 26.0083C22.4173 26.3683 21.9853 26.7638 21.5593 27.1944C19.9181 28.8529 17.8202 30.4189 15.3243 31.8487C15.1153 31.9684 14.9671 32.1712 14.9167 32.4066C14.8662 32.642 14.9181 32.8877 15.0595 33.0826C18.3367 37.5985 22.2135 36.0289 25.3286 34.7678C27.4027 33.9282 29.1942 33.2028 30.6386 34.0261L39.0438 38.8169C39.8079 39.2521 40.0926 40.2189 39.6786 40.9717ZM40.8208 38.1394C40.5674 37.8258 40.2532 37.5537 39.8836 37.3431L31.4783 32.5524C30.7428 32.1331 29.985 31.9673 29.2151 31.9673C27.7258 31.9673 26.1919 32.5882 24.6921 33.1954C21.8429 34.3488 19.3518 35.3574 17.0236 32.8152C19.281 31.446 21.209 29.9592 22.7648 28.3869C23.4497 27.6948 24.1454 27.103 24.8327 26.6279C28.1164 24.3576 30.3877 25.2861 32.5841 26.1838C34.1851 26.8384 35.8408 27.5152 37.5754 26.6128L41.0126 24.773L45.4318 36.1733L40.8208 38.1394ZM16.6379 21.5461C17.1062 21.5461 17.4859 21.1664 17.4859 20.698V13.8747C17.4859 12.581 18.8704 11.9536 20.0319 11.655C22.7149 10.9651 25.4878 10.9657 28.2737 11.6568C29.2219 11.8921 30.8126 12.4929 30.8126 13.8747V20.698C30.8126 21.1664 31.1923 21.5461 31.6607 21.5461C32.129 21.5461 32.5087 21.1664 32.5087 20.698V13.8747C32.5087 12.0221 31.1139 10.6138 28.682 10.0106C27.9134 9.81991 27.1454 9.67733 26.3792 9.58246C27.5777 8.6475 28.3773 6.98398 28.3773 5.09043C28.3773 3.70369 27.9421 2.5634 27.1188 1.79254C26.3729 1.09408 25.346 0.724976 24.1492 0.724976C22.9524 0.724976 21.9255 1.09408 21.1795 1.79254C20.3562 2.5633 19.921 3.70369 19.921 5.09043C19.921 6.98027 20.7176 8.64093 21.9122 9.57694C21.1393 9.67203 20.3712 9.81662 19.6095 10.0125C17.1821 10.6366 15.7898 12.0443 15.7898 13.8748V20.6981C15.7898 21.1665 16.1694 21.5461 16.6379 21.5461ZM24.1492 2.42104C25.3043 2.42104 26.6813 2.88417 26.6813 5.09043C26.6813 7.03889 25.5217 8.68492 24.1492 8.68492C22.7767 8.68492 21.6171 7.03889 21.6171 5.09043C21.6171 2.88417 22.9941 2.42104 24.1492 2.42104ZM20.051 14.5953C20.5193 14.5953 20.899 14.975 20.899 15.4433V20.6981C20.899 21.1665 20.5193 21.5462 20.051 21.5462C19.5827 21.5462 19.203 21.1665 19.203 20.6981V15.4433C19.203 14.9749 19.5827 14.5953 20.051 14.5953ZM28.2473 14.5953C28.7157 14.5953 29.0954 14.975 29.0954 15.4433V20.6981C29.0954 21.1665 28.7157 21.5462 28.2473 21.5462C27.779 21.5462 27.3993 21.1665 27.3993 20.6981V15.4433C27.3993 14.9749 27.7789 14.5953 28.2473 14.5953Z" fill="#0369CA"></path></svg>