<svg xmlns="http://www.w3.org/2000/svg" width="53" height="53" viewBox="0 0 53 53" fill="none"><path d="M31.2638 12.4219H38.3842L28.6133 22.1932L30.8089 24.3888L40.5803 14.6179V21.7383H43.6857V9.31641H31.2638V12.4219Z" fill="#047BDC"></path><path d="M46.7891 0V3.10547H49.8945V6.21094H53V0H46.7891Z" fill="#047BDC"></path><path d="M49.8945 40.3711H46.7891V43.4766H53V37.2656H49.8945V40.3711Z" fill="#047BDC"></path><path d="M49.8945 9.31641H53V15.5273H49.8945V9.31641Z" fill="#047BDC"></path><path d="M49.8945 18.6328H53V24.8438H49.8945V18.6328Z" fill="#047BDC"></path><path d="M49.8945 27.9492H53V34.1602H49.8945V27.9492Z" fill="#047BDC"></path><path d="M12.6289 3.10547H15.7344V0H9.52344V6.21094H12.6289V3.10547Z" fill="#047BDC"></path><path d="M9.52344 9.31641H12.6289V15.5273H9.52344V9.31641Z" fill="#047BDC"></path><path d="M9.52344 18.6328H12.6289V24.8438H9.52344V18.6328Z" fill="#047BDC"></path><path d="M18.8398 0H25.0508V3.10547H18.8398V0Z" fill="#047BDC"></path><path d="M28.1562 0H34.3672V3.10547H28.1562V0Z" fill="#047BDC"></path><path d="M37.4727 0H43.6836V3.10547H37.4727V0Z" fill="#047BDC"></path><path d="M28.1562 40.3711H34.3672V43.4766H28.1562V40.3711Z" fill="#047BDC"></path><path d="M37.4727 40.3711H43.6836V43.4766H37.4727V40.3711Z" fill="#047BDC"></path><path d="M0 53H24.8438V28.1562H0V53ZM3.10547 31.2617H21.7383V49.8945H3.10547V31.2617Z" fill="#047BDC"></path></svg>