<svg xmlns="http://www.w3.org/2000/svg" width="64" height="64" viewBox="0 0 64 64" fill="none"><path d="M61.5385 7.38462H31.6505C30.5495 3.15015 26.728 0 22.1538 0C17.5797 0 13.7582 3.15015 12.6572 7.38462H2.46154C1.10215 7.38462 0 8.48677 0 9.84615C0 11.2055 1.10215 12.3077 2.46154 12.3077H12.6572C13.7582 16.5422 17.5797 19.6923 22.1538 19.6923C26.728 19.6923 30.5495 16.5422 31.6505 12.3077H46.5945H61.5385C62.8978 12.3077 64 11.2055 64 9.84615C64 8.48677 62.8978 7.38462 61.5385 7.38462ZM22.1538 14.7692C19.4388 14.7692 17.2308 12.5612 17.2308 9.84615C17.2308 7.13108 19.4388 4.92308 22.1538 4.92308C24.8689 4.92308 27.0769 7.13108 27.0769 9.84615C27.0769 12.5612 24.8689 14.7692 22.1538 14.7692ZM61.5385 29.5385H51.3428C50.2418 25.304 46.4203 22.1538 41.8462 22.1538C37.272 22.1538 33.4505 25.304 32.3495 29.5385H2.46154C1.10215 29.5385 0 30.6406 0 32C0 33.3594 1.10215 34.4615 2.46154 34.4615H32.3495C33.4505 38.696 37.272 41.8462 41.8462 41.8462C46.4203 41.8462 50.2418 38.696 51.3428 34.4615H61.5385C62.8978 34.4615 64 33.3594 64 32C64 30.6406 62.8978 29.5385 61.5385 29.5385ZM41.8462 36.9231C39.1311 36.9231 36.9231 34.7151 36.9231 32C36.9231 29.2849 39.1311 27.0769 41.8462 27.0769C44.5612 27.0769 46.7692 29.2849 46.7692 32C46.7692 34.7151 44.5612 36.9231 41.8462 36.9231ZM61.5385 51.6923H31.6505C30.5495 47.4579 26.728 44.3077 22.1538 44.3077C17.5797 44.3077 13.7582 47.4579 12.6572 51.6923H2.46154C1.10215 51.6923 0 52.7945 0 54.1539C0 55.5132 1.10215 56.6154 2.46154 56.6154H12.6572C13.7582 60.8499 17.5797 64 22.1538 64C26.728 64 30.5495 60.8499 31.6505 56.6154H61.5385C62.8978 56.6154 64 55.5132 64 54.1539C64 52.7945 62.8978 51.6923 61.5385 51.6923ZM22.1538 59.0769C19.4388 59.0769 17.2308 56.8689 17.2308 54.1539C17.2308 51.4388 19.4388 49.2308 22.1538 49.2308C24.8689 49.2308 27.0769 51.4388 27.0769 54.1539C27.0769 56.8689 24.8689 59.0769 22.1538 59.0769Z" fill="#048DEF"></path></svg>