<svg xmlns="http://www.w3.org/2000/svg" width="62" height="63" viewBox="0 0 62 63" fill="none"><path d="M60.1971 20.7155H34.1586V35.7436H60.1971V20.7155ZM17.2859 39.9642C17.2859 38.6496 18.3869 37.5426 19.6943 37.5426C21.0018 37.5426 22.1028 38.6496 22.1028 39.9642C22.1028 40.9329 21.4835 41.8324 20.5889 42.1783L20.6577 45.1535H27.8279V31.5092H1.78944V45.1535H18.7998L18.731 42.1783C17.9052 41.8324 17.2859 40.9329 17.2859 39.9642ZM19.1438 39.9642C19.1438 40.3102 19.4191 40.5178 19.7632 40.5178C20.1072 40.5178 20.3136 40.241 20.3136 39.9642C20.3136 39.6875 20.0384 39.4107 19.7632 39.4107C19.4191 39.3415 19.1438 39.6183 19.1438 39.9642ZM19.1438 15.9276C19.1438 14.613 20.2448 13.5059 21.5523 13.5059C22.5156 13.5059 23.4102 14.1286 23.7543 15.0281H32.3007V9.49289H16.1161V21.4766H28.7913C29.273 21.4766 29.6859 21.8918 29.6859 22.3761V46.0668C29.6859 46.5511 29.273 46.9663 28.7913 46.9663H20.7265L20.7953 50.0798L46.2833 50.149V42.3859H33.2641C32.7824 42.3859 32.3695 41.9707 32.3695 41.4864V19.7469C32.3695 19.2625 32.7824 18.8474 33.2641 18.8474H46.2833V16.8409H23.7543C23.4102 17.7404 22.5156 18.3631 21.5523 18.3631C20.2448 18.3492 19.1438 17.2422 19.1438 15.9276ZM20.933 15.9276C20.933 16.2735 21.2082 16.4811 21.5523 16.4811C21.8963 16.4811 22.1028 16.2043 22.1028 15.9276C22.1028 15.5816 21.8275 15.3049 21.5523 15.3049C21.277 15.3049 20.933 15.5816 20.933 15.9276ZM29.2042 54.1621C30.3052 53.055 32.0943 53.055 33.1953 54.1621C34.2963 55.2691 34.2963 57.068 33.1953 58.1059C32.0943 59.2129 30.3052 59.2129 29.2042 58.1059C28.1032 57.0819 28.1032 55.2691 29.2042 54.1621ZM30.5116 55.4767C30.0987 55.8918 30.0987 56.5145 30.5116 56.8605C30.8557 57.2064 31.5438 57.2064 31.8878 56.8605C32.2319 56.4453 32.2319 55.8226 31.8878 55.4767C31.475 55.0615 30.8557 55.0615 30.5116 55.4767ZM34.1586 37.5426V40.5178H60.1971V37.5426H34.1586ZM20.0384 25.5588C21.2082 25.5588 21.2082 27.3578 20.0384 27.3578H5.29885C4.12905 27.3578 4.12905 25.5588 5.29885 25.5588H20.0384ZM10.8726 40.9329C12.0424 40.9329 12.0424 42.7318 10.8726 42.7318H5.23004C4.06024 42.7318 4.06024 40.9329 5.23004 40.9329H10.8726ZM14.4646 37.4042C15.6344 37.4042 15.6344 39.2031 14.4646 39.2031H5.29885C4.12905 39.2031 4.12905 37.4042 5.29885 37.4042H14.4646ZM17.0795 33.9447C18.2493 33.9447 18.2493 35.7436 17.0795 35.7436H5.29885C4.12905 35.7436 4.12905 33.9447 5.29885 33.9447H17.0795ZM22.3092 51.948L27.7454 57.2064C27.9518 57.414 28.0206 57.6216 28.0206 57.8983V60.4722H46.1319V51.8788L22.3092 51.948ZM26.3141 60.5414V58.3273L19.7632 51.948H16.1161V60.5414H26.3141ZM18.9374 50.149L18.8686 47.0355H16.0473V50.149H18.9374ZM1.78944 29.7103H27.8279V23.3309H1.78944V29.7103ZM0.894881 21.4766H14.2582V0.899472C14.2582 0.415141 14.6711 0 15.1527 0H47.1228C47.6045 0 48.0174 0.415141 48.0174 0.899472V7.62475H61.0366C61.5183 7.62475 61.9312 8.0399 61.9312 8.52423V15.9414C61.9312 16.4257 61.5183 16.8409 61.0366 16.8409H48.0862V18.8474H61.1054C61.5871 18.8474 62 19.2625 62 19.7469V41.4311C62 41.9154 61.5871 42.3305 61.1054 42.3305H48.0862V61.3855C48.0862 61.8698 47.6733 62.285 47.1916 62.285H47.1228C36.512 62.285 25.8324 62.285 15.2216 62.285C14.7399 62.285 14.327 61.8698 14.327 61.3855V47.0355H0.894881C0.413196 47.0355 0.000324042 46.6203 0.000324042 46.136V22.3761C-0.0134384 21.8918 0.413196 21.4766 0.894881 21.4766ZM52.2837 31.3155C51.2516 31.869 50.357 30.3468 51.3892 29.7241L54.3481 28.0635L51.0451 25.8494C50.0818 25.2267 51.0451 23.7045 52.0773 24.3273L56.5501 27.3716C57.1694 27.7176 57.1694 28.617 56.5501 28.963L52.2837 31.3155ZM46.4209 31.9382C45.9393 33.0452 44.2878 32.2841 44.7695 31.1771L47.9348 24.3826C48.4165 23.3448 50.068 24.1058 49.5863 25.1437L46.4209 31.9382ZM42.9115 29.7794C43.9437 30.333 43.0492 31.9243 42.017 31.3708L37.7506 28.9492C37.1313 28.6032 37.1313 27.7037 37.7506 27.3578L42.2234 24.3134C43.1868 23.6215 44.219 25.1437 43.2556 25.8356L39.9526 28.0497L42.9115 29.7794ZM34.1586 9.4237V14.9589H60.1971V9.4237C51.5268 9.4237 42.8427 9.4237 34.1586 9.4237ZM16.1161 7.62475H46.2833V1.79894H16.1161V7.62475ZM34.1586 3.87465C35.3284 3.87465 35.3284 5.67359 34.1586 5.67359H28.2408C27.071 5.67359 27.071 3.87465 28.2408 3.87465H34.1586Z" fill="#048DEF"></path></svg>