<svg xmlns="http://www.w3.org/2000/svg" width="54" height="54" viewBox="0 0 54 54" fill="none"><path d="M51.8141 6.91444H27.1082C26.1981 3.41415 23.0392 0.810181 19.2581 0.810181C15.477 0.810181 12.3181 3.41415 11.408 6.91444H2.98007C1.85637 6.91444 0.945312 7.8255 0.945312 8.94919C0.945312 10.0729 1.85637 10.9839 2.98007 10.9839H11.408C12.3181 14.4842 15.477 17.0882 19.2581 17.0882C23.0392 17.0882 26.1981 14.4842 27.1082 10.9839H39.4611H51.8141C52.9378 10.9839 53.8489 10.0729 53.8489 8.94919C53.8489 7.8255 52.9378 6.91444 51.8141 6.91444ZM19.2581 13.0187C17.0138 13.0187 15.1886 11.1935 15.1886 8.94919C15.1886 6.70486 17.0138 4.87969 19.2581 4.87969C21.5024 4.87969 23.3276 6.70486 23.3276 8.94919C23.3276 11.1935 21.5024 13.0187 19.2581 13.0187ZM51.8141 25.2272H43.3862C42.4761 21.7269 39.3172 19.123 35.5361 19.123C31.755 19.123 28.5961 21.7269 27.686 25.2272H2.98007C1.85637 25.2272 0.945312 26.1383 0.945312 27.262C0.945312 28.3857 1.85637 29.2967 2.98007 29.2967H27.686C28.5961 32.797 31.755 35.401 35.5361 35.401C39.3172 35.401 42.4761 32.797 43.3862 29.2967H51.8141C52.9378 29.2967 53.8489 28.3857 53.8489 27.262C53.8489 26.1383 52.9378 25.2272 51.8141 25.2272ZM35.5361 31.3315C33.2918 31.3315 31.4666 29.5063 31.4666 27.262C31.4666 25.0176 33.2918 23.1925 35.5361 23.1925C37.7804 23.1925 39.6056 25.0176 39.6056 27.262C39.6056 29.5063 37.7804 31.3315 35.5361 31.3315ZM51.8141 43.54H27.1082C26.1981 40.0397 23.0392 37.4357 19.2581 37.4357C15.477 37.4357 12.3181 40.0397 11.408 43.54H2.98007C1.85637 43.54 0.945312 44.451 0.945312 45.5747C0.945312 46.6984 1.85637 47.6095 2.98007 47.6095H11.408C12.3181 51.1098 15.477 53.7137 19.2581 53.7137C23.0392 53.7137 26.1981 51.1098 27.1082 47.6095H51.8141C52.9378 47.6095 53.8489 46.6984 53.8489 45.5747C53.8489 44.451 52.9378 43.54 51.8141 43.54ZM19.2581 49.6442C17.0138 49.6442 15.1886 47.8191 15.1886 45.5747C15.1886 43.3304 17.0138 41.5052 19.2581 41.5052C21.5024 41.5052 23.3276 43.3304 23.3276 45.5747C23.3276 47.8191 21.5024 49.6442 19.2581 49.6442Z" fill="#047BDC"></path></svg>