<svg xmlns="http://www.w3.org/2000/svg" width="55" height="55" viewBox="0 0 55 55" fill="none"><mask id="path-1-outside-1_1483_152" maskUnits="userSpaceOnUse" x="0" y="0" width="55" height="55" fill="black"><rect fill="white" width="55" height="55"></rect><path fill-rule="evenodd" clip-rule="evenodd" d="M30.916 54H24.084C23.3594 54 22.7383 53.3789 22.7383 52.5508V47.7891C20.5645 47.2715 18.3906 46.4434 16.5273 45.2012L13.1113 48.6172C12.9043 48.8242 12.4902 49.0312 12.1797 49.0312C11.7656 49.0312 11.4551 48.8242 11.1445 48.6172L6.38281 43.8555C5.86523 43.3379 5.86523 42.4062 6.38281 41.8887L9.79883 38.4727C8.55664 36.6094 7.72852 34.4355 7.21094 32.2617H2.44922C1.62109 32.2617 1 31.6406 1 30.916V24.084C1 23.3594 1.62109 22.7383 2.44922 22.7383H7.21094C7.72852 20.5645 8.55664 18.3906 9.79883 16.5273L6.38281 13.1113C6.17578 12.9043 5.96875 12.4902 5.96875 12.1797C5.96875 11.7656 6.17578 11.4551 6.38281 11.1445L11.1445 6.38281C11.4551 6.17578 11.7656 5.96875 12.1797 5.96875C12.4902 5.96875 12.9043 6.17578 13.1113 6.38281L16.5273 9.79883C18.3906 8.55664 20.5645 7.72852 22.7383 7.21094V2.44922C22.7383 1.62109 23.3594 1 24.084 1H30.916C31.6406 1 32.2617 1.62109 32.2617 2.44922V7.21094C34.4355 7.72852 36.6094 8.55664 38.4727 9.79883L41.8887 6.38281C42.0957 6.17578 42.5098 5.96875 42.8203 5.96875C43.2344 5.96875 43.5449 6.17578 43.8555 6.38281L48.6172 11.1445C49.1348 11.6621 49.1348 12.5938 48.6172 13.1113L45.2012 16.5273C46.4434 18.3906 47.2715 20.5645 47.7891 22.7383H52.5508C53.3789 22.7383 54 23.3594 54 24.084V30.916C54 31.6406 53.3789 32.2617 52.5508 32.2617H47.7891C47.2715 34.4355 46.4434 36.6094 45.2012 38.4727L48.6172 41.8887C48.8242 42.0957 49.0312 42.5098 49.0312 42.8203C49.0312 43.2344 48.8242 43.5449 48.6172 43.8555L43.8555 48.6172C43.5449 48.8242 43.2344 49.0312 42.8203 49.0312C42.5098 49.0312 42.0957 48.8242 41.8887 48.6172L38.4727 45.2012C36.6094 46.4434 34.4355 47.2715 32.2617 47.7891V52.5508C32.2617 53.3789 31.6406 54 30.916 54ZM16.4238 43.8555C16.5273 43.8555 16.6309 43.8555 16.7344 43.959C18.8047 45.3047 21.082 46.2363 23.4629 46.7539C23.7734 46.7539 23.9805 47.0645 23.9805 47.375V52.5508C23.9805 52.6543 24.084 52.7578 24.084 52.7578H30.916C30.916 52.7578 31.0195 52.6543 31.0195 52.5508V47.375C31.0195 47.0645 31.2266 46.7539 31.5371 46.7539C33.918 46.2363 36.1953 45.3047 38.2656 43.959C38.4727 43.752 38.7832 43.8555 38.9902 44.0625L42.7168 47.6855C42.8203 47.7891 42.8203 47.7891 42.8203 47.7891C42.9238 47.7891 42.9238 47.7891 42.9238 47.6855L47.6855 42.9238C47.7891 42.9238 47.7891 42.9238 47.7891 42.8203C47.7891 42.8203 47.7891 42.8203 47.6855 42.7168L44.0625 38.9902C43.8555 38.7832 43.752 38.4727 43.959 38.2656C45.3047 36.1953 46.2363 33.918 46.7539 31.5371C46.7539 31.2266 47.0645 31.0195 47.375 31.0195H52.5508C52.6543 31.0195 52.7578 30.916 52.7578 30.916V24.084C52.7578 24.084 52.6543 23.9805 52.5508 23.9805H47.375C47.0645 23.9805 46.7539 23.7734 46.7539 23.4629C46.2363 21.082 45.3047 18.8047 43.959 16.7344C43.752 16.5273 43.8555 16.2168 44.0625 16.0098L47.6855 12.2832C47.7891 12.1797 47.7891 12.0762 47.6855 12.0762L42.9238 7.31445C42.9238 7.21094 42.9238 7.21094 42.8203 7.21094C42.8203 7.21094 42.8203 7.21094 42.7168 7.31445L38.9902 10.9375C38.7832 11.1445 38.4727 11.248 38.2656 11.041C36.1953 9.69531 33.918 8.76367 31.5371 8.24609C31.2266 8.24609 31.0195 7.93555 31.0195 7.625V2.44922C31.0195 2.3457 30.916 2.24219 30.916 2.24219H24.084C24.084 2.24219 23.9805 2.3457 23.9805 2.44922V7.625C23.9805 7.93555 23.7734 8.24609 23.4629 8.24609C21.082 8.76367 18.8047 9.69531 16.7344 11.041C16.5273 11.248 16.2168 11.1445 16.0098 10.9375L12.2832 7.31445C12.1797 7.21094 12.1797 7.21094 12.1797 7.21094C12.0762 7.21094 12.0762 7.21094 12.0762 7.31445L7.31445 12.0762C7.21094 12.0762 7.21094 12.0762 7.21094 12.1797C7.21094 12.1797 7.21094 12.1797 7.31445 12.2832L10.9375 16.0098C11.1445 16.2168 11.248 16.5273 11.041 16.7344C9.69531 18.8047 8.76367 21.082 8.24609 23.4629C8.24609 23.7734 7.93555 23.9805 7.625 23.9805H2.44922C2.3457 23.9805 2.24219 24.084 2.24219 24.084V30.916C2.24219 30.916 2.3457 31.0195 2.44922 31.0195H7.625C7.93555 31.0195 8.24609 31.2266 8.24609 31.5371C8.76367 33.918 9.69531 36.1953 11.041 38.2656C11.248 38.4727 11.1445 38.7832 10.9375 38.9902L7.31445 42.7168C7.21094 42.8203 7.21094 42.9238 7.31445 42.9238L12.0762 47.6855C12.0762 47.7891 12.0762 47.7891 12.1797 47.7891C12.1797 47.7891 12.1797 47.7891 12.2832 47.6855L16.0098 44.0625C16.1133 43.8555 16.2168 43.8555 16.4238 43.8555Z"></path></mask><path fill-rule="evenodd" clip-rule="evenodd" d="M30.916 54H24.084C23.3594 54 22.7383 53.3789 22.7383 52.5508V47.7891C20.5645 47.2715 18.3906 46.4434 16.5273 45.2012L13.1113 48.6172C12.9043 48.8242 12.4902 49.0312 12.1797 49.0312C11.7656 49.0312 11.4551 48.8242 11.1445 48.6172L6.38281 43.8555C5.86523 43.3379 5.86523 42.4062 6.38281 41.8887L9.79883 38.4727C8.55664 36.6094 7.72852 34.4355 7.21094 32.2617H2.44922C1.62109 32.2617 1 31.6406 1 30.916V24.084C1 23.3594 1.62109 22.7383 2.44922 22.7383H7.21094C7.72852 20.5645 8.55664 18.3906 9.79883 16.5273L6.38281 13.1113C6.17578 12.9043 5.96875 12.4902 5.96875 12.1797C5.96875 11.7656 6.17578 11.4551 6.38281 11.1445L11.1445 6.38281C11.4551 6.17578 11.7656 5.96875 12.1797 5.96875C12.4902 5.96875 12.9043 6.17578 13.1113 6.38281L16.5273 9.79883C18.3906 8.55664 20.5645 7.72852 22.7383 7.21094V2.44922C22.7383 1.62109 23.3594 1 24.084 1H30.916C31.6406 1 32.2617 1.62109 32.2617 2.44922V7.21094C34.4355 7.72852 36.6094 8.55664 38.4727 9.79883L41.8887 6.38281C42.0957 6.17578 42.5098 5.96875 42.8203 5.96875C43.2344 5.96875 43.5449 6.17578 43.8555 6.38281L48.6172 11.1445C49.1348 11.6621 49.1348 12.5938 48.6172 13.1113L45.2012 16.5273C46.4434 18.3906 47.2715 20.5645 47.7891 22.7383H52.5508C53.3789 22.7383 54 23.3594 54 24.084V30.916C54 31.6406 53.3789 32.2617 52.5508 32.2617H47.7891C47.2715 34.4355 46.4434 36.6094 45.2012 38.4727L48.6172 41.8887C48.8242 42.0957 49.0312 42.5098 49.0312 42.8203C49.0312 43.2344 48.8242 43.5449 48.6172 43.8555L43.8555 48.6172C43.5449 48.8242 43.2344 49.0312 42.8203 49.0312C42.5098 49.0312 42.0957 48.8242 41.8887 48.6172L38.4727 45.2012C36.6094 46.4434 34.4355 47.2715 32.2617 47.7891V52.5508C32.2617 53.3789 31.6406 54 30.916 54ZM16.4238 43.8555C16.5273 43.8555 16.6309 43.8555 16.7344 43.959C18.8047 45.3047 21.082 46.2363 23.4629 46.7539C23.7734 46.7539 23.9805 47.0645 23.9805 47.375V52.5508C23.9805 52.6543 24.084 52.7578 24.084 52.7578H30.916C30.916 52.7578 31.0195 52.6543 31.0195 52.5508V47.375C31.0195 47.0645 31.2266 46.7539 31.5371 46.7539C33.918 46.2363 36.1953 45.3047 38.2656 43.959C38.4727 43.752 38.7832 43.8555 38.9902 44.0625L42.7168 47.6855C42.8203 47.7891 42.8203 47.7891 42.8203 47.7891C42.9238 47.7891 42.9238 47.7891 42.9238 47.6855L47.6855 42.9238C47.7891 42.9238 47.7891 42.9238 47.7891 42.8203C47.7891 42.8203 47.7891 42.8203 47.6855 42.7168L44.0625 38.9902C43.8555 38.7832 43.752 38.4727 43.959 38.2656C45.3047 36.1953 46.2363 33.918 46.7539 31.5371C46.7539 31.2266 47.0645 31.0195 47.375 31.0195H52.5508C52.6543 31.0195 52.7578 30.916 52.7578 30.916V24.084C52.7578 24.084 52.6543 23.9805 52.5508 23.9805H47.375C47.0645 23.9805 46.7539 23.7734 46.7539 23.4629C46.2363 21.082 45.3047 18.8047 43.959 16.7344C43.752 16.5273 43.8555 16.2168 44.0625 16.0098L47.6855 12.2832C47.7891 12.1797 47.7891 12.0762 47.6855 12.0762L42.9238 7.31445C42.9238 7.21094 42.9238 7.21094 42.8203 7.21094C42.8203 7.21094 42.8203 7.21094 42.7168 7.31445L38.9902 10.9375C38.7832 11.1445 38.4727 11.248 38.2656 11.041C36.1953 9.69531 33.918 8.76367 31.5371 8.24609C31.2266 8.24609 31.0195 7.93555 31.0195 7.625V2.44922C31.0195 2.3457 30.916 2.24219 30.916 2.24219H24.084C24.084 2.24219 23.9805 2.3457 23.9805 2.44922V7.625C23.9805 7.93555 23.7734 8.24609 23.4629 8.24609C21.082 8.76367 18.8047 9.69531 16.7344 11.041C16.5273 11.248 16.2168 11.1445 16.0098 10.9375L12.2832 7.31445C12.1797 7.21094 12.1797 7.21094 12.1797 7.21094C12.0762 7.21094 12.0762 7.21094 12.0762 7.31445L7.31445 12.0762C7.21094 12.0762 7.21094 12.0762 7.21094 12.1797C7.21094 12.1797 7.21094 12.1797 7.31445 12.2832L10.9375 16.0098C11.1445 16.2168 11.248 16.5273 11.041 16.7344C9.69531 18.8047 8.76367 21.082 8.24609 23.4629C8.24609 23.7734 7.93555 23.9805 7.625 23.9805H2.44922C2.3457 23.9805 2.24219 24.084 2.24219 24.084V30.916C2.24219 30.916 2.3457 31.0195 2.44922 31.0195H7.625C7.93555 31.0195 8.24609 31.2266 8.24609 31.5371C8.76367 33.918 9.69531 36.1953 11.041 38.2656C11.248 38.4727 11.1445 38.7832 10.9375 38.9902L7.31445 42.7168C7.21094 42.8203 7.21094 42.9238 7.31445 42.9238L12.0762 47.6855C12.0762 47.7891 12.0762 47.7891 12.1797 47.7891C12.1797 47.7891 12.1797 47.7891 12.2832 47.6855L16.0098 44.0625C16.1133 43.8555 16.2168 43.8555 16.4238 43.8555Z" fill="#0369CA"></path><path fill-rule="evenodd" clip-rule="evenodd" d="M30.916 54H24.084C23.3594 54 22.7383 53.3789 22.7383 52.5508V47.7891C20.5645 47.2715 18.3906 46.4434 16.5273 45.2012L13.1113 48.6172C12.9043 48.8242 12.4902 49.0312 12.1797 49.0312C11.7656 49.0312 11.4551 48.8242 11.1445 48.6172L6.38281 43.8555C5.86523 43.3379 5.86523 42.4062 6.38281 41.8887L9.79883 38.4727C8.55664 36.6094 7.72852 34.4355 7.21094 32.2617H2.44922C1.62109 32.2617 1 31.6406 1 30.916V24.084C1 23.3594 1.62109 22.7383 2.44922 22.7383H7.21094C7.72852 20.5645 8.55664 18.3906 9.79883 16.5273L6.38281 13.1113C6.17578 12.9043 5.96875 12.4902 5.96875 12.1797C5.96875 11.7656 6.17578 11.4551 6.38281 11.1445L11.1445 6.38281C11.4551 6.17578 11.7656 5.96875 12.1797 5.96875C12.4902 5.96875 12.9043 6.17578 13.1113 6.38281L16.5273 9.79883C18.3906 8.55664 20.5645 7.72852 22.7383 7.21094V2.44922C22.7383 1.62109 23.3594 1 24.084 1H30.916C31.6406 1 32.2617 1.62109 32.2617 2.44922V7.21094C34.4355 7.72852 36.6094 8.55664 38.4727 9.79883L41.8887 6.38281C42.0957 6.17578 42.5098 5.96875 42.8203 5.96875C43.2344 5.96875 43.5449 6.17578 43.8555 6.38281L48.6172 11.1445C49.1348 11.6621 49.1348 12.5938 48.6172 13.1113L45.2012 16.5273C46.4434 18.3906 47.2715 20.5645 47.7891 22.7383H52.5508C53.3789 22.7383 54 23.3594 54 24.084V30.916C54 31.6406 53.3789 32.2617 52.5508 32.2617H47.7891C47.2715 34.4355 46.4434 36.6094 45.2012 38.4727L48.6172 41.8887C48.8242 42.0957 49.0312 42.5098 49.0312 42.8203C49.0312 43.2344 48.8242 43.5449 48.6172 43.8555L43.8555 48.6172C43.5449 48.8242 43.2344 49.0312 42.8203 49.0312C42.5098 49.0312 42.0957 48.8242 41.8887 48.6172L38.4727 45.2012C36.6094 46.4434 34.4355 47.2715 32.2617 47.7891V52.5508C32.2617 53.3789 31.6406 54 30.916 54ZM16.4238 43.8555C16.5273 43.8555 16.6309 43.8555 16.7344 43.959C18.8047 45.3047 21.082 46.2363 23.4629 46.7539C23.7734 46.7539 23.9805 47.0645 23.9805 47.375V52.5508C23.9805 52.6543 24.084 52.7578 24.084 52.7578H30.916C30.916 52.7578 31.0195 52.6543 31.0195 52.5508V47.375C31.0195 47.0645 31.2266 46.7539 31.5371 46.7539C33.918 46.2363 36.1953 45.3047 38.2656 43.959C38.4727 43.752 38.7832 43.8555 38.9902 44.0625L42.7168 47.6855C42.8203 47.7891 42.8203 47.7891 42.8203 47.7891C42.9238 47.7891 42.9238 47.7891 42.9238 47.6855L47.6855 42.9238C47.7891 42.9238 47.7891 42.9238 47.7891 42.8203C47.7891 42.8203 47.7891 42.8203 47.6855 42.7168L44.0625 38.9902C43.8555 38.7832 43.752 38.4727 43.959 38.2656C45.3047 36.1953 46.2363 33.918 46.7539 31.5371C46.7539 31.2266 47.0645 31.0195 47.375 31.0195H52.5508C52.6543 31.0195 52.7578 30.916 52.7578 30.916V24.084C52.7578 24.084 52.6543 23.9805 52.5508 23.9805H47.375C47.0645 23.9805 46.7539 23.7734 46.7539 23.4629C46.2363 21.082 45.3047 18.8047 43.959 16.7344C43.752 16.5273 43.8555 16.2168 44.0625 16.0098L47.6855 12.2832C47.7891 12.1797 47.7891 12.0762 47.6855 12.0762L42.9238 7.31445C42.9238 7.21094 42.9238 7.21094 42.8203 7.21094C42.8203 7.21094 42.8203 7.21094 42.7168 7.31445L38.9902 10.9375C38.7832 11.1445 38.4727 11.248 38.2656 11.041C36.1953 9.69531 33.918 8.76367 31.5371 8.24609C31.2266 8.24609 31.0195 7.93555 31.0195 7.625V2.44922C31.0195 2.3457 30.916 2.24219 30.916 2.24219H24.084C24.084 2.24219 23.9805 2.3457 23.9805 2.44922V7.625C23.9805 7.93555 23.7734 8.24609 23.4629 8.24609C21.082 8.76367 18.8047 9.69531 16.7344 11.041C16.5273 11.248 16.2168 11.1445 16.0098 10.9375L12.2832 7.31445C12.1797 7.21094 12.1797 7.21094 12.1797 7.21094C12.0762 7.21094 12.0762 7.21094 12.0762 7.31445L7.31445 12.0762C7.21094 12.0762 7.21094 12.0762 7.21094 12.1797C7.21094 12.1797 7.21094 12.1797 7.31445 12.2832L10.9375 16.0098C11.1445 16.2168 11.248 16.5273 11.041 16.7344C9.69531 18.8047 8.76367 21.082 8.24609 23.4629C8.24609 23.7734 7.93555 23.9805 7.625 23.9805H2.44922C2.3457 23.9805 2.24219 24.084 2.24219 24.084V30.916C2.24219 30.916 2.3457 31.0195 2.44922 31.0195H7.625C7.93555 31.0195 8.24609 31.2266 8.24609 31.5371C8.76367 33.918 9.69531 36.1953 11.041 38.2656C11.248 38.4727 11.1445 38.7832 10.9375 38.9902L7.31445 42.7168C7.21094 42.8203 7.21094 42.9238 7.31445 42.9238L12.0762 47.6855C12.0762 47.7891 12.0762 47.7891 12.1797 47.7891C12.1797 47.7891 12.1797 47.7891 12.2832 47.6855L16.0098 44.0625C16.1133 43.8555 16.2168 43.8555 16.4238 43.8555Z" stroke="#0369CA" stroke-width="0.6" mask="url(#path-1-outside-1_1483_152)"></path><path d="M10.9945 27.5C10.9945 36.5887 18.4113 44.0055 27.5 44.0055C36.5887 44.0055 44.0055 36.5887 44.0055 27.5C44.0055 18.4113 36.5887 10.9945 27.5 10.9945C18.4113 10.9945 10.9945 18.4113 10.9945 27.5ZM12.5367 27.5C12.5367 19.3016 19.3016 12.5367 27.5 12.5367C35.6984 12.5367 42.4633 19.3016 42.4633 27.5C42.4633 35.6984 35.6984 42.4633 27.5 42.4633C19.3016 42.4633 12.5367 35.6984 12.5367 27.5Z" fill="#0369CA" stroke="#0369CA" stroke-width="0.3"></path><path d="M16.6934 26.8228L16.6984 26.8378L16.7064 26.8514L19.7912 32.0955V37.8516C19.7912 38.0556 19.8917 38.2471 20.0292 38.3846C20.1667 38.5221 20.3582 38.6227 20.5623 38.6227C20.7663 38.6227 20.9578 38.5221 21.0953 38.3846C21.2328 38.2471 21.3333 38.0556 21.3333 37.8516V31.8477L21.3334 31.8421C21.3334 31.74 21.3335 31.5894 21.2006 31.4463L18.1043 26.0793L18.1046 26.0792L18.0992 26.0711C17.9745 25.8841 17.7898 25.7621 17.6077 25.7014C17.4305 25.6424 17.2308 25.6338 17.0792 25.7096L17.0708 25.7138L17.063 25.7189C16.6896 25.9679 16.5711 26.4559 16.6934 26.8228Z" fill="#0369CA" stroke="#0369CA" stroke-width="0.3"></path><path d="M23.725 37.8516C23.725 38.0556 23.8255 38.2471 23.963 38.3846C24.1005 38.5221 24.292 38.6227 24.4961 38.6227C24.7002 38.6227 24.8917 38.5221 25.0292 38.3846C25.1667 38.2471 25.2672 38.0556 25.2672 37.8516V19.9434C25.2672 19.7393 25.1667 19.5478 25.0292 19.4103C24.8917 19.2728 24.7002 19.1723 24.4961 19.1723C24.292 19.1723 24.1005 19.2728 23.963 19.4103C23.8255 19.5478 23.725 19.7393 23.725 19.9434V37.8516Z" fill="#0369CA" stroke="#0369CA" stroke-width="0.3"></path><path d="M27.6625 37.8516C27.6625 38.0556 27.763 38.2471 27.9005 38.3846C28.038 38.5221 28.2295 38.6227 28.4336 38.6227C28.6813 38.6227 28.8782 38.5283 29.0115 38.3782C29.1424 38.2309 29.2047 38.0388 29.2047 37.8516V26.5684C29.2047 26.3811 29.1424 26.189 29.0115 26.0417C28.8782 25.8917 28.6813 25.7973 28.4336 25.7973C28.2295 25.7973 28.038 25.8978 27.9005 26.0353C27.763 26.1728 27.6625 26.3643 27.6625 26.5684V37.8516Z" fill="#0369CA" stroke="#0369CA" stroke-width="0.3"></path><path d="M31.5922 37.8516C31.5922 38.0556 31.6927 38.2471 31.8302 38.3846C31.9677 38.5221 32.1592 38.6227 32.3633 38.6227C32.611 38.6227 32.8078 38.5283 32.9412 38.3782C33.0721 38.2309 33.1344 38.0388 33.1344 37.8516V31.8477C33.1344 31.6604 33.0721 31.4683 32.9412 31.321C32.8078 31.171 32.611 31.0766 32.3633 31.0766C32.1592 31.0766 31.9677 31.1771 31.8302 31.3146C31.6927 31.4521 31.5922 31.6436 31.5922 31.8477V37.8516Z" fill="#0369CA" stroke="#0369CA" stroke-width="0.3"></path><path d="M33.9433 19.559L33.9437 19.5588L33.9376 19.5497C33.6893 19.1772 33.1842 19.0435 32.7979 19.301C32.6214 19.4187 32.4897 19.5752 32.4388 19.7616C32.3873 19.9504 32.4248 20.1485 32.5469 20.3335L35.6296 25.5741V37.8516C35.6296 38.0388 35.6918 38.231 35.8227 38.3783C35.9561 38.5283 36.1529 38.6227 36.4007 38.6227C36.6047 38.6227 36.7962 38.5222 36.9337 38.3847C37.0713 38.2472 37.1718 38.0557 37.1718 37.8516V25.4297C37.1718 25.3414 37.1311 25.2608 37.1083 25.2156C37.1069 25.2127 37.1055 25.21 37.1042 25.2074C37.0739 25.1469 37.0683 25.1286 37.0683 25.1192V25.0797L37.0488 25.0453L33.9433 19.559Z" fill="#0369CA" stroke="#0369CA" stroke-width="0.3"></path><path d="M14.4125 25.3262C14.4125 26.5427 15.4064 27.5465 16.5293 27.5465C17.7508 27.5465 18.7496 26.5477 18.7496 25.3262C18.7496 24.0947 17.7405 23.2094 16.5293 23.2094C15.4165 23.2094 14.4125 24.0996 14.4125 25.3262ZM15.9547 25.3262C15.9547 24.995 16.1981 24.7516 16.5293 24.7516C16.7004 24.7516 16.8736 24.8163 17.0026 24.9238C17.1308 25.0307 17.2074 25.1722 17.2074 25.3262C17.2074 25.4844 17.1268 25.6552 16.9926 25.7894C16.8583 25.9237 16.6875 26.0043 16.5293 26.0043C16.3753 26.0043 16.2338 25.9277 16.127 25.7995C16.0195 25.6705 15.9547 25.4973 15.9547 25.3262Z" fill="#0369CA" stroke="#0369CA" stroke-width="0.3"></path><path d="M22.3812 18.5977C22.3812 19.7105 23.2714 20.7145 24.498 20.7145C25.7146 20.7145 26.7184 19.7206 26.7184 18.5977C26.7184 17.3761 25.7196 16.3773 24.498 16.3773C23.2666 16.3773 22.3812 17.3864 22.3812 18.5977ZM23.9234 18.5977C23.9234 18.3688 23.9917 18.2001 24.0915 18.0904C24.1904 17.9815 24.3302 17.9195 24.498 17.9195C24.8418 17.9195 25.1762 18.1749 25.1762 18.5977C25.1762 18.7517 25.0996 18.8932 24.9714 19C24.8424 19.1075 24.6691 19.1723 24.498 19.1723C24.1668 19.1723 23.9234 18.9289 23.9234 18.5977Z" fill="#0369CA" stroke="#0369CA" stroke-width="0.3"></path><path d="M26.3148 25.2227C26.3148 26.3407 27.3136 27.3395 28.4316 27.3395C29.6482 27.3395 30.652 26.3456 30.652 25.2227C30.652 24.0011 29.6532 23.0023 28.4316 23.0023C27.3087 23.0023 26.3148 24.0061 26.3148 25.2227ZM27.857 25.2227C27.857 24.9938 27.9253 24.8251 28.0251 24.7154C28.124 24.6065 28.2638 24.5445 28.4316 24.5445C28.7754 24.5445 29.1098 24.7999 29.1098 25.2227C29.1098 25.3767 29.0332 25.5182 28.9049 25.625C28.776 25.7325 28.6027 25.7973 28.4316 25.7973C28.1004 25.7973 27.857 25.5539 27.857 25.2227Z" fill="#0369CA" stroke="#0369CA" stroke-width="0.3"></path><path d="M30.2484 30.502C30.2484 31.62 31.2472 32.6188 32.3652 32.6188C33.5817 32.6188 34.5855 31.6249 34.5855 30.502C34.5855 29.2804 33.5867 28.2816 32.3652 28.2816C31.2423 28.2816 30.2484 29.2854 30.2484 30.502ZM31.7906 30.502C31.7906 30.3309 31.8554 30.1576 31.9629 30.0286C32.0697 29.9004 32.2112 29.8238 32.3652 29.8238C32.788 29.8238 33.0434 30.1582 33.0434 30.502C33.0434 30.6698 32.9813 30.8096 32.8725 30.9085C32.7628 31.0083 32.5941 31.0766 32.3652 31.0766C32.034 31.0766 31.7906 30.8332 31.7906 30.502Z" fill="#0369CA" stroke="#0369CA" stroke-width="0.3"></path><path d="M30.0414 19.0117C30.0414 20.2383 31.0454 21.1285 32.1582 21.1285C33.3694 21.1285 34.3785 20.2431 34.3785 19.0117C34.3785 17.7902 33.3797 16.7914 32.1582 16.7914C31.0353 16.7914 30.0414 17.7952 30.0414 19.0117ZM31.5836 19.0117C31.5836 18.8406 31.6484 18.6674 31.7559 18.5384C31.8627 18.4102 32.0042 18.3336 32.1582 18.3336C32.5809 18.3336 32.8363 18.6679 32.8363 19.0117C32.8363 19.1796 32.7743 19.3193 32.6655 19.4183C32.5557 19.5181 32.387 19.5863 32.1582 19.5863C31.827 19.5863 31.5836 19.3429 31.5836 19.0117Z" fill="#0369CA" stroke="#0369CA" stroke-width="0.3"></path></svg>