<svg xmlns="http://www.w3.org/2000/svg" id="Layer_1" data-name="Layer 1" viewBox="0 0 73 61"><defs><style>.cls-1{fill:#0369ca;}</style></defs><g id="Layer_1-2" data-name="Layer 1"><path class="cls-1" d="M66.21,13.52V5a1.06,1.06,0,0,0-.64-1L58.14.87a1.09,1.09,0,0,0-.83,0L49.88,4.05a1.09,1.09,0,0,0-.65,1v8.49a1.09,1.09,0,0,0,.65,1l.79.34-3.56,3.55v-.62a1.06,1.06,0,0,0-1.06-1.07H24.83a1,1,0,0,0-.49.14l-2-2,.79-.34a1.09,1.09,0,0,0,.65-1V5a1.09,1.09,0,0,0-.65-1L15.69.87a1.09,1.09,0,0,0-.83,0L7.43,4.05a1.06,1.06,0,0,0-.64,1v8.49a1.06,1.06,0,0,0,.64,1l7.43,3.18a1.09,1.09,0,0,0,.83,0l4.54-1.94,3.54,3.52V41.11a2.59,2.59,0,0,0,.05.56l-3.59,3.59-4.54-1.94a1.09,1.09,0,0,0-.83,0L7.43,46.5a1.06,1.06,0,0,0-.64,1V56a1.06,1.06,0,0,0,.64,1l7.43,3.18a1.09,1.09,0,0,0,.83,0L23.12,57a1.09,1.09,0,0,0,.65-1V47.48a1.09,1.09,0,0,0-.65-1l-.79-.34,2.61-2.6a3.23,3.23,0,0,0,2,.74h19.1a3.23,3.23,0,0,0,2-.74l2.61,2.6-.79.34a1.09,1.09,0,0,0-.65,1V56a1.09,1.09,0,0,0,.65,1l7.43,3.18a1.09,1.09,0,0,0,.83,0L65.57,57a1.06,1.06,0,0,0,.64-1V47.48a1.06,1.06,0,0,0-.64-1l-7.43-3.18a1.09,1.09,0,0,0-.83,0l-4.54,1.94-3.54-3.59a2.62,2.62,0,0,0,0-.56V39a1.05,1.05,0,0,0-1.06-1.06H47.11V21.38l5.66-5.64,4.54,1.94a1.09,1.09,0,0,0,.83,0l7.43-3.18A1.06,1.06,0,0,0,66.21,13.52ZM16.34,8.91l5.3-2.27v6.18l-5.3,2.27ZM15.28,3,20,5l-4.73,2L10.54,5ZM8.91,6.64l5.3,2.27v6.18l-5.3-2.27Zm6.37,38.81,4.73,2-4.73,2-4.74-2ZM8.91,49.09l5.3,2.27v6.18l-5.3-2.27Zm7.43,8.49V51.36l5.3-2.27v6.18Zm35-8.49,5.3,2.27v6.18l-5.3-2.27Zm7.43,8.49V51.36l5.3-2.27v6.18ZM57.72,45.45l4.74,2-4.74,2-4.73-2ZM46.05,42.17H29.94a3,3,0,0,0,.19-1.06V40.05h17v1.06A1.05,1.05,0,0,1,46.05,42.17Zm-17-4.24A1.06,1.06,0,0,0,28,39v2.12a1.06,1.06,0,0,1-2.12,0V18.83H45v19.1ZM57.72,3l4.74,2-4.74,2L53,5Zm-6.36,9.82V6.64l5.3,2.27v6.18Zm7.43,2.27V8.91l5.3-2.27v6.18Z"></path><path class="cls-1" d="M32,23.38a1.06,1.06,0,0,0-1.5,0h0L28.32,25.5a1.06,1.06,0,0,0,0,1.5h0l2.12,2.12a1.06,1.06,0,0,0,1.51,0,1.08,1.08,0,0,0,0-1.51l-1.38-1.36L32,24.89a1.06,1.06,0,0,0,0-1.5Z"></path><path class="cls-1" d="M40.44,23.38a1.07,1.07,0,0,0-1.51,1.51l1.38,1.37-1.38,1.36a1.07,1.07,0,0,0,1.51,1.51L42.56,27a1.06,1.06,0,0,0,0-1.5h0Z"></path><path class="cls-1" d="M35.44,30.75l2.12-8.49a1.09,1.09,0,0,0-2.12-.5l-2.12,8.49a1.06,1.06,0,0,0,.82,1.25,1.07,1.07,0,0,0,1.24-.75Z"></path><path class="cls-1" d="M31.19,33.68H29.07a1.07,1.07,0,0,0,0,2.13h2.12a1.07,1.07,0,1,0,0-2.13Z"></path><path class="cls-1" d="M41.81,33.68H35.44a1.07,1.07,0,0,0,0,2.13h6.37a1.07,1.07,0,0,0,0-2.13Z"></path></g></svg>