<svg xmlns="http://www.w3.org/2000/svg" width="63" height="54" viewBox="0 0 63 54" fill="none"><path d="M35.3938 23.5306C35.3938 21.2137 33.5146 19.3287 31.2048 19.3287C28.8948 19.3287 27.0156 21.2137 27.0156 23.5306C27.0156 25.4792 28.3449 27.1218 30.1415 27.5951L30.1627 32.0474C30.1655 32.6353 30.643 33.0948 31.2301 33.0948H31.2353C31.8249 33.0948 32.3005 32.6329 32.2979 32.0433L32.2766 27.5926C34.069 27.1163 35.3938 25.476 35.3938 23.5306ZM31.2049 25.5974C30.0724 25.5974 29.1509 24.6702 29.1509 23.5306C29.1509 22.3909 30.0722 21.4639 31.2049 21.4639C32.3374 21.4639 33.2588 22.3909 33.2588 23.5306C33.2588 24.6702 32.3374 25.5974 31.2049 25.5974Z" fill="#0369CA"></path><path d="M58.4458 22.2864C56.6063 22.2864 55.0534 23.4866 54.5844 25.2215H47.3986C47.8201 23.2198 48.1267 21.218 48.365 19.0829H53.579C54.1686 19.0829 54.5798 18.6464 54.5798 18.0568V7.86149C56.3146 7.39536 57.5587 5.84244 57.5587 4.00261C57.5587 1.79553 55.7778 0 53.5681 0C51.3585 0 49.5359 1.79553 49.5359 4.00261C49.5359 5.8383 50.8432 7.38828 52.4446 7.85828V16.9477H48.5857C48.7409 15.3464 48.8646 13.6216 48.9795 11.9213C49.0256 11.2398 48.4116 10.7203 47.7502 10.8231C46.4825 11.0655 45.2006 11.2482 43.9073 11.2482C39.6117 11.248 35.6646 9.30018 31.9047 5.35295C31.3702 4.8975 30.8444 4.90724 30.3275 5.38218C26.3348 10.0663 20.7945 12.0136 14.7037 10.8227C14.0399 10.6928 13.3875 11.2397 13.4337 11.9216C13.5507 13.6488 13.6739 15.3464 13.8243 16.9477H10.2754V7.85828C11.8768 7.38828 13.198 5.83843 13.198 4.00261C13.198 1.79553 11.3948 0 9.18515 0C6.97553 0 5.18628 1.79553 5.18628 4.00261C5.18628 5.84257 6.40545 7.39536 8.14026 7.86149V18.0567C8.14026 18.6463 8.59558 19.0828 9.18515 19.0828H14.0402C14.2761 21.2179 14.5771 23.2196 14.9922 25.2213H7.86883C7.39976 23.4865 5.84697 22.2863 4.00741 22.2863C1.79766 22.2864 0 24.0821 0 26.2892C0 28.4961 1.79766 30.2916 4.00728 30.2916C5.84684 30.2916 7.39963 29.0914 7.86869 27.3566H15.5013C16.073 29.4964 16.8812 31.4812 17.7815 33.4952H9.18515C8.59558 33.4952 8.14026 33.9318 8.14026 34.5214V45.252C6.40545 45.72 5.18935 47.2714 5.18935 49.1092C5.18935 51.3163 6.98127 53.1118 9.19088 53.1118C11.4006 53.1118 13.2067 51.3163 13.2067 49.1092C13.2067 47.2714 12.0102 45.72 10.2754 45.252V35.6303H19.0036C21.7377 39.9006 25.6462 42.9082 30.8485 44.8483C31.0997 44.9235 31.3512 44.9242 31.6029 44.8501C36.757 42.8782 40.638 39.7672 43.3633 35.6303H52.4446V45.252C50.8432 45.72 49.5383 47.2714 49.5383 49.1092C49.5383 51.3163 51.3526 53.1118 53.5624 53.1118C55.7721 53.1118 57.5445 51.3163 57.5445 49.1092C57.5445 47.2714 56.3146 45.72 54.5798 45.252V34.5215C54.5798 33.9319 54.1686 33.4953 53.579 33.4953H44.5925C45.5102 31.4873 46.3162 29.4939 46.8867 27.3567H54.5843C55.0534 29.0915 56.6061 30.2918 58.4457 30.2918C60.6555 30.2916 62.4531 28.4961 62.4531 26.289C62.4531 24.082 60.6555 22.2864 58.4458 22.2864ZM51.7128 4.00261C51.7128 2.9728 52.5526 2.13515 53.5848 2.13515C54.617 2.13515 55.4569 2.9728 55.4569 4.00261C55.4569 5.03241 54.617 5.87006 53.5848 5.87006C52.5526 5.87006 51.7128 5.03241 51.7128 4.00261ZM7.30728 4.00261C7.30728 2.9728 8.1472 2.13515 9.17941 2.13515C10.2116 2.13515 11.0515 2.9728 11.0515 4.00261C11.0515 5.03241 10.2116 5.87006 9.17941 5.87006C8.1472 5.87006 7.30728 5.03241 7.30728 4.00261ZM4.00728 28.1565C2.97506 28.1565 2.13515 27.3188 2.13515 26.2892C2.13515 25.2594 2.97506 24.4217 4.00728 24.4217C5.03949 24.4217 5.8794 25.2594 5.8794 26.2892C5.87953 27.3188 5.03962 28.1565 4.00728 28.1565ZM11.0573 49.1092C11.0573 50.139 10.2174 50.9767 9.18515 50.9767C8.15294 50.9767 7.31315 50.139 7.31315 49.1092C7.31315 48.0794 8.15294 47.2418 9.18515 47.2418C10.2174 47.2418 11.0573 48.0794 11.0573 49.1092ZM55.4512 49.1092C55.4512 50.139 54.6113 50.9767 53.579 50.9767C52.5468 50.9767 51.7069 50.139 51.7069 49.1092C51.7069 48.0794 52.5468 47.2418 53.579 47.2418C54.6113 47.2418 55.4512 48.0794 55.4512 49.1092ZM15.6581 13.1389C21.4184 13.8813 27.3036 12.0868 31.1812 7.64904C35.3777 11.7178 40.8505 14.1156 46.7559 13.1308C45.7579 26.8503 43.7013 37.7085 31.2167 42.683C18.7246 37.8255 16.6631 26.9285 15.6581 13.1389ZM58.4458 28.1565C57.4136 28.1565 56.5737 27.3188 56.5737 26.2892C56.5737 25.2594 57.4136 24.4217 58.4458 24.4217C59.4781 24.4217 60.318 25.2594 60.318 26.2892C60.318 27.3188 59.4781 28.1565 58.4458 28.1565Z" fill="#0369CA"></path></svg>