<svg xmlns="http://www.w3.org/2000/svg" id="Layer_1" data-name="Layer 1" viewBox="0 0 73 61"><defs><style>.cls-1{fill:#048def;}</style></defs><path class="cls-1" d="M46.61,10.28H14.26a1,1,0,0,1-1-1V3.76A3.59,3.59,0,0,1,16.83.17H44a3.59,3.59,0,0,1,3.59,3.59V9.27A1,1,0,0,1,46.61,10.28Zm-31.34-2H45.6V3.76A1.57,1.57,0,0,0,44,2.19H16.83a1.56,1.56,0,0,0-1.56,1.57Z"></path><path class="cls-1" d="M44,60.83H16.83a3.59,3.59,0,0,1-3.58-3.59V51.73a1,1,0,0,1,1-1H46.61a1,1,0,0,1,1,1v5.51A3.59,3.59,0,0,1,44,60.83ZM15.27,52.74v4.5a1.56,1.56,0,0,0,1.56,1.57H44a1.57,1.57,0,0,0,1.57-1.57v-4.5Z"></path><path class="cls-1" d="M30.43,60.83a5.06,5.06,0,1,1,5.06-5.06A5.06,5.06,0,0,1,30.43,60.83Zm0-8.09a3,3,0,1,0,3,3A3,3,0,0,0,30.43,52.74Z"></path><path class="cls-1" d="M33.47,6.24H27.4a1,1,0,0,1,0-2h6.07a1,1,0,0,1,0,2Z"></path><path class="cls-1" d="M56.72,45.66H28.41a3,3,0,0,1-3-3V18.37a3,3,0,0,1,3-3H56.72a3,3,0,0,1,3,3V42.63A3,3,0,0,1,56.72,45.66ZM28.41,17.36a1,1,0,0,0-1,1V42.63a1,1,0,0,0,1,1H56.72a1,1,0,0,0,1-1V18.37a1,1,0,0,0-1-1Z"></path><path class="cls-1" d="M22.35,21.4H18.3a1,1,0,0,1-1-1v-4a1,1,0,0,1,1-1h4.05a1,1,0,0,1,1,1v4A1,1,0,0,1,22.35,21.4Zm-3-2h2v-2h-2Z"></path><path class="cls-1" d="M22.35,45.66H18.3a1,1,0,0,1-1-1v-4a1,1,0,0,1,1-1h4.05a1,1,0,0,1,1,1v4A1,1,0,0,1,22.35,45.66Zm-3-2h2v-2h-2Z"></path><path class="cls-1" d="M22.35,37.58H18.3a1,1,0,0,1-1-1v-4a1,1,0,0,1,1-1h4.05a1,1,0,0,1,1,1v4A1,1,0,0,1,22.35,37.58Zm-3-2h2v-2h-2Z"></path><path class="cls-1" d="M22.35,29.49H18.3a1,1,0,0,1-1-1V24.43a1,1,0,0,1,1-1h4.05a1,1,0,0,1,1,1v4.05A1,1,0,0,1,22.35,29.49Zm-3-2h2v-2h-2Z"></path><path class="cls-1" d="M44,60.83H16.83a3.59,3.59,0,0,1-3.58-3.59V3.76A3.59,3.59,0,0,1,16.83.17H44a3.59,3.59,0,0,1,3.59,3.59V16.35a1,1,0,0,1-1,1H28.41a1,1,0,0,0-1,1V42.63a1,1,0,0,0,1,1h18.2a1,1,0,0,1,1,1V57.24A3.59,3.59,0,0,1,44,60.83ZM16.83,2.19a1.56,1.56,0,0,0-1.56,1.57V57.24a1.56,1.56,0,0,0,1.56,1.57H44a1.57,1.57,0,0,0,1.57-1.57V45.66H28.41a3,3,0,0,1-3-3V18.37a3,3,0,0,1,3-3H45.6V3.76A1.57,1.57,0,0,0,44,2.19Z"></path><path class="cls-1" d="M42.57,30.5a1,1,0,0,1-.5-.13L33,25.32a1,1,0,0,1,.08-1.81l9.1-4a1,1,0,0,1,.82,0l9.1,4a1,1,0,0,1,.08,1.81l-9.1,5.05a1,1,0,0,1-.49.13Zm-6.84-6,6.84,3.79,6.83-3.79-6.83-3Z"></path><path class="cls-1" d="M42.57,41.62a1,1,0,0,1-.5-.13L33,36.44a1,1,0,0,1-.52-.89V24.43a1,1,0,0,1,1.5-.88l9.1,5.06a1,1,0,0,1,.52.88V40.61a1,1,0,0,1-.5.87A1.06,1.06,0,0,1,42.57,41.62ZM34.48,35l7.07,3.93V30.08l-7.07-3.93Z"></path><path class="cls-1" d="M42.57,41.62a1.07,1.07,0,0,1-.52-.14,1,1,0,0,1-.5-.87V29.49a1,1,0,0,1,.52-.88l9.1-5.06a1,1,0,0,1,1,0,1,1,0,0,1,.5.87V35.55a1,1,0,0,1-.52.89l-9.1,5.05A1,1,0,0,1,42.57,41.62Zm1-11.54v8.81L50.65,35V26.15Z"></path></svg>