<svg xmlns="http://www.w3.org/2000/svg" width="62" height="62" viewBox="0 0 62 62" fill="none"><g clip-path="url(#clip0_1628_76)"><path d="M51.3438 31.9688H57.1562V33.9062H51.3438V31.9688Z" fill="#047BDC"></path><path d="M51.3438 28.0938H57.1562V30.0312H51.3438V28.0938Z" fill="#047BDC"></path><path d="M51.3438 47.4688H57.1562V49.4062H51.3438V47.4688Z" fill="#047BDC"></path><path d="M51.3438 43.5938H57.1562V45.5312H51.3438V43.5938Z" fill="#047BDC"></path><path d="M59.0938 22.2812C60.1623 22.2812 61.0312 21.4123 61.0312 20.3438V10.6562C61.0312 9.58772 60.1623 8.71875 59.0938 8.71875H55.2188V5.8125C55.2188 4.21019 53.9148 2.90625 52.3125 2.90625H35.6655C35.2644 1.78153 34.1988 0.96875 32.9375 0.96875C31.6762 0.96875 30.6106 1.78153 30.2095 2.90625H13.5625C11.9602 2.90625 10.6562 4.21019 10.6562 5.8125V10.6727C4.57153 10.8423 0.96875 12.618 0.96875 15.5V46.5C0.96875 49.382 4.57153 51.1578 10.6562 51.3273V56.1875C10.6562 57.7898 11.9602 59.0938 13.5625 59.0938H30.2095C30.6106 60.2185 31.6762 61.0312 32.9375 61.0312C34.1988 61.0312 35.2644 60.2185 35.6655 59.0938H52.3125C53.9148 59.0938 55.2188 57.7898 55.2188 56.1875V53.2812H59.0938C60.1623 53.2812 61.0312 52.4123 61.0312 51.3438V41.6562C61.0312 40.5877 60.1623 39.7188 59.0938 39.7188H55.2188V37.7812H59.0938C60.1623 37.7812 61.0312 36.9123 61.0312 35.8438V26.1562C61.0312 25.0877 60.1623 24.2188 59.0938 24.2188H55.2188V22.2812H59.0938ZM59.0947 20.3438H49.4062V10.6562H59.0938L59.0947 20.3438ZM32.9375 2.90625C33.4722 2.90625 33.9062 3.34122 33.9062 3.875C33.9062 4.40878 33.4722 4.84375 32.9375 4.84375C32.4028 4.84375 31.9688 4.40878 31.9688 3.875C31.9688 3.34122 32.4028 2.90625 32.9375 2.90625ZM10.6562 12.6092V16.4688H12.5938V12.6092C17.6845 12.7642 20.3438 14.1399 20.3438 15.5C20.3438 16.9444 17.3484 18.4062 11.625 18.4062C5.90163 18.4062 2.90625 16.9444 2.90625 15.5C2.90625 14.1399 5.56547 12.7652 10.6562 12.6092ZM31.3148 27.6869C31.7798 28.8126 32.737 29.6234 33.9062 29.914V32.0792C32.7525 32.365 31.7818 33.1845 31.3023 34.3432C30.8295 35.4747 30.9302 36.7311 31.5532 37.7667L30.0216 39.2983C29.0015 38.6832 27.7295 38.5785 26.5631 39.0648C25.4374 39.5298 24.6266 40.487 24.336 41.6562H22.2812V37.6989C22.6019 37.7454 22.9235 37.7812 23.25 37.7812C26.9884 37.7812 30.0312 34.7384 30.0312 31C30.0312 27.2606 26.9884 24.2188 23.25 24.2188C22.9235 24.2188 22.6009 24.2546 22.2812 24.3011V20.3438H24.3292C24.615 21.4975 25.4345 22.4682 26.5932 22.9477C27.7256 23.4205 28.9811 23.3198 30.0167 22.6968L31.5483 24.2284C30.9332 25.2495 30.8285 26.5215 31.3148 27.6869ZM22.2812 33.728C22.5854 33.8365 22.909 33.9062 23.25 33.9062C24.8523 33.9062 26.1562 32.6023 26.1562 31C26.1562 29.3977 24.8523 28.0938 23.25 28.0938C22.909 28.0938 22.5854 28.1635 22.2812 28.272V26.2638C22.599 26.1989 22.9216 26.1562 23.25 26.1562C25.9208 26.1562 28.0938 28.3292 28.0938 31C28.0938 33.6708 25.9208 35.8438 23.25 35.8438C22.9216 35.8438 22.599 35.8011 22.2812 35.7362V33.728ZM23.25 30.0312C23.7847 30.0312 24.2188 30.4662 24.2188 31C24.2188 31.5338 23.7847 31.9688 23.25 31.9688C22.7153 31.9688 22.2812 31.5338 22.2812 31C22.2812 30.4662 22.7153 30.0312 23.25 30.0312ZM2.90625 18.5748C4.70619 19.7112 7.69381 20.3438 11.625 20.3438C15.5562 20.3438 18.5438 19.7112 20.3438 18.5748V23.25C20.3438 24.6944 17.3484 26.1562 11.625 26.1562C5.90163 26.1562 2.90625 24.6944 2.90625 23.25V18.5748ZM2.90625 26.3248C4.70619 27.4612 7.69381 28.0938 11.625 28.0938C15.5562 28.0938 18.5438 27.4612 20.3438 26.3248V31C20.3438 32.4444 17.3484 33.9062 11.625 33.9062C5.90163 33.9062 2.90625 32.4444 2.90625 31V26.3248ZM2.90625 34.0748C4.70619 35.2112 7.69381 35.8438 11.625 35.8438C15.5562 35.8438 18.5438 35.2112 20.3438 34.0748V38.75C20.3438 40.1944 17.3484 41.6562 11.625 41.6562C5.90163 41.6562 2.90625 40.1944 2.90625 38.75V34.0748ZM2.90625 46.5V41.8248C4.70619 42.9612 7.69381 43.5938 11.625 43.5938C15.5562 43.5938 18.5438 42.9612 20.3438 41.8248V46.5C20.3438 47.9444 17.3484 49.4062 11.625 49.4062C5.90163 49.4062 2.90625 47.9444 2.90625 46.5ZM32.9375 59.0938C32.4028 59.0938 31.9688 58.6597 31.9688 58.125C31.9688 57.5903 32.4028 57.1562 32.9375 57.1562C33.4722 57.1562 33.9062 57.5903 33.9062 58.125C33.9062 58.6597 33.4722 59.0938 32.9375 59.0938ZM59.0957 51.3438H49.4062V41.6562H59.0938L59.0957 51.3438ZM59.0957 35.8438H49.4062V26.1562H59.0938L59.0957 35.8438ZM53.2812 24.2188H49.4062C48.3377 24.2188 47.4688 25.0877 47.4688 26.1562V35.8438C47.4688 36.9123 48.3377 37.7812 49.4062 37.7812H53.2812V39.7188H49.4062C48.3377 39.7188 47.4688 40.5877 47.4688 41.6562V51.3438C47.4688 52.4123 48.3377 53.2812 49.4062 53.2812H53.2812V56.1875C53.2812 56.7222 52.8472 57.1562 52.3125 57.1562H35.6655C35.2644 56.0315 34.1988 55.2188 32.9375 55.2188C31.6762 55.2188 30.6106 56.0315 30.2095 57.1562H13.5625C13.0278 57.1562 12.5938 56.7222 12.5938 56.1875V51.3273C18.6785 51.1578 22.2812 49.383 22.2812 46.5V43.5938H25.1875L26.1562 43.5385V42.5698C26.1562 41.8161 26.6067 41.1428 27.341 40.8406C28.0463 40.5451 28.8436 40.702 29.4161 41.2746L30.101 41.9595L33.5255 38.5349L34.1717 37.8113L33.4868 37.1264C32.952 36.5916 32.797 35.7934 33.107 35.0523C33.3938 34.3567 34.0661 33.9062 34.875 33.9062H35.8438V29.0625L35.7885 28.0938H34.8198C34.0661 28.0938 33.3928 27.6443 33.0906 26.909C32.7961 26.2066 32.9511 25.4074 33.5284 24.83L34.2056 24.1451L30.7849 20.7245L30.0613 20.0783L29.3764 20.7632C28.8416 21.297 28.0453 21.453 27.3023 21.1439C26.6067 20.8562 26.1562 20.1829 26.1562 19.375V18.4062H22.2812V15.5C22.2812 12.618 18.6785 10.8423 12.5938 10.6727V5.8125C12.5938 5.27872 13.0278 4.84375 13.5625 4.84375H30.2095C30.6106 5.96847 31.6762 6.78125 32.9375 6.78125C34.1988 6.78125 35.2644 5.96847 35.6655 4.84375H52.3125C52.8472 4.84375 53.2812 5.27872 53.2812 5.8125V8.71875H49.4062C48.3377 8.71875 47.4688 9.58772 47.4688 10.6562V20.3438C47.4688 21.4123 48.3377 22.2812 49.4062 22.2812H53.2812V24.2188Z" fill="#047BDC"></path><path d="M51.3438 16.4688H57.1562V18.4062H51.3438V16.4688Z" fill="#047BDC"></path><path d="M51.3438 12.5938H57.1562V14.5312H51.3438V12.5938Z" fill="#047BDC"></path></g><defs><clipPath id="clip0_1628_76"><rect width="62" height="62" fill="white"></rect></clipPath></defs></svg>