<svg xmlns="http://www.w3.org/2000/svg" width="50" height="43" viewBox="0 0 50 43" fill="none"><mask id="path-1-outside-1_1577_234" maskUnits="userSpaceOnUse" x="-0.679688" y="-0.00439453" width="51" height="43" fill="black"><rect fill="white" x="-0.679688" y="-0.00439453" width="51" height="43"></rect><path d="M33.4924 16.4937H30.1981C29.8631 16.4937 29.5909 16.7659 29.5909 17.1009V22.8192C29.3793 22.5814 29.1587 22.3516 28.9279 22.133C28.93 22.1148 28.931 22.0966 28.931 22.0784V9.66311C28.931 9.32811 28.6587 9.05586 28.3237 9.05586H25.0294C24.6944 9.05586 24.4221 9.32811 24.4221 9.66311V19.5198C23.4111 19.2182 22.3403 19.0553 21.232 19.0553C20.2098 19.0553 19.22 19.1939 18.2778 19.452V9.76736H20.4983C20.7219 9.76736 20.9274 9.64489 21.0337 9.44754C21.1399 9.25018 21.1288 9.01133 21.0053 8.8251L16.0016 1.26786C15.8892 1.09783 15.699 0.995605 15.4955 0.995605C15.2921 0.995605 15.1018 1.09783 14.9895 1.26786L9.98574 8.8251C9.86226 9.01133 9.85113 9.25119 9.9574 9.44754C10.0627 9.64489 10.2691 9.76736 10.4928 9.76736H12.7133V17.7649C12.0909 17.7689 11.4695 17.8175 10.8521 17.9147C10.5869 17.9561 10.3804 18.1667 10.344 18.4328L10.1396 19.9408C9.17101 20.1898 8.249 20.5704 7.38973 21.0784L6.17827 20.1564C5.96472 19.9935 5.66919 19.9904 5.4526 20.1493C4.39902 20.9185 3.47499 21.8415 2.70681 22.8951C2.54893 23.1117 2.55196 23.4072 2.7139 23.6208L3.63591 24.8312C3.12784 25.6905 2.74628 26.6115 2.49832 27.5811L0.990313 27.7855C0.724135 27.822 0.513621 28.0284 0.472125 28.2936C0.269708 29.582 0.269708 30.8896 0.472125 32.177C0.513621 32.4421 0.724135 32.6486 0.990313 32.685L2.49832 32.8895C2.74628 33.858 3.12784 34.7801 3.63692 35.6393L2.71491 36.8508C2.55196 37.0643 2.54893 37.3599 2.70782 37.5764C3.47701 38.63 4.40003 39.5541 5.45361 40.3222C5.6702 40.4801 5.96573 40.4771 6.17928 40.3152L7.38973 39.3931C8.249 39.9012 9.17101 40.2828 10.1396 40.5307L10.344 42.0387C10.3804 42.3049 10.5869 42.5154 10.8521 42.5569C11.4968 42.6581 12.1455 42.7087 12.7943 42.7087C13.443 42.7087 14.0918 42.6581 14.7355 42.5569C15.0006 42.5154 15.2071 42.3049 15.2435 42.0387L15.448 40.5307C15.7374 40.4558 16.0249 40.3688 16.3062 40.2706C17.794 41.0044 19.4659 41.4173 21.2341 41.4173C24.9565 41.4173 28.259 39.5885 30.2922 36.782H33.4935C33.8285 36.782 34.1007 36.5097 34.1007 36.1747V17.1009C34.1007 16.94 34.0369 16.7852 33.9226 16.6718C33.8092 16.5585 33.6544 16.4937 33.4935 16.4937H33.4924ZM25.6366 10.2704H27.7165V21.1331C27.0708 20.6716 26.3744 20.2779 25.6366 19.9611V10.2714V10.2704ZM11.6223 8.55285L15.4955 2.703L19.3688 8.55285H17.6715C17.3365 8.55285 17.0643 8.8251 17.0643 9.1601V19.8619C16.8062 19.9661 16.5532 20.0795 16.3052 20.202C16.0238 20.1038 15.7364 20.0168 15.447 19.9419L15.2425 18.4339C15.2061 18.1677 14.9996 17.9572 14.7344 17.9157C14.4662 17.8732 14.197 17.8428 13.9268 17.8175V9.1601C13.9268 8.8251 13.6545 8.55285 13.3195 8.55285H11.6223ZM14.7739 39.4407C14.5239 39.4944 14.3337 39.6988 14.2992 39.9528L14.1009 41.4173C13.2315 41.5185 12.355 41.5185 11.4846 41.4173L11.2863 39.9528C11.2519 39.6988 11.0626 39.4944 10.8116 39.4407C9.69324 39.2008 8.64067 38.7657 7.68324 38.1463C7.46868 38.0066 7.18934 38.0177 6.98591 38.1726L5.81088 39.0673C5.12469 38.5238 4.50529 37.9044 3.9618 37.2172L4.85648 36.0411C5.01133 35.8377 5.02247 35.5583 4.8828 35.3428C4.2634 34.3853 3.82719 33.3328 3.58834 32.2144C3.5347 31.9644 3.33026 31.7742 3.07622 31.7397L1.61173 31.5414C1.51053 30.672 1.51053 29.7955 1.61173 28.9251L3.07622 28.7268C3.33026 28.6924 3.5347 28.5021 3.58834 28.2521C3.8282 27.1327 4.2634 26.0812 4.8828 25.1237C5.02145 24.9092 5.01133 24.6298 4.85648 24.4264L3.9618 23.2504C4.50529 22.5642 5.12469 21.9448 5.81088 21.4013L6.98692 22.297C7.19035 22.4518 7.46969 22.463 7.68425 22.3233C8.64168 21.7039 9.69425 21.2687 10.8126 21.0288C11.0626 20.9752 11.2529 20.7708 11.2873 20.5167L11.4856 19.0522C12.355 18.951 13.2315 18.951 14.1019 19.0522L14.3003 20.5167C14.3347 20.7708 14.5239 20.9752 14.7749 21.0288C14.8053 21.0349 14.8346 21.043 14.865 21.0501C13.5108 21.9923 12.3732 23.2251 11.5454 24.6582C10.4877 24.894 9.52726 25.4203 8.75403 26.1935C7.67514 27.2724 7.08004 28.7075 7.08004 30.2338C7.08004 31.76 7.67413 33.1951 8.75403 34.274C9.52726 35.0472 10.4877 35.5735 11.5454 35.8093C12.3732 37.2425 13.5108 38.4762 14.865 39.4184C14.8346 39.4255 14.8053 39.4326 14.7749 39.4397L14.7739 39.4407ZM10.8065 26.1966C10.3197 27.4495 10.0515 28.8118 10.0515 30.2348C10.0515 31.6578 10.3197 33.02 10.8065 34.273C10.3683 34.0574 9.96448 33.77 9.61126 33.4158C8.76111 32.5656 8.29353 31.4361 8.29353 30.2338C8.29353 29.0314 8.76111 27.9019 9.61126 27.0518C9.96448 26.6985 10.3683 26.4111 10.8065 26.1945V26.1966ZM21.232 40.2008C15.7364 40.2008 11.266 35.7304 11.266 30.2348C11.266 24.7392 15.7364 20.2688 21.232 20.2688C26.7277 20.2688 31.198 24.7392 31.198 30.2348C31.198 35.7304 26.7277 40.2008 21.232 40.2008ZM32.8852 35.5654H31.0584C31.9217 33.9795 32.4136 32.1638 32.4136 30.2338C32.4136 28.1236 31.8255 26.149 30.8064 24.4628V17.7051H32.8862V35.5644L32.8852 35.5654ZM38.6612 12.6973H35.3668C35.0318 12.6973 34.7596 12.9696 34.7596 13.3046V36.1727C34.7596 36.5077 35.0318 36.7799 35.3668 36.7799H38.6612C38.9962 36.7799 39.2684 36.5077 39.2684 36.1727V13.3066C39.2684 12.9716 38.9962 12.6994 38.6612 12.6994V12.6973ZM38.0539 35.5654H35.9741V13.9139H38.0539V35.5675V35.5654ZM43.8299 6.56006H40.5356C40.2006 6.56006 39.9283 6.83231 39.9283 7.16731V36.1757C39.9283 36.5107 40.2006 36.783 40.5356 36.783H43.8299C44.1649 36.783 44.4371 36.5107 44.4371 36.1757V7.17034C44.4371 6.83534 44.1649 6.56309 43.8299 6.56309V6.56006ZM43.2226 35.5654H41.1428V7.7776H43.2226V35.5685V35.5654ZM48.9986 0.996618H45.7043C45.3693 0.996618 45.097 1.26887 45.097 1.60387V36.1757C45.097 36.5107 45.3693 36.783 45.7043 36.783H48.9986C49.3336 36.783 49.6059 36.5107 49.6059 36.1757V1.60387C49.6059 1.26887 49.3336 0.996618 48.9986 0.996618ZM48.3914 35.5685H46.3115V2.21112H48.3914V35.5685ZM21.232 21.7586C16.5572 21.7586 12.7538 25.562 12.7538 30.2368C12.7538 34.9116 16.5572 38.715 21.232 38.715C25.9069 38.715 29.7103 34.9116 29.7103 30.2368C29.7103 25.562 25.9069 21.7586 21.232 21.7586ZM21.232 37.5005C17.2272 37.5005 13.9683 34.2426 13.9683 30.2368C13.9683 26.231 17.2262 22.9731 21.232 22.9731C25.2379 22.9731 28.4958 26.232 28.4958 30.2368C28.4958 34.2416 25.2369 37.5005 21.232 37.5005ZM21.8393 24.6531V30.2378C21.8393 30.5728 21.567 30.8451 21.232 30.8451H17.3153C16.9803 30.8451 16.708 30.5728 16.708 30.2378C16.708 29.9028 16.9803 29.6306 17.3153 29.6306H20.6248V24.6531C20.6248 24.3181 20.897 24.0459 21.232 24.0459C21.567 24.0459 21.8393 24.3181 21.8393 24.6531Z"></path></mask><path d="M33.4924 16.4937H30.1981C29.8631 16.4937 29.5909 16.7659 29.5909 17.1009V22.8192C29.3793 22.5814 29.1587 22.3516 28.9279 22.133C28.93 22.1148 28.931 22.0966 28.931 22.0784V9.66311C28.931 9.32811 28.6587 9.05586 28.3237 9.05586H25.0294C24.6944 9.05586 24.4221 9.32811 24.4221 9.66311V19.5198C23.4111 19.2182 22.3403 19.0553 21.232 19.0553C20.2098 19.0553 19.22 19.1939 18.2778 19.452V9.76736H20.4983C20.7219 9.76736 20.9274 9.64489 21.0337 9.44754C21.1399 9.25018 21.1288 9.01133 21.0053 8.8251L16.0016 1.26786C15.8892 1.09783 15.699 0.995605 15.4955 0.995605C15.2921 0.995605 15.1018 1.09783 14.9895 1.26786L9.98574 8.8251C9.86226 9.01133 9.85113 9.25119 9.9574 9.44754C10.0627 9.64489 10.2691 9.76736 10.4928 9.76736H12.7133V17.7649C12.0909 17.7689 11.4695 17.8175 10.8521 17.9147C10.5869 17.9561 10.3804 18.1667 10.344 18.4328L10.1396 19.9408C9.17101 20.1898 8.249 20.5704 7.38973 21.0784L6.17827 20.1564C5.96472 19.9935 5.66919 19.9904 5.4526 20.1493C4.39902 20.9185 3.47499 21.8415 2.70681 22.8951C2.54893 23.1117 2.55196 23.4072 2.7139 23.6208L3.63591 24.8312C3.12784 25.6905 2.74628 26.6115 2.49832 27.5811L0.990313 27.7855C0.724135 27.822 0.513621 28.0284 0.472125 28.2936C0.269708 29.582 0.269708 30.8896 0.472125 32.177C0.513621 32.4421 0.724135 32.6486 0.990313 32.685L2.49832 32.8895C2.74628 33.858 3.12784 34.7801 3.63692 35.6393L2.71491 36.8508C2.55196 37.0643 2.54893 37.3599 2.70782 37.5764C3.47701 38.63 4.40003 39.5541 5.45361 40.3222C5.6702 40.4801 5.96573 40.4771 6.17928 40.3152L7.38973 39.3931C8.249 39.9012 9.17101 40.2828 10.1396 40.5307L10.344 42.0387C10.3804 42.3049 10.5869 42.5154 10.8521 42.5569C11.4968 42.6581 12.1455 42.7087 12.7943 42.7087C13.443 42.7087 14.0918 42.6581 14.7355 42.5569C15.0006 42.5154 15.2071 42.3049 15.2435 42.0387L15.448 40.5307C15.7374 40.4558 16.0249 40.3688 16.3062 40.2706C17.794 41.0044 19.4659 41.4173 21.2341 41.4173C24.9565 41.4173 28.259 39.5885 30.2922 36.782H33.4935C33.8285 36.782 34.1007 36.5097 34.1007 36.1747V17.1009C34.1007 16.94 34.0369 16.7852 33.9226 16.6718C33.8092 16.5585 33.6544 16.4937 33.4935 16.4937H33.4924ZM25.6366 10.2704H27.7165V21.1331C27.0708 20.6716 26.3744 20.2779 25.6366 19.9611V10.2714V10.2704ZM11.6223 8.55285L15.4955 2.703L19.3688 8.55285H17.6715C17.3365 8.55285 17.0643 8.8251 17.0643 9.1601V19.8619C16.8062 19.9661 16.5532 20.0795 16.3052 20.202C16.0238 20.1038 15.7364 20.0168 15.447 19.9419L15.2425 18.4339C15.2061 18.1677 14.9996 17.9572 14.7344 17.9157C14.4662 17.8732 14.197 17.8428 13.9268 17.8175V9.1601C13.9268 8.8251 13.6545 8.55285 13.3195 8.55285H11.6223ZM14.7739 39.4407C14.5239 39.4944 14.3337 39.6988 14.2992 39.9528L14.1009 41.4173C13.2315 41.5185 12.355 41.5185 11.4846 41.4173L11.2863 39.9528C11.2519 39.6988 11.0626 39.4944 10.8116 39.4407C9.69324 39.2008 8.64067 38.7657 7.68324 38.1463C7.46868 38.0066 7.18934 38.0177 6.98591 38.1726L5.81088 39.0673C5.12469 38.5238 4.50529 37.9044 3.9618 37.2172L4.85648 36.0411C5.01133 35.8377 5.02247 35.5583 4.8828 35.3428C4.2634 34.3853 3.82719 33.3328 3.58834 32.2144C3.5347 31.9644 3.33026 31.7742 3.07622 31.7397L1.61173 31.5414C1.51053 30.672 1.51053 29.7955 1.61173 28.9251L3.07622 28.7268C3.33026 28.6924 3.5347 28.5021 3.58834 28.2521C3.8282 27.1327 4.2634 26.0812 4.8828 25.1237C5.02145 24.9092 5.01133 24.6298 4.85648 24.4264L3.9618 23.2504C4.50529 22.5642 5.12469 21.9448 5.81088 21.4013L6.98692 22.297C7.19035 22.4518 7.46969 22.463 7.68425 22.3233C8.64168 21.7039 9.69425 21.2687 10.8126 21.0288C11.0626 20.9752 11.2529 20.7708 11.2873 20.5167L11.4856 19.0522C12.355 18.951 13.2315 18.951 14.1019 19.0522L14.3003 20.5167C14.3347 20.7708 14.5239 20.9752 14.7749 21.0288C14.8053 21.0349 14.8346 21.043 14.865 21.0501C13.5108 21.9923 12.3732 23.2251 11.5454 24.6582C10.4877 24.894 9.52726 25.4203 8.75403 26.1935C7.67514 27.2724 7.08004 28.7075 7.08004 30.2338C7.08004 31.76 7.67413 33.1951 8.75403 34.274C9.52726 35.0472 10.4877 35.5735 11.5454 35.8093C12.3732 37.2425 13.5108 38.4762 14.865 39.4184C14.8346 39.4255 14.8053 39.4326 14.7749 39.4397L14.7739 39.4407ZM10.8065 26.1966C10.3197 27.4495 10.0515 28.8118 10.0515 30.2348C10.0515 31.6578 10.3197 33.02 10.8065 34.273C10.3683 34.0574 9.96448 33.77 9.61126 33.4158C8.76111 32.5656 8.29353 31.4361 8.29353 30.2338C8.29353 29.0314 8.76111 27.9019 9.61126 27.0518C9.96448 26.6985 10.3683 26.4111 10.8065 26.1945V26.1966ZM21.232 40.2008C15.7364 40.2008 11.266 35.7304 11.266 30.2348C11.266 24.7392 15.7364 20.2688 21.232 20.2688C26.7277 20.2688 31.198 24.7392 31.198 30.2348C31.198 35.7304 26.7277 40.2008 21.232 40.2008ZM32.8852 35.5654H31.0584C31.9217 33.9795 32.4136 32.1638 32.4136 30.2338C32.4136 28.1236 31.8255 26.149 30.8064 24.4628V17.7051H32.8862V35.5644L32.8852 35.5654ZM38.6612 12.6973H35.3668C35.0318 12.6973 34.7596 12.9696 34.7596 13.3046V36.1727C34.7596 36.5077 35.0318 36.7799 35.3668 36.7799H38.6612C38.9962 36.7799 39.2684 36.5077 39.2684 36.1727V13.3066C39.2684 12.9716 38.9962 12.6994 38.6612 12.6994V12.6973ZM38.0539 35.5654H35.9741V13.9139H38.0539V35.5675V35.5654ZM43.8299 6.56006H40.5356C40.2006 6.56006 39.9283 6.83231 39.9283 7.16731V36.1757C39.9283 36.5107 40.2006 36.783 40.5356 36.783H43.8299C44.1649 36.783 44.4371 36.5107 44.4371 36.1757V7.17034C44.4371 6.83534 44.1649 6.56309 43.8299 6.56309V6.56006ZM43.2226 35.5654H41.1428V7.7776H43.2226V35.5685V35.5654ZM48.9986 0.996618H45.7043C45.3693 0.996618 45.097 1.26887 45.097 1.60387V36.1757C45.097 36.5107 45.3693 36.783 45.7043 36.783H48.9986C49.3336 36.783 49.6059 36.5107 49.6059 36.1757V1.60387C49.6059 1.26887 49.3336 0.996618 48.9986 0.996618ZM48.3914 35.5685H46.3115V2.21112H48.3914V35.5685ZM21.232 21.7586C16.5572 21.7586 12.7538 25.562 12.7538 30.2368C12.7538 34.9116 16.5572 38.715 21.232 38.715C25.9069 38.715 29.7103 34.9116 29.7103 30.2368C29.7103 25.562 25.9069 21.7586 21.232 21.7586ZM21.232 37.5005C17.2272 37.5005 13.9683 34.2426 13.9683 30.2368C13.9683 26.231 17.2262 22.9731 21.232 22.9731C25.2379 22.9731 28.4958 26.232 28.4958 30.2368C28.4958 34.2416 25.2369 37.5005 21.232 37.5005ZM21.8393 24.6531V30.2378C21.8393 30.5728 21.567 30.8451 21.232 30.8451H17.3153C16.9803 30.8451 16.708 30.5728 16.708 30.2378C16.708 29.9028 16.9803 29.6306 17.3153 29.6306H20.6248V24.6531C20.6248 24.3181 20.897 24.0459 21.232 24.0459C21.567 24.0459 21.8393 24.3181 21.8393 24.6531Z" fill="#0369CA"></path><path d="M33.4924 16.4937H30.1981C29.8631 16.4937 29.5909 16.7659 29.5909 17.1009V22.8192C29.3793 22.5814 29.1587 22.3516 28.9279 22.133C28.93 22.1148 28.931 22.0966 28.931 22.0784V9.66311C28.931 9.32811 28.6587 9.05586 28.3237 9.05586H25.0294C24.6944 9.05586 24.4221 9.32811 24.4221 9.66311V19.5198C23.4111 19.2182 22.3403 19.0553 21.232 19.0553C20.2098 19.0553 19.22 19.1939 18.2778 19.452V9.76736H20.4983C20.7219 9.76736 20.9274 9.64489 21.0337 9.44754C21.1399 9.25018 21.1288 9.01133 21.0053 8.8251L16.0016 1.26786C15.8892 1.09783 15.699 0.995605 15.4955 0.995605C15.2921 0.995605 15.1018 1.09783 14.9895 1.26786L9.98574 8.8251C9.86226 9.01133 9.85113 9.25119 9.9574 9.44754C10.0627 9.64489 10.2691 9.76736 10.4928 9.76736H12.7133V17.7649C12.0909 17.7689 11.4695 17.8175 10.8521 17.9147C10.5869 17.9561 10.3804 18.1667 10.344 18.4328L10.1396 19.9408C9.17101 20.1898 8.249 20.5704 7.38973 21.0784L6.17827 20.1564C5.96472 19.9935 5.66919 19.9904 5.4526 20.1493C4.39902 20.9185 3.47499 21.8415 2.70681 22.8951C2.54893 23.1117 2.55196 23.4072 2.7139 23.6208L3.63591 24.8312C3.12784 25.6905 2.74628 26.6115 2.49832 27.5811L0.990313 27.7855C0.724135 27.822 0.513621 28.0284 0.472125 28.2936C0.269708 29.582 0.269708 30.8896 0.472125 32.177C0.513621 32.4421 0.724135 32.6486 0.990313 32.685L2.49832 32.8895C2.74628 33.858 3.12784 34.7801 3.63692 35.6393L2.71491 36.8508C2.55196 37.0643 2.54893 37.3599 2.70782 37.5764C3.47701 38.63 4.40003 39.5541 5.45361 40.3222C5.6702 40.4801 5.96573 40.4771 6.17928 40.3152L7.38973 39.3931C8.249 39.9012 9.17101 40.2828 10.1396 40.5307L10.344 42.0387C10.3804 42.3049 10.5869 42.5154 10.8521 42.5569C11.4968 42.6581 12.1455 42.7087 12.7943 42.7087C13.443 42.7087 14.0918 42.6581 14.7355 42.5569C15.0006 42.5154 15.2071 42.3049 15.2435 42.0387L15.448 40.5307C15.7374 40.4558 16.0249 40.3688 16.3062 40.2706C17.794 41.0044 19.4659 41.4173 21.2341 41.4173C24.9565 41.4173 28.259 39.5885 30.2922 36.782H33.4935C33.8285 36.782 34.1007 36.5097 34.1007 36.1747V17.1009C34.1007 16.94 34.0369 16.7852 33.9226 16.6718C33.8092 16.5585 33.6544 16.4937 33.4935 16.4937H33.4924ZM25.6366 10.2704H27.7165V21.1331C27.0708 20.6716 26.3744 20.2779 25.6366 19.9611V10.2714V10.2704ZM11.6223 8.55285L15.4955 2.703L19.3688 8.55285H17.6715C17.3365 8.55285 17.0643 8.8251 17.0643 9.1601V19.8619C16.8062 19.9661 16.5532 20.0795 16.3052 20.202C16.0238 20.1038 15.7364 20.0168 15.447 19.9419L15.2425 18.4339C15.2061 18.1677 14.9996 17.9572 14.7344 17.9157C14.4662 17.8732 14.197 17.8428 13.9268 17.8175V9.1601C13.9268 8.8251 13.6545 8.55285 13.3195 8.55285H11.6223ZM14.7739 39.4407C14.5239 39.4944 14.3337 39.6988 14.2992 39.9528L14.1009 41.4173C13.2315 41.5185 12.355 41.5185 11.4846 41.4173L11.2863 39.9528C11.2519 39.6988 11.0626 39.4944 10.8116 39.4407C9.69324 39.2008 8.64067 38.7657 7.68324 38.1463C7.46868 38.0066 7.18934 38.0177 6.98591 38.1726L5.81088 39.0673C5.12469 38.5238 4.50529 37.9044 3.9618 37.2172L4.85648 36.0411C5.01133 35.8377 5.02247 35.5583 4.8828 35.3428C4.2634 34.3853 3.82719 33.3328 3.58834 32.2144C3.5347 31.9644 3.33026 31.7742 3.07622 31.7397L1.61173 31.5414C1.51053 30.672 1.51053 29.7955 1.61173 28.9251L3.07622 28.7268C3.33026 28.6924 3.5347 28.5021 3.58834 28.2521C3.8282 27.1327 4.2634 26.0812 4.8828 25.1237C5.02145 24.9092 5.01133 24.6298 4.85648 24.4264L3.9618 23.2504C4.50529 22.5642 5.12469 21.9448 5.81088 21.4013L6.98692 22.297C7.19035 22.4518 7.46969 22.463 7.68425 22.3233C8.64168 21.7039 9.69425 21.2687 10.8126 21.0288C11.0626 20.9752 11.2529 20.7708 11.2873 20.5167L11.4856 19.0522C12.355 18.951 13.2315 18.951 14.1019 19.0522L14.3003 20.5167C14.3347 20.7708 14.5239 20.9752 14.7749 21.0288C14.8053 21.0349 14.8346 21.043 14.865 21.0501C13.5108 21.9923 12.3732 23.2251 11.5454 24.6582C10.4877 24.894 9.52726 25.4203 8.75403 26.1935C7.67514 27.2724 7.08004 28.7075 7.08004 30.2338C7.08004 31.76 7.67413 33.1951 8.75403 34.274C9.52726 35.0472 10.4877 35.5735 11.5454 35.8093C12.3732 37.2425 13.5108 38.4762 14.865 39.4184C14.8346 39.4255 14.8053 39.4326 14.7749 39.4397L14.7739 39.4407ZM10.8065 26.1966C10.3197 27.4495 10.0515 28.8118 10.0515 30.2348C10.0515 31.6578 10.3197 33.02 10.8065 34.273C10.3683 34.0574 9.96448 33.77 9.61126 33.4158C8.76111 32.5656 8.29353 31.4361 8.29353 30.2338C8.29353 29.0314 8.76111 27.9019 9.61126 27.0518C9.96448 26.6985 10.3683 26.4111 10.8065 26.1945V26.1966ZM21.232 40.2008C15.7364 40.2008 11.266 35.7304 11.266 30.2348C11.266 24.7392 15.7364 20.2688 21.232 20.2688C26.7277 20.2688 31.198 24.7392 31.198 30.2348C31.198 35.7304 26.7277 40.2008 21.232 40.2008ZM32.8852 35.5654H31.0584C31.9217 33.9795 32.4136 32.1638 32.4136 30.2338C32.4136 28.1236 31.8255 26.149 30.8064 24.4628V17.7051H32.8862V35.5644L32.8852 35.5654ZM38.6612 12.6973H35.3668C35.0318 12.6973 34.7596 12.9696 34.7596 13.3046V36.1727C34.7596 36.5077 35.0318 36.7799 35.3668 36.7799H38.6612C38.9962 36.7799 39.2684 36.5077 39.2684 36.1727V13.3066C39.2684 12.9716 38.9962 12.6994 38.6612 12.6994V12.6973ZM38.0539 35.5654H35.9741V13.9139H38.0539V35.5675V35.5654ZM43.8299 6.56006H40.5356C40.2006 6.56006 39.9283 6.83231 39.9283 7.16731V36.1757C39.9283 36.5107 40.2006 36.783 40.5356 36.783H43.8299C44.1649 36.783 44.4371 36.5107 44.4371 36.1757V7.17034C44.4371 6.83534 44.1649 6.56309 43.8299 6.56309V6.56006ZM43.2226 35.5654H41.1428V7.7776H43.2226V35.5685V35.5654ZM48.9986 0.996618H45.7043C45.3693 0.996618 45.097 1.26887 45.097 1.60387V36.1757C45.097 36.5107 45.3693 36.783 45.7043 36.783H48.9986C49.3336 36.783 49.6059 36.5107 49.6059 36.1757V1.60387C49.6059 1.26887 49.3336 0.996618 48.9986 0.996618ZM48.3914 35.5685H46.3115V2.21112H48.3914V35.5685ZM21.232 21.7586C16.5572 21.7586 12.7538 25.562 12.7538 30.2368C12.7538 34.9116 16.5572 38.715 21.232 38.715C25.9069 38.715 29.7103 34.9116 29.7103 30.2368C29.7103 25.562 25.9069 21.7586 21.232 21.7586ZM21.232 37.5005C17.2272 37.5005 13.9683 34.2426 13.9683 30.2368C13.9683 26.231 17.2262 22.9731 21.232 22.9731C25.2379 22.9731 28.4958 26.232 28.4958 30.2368C28.4958 34.2416 25.2369 37.5005 21.232 37.5005ZM21.8393 24.6531V30.2378C21.8393 30.5728 21.567 30.8451 21.232 30.8451H17.3153C16.9803 30.8451 16.708 30.5728 16.708 30.2378C16.708 29.9028 16.9803 29.6306 17.3153 29.6306H20.6248V24.6531C20.6248 24.3181 20.897 24.0459 21.232 24.0459C21.567 24.0459 21.8393 24.3181 21.8393 24.6531Z" stroke="#0369CA" stroke-width="0.4" mask="url(#path-1-outside-1_1577_234)"></path></svg>