<svg xmlns="http://www.w3.org/2000/svg" id="Layer_1" data-name="Layer 1" viewBox="0 0 73 61"><defs><style>.cls-1{fill:#0458b9;}</style></defs><path class="cls-1" d="M62.05,44.07a6.72,6.72,0,0,0-5,2.21L47,37.86a12.64,12.64,0,0,0,2.28-6.29h2a4.18,4.18,0,1,0,0-2.08h-2A12.67,12.67,0,0,0,47,23.19l10.1-8.41A6.79,6.79,0,1,0,55.9,13L45.62,21.59a12.7,12.7,0,0,0-8-3.78v-2a4.16,4.16,0,1,0-2.08,0v2a12.75,12.75,0,0,0-8.06,3.78L17.16,13A6.82,6.82,0,1,0,16,14.77l10.1,8.42a12.67,12.67,0,0,0-2.28,6.3H21.29a4.16,4.16,0,1,0,0,2.08h2.53a12.64,12.64,0,0,0,2.28,6.29L16,46.28A6.76,6.76,0,1,0,17.16,48l10.27-8.56a12.75,12.75,0,0,0,8.06,3.78v2a4.16,4.16,0,1,0,2.08,0v-2a12.7,12.7,0,0,0,8-3.78L55.9,48a6.77,6.77,0,1,0,9-3.34,6.64,6.64,0,0,0-2.81-.61Zm0-38.54a4.69,4.69,0,1,1-4.69,4.69A4.69,4.69,0,0,1,62.05,5.53ZM11,14.9a4.69,4.69,0,1,1,4.69-4.68A4.67,4.67,0,0,1,11,14.9Zm0,40.62a4.69,4.69,0,1,1,4.69-4.68A4.68,4.68,0,0,1,11,55.52ZM55.28,28.44a2.09,2.09,0,1,1-2.09,2.09A2.09,2.09,0,0,1,55.28,28.44ZM34.45,11.78a2.08,2.08,0,1,1,2.08,2.08A2.08,2.08,0,0,1,34.45,11.78ZM17.26,32.61a2.09,2.09,0,1,1,2.08-2.08A2.08,2.08,0,0,1,17.26,32.61ZM38.61,49.27a2.08,2.08,0,1,1-2.08-2.08A2.09,2.09,0,0,1,38.61,49.27ZM36.53,41.2A10.68,10.68,0,1,1,47.2,30.53,10.68,10.68,0,0,1,36.53,41.2ZM62.05,55.52a4.69,4.69,0,1,1,4.68-4.68A4.69,4.69,0,0,1,62.05,55.52Z"></path></svg>