<svg xmlns="http://www.w3.org/2000/svg" width="50" height="63" viewBox="0 0 50 63" fill="none"><path d="M40.3422 24.0972L38.9453 25.624L45.298 31.4477C46.7935 32.8235 47.6461 34.7622 47.6466 36.7938V62.1517H49.7183V36.7938C49.7157 34.1808 48.6198 31.689 46.6956 29.9205L40.3422 24.0972Z" fill="#048DEF"></path><path d="M32.1118 0H5.17932C2.32034 0.00362552 0.00362556 2.32034 0 5.17932V56.9725C0.00362556 59.8315 2.32034 62.1482 5.17932 62.1518H31.0759V60.2987C31.071 55.6324 32.4523 51.0686 35.0454 47.1888C35.3199 46.7775 35.2647 46.2304 34.9159 45.8815L27.6648 38.6305C26.9946 37.9595 26.6393 37.0368 26.6862 36.0898C26.7333 35.1422 27.1785 34.2596 27.9114 33.6583C29.323 32.5792 31.3194 32.7333 32.5489 34.0154L42.7739 44.2407L44.2386 42.776L37.2911 35.8264V5.17932C37.2875 2.32034 34.9708 0.00362552 32.1118 0ZM35.2194 33.7547L34.0136 32.5489C32.0263 30.5186 28.8302 30.307 26.5927 32.0584C25.4092 33.0311 24.6911 34.4591 24.6163 35.9898C24.5417 37.5203 25.1166 39.0112 26.2001 40.0952L32.8607 46.7561C30.3767 50.7589 29.0446 55.3695 29.0114 60.0801H5.17932C3.46341 60.0801 2.07173 58.6884 2.07173 56.9725V53.8649H27.9683V51.7932H2.07173V8.28691H35.2194V33.7547ZM35.2194 6.21518H2.07173V5.17932C2.07173 3.46341 3.46341 2.07173 5.17932 2.07173H32.1118C33.8277 2.07173 35.2194 3.46341 35.2194 5.17932V6.21518Z" fill="#048DEF"></path><path d="M6.21235 18.6456H10.3558C11.5002 18.6456 12.4275 17.7182 12.4275 16.5738V12.4304C12.4275 11.286 11.5002 10.3586 10.3558 10.3586H6.21235C5.06798 10.3586 4.14062 11.286 4.14062 12.4304V16.5738C4.14062 17.7182 5.06798 18.6456 6.21235 18.6456ZM6.21235 12.4304H10.3558V16.5738H6.21235V12.4304Z" fill="#048DEF"></path><path d="M16.5717 18.6456H20.7152C21.8596 18.6456 22.7869 17.7182 22.7869 16.5738V12.4304C22.7869 11.286 21.8596 10.3586 20.7152 10.3586H16.5717C15.4274 10.3586 14.5 11.286 14.5 12.4304V16.5738C14.5 17.7182 15.4274 18.6456 16.5717 18.6456ZM16.5717 12.4304H20.7152V16.5738H16.5717V12.4304Z" fill="#048DEF"></path><path d="M26.9311 18.6456H31.0746C32.2189 18.6456 33.1463 17.7182 33.1463 16.5738V12.4304C33.1463 11.286 32.2189 10.3586 31.0746 10.3586H26.9311C25.7867 10.3586 24.8594 11.286 24.8594 12.4304V16.5738C24.8594 17.7182 25.7867 18.6456 26.9311 18.6456ZM26.9311 12.4304H31.0746V16.5738H26.9311V12.4304Z" fill="#048DEF"></path><path d="M6.21235 29.0042H10.3558C11.5002 29.0042 12.4275 28.0768 12.4275 26.9325V22.789C12.4275 21.6446 11.5002 20.7173 10.3558 20.7173H6.21235C5.06798 20.7173 4.14062 21.6446 4.14062 22.789V26.9325C4.14062 28.0768 5.06798 29.0042 6.21235 29.0042ZM6.21235 22.789H10.3558V26.9325H6.21235V22.789Z" fill="#048DEF"></path><path d="M6.21235 39.3628H10.3558C11.5002 39.3628 12.4275 38.4355 12.4275 37.2911V33.1477C12.4275 32.0033 11.5002 31.0759 10.3558 31.0759H6.21235C5.06798 31.0759 4.14062 32.0033 4.14062 33.1477V37.2911C4.14062 38.4355 5.06798 39.3628 6.21235 39.3628ZM6.21235 33.1477H10.3558V37.2911H6.21235V33.1477Z" fill="#048DEF"></path><path d="M16.5717 29.0042H20.7152C21.8596 29.0042 22.7869 28.0768 22.7869 26.9325V22.789C22.7869 21.6446 21.8596 20.7173 20.7152 20.7173H16.5717C15.4274 20.7173 14.5 21.6446 14.5 22.789V26.9325C14.5 28.0768 15.4274 29.0042 16.5717 29.0042ZM16.5717 22.789H20.7152V26.9325H16.5717V22.789Z" fill="#048DEF"></path><path d="M26.9311 29.0042H31.0746C32.2189 29.0042 33.1463 28.0768 33.1463 26.9325V22.789C33.1463 21.6446 32.2189 20.7173 31.0746 20.7173H26.9311C25.7867 20.7173 24.8594 21.6446 24.8594 22.789V26.9325C24.8594 28.0768 25.7867 29.0042 26.9311 29.0042ZM26.9311 22.789H31.0746V26.9325H26.9311V22.789Z" fill="#048DEF"></path><path d="M16.5717 39.3628H20.7152C21.8596 39.3628 22.7869 38.4355 22.7869 37.2911V33.1477C22.7869 32.0033 21.8596 31.0759 20.7152 31.0759H16.5717C15.4274 31.0759 14.5 32.0033 14.5 33.1477V37.2911C14.5 38.4355 15.4274 39.3628 16.5717 39.3628ZM16.5717 33.1477H20.7152V37.2911H16.5717V33.1477Z" fill="#048DEF"></path><path d="M6.21235 49.7215H10.3558C11.5002 49.7215 12.4275 48.7941 12.4275 47.6498V43.5063C12.4275 42.3619 11.5002 41.4346 10.3558 41.4346H6.21235C5.06798 41.4346 4.14062 42.3619 4.14062 43.5063V47.6498C4.14062 48.7941 5.06798 49.7215 6.21235 49.7215ZM6.21235 43.5063H10.3558V47.6498H6.21235V43.5063Z" fill="#048DEF"></path><path d="M16.5717 49.7215H20.7152C21.8596 49.7215 22.7869 48.7941 22.7869 47.6498V43.5063C22.7869 42.3619 21.8596 41.4346 20.7152 41.4346H16.5717C15.4274 41.4346 14.5 42.3619 14.5 43.5063V47.6498C14.5 48.7941 15.4274 49.7215 16.5717 49.7215ZM16.5717 43.5063H20.7152V47.6498H16.5717V43.5063Z" fill="#048DEF"></path><path d="M17.6016 55.9366H19.6733V58.0084H17.6016V55.9366Z" fill="#048DEF"></path></svg>