<svg xmlns="http://www.w3.org/2000/svg" width="62" height="64" viewBox="0 0 62 64" fill="none"><path d="M62 39.005V24.0458H52.4415C52.1377 23.1442 51.7755 22.2583 51.3608 21.3974L58.1212 14.5228L47.7193 3.94453L40.9641 10.8142C40.1271 10.3985 39.2537 10.0322 38.3549 9.72008V0H23.6451V9.72047C22.7584 10.0303 21.8869 10.3982 21.0408 10.8195L14.2807 3.94453L3.87878 14.5228L10.6392 21.3974C10.2245 22.2583 9.86233 23.1446 9.55846 24.0458H0V39.005H9.55846C9.86233 39.9067 10.2245 40.7926 10.6392 41.6534L3.87878 48.5281L14.2807 59.1063L21.0408 52.2313C21.8869 52.6531 22.7584 53.0206 23.6451 53.3304V63.0508H38.3549V53.3354C39.234 53.0275 40.1062 52.6581 40.9596 52.2317L47.7193 59.1063L58.1212 48.5281L51.3608 41.6534C51.7755 40.7926 52.1377 39.9063 52.4415 39.005H62ZM55.5525 48.5281L47.7193 56.4941L41.3039 49.9696L40.711 50.2875C39.5632 50.9032 38.3746 51.4066 37.1781 51.7837L36.5385 51.985V61.2037H25.4615V51.9796C23.5247 51.3697 22.7967 51.0964 20.6961 49.9696L14.2807 56.4941L6.44786 48.5281L12.8632 42.004C11.7537 39.8647 11.4865 39.1278 10.8867 37.1578H1.81641V25.893H10.8863C11.4808 23.9423 11.7503 23.1919 12.8632 21.0468L6.44786 14.5228L14.2807 6.55676L20.6961 13.0812L21.289 12.7633C22.4209 12.1565 23.6095 11.6546 24.8219 11.2721L25.4615 11.0708V1.84719H36.5393V11.0708L37.1781 11.2721C38.4162 11.6623 39.6067 12.1622 40.717 12.7579L41.3096 13.0758L47.72 6.55676L55.5525 14.5228L49.1372 21.0468C50.098 22.8983 50.4234 23.6248 51.1137 25.893H60.1836V37.1578H51.1137C50.8514 38.0195 50.4386 39.4949 49.4494 41.401L49.1368 42.004L55.5525 48.5281Z" fill="#0369CA"></path><path d="M8.30859 48.3741L12.5446 44.0667L13.829 45.3724L9.59294 49.6802L8.30859 48.3741Z" fill="#0369CA"></path><path d="M27.6676 38.5911L29.9298 36.2909L28.6447 34.9848L26.3833 37.2853C23.2583 40.4633 18.1807 40.4633 15.0554 37.2853C13.5421 35.7468 12.7092 33.7014 12.7092 31.5252C12.7092 29.3493 13.5421 27.304 15.0554 25.7658C18.1784 22.5894 23.2598 22.5894 26.3833 25.765L36.6634 36.2205C39.2094 38.8093 43.3516 38.8093 45.8968 36.2201C48.4485 33.626 48.4496 29.4255 45.8968 26.8306C43.3493 24.2388 39.2128 24.2388 36.6634 26.8302L34.4016 29.1308L35.6863 30.4365L37.9477 28.1367C38.8366 27.2328 40.02 26.7356 41.2801 26.7356C43.8957 26.7356 45.9929 28.8833 45.9929 31.5252C45.9929 32.8059 45.5029 34.0089 44.6128 34.914C42.7756 36.7824 39.7861 36.7828 37.9485 34.914L27.6676 24.4593C23.8362 20.5629 17.6021 20.5632 13.7706 24.4593C9.93082 28.3649 9.93044 34.6854 13.7706 38.5915C17.6059 42.4913 23.8324 42.4913 27.6676 38.5911Z" fill="#0369CA"></path><path d="M48.2311 24.4591C44.3996 20.5631 38.1655 20.5631 34.3341 24.4595L32.0722 26.7596L33.3566 28.0657L35.6184 25.7652C38.7415 22.5892 43.8236 22.5896 46.9463 25.7652C50.0698 28.9412 50.0698 34.1095 46.9463 37.2855C43.8236 40.4616 38.7419 40.4616 35.6184 37.2855L25.3379 26.8304C22.7919 24.2413 18.6501 24.2413 16.1045 26.8304C13.5589 29.4196 13.5589 33.6312 16.1045 36.2203C18.6501 38.8095 22.7923 38.8095 25.3379 36.2203L27.5997 33.9198L26.3154 32.6141L24.0536 34.9142C22.2164 36.7826 19.2265 36.7826 17.3889 34.9142C15.5513 33.0455 15.5513 30.0053 17.3889 28.1365C19.2265 26.2682 22.216 26.2682 24.0536 28.1365L34.3341 38.5917C38.1678 42.49 44.4019 42.4854 48.2311 38.5917C52.0622 34.6956 52.0622 28.3559 48.2311 24.4591Z" fill="#0369CA"></path><path d="M20.1633 42.5409L18.8789 43.847C25.5758 50.657 36.414 50.6574 43.1117 43.847L41.8265 42.5409C35.84 48.6289 26.1502 48.6297 20.1633 42.5409Z" fill="#0369CA"></path><path d="M43.1093 15.5924L41.8242 14.2863L43.1086 12.9802L44.3933 14.2863L43.1093 15.5924ZM45.2497 13.4155L43.9649 12.1089L45.2497 10.8028L46.534 12.1097L45.2497 13.4155ZM47.39 11.2385L46.1056 9.93234L47.7919 8.21753L49.077 9.52365L47.39 11.2385Z" fill="#0369CA"></path><path d="M41.8265 20.5101C37.2507 15.8571 30.4929 14.7434 24.856 17.2486L24.1287 15.5557C30.3745 12.7807 37.9451 13.9506 43.1117 19.2039L41.8265 20.5101ZM20.1633 20.5101L18.8789 19.2039C19.3304 18.7452 19.8102 18.3081 20.3067 17.9044L21.4412 19.3463C20.9977 19.7077 20.5678 20.0994 20.1633 20.5101ZM22.36 18.6548L21.3348 17.1297C21.8608 16.7637 22.4133 16.4243 22.9764 16.1211L23.8267 17.7531C23.3242 18.024 22.8307 18.3277 22.36 18.6548Z" fill="#0369CA"></path></svg>