<svg xmlns="http://www.w3.org/2000/svg" width="62" height="62" viewBox="0 0 62 62" fill="none"><path fill-rule="evenodd" clip-rule="evenodd" d="M52.6403 4.83788C53.1363 4.95989 53.6137 5.118 54.0725 5.30848C54.5388 5.5027 54.9889 5.73178 55.4192 5.99322L56.4559 5.19893C56.7956 4.93872 57.2693 4.97732 57.5632 5.27363L57.5644 5.27238L59.5435 7.25937C59.8597 7.57684 59.8721 8.08355 59.582 8.41596L58.8243 9.41195C59.0847 9.84395 59.3129 10.2959 59.5063 10.764C59.696 11.2234 59.8535 11.704 59.975 12.202L61.2671 12.3762C61.69 12.4335 61.9975 12.7971 61.9975 13.2141H62V16.024C62 16.476 61.6478 16.8445 61.2051 16.8706L59.9763 17.0362C59.8548 17.533 59.6973 18.0135 59.5076 18.4729C59.3141 18.941 59.0859 19.393 58.8255 19.825L59.6167 20.8658C59.8758 21.2069 59.8374 21.6825 59.5423 21.9776L59.5435 21.9788L58.554 22.9723C58.5391 22.9872 58.523 23.0022 58.5081 23.0159L57.5644 23.9633C57.2631 24.2683 56.787 24.2932 56.4559 24.0392L55.4192 23.2449C54.9889 23.5064 54.54 23.7355 54.0738 23.9297C53.6162 24.1202 53.1376 24.2783 52.6416 24.4003L52.468 25.6976C52.4109 26.1221 52.0488 26.4309 51.6334 26.4309V26.4333H48.8347C48.3846 26.4333 48.0175 26.0798 47.9915 25.6353L47.8266 24.4015C47.3305 24.2795 46.8531 24.1214 46.3956 23.9309C45.9293 23.7367 45.4792 23.5076 45.0489 23.2462L44.0122 24.0405C43.6725 24.3007 43.1988 24.2621 42.9049 23.9658L42.9037 23.967L40.9246 21.98C40.6084 21.6626 40.596 21.1559 40.8862 20.8235L41.6438 19.8262C41.3834 19.3942 41.154 18.9423 40.9618 18.4742C40.7721 18.0148 40.6146 17.5342 40.4931 17.0375L39.201 16.8632C38.7781 16.8059 38.4706 16.4424 38.4706 16.0253H38.4681V13.2154C38.4681 12.7634 38.8203 12.3949 39.263 12.3688L40.4918 12.2032C40.6133 11.7052 40.7708 11.2259 40.9606 10.7652C41.154 10.2971 41.3822 9.8452 41.6426 9.41319L40.8514 8.37239C40.5923 8.03126 40.6307 7.55568 40.9258 7.26062L40.9246 7.25937L42.9037 5.27238C43.2199 4.95491 43.7246 4.94246 44.0556 5.23379L45.0489 5.99447C45.4792 5.73302 45.9293 5.50395 46.3956 5.30973C46.8531 5.11925 47.3318 4.96113 47.8266 4.83913L48.0002 3.54186C48.0572 3.11732 48.4193 2.80856 48.8347 2.80856V2.80607H51.6334C52.0835 2.80607 52.4506 3.15965 52.4766 3.6041L52.6403 4.83788ZM53.4253 6.87218C52.8945 6.65182 52.3415 6.48375 51.7735 6.37792C51.4065 6.32937 51.1015 6.03929 51.0506 5.6521L50.8968 4.50174H49.57L49.4163 5.6521H49.415C49.3679 6.00567 49.0988 6.30447 48.7293 6.37045C48.1477 6.47628 47.5823 6.6456 47.0404 6.87218C46.4985 7.09752 45.9888 7.3764 45.5164 7.70134C45.2225 7.92544 44.8046 7.9354 44.4959 7.69885L43.5758 6.99419L42.6383 7.9354L43.3402 8.85917C43.5559 9.14179 43.5758 9.54391 43.3637 9.85267C43.0301 10.3357 42.7462 10.8586 42.5168 11.4139C42.2973 11.9467 42.1299 12.502 42.0245 13.0722C41.9761 13.4407 41.6872 13.747 41.3016 13.798L40.1558 13.9524V15.2845L41.3016 15.4389V15.4401C41.6537 15.4875 41.9513 15.7576 42.0171 16.1286C42.1225 16.7125 42.2911 17.2802 42.5155 17.8243C42.74 18.3683 43.0178 18.88 43.3414 19.3544C43.5646 19.6494 43.5745 20.069 43.3389 20.379L42.6371 21.3028L43.5745 22.244L44.4946 21.5393C44.7761 21.3227 45.1766 21.3028 45.4842 21.5157C45.9653 21.8506 46.4861 22.1357 47.0391 22.366C47.5699 22.5863 48.1229 22.7544 48.6909 22.8602C49.0579 22.9088 49.3629 23.1989 49.4138 23.5861L49.5675 24.7364H50.8944L51.0481 23.5861H51.0494C51.0965 23.2325 51.3656 22.9337 51.7351 22.8677C52.3167 22.7619 52.8821 22.5926 53.424 22.366C53.9659 22.1406 54.4756 21.8618 54.948 21.5368C55.2419 21.3127 55.6598 21.3028 55.9685 21.5393L56.8911 22.2452L57.3152 21.8194C57.3288 21.8033 57.3437 21.7883 57.3586 21.7734L57.8273 21.3028L57.1255 20.379C56.9097 20.0964 56.8899 19.6943 57.1019 19.3855C57.4342 18.9024 57.7194 18.3796 57.9488 17.8243C58.1683 17.2914 58.3357 16.7362 58.4411 16.166C58.4895 15.7975 58.7784 15.4912 59.1641 15.4401L60.3099 15.2858V13.9536L59.1641 13.7993V13.798C58.8119 13.7507 58.5143 13.4805 58.4486 13.1095C58.3432 12.5256 58.1745 11.9579 57.9488 11.4139C57.7244 10.8698 57.4466 10.3581 57.123 9.88379C56.8998 9.58873 56.8899 9.16918 57.1255 8.85917L57.8273 7.9354L56.8899 6.99419L55.9698 7.69885C55.6883 7.91548 55.2878 7.9354 54.9802 7.72251C54.4991 7.3876 53.9783 7.1025 53.4253 6.87218ZM50.2322 7.90925C48.387 7.90925 46.7167 8.65998 45.5077 9.87383C44.2987 11.0877 43.551 12.7647 43.551 14.6172C43.551 16.4698 44.2987 18.1467 45.5077 19.3606C46.7167 20.5745 48.387 21.3252 50.2322 21.3252C52.0773 21.3252 53.7477 20.5745 54.9567 19.3606C56.1657 18.1467 56.9134 16.4698 56.9134 14.6172C56.9134 12.7647 56.1657 11.0877 54.9567 9.87383C53.7477 8.66122 52.0773 7.90925 50.2322 7.90925ZM53.7638 11.074C52.8598 10.1664 51.6123 9.60616 50.2334 9.60616C48.8545 9.60616 47.6058 10.1677 46.7031 11.074C45.7991 11.9816 45.2411 13.234 45.2411 14.6185C45.2411 16.0029 45.8004 17.2566 46.7031 18.1629C47.6071 19.0705 48.8545 19.6308 50.2334 19.6308C51.6123 19.6308 52.861 19.0693 53.7638 18.1629C54.6678 17.2553 55.2258 16.0029 55.2258 14.6185C55.2258 13.234 54.6665 11.9803 53.7638 11.074ZM10.4064 56.2818V39.5941C10.4064 39.0338 10.6333 38.5259 11.0004 38.1586C11.3662 37.7901 11.8734 37.5622 12.4301 37.5622C12.9881 37.5622 13.4941 37.7901 13.8599 38.1586C14.2269 38.5259 14.4539 39.0351 14.4539 39.5941V56.2805C14.4539 57.34 15.0292 58.0136 15.7658 58.3049C16.0684 58.4244 16.4019 58.4842 16.7392 58.4842C17.0765 58.4842 17.4101 58.4244 17.7126 58.3049C18.4492 58.0136 19.0246 57.34 19.0246 56.2805V34.7884H5.8357V36.082V56.2818C5.8357 57.3413 6.41107 58.0148 7.14765 58.3061C7.45021 58.4257 7.78378 58.4854 8.12106 58.4854C8.45835 58.4854 8.79191 58.4257 9.09448 58.3061C9.83105 58.0148 10.4064 57.3413 10.4064 56.2818ZM12.0953 39.5941V56.2805C12.0953 58.1505 11.0488 59.3519 9.70829 59.881C9.2036 60.0802 8.66047 60.1798 8.12106 60.1798C7.58165 60.1798 7.03852 60.0802 6.53384 59.881C5.19337 59.3519 4.14679 58.1505 4.14679 56.2805V36.9285H3.89631C2.82493 36.9285 1.85151 36.4891 1.1447 35.7807C0.439129 35.0723 0.0014013 34.0937 0.000161283 33.0156C-0.00107874 30.985 0.00512137 28.4664 0.00884143 26.4794C0.0100815 26.1233 0.0100815 25.832 0.0100815 23.6882C0.0100815 20.3566 0.626372 18.4219 2.04868 17.2504C3.3383 16.1884 5.18221 15.8684 7.76394 15.7663L8.28475 13.9698C8.05782 13.813 7.83834 13.6387 7.62753 13.4444C6.48671 12.3962 5.62242 10.8188 5.34589 8.50933C5.29753 8.10098 5.27397 7.71006 5.27397 7.33532C5.27397 5.22881 5.99443 3.53812 7.10797 2.32177C8.22522 1.10169 9.73557 0.368395 11.3116 0.177913C11.5906 0.144298 11.8684 0.126869 12.1425 0.126869C12.7389 0.126869 13.1506 0.232692 13.5623 0.339761C14.1885 0.501608 14.8135 0.662211 16.7033 0.0745795C16.9723 -0.00883436 17.2389 -0.0212842 17.4969 0.03225C17.8701 0.109439 18.1975 0.314861 18.4628 0.628597C18.6774 0.882573 18.8522 1.21374 18.9725 1.60715C19.1945 2.328 19.2441 3.30406 19.0184 4.40836C19.0085 4.45692 18.9985 4.50672 18.9899 4.55527C18.9861 4.58764 18.9812 4.62125 18.9725 4.65362C18.8051 5.68198 18.8671 6.81616 18.9105 7.62166C18.9279 7.95034 18.944 8.23295 18.944 8.40974C18.944 10.2324 18.2086 11.8658 17.105 13.0709C16.8186 13.3834 16.5061 13.6685 16.175 13.92L16.5495 15.7626C20.9664 15.8572 26.2341 15.8311 30.9945 15.8074C32.1167 15.8012 33.2117 15.7962 34.2744 15.7925C35.838 15.7875 36.8499 16.659 37.3 17.777C37.4674 18.1941 37.553 18.6497 37.5542 19.1054C37.5555 19.5598 37.4724 20.0142 37.305 20.4338C36.8598 21.5505 35.8529 22.4208 34.283 22.4208H23.5023C20.7023 22.4208 20.7036 22.7494 20.7135 25.4834L20.7147 25.8146C20.7184 27.4318 20.7246 30.2231 20.7234 32.5499C20.7234 33.8871 20.7197 35.071 20.7135 35.7906V56.2793C20.7135 58.1493 19.6669 59.3507 18.3264 59.8798C17.8218 60.079 17.2786 60.1786 16.7392 60.1786C16.1998 60.1786 15.6567 60.079 15.152 59.8798C13.8115 59.3507 12.7649 58.1493 12.7649 56.2793V39.5941C12.7649 39.5019 12.7265 39.4185 12.6657 39.3575C12.605 39.2965 12.5207 39.2579 12.4301 39.2579C12.3384 39.2579 12.2553 39.2965 12.1945 39.3575C12.1338 39.4185 12.0953 39.5032 12.0953 39.5941ZM4.14679 35.2341H3.89631C3.28622 35.2341 2.73317 34.9851 2.33264 34.583C1.93211 34.1809 1.68287 33.6269 1.68287 33.0168C1.68163 30.985 1.68659 28.4664 1.69155 26.4794C1.69651 24.4364 1.69899 24.6605 1.69899 23.6882C1.69899 20.9118 2.12804 19.3706 3.11758 18.5551C4.08355 17.7596 5.69434 17.5267 8.02558 17.4471L9.98606 19.7876L8.8378 21.5094C8.57863 21.8966 8.68279 22.422 9.06844 22.6822L9.08828 22.6959L9.95381 23.2412L8.82664 29.9915C8.78695 30.2318 8.85144 30.4646 8.98784 30.6439L10.7747 33.0915H5.8357V22.9823C5.8357 22.5141 5.4575 22.1344 4.99125 22.1344C4.525 22.1344 4.14679 22.5141 4.14679 22.9823V33.9381V35.2341ZM13.561 33.0928H19.0432V32.5512C19.0444 30.2243 19.0382 27.4331 19.0345 25.8158L19.0333 25.4847C19.0184 21.2368 19.0159 20.7263 23.5048 20.7263H34.2855C35.0531 20.7263 35.5367 20.323 35.7438 19.8051C35.8318 19.5859 35.8752 19.3457 35.874 19.1054C35.874 18.8676 35.8281 18.6273 35.7388 18.4057C35.5293 17.884 35.0419 17.4782 34.2768 17.4807C33.2365 17.4844 32.1341 17.4894 31.0032 17.4956C26.1237 17.5205 20.7147 17.5467 16.2333 17.4446L14.3906 19.6445L15.6232 21.492C15.6319 21.5045 15.6406 21.5169 15.648 21.5294C15.896 21.924 15.777 22.4469 15.3839 22.6947L14.5183 23.24L15.6393 29.9517C15.6877 30.187 15.6356 30.4409 15.4769 30.6451L13.561 33.0928ZM12.9522 18.7406L14.9536 16.3515L14.6361 14.7952C13.9988 15.048 13.3329 15.1899 12.6682 15.1999C11.7419 15.2136 10.7561 15.0891 9.81245 14.7517L9.33628 16.3913L11.3042 18.7418H12.9522V18.7406ZM17.1794 6.29949C16.6909 6.44266 16.1316 6.51238 15.5364 6.52483C14.186 6.55222 12.6099 6.29202 11.3302 5.94716C11.1628 5.90234 10.9992 5.85503 10.8417 5.80772C10.3035 7.48471 9.05356 8.47696 7.08936 8.78323C7.36217 10.3855 7.97722 11.4786 8.76339 12.2007C9.03868 12.4534 9.33752 12.6638 9.65125 12.8356C9.66489 12.8431 9.67853 12.8493 9.69093 12.8568C10.616 13.3523 11.67 13.5241 12.6471 13.5104C13.3676 13.5005 14.1017 13.2602 14.7676 12.8444C14.7837 12.8344 14.7986 12.8232 14.8159 12.8145C15.1941 12.5717 15.5488 12.2729 15.8662 11.9268C16.7008 11.0155 17.2563 9.78295 17.2563 8.41098C17.2563 8.19809 17.2439 7.97275 17.2303 7.70881C17.2079 7.3017 17.1819 6.81989 17.1794 6.29949ZM6.9666 7.08258C8.38643 6.79748 9.19616 5.96584 9.3958 4.58764C9.40449 4.5229 9.42061 4.45816 9.44541 4.39591C9.61529 3.96017 10.1039 3.74603 10.5366 3.91535C10.8789 4.04981 11.298 4.18551 11.7655 4.31125C12.9249 4.62374 14.3311 4.85905 15.5029 4.83664C16.4379 4.81796 17.1757 4.66483 17.3245 4.28511C17.327 4.27764 17.3295 4.27017 17.3332 4.26145C17.3443 4.19796 17.3567 4.13447 17.3691 4.07097C17.5341 3.26049 17.5093 2.58073 17.3629 2.10515C17.3109 1.93707 17.2476 1.80759 17.1757 1.72294C17.1683 1.71422 17.1658 1.70675 17.1645 1.70177C14.8519 2.41639 14 2.19727 13.1456 1.97691C12.8493 1.90097 12.5529 1.82378 12.1412 1.82378C11.9254 1.82378 11.7146 1.83623 11.5088 1.86113C10.3196 2.00555 9.18376 2.55458 8.34675 3.4684C7.55065 4.33989 7.01992 5.55375 6.9666 7.08258ZM11.5807 20.4363L10.7189 21.7286L11.3265 22.1108C11.6229 22.2975 11.763 22.6386 11.7084 22.9648L10.5478 29.9193L12.1648 32.1341L13.9194 29.8931L12.7625 22.9648C12.7029 22.6038 12.8803 22.2577 13.1804 22.0884L13.752 21.7273L12.8902 20.435H11.5807V20.4363ZM47.3206 42.9891L48.8731 36.5003L42.2316 37.9121L43.4344 39.1098C43.7642 39.4384 43.7655 39.9738 43.4381 40.3049L43.4369 40.3062L43.4381 40.3074L36.2175 47.557L37.6584 49.0036L44.8877 41.7466C45.2175 41.4155 45.752 41.4155 46.0818 41.7466C46.0967 41.7616 46.1104 41.7753 46.1228 41.7914L47.3206 42.9891ZM50.8212 35.5914C50.9291 35.1383 50.6501 34.6826 50.1975 34.5743C50.0722 34.5444 49.947 34.5444 49.8279 34.5693V34.5668L40.3567 36.58C39.9016 36.6771 39.6102 37.1265 39.7069 37.5834C39.7453 37.7652 39.8383 37.9208 39.9661 38.0353L41.645 39.7098L34.4244 46.9594C34.0946 47.2905 34.0946 47.8271 34.4244 48.1583L37.0582 50.8026C37.3881 51.1338 37.9225 51.1338 38.2523 50.8026L45.4854 43.5406L46.0409 44.0959C46.3336 44.3897 46.1054 44.1619 47.1892 45.25C47.519 45.5812 48.0535 45.5812 48.3833 45.25C48.5172 45.1155 48.5966 44.9475 48.6214 44.7732L50.8212 35.5914ZM42.5912 30.3339V32.7081C42.5912 33.1762 42.213 33.5559 41.7467 33.5559C41.2805 33.5559 40.9023 33.1762 40.9023 32.7081V30.3339C37.5505 30.5443 34.5335 31.9947 32.3027 34.2344C30.0719 36.4741 28.6261 39.5032 28.4177 42.8684H30.7825C31.2487 42.8684 31.6269 43.2481 31.6269 43.7162C31.6269 44.1843 31.2487 44.564 30.7825 44.564H28.4177C28.6273 47.9292 30.0719 50.9582 32.3027 53.198C34.5335 55.4377 37.5505 56.8893 40.9023 57.0985V54.7243C40.9023 54.2562 41.2805 53.8765 41.7467 53.8765C42.213 53.8765 42.5912 54.2562 42.5912 54.7243V57.0985C45.943 56.8881 48.9599 55.4377 51.1907 53.198C53.4215 50.9582 54.8674 47.9292 55.0757 44.564H52.711C52.2448 44.564 51.8665 44.1843 51.8665 43.7162C51.8665 43.2481 52.2448 42.8684 52.711 42.8684H55.0757C54.8662 39.5032 53.4215 36.4741 51.1907 34.2344C48.9599 31.9959 45.943 30.5443 42.5912 30.3339ZM41.7467 58.8228C45.9008 58.8228 49.663 57.1321 52.3849 54.3981C55.108 51.6642 56.7919 47.8881 56.7919 43.7174C56.7919 39.5467 55.108 35.7695 52.3849 33.0367C49.6618 30.3027 45.9008 28.6121 41.7467 28.6121C37.5927 28.6121 33.8304 30.3027 31.1086 33.0367C28.3855 35.7707 26.7015 39.5467 26.7015 43.7174C26.7015 47.8881 28.3855 51.6654 31.1086 54.3981C33.8304 57.1321 37.5927 58.8228 41.7467 58.8228ZM41.7467 62C46.775 62 51.3271 59.9532 54.6219 56.6453C57.9166 53.3374 59.9552 48.7658 59.9552 43.7187C59.9552 38.6703 57.9166 34.0999 54.6219 30.792C51.3271 27.4841 46.7738 25.4374 41.7467 25.4374C36.7184 25.4374 32.1663 27.4841 28.8716 30.792C25.5768 34.0999 23.5383 38.6703 23.5383 43.7187C23.5383 48.7671 25.5768 53.3374 28.8716 56.6453C32.1663 59.9532 36.7184 62 41.7467 62ZM30.0645 55.4464C33.0542 58.4481 37.1847 60.3043 41.7467 60.3043C46.3088 60.3043 50.4393 58.4481 53.429 55.4464C56.4187 52.4448 58.2675 48.2977 58.2675 43.7174C58.2675 39.1371 56.4187 34.9901 53.429 31.9885C50.4393 28.9868 46.3088 27.1305 41.7467 27.1305C37.1847 27.1305 33.0542 28.9868 30.0645 31.9885C27.0748 34.9901 25.2259 39.1371 25.2259 43.7174C25.2259 48.2977 27.0748 52.4448 30.0645 55.4464Z" fill="#0369CA"></path></svg>