<svg xmlns="http://www.w3.org/2000/svg" width="61" height="63" viewBox="0 0 61 63" fill="none"><path d="M6.6307 19.4688C6.16017 19.4688 5.74423 19.1215 5.65824 18.6276L4.72683 13.2755C4.67949 13.0066 4.73891 12.7302 4.89157 12.5072C5.04326 12.2836 5.27514 12.1325 5.53601 12.0871L10.8858 11.155C11.4206 11.0608 11.9283 11.431 12.0244 11.9818L12.9558 17.3343C13.0027 17.6028 12.9433 17.8792 12.7911 18.1027C12.6389 18.3257 12.407 18.4769 12.1467 18.5223L6.7964 19.4543C6.74085 19.4643 6.68578 19.4688 6.6307 19.4688ZM6.85099 13.9301L7.43216 17.271L10.8312 16.6787L10.25 13.3379L6.85099 13.9301Z" fill="#047BDC"></path><path d="M7.70312 22.2488L15.5051 20.8573L15.8418 22.871L8.04032 24.263L7.70312 22.2488Z" fill="#047BDC"></path><path d="M5.13189 32.3777C4.66232 32.3777 4.24493 32.0305 4.15942 31.536L0.0154504 7.60973C-0.032859 7.33132 0.0333248 7.04444 0.197093 6.81792C0.360862 6.59091 0.609172 6.44522 0.881153 6.41429L15.5672 4.74586C15.8479 4.71293 16.1261 4.80673 16.3353 5.00031C16.545 5.1939 16.6648 5.47081 16.6648 5.76168V31.3559C16.6648 31.9202 16.2213 32.3777 15.6754 32.3777C15.129 32.3777 14.686 31.9202 14.686 31.3559V6.90224L2.15024 8.3257L6.10725 31.1768C6.20291 31.7321 5.84542 32.263 5.30725 32.3628C5.24832 32.3732 5.18986 32.3777 5.13189 32.3777Z" fill="#047BDC"></path><path d="M54.4706 19.6858C54.415 19.6858 54.358 19.6808 54.301 19.6703L48.7155 18.6745C48.4565 18.6281 48.2261 18.4774 48.0749 18.2554C47.9232 18.0328 47.8638 17.7584 47.9097 17.4905L48.8821 11.7682C48.9759 11.2139 49.485 10.8422 50.0251 10.938L55.6107 11.9344C55.8696 11.9803 56.1 12.131 56.2512 12.3535C56.4029 12.5755 56.4623 12.8504 56.4165 13.1184L55.444 18.8401C55.3599 19.3365 54.9421 19.6858 54.4706 19.6858ZM50.0304 16.8349L53.6662 17.484L54.2966 13.7744L50.6604 13.1258L50.0304 16.8349Z" fill="#047BDC"></path><path d="M45.1562 22.8721L45.493 20.8584L53.2949 22.2499L52.9582 24.2636L45.1562 22.8721Z" fill="#047BDC"></path><path d="M56.8219 26.5771C56.7654 26.5771 56.7084 26.5721 56.6499 26.5611C56.1117 26.4638 55.7518 25.9339 55.8465 25.3786L58.8504 7.70395L46.9436 6.60929V25.5552C46.9436 26.119 46.5001 26.5771 45.9542 26.5771C45.4078 26.5771 44.9648 26.119 44.9648 25.5552V5.49218C44.9648 5.20579 45.0818 4.93188 45.2861 4.73829C45.4909 4.54521 45.7629 4.44842 46.0417 4.47436L60.0987 5.76659C60.3745 5.79204 60.6272 5.93573 60.7958 6.16275C60.9644 6.38976 61.0325 6.67914 60.9852 6.96104L57.7948 25.7309C57.7113 26.2273 57.2934 26.5771 56.8219 26.5771Z" fill="#047BDC"></path><path d="M30.8212 20.4586H19.8917C19.3453 20.4586 18.9023 20.0011 18.9023 19.4368V8.23922C18.9023 7.67543 19.3453 7.21741 19.8917 7.21741H30.8212C31.3671 7.21741 31.8106 7.67543 31.8106 8.23922V19.4368C31.8106 20.0015 31.3676 20.4586 30.8212 20.4586ZM20.8811 18.4149H29.8318V9.26103H20.8811V18.4149Z" fill="#047BDC"></path><path d="M35.5898 9.33093H42.8589V11.3746H35.5898V9.33093Z" fill="#047BDC"></path><path d="M35.5898 14.8302H42.8589V16.8738H35.5898V14.8302Z" fill="#047BDC"></path><path d="M19.4375 24.2161H31.4641V26.2597H19.4375V24.2161Z" fill="#047BDC"></path><path d="M15.6769 32.3776C15.1305 32.3776 14.6875 31.9201 14.6875 31.3558V3.86263C14.6875 3.29834 15.1305 2.84082 15.6769 2.84082H45.9557C46.5016 2.84082 46.9451 3.29834 46.9451 3.86263V25.5547C46.9451 26.1185 46.5016 26.5765 45.9557 26.5765C45.4093 26.5765 44.9663 26.1185 44.9663 25.5547V4.88445H16.6662V31.3558C16.6662 31.9206 16.2233 32.3776 15.6769 32.3776Z" fill="#047BDC"></path><path d="M55.6794 60.0623H5.94112C5.08411 60.0623 4.37445 59.3723 4.32517 58.4922L2.51067 32.1106C2.4841 31.6431 2.64353 31.1916 2.94643 30.8593C3.25126 30.5255 3.68121 30.3344 4.12614 30.3344H30.4214L35.3997 25.5142C36.0523 24.8816 36.9069 24.5333 37.805 24.5333H57.505C57.948 24.5333 58.3756 24.7229 58.6799 25.0532C58.9828 25.3825 59.1442 25.8305 59.1219 26.2826L57.2959 58.4882C57.2538 59.3663 56.5442 60.0623 55.6794 60.0623ZM6.29909 58.3515L6.29957 58.3609C6.29957 58.3579 6.29909 58.3549 6.29909 58.3515ZM6.2759 58.0187H55.3403L57.1234 26.5765H37.805C37.4113 26.5765 37.0378 26.7281 36.7528 27.0045L31.204 32.3775H4.51261L6.2759 58.0187Z" fill="#047BDC"></path><path d="M39.4462 49.986H21.5539C20.8848 49.986 20.3433 49.4207 20.295 48.6703L19.8003 40.9668C19.7732 40.5447 19.9085 40.1351 20.1723 39.8437C20.4085 39.5833 20.7235 39.4396 21.0592 39.4396H39.9414C40.2771 39.4396 40.5916 39.5828 40.8279 39.8432C41.0916 40.1341 41.2279 40.5437 41.2008 40.9663L40.7052 48.6703C40.6578 49.4202 40.1163 49.986 39.4462 49.986ZM22.2312 47.9424H38.7689L39.1844 41.4827H21.8162L22.2312 47.9424Z" fill="#047BDC"></path><path d="M24.6055 43.6914H36.3968V45.735H24.6055V43.6914Z" fill="#047BDC"></path></svg>