<svg xmlns="http://www.w3.org/2000/svg" width="63" height="64" viewBox="0 0 63 64" fill="none"><mask id="path-1-outside-1_1515_109" maskUnits="userSpaceOnUse" x="0" y="0" width="63" height="64" fill="black"><rect fill="white" width="63" height="64"></rect><path d="M60.5615 49.5549L46.3514 57.2131C44.965 57.9598 43.524 58.6132 42.0393 59.1682C41.9622 59.1966 41.8802 59.2113 41.7975 59.2115C41.645 59.2116 41.4973 59.1617 41.3798 59.0704C41.2622 58.9791 41.1822 58.8521 41.1536 58.7112C41.125 58.5704 41.1494 58.4246 41.2228 58.2989C41.2962 58.1733 41.4139 58.0756 41.5557 58.0228C42.9826 57.4896 44.3676 56.862 45.7002 56.1447L59.9103 48.4865C60.2026 48.3282 60.4437 48.098 60.6076 47.8208C60.7715 47.5435 60.8522 47.2295 60.8409 46.9124C60.8296 46.5953 60.7267 46.2871 60.5434 46.0207C60.3601 45.7544 60.1032 45.5399 59.8002 45.4004C59.5784 45.2973 59.3368 45.2374 59.0898 45.2244C58.8428 45.2114 58.5955 45.2455 58.3628 45.3246L39.464 51.6724C39.15 52.0331 38.7551 52.324 38.3075 52.5244C37.8599 52.7247 37.3707 52.8294 36.8751 52.8311H32.9173C32.7341 52.8316 32.5511 52.8175 32.3704 52.789L18.2934 50.6317C18.122 50.6054 17.9688 50.5161 17.8674 50.3836C17.766 50.251 17.7248 50.086 17.7528 49.9249C17.7808 49.7637 17.8757 49.6196 18.0167 49.5243C18.1576 49.429 18.3331 49.3902 18.5044 49.4165L32.584 51.5738C32.6942 51.5906 32.8057 51.599 32.9173 51.5991H36.8751C37.4256 51.5991 37.9536 51.3934 38.3429 51.0273C38.7321 50.6612 38.9508 50.1647 38.9508 49.647C38.9508 49.1292 38.7321 48.6327 38.3429 48.2666C37.9536 47.9005 37.4256 47.6948 36.8751 47.6948H35.8394C35.4355 47.695 35.0349 47.627 34.6566 47.4939L20.2988 42.4562C19.959 42.3356 19.5911 42.3024 19.2331 42.36L9.7727 43.8411V60.5892L15.5632 61.281C18.4532 61.6288 21.3801 61.6057 24.2636 61.2124L34.2466 59.8564C35.9486 59.6256 37.6282 59.2671 39.2694 58.7844C39.4354 58.7357 39.6151 58.7511 39.769 58.827C39.9229 58.9029 40.0384 59.0332 40.0902 59.1893C40.1419 59.3453 40.1256 59.5143 40.0449 59.659C39.9642 59.8038 39.8256 59.9124 39.6597 59.9611C37.9516 60.462 36.2041 60.835 34.4334 61.0764L24.4504 62.4324C21.4501 62.8387 18.4052 62.8626 15.3982 62.5034L9.2286 61.7661C8.94404 62.1584 8.56199 62.4794 8.11561 62.7014C7.66923 62.9234 7.172 63.0396 6.66704 63.04H4.1057C3.28241 63.0392 2.49309 62.7313 1.91087 62.1838C1.32865 61.6364 1.00108 60.8942 1 60.1199V48.0858C1 47.9224 1.06901 47.7657 1.19186 47.6502C1.3147 47.5347 1.48131 47.4698 1.65504 47.4698C1.82877 47.4698 1.99538 47.5347 2.11823 47.6502C2.24107 47.7657 2.31008 47.9224 2.31008 48.0858V60.1199C2.3106 60.5675 2.49997 60.9967 2.83662 61.3132C3.17327 61.6296 3.62969 61.8076 4.1057 61.8079H6.66702C7.14302 61.8076 7.59944 61.6296 7.93609 61.3132C8.27274 60.9967 8.4621 60.5675 8.46262 60.1199V44.0216C8.4621 43.5739 8.27274 43.1447 7.93609 42.8283C7.59945 42.5118 7.14302 42.3338 6.66702 42.3335H4.1057C3.62969 42.3338 3.17327 42.5118 2.83662 42.8283C2.49997 43.1447 2.3106 43.5739 2.31008 44.0216V45.1225C2.31008 45.2858 2.24107 45.4425 2.11823 45.5581C1.99538 45.6736 1.82877 45.7385 1.65504 45.7385C1.48131 45.7385 1.3147 45.6736 1.19186 45.5581C1.06901 45.4425 1 45.2858 1 45.1225V44.0216C1.00108 43.2473 1.32865 42.5051 1.91087 41.9577C2.49308 41.4102 3.28241 41.1023 4.1057 41.1015H6.66702C7.22802 41.1034 7.77794 41.2486 8.258 41.5216C8.73807 41.7946 9.13025 42.1851 9.39265 42.6515L19.0188 41.1448C19.6025 41.0534 20.2015 41.1073 20.7562 41.3013L35.1147 46.3389C35.3465 46.4207 35.5919 46.4626 35.8395 46.4629H36.8751C37.3648 46.4515 37.851 46.5428 38.2986 46.73C38.7462 46.9171 39.1439 47.1956 39.463 47.5451C39.7821 47.8946 40.0145 48.3065 40.1435 48.7509C40.2724 49.1953 40.2947 49.6611 40.2087 50.1146L57.9221 44.1647C58.3195 44.0313 58.7412 43.974 59.1625 43.9962C59.5837 44.0183 59.996 44.1195 60.3751 44.2937C60.7542 44.4679 61.0924 44.7116 61.3698 45.0106C61.6473 45.3096 61.8583 45.6577 61.9905 46.0345C62.2189 46.6863 62.2015 47.3923 61.9412 48.0335C61.681 48.6747 61.1937 49.212 60.5615 49.5549ZM26.6477 38.2885V6.54419C26.6494 5.07427 27.2711 3.66501 28.3763 2.62563C29.4815 1.58624 30.9801 1.0016 32.5431 1H50.2119C51.775 1.0016 53.2735 1.58624 54.3787 2.62563C55.484 3.66501 56.1056 5.07427 56.1073 6.54419V38.2885C56.1056 39.7584 55.484 41.1677 54.3787 42.207C53.2735 43.2464 51.775 43.8311 50.2119 43.8327H32.5431C30.9801 43.8311 29.4815 43.2464 28.3763 42.207C27.2711 41.1677 26.6494 39.7584 26.6477 38.2885ZM27.9578 36.2864H54.7972V8.14138H27.9578V36.2864ZM27.9578 6.54419V6.90934H54.7972V6.54419C54.7958 5.40096 54.3122 4.30495 53.4526 3.49657C52.593 2.68818 51.4276 2.23342 50.2119 2.23204H32.5431C31.3274 2.23343 30.162 2.68819 29.3024 3.49657C28.4428 4.30495 27.9593 5.40096 27.9578 6.54419ZM27.9578 38.2885C27.9593 39.4317 28.4428 40.5277 29.3024 41.3361C30.162 42.1445 31.3274 42.5992 32.5431 42.6006H50.2119C51.4276 42.5992 52.593 42.1445 53.4526 41.3361C54.3122 40.5277 54.7958 39.4317 54.7972 38.2885V37.5185H27.9578V38.2885ZM35.2963 5.25377H42.3649C42.5386 5.25377 42.7052 5.18887 42.8281 5.07334C42.9509 4.95782 43.0199 4.80113 43.0199 4.63775C43.0199 4.47437 42.9509 4.31768 42.8281 4.20216C42.7052 4.08663 42.5386 4.02173 42.3649 4.02173H35.2963C35.1226 4.02173 34.956 4.08663 34.8331 4.20216C34.7103 4.31768 34.6413 4.47437 34.6413 4.63775C34.6413 4.80113 34.7103 4.95782 34.8331 5.07334C34.956 5.18887 35.1226 5.25377 35.2963 5.25377ZM44.1426 5.25377H45.9599C46.1337 5.25377 46.3003 5.18887 46.4231 5.07334C46.546 4.95782 46.615 4.80113 46.615 4.63775C46.615 4.47437 46.546 4.31768 46.4231 4.20216C46.3003 4.08663 46.1337 4.02173 45.9599 4.02173H44.1426C43.9689 4.02173 43.8022 4.08663 43.6794 4.20216C43.5566 4.31768 43.4875 4.47437 43.4875 4.63775C43.4875 4.80113 43.5566 4.95782 43.6794 5.07334C43.8022 5.18887 43.9689 5.25377 44.1426 5.25377ZM47.6596 24.3624C47.5039 24.5382 47.3089 24.6795 47.0886 24.7764C46.8683 24.8733 46.6279 24.9234 46.3847 24.9231H36.0627C35.8157 24.9231 35.5719 24.8713 35.349 24.7714C35.1261 24.6716 34.9296 24.5262 34.774 24.3459C34.6183 24.1657 34.5074 23.955 34.4492 23.7294C34.3911 23.5037 34.3872 23.2686 34.4378 23.0414L36.5475 13.5863C36.6272 13.2362 36.8318 12.9223 37.1273 12.6966C37.4229 12.4709 37.7917 12.3472 38.1724 12.3458H44.5597C44.9486 12.3456 45.3253 12.474 45.6239 12.7084C45.9226 12.9428 46.1241 13.2684 46.1934 13.6284L48.0191 23.0828C48.0627 23.3079 48.053 23.5392 47.9909 23.7603C47.9288 23.9815 47.8157 24.187 47.6596 24.3624ZM46.7294 23.303L44.9038 13.848C44.8893 13.7721 44.8469 13.7034 44.7839 13.654C44.721 13.6046 44.6416 13.5777 44.5596 13.5779H38.1724C38.092 13.5781 38.0142 13.6042 37.9518 13.6518C37.8894 13.6994 37.8463 13.7657 37.8295 13.8396L35.7198 23.294C35.7092 23.342 35.7101 23.3916 35.7224 23.4391C35.7347 23.4867 35.7581 23.5311 35.791 23.5692C35.8238 23.6072 35.8652 23.6378 35.9122 23.6589C35.9592 23.68 36.0106 23.691 36.0627 23.6911H46.3847C46.436 23.6911 46.4867 23.6806 46.5331 23.6602C46.5796 23.6397 46.6208 23.61 46.6537 23.573C46.6865 23.5359 46.7104 23.4926 46.7235 23.4459C46.7366 23.3993 46.7386 23.3505 46.7294 23.303ZM44.1426 14.1518C44.0565 14.1517 43.9713 14.1676 43.8918 14.1986C43.8124 14.2295 43.7401 14.2749 43.6793 14.3321C43.6185 14.3893 43.5702 14.4573 43.5373 14.532C43.5044 14.6068 43.4875 14.6869 43.4875 14.7678V15.3616C43.4862 15.8598 43.2748 16.3372 42.8997 16.6891C42.5246 17.0409 42.0164 17.2385 41.4866 17.2385C40.9568 17.2385 40.4486 17.0409 40.0735 16.6891C39.6984 16.3372 39.487 15.8598 39.4856 15.3616V14.7678C39.4856 14.6044 39.4166 14.4477 39.2938 14.3322C39.1709 14.2167 39.0043 14.1518 38.8306 14.1518C38.6569 14.1518 38.4903 14.2167 38.3674 14.3322C38.2446 14.4477 38.1756 14.6044 38.1756 14.7678V15.3616C38.1773 16.1863 38.5269 16.9767 39.1477 17.5594C39.7684 18.142 40.6096 18.4692 41.4866 18.4692C42.3636 18.4692 43.2048 18.142 43.8255 17.5594C44.4463 16.9767 44.7959 16.1863 44.7976 15.3616V14.7678C44.7977 14.6869 44.7808 14.6068 44.7479 14.532C44.715 14.4573 44.6667 14.3893 44.6059 14.3321C44.545 14.2749 44.4728 14.2295 44.3933 14.1986C44.3138 14.1676 44.2286 14.1517 44.1426 14.1518ZM44.9512 29.4566C44.9512 30.1214 44.7417 30.7712 44.349 31.3239C43.9564 31.8766 43.3983 32.3074 42.7452 32.5618C42.0922 32.8162 41.3737 32.8828 40.6804 32.7531C39.9872 32.6235 39.3504 32.3034 38.8506 31.8333C38.3508 31.3633 38.0104 30.7645 37.8726 30.1125C37.7347 29.4606 37.8055 28.7848 38.076 28.1707C38.3465 27.5566 38.8046 27.0317 39.3924 26.6625C39.9801 26.2932 40.671 26.0961 41.3779 26.0962C42.3252 26.0972 43.2335 26.4516 43.9034 27.0816C44.5732 27.7116 44.9501 28.5657 44.9512 29.4566ZM43.6411 29.4566C43.6411 29.0356 43.5084 28.624 43.2597 28.2739C43.011 27.9238 42.6575 27.6509 42.2439 27.4898C41.8303 27.3286 41.3751 27.2865 40.936 27.3686C40.4969 27.4507 40.0935 27.6535 39.777 27.9512C39.4604 28.2489 39.2448 28.6282 39.1575 29.0412C39.0702 29.4541 39.115 29.8822 39.2864 30.2711C39.4577 30.6601 39.7479 30.9926 40.1202 31.2265C40.4925 31.4603 40.9301 31.5851 41.3778 31.5851C41.9779 31.5845 42.5532 31.36 42.9775 30.961C43.4018 30.562 43.6404 30.021 43.6411 29.4566Z"></path></mask><path d="M60.5615 49.5549L46.3514 57.2131C44.965 57.9598 43.524 58.6132 42.0393 59.1682C41.9622 59.1966 41.8802 59.2113 41.7975 59.2115C41.645 59.2116 41.4973 59.1617 41.3798 59.0704C41.2622 58.9791 41.1822 58.8521 41.1536 58.7112C41.125 58.5704 41.1494 58.4246 41.2228 58.2989C41.2962 58.1733 41.4139 58.0756 41.5557 58.0228C42.9826 57.4896 44.3676 56.862 45.7002 56.1447L59.9103 48.4865C60.2026 48.3282 60.4437 48.098 60.6076 47.8208C60.7715 47.5435 60.8522 47.2295 60.8409 46.9124C60.8296 46.5953 60.7267 46.2871 60.5434 46.0207C60.3601 45.7544 60.1032 45.5399 59.8002 45.4004C59.5784 45.2973 59.3368 45.2374 59.0898 45.2244C58.8428 45.2114 58.5955 45.2455 58.3628 45.3246L39.464 51.6724C39.15 52.0331 38.7551 52.324 38.3075 52.5244C37.8599 52.7247 37.3707 52.8294 36.8751 52.8311H32.9173C32.7341 52.8316 32.5511 52.8175 32.3704 52.789L18.2934 50.6317C18.122 50.6054 17.9688 50.5161 17.8674 50.3836C17.766 50.251 17.7248 50.086 17.7528 49.9249C17.7808 49.7637 17.8757 49.6196 18.0167 49.5243C18.1576 49.429 18.3331 49.3902 18.5044 49.4165L32.584 51.5738C32.6942 51.5906 32.8057 51.599 32.9173 51.5991H36.8751C37.4256 51.5991 37.9536 51.3934 38.3429 51.0273C38.7321 50.6612 38.9508 50.1647 38.9508 49.647C38.9508 49.1292 38.7321 48.6327 38.3429 48.2666C37.9536 47.9005 37.4256 47.6948 36.8751 47.6948H35.8394C35.4355 47.695 35.0349 47.627 34.6566 47.4939L20.2988 42.4562C19.959 42.3356 19.5911 42.3024 19.2331 42.36L9.7727 43.8411V60.5892L15.5632 61.281C18.4532 61.6288 21.3801 61.6057 24.2636 61.2124L34.2466 59.8564C35.9486 59.6256 37.6282 59.2671 39.2694 58.7844C39.4354 58.7357 39.6151 58.7511 39.769 58.827C39.9229 58.9029 40.0384 59.0332 40.0902 59.1893C40.1419 59.3453 40.1256 59.5143 40.0449 59.659C39.9642 59.8038 39.8256 59.9124 39.6597 59.9611C37.9516 60.462 36.2041 60.835 34.4334 61.0764L24.4504 62.4324C21.4501 62.8387 18.4052 62.8626 15.3982 62.5034L9.2286 61.7661C8.94404 62.1584 8.56199 62.4794 8.11561 62.7014C7.66923 62.9234 7.172 63.0396 6.66704 63.04H4.1057C3.28241 63.0392 2.49309 62.7313 1.91087 62.1838C1.32865 61.6364 1.00108 60.8942 1 60.1199V48.0858C1 47.9224 1.06901 47.7657 1.19186 47.6502C1.3147 47.5347 1.48131 47.4698 1.65504 47.4698C1.82877 47.4698 1.99538 47.5347 2.11823 47.6502C2.24107 47.7657 2.31008 47.9224 2.31008 48.0858V60.1199C2.3106 60.5675 2.49997 60.9967 2.83662 61.3132C3.17327 61.6296 3.62969 61.8076 4.1057 61.8079H6.66702C7.14302 61.8076 7.59944 61.6296 7.93609 61.3132C8.27274 60.9967 8.4621 60.5675 8.46262 60.1199V44.0216C8.4621 43.5739 8.27274 43.1447 7.93609 42.8283C7.59945 42.5118 7.14302 42.3338 6.66702 42.3335H4.1057C3.62969 42.3338 3.17327 42.5118 2.83662 42.8283C2.49997 43.1447 2.3106 43.5739 2.31008 44.0216V45.1225C2.31008 45.2858 2.24107 45.4425 2.11823 45.5581C1.99538 45.6736 1.82877 45.7385 1.65504 45.7385C1.48131 45.7385 1.3147 45.6736 1.19186 45.5581C1.06901 45.4425 1 45.2858 1 45.1225V44.0216C1.00108 43.2473 1.32865 42.5051 1.91087 41.9577C2.49308 41.4102 3.28241 41.1023 4.1057 41.1015H6.66702C7.22802 41.1034 7.77794 41.2486 8.258 41.5216C8.73807 41.7946 9.13025 42.1851 9.39265 42.6515L19.0188 41.1448C19.6025 41.0534 20.2015 41.1073 20.7562 41.3013L35.1147 46.3389C35.3465 46.4207 35.5919 46.4626 35.8395 46.4629H36.8751C37.3648 46.4515 37.851 46.5428 38.2986 46.73C38.7462 46.9171 39.1439 47.1956 39.463 47.5451C39.7821 47.8946 40.0145 48.3065 40.1435 48.7509C40.2724 49.1953 40.2947 49.6611 40.2087 50.1146L57.9221 44.1647C58.3195 44.0313 58.7412 43.974 59.1625 43.9962C59.5837 44.0183 59.996 44.1195 60.3751 44.2937C60.7542 44.4679 61.0924 44.7116 61.3698 45.0106C61.6473 45.3096 61.8583 45.6577 61.9905 46.0345C62.2189 46.6863 62.2015 47.3923 61.9412 48.0335C61.681 48.6747 61.1937 49.212 60.5615 49.5549ZM26.6477 38.2885V6.54419C26.6494 5.07427 27.2711 3.66501 28.3763 2.62563C29.4815 1.58624 30.9801 1.0016 32.5431 1H50.2119C51.775 1.0016 53.2735 1.58624 54.3787 2.62563C55.484 3.66501 56.1056 5.07427 56.1073 6.54419V38.2885C56.1056 39.7584 55.484 41.1677 54.3787 42.207C53.2735 43.2464 51.775 43.8311 50.2119 43.8327H32.5431C30.9801 43.8311 29.4815 43.2464 28.3763 42.207C27.2711 41.1677 26.6494 39.7584 26.6477 38.2885ZM27.9578 36.2864H54.7972V8.14138H27.9578V36.2864ZM27.9578 6.54419V6.90934H54.7972V6.54419C54.7958 5.40096 54.3122 4.30495 53.4526 3.49657C52.593 2.68818 51.4276 2.23342 50.2119 2.23204H32.5431C31.3274 2.23343 30.162 2.68819 29.3024 3.49657C28.4428 4.30495 27.9593 5.40096 27.9578 6.54419ZM27.9578 38.2885C27.9593 39.4317 28.4428 40.5277 29.3024 41.3361C30.162 42.1445 31.3274 42.5992 32.5431 42.6006H50.2119C51.4276 42.5992 52.593 42.1445 53.4526 41.3361C54.3122 40.5277 54.7958 39.4317 54.7972 38.2885V37.5185H27.9578V38.2885ZM35.2963 5.25377H42.3649C42.5386 5.25377 42.7052 5.18887 42.8281 5.07334C42.9509 4.95782 43.0199 4.80113 43.0199 4.63775C43.0199 4.47437 42.9509 4.31768 42.8281 4.20216C42.7052 4.08663 42.5386 4.02173 42.3649 4.02173H35.2963C35.1226 4.02173 34.956 4.08663 34.8331 4.20216C34.7103 4.31768 34.6413 4.47437 34.6413 4.63775C34.6413 4.80113 34.7103 4.95782 34.8331 5.07334C34.956 5.18887 35.1226 5.25377 35.2963 5.25377ZM44.1426 5.25377H45.9599C46.1337 5.25377 46.3003 5.18887 46.4231 5.07334C46.546 4.95782 46.615 4.80113 46.615 4.63775C46.615 4.47437 46.546 4.31768 46.4231 4.20216C46.3003 4.08663 46.1337 4.02173 45.9599 4.02173H44.1426C43.9689 4.02173 43.8022 4.08663 43.6794 4.20216C43.5566 4.31768 43.4875 4.47437 43.4875 4.63775C43.4875 4.80113 43.5566 4.95782 43.6794 5.07334C43.8022 5.18887 43.9689 5.25377 44.1426 5.25377ZM47.6596 24.3624C47.5039 24.5382 47.3089 24.6795 47.0886 24.7764C46.8683 24.8733 46.6279 24.9234 46.3847 24.9231H36.0627C35.8157 24.9231 35.5719 24.8713 35.349 24.7714C35.1261 24.6716 34.9296 24.5262 34.774 24.3459C34.6183 24.1657 34.5074 23.955 34.4492 23.7294C34.3911 23.5037 34.3872 23.2686 34.4378 23.0414L36.5475 13.5863C36.6272 13.2362 36.8318 12.9223 37.1273 12.6966C37.4229 12.4709 37.7917 12.3472 38.1724 12.3458H44.5597C44.9486 12.3456 45.3253 12.474 45.6239 12.7084C45.9226 12.9428 46.1241 13.2684 46.1934 13.6284L48.0191 23.0828C48.0627 23.3079 48.053 23.5392 47.9909 23.7603C47.9288 23.9815 47.8157 24.187 47.6596 24.3624ZM46.7294 23.303L44.9038 13.848C44.8893 13.7721 44.8469 13.7034 44.7839 13.654C44.721 13.6046 44.6416 13.5777 44.5596 13.5779H38.1724C38.092 13.5781 38.0142 13.6042 37.9518 13.6518C37.8894 13.6994 37.8463 13.7657 37.8295 13.8396L35.7198 23.294C35.7092 23.342 35.7101 23.3916 35.7224 23.4391C35.7347 23.4867 35.7581 23.5311 35.791 23.5692C35.8238 23.6072 35.8652 23.6378 35.9122 23.6589C35.9592 23.68 36.0106 23.691 36.0627 23.6911H46.3847C46.436 23.6911 46.4867 23.6806 46.5331 23.6602C46.5796 23.6397 46.6208 23.61 46.6537 23.573C46.6865 23.5359 46.7104 23.4926 46.7235 23.4459C46.7366 23.3993 46.7386 23.3505 46.7294 23.303ZM44.1426 14.1518C44.0565 14.1517 43.9713 14.1676 43.8918 14.1986C43.8124 14.2295 43.7401 14.2749 43.6793 14.3321C43.6185 14.3893 43.5702 14.4573 43.5373 14.532C43.5044 14.6068 43.4875 14.6869 43.4875 14.7678V15.3616C43.4862 15.8598 43.2748 16.3372 42.8997 16.6891C42.5246 17.0409 42.0164 17.2385 41.4866 17.2385C40.9568 17.2385 40.4486 17.0409 40.0735 16.6891C39.6984 16.3372 39.487 15.8598 39.4856 15.3616V14.7678C39.4856 14.6044 39.4166 14.4477 39.2938 14.3322C39.1709 14.2167 39.0043 14.1518 38.8306 14.1518C38.6569 14.1518 38.4903 14.2167 38.3674 14.3322C38.2446 14.4477 38.1756 14.6044 38.1756 14.7678V15.3616C38.1773 16.1863 38.5269 16.9767 39.1477 17.5594C39.7684 18.142 40.6096 18.4692 41.4866 18.4692C42.3636 18.4692 43.2048 18.142 43.8255 17.5594C44.4463 16.9767 44.7959 16.1863 44.7976 15.3616V14.7678C44.7977 14.6869 44.7808 14.6068 44.7479 14.532C44.715 14.4573 44.6667 14.3893 44.6059 14.3321C44.545 14.2749 44.4728 14.2295 44.3933 14.1986C44.3138 14.1676 44.2286 14.1517 44.1426 14.1518ZM44.9512 29.4566C44.9512 30.1214 44.7417 30.7712 44.349 31.3239C43.9564 31.8766 43.3983 32.3074 42.7452 32.5618C42.0922 32.8162 41.3737 32.8828 40.6804 32.7531C39.9872 32.6235 39.3504 32.3034 38.8506 31.8333C38.3508 31.3633 38.0104 30.7645 37.8726 30.1125C37.7347 29.4606 37.8055 28.7848 38.076 28.1707C38.3465 27.5566 38.8046 27.0317 39.3924 26.6625C39.9801 26.2932 40.671 26.0961 41.3779 26.0962C42.3252 26.0972 43.2335 26.4516 43.9034 27.0816C44.5732 27.7116 44.9501 28.5657 44.9512 29.4566ZM43.6411 29.4566C43.6411 29.0356 43.5084 28.624 43.2597 28.2739C43.011 27.9238 42.6575 27.6509 42.2439 27.4898C41.8303 27.3286 41.3751 27.2865 40.936 27.3686C40.4969 27.4507 40.0935 27.6535 39.777 27.9512C39.4604 28.2489 39.2448 28.6282 39.1575 29.0412C39.0702 29.4541 39.115 29.8822 39.2864 30.2711C39.4577 30.6601 39.7479 30.9926 40.1202 31.2265C40.4925 31.4603 40.9301 31.5851 41.3778 31.5851C41.9779 31.5845 42.5532 31.36 42.9775 30.961C43.4018 30.562 43.6404 30.021 43.6411 29.4566Z" fill="#0369CA"></path><path d="M60.5615 49.5549L46.3514 57.2131C44.965 57.9598 43.524 58.6132 42.0393 59.1682C41.9622 59.1966 41.8802 59.2113 41.7975 59.2115C41.645 59.2116 41.4973 59.1617 41.3798 59.0704C41.2622 58.9791 41.1822 58.8521 41.1536 58.7112C41.125 58.5704 41.1494 58.4246 41.2228 58.2989C41.2962 58.1733 41.4139 58.0756 41.5557 58.0228C42.9826 57.4896 44.3676 56.862 45.7002 56.1447L59.9103 48.4865C60.2026 48.3282 60.4437 48.098 60.6076 47.8208C60.7715 47.5435 60.8522 47.2295 60.8409 46.9124C60.8296 46.5953 60.7267 46.2871 60.5434 46.0207C60.3601 45.7544 60.1032 45.5399 59.8002 45.4004C59.5784 45.2973 59.3368 45.2374 59.0898 45.2244C58.8428 45.2114 58.5955 45.2455 58.3628 45.3246L39.464 51.6724C39.15 52.0331 38.7551 52.324 38.3075 52.5244C37.8599 52.7247 37.3707 52.8294 36.8751 52.8311H32.9173C32.7341 52.8316 32.5511 52.8175 32.3704 52.789L18.2934 50.6317C18.122 50.6054 17.9688 50.5161 17.8674 50.3836C17.766 50.251 17.7248 50.086 17.7528 49.9249C17.7808 49.7637 17.8757 49.6196 18.0167 49.5243C18.1576 49.429 18.3331 49.3902 18.5044 49.4165L32.584 51.5738C32.6942 51.5906 32.8057 51.599 32.9173 51.5991H36.8751C37.4256 51.5991 37.9536 51.3934 38.3429 51.0273C38.7321 50.6612 38.9508 50.1647 38.9508 49.647C38.9508 49.1292 38.7321 48.6327 38.3429 48.2666C37.9536 47.9005 37.4256 47.6948 36.8751 47.6948H35.8394C35.4355 47.695 35.0349 47.627 34.6566 47.4939L20.2988 42.4562C19.959 42.3356 19.5911 42.3024 19.2331 42.36L9.7727 43.8411V60.5892L15.5632 61.281C18.4532 61.6288 21.3801 61.6057 24.2636 61.2124L34.2466 59.8564C35.9486 59.6256 37.6282 59.2671 39.2694 58.7844C39.4354 58.7357 39.6151 58.7511 39.769 58.827C39.9229 58.9029 40.0384 59.0332 40.0902 59.1893C40.1419 59.3453 40.1256 59.5143 40.0449 59.659C39.9642 59.8038 39.8256 59.9124 39.6597 59.9611C37.9516 60.462 36.2041 60.835 34.4334 61.0764L24.4504 62.4324C21.4501 62.8387 18.4052 62.8626 15.3982 62.5034L9.2286 61.7661C8.94404 62.1584 8.56199 62.4794 8.11561 62.7014C7.66923 62.9234 7.172 63.0396 6.66704 63.04H4.1057C3.28241 63.0392 2.49309 62.7313 1.91087 62.1838C1.32865 61.6364 1.00108 60.8942 1 60.1199V48.0858C1 47.9224 1.06901 47.7657 1.19186 47.6502C1.3147 47.5347 1.48131 47.4698 1.65504 47.4698C1.82877 47.4698 1.99538 47.5347 2.11823 47.6502C2.24107 47.7657 2.31008 47.9224 2.31008 48.0858V60.1199C2.3106 60.5675 2.49997 60.9967 2.83662 61.3132C3.17327 61.6296 3.62969 61.8076 4.1057 61.8079H6.66702C7.14302 61.8076 7.59944 61.6296 7.93609 61.3132C8.27274 60.9967 8.4621 60.5675 8.46262 60.1199V44.0216C8.4621 43.5739 8.27274 43.1447 7.93609 42.8283C7.59945 42.5118 7.14302 42.3338 6.66702 42.3335H4.1057C3.62969 42.3338 3.17327 42.5118 2.83662 42.8283C2.49997 43.1447 2.3106 43.5739 2.31008 44.0216V45.1225C2.31008 45.2858 2.24107 45.4425 2.11823 45.5581C1.99538 45.6736 1.82877 45.7385 1.65504 45.7385C1.48131 45.7385 1.3147 45.6736 1.19186 45.5581C1.06901 45.4425 1 45.2858 1 45.1225V44.0216C1.00108 43.2473 1.32865 42.5051 1.91087 41.9577C2.49308 41.4102 3.28241 41.1023 4.1057 41.1015H6.66702C7.22802 41.1034 7.77794 41.2486 8.258 41.5216C8.73807 41.7946 9.13025 42.1851 9.39265 42.6515L19.0188 41.1448C19.6025 41.0534 20.2015 41.1073 20.7562 41.3013L35.1147 46.3389C35.3465 46.4207 35.5919 46.4626 35.8395 46.4629H36.8751C37.3648 46.4515 37.851 46.5428 38.2986 46.73C38.7462 46.9171 39.1439 47.1956 39.463 47.5451C39.7821 47.8946 40.0145 48.3065 40.1435 48.7509C40.2724 49.1953 40.2947 49.6611 40.2087 50.1146L57.9221 44.1647C58.3195 44.0313 58.7412 43.974 59.1625 43.9962C59.5837 44.0183 59.996 44.1195 60.3751 44.2937C60.7542 44.4679 61.0924 44.7116 61.3698 45.0106C61.6473 45.3096 61.8583 45.6577 61.9905 46.0345C62.2189 46.6863 62.2015 47.3923 61.9412 48.0335C61.681 48.6747 61.1937 49.212 60.5615 49.5549ZM26.6477 38.2885V6.54419C26.6494 5.07427 27.2711 3.66501 28.3763 2.62563C29.4815 1.58624 30.9801 1.0016 32.5431 1H50.2119C51.775 1.0016 53.2735 1.58624 54.3787 2.62563C55.484 3.66501 56.1056 5.07427 56.1073 6.54419V38.2885C56.1056 39.7584 55.484 41.1677 54.3787 42.207C53.2735 43.2464 51.775 43.8311 50.2119 43.8327H32.5431C30.9801 43.8311 29.4815 43.2464 28.3763 42.207C27.2711 41.1677 26.6494 39.7584 26.6477 38.2885ZM27.9578 36.2864H54.7972V8.14138H27.9578V36.2864ZM27.9578 6.54419V6.90934H54.7972V6.54419C54.7958 5.40096 54.3122 4.30495 53.4526 3.49657C52.593 2.68818 51.4276 2.23342 50.2119 2.23204H32.5431C31.3274 2.23343 30.162 2.68819 29.3024 3.49657C28.4428 4.30495 27.9593 5.40096 27.9578 6.54419ZM27.9578 38.2885C27.9593 39.4317 28.4428 40.5277 29.3024 41.3361C30.162 42.1445 31.3274 42.5992 32.5431 42.6006H50.2119C51.4276 42.5992 52.593 42.1445 53.4526 41.3361C54.3122 40.5277 54.7958 39.4317 54.7972 38.2885V37.5185H27.9578V38.2885ZM35.2963 5.25377H42.3649C42.5386 5.25377 42.7052 5.18887 42.8281 5.07334C42.9509 4.95782 43.0199 4.80113 43.0199 4.63775C43.0199 4.47437 42.9509 4.31768 42.8281 4.20216C42.7052 4.08663 42.5386 4.02173 42.3649 4.02173H35.2963C35.1226 4.02173 34.956 4.08663 34.8331 4.20216C34.7103 4.31768 34.6413 4.47437 34.6413 4.63775C34.6413 4.80113 34.7103 4.95782 34.8331 5.07334C34.956 5.18887 35.1226 5.25377 35.2963 5.25377ZM44.1426 5.25377H45.9599C46.1337 5.25377 46.3003 5.18887 46.4231 5.07334C46.546 4.95782 46.615 4.80113 46.615 4.63775C46.615 4.47437 46.546 4.31768 46.4231 4.20216C46.3003 4.08663 46.1337 4.02173 45.9599 4.02173H44.1426C43.9689 4.02173 43.8022 4.08663 43.6794 4.20216C43.5566 4.31768 43.4875 4.47437 43.4875 4.63775C43.4875 4.80113 43.5566 4.95782 43.6794 5.07334C43.8022 5.18887 43.9689 5.25377 44.1426 5.25377ZM47.6596 24.3624C47.5039 24.5382 47.3089 24.6795 47.0886 24.7764C46.8683 24.8733 46.6279 24.9234 46.3847 24.9231H36.0627C35.8157 24.9231 35.5719 24.8713 35.349 24.7714C35.1261 24.6716 34.9296 24.5262 34.774 24.3459C34.6183 24.1657 34.5074 23.955 34.4492 23.7294C34.3911 23.5037 34.3872 23.2686 34.4378 23.0414L36.5475 13.5863C36.6272 13.2362 36.8318 12.9223 37.1273 12.6966C37.4229 12.4709 37.7917 12.3472 38.1724 12.3458H44.5597C44.9486 12.3456 45.3253 12.474 45.6239 12.7084C45.9226 12.9428 46.1241 13.2684 46.1934 13.6284L48.0191 23.0828C48.0627 23.3079 48.053 23.5392 47.9909 23.7603C47.9288 23.9815 47.8157 24.187 47.6596 24.3624ZM46.7294 23.303L44.9038 13.848C44.8893 13.7721 44.8469 13.7034 44.7839 13.654C44.721 13.6046 44.6416 13.5777 44.5596 13.5779H38.1724C38.092 13.5781 38.0142 13.6042 37.9518 13.6518C37.8894 13.6994 37.8463 13.7657 37.8295 13.8396L35.7198 23.294C35.7092 23.342 35.7101 23.3916 35.7224 23.4391C35.7347 23.4867 35.7581 23.5311 35.791 23.5692C35.8238 23.6072 35.8652 23.6378 35.9122 23.6589C35.9592 23.68 36.0106 23.691 36.0627 23.6911H46.3847C46.436 23.6911 46.4867 23.6806 46.5331 23.6602C46.5796 23.6397 46.6208 23.61 46.6537 23.573C46.6865 23.5359 46.7104 23.4926 46.7235 23.4459C46.7366 23.3993 46.7386 23.3505 46.7294 23.303ZM44.1426 14.1518C44.0565 14.1517 43.9713 14.1676 43.8918 14.1986C43.8124 14.2295 43.7401 14.2749 43.6793 14.3321C43.6185 14.3893 43.5702 14.4573 43.5373 14.532C43.5044 14.6068 43.4875 14.6869 43.4875 14.7678V15.3616C43.4862 15.8598 43.2748 16.3372 42.8997 16.6891C42.5246 17.0409 42.0164 17.2385 41.4866 17.2385C40.9568 17.2385 40.4486 17.0409 40.0735 16.6891C39.6984 16.3372 39.487 15.8598 39.4856 15.3616V14.7678C39.4856 14.6044 39.4166 14.4477 39.2938 14.3322C39.1709 14.2167 39.0043 14.1518 38.8306 14.1518C38.6569 14.1518 38.4903 14.2167 38.3674 14.3322C38.2446 14.4477 38.1756 14.6044 38.1756 14.7678V15.3616C38.1773 16.1863 38.5269 16.9767 39.1477 17.5594C39.7684 18.142 40.6096 18.4692 41.4866 18.4692C42.3636 18.4692 43.2048 18.142 43.8255 17.5594C44.4463 16.9767 44.7959 16.1863 44.7976 15.3616V14.7678C44.7977 14.6869 44.7808 14.6068 44.7479 14.532C44.715 14.4573 44.6667 14.3893 44.6059 14.3321C44.545 14.2749 44.4728 14.2295 44.3933 14.1986C44.3138 14.1676 44.2286 14.1517 44.1426 14.1518ZM44.9512 29.4566C44.9512 30.1214 44.7417 30.7712 44.349 31.3239C43.9564 31.8766 43.3983 32.3074 42.7452 32.5618C42.0922 32.8162 41.3737 32.8828 40.6804 32.7531C39.9872 32.6235 39.3504 32.3034 38.8506 31.8333C38.3508 31.3633 38.0104 30.7645 37.8726 30.1125C37.7347 29.4606 37.8055 28.7848 38.076 28.1707C38.3465 27.5566 38.8046 27.0317 39.3924 26.6625C39.9801 26.2932 40.671 26.0961 41.3779 26.0962C42.3252 26.0972 43.2335 26.4516 43.9034 27.0816C44.5732 27.7116 44.9501 28.5657 44.9512 29.4566ZM43.6411 29.4566C43.6411 29.0356 43.5084 28.624 43.2597 28.2739C43.011 27.9238 42.6575 27.6509 42.2439 27.4898C41.8303 27.3286 41.3751 27.2865 40.936 27.3686C40.4969 27.4507 40.0935 27.6535 39.777 27.9512C39.4604 28.2489 39.2448 28.6282 39.1575 29.0412C39.0702 29.4541 39.115 29.8822 39.2864 30.2711C39.4577 30.6601 39.7479 30.9926 40.1202 31.2265C40.4925 31.4603 40.9301 31.5851 41.3778 31.5851C41.9779 31.5845 42.5532 31.36 42.9775 30.961C43.4018 30.562 43.6404 30.021 43.6411 29.4566Z" stroke="#0369CA" mask="url(#path-1-outside-1_1515_109)"></path></svg>