<svg xmlns="http://www.w3.org/2000/svg" width="63" height="64" viewBox="0 0 63 64" fill="none"><mask id="path-1-outside-1_1515_108" maskUnits="userSpaceOnUse" x="0" y="0" width="63" height="64" fill="black"><rect fill="white" width="63" height="64"></rect><path d="M1.95583 63.04H39.6155C39.8689 63.04 40.112 62.9379 40.2911 62.7561C40.4703 62.5742 40.571 62.3277 40.571 62.0705V52.7992C40.5856 51.3909 40.1561 50.0147 39.3451 48.8717C38.534 47.7288 37.384 46.8789 36.0631 46.4463L26.4129 43.1823V40.0905C26.4129 40.057 26.4113 40.0238 26.408 39.9912C27.6295 39.0145 28.5865 37.7391 29.1894 36.2846C29.8874 36.2827 30.5705 36.0794 31.1588 35.6983C31.7472 35.3172 32.2166 34.7742 32.5121 34.1326C32.8077 33.4909 32.9172 32.7773 32.828 32.0748C32.7387 31.3724 32.4543 30.7102 32.008 30.1657C32.1504 29.4977 32.389 28.2649 32.4921 27.5556C32.5235 27.3382 32.5547 27.1343 32.5842 26.9414C32.8614 25.1291 33.0284 24.0353 31.9543 21.983C30.7872 19.7551 29.0031 17.9223 26.8221 16.7105C24.641 15.4988 22.1582 14.9609 19.6795 15.1633C17.2009 15.3656 14.8347 16.2994 12.8727 17.8494C10.9106 19.3995 9.43839 21.4981 8.63738 23.8867C8.62038 23.9374 8.60756 23.9894 8.59904 24.0423C8.28052 26.0147 8.55127 28.0737 9.40199 30.1675C8.95657 30.7117 8.67274 31.3732 8.58359 32.0748C8.49444 32.7764 8.60364 33.4893 8.89845 34.1304C9.19327 34.7714 9.66157 35.3143 10.2488 35.6956C10.836 36.077 11.5179 36.2812 12.2151 36.2845C12.8352 37.7731 13.8236 39.0741 15.0845 40.0616C15.1084 40.0805 15.1336 40.098 15.1579 40.1165V43.1824L5.50776 46.4463C4.18691 46.879 3.03704 47.7289 2.22611 48.8719C1.41517 50.0148 0.98568 51.3909 1.00036 52.7992V62.0705C1.00036 62.3277 1.10103 62.5742 1.28021 62.7561C1.4594 62.9379 1.70242 63.04 1.95583 63.04ZM23.1334 50.1302L22.7491 52.3587H18.822L18.4785 50.3656C18.4611 50.2646 18.4278 50.1671 18.3801 50.0767L20.7857 48.3438L23.1518 50.0487C23.1449 50.0751 23.1383 50.1022 23.1334 50.1302ZM19.0825 54.2976H22.49L23.6622 61.1011H17.9091L19.0825 54.2976ZM38.6607 52.7992V61.1011H34.091V56.8589C34.091 56.6018 33.9904 56.3552 33.8112 56.1734C33.632 55.9916 33.389 55.8895 33.1356 55.8895C32.8822 55.8895 32.6391 55.9916 32.46 56.1734C32.2808 56.3552 32.1801 56.6018 32.1801 56.8589V61.1011H25.602L24.392 54.0819L24.8736 51.2888L27.6086 53.2594C27.7515 53.3624 27.9196 53.4235 28.0945 53.4361C28.2694 53.4486 28.4443 53.412 28.6001 53.3304C28.7559 53.2488 28.8866 53.1253 28.9778 52.9734C29.069 52.8214 29.1172 52.647 29.1173 52.4691V46.1405L35.4591 48.2855C36.3974 48.593 37.2141 49.197 37.79 50.009C38.3659 50.8211 38.6708 51.7988 38.6601 52.7992H38.6607ZM27.207 45.4941V50.5915L22.4368 47.1542L25.5285 44.9264L27.207 45.4941ZM29.782 34.2362C29.9732 33.1149 29.9609 31.9676 29.7456 30.8509C30.0928 30.9699 30.3949 31.1954 30.6102 31.4963C30.8255 31.7972 30.9433 32.1586 30.9473 32.5304C30.9513 32.9022 30.8413 33.2661 30.6326 33.5717C30.4238 33.8773 30.1266 34.1095 29.782 34.2362ZM10.4725 24.4347C11.1659 22.416 12.4244 20.6464 14.0939 19.3424C15.7635 18.0384 17.7716 17.2567 19.8722 17.0931C21.9729 16.9294 24.0751 17.3909 25.9212 18.421C27.7674 19.4511 29.2774 21.0051 30.2664 22.8926C31.0428 24.3752 30.9552 24.9471 30.6958 26.6442C30.6656 26.8418 30.6337 27.0506 30.6013 27.2733C30.5361 27.7228 30.4117 28.4016 30.2957 28.9923C29.9342 28.8749 29.557 28.8153 29.1774 28.8155H29.1434C28.0631 25.1984 26.8429 23.3259 25.3151 22.9337C24.6452 22.7615 23.6014 22.8077 22.4355 24.0041C22.3803 24.0606 22.3321 24.1237 22.2921 24.1921C20.5448 27.1879 17.4243 28.6187 13.0193 28.4456C12.8686 28.4397 12.7188 28.4701 12.582 28.5343C12.4452 28.5985 12.3254 28.6947 12.2323 28.815C11.8168 28.815 11.4043 28.8868 11.0124 29.0272C10.4327 27.441 10.2509 25.8993 10.4725 24.4347ZM10.4641 32.5502C10.4647 32.1882 10.573 31.8348 10.7748 31.5363C10.9766 31.2378 11.2626 31.0081 11.5953 30.8773C11.406 31.9864 11.4107 33.1207 11.609 34.2282C11.273 34.0993 10.9835 33.8698 10.7791 33.5702C10.5746 33.2705 10.4647 32.9148 10.4641 32.5503V32.5502ZM13.6616 30.3992H13.7375C18.4354 30.3992 21.8421 28.6825 23.8719 25.2898C24.1585 25.011 24.5364 24.733 24.8466 24.8134C25.1391 24.8884 26.1883 25.4617 27.4057 29.6868C27.4157 29.7215 27.4276 29.7557 27.4415 29.789C28.0635 31.2969 28.1768 32.9712 27.7637 34.5512C27.3505 36.1312 26.4342 37.5282 25.1573 38.5249C23.8803 39.5216 22.3145 40.062 20.7034 40.062C19.0924 40.0619 17.5265 39.5214 16.2497 38.5247C15.0671 37.5881 14.1883 36.3133 13.727 34.8648C13.2656 33.4164 13.2428 31.8609 13.6616 30.3992ZM20.7033 41.9982C22.0135 41.9981 23.3087 41.7147 24.5025 41.1669V43.2872L20.7857 45.9653L17.0689 43.2872V41.2428C18.2174 41.7417 19.4539 41.9988 20.7033 41.9982ZM16.0438 44.9264L19.1355 47.1542L14.3649 50.5915V45.4941L16.0438 44.9264ZM2.91129 52.7992C2.90058 51.7988 3.20543 50.8212 3.7813 50.0091C4.35717 49.1971 5.17387 48.5932 6.11209 48.2856L12.454 46.1407V52.4692C12.454 52.6471 12.5022 52.8216 12.5935 52.9735C12.6847 53.1254 12.8153 53.2489 12.9711 53.3305C13.1269 53.4122 13.3018 53.4487 13.4767 53.4362C13.6516 53.4237 13.8197 53.3626 13.9627 53.2596L16.6977 51.289L17.1791 54.082L15.9692 61.1011H9.39112V56.8589C9.39112 56.6018 9.29046 56.3552 9.11127 56.1734C8.93209 55.9916 8.68906 55.8895 8.43566 55.8895C8.18225 55.8895 7.93923 55.9916 7.76004 56.1734C7.58086 56.3552 7.4802 56.6018 7.4802 56.8589V61.1011H2.91129V52.7992ZM62.15 22.4606C62.15 22.7177 62.0493 22.9643 61.8702 23.1461C61.691 23.3279 61.4479 23.4301 61.1945 23.4301H36.0318C35.7784 23.4301 35.5354 23.3279 35.3562 23.1461C35.177 22.9643 35.0764 22.7177 35.0764 22.4606C35.0764 22.2035 35.177 21.9569 35.3562 21.7751C35.5354 21.5933 35.7784 21.4912 36.0318 21.4912H39.6582V15.4562C39.6582 15.1991 39.7588 14.9525 39.938 14.7707C40.1172 14.5889 40.3602 14.4868 40.6136 14.4868C40.867 14.4868 41.1101 14.5889 41.2892 14.7707C41.4684 14.9525 41.5691 15.1991 41.5691 15.4562V21.4912H44.9912V10.5331C44.9912 10.2759 45.0919 10.0293 45.271 9.84754C45.4502 9.66573 45.6933 9.56359 45.9467 9.56359C46.2001 9.56359 46.4431 9.66573 46.6223 9.84754C46.8015 10.0293 46.9021 10.2759 46.9021 10.5331V21.4912H50.3242V12.7285C50.3242 12.4714 50.4249 12.2248 50.6041 12.043C50.7833 11.8612 51.0263 11.7591 51.2797 11.7591C51.5331 11.7591 51.7761 11.8612 51.9553 12.043C52.1345 12.2248 52.2352 12.4714 52.2352 12.7285V21.4912H55.6574V7.73869C55.6574 7.48157 55.7581 7.23499 55.9372 7.05318C56.1164 6.87137 56.3594 6.76923 56.6129 6.76923C56.8663 6.76923 57.1093 6.87137 57.2885 7.05318C57.4677 7.23499 57.5683 7.48157 57.5683 7.73869V21.4912H61.1945C61.4479 21.4912 61.691 21.5933 61.8702 21.7751C62.0493 21.9569 62.15 22.2035 62.15 22.4606ZM55.965 1.25103C56.1518 1.07938 56.3977 0.989509 56.6494 1.00098C56.9011 1.01244 57.1382 1.12432 57.309 1.31226C57.4798 1.5002 57.5705 1.74899 57.5614 2.00447C57.5523 2.25995 57.4441 2.50144 57.2604 2.67639L51.9274 7.66622C51.7942 7.79085 51.6288 7.87447 51.4505 7.90734C51.2723 7.94021 51.0885 7.92098 50.9206 7.85188L46.1448 5.8858L41.2567 10.3981C41.069 10.5696 40.822 10.6587 40.5698 10.646C40.3175 10.6332 40.0805 10.5197 39.9105 10.3302C39.7405 10.1406 39.6514 9.89049 39.6627 9.63449C39.674 9.37848 39.7847 9.1374 39.9706 8.96397L45.3036 4.04067C45.4368 3.91758 45.6016 3.8352 45.7789 3.80303C45.9563 3.77087 46.139 3.79024 46.3059 3.85889L51.0775 5.82315L55.965 1.25103ZM35.8242 31.5687C35.6121 31.6166 35.4223 31.7365 35.2863 31.9085C35.1504 32.0806 35.0762 32.2945 35.0762 32.5151V34.9619C35.0762 35.1824 35.1504 35.3964 35.2863 35.5684C35.4223 35.7405 35.6121 35.8603 35.8242 35.9082L36.557 36.0736C36.6779 36.4522 36.8284 36.8203 37.0069 37.1747L36.6038 37.8176C36.4871 38.0037 36.4364 38.2246 36.4601 38.4438C36.4839 38.6631 36.5806 38.8676 36.7343 39.0236L38.4395 40.7533C38.5932 40.9093 38.7947 41.0074 39.0107 41.0314C39.2268 41.0555 39.4444 41.0041 39.6278 40.8858L40.2614 40.4769C40.6107 40.6581 40.9736 40.8107 41.3467 40.9334L41.5096 41.6767C41.5568 41.892 41.6749 42.0845 41.8445 42.2225C42.014 42.3605 42.2249 42.4357 42.4423 42.4357H44.8534C45.0707 42.4357 45.2816 42.3605 45.4511 42.2225C45.6207 42.0845 45.7388 41.892 45.786 41.6767L45.9489 40.9334C46.3221 40.8108 46.6851 40.6581 47.0343 40.4769L47.6673 40.8858C47.8507 41.0041 48.0684 41.0555 48.2844 41.0314C48.5005 41.0074 48.702 40.9093 48.8557 40.7533L50.5608 39.0236C50.7146 38.8676 50.8113 38.6631 50.835 38.4438C50.8588 38.2246 50.8081 38.0037 50.6914 37.8176L50.2883 37.1747C50.4668 36.8203 50.6173 36.4521 50.7383 36.0736L51.4709 35.9082C51.6831 35.8603 51.8728 35.7405 52.0088 35.5684C52.1448 35.3964 52.2189 35.1824 52.2189 34.9619V32.5148C52.2189 32.2943 52.1448 32.0803 52.0088 31.9083C51.8728 31.7362 51.6831 31.6164 51.4709 31.5685L50.7382 31.4032C50.6173 31.0247 50.4668 30.6565 50.2883 30.3021L50.6914 29.6591C50.808 29.473 50.8587 29.2521 50.8349 29.0329C50.8112 28.8137 50.7144 28.6092 50.5607 28.4532L48.8558 26.7234C48.7021 26.5674 48.5006 26.4693 48.2845 26.4453C48.0684 26.4212 47.8507 26.4726 47.6673 26.591L47.0343 26.9999C46.685 26.8188 46.3221 26.6661 45.9489 26.5433L45.786 25.7999C45.7388 25.5847 45.6207 25.3922 45.4511 25.2542C45.2816 25.1163 45.0707 25.0411 44.8534 25.0411H42.4423C42.2249 25.0411 42.0141 25.1163 41.8445 25.2542C41.675 25.3922 41.5568 25.5847 41.5096 25.7999L41.3467 26.5433C40.9736 26.666 40.6107 26.8187 40.2614 26.9999L39.6278 26.591C39.4444 26.4726 39.2267 26.4212 39.0107 26.4453C38.7946 26.4693 38.5931 26.5674 38.4393 26.7234L36.7347 28.4532C36.581 28.6092 36.4842 28.8137 36.4605 29.0329C36.4367 29.2521 36.4874 29.473 36.604 29.6591L37.0071 30.3021C36.8286 30.6565 36.6781 31.0247 36.5571 31.4033L35.8242 31.5687ZM36.9872 33.2926L37.5297 33.1703C37.7051 33.1307 37.866 33.0417 37.9938 32.9135C38.1216 32.7854 38.2112 32.6232 38.2523 32.4457C38.3888 31.8576 38.6185 31.2958 38.9324 30.7823C39.027 30.6272 39.0766 30.4483 39.0756 30.2659C39.0745 30.0836 39.0227 29.9052 38.9263 29.7514L38.6277 29.2747L39.2487 28.6446L39.7185 28.9476C39.87 29.0453 40.0456 29.0977 40.2252 29.0988C40.4047 29.0999 40.581 29.0496 40.7337 28.9537C41.2398 28.6352 41.7936 28.4022 42.3733 28.2638C42.5483 28.2221 42.708 28.1312 42.8344 28.0016C42.9607 27.8719 43.0484 27.7088 43.0874 27.5308L43.2079 26.9803H44.0865L44.2071 27.5308C44.2462 27.7088 44.3339 27.872 44.4602 28.0017C44.5865 28.1313 44.7463 28.2223 44.9212 28.264C45.501 28.4023 46.0548 28.6353 46.5609 28.9539C46.7136 29.0497 46.8898 29.0999 47.0694 29.0988C47.2489 29.0977 47.4245 29.0453 47.5761 28.9476L48.0458 28.6446L48.6669 29.2747L48.3683 29.7514C48.2718 29.9052 48.2201 30.0836 48.219 30.2659C48.2179 30.4483 48.2675 30.6272 48.3622 30.7823C48.6762 31.2958 48.9058 31.8577 49.0422 32.446C49.0834 32.6234 49.173 32.7855 49.3008 32.9136C49.4286 33.0418 49.5894 33.1307 49.7648 33.1703L50.3074 33.2926V34.1841L49.7648 34.3065C49.5894 34.3461 49.4286 34.4351 49.3008 34.5632C49.173 34.6914 49.0834 34.8535 49.0422 35.0309C48.9058 35.6192 48.6761 36.181 48.3622 36.6945C48.2675 36.8496 48.2179 37.0285 48.219 37.2109C48.2201 37.3932 48.2718 37.5716 48.3683 37.7255L48.6669 38.2019L48.0458 38.8321L47.5761 38.5291C47.4245 38.4314 47.2489 38.3791 47.0694 38.378C46.8898 38.3769 46.7136 38.4272 46.5609 38.5231C46.0547 38.8415 45.501 39.0745 44.9212 39.2129C44.7463 39.2546 44.5865 39.3455 44.4602 39.4752C44.334 39.6049 44.2463 39.7681 44.2072 39.946L44.0866 40.4965H43.2081L43.0876 39.946C43.0485 39.768 42.9608 39.6048 42.8345 39.4751C42.7081 39.3454 42.5483 39.2544 42.3733 39.2127C41.7936 39.0744 41.2399 38.8415 40.7338 38.523C40.5811 38.4271 40.4049 38.3768 40.2253 38.3779C40.0458 38.379 39.8701 38.4314 39.7186 38.5291L39.2489 38.8321L38.6278 38.2019L38.9264 37.7255C39.0229 37.5716 39.0746 37.3932 39.0757 37.2109C39.0768 37.0285 39.0271 36.8496 38.9325 36.6945C38.6185 36.1809 38.3888 35.619 38.2524 35.0307C38.2113 34.8533 38.1216 34.6912 37.9938 34.5631C37.866 34.435 37.7052 34.3461 37.5299 34.3065L36.9873 34.1841L36.9872 33.2926ZM43.6478 37.846C44.4486 37.846 45.2314 37.6051 45.8972 37.1537C46.563 36.7023 47.082 36.0607 47.3884 35.31C47.6948 34.5594 47.775 33.7334 47.6188 32.9365C47.4626 32.1396 47.077 31.4076 46.5107 30.833C45.9445 30.2585 45.2231 29.8673 44.4377 29.7088C43.6523 29.5502 42.8382 29.6316 42.0984 29.9425C41.3586 30.2535 40.7263 30.78 40.2814 31.4556C39.8365 32.1312 39.599 32.9254 39.599 33.7379C39.6002 34.8271 40.0272 35.8713 40.7862 36.6415C41.5452 37.4116 42.5744 37.8448 43.6478 37.846ZM43.6478 31.5687C44.0706 31.5687 44.484 31.696 44.8355 31.9343C45.1871 32.1727 45.4611 32.5114 45.6229 32.9078C45.7847 33.3042 45.8271 33.7403 45.7446 34.1611C45.6621 34.5819 45.4585 34.9684 45.1595 35.2718C44.8605 35.5751 44.4796 35.7817 44.0649 35.8654C43.6502 35.9491 43.2203 35.9062 42.8297 35.742C42.4391 35.5778 42.1052 35.2998 41.8703 34.9431C41.6354 34.5863 41.51 34.1669 41.51 33.7379C41.5106 33.1628 41.736 32.6114 42.1368 32.2048C42.5376 31.7981 43.081 31.5694 43.6478 31.5687Z"></path></mask><path d="M1.95583 63.04H39.6155C39.8689 63.04 40.112 62.9379 40.2911 62.7561C40.4703 62.5742 40.571 62.3277 40.571 62.0705V52.7992C40.5856 51.3909 40.1561 50.0147 39.3451 48.8717C38.534 47.7288 37.384 46.8789 36.0631 46.4463L26.4129 43.1823V40.0905C26.4129 40.057 26.4113 40.0238 26.408 39.9912C27.6295 39.0145 28.5865 37.7391 29.1894 36.2846C29.8874 36.2827 30.5705 36.0794 31.1588 35.6983C31.7472 35.3172 32.2166 34.7742 32.5121 34.1326C32.8077 33.4909 32.9172 32.7773 32.828 32.0748C32.7387 31.3724 32.4543 30.7102 32.008 30.1657C32.1504 29.4977 32.389 28.2649 32.4921 27.5556C32.5235 27.3382 32.5547 27.1343 32.5842 26.9414C32.8614 25.1291 33.0284 24.0353 31.9543 21.983C30.7872 19.7551 29.0031 17.9223 26.8221 16.7105C24.641 15.4988 22.1582 14.9609 19.6795 15.1633C17.2009 15.3656 14.8347 16.2994 12.8727 17.8494C10.9106 19.3995 9.43839 21.4981 8.63738 23.8867C8.62038 23.9374 8.60756 23.9894 8.59904 24.0423C8.28052 26.0147 8.55127 28.0737 9.40199 30.1675C8.95657 30.7117 8.67274 31.3732 8.58359 32.0748C8.49444 32.7764 8.60364 33.4893 8.89845 34.1304C9.19327 34.7714 9.66157 35.3143 10.2488 35.6956C10.836 36.077 11.5179 36.2812 12.2151 36.2845C12.8352 37.7731 13.8236 39.0741 15.0845 40.0616C15.1084 40.0805 15.1336 40.098 15.1579 40.1165V43.1824L5.50776 46.4463C4.18691 46.879 3.03704 47.7289 2.22611 48.8719C1.41517 50.0148 0.98568 51.3909 1.00036 52.7992V62.0705C1.00036 62.3277 1.10103 62.5742 1.28021 62.7561C1.4594 62.9379 1.70242 63.04 1.95583 63.04ZM23.1334 50.1302L22.7491 52.3587H18.822L18.4785 50.3656C18.4611 50.2646 18.4278 50.1671 18.3801 50.0767L20.7857 48.3438L23.1518 50.0487C23.1449 50.0751 23.1383 50.1022 23.1334 50.1302ZM19.0825 54.2976H22.49L23.6622 61.1011H17.9091L19.0825 54.2976ZM38.6607 52.7992V61.1011H34.091V56.8589C34.091 56.6018 33.9904 56.3552 33.8112 56.1734C33.632 55.9916 33.389 55.8895 33.1356 55.8895C32.8822 55.8895 32.6391 55.9916 32.46 56.1734C32.2808 56.3552 32.1801 56.6018 32.1801 56.8589V61.1011H25.602L24.392 54.0819L24.8736 51.2888L27.6086 53.2594C27.7515 53.3624 27.9196 53.4235 28.0945 53.4361C28.2694 53.4486 28.4443 53.412 28.6001 53.3304C28.7559 53.2488 28.8866 53.1253 28.9778 52.9734C29.069 52.8214 29.1172 52.647 29.1173 52.4691V46.1405L35.4591 48.2855C36.3974 48.593 37.2141 49.197 37.79 50.009C38.3659 50.8211 38.6708 51.7988 38.6601 52.7992H38.6607ZM27.207 45.4941V50.5915L22.4368 47.1542L25.5285 44.9264L27.207 45.4941ZM29.782 34.2362C29.9732 33.1149 29.9609 31.9676 29.7456 30.8509C30.0928 30.9699 30.3949 31.1954 30.6102 31.4963C30.8255 31.7972 30.9433 32.1586 30.9473 32.5304C30.9513 32.9022 30.8413 33.2661 30.6326 33.5717C30.4238 33.8773 30.1266 34.1095 29.782 34.2362ZM10.4725 24.4347C11.1659 22.416 12.4244 20.6464 14.0939 19.3424C15.7635 18.0384 17.7716 17.2567 19.8722 17.0931C21.9729 16.9294 24.0751 17.3909 25.9212 18.421C27.7674 19.4511 29.2774 21.0051 30.2664 22.8926C31.0428 24.3752 30.9552 24.9471 30.6958 26.6442C30.6656 26.8418 30.6337 27.0506 30.6013 27.2733C30.5361 27.7228 30.4117 28.4016 30.2957 28.9923C29.9342 28.8749 29.557 28.8153 29.1774 28.8155H29.1434C28.0631 25.1984 26.8429 23.3259 25.3151 22.9337C24.6452 22.7615 23.6014 22.8077 22.4355 24.0041C22.3803 24.0606 22.3321 24.1237 22.2921 24.1921C20.5448 27.1879 17.4243 28.6187 13.0193 28.4456C12.8686 28.4397 12.7188 28.4701 12.582 28.5343C12.4452 28.5985 12.3254 28.6947 12.2323 28.815C11.8168 28.815 11.4043 28.8868 11.0124 29.0272C10.4327 27.441 10.2509 25.8993 10.4725 24.4347ZM10.4641 32.5502C10.4647 32.1882 10.573 31.8348 10.7748 31.5363C10.9766 31.2378 11.2626 31.0081 11.5953 30.8773C11.406 31.9864 11.4107 33.1207 11.609 34.2282C11.273 34.0993 10.9835 33.8698 10.7791 33.5702C10.5746 33.2705 10.4647 32.9148 10.4641 32.5503V32.5502ZM13.6616 30.3992H13.7375C18.4354 30.3992 21.8421 28.6825 23.8719 25.2898C24.1585 25.011 24.5364 24.733 24.8466 24.8134C25.1391 24.8884 26.1883 25.4617 27.4057 29.6868C27.4157 29.7215 27.4276 29.7557 27.4415 29.789C28.0635 31.2969 28.1768 32.9712 27.7637 34.5512C27.3505 36.1312 26.4342 37.5282 25.1573 38.5249C23.8803 39.5216 22.3145 40.062 20.7034 40.062C19.0924 40.0619 17.5265 39.5214 16.2497 38.5247C15.0671 37.5881 14.1883 36.3133 13.727 34.8648C13.2656 33.4164 13.2428 31.8609 13.6616 30.3992ZM20.7033 41.9982C22.0135 41.9981 23.3087 41.7147 24.5025 41.1669V43.2872L20.7857 45.9653L17.0689 43.2872V41.2428C18.2174 41.7417 19.4539 41.9988 20.7033 41.9982ZM16.0438 44.9264L19.1355 47.1542L14.3649 50.5915V45.4941L16.0438 44.9264ZM2.91129 52.7992C2.90058 51.7988 3.20543 50.8212 3.7813 50.0091C4.35717 49.1971 5.17387 48.5932 6.11209 48.2856L12.454 46.1407V52.4692C12.454 52.6471 12.5022 52.8216 12.5935 52.9735C12.6847 53.1254 12.8153 53.2489 12.9711 53.3305C13.1269 53.4122 13.3018 53.4487 13.4767 53.4362C13.6516 53.4237 13.8197 53.3626 13.9627 53.2596L16.6977 51.289L17.1791 54.082L15.9692 61.1011H9.39112V56.8589C9.39112 56.6018 9.29046 56.3552 9.11127 56.1734C8.93209 55.9916 8.68906 55.8895 8.43566 55.8895C8.18225 55.8895 7.93923 55.9916 7.76004 56.1734C7.58086 56.3552 7.4802 56.6018 7.4802 56.8589V61.1011H2.91129V52.7992ZM62.15 22.4606C62.15 22.7177 62.0493 22.9643 61.8702 23.1461C61.691 23.3279 61.4479 23.4301 61.1945 23.4301H36.0318C35.7784 23.4301 35.5354 23.3279 35.3562 23.1461C35.177 22.9643 35.0764 22.7177 35.0764 22.4606C35.0764 22.2035 35.177 21.9569 35.3562 21.7751C35.5354 21.5933 35.7784 21.4912 36.0318 21.4912H39.6582V15.4562C39.6582 15.1991 39.7588 14.9525 39.938 14.7707C40.1172 14.5889 40.3602 14.4868 40.6136 14.4868C40.867 14.4868 41.1101 14.5889 41.2892 14.7707C41.4684 14.9525 41.5691 15.1991 41.5691 15.4562V21.4912H44.9912V10.5331C44.9912 10.2759 45.0919 10.0293 45.271 9.84754C45.4502 9.66573 45.6933 9.56359 45.9467 9.56359C46.2001 9.56359 46.4431 9.66573 46.6223 9.84754C46.8015 10.0293 46.9021 10.2759 46.9021 10.5331V21.4912H50.3242V12.7285C50.3242 12.4714 50.4249 12.2248 50.6041 12.043C50.7833 11.8612 51.0263 11.7591 51.2797 11.7591C51.5331 11.7591 51.7761 11.8612 51.9553 12.043C52.1345 12.2248 52.2352 12.4714 52.2352 12.7285V21.4912H55.6574V7.73869C55.6574 7.48157 55.7581 7.23499 55.9372 7.05318C56.1164 6.87137 56.3594 6.76923 56.6129 6.76923C56.8663 6.76923 57.1093 6.87137 57.2885 7.05318C57.4677 7.23499 57.5683 7.48157 57.5683 7.73869V21.4912H61.1945C61.4479 21.4912 61.691 21.5933 61.8702 21.7751C62.0493 21.9569 62.15 22.2035 62.15 22.4606ZM55.965 1.25103C56.1518 1.07938 56.3977 0.989509 56.6494 1.00098C56.9011 1.01244 57.1382 1.12432 57.309 1.31226C57.4798 1.5002 57.5705 1.74899 57.5614 2.00447C57.5523 2.25995 57.4441 2.50144 57.2604 2.67639L51.9274 7.66622C51.7942 7.79085 51.6288 7.87447 51.4505 7.90734C51.2723 7.94021 51.0885 7.92098 50.9206 7.85188L46.1448 5.8858L41.2567 10.3981C41.069 10.5696 40.822 10.6587 40.5698 10.646C40.3175 10.6332 40.0805 10.5197 39.9105 10.3302C39.7405 10.1406 39.6514 9.89049 39.6627 9.63449C39.674 9.37848 39.7847 9.1374 39.9706 8.96397L45.3036 4.04067C45.4368 3.91758 45.6016 3.8352 45.7789 3.80303C45.9563 3.77087 46.139 3.79024 46.3059 3.85889L51.0775 5.82315L55.965 1.25103ZM35.8242 31.5687C35.6121 31.6166 35.4223 31.7365 35.2863 31.9085C35.1504 32.0806 35.0762 32.2945 35.0762 32.5151V34.9619C35.0762 35.1824 35.1504 35.3964 35.2863 35.5684C35.4223 35.7405 35.6121 35.8603 35.8242 35.9082L36.557 36.0736C36.6779 36.4522 36.8284 36.8203 37.0069 37.1747L36.6038 37.8176C36.4871 38.0037 36.4364 38.2246 36.4601 38.4438C36.4839 38.6631 36.5806 38.8676 36.7343 39.0236L38.4395 40.7533C38.5932 40.9093 38.7947 41.0074 39.0107 41.0314C39.2268 41.0555 39.4444 41.0041 39.6278 40.8858L40.2614 40.4769C40.6107 40.6581 40.9736 40.8107 41.3467 40.9334L41.5096 41.6767C41.5568 41.892 41.6749 42.0845 41.8445 42.2225C42.014 42.3605 42.2249 42.4357 42.4423 42.4357H44.8534C45.0707 42.4357 45.2816 42.3605 45.4511 42.2225C45.6207 42.0845 45.7388 41.892 45.786 41.6767L45.9489 40.9334C46.3221 40.8108 46.6851 40.6581 47.0343 40.4769L47.6673 40.8858C47.8507 41.0041 48.0684 41.0555 48.2844 41.0314C48.5005 41.0074 48.702 40.9093 48.8557 40.7533L50.5608 39.0236C50.7146 38.8676 50.8113 38.6631 50.835 38.4438C50.8588 38.2246 50.8081 38.0037 50.6914 37.8176L50.2883 37.1747C50.4668 36.8203 50.6173 36.4521 50.7383 36.0736L51.4709 35.9082C51.6831 35.8603 51.8728 35.7405 52.0088 35.5684C52.1448 35.3964 52.2189 35.1824 52.2189 34.9619V32.5148C52.2189 32.2943 52.1448 32.0803 52.0088 31.9083C51.8728 31.7362 51.6831 31.6164 51.4709 31.5685L50.7382 31.4032C50.6173 31.0247 50.4668 30.6565 50.2883 30.3021L50.6914 29.6591C50.808 29.473 50.8587 29.2521 50.8349 29.0329C50.8112 28.8137 50.7144 28.6092 50.5607 28.4532L48.8558 26.7234C48.7021 26.5674 48.5006 26.4693 48.2845 26.4453C48.0684 26.4212 47.8507 26.4726 47.6673 26.591L47.0343 26.9999C46.685 26.8188 46.3221 26.6661 45.9489 26.5433L45.786 25.7999C45.7388 25.5847 45.6207 25.3922 45.4511 25.2542C45.2816 25.1163 45.0707 25.0411 44.8534 25.0411H42.4423C42.2249 25.0411 42.0141 25.1163 41.8445 25.2542C41.675 25.3922 41.5568 25.5847 41.5096 25.7999L41.3467 26.5433C40.9736 26.666 40.6107 26.8187 40.2614 26.9999L39.6278 26.591C39.4444 26.4726 39.2267 26.4212 39.0107 26.4453C38.7946 26.4693 38.5931 26.5674 38.4393 26.7234L36.7347 28.4532C36.581 28.6092 36.4842 28.8137 36.4605 29.0329C36.4367 29.2521 36.4874 29.473 36.604 29.6591L37.0071 30.3021C36.8286 30.6565 36.6781 31.0247 36.5571 31.4033L35.8242 31.5687ZM36.9872 33.2926L37.5297 33.1703C37.7051 33.1307 37.866 33.0417 37.9938 32.9135C38.1216 32.7854 38.2112 32.6232 38.2523 32.4457C38.3888 31.8576 38.6185 31.2958 38.9324 30.7823C39.027 30.6272 39.0766 30.4483 39.0756 30.2659C39.0745 30.0836 39.0227 29.9052 38.9263 29.7514L38.6277 29.2747L39.2487 28.6446L39.7185 28.9476C39.87 29.0453 40.0456 29.0977 40.2252 29.0988C40.4047 29.0999 40.581 29.0496 40.7337 28.9537C41.2398 28.6352 41.7936 28.4022 42.3733 28.2638C42.5483 28.2221 42.708 28.1312 42.8344 28.0016C42.9607 27.8719 43.0484 27.7088 43.0874 27.5308L43.2079 26.9803H44.0865L44.2071 27.5308C44.2462 27.7088 44.3339 27.872 44.4602 28.0017C44.5865 28.1313 44.7463 28.2223 44.9212 28.264C45.501 28.4023 46.0548 28.6353 46.5609 28.9539C46.7136 29.0497 46.8898 29.0999 47.0694 29.0988C47.2489 29.0977 47.4245 29.0453 47.5761 28.9476L48.0458 28.6446L48.6669 29.2747L48.3683 29.7514C48.2718 29.9052 48.2201 30.0836 48.219 30.2659C48.2179 30.4483 48.2675 30.6272 48.3622 30.7823C48.6762 31.2958 48.9058 31.8577 49.0422 32.446C49.0834 32.6234 49.173 32.7855 49.3008 32.9136C49.4286 33.0418 49.5894 33.1307 49.7648 33.1703L50.3074 33.2926V34.1841L49.7648 34.3065C49.5894 34.3461 49.4286 34.4351 49.3008 34.5632C49.173 34.6914 49.0834 34.8535 49.0422 35.0309C48.9058 35.6192 48.6761 36.181 48.3622 36.6945C48.2675 36.8496 48.2179 37.0285 48.219 37.2109C48.2201 37.3932 48.2718 37.5716 48.3683 37.7255L48.6669 38.2019L48.0458 38.8321L47.5761 38.5291C47.4245 38.4314 47.2489 38.3791 47.0694 38.378C46.8898 38.3769 46.7136 38.4272 46.5609 38.5231C46.0547 38.8415 45.501 39.0745 44.9212 39.2129C44.7463 39.2546 44.5865 39.3455 44.4602 39.4752C44.334 39.6049 44.2463 39.7681 44.2072 39.946L44.0866 40.4965H43.2081L43.0876 39.946C43.0485 39.768 42.9608 39.6048 42.8345 39.4751C42.7081 39.3454 42.5483 39.2544 42.3733 39.2127C41.7936 39.0744 41.2399 38.8415 40.7338 38.523C40.5811 38.4271 40.4049 38.3768 40.2253 38.3779C40.0458 38.379 39.8701 38.4314 39.7186 38.5291L39.2489 38.8321L38.6278 38.2019L38.9264 37.7255C39.0229 37.5716 39.0746 37.3932 39.0757 37.2109C39.0768 37.0285 39.0271 36.8496 38.9325 36.6945C38.6185 36.1809 38.3888 35.619 38.2524 35.0307C38.2113 34.8533 38.1216 34.6912 37.9938 34.5631C37.866 34.435 37.7052 34.3461 37.5299 34.3065L36.9873 34.1841L36.9872 33.2926ZM43.6478 37.846C44.4486 37.846 45.2314 37.6051 45.8972 37.1537C46.563 36.7023 47.082 36.0607 47.3884 35.31C47.6948 34.5594 47.775 33.7334 47.6188 32.9365C47.4626 32.1396 47.077 31.4076 46.5107 30.833C45.9445 30.2585 45.2231 29.8673 44.4377 29.7088C43.6523 29.5502 42.8382 29.6316 42.0984 29.9425C41.3586 30.2535 40.7263 30.78 40.2814 31.4556C39.8365 32.1312 39.599 32.9254 39.599 33.7379C39.6002 34.8271 40.0272 35.8713 40.7862 36.6415C41.5452 37.4116 42.5744 37.8448 43.6478 37.846ZM43.6478 31.5687C44.0706 31.5687 44.484 31.696 44.8355 31.9343C45.1871 32.1727 45.4611 32.5114 45.6229 32.9078C45.7847 33.3042 45.8271 33.7403 45.7446 34.1611C45.6621 34.5819 45.4585 34.9684 45.1595 35.2718C44.8605 35.5751 44.4796 35.7817 44.0649 35.8654C43.6502 35.9491 43.2203 35.9062 42.8297 35.742C42.4391 35.5778 42.1052 35.2998 41.8703 34.9431C41.6354 34.5863 41.51 34.1669 41.51 33.7379C41.5106 33.1628 41.736 32.6114 42.1368 32.2048C42.5376 31.7981 43.081 31.5694 43.6478 31.5687Z" fill="#0369CA"></path><path d="M1.95583 63.04H39.6155C39.8689 63.04 40.112 62.9379 40.2911 62.7561C40.4703 62.5742 40.571 62.3277 40.571 62.0705V52.7992C40.5856 51.3909 40.1561 50.0147 39.3451 48.8717C38.534 47.7288 37.384 46.8789 36.0631 46.4463L26.4129 43.1823V40.0905C26.4129 40.057 26.4113 40.0238 26.408 39.9912C27.6295 39.0145 28.5865 37.7391 29.1894 36.2846C29.8874 36.2827 30.5705 36.0794 31.1588 35.6983C31.7472 35.3172 32.2166 34.7742 32.5121 34.1326C32.8077 33.4909 32.9172 32.7773 32.828 32.0748C32.7387 31.3724 32.4543 30.7102 32.008 30.1657C32.1504 29.4977 32.389 28.2649 32.4921 27.5556C32.5235 27.3382 32.5547 27.1343 32.5842 26.9414C32.8614 25.1291 33.0284 24.0353 31.9543 21.983C30.7872 19.7551 29.0031 17.9223 26.8221 16.7105C24.641 15.4988 22.1582 14.9609 19.6795 15.1633C17.2009 15.3656 14.8347 16.2994 12.8727 17.8494C10.9106 19.3995 9.43839 21.4981 8.63738 23.8867C8.62038 23.9374 8.60756 23.9894 8.59904 24.0423C8.28052 26.0147 8.55127 28.0737 9.40199 30.1675C8.95657 30.7117 8.67274 31.3732 8.58359 32.0748C8.49444 32.7764 8.60364 33.4893 8.89845 34.1304C9.19327 34.7714 9.66157 35.3143 10.2488 35.6956C10.836 36.077 11.5179 36.2812 12.2151 36.2845C12.8352 37.7731 13.8236 39.0741 15.0845 40.0616C15.1084 40.0805 15.1336 40.098 15.1579 40.1165V43.1824L5.50776 46.4463C4.18691 46.879 3.03704 47.7289 2.22611 48.8719C1.41517 50.0148 0.98568 51.3909 1.00036 52.7992V62.0705C1.00036 62.3277 1.10103 62.5742 1.28021 62.7561C1.4594 62.9379 1.70242 63.04 1.95583 63.04ZM23.1334 50.1302L22.7491 52.3587H18.822L18.4785 50.3656C18.4611 50.2646 18.4278 50.1671 18.3801 50.0767L20.7857 48.3438L23.1518 50.0487C23.1449 50.0751 23.1383 50.1022 23.1334 50.1302ZM19.0825 54.2976H22.49L23.6622 61.1011H17.9091L19.0825 54.2976ZM38.6607 52.7992V61.1011H34.091V56.8589C34.091 56.6018 33.9904 56.3552 33.8112 56.1734C33.632 55.9916 33.389 55.8895 33.1356 55.8895C32.8822 55.8895 32.6391 55.9916 32.46 56.1734C32.2808 56.3552 32.1801 56.6018 32.1801 56.8589V61.1011H25.602L24.392 54.0819L24.8736 51.2888L27.6086 53.2594C27.7515 53.3624 27.9196 53.4235 28.0945 53.4361C28.2694 53.4486 28.4443 53.412 28.6001 53.3304C28.7559 53.2488 28.8866 53.1253 28.9778 52.9734C29.069 52.8214 29.1172 52.647 29.1173 52.4691V46.1405L35.4591 48.2855C36.3974 48.593 37.2141 49.197 37.79 50.009C38.3659 50.8211 38.6708 51.7988 38.6601 52.7992H38.6607ZM27.207 45.4941V50.5915L22.4368 47.1542L25.5285 44.9264L27.207 45.4941ZM29.782 34.2362C29.9732 33.1149 29.9609 31.9676 29.7456 30.8509C30.0928 30.9699 30.3949 31.1954 30.6102 31.4963C30.8255 31.7972 30.9433 32.1586 30.9473 32.5304C30.9513 32.9022 30.8413 33.2661 30.6326 33.5717C30.4238 33.8773 30.1266 34.1095 29.782 34.2362ZM10.4725 24.4347C11.1659 22.416 12.4244 20.6464 14.0939 19.3424C15.7635 18.0384 17.7716 17.2567 19.8722 17.0931C21.9729 16.9294 24.0751 17.3909 25.9212 18.421C27.7674 19.4511 29.2774 21.0051 30.2664 22.8926C31.0428 24.3752 30.9552 24.9471 30.6958 26.6442C30.6656 26.8418 30.6337 27.0506 30.6013 27.2733C30.5361 27.7228 30.4117 28.4016 30.2957 28.9923C29.9342 28.8749 29.557 28.8153 29.1774 28.8155H29.1434C28.0631 25.1984 26.8429 23.3259 25.3151 22.9337C24.6452 22.7615 23.6014 22.8077 22.4355 24.0041C22.3803 24.0606 22.3321 24.1237 22.2921 24.1921C20.5448 27.1879 17.4243 28.6187 13.0193 28.4456C12.8686 28.4397 12.7188 28.4701 12.582 28.5343C12.4452 28.5985 12.3254 28.6947 12.2323 28.815C11.8168 28.815 11.4043 28.8868 11.0124 29.0272C10.4327 27.441 10.2509 25.8993 10.4725 24.4347ZM10.4641 32.5502C10.4647 32.1882 10.573 31.8348 10.7748 31.5363C10.9766 31.2378 11.2626 31.0081 11.5953 30.8773C11.406 31.9864 11.4107 33.1207 11.609 34.2282C11.273 34.0993 10.9835 33.8698 10.7791 33.5702C10.5746 33.2705 10.4647 32.9148 10.4641 32.5503V32.5502ZM13.6616 30.3992H13.7375C18.4354 30.3992 21.8421 28.6825 23.8719 25.2898C24.1585 25.011 24.5364 24.733 24.8466 24.8134C25.1391 24.8884 26.1883 25.4617 27.4057 29.6868C27.4157 29.7215 27.4276 29.7557 27.4415 29.789C28.0635 31.2969 28.1768 32.9712 27.7637 34.5512C27.3505 36.1312 26.4342 37.5282 25.1573 38.5249C23.8803 39.5216 22.3145 40.062 20.7034 40.062C19.0924 40.0619 17.5265 39.5214 16.2497 38.5247C15.0671 37.5881 14.1883 36.3133 13.727 34.8648C13.2656 33.4164 13.2428 31.8609 13.6616 30.3992ZM20.7033 41.9982C22.0135 41.9981 23.3087 41.7147 24.5025 41.1669V43.2872L20.7857 45.9653L17.0689 43.2872V41.2428C18.2174 41.7417 19.4539 41.9988 20.7033 41.9982ZM16.0438 44.9264L19.1355 47.1542L14.3649 50.5915V45.4941L16.0438 44.9264ZM2.91129 52.7992C2.90058 51.7988 3.20543 50.8212 3.7813 50.0091C4.35717 49.1971 5.17387 48.5932 6.11209 48.2856L12.454 46.1407V52.4692C12.454 52.6471 12.5022 52.8216 12.5935 52.9735C12.6847 53.1254 12.8153 53.2489 12.9711 53.3305C13.1269 53.4122 13.3018 53.4487 13.4767 53.4362C13.6516 53.4237 13.8197 53.3626 13.9627 53.2596L16.6977 51.289L17.1791 54.082L15.9692 61.1011H9.39112V56.8589C9.39112 56.6018 9.29046 56.3552 9.11127 56.1734C8.93209 55.9916 8.68906 55.8895 8.43566 55.8895C8.18225 55.8895 7.93923 55.9916 7.76004 56.1734C7.58086 56.3552 7.4802 56.6018 7.4802 56.8589V61.1011H2.91129V52.7992ZM62.15 22.4606C62.15 22.7177 62.0493 22.9643 61.8702 23.1461C61.691 23.3279 61.4479 23.4301 61.1945 23.4301H36.0318C35.7784 23.4301 35.5354 23.3279 35.3562 23.1461C35.177 22.9643 35.0764 22.7177 35.0764 22.4606C35.0764 22.2035 35.177 21.9569 35.3562 21.7751C35.5354 21.5933 35.7784 21.4912 36.0318 21.4912H39.6582V15.4562C39.6582 15.1991 39.7588 14.9525 39.938 14.7707C40.1172 14.5889 40.3602 14.4868 40.6136 14.4868C40.867 14.4868 41.1101 14.5889 41.2892 14.7707C41.4684 14.9525 41.5691 15.1991 41.5691 15.4562V21.4912H44.9912V10.5331C44.9912 10.2759 45.0919 10.0293 45.271 9.84754C45.4502 9.66573 45.6933 9.56359 45.9467 9.56359C46.2001 9.56359 46.4431 9.66573 46.6223 9.84754C46.8015 10.0293 46.9021 10.2759 46.9021 10.5331V21.4912H50.3242V12.7285C50.3242 12.4714 50.4249 12.2248 50.6041 12.043C50.7833 11.8612 51.0263 11.7591 51.2797 11.7591C51.5331 11.7591 51.7761 11.8612 51.9553 12.043C52.1345 12.2248 52.2352 12.4714 52.2352 12.7285V21.4912H55.6574V7.73869C55.6574 7.48157 55.7581 7.23499 55.9372 7.05318C56.1164 6.87137 56.3594 6.76923 56.6129 6.76923C56.8663 6.76923 57.1093 6.87137 57.2885 7.05318C57.4677 7.23499 57.5683 7.48157 57.5683 7.73869V21.4912H61.1945C61.4479 21.4912 61.691 21.5933 61.8702 21.7751C62.0493 21.9569 62.15 22.2035 62.15 22.4606ZM55.965 1.25103C56.1518 1.07938 56.3977 0.989509 56.6494 1.00098C56.9011 1.01244 57.1382 1.12432 57.309 1.31226C57.4798 1.5002 57.5705 1.74899 57.5614 2.00447C57.5523 2.25995 57.4441 2.50144 57.2604 2.67639L51.9274 7.66622C51.7942 7.79085 51.6288 7.87447 51.4505 7.90734C51.2723 7.94021 51.0885 7.92098 50.9206 7.85188L46.1448 5.8858L41.2567 10.3981C41.069 10.5696 40.822 10.6587 40.5698 10.646C40.3175 10.6332 40.0805 10.5197 39.9105 10.3302C39.7405 10.1406 39.6514 9.89049 39.6627 9.63449C39.674 9.37848 39.7847 9.1374 39.9706 8.96397L45.3036 4.04067C45.4368 3.91758 45.6016 3.8352 45.7789 3.80303C45.9563 3.77087 46.139 3.79024 46.3059 3.85889L51.0775 5.82315L55.965 1.25103ZM35.8242 31.5687C35.6121 31.6166 35.4223 31.7365 35.2863 31.9085C35.1504 32.0806 35.0762 32.2945 35.0762 32.5151V34.9619C35.0762 35.1824 35.1504 35.3964 35.2863 35.5684C35.4223 35.7405 35.6121 35.8603 35.8242 35.9082L36.557 36.0736C36.6779 36.4522 36.8284 36.8203 37.0069 37.1747L36.6038 37.8176C36.4871 38.0037 36.4364 38.2246 36.4601 38.4438C36.4839 38.6631 36.5806 38.8676 36.7343 39.0236L38.4395 40.7533C38.5932 40.9093 38.7947 41.0074 39.0107 41.0314C39.2268 41.0555 39.4444 41.0041 39.6278 40.8858L40.2614 40.4769C40.6107 40.6581 40.9736 40.8107 41.3467 40.9334L41.5096 41.6767C41.5568 41.892 41.6749 42.0845 41.8445 42.2225C42.014 42.3605 42.2249 42.4357 42.4423 42.4357H44.8534C45.0707 42.4357 45.2816 42.3605 45.4511 42.2225C45.6207 42.0845 45.7388 41.892 45.786 41.6767L45.9489 40.9334C46.3221 40.8108 46.6851 40.6581 47.0343 40.4769L47.6673 40.8858C47.8507 41.0041 48.0684 41.0555 48.2844 41.0314C48.5005 41.0074 48.702 40.9093 48.8557 40.7533L50.5608 39.0236C50.7146 38.8676 50.8113 38.6631 50.835 38.4438C50.8588 38.2246 50.8081 38.0037 50.6914 37.8176L50.2883 37.1747C50.4668 36.8203 50.6173 36.4521 50.7383 36.0736L51.4709 35.9082C51.6831 35.8603 51.8728 35.7405 52.0088 35.5684C52.1448 35.3964 52.2189 35.1824 52.2189 34.9619V32.5148C52.2189 32.2943 52.1448 32.0803 52.0088 31.9083C51.8728 31.7362 51.6831 31.6164 51.4709 31.5685L50.7382 31.4032C50.6173 31.0247 50.4668 30.6565 50.2883 30.3021L50.6914 29.6591C50.808 29.473 50.8587 29.2521 50.8349 29.0329C50.8112 28.8137 50.7144 28.6092 50.5607 28.4532L48.8558 26.7234C48.7021 26.5674 48.5006 26.4693 48.2845 26.4453C48.0684 26.4212 47.8507 26.4726 47.6673 26.591L47.0343 26.9999C46.685 26.8188 46.3221 26.6661 45.9489 26.5433L45.786 25.7999C45.7388 25.5847 45.6207 25.3922 45.4511 25.2542C45.2816 25.1163 45.0707 25.0411 44.8534 25.0411H42.4423C42.2249 25.0411 42.0141 25.1163 41.8445 25.2542C41.675 25.3922 41.5568 25.5847 41.5096 25.7999L41.3467 26.5433C40.9736 26.666 40.6107 26.8187 40.2614 26.9999L39.6278 26.591C39.4444 26.4726 39.2267 26.4212 39.0107 26.4453C38.7946 26.4693 38.5931 26.5674 38.4393 26.7234L36.7347 28.4532C36.581 28.6092 36.4842 28.8137 36.4605 29.0329C36.4367 29.2521 36.4874 29.473 36.604 29.6591L37.0071 30.3021C36.8286 30.6565 36.6781 31.0247 36.5571 31.4033L35.8242 31.5687ZM36.9872 33.2926L37.5297 33.1703C37.7051 33.1307 37.866 33.0417 37.9938 32.9135C38.1216 32.7854 38.2112 32.6232 38.2523 32.4457C38.3888 31.8576 38.6185 31.2958 38.9324 30.7823C39.027 30.6272 39.0766 30.4483 39.0756 30.2659C39.0745 30.0836 39.0227 29.9052 38.9263 29.7514L38.6277 29.2747L39.2487 28.6446L39.7185 28.9476C39.87 29.0453 40.0456 29.0977 40.2252 29.0988C40.4047 29.0999 40.581 29.0496 40.7337 28.9537C41.2398 28.6352 41.7936 28.4022 42.3733 28.2638C42.5483 28.2221 42.708 28.1312 42.8344 28.0016C42.9607 27.8719 43.0484 27.7088 43.0874 27.5308L43.2079 26.9803H44.0865L44.2071 27.5308C44.2462 27.7088 44.3339 27.872 44.4602 28.0017C44.5865 28.1313 44.7463 28.2223 44.9212 28.264C45.501 28.4023 46.0548 28.6353 46.5609 28.9539C46.7136 29.0497 46.8898 29.0999 47.0694 29.0988C47.2489 29.0977 47.4245 29.0453 47.5761 28.9476L48.0458 28.6446L48.6669 29.2747L48.3683 29.7514C48.2718 29.9052 48.2201 30.0836 48.219 30.2659C48.2179 30.4483 48.2675 30.6272 48.3622 30.7823C48.6762 31.2958 48.9058 31.8577 49.0422 32.446C49.0834 32.6234 49.173 32.7855 49.3008 32.9136C49.4286 33.0418 49.5894 33.1307 49.7648 33.1703L50.3074 33.2926V34.1841L49.7648 34.3065C49.5894 34.3461 49.4286 34.4351 49.3008 34.5632C49.173 34.6914 49.0834 34.8535 49.0422 35.0309C48.9058 35.6192 48.6761 36.181 48.3622 36.6945C48.2675 36.8496 48.2179 37.0285 48.219 37.2109C48.2201 37.3932 48.2718 37.5716 48.3683 37.7255L48.6669 38.2019L48.0458 38.8321L47.5761 38.5291C47.4245 38.4314 47.2489 38.3791 47.0694 38.378C46.8898 38.3769 46.7136 38.4272 46.5609 38.5231C46.0547 38.8415 45.501 39.0745 44.9212 39.2129C44.7463 39.2546 44.5865 39.3455 44.4602 39.4752C44.334 39.6049 44.2463 39.7681 44.2072 39.946L44.0866 40.4965H43.2081L43.0876 39.946C43.0485 39.768 42.9608 39.6048 42.8345 39.4751C42.7081 39.3454 42.5483 39.2544 42.3733 39.2127C41.7936 39.0744 41.2399 38.8415 40.7338 38.523C40.5811 38.4271 40.4049 38.3768 40.2253 38.3779C40.0458 38.379 39.8701 38.4314 39.7186 38.5291L39.2489 38.8321L38.6278 38.2019L38.9264 37.7255C39.0229 37.5716 39.0746 37.3932 39.0757 37.2109C39.0768 37.0285 39.0271 36.8496 38.9325 36.6945C38.6185 36.1809 38.3888 35.619 38.2524 35.0307C38.2113 34.8533 38.1216 34.6912 37.9938 34.5631C37.866 34.435 37.7052 34.3461 37.5299 34.3065L36.9873 34.1841L36.9872 33.2926ZM43.6478 37.846C44.4486 37.846 45.2314 37.6051 45.8972 37.1537C46.563 36.7023 47.082 36.0607 47.3884 35.31C47.6948 34.5594 47.775 33.7334 47.6188 32.9365C47.4626 32.1396 47.077 31.4076 46.5107 30.833C45.9445 30.2585 45.2231 29.8673 44.4377 29.7088C43.6523 29.5502 42.8382 29.6316 42.0984 29.9425C41.3586 30.2535 40.7263 30.78 40.2814 31.4556C39.8365 32.1312 39.599 32.9254 39.599 33.7379C39.6002 34.8271 40.0272 35.8713 40.7862 36.6415C41.5452 37.4116 42.5744 37.8448 43.6478 37.846ZM43.6478 31.5687C44.0706 31.5687 44.484 31.696 44.8355 31.9343C45.1871 32.1727 45.4611 32.5114 45.6229 32.9078C45.7847 33.3042 45.8271 33.7403 45.7446 34.1611C45.6621 34.5819 45.4585 34.9684 45.1595 35.2718C44.8605 35.5751 44.4796 35.7817 44.0649 35.8654C43.6502 35.9491 43.2203 35.9062 42.8297 35.742C42.4391 35.5778 42.1052 35.2998 41.8703 34.9431C41.6354 34.5863 41.51 34.1669 41.51 33.7379C41.5106 33.1628 41.736 32.6114 42.1368 32.2048C42.5376 31.7981 43.081 31.5694 43.6478 31.5687Z" stroke="#0369CA" stroke-width="0.4" mask="url(#path-1-outside-1_1515_108)"></path></svg>