<svg xmlns="http://www.w3.org/2000/svg" width="54" height="53" viewBox="0 0 54 53" fill="none"><mask id="path-1-outside-1_1627_8" maskUnits="userSpaceOnUse" x="1.17578" y="-0.171875" width="51" height="53" fill="black"><rect fill="white" x="1.17578" y="-0.171875" width="51" height="53"></rect><path d="M18.8382 23.2295H13.301C12.8351 23.2295 12.4573 23.6003 12.4573 24.0577V41.4038C12.4573 41.8611 12.8351 42.2319 13.301 42.2319H18.8382C19.3041 42.2319 19.6819 41.8611 19.6819 41.4038V24.0577C19.6819 23.6003 19.3041 23.2295 18.8382 23.2295ZM17.9944 40.5757H14.1448V24.8859H17.9944V40.5757ZM25.5387 41.404C25.5387 41.8613 25.1609 42.2321 24.6949 42.2321H23.5826C23.1166 42.2321 22.7388 41.8613 22.7388 41.404V26.3228C22.7388 25.8654 23.1166 25.4947 23.5826 25.4947H29.1197C29.5856 25.4947 29.9634 25.8654 29.9634 26.3228V29.0505C29.9634 29.5079 29.5856 29.8786 29.1197 29.8786C28.6537 29.8786 28.2759 29.5079 28.2759 29.0505V27.1509H24.4263V40.5757H24.6949C25.161 40.5758 25.5387 40.9466 25.5387 41.404ZM33.864 16.1007H39.4011C39.867 16.1007 40.2448 16.4715 40.2448 16.9288V24.3541C40.2448 24.8115 39.867 25.1822 39.4011 25.1822C38.9351 25.1822 38.5573 24.8115 38.5573 24.3541V17.757H34.7077V25.366C34.7077 25.8233 34.3299 26.1941 33.864 26.1941C33.398 26.1941 33.0202 25.8233 33.0202 25.366V16.9288C33.0202 16.4715 33.398 16.1007 33.864 16.1007ZM8.55664 29.958H3.01953C2.55357 29.958 2.17578 30.3288 2.17578 30.7862V41.4037C2.17578 41.861 2.55357 42.2318 3.01953 42.2318H8.55664C9.0226 42.2318 9.40039 41.861 9.40039 41.4037V30.7862C9.40039 30.3288 9.0226 29.958 8.55664 29.958ZM7.71289 40.5756H3.86328V31.6144H7.71289V40.5756ZM32.4451 9.89309C32.4044 9.43752 32.7477 9.03578 33.212 8.99572L36.5588 8.70763C36.8107 8.68558 37.0595 8.77637 37.2362 8.9541C37.413 9.13173 37.4992 9.37789 37.471 9.62468L37.0976 12.9017C37.0494 13.3249 36.6842 13.6379 36.2602 13.6379C36.2289 13.6379 36.1973 13.6361 36.1654 13.6326C35.7023 13.5819 35.3689 13.1722 35.4207 12.7176L35.5246 11.8053L26.9503 20.2928C26.7262 20.5147 26.3937 20.5939 26.091 20.4975L16.235 17.3623L6.30647 24.9502C6.15248 25.0679 5.96991 25.1249 5.78861 25.1249C5.53739 25.1249 5.28869 25.0152 5.12237 24.8056C4.83613 24.4447 4.90204 23.9243 5.26971 23.6433L15.5512 15.7857C15.7721 15.617 16.0637 15.5668 16.3297 15.6514L26.1175 18.7649L34.4111 10.5552L33.3592 10.6458C32.8955 10.6855 32.4858 10.3488 32.4451 9.89309ZM50.8007 46.5859C50.9285 47.0256 50.6688 47.4839 50.2208 47.6094L48.0609 48.2143C47.9848 48.2355 47.9069 48.246 47.8295 48.246C47.6532 48.246 47.4791 48.1918 47.3334 48.0879C47.1236 47.9382 46.9956 47.7021 46.9863 47.4476L46.9057 45.2446C46.8889 44.7876 47.2529 44.4038 47.7187 44.3873C48.1303 44.3765 48.4827 44.6508 48.5711 45.0299C51.1198 40.7544 50.4867 35.1302 46.8193 31.5308C43.1846 27.9634 37.5475 27.2426 33.111 29.7779C32.7085 30.0081 32.1919 29.8743 31.9573 29.479C31.7229 29.0838 31.8592 28.5767 32.2619 28.3467C37.3596 25.4334 43.8367 26.2611 48.0125 30.3595C50.3284 32.6326 51.6784 35.652 51.8139 38.8616C51.9205 41.3877 51.2697 43.8568 49.9609 45.9861C50.3389 45.9734 50.692 46.2124 50.8007 46.5859ZM45.6558 49.3106C45.8903 49.7058 45.7539 50.2128 45.3511 50.443C43.3152 51.6062 41.0592 52.173 38.8179 52.173C35.447 52.173 32.1092 50.8913 29.6011 48.4298C27.2853 46.1568 25.9353 43.1375 25.7997 39.9279C25.6931 37.4019 26.3438 34.9326 27.6526 32.8032C27.2743 32.8158 26.9214 32.5769 26.8129 32.2035C26.685 31.7638 26.9447 31.3055 27.3927 31.1799L29.5526 30.5751C29.8021 30.5054 30.0704 30.5519 30.2801 30.7016C30.4899 30.8513 30.618 31.0874 30.6272 31.3418L30.7078 33.5449C30.7246 34.0019 30.3606 34.3857 29.8949 34.4022C29.8845 34.4025 29.8743 34.4027 29.8641 34.4027C29.4659 34.4027 29.1284 34.1299 29.0424 33.7596C26.4937 38.0351 27.1268 43.6593 30.7941 47.2586C34.4284 50.826 40.0653 51.5467 44.5019 49.0116C44.9048 48.7817 45.4213 48.9155 45.6558 49.3106ZM47.3035 41.2558C47.6292 41.1329 47.8442 40.8256 47.8442 40.483V38.3064C47.8442 37.9637 47.6292 37.6566 47.3035 37.5335L46.346 37.1718C46.1938 36.6738 45.9907 36.193 45.739 35.7347L46.1558 34.8139C46.2975 34.5008 46.2282 34.1345 45.9813 33.8922L44.413 32.353C44.1663 32.1108 43.7928 32.0431 43.4739 32.1818L42.5352 32.591C42.0684 32.344 41.5787 32.1446 41.0716 31.9954L40.7029 31.0553C40.5776 30.7357 40.2646 30.5247 39.9155 30.5247H37.6977C37.3486 30.5247 37.0356 30.7357 36.9102 31.0553L36.5415 31.9954C36.0344 32.1447 35.5447 32.344 35.0779 32.591L34.1392 32.1818C33.8201 32.0426 33.4469 32.1106 33.2002 32.353L31.6319 33.8922C31.3851 34.1345 31.3157 34.5008 31.4574 34.8139L31.8743 35.735C31.6227 36.1933 31.4195 36.6739 31.2674 37.1717L30.3097 37.5335C29.984 37.6565 29.769 37.9637 29.769 38.3064V40.483C29.769 40.8256 29.984 41.1328 30.3097 41.2558L31.2672 41.6176C31.4194 42.1157 31.6226 42.5965 31.8742 43.0547L31.4575 43.9756C31.3157 44.2886 31.3851 44.655 31.6319 44.8973L33.2003 46.4365C33.4472 46.6786 33.8202 46.7466 34.1394 46.6077L35.078 46.1985C35.5447 46.4455 36.0344 46.6448 36.5415 46.794L36.9102 47.7343C37.0355 48.0539 37.3486 48.2649 37.6977 48.2649H39.9155C40.2646 48.2649 40.5775 48.0539 40.7029 47.7343L41.0715 46.7944C41.5789 46.6451 42.0689 46.4457 42.5357 46.1987L43.474 46.6077C43.7928 46.7468 44.1663 46.6787 44.4131 46.4365L45.9813 44.8973C46.2281 44.655 46.2975 44.2886 46.1557 43.9756L45.7388 43.0542C45.9905 42.5961 46.1935 42.1155 46.3456 41.6178L47.3035 41.2558ZM46.1567 39.9144L45.3395 40.2231C45.0798 40.3211 44.8862 40.5385 44.8218 40.8041C44.6703 41.4285 44.4192 42.0231 44.0752 42.5714C43.9294 42.8039 43.9097 43.0921 44.0226 43.3417L44.3785 44.1281L43.6295 44.8632L42.8288 44.5141C42.5745 44.4031 42.2808 44.4226 42.0439 44.5659C41.4855 44.9035 40.8794 45.1501 40.2428 45.2987C39.9722 45.3619 39.7506 45.5519 39.6507 45.8068L39.3363 46.6085H38.2771L37.9626 45.8064C37.8627 45.5516 37.6412 45.3615 37.3706 45.2983C36.7343 45.1496 36.1285 44.9032 35.5699 44.5657C35.333 44.4225 35.0395 44.4031 34.7851 44.514L33.9841 44.8632L33.2351 44.1281L33.5907 43.3422C33.7037 43.0926 33.6839 42.8044 33.538 42.5718C33.194 42.0238 32.9428 41.429 32.7914 40.8041C32.7269 40.5386 32.5333 40.3211 32.2736 40.2231L31.4568 39.9145V38.875L32.2738 38.5663C32.5334 38.4683 32.7271 38.2508 32.7916 37.9852C32.9429 37.3608 33.1941 36.7662 33.5382 36.2179C33.684 35.9853 33.7038 35.6972 33.5909 35.4476L33.2351 34.6613L33.984 33.9262L34.7851 34.2755C35.0394 34.3863 35.3333 34.3672 35.57 34.2237C36.1287 33.886 36.7345 33.6396 37.3705 33.4911C37.6411 33.4279 37.8627 33.2378 37.9626 32.983L38.2771 32.1809H39.3362L39.6507 32.983C39.7506 33.2378 39.9722 33.4279 40.2428 33.4911C40.8789 33.6397 41.4847 33.886 42.0434 34.2237C42.2803 34.3671 42.5739 34.3863 42.8283 34.2755L43.6294 33.9262L44.3784 34.6613L44.0227 35.4473C43.9098 35.6968 43.9295 35.985 44.0755 36.2176C44.4194 36.7657 44.6706 37.3604 44.8221 37.9853C44.8864 38.2509 45.0802 38.4684 45.3398 38.5664L46.1567 38.875V39.9144ZM38.8067 34.7705C36.2088 34.7705 34.0952 36.8449 34.0952 39.3947C34.0952 41.9445 36.2088 44.019 38.8067 44.019C41.4046 44.019 43.5182 41.9445 43.5182 39.3947C43.5182 36.8449 41.4046 34.7705 38.8067 34.7705ZM38.8067 42.3626C37.1392 42.3626 35.7827 41.0312 35.7827 39.3946C35.7827 37.758 37.1392 36.4266 38.8067 36.4266C40.4741 36.4266 41.8307 37.758 41.8307 39.3946C41.8307 41.0312 40.4741 42.3626 38.8067 42.3626ZM22.7212 14.945C26.6867 14.945 29.9128 11.7785 29.9128 7.88654C29.9128 3.99456 26.6866 0.828125 22.7212 0.828125C18.7558 0.828125 15.5296 3.99457 15.5296 7.88665C15.5296 11.7785 18.7557 14.945 22.7212 14.945ZM22.7212 2.48438C25.7562 2.48438 28.2253 4.90778 28.2253 7.88665C28.2253 10.8653 25.7562 13.2888 22.7212 13.2888C19.6862 13.2888 17.2171 10.8654 17.2171 7.88665C17.2171 4.90778 19.6862 2.48438 22.7212 2.48438ZM21.8775 7.88654V4.18503C21.8775 3.7277 22.2552 3.35691 22.7212 3.35691C23.1872 3.35691 23.565 3.7277 23.565 4.18503V7.40841L25.8723 8.71602C26.2758 8.94468 26.4141 9.45118 26.1811 9.84723C26.0248 10.1129 25.7412 10.2614 25.4496 10.2614C25.3065 10.2614 25.1613 10.2256 25.0284 10.1503L22.2992 8.6038C22.0383 8.45578 21.8775 8.18239 21.8775 7.88654ZM7.51493 9.13515C7.98089 9.13515 8.35868 9.50594 8.35868 9.96328C8.35868 10.4206 7.98089 10.7914 7.51493 10.7914H6.41341C5.94745 10.7914 5.56966 10.4206 5.56966 9.96328C5.56966 9.50594 5.94745 9.13515 6.41341 9.13515H7.51493ZM10.4188 9.13515H14.1409C14.6069 9.13515 14.9846 9.50594 14.9846 9.96328C14.9846 10.4206 14.6069 10.7914 14.1409 10.7914H10.4188C9.95284 10.7914 9.57505 10.4206 9.57505 9.96328C9.57505 9.50594 9.95284 9.13515 10.4188 9.13515ZM10.9436 6.63804C10.4776 6.63804 10.0999 6.26725 10.0999 5.80992C10.0999 5.35259 10.4776 4.98179 10.9436 4.98179H13.2156C13.6816 4.98179 14.0594 5.35259 14.0594 5.80992C14.0594 6.26725 13.6816 6.63804 13.2156 6.63804H10.9436ZM3.6264 14.1166C3.6264 13.6593 4.00419 13.2885 4.47015 13.2885H10.5323C10.9982 13.2885 11.376 13.6593 11.376 14.1166C11.376 14.574 10.9982 14.9448 10.5323 14.9448H4.47015C4.00419 14.9448 3.6264 14.574 3.6264 14.1166ZM13.3067 14.1166C13.3067 13.6593 13.6845 13.2885 14.1505 13.2885H15.3251C15.7911 13.2885 16.1688 13.6593 16.1688 14.1166C16.1688 14.574 15.7911 14.9448 15.3251 14.9448H14.1505C13.6845 14.9448 13.3067 14.574 13.3067 14.1166ZM12.3864 1.65646C12.3864 1.19913 12.7642 0.828332 13.2302 0.828332H16.3263C16.7923 0.828332 17.1701 1.19913 17.1701 1.65646C17.1701 2.11379 16.7923 2.48458 16.3263 2.48458H13.2302C12.7642 2.48458 12.3864 2.11379 12.3864 1.65646ZM5.56966 1.65646C5.56966 1.19913 5.94745 0.828332 6.41341 0.828332H10.7774C11.2434 0.828332 11.6211 1.19913 11.6211 1.65646C11.6211 2.11379 11.2434 2.48458 10.7774 2.48458H6.41341C5.94745 2.48458 5.56966 2.11379 5.56966 1.65646ZM3.6264 5.80992C3.6264 5.35259 4.00419 4.98179 4.47015 4.98179H7.80191C8.26787 4.98179 8.64566 5.35259 8.64566 5.80992C8.64566 6.26725 8.26787 6.63804 7.80191 6.63804H4.47015C4.00419 6.63804 3.6264 6.26725 3.6264 5.80992Z"></path></mask><path d="M18.8382 23.2295H13.301C12.8351 23.2295 12.4573 23.6003 12.4573 24.0577V41.4038C12.4573 41.8611 12.8351 42.2319 13.301 42.2319H18.8382C19.3041 42.2319 19.6819 41.8611 19.6819 41.4038V24.0577C19.6819 23.6003 19.3041 23.2295 18.8382 23.2295ZM17.9944 40.5757H14.1448V24.8859H17.9944V40.5757ZM25.5387 41.404C25.5387 41.8613 25.1609 42.2321 24.6949 42.2321H23.5826C23.1166 42.2321 22.7388 41.8613 22.7388 41.404V26.3228C22.7388 25.8654 23.1166 25.4947 23.5826 25.4947H29.1197C29.5856 25.4947 29.9634 25.8654 29.9634 26.3228V29.0505C29.9634 29.5079 29.5856 29.8786 29.1197 29.8786C28.6537 29.8786 28.2759 29.5079 28.2759 29.0505V27.1509H24.4263V40.5757H24.6949C25.161 40.5758 25.5387 40.9466 25.5387 41.404ZM33.864 16.1007H39.4011C39.867 16.1007 40.2448 16.4715 40.2448 16.9288V24.3541C40.2448 24.8115 39.867 25.1822 39.4011 25.1822C38.9351 25.1822 38.5573 24.8115 38.5573 24.3541V17.757H34.7077V25.366C34.7077 25.8233 34.3299 26.1941 33.864 26.1941C33.398 26.1941 33.0202 25.8233 33.0202 25.366V16.9288C33.0202 16.4715 33.398 16.1007 33.864 16.1007ZM8.55664 29.958H3.01953C2.55357 29.958 2.17578 30.3288 2.17578 30.7862V41.4037C2.17578 41.861 2.55357 42.2318 3.01953 42.2318H8.55664C9.0226 42.2318 9.40039 41.861 9.40039 41.4037V30.7862C9.40039 30.3288 9.0226 29.958 8.55664 29.958ZM7.71289 40.5756H3.86328V31.6144H7.71289V40.5756ZM32.4451 9.89309C32.4044 9.43752 32.7477 9.03578 33.212 8.99572L36.5588 8.70763C36.8107 8.68558 37.0595 8.77637 37.2362 8.9541C37.413 9.13173 37.4992 9.37789 37.471 9.62468L37.0976 12.9017C37.0494 13.3249 36.6842 13.6379 36.2602 13.6379C36.2289 13.6379 36.1973 13.6361 36.1654 13.6326C35.7023 13.5819 35.3689 13.1722 35.4207 12.7176L35.5246 11.8053L26.9503 20.2928C26.7262 20.5147 26.3937 20.5939 26.091 20.4975L16.235 17.3623L6.30647 24.9502C6.15248 25.0679 5.96991 25.1249 5.78861 25.1249C5.53739 25.1249 5.28869 25.0152 5.12237 24.8056C4.83613 24.4447 4.90204 23.9243 5.26971 23.6433L15.5512 15.7857C15.7721 15.617 16.0637 15.5668 16.3297 15.6514L26.1175 18.7649L34.4111 10.5552L33.3592 10.6458C32.8955 10.6855 32.4858 10.3488 32.4451 9.89309ZM50.8007 46.5859C50.9285 47.0256 50.6688 47.4839 50.2208 47.6094L48.0609 48.2143C47.9848 48.2355 47.9069 48.246 47.8295 48.246C47.6532 48.246 47.4791 48.1918 47.3334 48.0879C47.1236 47.9382 46.9956 47.7021 46.9863 47.4476L46.9057 45.2446C46.8889 44.7876 47.2529 44.4038 47.7187 44.3873C48.1303 44.3765 48.4827 44.6508 48.5711 45.0299C51.1198 40.7544 50.4867 35.1302 46.8193 31.5308C43.1846 27.9634 37.5475 27.2426 33.111 29.7779C32.7085 30.0081 32.1919 29.8743 31.9573 29.479C31.7229 29.0838 31.8592 28.5767 32.2619 28.3467C37.3596 25.4334 43.8367 26.2611 48.0125 30.3595C50.3284 32.6326 51.6784 35.652 51.8139 38.8616C51.9205 41.3877 51.2697 43.8568 49.9609 45.9861C50.3389 45.9734 50.692 46.2124 50.8007 46.5859ZM45.6558 49.3106C45.8903 49.7058 45.7539 50.2128 45.3511 50.443C43.3152 51.6062 41.0592 52.173 38.8179 52.173C35.447 52.173 32.1092 50.8913 29.6011 48.4298C27.2853 46.1568 25.9353 43.1375 25.7997 39.9279C25.6931 37.4019 26.3438 34.9326 27.6526 32.8032C27.2743 32.8158 26.9214 32.5769 26.8129 32.2035C26.685 31.7638 26.9447 31.3055 27.3927 31.1799L29.5526 30.5751C29.8021 30.5054 30.0704 30.5519 30.2801 30.7016C30.4899 30.8513 30.618 31.0874 30.6272 31.3418L30.7078 33.5449C30.7246 34.0019 30.3606 34.3857 29.8949 34.4022C29.8845 34.4025 29.8743 34.4027 29.8641 34.4027C29.4659 34.4027 29.1284 34.1299 29.0424 33.7596C26.4937 38.0351 27.1268 43.6593 30.7941 47.2586C34.4284 50.826 40.0653 51.5467 44.5019 49.0116C44.9048 48.7817 45.4213 48.9155 45.6558 49.3106ZM47.3035 41.2558C47.6292 41.1329 47.8442 40.8256 47.8442 40.483V38.3064C47.8442 37.9637 47.6292 37.6566 47.3035 37.5335L46.346 37.1718C46.1938 36.6738 45.9907 36.193 45.739 35.7347L46.1558 34.8139C46.2975 34.5008 46.2282 34.1345 45.9813 33.8922L44.413 32.353C44.1663 32.1108 43.7928 32.0431 43.4739 32.1818L42.5352 32.591C42.0684 32.344 41.5787 32.1446 41.0716 31.9954L40.7029 31.0553C40.5776 30.7357 40.2646 30.5247 39.9155 30.5247H37.6977C37.3486 30.5247 37.0356 30.7357 36.9102 31.0553L36.5415 31.9954C36.0344 32.1447 35.5447 32.344 35.0779 32.591L34.1392 32.1818C33.8201 32.0426 33.4469 32.1106 33.2002 32.353L31.6319 33.8922C31.3851 34.1345 31.3157 34.5008 31.4574 34.8139L31.8743 35.735C31.6227 36.1933 31.4195 36.6739 31.2674 37.1717L30.3097 37.5335C29.984 37.6565 29.769 37.9637 29.769 38.3064V40.483C29.769 40.8256 29.984 41.1328 30.3097 41.2558L31.2672 41.6176C31.4194 42.1157 31.6226 42.5965 31.8742 43.0547L31.4575 43.9756C31.3157 44.2886 31.3851 44.655 31.6319 44.8973L33.2003 46.4365C33.4472 46.6786 33.8202 46.7466 34.1394 46.6077L35.078 46.1985C35.5447 46.4455 36.0344 46.6448 36.5415 46.794L36.9102 47.7343C37.0355 48.0539 37.3486 48.2649 37.6977 48.2649H39.9155C40.2646 48.2649 40.5775 48.0539 40.7029 47.7343L41.0715 46.7944C41.5789 46.6451 42.0689 46.4457 42.5357 46.1987L43.474 46.6077C43.7928 46.7468 44.1663 46.6787 44.4131 46.4365L45.9813 44.8973C46.2281 44.655 46.2975 44.2886 46.1557 43.9756L45.7388 43.0542C45.9905 42.5961 46.1935 42.1155 46.3456 41.6178L47.3035 41.2558ZM46.1567 39.9144L45.3395 40.2231C45.0798 40.3211 44.8862 40.5385 44.8218 40.8041C44.6703 41.4285 44.4192 42.0231 44.0752 42.5714C43.9294 42.8039 43.9097 43.0921 44.0226 43.3417L44.3785 44.1281L43.6295 44.8632L42.8288 44.5141C42.5745 44.4031 42.2808 44.4226 42.0439 44.5659C41.4855 44.9035 40.8794 45.1501 40.2428 45.2987C39.9722 45.3619 39.7506 45.5519 39.6507 45.8068L39.3363 46.6085H38.2771L37.9626 45.8064C37.8627 45.5516 37.6412 45.3615 37.3706 45.2983C36.7343 45.1496 36.1285 44.9032 35.5699 44.5657C35.333 44.4225 35.0395 44.4031 34.7851 44.514L33.9841 44.8632L33.2351 44.1281L33.5907 43.3422C33.7037 43.0926 33.6839 42.8044 33.538 42.5718C33.194 42.0238 32.9428 41.429 32.7914 40.8041C32.7269 40.5386 32.5333 40.3211 32.2736 40.2231L31.4568 39.9145V38.875L32.2738 38.5663C32.5334 38.4683 32.7271 38.2508 32.7916 37.9852C32.9429 37.3608 33.1941 36.7662 33.5382 36.2179C33.684 35.9853 33.7038 35.6972 33.5909 35.4476L33.2351 34.6613L33.984 33.9262L34.7851 34.2755C35.0394 34.3863 35.3333 34.3672 35.57 34.2237C36.1287 33.886 36.7345 33.6396 37.3705 33.4911C37.6411 33.4279 37.8627 33.2378 37.9626 32.983L38.2771 32.1809H39.3362L39.6507 32.983C39.7506 33.2378 39.9722 33.4279 40.2428 33.4911C40.8789 33.6397 41.4847 33.886 42.0434 34.2237C42.2803 34.3671 42.5739 34.3863 42.8283 34.2755L43.6294 33.9262L44.3784 34.6613L44.0227 35.4473C43.9098 35.6968 43.9295 35.985 44.0755 36.2176C44.4194 36.7657 44.6706 37.3604 44.8221 37.9853C44.8864 38.2509 45.0802 38.4684 45.3398 38.5664L46.1567 38.875V39.9144ZM38.8067 34.7705C36.2088 34.7705 34.0952 36.8449 34.0952 39.3947C34.0952 41.9445 36.2088 44.019 38.8067 44.019C41.4046 44.019 43.5182 41.9445 43.5182 39.3947C43.5182 36.8449 41.4046 34.7705 38.8067 34.7705ZM38.8067 42.3626C37.1392 42.3626 35.7827 41.0312 35.7827 39.3946C35.7827 37.758 37.1392 36.4266 38.8067 36.4266C40.4741 36.4266 41.8307 37.758 41.8307 39.3946C41.8307 41.0312 40.4741 42.3626 38.8067 42.3626ZM22.7212 14.945C26.6867 14.945 29.9128 11.7785 29.9128 7.88654C29.9128 3.99456 26.6866 0.828125 22.7212 0.828125C18.7558 0.828125 15.5296 3.99457 15.5296 7.88665C15.5296 11.7785 18.7557 14.945 22.7212 14.945ZM22.7212 2.48438C25.7562 2.48438 28.2253 4.90778 28.2253 7.88665C28.2253 10.8653 25.7562 13.2888 22.7212 13.2888C19.6862 13.2888 17.2171 10.8654 17.2171 7.88665C17.2171 4.90778 19.6862 2.48438 22.7212 2.48438ZM21.8775 7.88654V4.18503C21.8775 3.7277 22.2552 3.35691 22.7212 3.35691C23.1872 3.35691 23.565 3.7277 23.565 4.18503V7.40841L25.8723 8.71602C26.2758 8.94468 26.4141 9.45118 26.1811 9.84723C26.0248 10.1129 25.7412 10.2614 25.4496 10.2614C25.3065 10.2614 25.1613 10.2256 25.0284 10.1503L22.2992 8.6038C22.0383 8.45578 21.8775 8.18239 21.8775 7.88654ZM7.51493 9.13515C7.98089 9.13515 8.35868 9.50594 8.35868 9.96328C8.35868 10.4206 7.98089 10.7914 7.51493 10.7914H6.41341C5.94745 10.7914 5.56966 10.4206 5.56966 9.96328C5.56966 9.50594 5.94745 9.13515 6.41341 9.13515H7.51493ZM10.4188 9.13515H14.1409C14.6069 9.13515 14.9846 9.50594 14.9846 9.96328C14.9846 10.4206 14.6069 10.7914 14.1409 10.7914H10.4188C9.95284 10.7914 9.57505 10.4206 9.57505 9.96328C9.57505 9.50594 9.95284 9.13515 10.4188 9.13515ZM10.9436 6.63804C10.4776 6.63804 10.0999 6.26725 10.0999 5.80992C10.0999 5.35259 10.4776 4.98179 10.9436 4.98179H13.2156C13.6816 4.98179 14.0594 5.35259 14.0594 5.80992C14.0594 6.26725 13.6816 6.63804 13.2156 6.63804H10.9436ZM3.6264 14.1166C3.6264 13.6593 4.00419 13.2885 4.47015 13.2885H10.5323C10.9982 13.2885 11.376 13.6593 11.376 14.1166C11.376 14.574 10.9982 14.9448 10.5323 14.9448H4.47015C4.00419 14.9448 3.6264 14.574 3.6264 14.1166ZM13.3067 14.1166C13.3067 13.6593 13.6845 13.2885 14.1505 13.2885H15.3251C15.7911 13.2885 16.1688 13.6593 16.1688 14.1166C16.1688 14.574 15.7911 14.9448 15.3251 14.9448H14.1505C13.6845 14.9448 13.3067 14.574 13.3067 14.1166ZM12.3864 1.65646C12.3864 1.19913 12.7642 0.828332 13.2302 0.828332H16.3263C16.7923 0.828332 17.1701 1.19913 17.1701 1.65646C17.1701 2.11379 16.7923 2.48458 16.3263 2.48458H13.2302C12.7642 2.48458 12.3864 2.11379 12.3864 1.65646ZM5.56966 1.65646C5.56966 1.19913 5.94745 0.828332 6.41341 0.828332H10.7774C11.2434 0.828332 11.6211 1.19913 11.6211 1.65646C11.6211 2.11379 11.2434 2.48458 10.7774 2.48458H6.41341C5.94745 2.48458 5.56966 2.11379 5.56966 1.65646ZM3.6264 5.80992C3.6264 5.35259 4.00419 4.98179 4.47015 4.98179H7.80191C8.26787 4.98179 8.64566 5.35259 8.64566 5.80992C8.64566 6.26725 8.26787 6.63804 7.80191 6.63804H4.47015C4.00419 6.63804 3.6264 6.26725 3.6264 5.80992Z" fill="#048DEF"></path><path d="M18.8382 23.2295H13.301C12.8351 23.2295 12.4573 23.6003 12.4573 24.0577V41.4038C12.4573 41.8611 12.8351 42.2319 13.301 42.2319H18.8382C19.3041 42.2319 19.6819 41.8611 19.6819 41.4038V24.0577C19.6819 23.6003 19.3041 23.2295 18.8382 23.2295ZM17.9944 40.5757H14.1448V24.8859H17.9944V40.5757ZM25.5387 41.404C25.5387 41.8613 25.1609 42.2321 24.6949 42.2321H23.5826C23.1166 42.2321 22.7388 41.8613 22.7388 41.404V26.3228C22.7388 25.8654 23.1166 25.4947 23.5826 25.4947H29.1197C29.5856 25.4947 29.9634 25.8654 29.9634 26.3228V29.0505C29.9634 29.5079 29.5856 29.8786 29.1197 29.8786C28.6537 29.8786 28.2759 29.5079 28.2759 29.0505V27.1509H24.4263V40.5757H24.6949C25.161 40.5758 25.5387 40.9466 25.5387 41.404ZM33.864 16.1007H39.4011C39.867 16.1007 40.2448 16.4715 40.2448 16.9288V24.3541C40.2448 24.8115 39.867 25.1822 39.4011 25.1822C38.9351 25.1822 38.5573 24.8115 38.5573 24.3541V17.757H34.7077V25.366C34.7077 25.8233 34.3299 26.1941 33.864 26.1941C33.398 26.1941 33.0202 25.8233 33.0202 25.366V16.9288C33.0202 16.4715 33.398 16.1007 33.864 16.1007ZM8.55664 29.958H3.01953C2.55357 29.958 2.17578 30.3288 2.17578 30.7862V41.4037C2.17578 41.861 2.55357 42.2318 3.01953 42.2318H8.55664C9.0226 42.2318 9.40039 41.861 9.40039 41.4037V30.7862C9.40039 30.3288 9.0226 29.958 8.55664 29.958ZM7.71289 40.5756H3.86328V31.6144H7.71289V40.5756ZM32.4451 9.89309C32.4044 9.43752 32.7477 9.03578 33.212 8.99572L36.5588 8.70763C36.8107 8.68558 37.0595 8.77637 37.2362 8.9541C37.413 9.13173 37.4992 9.37789 37.471 9.62468L37.0976 12.9017C37.0494 13.3249 36.6842 13.6379 36.2602 13.6379C36.2289 13.6379 36.1973 13.6361 36.1654 13.6326C35.7023 13.5819 35.3689 13.1722 35.4207 12.7176L35.5246 11.8053L26.9503 20.2928C26.7262 20.5147 26.3937 20.5939 26.091 20.4975L16.235 17.3623L6.30647 24.9502C6.15248 25.0679 5.96991 25.1249 5.78861 25.1249C5.53739 25.1249 5.28869 25.0152 5.12237 24.8056C4.83613 24.4447 4.90204 23.9243 5.26971 23.6433L15.5512 15.7857C15.7721 15.617 16.0637 15.5668 16.3297 15.6514L26.1175 18.7649L34.4111 10.5552L33.3592 10.6458C32.8955 10.6855 32.4858 10.3488 32.4451 9.89309ZM50.8007 46.5859C50.9285 47.0256 50.6688 47.4839 50.2208 47.6094L48.0609 48.2143C47.9848 48.2355 47.9069 48.246 47.8295 48.246C47.6532 48.246 47.4791 48.1918 47.3334 48.0879C47.1236 47.9382 46.9956 47.7021 46.9863 47.4476L46.9057 45.2446C46.8889 44.7876 47.2529 44.4038 47.7187 44.3873C48.1303 44.3765 48.4827 44.6508 48.5711 45.0299C51.1198 40.7544 50.4867 35.1302 46.8193 31.5308C43.1846 27.9634 37.5475 27.2426 33.111 29.7779C32.7085 30.0081 32.1919 29.8743 31.9573 29.479C31.7229 29.0838 31.8592 28.5767 32.2619 28.3467C37.3596 25.4334 43.8367 26.2611 48.0125 30.3595C50.3284 32.6326 51.6784 35.652 51.8139 38.8616C51.9205 41.3877 51.2697 43.8568 49.9609 45.9861C50.3389 45.9734 50.692 46.2124 50.8007 46.5859ZM45.6558 49.3106C45.8903 49.7058 45.7539 50.2128 45.3511 50.443C43.3152 51.6062 41.0592 52.173 38.8179 52.173C35.447 52.173 32.1092 50.8913 29.6011 48.4298C27.2853 46.1568 25.9353 43.1375 25.7997 39.9279C25.6931 37.4019 26.3438 34.9326 27.6526 32.8032C27.2743 32.8158 26.9214 32.5769 26.8129 32.2035C26.685 31.7638 26.9447 31.3055 27.3927 31.1799L29.5526 30.5751C29.8021 30.5054 30.0704 30.5519 30.2801 30.7016C30.4899 30.8513 30.618 31.0874 30.6272 31.3418L30.7078 33.5449C30.7246 34.0019 30.3606 34.3857 29.8949 34.4022C29.8845 34.4025 29.8743 34.4027 29.8641 34.4027C29.4659 34.4027 29.1284 34.1299 29.0424 33.7596C26.4937 38.0351 27.1268 43.6593 30.7941 47.2586C34.4284 50.826 40.0653 51.5467 44.5019 49.0116C44.9048 48.7817 45.4213 48.9155 45.6558 49.3106ZM47.3035 41.2558C47.6292 41.1329 47.8442 40.8256 47.8442 40.483V38.3064C47.8442 37.9637 47.6292 37.6566 47.3035 37.5335L46.346 37.1718C46.1938 36.6738 45.9907 36.193 45.739 35.7347L46.1558 34.8139C46.2975 34.5008 46.2282 34.1345 45.9813 33.8922L44.413 32.353C44.1663 32.1108 43.7928 32.0431 43.4739 32.1818L42.5352 32.591C42.0684 32.344 41.5787 32.1446 41.0716 31.9954L40.7029 31.0553C40.5776 30.7357 40.2646 30.5247 39.9155 30.5247H37.6977C37.3486 30.5247 37.0356 30.7357 36.9102 31.0553L36.5415 31.9954C36.0344 32.1447 35.5447 32.344 35.0779 32.591L34.1392 32.1818C33.8201 32.0426 33.4469 32.1106 33.2002 32.353L31.6319 33.8922C31.3851 34.1345 31.3157 34.5008 31.4574 34.8139L31.8743 35.735C31.6227 36.1933 31.4195 36.6739 31.2674 37.1717L30.3097 37.5335C29.984 37.6565 29.769 37.9637 29.769 38.3064V40.483C29.769 40.8256 29.984 41.1328 30.3097 41.2558L31.2672 41.6176C31.4194 42.1157 31.6226 42.5965 31.8742 43.0547L31.4575 43.9756C31.3157 44.2886 31.3851 44.655 31.6319 44.8973L33.2003 46.4365C33.4472 46.6786 33.8202 46.7466 34.1394 46.6077L35.078 46.1985C35.5447 46.4455 36.0344 46.6448 36.5415 46.794L36.9102 47.7343C37.0355 48.0539 37.3486 48.2649 37.6977 48.2649H39.9155C40.2646 48.2649 40.5775 48.0539 40.7029 47.7343L41.0715 46.7944C41.5789 46.6451 42.0689 46.4457 42.5357 46.1987L43.474 46.6077C43.7928 46.7468 44.1663 46.6787 44.4131 46.4365L45.9813 44.8973C46.2281 44.655 46.2975 44.2886 46.1557 43.9756L45.7388 43.0542C45.9905 42.5961 46.1935 42.1155 46.3456 41.6178L47.3035 41.2558ZM46.1567 39.9144L45.3395 40.2231C45.0798 40.3211 44.8862 40.5385 44.8218 40.8041C44.6703 41.4285 44.4192 42.0231 44.0752 42.5714C43.9294 42.8039 43.9097 43.0921 44.0226 43.3417L44.3785 44.1281L43.6295 44.8632L42.8288 44.5141C42.5745 44.4031 42.2808 44.4226 42.0439 44.5659C41.4855 44.9035 40.8794 45.1501 40.2428 45.2987C39.9722 45.3619 39.7506 45.5519 39.6507 45.8068L39.3363 46.6085H38.2771L37.9626 45.8064C37.8627 45.5516 37.6412 45.3615 37.3706 45.2983C36.7343 45.1496 36.1285 44.9032 35.5699 44.5657C35.333 44.4225 35.0395 44.4031 34.7851 44.514L33.9841 44.8632L33.2351 44.1281L33.5907 43.3422C33.7037 43.0926 33.6839 42.8044 33.538 42.5718C33.194 42.0238 32.9428 41.429 32.7914 40.8041C32.7269 40.5386 32.5333 40.3211 32.2736 40.2231L31.4568 39.9145V38.875L32.2738 38.5663C32.5334 38.4683 32.7271 38.2508 32.7916 37.9852C32.9429 37.3608 33.1941 36.7662 33.5382 36.2179C33.684 35.9853 33.7038 35.6972 33.5909 35.4476L33.2351 34.6613L33.984 33.9262L34.7851 34.2755C35.0394 34.3863 35.3333 34.3672 35.57 34.2237C36.1287 33.886 36.7345 33.6396 37.3705 33.4911C37.6411 33.4279 37.8627 33.2378 37.9626 32.983L38.2771 32.1809H39.3362L39.6507 32.983C39.7506 33.2378 39.9722 33.4279 40.2428 33.4911C40.8789 33.6397 41.4847 33.886 42.0434 34.2237C42.2803 34.3671 42.5739 34.3863 42.8283 34.2755L43.6294 33.9262L44.3784 34.6613L44.0227 35.4473C43.9098 35.6968 43.9295 35.985 44.0755 36.2176C44.4194 36.7657 44.6706 37.3604 44.8221 37.9853C44.8864 38.2509 45.0802 38.4684 45.3398 38.5664L46.1567 38.875V39.9144ZM38.8067 34.7705C36.2088 34.7705 34.0952 36.8449 34.0952 39.3947C34.0952 41.9445 36.2088 44.019 38.8067 44.019C41.4046 44.019 43.5182 41.9445 43.5182 39.3947C43.5182 36.8449 41.4046 34.7705 38.8067 34.7705ZM38.8067 42.3626C37.1392 42.3626 35.7827 41.0312 35.7827 39.3946C35.7827 37.758 37.1392 36.4266 38.8067 36.4266C40.4741 36.4266 41.8307 37.758 41.8307 39.3946C41.8307 41.0312 40.4741 42.3626 38.8067 42.3626ZM22.7212 14.945C26.6867 14.945 29.9128 11.7785 29.9128 7.88654C29.9128 3.99456 26.6866 0.828125 22.7212 0.828125C18.7558 0.828125 15.5296 3.99457 15.5296 7.88665C15.5296 11.7785 18.7557 14.945 22.7212 14.945ZM22.7212 2.48438C25.7562 2.48438 28.2253 4.90778 28.2253 7.88665C28.2253 10.8653 25.7562 13.2888 22.7212 13.2888C19.6862 13.2888 17.2171 10.8654 17.2171 7.88665C17.2171 4.90778 19.6862 2.48438 22.7212 2.48438ZM21.8775 7.88654V4.18503C21.8775 3.7277 22.2552 3.35691 22.7212 3.35691C23.1872 3.35691 23.565 3.7277 23.565 4.18503V7.40841L25.8723 8.71602C26.2758 8.94468 26.4141 9.45118 26.1811 9.84723C26.0248 10.1129 25.7412 10.2614 25.4496 10.2614C25.3065 10.2614 25.1613 10.2256 25.0284 10.1503L22.2992 8.6038C22.0383 8.45578 21.8775 8.18239 21.8775 7.88654ZM7.51493 9.13515C7.98089 9.13515 8.35868 9.50594 8.35868 9.96328C8.35868 10.4206 7.98089 10.7914 7.51493 10.7914H6.41341C5.94745 10.7914 5.56966 10.4206 5.56966 9.96328C5.56966 9.50594 5.94745 9.13515 6.41341 9.13515H7.51493ZM10.4188 9.13515H14.1409C14.6069 9.13515 14.9846 9.50594 14.9846 9.96328C14.9846 10.4206 14.6069 10.7914 14.1409 10.7914H10.4188C9.95284 10.7914 9.57505 10.4206 9.57505 9.96328C9.57505 9.50594 9.95284 9.13515 10.4188 9.13515ZM10.9436 6.63804C10.4776 6.63804 10.0999 6.26725 10.0999 5.80992C10.0999 5.35259 10.4776 4.98179 10.9436 4.98179H13.2156C13.6816 4.98179 14.0594 5.35259 14.0594 5.80992C14.0594 6.26725 13.6816 6.63804 13.2156 6.63804H10.9436ZM3.6264 14.1166C3.6264 13.6593 4.00419 13.2885 4.47015 13.2885H10.5323C10.9982 13.2885 11.376 13.6593 11.376 14.1166C11.376 14.574 10.9982 14.9448 10.5323 14.9448H4.47015C4.00419 14.9448 3.6264 14.574 3.6264 14.1166ZM13.3067 14.1166C13.3067 13.6593 13.6845 13.2885 14.1505 13.2885H15.3251C15.7911 13.2885 16.1688 13.6593 16.1688 14.1166C16.1688 14.574 15.7911 14.9448 15.3251 14.9448H14.1505C13.6845 14.9448 13.3067 14.574 13.3067 14.1166ZM12.3864 1.65646C12.3864 1.19913 12.7642 0.828332 13.2302 0.828332H16.3263C16.7923 0.828332 17.1701 1.19913 17.1701 1.65646C17.1701 2.11379 16.7923 2.48458 16.3263 2.48458H13.2302C12.7642 2.48458 12.3864 2.11379 12.3864 1.65646ZM5.56966 1.65646C5.56966 1.19913 5.94745 0.828332 6.41341 0.828332H10.7774C11.2434 0.828332 11.6211 1.19913 11.6211 1.65646C11.6211 2.11379 11.2434 2.48458 10.7774 2.48458H6.41341C5.94745 2.48458 5.56966 2.11379 5.56966 1.65646ZM3.6264 5.80992C3.6264 5.35259 4.00419 4.98179 4.47015 4.98179H7.80191C8.26787 4.98179 8.64566 5.35259 8.64566 5.80992C8.64566 6.26725 8.26787 6.63804 7.80191 6.63804H4.47015C4.00419 6.63804 3.6264 6.26725 3.6264 5.80992Z" stroke="#048DEF" stroke-width="0.2" mask="url(#path-1-outside-1_1627_8)"></path></svg>