<svg xmlns="http://www.w3.org/2000/svg" width="56" height="57" viewBox="0 0 56 57" fill="none"><path d="M38.2592 34.6461V22.3542L27.614 16.2081L16.9688 22.3542V34.6461L27.614 40.7921L38.2592 34.6461Z" stroke="#047BDC" stroke-width="1.9" stroke-miterlimit="10" stroke-linecap="round" stroke-linejoin="round"></path><path d="M35.5938 23.8905L38.2551 22.354" stroke="#047BDC" stroke-width="1.9" stroke-miterlimit="10" stroke-linecap="round" stroke-linejoin="round"></path><path d="M16.9688 22.354L27.614 28.4999L32.4981 25.6801" stroke="#047BDC" stroke-width="1.9" stroke-miterlimit="10" stroke-linecap="round" stroke-linejoin="round"></path><path d="M27.6133 28.5V40.792" stroke="#047BDC" stroke-width="1.9" stroke-miterlimit="10" stroke-linecap="round" stroke-linejoin="round"></path><path d="M9.87093 31.0608V25.9391L5.43552 23.3783L1 25.9391V31.0608L5.43552 33.6216L9.87093 31.0608Z" stroke="#047BDC" stroke-width="1.9" stroke-miterlimit="10" stroke-linecap="round" stroke-linejoin="round"></path><path d="M1 25.9392L5.43552 28.5001L9.87093 25.9392" stroke="#047BDC" stroke-width="1.9" stroke-miterlimit="10" stroke-linecap="round" stroke-linejoin="round"></path><path d="M5.4375 28.5V33.6216" stroke="#047BDC" stroke-width="1.9" stroke-miterlimit="10" stroke-linecap="round" stroke-linejoin="round"></path><path d="M54.2264 31.0608V25.9391L49.7909 23.3783L45.3555 25.9391V31.0608L49.7909 33.6216L54.2264 31.0608Z" stroke="#047BDC" stroke-width="1.9" stroke-miterlimit="10" stroke-linecap="round" stroke-linejoin="round"></path><path d="M45.3555 25.9392L49.7909 28.5001L54.2264 25.9392" stroke="#047BDC" stroke-width="1.9" stroke-miterlimit="10" stroke-linecap="round" stroke-linejoin="round"></path><path d="M49.7891 28.5V33.6216" stroke="#047BDC" stroke-width="1.9" stroke-miterlimit="10" stroke-linecap="round" stroke-linejoin="round"></path><path d="M32.0468 8.68251V3.56087L27.6113 1L23.1758 3.56087V8.68251L27.6113 11.2433L32.0468 8.68251Z" stroke="#047BDC" stroke-width="1.9" stroke-miterlimit="10" stroke-linecap="round" stroke-linejoin="round"></path><path d="M23.1758 3.56079L27.6113 6.12156L32.0468 3.56079" stroke="#047BDC" stroke-width="1.9" stroke-miterlimit="10" stroke-linecap="round" stroke-linejoin="round"></path><path d="M27.6133 6.1217V11.2433" stroke="#047BDC" stroke-width="1.9" stroke-miterlimit="10" stroke-linecap="round" stroke-linejoin="round"></path><path d="M32.0468 53.439V48.3174L27.6113 45.7566L23.1758 48.3174V53.439L27.6113 55.9999L32.0468 53.439Z" stroke="#047BDC" stroke-width="1.9" stroke-miterlimit="10" stroke-linecap="round" stroke-linejoin="round"></path><path d="M23.1758 48.3175L27.6113 50.8784L32.0468 48.3175" stroke="#047BDC" stroke-width="1.9" stroke-miterlimit="10" stroke-linecap="round" stroke-linejoin="round"></path><path d="M27.6133 50.8783V55.9999" stroke="#047BDC" stroke-width="1.9" stroke-miterlimit="10" stroke-linecap="round" stroke-linejoin="round"></path><path d="M48.184 20.2214C45.894 14.5361 41.3191 10.0205 35.5938 7.80969" stroke="#047BDC" stroke-width="1.9" stroke-miterlimit="10" stroke-linecap="round" stroke-linejoin="round"></path><path d="M35.5938 49.1904C41.3191 46.9796 45.894 42.464 48.184 36.7787" stroke="#047BDC" stroke-width="1.9" stroke-miterlimit="10" stroke-linecap="round" stroke-linejoin="round"></path><path d="M7.03516 36.7786C9.32513 42.4639 13.9001 46.9795 19.6254 49.1903" stroke="#047BDC" stroke-width="1.9" stroke-miterlimit="10" stroke-linecap="round" stroke-linejoin="round"></path><path d="M19.6254 7.80957C13.9001 10.0204 9.32513 14.5359 7.03516 20.2213" stroke="#047BDC" stroke-width="1.9" stroke-miterlimit="10" stroke-linecap="round" stroke-linejoin="round"></path></svg>