<svg xmlns="http://www.w3.org/2000/svg" width="65" height="64" viewBox="0 0 65 64" fill="none"><path d="M59.3379 0H5.27826C2.58733 0 0.398438 2.18889 0.398438 4.87982V45.9366C0.398438 48.6276 2.58733 50.8164 5.27826 50.8164H23.3015L20.8817 56.7907H17.3975C15.4094 56.7907 13.7929 58.4073 13.7929 60.3954C13.7929 62.3834 15.4094 64 17.3975 64H47.1986C49.1866 64 50.8032 62.3834 50.8032 60.3954C50.8032 58.4073 49.1866 56.7907 47.1986 56.7907H43.7144L41.2946 50.8164H59.3178C62.0087 50.8164 64.1976 48.6276 64.1976 45.9366V4.87982C64.2177 2.18889 62.0288 0 59.3379 0ZM49.0661 60.3954C49.0661 61.4195 48.2328 62.2429 47.2186 62.2429H17.4075C16.3834 62.2429 15.56 61.4095 15.56 60.3954C15.56 59.3812 16.3934 58.5479 17.4075 58.5479H47.2086C48.2328 58.5479 49.0661 59.3812 49.0661 60.3954ZM41.8368 56.7907H22.7794L25.1992 50.8164H39.4069L41.8368 56.7907ZM62.4606 45.9366C62.4606 47.6636 61.0549 49.0593 59.3379 49.0593H5.27826C3.55125 49.0593 2.15558 47.6536 2.15558 45.9366V4.87982C2.15558 3.15281 3.56129 1.75714 5.27826 1.75714H59.3278C61.0549 1.75714 62.4505 3.16285 62.4505 4.87982V45.9366H62.4606Z" fill="#0369CA"></path><path d="M59.3338 3.99622H5.27421C4.79226 3.99622 4.39062 4.38781 4.39062 4.8798V39.9222C4.39062 40.4041 4.78222 40.8058 5.27421 40.8058H59.3238C59.8057 40.8058 60.2074 40.4142 60.2074 39.9222V4.8798C60.2074 4.38781 59.8158 3.99622 59.3338 3.99622ZM58.4502 39.0486H6.1578V5.75335H58.4502V39.0486Z" fill="#0369CA"></path><path d="M32.3088 45.3542C32.8633 45.3542 33.3128 44.9047 33.3128 44.3501C33.3128 43.7956 32.8633 43.3461 32.3088 43.3461C31.7542 43.3461 31.3047 43.7956 31.3047 44.3501C31.3047 44.9047 31.7542 45.3542 32.3088 45.3542Z" fill="#0369CA"></path><path d="M18.7137 28.5962C24.3867 28.5962 29.0055 23.9774 29.0055 18.3044C29.0055 12.6313 24.3867 8.01257 18.7137 8.01257C13.0406 8.01257 8.42188 12.6313 8.42188 18.3144C8.42188 23.9875 13.0406 28.5962 18.7137 28.5962ZM18.7137 26.8391C16.6754 26.8391 14.8078 26.1161 13.3419 24.9213L19.0852 19.1779H27.2082C26.7664 23.4854 23.1216 26.8391 18.7137 26.8391ZM27.2082 17.4308H19.5973V9.81992C23.6036 10.2316 26.7965 13.4246 27.2082 17.4308ZM17.8401 9.81992V17.9429L12.0968 23.6862C10.902 22.2203 10.179 20.3427 10.179 18.3144C10.179 13.8965 13.5427 10.2617 17.8401 9.81992Z" fill="#0369CA"></path><path d="M31.8133 36.7793H36.6329C37.1148 36.7793 37.5164 36.3877 37.5164 35.8957V26.7084C37.5164 26.2265 37.1249 25.8248 36.6329 25.8248H31.8133C31.3313 25.8248 30.9297 26.2164 30.9297 26.7084V35.8957C30.9297 36.3877 31.3213 36.7793 31.8133 36.7793ZM32.6868 27.592H35.7493V35.0222H32.6868V27.592Z" fill="#0369CA"></path><path d="M45.4727 19.8105H40.6531C40.1712 19.8105 39.7695 20.2021 39.7695 20.6941V35.9059C39.7695 36.3879 40.1611 36.7895 40.6531 36.7895H45.4727C45.9547 36.7895 46.3563 36.3979 46.3563 35.9059V20.6841C46.3463 20.2021 45.9547 19.8105 45.4727 19.8105ZM44.5891 35.0223H41.5267V21.5677H44.5891V35.0223Z" fill="#0369CA"></path><path d="M54.3047 28.8572H49.4852C49.0032 28.8572 48.6016 29.2488 48.6016 29.7408V35.9159C48.6016 36.3978 48.9932 36.7994 49.4852 36.7994H54.3047C54.7867 36.7994 55.1883 36.4079 55.1883 35.9159V29.7408C55.1883 29.2488 54.7967 28.8572 54.3047 28.8572ZM53.4312 35.0222H50.3687V30.6043H53.4312V35.0222Z" fill="#0369CA"></path><path d="M9.30546 32.5622H25.2804C25.7623 32.5622 26.164 32.1706 26.164 31.6786C26.164 31.1866 25.7724 30.795 25.2804 30.795H9.30546C8.82351 30.795 8.42188 31.1866 8.42188 31.6786C8.42188 32.1706 8.81347 32.5622 9.30546 32.5622Z" fill="#0369CA"></path><path d="M9.30546 36.7794H18.7137C19.1956 36.7794 19.5973 36.3878 19.5973 35.8958C19.5973 35.4038 19.2057 35.0122 18.7137 35.0122H9.30546C8.82351 35.0122 8.42188 35.4038 8.42188 35.8958C8.42188 36.3878 8.81347 36.7794 9.30546 36.7794Z" fill="#0369CA"></path><path d="M31.8138 21.5676C32.0347 21.5676 32.2657 21.4873 32.4364 21.3065L40.8807 12.8622L48.8631 20.8447C49.2045 21.1861 49.7668 21.1861 50.1082 20.8447L54.8273 16.1255V16.7782C54.8273 17.2601 55.2189 17.6617 55.7109 17.6617C56.2029 17.6617 56.5945 17.2702 56.5945 16.7782V13.8563C56.5945 13.3743 56.2029 12.9727 55.7109 12.9727H52.7891C52.3071 12.9727 51.9055 13.3643 51.9055 13.8563C51.9055 14.3483 52.2971 14.7399 52.7891 14.7399H53.7429L49.4957 18.9871L41.5132 11.0047C41.1719 10.6633 40.6096 10.6633 40.2682 11.0047L31.2014 20.0715C30.86 20.4129 30.86 20.9752 31.2014 21.3166C31.362 21.4772 31.5829 21.5676 31.8138 21.5676Z" fill="#0369CA"></path></svg>