<svg xmlns="http://www.w3.org/2000/svg" width="46" height="47" viewBox="0 0 46 47" fill="none"><path d="M31.4723 26.1815L29.5819 24.766C29.6725 24.3319 29.7201 23.8819 29.7201 23.4206C29.7201 22.9593 29.6725 22.5093 29.5819 22.0745L31.4723 20.6589C31.8099 20.4067 31.9049 19.9417 31.6943 19.5763L30.7499 17.9403C30.5393 17.5748 30.0885 17.4254 29.7013 17.5915L27.5285 18.5217C26.8604 17.9237 26.0699 17.4609 25.1994 17.1748L24.9186 14.8299C24.8687 14.4116 24.5131 14.0961 24.0919 14.0961H22.2023C21.7809 14.0961 21.4261 14.4117 21.3756 14.8299L21.0955 17.1748C20.2243 17.461 19.4339 17.9237 18.7657 18.5217L16.5937 17.5915C16.2056 17.4254 15.7557 17.5749 15.5451 17.9403L14.5998 19.5763C14.3892 19.9418 14.4844 20.4068 14.8218 20.6589L16.713 22.0745C16.6223 22.5093 16.5748 22.9593 16.5748 23.4206C16.5748 23.8819 16.6223 24.3319 16.713 24.766L14.8218 26.1815C14.4843 26.4344 14.3892 26.8995 14.5998 27.2641L15.5451 28.9008C15.7557 29.2655 16.2056 29.4157 16.5937 29.2496L18.7657 28.3195C19.4338 28.9174 20.2243 29.3802 21.0955 29.6663L21.3756 32.0112C21.4262 32.4295 21.781 32.7444 22.2023 32.7444H24.0919C24.5132 32.7444 24.8687 32.4295 24.9186 32.0112L25.1994 29.6663C26.0699 29.3802 26.8604 28.9174 27.5285 28.3195L29.7013 29.2496C30.0886 29.4157 30.5393 29.2655 30.7499 28.9008L31.6943 27.2641C31.905 26.8996 31.8099 26.4344 31.4723 26.1815ZM23.1474 26.8459C21.2554 26.8459 19.7221 25.3118 19.7221 23.4206C19.7221 21.5287 21.2554 19.9953 23.1474 19.9953C25.0385 19.9953 26.5719 21.5287 26.5719 23.4206C26.5719 25.3119 25.0385 26.8459 23.1474 26.8459Z" stroke="#048DEF" stroke-width="1.5" stroke-miterlimit="10" stroke-linecap="round" stroke-linejoin="round"></path><path d="M17.0499 38.6821H2.61079C1.78156 38.6821 1.10938 38.0099 1.10938 37.1807V34.2458C1.10938 33.4166 1.78156 32.7444 2.61079 32.7444H17.0499C17.8792 32.7444 18.5514 33.4166 18.5514 34.2458V37.1807C18.5514 38.0099 17.8792 38.6821 17.0499 38.6821Z" stroke="#048DEF" stroke-width="1.5" stroke-miterlimit="10" stroke-linecap="round" stroke-linejoin="round"></path><path d="M13.4587 44.6196H17.0502C17.8794 44.6196 18.5515 43.9475 18.5515 43.1183V40.1839C18.5515 39.3548 17.8794 38.6826 17.0502 38.6826H2.6107C1.78156 38.6826 1.10938 39.3548 1.10938 40.1839V43.1183C1.10938 43.9475 1.78156 44.6196 2.6107 44.6196H10.355" stroke="#048DEF" stroke-width="1.5" stroke-miterlimit="10" stroke-linecap="round" stroke-linejoin="round"></path><path d="M4.42825 36.9657C5.11996 36.9657 5.68071 36.405 5.68071 35.7133C5.68071 35.0216 5.11996 34.4608 4.42825 34.4608C3.73653 34.4608 3.17578 35.0216 3.17578 35.7133C3.17578 36.405 3.73653 36.9657 4.42825 36.9657Z" stroke="#048DEF" stroke-width="1.5" stroke-miterlimit="10" stroke-linecap="round" stroke-linejoin="round"></path><path d="M8.58059 36.9657C9.27231 36.9657 9.83306 36.405 9.83306 35.7133C9.83306 35.0216 9.27231 34.4608 8.58059 34.4608C7.88887 34.4608 7.32812 35.0216 7.32812 35.7133C7.32812 36.405 7.88887 36.9657 8.58059 36.9657Z" stroke="#048DEF" stroke-width="1.5" stroke-miterlimit="10" stroke-linecap="round" stroke-linejoin="round"></path><path d="M4.42825 42.9034C5.11996 42.9034 5.68071 42.3426 5.68071 41.6509C5.68071 40.9592 5.11996 40.3984 4.42825 40.3984C3.73653 40.3984 3.17578 40.9592 3.17578 41.6509C3.17578 42.3426 3.73653 42.9034 4.42825 42.9034Z" stroke="#048DEF" stroke-width="1.5" stroke-miterlimit="10" stroke-linecap="round" stroke-linejoin="round"></path><path d="M8.58059 42.9034C9.27231 42.9034 9.83306 42.3426 9.83306 41.6509C9.83306 40.9592 9.27231 40.3984 8.58059 40.3984C7.88887 40.3984 7.32812 40.9592 7.32812 41.6509C7.32812 42.3426 7.88887 42.9034 8.58059 42.9034Z" stroke="#048DEF" stroke-width="1.5" stroke-miterlimit="10" stroke-linecap="round" stroke-linejoin="round"></path><path d="M12.3594 35.7133H16.2879" stroke="#048DEF" stroke-width="1.5" stroke-miterlimit="10" stroke-linecap="round" stroke-linejoin="round"></path><path d="M12.3594 41.651H16.2879" stroke="#048DEF" stroke-width="1.5" stroke-miterlimit="10" stroke-linecap="round" stroke-linejoin="round"></path><path d="M41.8714 16.968H43.8959C44.5069 16.968 45.0018 16.4732 45.0018 15.8622V2.48946C45.0018 1.87935 44.5069 1.38452 43.8959 1.38452H40.0047C39.0798 1.38452 38.1922 1.75165 37.5377 2.4061L33.7325 6.21218C33.079 6.86662 32.7109 7.75341 32.7109 8.67832V15.8622C32.7109 16.4732 33.2058 16.968 33.8168 16.968H38.7677" stroke="#048DEF" stroke-width="1.5" stroke-miterlimit="10" stroke-linecap="round" stroke-linejoin="round"></path><path d="M40.3195 1.38416C39.3475 1.38416 38.5595 2.17206 38.5595 3.14407V6.12845C38.5595 6.73891 38.0646 7.23383 37.4542 7.23383H34.4709C33.4988 7.23383 32.7109 8.02174 32.7109 8.99374" stroke="#048DEF" stroke-width="1.5" stroke-miterlimit="10" stroke-linecap="round" stroke-linejoin="round"></path><path d="M36.0859 10.4207H41.6287" stroke="#048DEF" stroke-width="1.5" stroke-miterlimit="10" stroke-linecap="round" stroke-linejoin="round"></path><path d="M36.0859 13.1919H41.6287" stroke="#048DEF" stroke-width="1.5" stroke-miterlimit="10" stroke-linecap="round" stroke-linejoin="round"></path><path d="M43.9557 20.8145C43.8652 20.0917 43.2066 19.579 42.483 19.6695C41.7602 19.7601 41.2475 20.4195 41.338 21.1423C41.4317 21.8894 41.479 22.6559 41.479 23.4205C41.479 27.45 40.1974 31.2731 37.7726 34.4765C35.6955 37.2206 32.8458 39.349 29.6496 40.5675L29.4248 39.2341C29.336 38.7073 28.7102 38.4743 28.2985 38.8146L24.0684 42.3108C23.6567 42.6511 23.7677 43.3094 24.2682 43.4959L29.4107 45.4118C29.9113 45.5983 30.426 45.173 30.3372 44.6463L30.0957 43.2135C33.9507 41.8548 37.3959 39.3454 39.8762 36.0688C42.6507 32.4033 44.1172 28.0296 44.1172 23.4206C44.1171 22.5466 44.0628 21.6699 43.9557 20.8145Z" stroke="#048DEF" stroke-width="1.5" stroke-miterlimit="10" stroke-linecap="round" stroke-linejoin="round"></path><path d="M13.5898 7.77296C14.5563 7.17971 15.5762 6.6769 16.635 6.27341L16.8602 7.60714C16.9489 8.13389 17.575 8.36622 17.9864 8.02659L22.2164 4.52999C22.6279 4.18947 22.517 3.53147 22.0169 3.34525L16.8744 1.42891C16.3734 1.24268 15.859 1.66834 15.9477 2.1942L16.1889 3.62725C12.3341 4.9858 8.88891 7.4954 6.40857 10.7721C3.63382 14.438 2.16797 18.8117 2.16797 23.4203C2.16797 24.2938 2.22206 25.1708 2.32936 26.0265C2.41272 26.6934 2.98115 27.182 3.63648 27.182C3.69058 27.182 3.74645 27.1785 3.80231 27.1714C4.52504 27.0809 5.0376 26.4212 4.94715 25.6984C4.85315 24.9518 4.80615 24.1847 4.80615 23.4203C4.80615 19.3907 6.08756 15.5678 8.51202 12.3647C9.27377 11.3582 10.1393 10.4351 11.0881 9.6095" stroke="#048DEF" stroke-width="1.5" stroke-miterlimit="10" stroke-linecap="round" stroke-linejoin="round"></path></svg>