<svg xmlns="http://www.w3.org/2000/svg" width="66" height="65" viewBox="0 0 66 65" fill="none"><path d="M32.043 58.614H34.1705V60.7416H32.043V58.614Z" fill="#047BDC"></path><path d="M50.3984 51.8888L51.9028 50.3844L53.4072 51.8888L51.9028 53.3932L50.3984 51.8888Z" fill="#047BDC"></path><path d="M58.6367 32.0197H60.7643V34.1472H58.6367V32.0197Z" fill="#047BDC"></path><path d="M63.9571 25.6369H56.415C56.0034 24.339 55.482 23.0785 54.8565 21.8691L60.1871 16.5374C60.3865 16.3379 60.4986 16.0674 60.4986 15.7853C60.4986 15.5033 60.3865 15.2327 60.1871 15.0332L55.6735 10.5207C52.7206 7.51105 49.2006 5.11637 45.3168 3.47504C41.433 1.83371 37.2625 0.978264 33.0461 0.958128C28.8298 0.937991 24.6513 1.75356 20.752 3.35772C16.8527 4.96188 13.31 7.32282 10.3284 10.3041C7.34691 13.2855 4.98572 16.828 3.38128 20.7272C1.77685 24.6264 0.960983 28.8048 0.980822 33.0212C1.00066 37.2375 1.85581 41.4081 3.49687 45.292C5.13792 49.1759 7.53235 52.6961 10.5418 55.6492L15.0543 60.1628C15.2538 60.3623 15.5243 60.4743 15.8064 60.4743C16.0885 60.4743 16.359 60.3623 16.5585 60.1628L21.8901 54.8322C23.1007 55.4575 24.3623 55.9785 25.6612 56.3896V63.9328C25.6612 64.215 25.7733 64.4855 25.9728 64.685C26.1723 64.8845 26.4429 64.9966 26.725 64.9966H39.4903C39.7724 64.9966 40.043 64.8845 40.2425 64.685C40.442 64.4855 40.5541 64.215 40.5541 63.9328V56.3907C41.8519 55.9794 43.1125 55.4584 44.322 54.8333L49.6536 60.1639C49.8531 60.3633 50.1236 60.4753 50.4057 60.4753C50.6878 60.4753 50.9583 60.3633 51.1578 60.1639L60.1839 51.1378C60.3833 50.9383 60.4954 50.6677 60.4954 50.3857C60.4954 50.1036 60.3833 49.8331 60.1839 49.6336L54.8533 44.3019C55.4797 43.0912 56.0018 41.8292 56.4139 40.5298H63.9571C64.2393 40.5298 64.5098 40.4177 64.7093 40.2182C64.9088 40.0187 65.0209 39.7481 65.0209 39.466V26.7007C65.0209 26.4186 64.9088 26.148 64.7093 25.9485C64.5098 25.749 64.2393 25.6369 63.9571 25.6369ZM12.0449 12.0206C17.4995 6.56426 24.8592 3.43829 32.5733 3.30137C40.2873 3.16445 47.7533 6.02727 53.3981 11.2866L51.896 12.7887C46.6465 7.94403 39.726 5.31838 32.584 5.46158C25.442 5.60478 18.6324 8.50573 13.5812 13.5569C8.53001 18.6081 5.62907 25.4177 5.48587 32.5597C5.34266 39.7017 7.96831 46.6222 12.813 51.8718L11.3109 53.3738C6.05155 47.729 3.18873 40.263 3.32566 32.549C3.46258 24.8349 6.58855 17.4753 12.0449 12.0206ZM42.1338 24.0572C44.4955 26.4578 45.8131 29.6943 45.7993 33.0618C45.7856 36.4294 44.4418 39.6551 42.0606 42.0363C39.6794 44.4175 36.4537 45.7613 33.0861 45.7751C29.7186 45.7888 26.4821 44.4713 24.0815 42.1095C23.882 41.9101 23.6115 41.798 23.3294 41.798C23.0474 41.798 22.7768 41.9101 22.5773 42.1095L14.3182 50.3686C9.85668 45.5212 7.44171 39.1368 7.57817 32.5502C7.71463 25.9635 10.392 19.6846 15.0504 15.0261C19.7089 10.3677 25.9878 7.69035 32.5745 7.55388C39.1611 7.41742 45.5455 9.8324 50.3929 14.2939L42.1338 22.552C42.0349 22.6508 41.9564 22.7681 41.9029 22.8973C41.8494 23.0264 41.8218 23.1648 41.8218 23.3046C41.8218 23.4444 41.8494 23.5828 41.9029 23.712C41.9564 23.8411 42.0349 23.9584 42.1338 24.0572ZM62.8934 38.4022H55.6214C55.3888 38.4021 55.1627 38.4782 54.9775 38.6188C54.7923 38.7594 54.6582 38.9569 54.5959 39.1809C54.1287 40.8496 53.4641 42.4566 52.6162 43.9679C52.5019 44.1707 52.4573 44.4054 52.4892 44.636C52.5211 44.8665 52.6278 45.0803 52.7928 45.2444L57.9298 50.3825L50.4089 57.9034L45.2709 52.7664C45.1067 52.6013 44.893 52.4947 44.6624 52.4628C44.4318 52.4309 44.1971 52.4755 43.9943 52.5898C42.483 53.4376 40.876 54.1022 39.2073 54.5695C38.9833 54.6318 38.7859 54.7658 38.6452 54.951C38.5046 55.1362 38.4285 55.3624 38.4287 55.595V62.8691H27.7888V55.5971C27.7889 55.3646 27.7128 55.1384 27.5722 54.9532C27.4316 54.768 27.2341 54.6339 27.0101 54.5716C25.3414 54.1044 23.7344 53.4398 22.2231 52.5919C22.0203 52.4777 21.7856 52.433 21.5551 52.4649C21.3245 52.4968 21.1107 52.6035 20.9466 52.7685L15.8085 57.9055L12.8002 54.8971L23.3582 44.3402C26.2046 46.8045 29.8787 48.0993 33.6412 47.964C37.4037 47.8287 40.9753 46.2734 43.6374 43.611C46.2994 40.9487 47.8544 37.3769 47.9893 33.6144C48.1242 29.8519 46.8291 26.1779 44.3645 23.3317L54.9214 12.7738L57.9298 15.7821L52.7928 20.9202C52.6278 21.0843 52.5211 21.2981 52.4892 21.5286C52.4573 21.7592 52.5019 21.9939 52.6162 22.1967C53.4642 23.7079 54.1288 25.3149 54.5959 26.9837C54.6582 27.2077 54.7923 27.4052 54.9775 27.5458C55.1627 27.6864 55.3888 27.7625 55.6214 27.7624H62.8934V38.4022Z" fill="#047BDC"></path><path d="M34.1689 28.9793V17.1268C34.1689 16.8446 34.0568 16.5741 33.8573 16.3746C33.6579 16.1751 33.3873 16.063 33.1051 16.063C32.823 16.063 32.5524 16.1751 32.3529 16.3746C32.1534 16.5741 32.0414 16.8446 32.0414 17.1268V28.9793C31.3103 29.1705 30.6433 29.5529 30.109 30.0872C29.5747 30.6216 29.1923 31.2885 29.0011 32.0196H21.4036C21.1215 32.0196 20.8509 32.1317 20.6514 32.3312C20.4519 32.5307 20.3398 32.8013 20.3398 33.0834C20.3398 33.3655 20.4519 33.6361 20.6514 33.8356C20.8509 34.0351 21.1215 34.1472 21.4036 34.1472H29.0011C29.1871 34.8731 29.5619 35.5368 30.0874 36.0711C30.613 36.6053 31.2705 36.9909 31.9932 37.1888C32.716 37.3867 33.4783 37.3899 34.2026 37.1979C34.927 37.0059 35.5877 36.6257 36.1176 36.0958C36.6474 35.5659 37.0277 34.9053 37.2197 34.1809C37.4116 33.4565 37.4085 32.6943 37.2106 31.9715C37.0127 31.2487 36.627 30.5912 36.0928 30.0657C35.5586 29.5402 34.8948 29.1654 34.1689 28.9793ZM33.1051 35.2109C32.6844 35.2109 32.273 35.0862 31.9231 34.8524C31.5733 34.6186 31.3006 34.2863 31.1395 33.8976C30.9785 33.5088 30.9364 33.081 31.0185 32.6683C31.1006 32.2556 31.3032 31.8765 31.6007 31.579C31.8983 31.2814 32.2774 31.0788 32.6901 30.9967C33.1028 30.9146 33.5306 30.9568 33.9193 31.1178C34.3081 31.2788 34.6404 31.5515 34.8741 31.9014C35.1079 32.2513 35.2327 32.6626 35.2327 33.0834C35.2327 33.6476 35.0085 34.1888 34.6095 34.5878C34.2106 34.9868 33.6694 35.2109 33.1051 35.2109Z" fill="#047BDC"></path><path d="M33.1067 12.8717C32.8246 12.8717 32.554 12.7596 32.3545 12.5601C32.155 12.3606 32.043 12.09 32.043 11.8079V9.68035C32.043 9.39822 32.155 9.12765 32.3545 8.92815C32.554 8.72865 32.8246 8.61658 33.1067 8.61658C33.3889 8.61658 33.6595 8.72865 33.8589 8.92815C34.0584 9.12765 34.1705 9.39822 34.1705 9.68035V11.8079C34.1705 12.09 34.0584 12.3606 33.8589 12.5601C33.6595 12.7596 33.3889 12.8717 33.1067 12.8717Z" fill="#047BDC"></path><path d="M43.7463 15.7227C43.5596 15.7225 43.3763 15.6732 43.2148 15.5797C43.0532 15.4863 42.9191 15.352 42.8258 15.1903C42.7326 15.0286 42.6835 14.8452 42.6836 14.6586C42.6836 14.472 42.7328 14.2886 42.8261 14.127L43.8899 12.2835C44.032 12.0411 44.2641 11.8648 44.5357 11.793C44.8073 11.7212 45.0962 11.7598 45.3395 11.9002C45.5828 12.0407 45.7606 12.2717 45.8342 12.5428C45.9078 12.8138 45.8712 13.103 45.7323 13.3472L44.6686 15.1908C44.5751 15.3526 44.4407 15.487 44.2788 15.5804C44.1168 15.6738 43.9332 15.7228 43.7463 15.7227Z" fill="#047BDC"></path><path d="M22.4688 15.7227C22.2819 15.7228 22.0983 15.6738 21.9364 15.5804C21.7745 15.487 21.64 15.3526 21.5465 15.1908L20.4828 13.3472C20.3439 13.103 20.3073 12.8138 20.3809 12.5428C20.4545 12.2717 20.6324 12.0407 20.8756 11.9002C21.1189 11.7598 21.4079 11.7212 21.6794 11.793C21.951 11.8648 22.1832 12.0411 22.3252 12.2835L23.389 14.127C23.4823 14.2886 23.5315 14.472 23.5315 14.6586C23.5316 14.8452 23.4825 15.0286 23.3893 15.1903C23.296 15.352 23.1619 15.4863 23.0003 15.5797C22.8388 15.6732 22.6555 15.7225 22.4688 15.7227Z" fill="#047BDC"></path><path d="M14.6824 23.5095C14.4957 23.5098 14.3121 23.4607 14.1506 23.3669L12.307 22.3031C12.0647 22.1611 11.8884 21.9289 11.8166 21.6573C11.7448 21.3858 11.7833 21.0968 11.9238 20.8535C12.0642 20.6103 12.2952 20.4324 12.5663 20.3588C12.8374 20.2852 13.1266 20.3218 13.3708 20.4607L15.2143 21.5245C15.4171 21.6415 15.5756 21.8223 15.6652 22.0386C15.7548 22.255 15.7705 22.4948 15.7099 22.721C15.6493 22.9472 15.5158 23.1471 15.33 23.2896C15.1442 23.4322 14.9166 23.5094 14.6824 23.5095Z" fill="#047BDC"></path><path d="M11.8319 34.1472H9.7044C9.42227 34.1472 9.15169 34.0351 8.9522 33.8356C8.7527 33.6361 8.64062 33.3656 8.64062 33.0834C8.64062 32.8013 8.7527 32.5307 8.9522 32.3312C9.15169 32.1317 9.42227 32.0197 9.7044 32.0197H11.8319C12.1141 32.0197 12.3847 32.1317 12.5842 32.3312C12.7836 32.5307 12.8957 32.8013 12.8957 33.0834C12.8957 33.3656 12.7836 33.6361 12.5842 33.8356C12.3847 34.0351 12.1141 34.1472 11.8319 34.1472Z" fill="#047BDC"></path><path d="M12.8411 45.8487C12.6069 45.8487 12.3793 45.7714 12.1935 45.6288C12.0077 45.4863 11.8742 45.2864 11.8136 45.0602C11.753 44.834 11.7687 44.5942 11.8583 44.3778C11.9479 44.1615 12.1064 43.9807 12.3092 43.8637L14.1527 42.7999C14.2737 42.7289 14.4076 42.6826 14.5466 42.6636C14.6856 42.6446 14.827 42.6533 14.9626 42.6891C15.0982 42.725 15.2254 42.7873 15.3369 42.8726C15.4483 42.9578 15.5418 43.0642 15.612 43.1857C15.6821 43.3072 15.7275 43.4414 15.7456 43.5805C15.7637 43.7196 15.7541 43.8609 15.7173 43.9963C15.6806 44.1317 15.6174 44.2585 15.5314 44.3694C15.4455 44.4802 15.3384 44.573 15.2165 44.6423L13.373 45.7061C13.2114 45.7999 13.0279 45.8491 12.8411 45.8487Z" fill="#047BDC"></path><path d="M33.108 43.7212C31.7105 43.7251 30.3261 43.4512 29.0353 42.9154C27.7446 42.3796 26.5732 41.5926 25.5893 40.6001C25.4878 40.5018 25.4069 40.3843 25.3514 40.2545C25.2958 40.1246 25.2667 39.985 25.2657 39.8438C25.2646 39.7025 25.2917 39.5625 25.3454 39.4318C25.3991 39.3012 25.4782 39.1825 25.5783 39.0828C25.6783 38.983 25.7972 38.9042 25.928 38.8509C26.0588 38.7976 26.1989 38.7709 26.3401 38.7723C26.4814 38.7737 26.6209 38.8033 26.7506 38.8592C26.8803 38.9151 26.9976 38.9963 27.0956 39.0981C27.8822 39.9016 28.8204 40.5411 29.8558 40.9797C30.8912 41.4183 32.0033 41.6472 33.1278 41.6532C34.2522 41.6591 35.3667 41.4421 36.4067 41.0145C37.4468 40.5869 38.3917 39.9574 39.1868 39.1623C39.9819 38.3671 40.6115 37.4222 41.039 36.3822C41.4666 35.3422 41.6837 34.2277 41.6777 33.1032C41.6717 31.9788 41.4428 30.8667 41.0043 29.8313C40.5657 28.7958 39.9261 27.8577 39.1226 27.071C39.0209 26.973 38.9397 26.8558 38.8837 26.7261C38.8278 26.5964 38.7983 26.4568 38.7969 26.3156C38.7954 26.1743 38.8222 26.0342 38.8755 25.9034C38.9288 25.7726 39.0076 25.6537 39.1073 25.5537C39.2071 25.4537 39.3257 25.3746 39.4564 25.3209C39.587 25.2672 39.727 25.2401 39.8683 25.2411C40.0095 25.2421 40.1492 25.2713 40.279 25.3268C40.4089 25.3824 40.5264 25.4633 40.6247 25.5647C42.1109 27.0523 43.123 28.947 43.533 31.0094C43.943 33.0719 43.7325 35.2096 42.9281 37.1525C42.1238 39.0954 40.7617 40.7563 39.0138 41.9255C37.266 43.0946 35.2108 43.7195 33.108 43.7212Z" fill="#047BDC"></path></svg>