<svg xmlns="http://www.w3.org/2000/svg" width="61" height="55" viewBox="0 0 61 55" fill="none"><path d="M30.2592 15.7727C32.1753 15.7727 34.0116 14.8071 35.4297 13.0544C36.7249 11.4538 37.4676 9.43499 37.4676 7.51376C37.4676 3.64344 34.369 0.724854 30.2592 0.724854C26.1493 0.724854 23.0508 3.63964 23.0508 7.51376C23.0508 9.43499 23.7934 11.4538 25.0886 13.0544C26.5067 14.8083 28.343 15.7727 30.2592 15.7727ZM30.2592 2.81589C33.2246 2.81589 35.3765 4.79161 35.3765 7.51376C35.3765 10.9355 32.5771 13.6817 30.2592 13.6817C27.4242 13.6817 25.1418 10.3069 25.1418 7.51376C25.1418 4.79668 27.2937 2.81589 30.2592 2.81589Z" fill="#048DEF"></path><path d="M21.7285 25.8072L20.9948 36.2738C20.9851 36.4107 21.0025 36.5483 21.046 36.6785C21.0895 36.8087 21.1582 36.9291 21.2483 37.0328C21.3383 37.1365 21.4479 37.2214 21.5707 37.2827C21.6936 37.3441 21.8273 37.3806 21.9643 37.3903H22.0378C22.3023 37.39 22.5568 37.2896 22.7503 37.1093C22.9438 36.9289 23.0619 36.682 23.0807 36.4182L23.8145 25.9605C23.8242 25.8235 23.8067 25.686 23.7632 25.5558C23.7198 25.4255 23.651 25.3052 23.561 25.2015C23.471 25.0978 23.3614 25.0129 23.2386 24.9515C23.1157 24.8902 22.982 24.8537 22.845 24.844C22.7081 24.8344 22.5705 24.8518 22.4403 24.8953C22.3101 24.9388 22.1897 25.0075 22.086 25.0975C21.9823 25.1876 21.8974 25.2971 21.8361 25.42C21.7747 25.5428 21.7382 25.6765 21.7285 25.8135V25.8072Z" fill="#048DEF"></path><path d="M44.438 37.389C44.7217 37.3638 44.9839 37.2273 45.167 37.0092C45.3502 36.7911 45.4394 36.5093 45.4151 36.2256C45.4151 36.2256 44.3101 28.3012 44.1478 25.6424C43.8475 20.8685 40.9314 17.0387 36.3755 16.3417C34.7736 16.0958 31.8639 15.9108 30.3432 15.9095C28.2672 15.9455 26.1945 16.0889 24.1334 16.3392C21.9966 16.6317 20.0395 17.6927 18.6283 19.3236C17.1455 21.0358 16.4827 23.2244 16.3471 25.6475C16.1951 28.3088 15.1876 36.237 15.1876 36.237C15.1706 36.3744 15.1811 36.5139 15.2185 36.6472C15.2558 36.7806 15.3193 36.9052 15.4053 37.0138C15.4912 37.1224 15.5978 37.2129 15.719 37.2799C15.8402 37.347 15.9735 37.3893 16.1111 37.4044C16.2488 37.4195 16.3881 37.4071 16.5209 37.368C16.6538 37.3288 16.7775 37.2636 16.8849 37.1762C16.9924 37.0888 17.0814 36.981 17.1468 36.8589C17.2122 36.7368 17.2527 36.603 17.2659 36.4651C17.2659 36.4651 18.2886 28.4507 18.4344 25.7628C18.6422 21.9533 20.8967 18.8915 24.4186 18.4125C26.3842 18.1737 28.3609 18.0367 30.3406 18.0019C31.7575 18.0019 34.5696 18.1818 36.0574 18.4099C37.6932 18.6575 39.1888 19.4754 40.28 20.7189C41.4409 22.0521 41.944 23.8428 42.0543 25.7691C42.2152 28.4609 43.338 36.4765 43.338 36.4765C43.3787 36.7365 43.5129 36.9728 43.7155 37.1408C43.918 37.3088 44.175 37.3971 44.438 37.389Z" fill="#048DEF"></path><path d="M37.6418 24.8377C37.5041 24.8472 37.3697 24.8838 37.2463 24.9455C37.1228 25.0072 37.0128 25.0926 36.9226 25.197C36.8323 25.3014 36.7636 25.4226 36.7205 25.5536C36.6773 25.6847 36.6605 25.823 36.671 25.9606L37.406 36.4259C37.4243 36.6898 37.542 36.937 37.7353 37.1176C37.9286 37.2983 38.1832 37.3989 38.4478 37.3992H38.5225C38.799 37.3794 39.0564 37.2507 39.2381 37.0414C39.4199 36.8321 39.5112 36.5592 39.492 36.2827L38.757 25.8161C38.7481 25.6786 38.7122 25.5442 38.6514 25.4206C38.5905 25.2969 38.5058 25.1865 38.4023 25.0957C38.2987 25.0048 38.1782 24.9352 38.0477 24.891C37.9172 24.8467 37.7793 24.8286 37.6418 24.8377Z" fill="#048DEF"></path><path d="M36.9289 46.8558L41.9576 41.9539C42.0972 41.8177 42.1959 41.6452 42.2427 41.4558C42.2894 41.2665 42.2822 41.0679 42.222 40.8824C42.1617 40.6969 42.0508 40.5319 41.9017 40.4062C41.7527 40.2804 41.5714 40.1989 41.3784 40.1708L34.4298 39.1569L31.3224 32.8648C31.2361 32.6897 31.1025 32.5423 30.9368 32.4392C30.7711 32.3361 30.5798 32.2815 30.3846 32.2815C30.1894 32.2815 29.9981 32.3361 29.8324 32.4392C29.6667 32.5423 29.5331 32.6897 29.4468 32.8648L26.3394 39.1607L19.3908 40.1746C19.1978 40.2027 19.0165 40.2842 18.8675 40.41C18.7184 40.5357 18.6075 40.7007 18.5472 40.8862C18.487 41.0717 18.4798 41.2703 18.5265 41.4596C18.5733 41.649 18.672 41.8215 18.8116 41.9577L23.8403 46.8596L22.6541 53.7752C22.6205 53.968 22.6417 54.1664 22.7153 54.3477C22.7889 54.5291 22.912 54.6861 23.0704 54.801C23.2289 54.9159 23.4164 54.984 23.6116 54.9976C23.8069 55.0111 24.002 54.9696 24.1748 54.8777L30.3846 51.6107L36.5944 54.8777C36.7445 54.9564 36.9115 54.9977 37.081 54.9981C37.2332 54.9979 37.3836 54.9645 37.5216 54.9002C37.6596 54.8359 37.7819 54.7422 37.88 54.6258C37.9781 54.5094 38.0496 54.3729 38.0896 54.226C38.1295 54.0791 38.1369 53.9253 38.1113 53.7752L36.9289 46.8558ZM29.898 49.5044C28.6839 50.1228 25.0721 52.039 25.0721 52.039L25.9934 46.6644C26.0221 46.4974 26.0097 46.3259 25.9574 46.1648C25.9051 46.0036 25.8143 45.8576 25.6931 45.7393L21.7885 41.9374L27.1847 41.1529C27.3523 41.1284 27.5115 41.0637 27.6486 40.9641C27.7857 40.8645 27.8965 40.7332 27.9717 40.5814L30.3795 35.6909L32.7874 40.5814C32.8625 40.7332 32.9734 40.8645 33.1105 40.9641C33.2476 41.0637 33.4067 41.1284 33.5744 41.1529L38.9705 41.9374L35.066 45.7393C34.9447 45.8576 34.854 46.0036 34.8017 46.1648C34.7494 46.3259 34.737 46.4974 34.7656 46.6644L35.687 52.039C35.687 52.039 32.0752 50.1203 30.8611 49.5044C30.7132 49.4245 30.5477 49.3827 30.3795 49.3827C30.2114 49.3827 30.0459 49.4245 29.898 49.5044Z" fill="#048DEF"></path><path d="M59.1076 43.3491L54.027 42.6103L51.7547 38.0074C51.6686 37.8323 51.5352 37.6848 51.3696 37.5817C51.2039 37.4785 51.0127 37.4238 50.8175 37.4238C50.6224 37.4238 50.4312 37.4785 50.2655 37.5817C50.0999 37.6848 49.9665 37.8323 49.8804 38.0074L47.6081 42.6103L42.5275 43.3491C42.3345 43.3772 42.1533 43.4588 42.0042 43.5845C41.8551 43.7103 41.7442 43.8752 41.684 44.0607C41.6237 44.2462 41.6165 44.4448 41.6633 44.6342C41.71 44.8235 41.8087 44.996 41.9484 45.1322L45.6235 48.7161L44.7554 53.7752C44.7218 53.968 44.7431 54.1663 44.8167 54.3477C44.8903 54.529 45.0133 54.6861 45.1718 54.801C45.3302 54.9158 45.5177 54.9839 45.713 54.9975C45.9082 55.0111 46.1034 54.9696 46.2762 54.8777L50.8194 52.4888L55.364 54.8777C55.5142 54.9563 55.6811 54.9976 55.8506 54.9981C56.0029 54.9979 56.1532 54.9644 56.2912 54.9001C56.4292 54.8358 56.5515 54.7422 56.6496 54.6258C56.7477 54.5093 56.8192 54.3729 56.8592 54.226C56.8991 54.0791 56.9065 53.9252 56.8809 53.7752L56.0128 48.7161L59.688 45.1322C59.8276 44.996 59.9264 44.8235 59.9731 44.6342C60.0198 44.4448 60.0126 44.2462 59.9524 44.0607C59.8921 43.8752 59.7812 43.7103 59.6322 43.5845C59.4831 43.4588 59.3018 43.3772 59.1088 43.3491H59.1076ZM50.3315 50.3826C49.5344 50.7831 47.1747 52.0415 47.1747 52.0415L47.7779 48.5273C47.8066 48.3603 47.7942 48.1888 47.7419 48.0277C47.6896 47.8665 47.5989 47.7205 47.4776 47.6021L44.924 45.1132L48.4521 44.6063C48.62 44.582 48.7794 44.5171 48.9165 44.4173C49.0537 44.3175 49.1644 44.1857 49.2391 44.0334L50.8169 40.8373L52.3947 44.0334C52.4699 44.1856 52.5809 44.3173 52.7182 44.417C52.8555 44.5168 53.015 44.5817 53.1829 44.6063L56.7098 45.1132L54.1575 47.6021C54.036 47.7203 53.9452 47.8664 53.8929 48.0276C53.8405 48.1888 53.8283 48.3603 53.8572 48.5273L54.4655 52.0415C54.4655 52.0415 52.107 50.7831 51.3099 50.3826C51.1595 50.3016 50.9915 50.2592 50.8207 50.2592C50.6499 50.2592 50.4819 50.3016 50.3315 50.3826Z" fill="#048DEF"></path><path d="M18.2443 43.3491L13.1637 42.6103L10.8914 38.0074C10.8053 37.8323 10.6719 37.6848 10.5063 37.5817C10.3406 37.4785 10.1494 37.4238 9.95426 37.4238C9.75912 37.4238 9.56788 37.4785 9.40224 37.5817C9.2366 37.6848 9.10317 37.8323 9.01709 38.0074L6.74483 42.6103L1.66424 43.3491C1.47125 43.3772 1.28998 43.4588 1.14091 43.5845C0.991842 43.7103 0.880916 43.8752 0.820669 44.0607C0.760422 44.2462 0.753257 44.4448 0.799982 44.6342C0.846707 44.8235 0.945459 44.996 1.08508 45.1322L4.76024 48.7161L3.89848 53.7752C3.86491 53.968 3.88613 54.1663 3.95973 54.3477C4.03333 54.529 4.15636 54.6861 4.31482 54.801C4.47327 54.9158 4.66079 54.9839 4.85604 54.9975C5.05128 55.0111 5.24642 54.9696 5.41924 54.8777L9.96376 52.4888L14.507 54.8777C14.6572 54.9563 14.8241 54.9976 14.9937 54.9981C15.1459 54.9979 15.2963 54.9644 15.4343 54.9001C15.5723 54.8358 15.6946 54.7422 15.7927 54.6258C15.8908 54.5093 15.9623 54.3729 16.0022 54.226C16.0422 54.0791 16.0496 53.9252 16.024 53.7752L15.1559 48.7161L18.831 45.1322C18.9707 44.996 19.0694 44.8235 19.1161 44.6342C19.1629 44.4448 19.1557 44.2462 19.0955 44.0607C19.0352 43.8752 18.9243 43.7103 18.7752 43.5845C18.6261 43.4588 18.4449 43.3772 18.2519 43.3491H18.2443ZM9.47459 50.3826L6.31268 52.0415L6.91465 48.5273C6.94351 48.3603 6.93125 48.1888 6.87892 48.0276C6.82658 47.8664 6.73576 47.7203 6.6143 47.6021L4.06196 45.1132L7.58885 44.6063C7.7568 44.5817 7.91629 44.5168 8.05359 44.417C8.1909 44.3173 8.30192 44.1856 8.37711 44.0334L9.95489 40.8373L11.5327 44.0334C11.6074 44.1857 11.7181 44.3175 11.8552 44.4173C11.9924 44.5171 12.1518 44.582 12.3197 44.6063L15.8478 45.1132L13.2942 47.6021C13.1729 47.7205 13.0822 47.8665 13.0299 48.0277C12.9776 48.1888 12.9652 48.3603 12.9939 48.5273L13.5971 52.0415L10.4403 50.3826C10.2949 50.2937 10.1278 50.2466 9.95743 50.2466C9.78703 50.2466 9.61994 50.2937 9.47459 50.3826Z" fill="#048DEF"></path></svg>