<svg xmlns="http://www.w3.org/2000/svg" width="71" height="65" viewBox="0 0 71 65" fill="none"><path d="M35.2396 17.8204C37.5088 17.8204 39.6835 16.6768 41.3629 14.6012C42.8967 12.7057 43.7761 10.3149 43.7761 8.03974C43.7761 3.45632 40.1067 0 35.2396 0C30.3726 0 26.7031 3.45182 26.7031 8.03974C26.7031 10.3149 27.5826 12.7057 29.1164 14.6012C30.7958 16.6783 32.9704 17.8204 35.2396 17.8204ZM35.2396 2.47631C38.7515 2.47631 41.2998 4.81604 41.2998 8.03974C41.2998 12.0919 37.9846 15.3441 35.2396 15.3441C31.8824 15.3441 29.1794 11.3475 29.1794 8.03974C29.1794 4.82204 31.7278 2.47631 35.2396 2.47631Z" fill="#048DEF"></path><path d="M25.1377 29.7036L24.2687 42.0986C24.2573 42.2608 24.2779 42.4237 24.3294 42.5779C24.3809 42.7322 24.4623 42.8748 24.5689 42.9975C24.6755 43.1203 24.8053 43.2209 24.9507 43.2935C25.0962 43.3662 25.2546 43.4094 25.4168 43.4208H25.5038C25.8171 43.4205 26.1185 43.3016 26.3477 43.0881C26.5768 42.8745 26.7166 42.5821 26.739 42.2697L27.608 29.8852C27.6194 29.723 27.5988 29.5601 27.5472 29.4059C27.4957 29.2517 27.4144 29.1091 27.3077 28.9863C27.2011 28.8635 27.0714 28.763 26.9259 28.6903C26.7804 28.6177 26.6221 28.5744 26.4598 28.563C26.2976 28.5516 26.1348 28.5722 25.9806 28.6237C25.8263 28.6752 25.6837 28.7566 25.561 28.8632C25.4382 28.9698 25.3376 29.0996 25.265 29.2451C25.1923 29.3905 25.1491 29.5489 25.1377 29.7111V29.7036Z" fill="#048DEF"></path><path d="M52.0397 43.4193C52.3757 43.3896 52.6861 43.2278 52.903 42.9696C53.1199 42.7113 53.2256 42.3776 53.1968 42.0416C53.1968 42.0416 51.8881 32.6572 51.696 29.5085C51.3404 23.855 47.887 19.3196 42.4917 18.4942C40.5947 18.203 37.1489 17.9839 35.3479 17.9824C32.8895 18.025 30.4349 18.1948 27.994 18.4912C25.4635 18.8376 23.1459 20.0941 21.4746 22.0256C19.7187 24.0531 18.9338 26.645 18.7732 29.5145C18.5931 32.6662 17.4 42.0551 17.4 42.0551C17.3799 42.2179 17.3923 42.383 17.4365 42.541C17.4808 42.6989 17.556 42.8464 17.6578 42.9751C17.7595 43.1037 17.8858 43.2108 18.0293 43.2902C18.1728 43.3696 18.3307 43.4197 18.4937 43.4376C18.6567 43.4555 18.8217 43.4408 18.979 43.3945C19.1363 43.3481 19.2828 43.2709 19.4101 43.1674C19.5373 43.0639 19.6427 42.9362 19.7202 42.7916C19.7976 42.647 19.8456 42.4885 19.8613 42.3253C19.8613 42.3253 21.0724 32.8343 21.245 29.6511C21.4911 25.1397 24.161 21.5138 28.3317 20.9465C30.6595 20.6638 33.0004 20.5015 35.3449 20.4602C37.0228 20.4602 40.3531 20.6733 42.115 20.9435C44.0522 21.2367 45.8234 22.2052 47.1156 23.6779C48.4904 25.2568 49.0862 27.3774 49.2167 29.6586C49.4073 32.8463 50.737 42.3388 50.737 42.3388C50.7852 42.6467 50.9441 42.9264 51.184 43.1254C51.4239 43.3244 51.7282 43.4289 52.0397 43.4193Z" fill="#048DEF"></path><path d="M43.9892 28.5556C43.8261 28.5668 43.667 28.6101 43.5208 28.6832C43.3746 28.7562 43.2443 28.8574 43.1375 28.981C43.0306 29.1046 42.9492 29.2482 42.8981 29.4034C42.847 29.5586 42.8271 29.7224 42.8395 29.8853L43.71 42.2788C43.7316 42.5914 43.871 42.8841 44.0999 43.098C44.3288 43.3119 44.6304 43.431 44.9437 43.4314H45.0322C45.3596 43.408 45.6644 43.2556 45.8796 43.0077C46.0949 42.7598 46.203 42.4367 46.1803 42.1092L45.3098 29.7142C45.2994 29.5513 45.2568 29.3922 45.1848 29.2458C45.1127 29.0994 45.0124 28.9686 44.8898 28.861C44.7671 28.7534 44.6244 28.671 44.4699 28.6186C44.3153 28.5662 44.152 28.5448 43.9892 28.5556Z" fill="#048DEF"></path><path d="M43.1415 54.6304L49.0966 48.8253C49.262 48.6641 49.3789 48.4598 49.4343 48.2355C49.4896 48.0113 49.4811 47.7761 49.4098 47.5564C49.3384 47.3367 49.2071 47.1414 49.0305 46.9925C48.854 46.8436 48.6393 46.747 48.4108 46.7137L40.1819 45.5131L36.502 38.0616C36.3998 37.8543 36.2416 37.6797 36.0454 37.5576C35.8491 37.4356 35.6226 37.3708 35.3914 37.3708C35.1603 37.3708 34.9337 37.4356 34.7375 37.5576C34.5412 37.6797 34.383 37.8543 34.2808 38.0616L30.6009 45.5176L22.372 46.7182C22.1435 46.7515 21.9288 46.8481 21.7523 46.997C21.5758 47.1459 21.4444 47.3412 21.3731 47.5609C21.3017 47.7806 21.2932 48.0158 21.3486 48.24C21.4039 48.4643 21.5208 48.6686 21.6862 48.8298L27.6413 54.6349L26.2366 62.8247C26.1968 63.053 26.222 63.2879 26.3091 63.5027C26.3963 63.7175 26.542 63.9035 26.7296 64.0395C26.9173 64.1755 27.1393 64.2562 27.3706 64.2723C27.6018 64.2883 27.8329 64.2392 28.0375 64.1304L35.3914 60.2613L42.7453 64.1304C42.9232 64.2235 43.1208 64.2724 43.3216 64.2729C43.5019 64.2727 43.68 64.2331 43.8434 64.1569C44.0068 64.0808 44.1516 63.9699 44.2678 63.832C44.384 63.6941 44.4687 63.5326 44.516 63.3586C44.5633 63.1846 44.5721 63.0024 44.5417 62.8247L43.1415 54.6304ZM34.8151 57.767C33.3774 58.4994 29.1001 60.7686 29.1001 60.7686L30.1912 54.4037C30.2251 54.206 30.2105 54.0029 30.1485 53.8121C30.0865 53.6212 29.9791 53.4483 29.8355 53.3082L25.2115 48.8058L31.6019 47.8768C31.8004 47.8478 31.989 47.7711 32.1513 47.6532C32.3136 47.5353 32.4449 47.3798 32.5339 47.1999L35.3854 41.4084L38.2369 47.1999C38.3259 47.3798 38.4572 47.5353 38.6195 47.6532C38.7819 47.7711 38.9704 47.8478 39.1689 47.8768L45.5593 48.8058L40.9353 53.3082C40.7917 53.4483 40.6843 53.6212 40.6223 53.8121C40.5604 54.0029 40.5457 54.206 40.5797 54.4037L41.6707 60.7686C41.6707 60.7686 37.3935 58.4964 35.9557 57.767C35.7805 57.6724 35.5845 57.6229 35.3854 57.6229C35.1863 57.6229 34.9903 57.6724 34.8151 57.767Z" fill="#048DEF"></path><path d="M69.4053 50.4776L63.3887 49.6026L60.6977 44.1517C60.5958 43.9443 60.4378 43.7696 60.2416 43.6475C60.0455 43.5253 59.819 43.4606 59.5879 43.4606C59.3568 43.4606 59.1304 43.5253 58.9342 43.6475C58.738 43.7696 58.58 43.9443 58.4781 44.1517L55.7872 49.6026L49.7705 50.4776C49.5419 50.5109 49.3273 50.6074 49.1507 50.7564C48.9742 50.9053 48.8428 51.1006 48.7715 51.3203C48.7002 51.5399 48.6917 51.7752 48.747 51.9994C48.8023 52.2236 48.9193 52.4279 49.0846 52.5892L53.4369 56.8334L52.4089 62.8246C52.3691 63.0529 52.3942 63.2878 52.4814 63.5026C52.5686 63.7174 52.7143 63.9033 52.9019 64.0394C53.0896 64.1754 53.3116 64.2561 53.5429 64.2721C53.7741 64.2882 54.0052 64.239 54.2098 64.1303L59.5902 61.3013L64.972 64.1303C65.1499 64.2234 65.3475 64.2723 65.5483 64.2728C65.7286 64.2726 65.9067 64.233 66.0701 64.1568C66.2335 64.0807 66.3784 63.9698 66.4945 63.8319C66.6107 63.694 66.6954 63.5324 66.7427 63.3585C66.79 63.1845 66.7988 63.0023 66.7685 62.8246L65.7404 56.8334L70.0927 52.5892C70.258 52.4279 70.375 52.2236 70.4303 51.9994C70.4857 51.7752 70.4772 51.5399 70.4058 51.3203C70.3345 51.1006 70.2031 50.9053 70.0266 50.7564C69.8501 50.6074 69.6354 50.5109 69.4068 50.4776H69.4053ZM59.0124 58.8069C58.0684 59.2812 55.2739 60.7715 55.2739 60.7715L55.9883 56.6098C56.0222 56.412 56.0075 56.209 55.9456 56.0181C55.8836 55.8273 55.7762 55.6543 55.6326 55.5142L52.6085 52.5667L56.7867 51.9663C56.9855 51.9376 57.1743 51.8608 57.3367 51.7426C57.4991 51.6243 57.6302 51.4683 57.7187 51.288L59.5872 47.503L61.4557 51.288C61.5447 51.4682 61.6762 51.6241 61.8388 51.7422C62.0014 51.8604 62.1902 51.9373 62.3891 51.9663L66.5658 52.5667L63.5433 55.5142C63.3994 55.6542 63.2919 55.8271 63.2299 56.018C63.1679 56.2089 63.1534 56.412 63.1876 56.6098L63.9079 60.7715C63.9079 60.7715 61.115 59.2812 60.171 58.8069C59.9929 58.7111 59.7939 58.6609 59.5917 58.6609C59.3894 58.6609 59.1904 58.7111 59.0124 58.8069Z" fill="#048DEF"></path><path d="M21.0147 50.4776L14.998 49.6026L12.3071 44.1517C12.2052 43.9443 12.0472 43.7696 11.851 43.6475C11.6549 43.5253 11.4284 43.4606 11.1973 43.4606C10.9662 43.4606 10.7397 43.5253 10.5436 43.6475C10.3474 43.7696 10.1894 43.9443 10.0875 44.1517L7.39653 49.6026L1.37986 50.4776C1.15132 50.5109 0.936652 50.6074 0.760117 50.7564C0.583583 50.9053 0.452219 51.1006 0.380872 51.3203C0.309525 51.5399 0.301039 51.7752 0.356373 51.9994C0.411707 52.2236 0.528655 52.4279 0.694 52.5892L5.0463 56.8334L4.02576 62.8246C3.986 63.0529 4.01113 63.2878 4.09829 63.5026C4.18546 63.7174 4.33115 63.9033 4.5188 64.0394C4.70645 64.1754 4.92852 64.2561 5.15974 64.2721C5.39096 64.2882 5.62205 64.239 5.82671 64.1303L11.2085 61.3013L16.5889 64.1303C16.7668 64.2234 16.9644 64.2723 17.1652 64.2728C17.3455 64.2726 17.5235 64.233 17.687 64.1568C17.8504 64.0807 17.9952 63.9698 18.1114 63.8319C18.2276 63.694 18.3123 63.5324 18.3596 63.3585C18.4069 63.1845 18.4157 63.0023 18.3853 62.8246L17.3573 56.8334L21.7096 52.5892C21.8749 52.4279 21.9919 52.2236 22.0472 51.9994C22.1025 51.7752 22.0941 51.5399 22.0227 51.3203C21.9514 51.1006 21.82 50.9053 21.6435 50.7564C21.4669 50.6074 21.2523 50.5109 21.0237 50.4776H21.0147ZM10.6292 58.8069L6.88477 60.7715L7.59764 56.6098C7.63183 56.412 7.6173 56.2089 7.55533 56.018C7.49335 55.8271 7.38579 55.6542 7.24195 55.5142L4.21936 52.5667L8.39606 51.9663C8.59496 51.9373 8.78383 51.8604 8.94644 51.7422C9.10904 51.6241 9.24052 51.4682 9.32955 51.288L11.198 47.503L13.0665 51.288C13.155 51.4683 13.2861 51.6243 13.4485 51.7426C13.6109 51.8608 13.7997 51.9376 13.9985 51.9663L18.1767 52.5667L15.1526 55.5142C15.009 55.6543 14.9016 55.8273 14.8396 56.0181C14.7777 56.209 14.763 56.412 14.7969 56.6098L15.5113 60.7715L11.7728 58.8069C11.6007 58.7016 11.4028 58.6459 11.201 58.6459C10.9992 58.6459 10.8014 58.7016 10.6292 58.8069Z" fill="#048DEF"></path></svg>