<svg xmlns="http://www.w3.org/2000/svg" width="60" height="55" viewBox="0 0 60 55" fill="none"><path d="M29.4896 15.0479C31.4058 15.0479 33.2421 14.0822 34.6602 12.3295C35.9554 10.7289 36.698 8.71013 36.698 6.78891C36.698 2.91858 33.5995 0 29.4896 0C25.3798 0 22.2812 2.91478 22.2812 6.78891C22.2812 8.71013 23.0239 10.7289 24.3191 12.3295C25.7372 14.0835 27.5735 15.0479 29.4896 15.0479ZM29.4896 2.09104C32.4551 2.09104 34.607 4.06676 34.607 6.78891C34.607 10.2106 31.8075 12.9568 29.4896 12.9568C26.6547 12.9568 24.3723 9.58203 24.3723 6.78891C24.3723 4.07183 26.5242 2.09104 29.4896 2.09104Z" fill="#048DEF"></path><path d="M20.959 25.0823L20.2252 35.5489C20.2156 35.6859 20.233 35.8234 20.2765 35.9537C20.32 36.0839 20.3887 36.2043 20.4787 36.308C20.5688 36.4116 20.6783 36.4966 20.8012 36.5579C20.924 36.6192 21.0578 36.6558 21.1947 36.6654H21.2682C21.5327 36.6651 21.7873 36.5647 21.9808 36.3844C22.1743 36.2041 22.2923 35.9572 22.3112 35.6934L23.045 25.2357C23.0546 25.0987 23.0372 24.9612 22.9937 24.8309C22.9502 24.7007 22.8815 24.5803 22.7915 24.4766C22.7014 24.3729 22.5919 24.288 22.469 24.2267C22.3462 24.1654 22.2125 24.1288 22.0755 24.1192C21.9385 24.1095 21.801 24.1269 21.6708 24.1704C21.5405 24.2139 21.4201 24.2826 21.3165 24.3727C21.2128 24.4627 21.1279 24.5723 21.0665 24.6951C21.0052 24.818 20.9687 24.9517 20.959 25.0886V25.0823Z" fill="#048DEF"></path><path d="M43.6685 36.6641C43.9522 36.639 44.2143 36.5024 44.3975 36.2843C44.5806 36.0663 44.6699 35.7845 44.6456 35.5007C44.6456 35.5007 43.5405 27.5763 43.3783 24.9175C43.078 20.1436 40.1619 16.3139 35.606 15.6168C34.0041 15.371 31.0944 15.186 29.5736 15.1847C27.4977 15.2207 25.425 15.3641 23.3639 15.6143C21.2271 15.9068 19.27 16.9678 17.8587 18.5988C16.376 20.3109 15.7132 22.4995 15.5776 24.9226C15.4255 27.5839 14.418 35.5121 14.418 35.5121C14.4011 35.6496 14.4116 35.789 14.4489 35.9224C14.4863 36.0557 14.5498 36.1803 14.6357 36.289C14.7216 36.3976 14.8283 36.488 14.9495 36.5551C15.0707 36.6221 15.2039 36.6644 15.3416 36.6796C15.4793 36.6947 15.6186 36.6823 15.7514 36.6431C15.8842 36.6039 16.008 36.5388 16.1154 36.4514C16.2228 36.364 16.3119 36.2561 16.3773 36.134C16.4427 36.012 16.4832 35.8781 16.4964 35.7402C16.4964 35.7402 17.5191 27.7259 17.6649 25.0379C17.8727 21.2284 20.1272 18.1666 23.649 17.6876C25.6147 17.4489 27.5913 17.3118 29.5711 17.277C30.9879 17.277 33.8001 17.457 35.2879 17.6851C36.9237 17.9327 38.4193 18.7505 39.5105 19.9941C40.6714 21.3273 41.1745 23.118 41.2847 25.0443C41.4457 27.736 42.5685 35.7517 42.5685 35.7517C42.6092 36.0117 42.7434 36.2479 42.9459 36.4159C43.1485 36.584 43.4055 36.6722 43.6685 36.6641Z" fill="#048DEF"></path><path d="M36.8722 24.1129C36.7346 24.1224 36.6002 24.159 36.4767 24.2206C36.3533 24.2823 36.2433 24.3678 36.153 24.4722C36.0628 24.5765 35.9941 24.6977 35.9509 24.8288C35.9078 24.9598 35.891 25.0981 35.9015 25.2357L36.6365 35.7011C36.6548 35.965 36.7724 36.2122 36.9658 36.3928C37.1591 36.5734 37.4137 36.674 37.6782 36.6743H37.753C38.0295 36.6545 38.2869 36.5259 38.4686 36.3166C38.6503 36.1072 38.7417 35.8344 38.7225 35.5579L37.9875 25.0912C37.9786 24.9537 37.9427 24.8193 37.8818 24.6957C37.821 24.5721 37.7363 24.4617 37.6327 24.3708C37.5291 24.2799 37.4087 24.2104 37.2782 24.1661C37.1477 24.1219 37.0097 24.1038 36.8722 24.1129Z" fill="#048DEF"></path><path d="M36.1594 46.1309L41.188 41.229C41.3276 41.0928 41.4264 40.9203 41.4731 40.731C41.5198 40.5416 41.5127 40.343 41.4524 40.1575C41.3922 39.972 41.2813 39.8071 41.1322 39.6813C40.9831 39.5556 40.8019 39.474 40.6089 39.4459L33.6603 38.4321L30.5529 32.1399C30.4666 31.9649 30.333 31.8175 30.1673 31.7144C30.0015 31.6113 29.8102 31.5566 29.6151 31.5566C29.4199 31.5566 29.2286 31.6113 29.0629 31.7144C28.8971 31.8175 28.7636 31.9649 28.6773 32.1399L25.5699 38.4359L18.6213 39.4497C18.4283 39.4778 18.247 39.5594 18.0979 39.6851C17.9489 39.8109 17.8379 39.9758 17.7777 40.1613C17.7175 40.3468 17.7103 40.5454 17.757 40.7348C17.8037 40.9241 17.9025 41.0966 18.0421 41.2328L23.0707 46.1347L21.8846 53.0503C21.851 53.2432 21.8722 53.4415 21.9458 53.6229C22.0194 53.8042 22.1424 53.9613 22.3009 54.0762C22.4593 54.191 22.6469 54.2591 22.8421 54.2727C23.0374 54.2863 23.2325 54.2448 23.4053 54.1529L29.6151 50.8858L35.8248 54.1529C35.975 54.2315 36.1419 54.2728 36.3115 54.2733C36.4637 54.2731 36.6141 54.2396 36.7521 54.1753C36.8901 54.111 37.0124 54.0174 37.1105 53.9009C37.2086 53.7845 37.2801 53.6481 37.32 53.5012C37.36 53.3543 37.3674 53.2004 37.3418 53.0503L36.1594 46.1309ZM29.1284 48.7796C27.9144 49.398 24.3026 51.3141 24.3026 51.3141L25.2239 45.9395C25.2525 45.7725 25.2402 45.6011 25.1878 45.4399C25.1355 45.2788 25.0448 45.1327 24.9235 45.0144L21.019 41.2125L26.4151 40.4281C26.5828 40.4036 26.742 40.3388 26.8791 40.2392C27.0161 40.1397 27.127 40.0084 27.2021 39.8565L29.61 34.966L32.0179 39.8565C32.093 40.0084 32.2039 40.1397 32.3409 40.2392C32.478 40.3388 32.6372 40.4036 32.8049 40.4281L38.201 41.2125L34.2965 45.0144C34.1752 45.1327 34.0845 45.2788 34.0322 45.4399C33.9798 45.6011 33.9675 45.7725 33.9961 45.9395L34.9174 51.3141C34.9174 51.3141 31.3056 49.3955 30.0916 48.7796C29.9436 48.6997 29.7781 48.6579 29.61 48.6579C29.4419 48.6579 29.2764 48.6997 29.1284 48.7796Z" fill="#048DEF"></path><path d="M58.338 42.6242L53.2574 41.8854L50.9852 37.2826C50.8991 37.1075 50.7657 36.96 50.6 36.8568C50.4344 36.7537 50.2431 36.699 50.048 36.699C49.8529 36.699 49.6616 36.7537 49.496 36.8568C49.3303 36.96 49.1969 37.1075 49.1108 37.2826L46.8386 41.8854L41.758 42.6242C41.565 42.6524 41.3837 42.7339 41.2347 42.8597C41.0856 42.9854 40.9747 43.1504 40.9144 43.3359C40.8542 43.5213 40.847 43.72 40.8937 43.9093C40.9405 44.0987 41.0392 44.2712 41.1788 44.4073L44.854 47.9913L43.9859 53.0503C43.9523 53.2431 43.9735 53.4415 44.0471 53.6228C44.1207 53.8042 44.2438 53.9612 44.4022 54.0761C44.5607 54.191 44.7482 54.2591 44.9434 54.2727C45.1387 54.2862 45.3338 54.2447 45.5066 54.1528L50.0499 51.764L54.5944 54.1528C54.7446 54.2315 54.9115 54.2728 55.0811 54.2732C55.2333 54.273 55.3837 54.2396 55.5217 54.1753C55.6597 54.111 55.782 54.0173 55.8801 53.9009C55.9782 53.7845 56.0497 53.648 56.0896 53.5011C56.1296 53.3542 56.137 53.2004 56.1114 53.0503L55.2433 47.9913L58.9184 44.4073C59.0581 44.2712 59.1568 44.0987 59.2035 43.9093C59.2503 43.72 59.2431 43.5213 59.1829 43.3359C59.1226 43.1504 59.0117 42.9854 58.8626 42.8597C58.7135 42.7339 58.5323 42.6524 58.3393 42.6242H58.338ZM49.562 49.6577C48.7649 50.0582 46.4052 51.3166 46.4052 51.3166L47.0084 47.8024C47.037 47.6354 47.0247 47.464 46.9724 47.3028C46.92 47.1417 46.8293 46.9956 46.708 46.8773L44.1544 44.3883L47.6826 43.8814C47.8505 43.8571 48.0099 43.7923 48.147 43.6924C48.2842 43.5926 48.3949 43.4609 48.4696 43.3086L50.0474 40.1125L51.6252 43.3086C51.7003 43.4608 51.8114 43.5924 51.9487 43.6922C52.086 43.792 52.2455 43.8569 52.4134 43.8814L55.9403 44.3883L53.388 46.8773C53.2665 46.9955 53.1757 47.1415 53.1233 47.3027C53.071 47.4639 53.0588 47.6354 53.0876 47.8024L53.6959 51.3166C53.6959 51.3166 51.3375 50.0582 50.5404 49.6577C50.39 49.5768 50.2219 49.5344 50.0512 49.5344C49.8804 49.5344 49.7123 49.5768 49.562 49.6577Z" fill="#048DEF"></path><path d="M17.4747 42.6242L12.3942 41.8854L10.1219 37.2826C10.0358 37.1075 9.90239 36.96 9.73674 36.8568C9.5711 36.7537 9.37986 36.699 9.18473 36.699C8.98959 36.699 8.79835 36.7537 8.63271 36.8568C8.46706 36.96 8.33364 37.1075 8.24756 37.2826L5.9753 41.8854L0.894704 42.6242C0.701719 42.6524 0.520449 42.7339 0.37138 42.8597C0.22231 42.9854 0.111384 43.1504 0.0511378 43.3359C-0.00910893 43.5213 -0.0162746 43.72 0.0304504 43.9093C0.0771753 44.0987 0.175928 44.2712 0.315549 44.4073L3.99071 47.9913L3.12895 53.0503C3.09537 53.2431 3.1166 53.4415 3.1902 53.6228C3.2638 53.8042 3.38683 53.9612 3.54528 54.0761C3.70374 54.191 3.89126 54.2591 4.0865 54.2727C4.28175 54.2862 4.47689 54.2447 4.6497 54.1528L9.19423 51.764L13.7375 54.1528C13.8877 54.2315 14.0546 54.2728 14.2241 54.2732C14.3764 54.273 14.5267 54.2396 14.6647 54.1753C14.8027 54.111 14.925 54.0173 15.0231 53.9009C15.1212 53.7845 15.1927 53.648 15.2327 53.5011C15.2726 53.3542 15.2801 53.2004 15.2544 53.0503L14.3863 47.9913L18.0615 44.4073C18.2011 44.2712 18.2999 44.0987 18.3466 43.9093C18.3933 43.72 18.3862 43.5213 18.3259 43.3359C18.2657 43.1504 18.1547 42.9854 18.0057 42.8597C17.8566 42.7339 17.6753 42.6524 17.4824 42.6242H17.4747ZM8.70505 49.6577L5.54315 51.3166L6.14511 47.8024C6.17398 47.6354 6.16172 47.4639 6.10939 47.3027C6.05705 47.1415 5.96622 46.9955 5.84477 46.8773L3.29243 44.3883L6.81932 43.8814C6.98727 43.8569 7.14676 43.792 7.28406 43.6922C7.42137 43.5924 7.53239 43.4608 7.60757 43.3086L9.18536 40.1125L10.7631 43.3086C10.8379 43.4609 10.9486 43.5926 11.0857 43.6924C11.2229 43.7923 11.3823 43.8571 11.5501 43.8814L15.0783 44.3883L12.5247 46.8773C12.4034 46.9956 12.3127 47.1417 12.2604 47.3028C12.2081 47.464 12.1957 47.6354 12.2243 47.8024L12.8276 51.3166L9.67074 49.6577C9.52538 49.5688 9.35829 49.5217 9.18789 49.5217C9.01749 49.5217 8.8504 49.5688 8.70505 49.6577Z" fill="#048DEF"></path></svg>