<svg xmlns="http://www.w3.org/2000/svg" width="64" height="64" viewBox="0 0 64 64" fill="none"><path d="M60.3587 0H3.17678C2.33454 0.000963409 1.52707 0.335968 0.93152 0.93152C0.335968 1.52707 0.000963409 2.33454 0 3.17678V49.7695C0.000963409 50.6117 0.335968 51.4192 0.93152 52.0147C1.52707 52.6103 2.33454 52.9453 3.17678 52.9463H25.0499L22.5085 61.4177H19.0607V63.5355H44.4749V61.4177H41.027L38.4856 52.9463H60.3587C61.201 52.9453 62.0085 52.6103 62.604 52.0147C63.1996 51.4192 63.5346 50.6117 63.5355 49.7695V3.17678C63.5346 2.33454 63.1996 1.52707 62.604 0.93152C62.0085 0.335968 61.201 0.000963409 60.3587 0ZM38.8159 61.4177H24.7196L27.261 52.9463H36.2745L38.8159 61.4177ZM61.4177 49.7695C61.4174 50.0502 61.3057 50.3194 61.1072 50.5179C60.9086 50.7164 60.6395 50.8281 60.3587 50.8284H3.17678C2.89603 50.8281 2.62687 50.7164 2.42836 50.5179C2.22984 50.3194 2.11817 50.0502 2.11785 49.7695V46.5927H61.4177V49.7695ZM61.4177 44.4749H2.11785V3.17678C2.11817 2.89603 2.22984 2.62687 2.42836 2.42836C2.62687 2.22984 2.89603 2.11817 3.17678 2.11785H60.3587C60.6395 2.11817 60.9086 2.22984 61.1072 2.42836C61.3057 2.62687 61.4174 2.89603 61.4177 3.17678V44.4749Z" fill="#048DEF"></path><path d="M56.1242 18.0018H42.1765C42.0374 18.0022 41.8996 17.975 41.771 17.9217C41.6425 17.8685 41.5258 17.7903 41.4277 17.6916L38.4327 14.6966C38.1383 14.4006 37.7883 14.166 37.4027 14.0063C37.0171 13.8466 36.6037 13.765 36.1863 13.7661H24.3565C23.5142 13.7671 22.7068 14.1021 22.1112 14.6976C21.5157 15.2932 21.1807 16.1007 21.1797 16.9429V39.1803C21.1807 40.0226 21.5157 40.83 22.1112 41.4256C22.7068 42.0211 23.5142 42.3561 24.3565 42.3571H56.1242C56.9665 42.3561 57.7739 42.0211 58.3695 41.4256C58.965 40.83 59.3 40.0226 59.301 39.1803V21.1786C59.3 20.3364 58.965 19.5289 58.3695 18.9333C57.7739 18.3378 56.9665 18.0028 56.1242 18.0018ZM57.1831 39.1803C57.1828 39.4611 57.0712 39.7302 56.8726 39.9288C56.6741 40.1273 56.405 40.2389 56.1242 40.2393H24.3565C24.0757 40.2389 23.8066 40.1273 23.608 39.9288C23.4095 39.7302 23.2979 39.4611 23.2975 39.1803V16.9429C23.2979 16.6622 23.4095 16.393 23.608 16.1945C23.8066 15.996 24.0757 15.8843 24.3565 15.884H36.1863C36.3255 15.8836 36.4633 15.9108 36.5918 15.9641C36.7204 16.0173 36.837 16.0955 36.9351 16.1942L39.9302 19.1892C40.2245 19.4852 40.5746 19.7198 40.9601 19.8795C41.3457 20.0392 41.7592 20.1208 42.1765 20.1197H56.1242C56.405 20.12 56.6741 20.2317 56.8726 20.4302C57.0712 20.6287 57.1828 20.8979 57.1831 21.1786V39.1803Z" fill="#048DEF"></path><path d="M33.137 23.6064L27.0938 29.6499L33.137 35.6933L34.6346 34.1957L30.0887 29.6499L34.6346 25.104L33.137 23.6064Z" fill="#048DEF"></path><path d="M37.2109 34.4491L42.5095 24.9205L44.3603 25.9497L39.0618 35.4783L37.2109 34.4491Z" fill="#048DEF"></path><path d="M45.8359 25.104L50.3819 29.6499L45.8359 34.1957L47.3335 35.6933L53.3768 29.6499L47.3335 23.6064L45.8359 25.104Z" fill="#048DEF"></path><path d="M24.7238 6.35357L26.4386 10.3535L30.2203 11.9205L34.2679 10.3031L36.3618 12.397L37.8592 10.8994L34.7784 7.81833L30.2348 9.63399L28.0455 8.72689L26.1201 4.23572H20.47L18.5447 8.72689L16.3552 9.63399L11.8118 7.81833L7.81712 11.8131L9.63264 16.3566L8.72554 18.5459L4.23438 20.4713V26.1215L8.72541 28.0468L9.63264 30.2362L7.81698 34.7796L11.8116 38.7744L16.3552 36.9588L18.6539 37.9113L19.4648 35.9548L16.3698 34.6723L12.3222 36.2897L10.3018 34.2692L11.9191 30.2216L10.3521 26.4398L6.35223 24.7251V21.8676L10.3522 20.153L11.9191 16.3711L10.3018 12.3235L12.3223 10.3031L16.3698 11.9205L20.1515 10.3535L21.8663 6.35357H24.7238Z" fill="#048DEF"></path><path d="M19.5279 15.7049L18.5854 13.8083C16.8189 14.6854 15.3323 16.0383 14.293 17.7146C13.2538 19.3908 12.7031 21.324 12.7031 23.2963C12.7031 25.2686 13.2538 27.2017 14.293 28.878C15.3323 30.5543 16.8189 31.9071 18.5854 32.7842L19.5279 30.8877C18.1144 30.186 16.9248 29.1036 16.0932 27.7624C15.2616 26.4212 14.821 24.8744 14.821 23.2963C14.821 21.7182 15.2616 20.1714 16.0932 18.8302C16.9248 17.489 18.1144 16.4066 19.5279 15.7049Z" fill="#048DEF"></path></svg>