<svg xmlns="http://www.w3.org/2000/svg" width="71" height="65" viewBox="0 0 71 65" fill="none"><path d="M34.9193 17.8204C37.1885 17.8204 39.3632 16.6768 41.0425 14.6012C42.5764 12.7057 43.4558 10.3149 43.4558 8.03974C43.4558 3.45632 39.7864 0 34.9193 0C30.0522 0 26.3828 3.45182 26.3828 8.03974C26.3828 10.3149 27.2623 12.7057 28.7961 14.6012C30.4755 16.6783 32.6501 17.8204 34.9193 17.8204ZM34.9193 2.47631C38.4312 2.47631 40.9795 4.81604 40.9795 8.03974C40.9795 12.0919 37.6643 15.3441 34.9193 15.3441C31.562 15.3441 28.8591 11.3475 28.8591 8.03974C28.8591 4.82204 31.4075 2.47631 34.9193 2.47631Z" fill="#047BDC"></path><path d="M24.8173 29.7036L23.9484 42.0986C23.9369 42.2608 23.9576 42.4237 24.0091 42.5779C24.0606 42.7322 24.142 42.8748 24.2486 42.9975C24.3552 43.1203 24.4849 43.2209 24.6304 43.2935C24.7759 43.3662 24.9343 43.4094 25.0965 43.4208H25.1835C25.4968 43.4205 25.7982 43.3016 26.0274 43.0881C26.2565 42.8745 26.3963 42.5821 26.4187 42.2697L27.2876 29.8852C27.2991 29.723 27.2784 29.5601 27.2269 29.4059C27.1754 29.2517 27.094 29.1091 26.9874 28.9863C26.8808 28.8635 26.7511 28.763 26.6056 28.6903C26.4601 28.6177 26.3017 28.5744 26.1395 28.563C25.9773 28.5516 25.8145 28.5722 25.6602 28.6237C25.506 28.6752 25.3634 28.7566 25.2407 28.8632C25.1179 28.9698 25.0173 29.0996 24.9447 29.2451C24.872 29.3905 24.8288 29.5489 24.8173 29.7111V29.7036Z" fill="#047BDC"></path><path d="M51.7194 43.4193C52.0554 43.3896 52.3658 43.2278 52.5827 42.9696C52.7996 42.7113 52.9053 42.3776 52.8765 42.0416C52.8765 42.0416 51.5678 32.6572 51.3757 29.5085C51.02 23.855 47.5667 19.3196 42.1714 18.4942C40.2744 18.203 36.8286 17.9839 35.0276 17.9824C32.5692 18.025 30.1146 18.1948 27.6737 18.4912C25.1432 18.8376 22.8255 20.0941 21.1543 22.0256C19.3984 24.0531 18.6135 26.645 18.4529 29.5145C18.2728 32.6662 17.0796 42.0551 17.0796 42.0551C17.0595 42.2179 17.072 42.383 17.1162 42.541C17.1605 42.6989 17.2357 42.8464 17.3374 42.9751C17.4392 43.1037 17.5655 43.2108 17.709 43.2902C17.8525 43.3696 18.0104 43.4197 18.1734 43.4376C18.3364 43.4555 18.5014 43.4408 18.6587 43.3945C18.816 43.3481 18.9625 43.2709 19.0898 43.1674C19.217 43.0639 19.3224 42.9362 19.3998 42.7916C19.4773 42.647 19.5253 42.4885 19.5409 42.3253C19.5409 42.3253 20.7521 32.8343 20.9247 29.6511C21.1708 25.1397 23.8407 21.5138 28.0114 20.9465C30.3392 20.6638 32.6801 20.5015 35.0246 20.4602C36.7025 20.4602 40.0328 20.6733 41.7947 20.9435C43.7319 21.2367 45.5031 22.2052 46.7953 23.6779C48.17 25.2568 48.7659 27.3774 48.8964 29.6586C49.087 32.8463 50.4167 42.3388 50.4167 42.3388C50.4649 42.6467 50.6238 42.9264 50.8637 43.1254C51.1036 43.3244 51.4079 43.4289 51.7194 43.4193Z" fill="#047BDC"></path><path d="M43.6688 28.5556C43.5058 28.5668 43.3466 28.6101 43.2005 28.6832C43.0543 28.7562 42.924 28.8574 42.8171 28.981C42.7103 29.1046 42.6289 29.2482 42.5778 29.4034C42.5267 29.5586 42.5068 29.7224 42.5192 29.8853L43.3897 42.2788C43.4113 42.5914 43.5507 42.8841 43.7796 43.098C44.0085 43.3119 44.31 43.431 44.6233 43.4314H44.7119C45.0393 43.408 45.3441 43.2556 45.5593 43.0077C45.7746 42.7598 45.8827 42.4367 45.86 42.1092L44.9895 29.7142C44.979 29.5513 44.9365 29.3922 44.8645 29.2458C44.7924 29.0994 44.6921 28.9686 44.5695 28.861C44.4468 28.7534 44.3041 28.671 44.1496 28.6186C43.995 28.5662 43.8317 28.5448 43.6688 28.5556Z" fill="#047BDC"></path><path d="M42.8212 54.6304L48.7763 48.8253C48.9417 48.6641 49.0586 48.4598 49.114 48.2355C49.1693 48.0113 49.1608 47.7761 49.0895 47.5564C49.0181 47.3367 48.8867 47.1414 48.7102 46.9925C48.5337 46.8436 48.319 46.747 48.0905 46.7137L39.8616 45.5131L36.1817 38.0616C36.0795 37.8543 35.9213 37.6797 35.725 37.5576C35.5288 37.4356 35.3022 37.3708 35.0711 37.3708C34.84 37.3708 34.6134 37.4356 34.4172 37.5576C34.2209 37.6797 34.0627 37.8543 33.9605 38.0616L30.2806 45.5176L22.0517 46.7182C21.8232 46.7515 21.6085 46.8481 21.432 46.997C21.2555 47.1459 21.1241 47.3412 21.0527 47.5609C20.9814 47.7806 20.9729 48.0158 21.0282 48.24C21.0836 48.4643 21.2005 48.6686 21.3659 48.8298L27.321 54.6349L25.9163 62.8247C25.8765 63.053 25.9016 63.2879 25.9888 63.5027C26.076 63.7175 26.2217 63.9035 26.4093 64.0395C26.597 64.1755 26.819 64.2562 27.0503 64.2723C27.2815 64.2883 27.5126 64.2392 27.7172 64.1304L35.0711 60.2613L42.425 64.1304C42.6028 64.2235 42.8005 64.2724 43.0013 64.2729C43.1816 64.2727 43.3596 64.2331 43.5231 64.1569C43.6865 64.0808 43.8313 63.9699 43.9475 63.832C44.0637 63.6941 44.1484 63.5326 44.1957 63.3586C44.243 63.1846 44.2518 63.0024 44.2214 62.8247L42.8212 54.6304ZM34.4948 57.767C33.057 58.4994 28.7798 60.7686 28.7798 60.7686L29.8709 54.4037C29.9048 54.206 29.8901 54.0029 29.8282 53.8121C29.7662 53.6212 29.6588 53.4483 29.5152 53.3082L24.8912 48.8058L31.2816 47.8768C31.4801 47.8478 31.6687 47.7711 31.831 47.6532C31.9933 47.5353 32.1246 47.3798 32.2136 47.1999L35.0651 41.4084L37.9166 47.1999C38.0056 47.3798 38.1369 47.5353 38.2992 47.6532C38.4615 47.7711 38.6501 47.8478 38.8486 47.8768L45.239 48.8058L40.615 53.3082C40.4714 53.4483 40.364 53.6212 40.302 53.8121C40.2401 54.0029 40.2254 54.206 40.2593 54.4037L41.3504 60.7686C41.3504 60.7686 37.0732 58.4964 35.6354 57.767C35.4602 57.6724 35.2642 57.6229 35.0651 57.6229C34.866 57.6229 34.67 57.6724 34.4948 57.767Z" fill="#047BDC"></path><path d="M69.085 50.4776L63.0684 49.6026L60.3774 44.1517C60.2755 43.9443 60.1175 43.7696 59.9213 43.6475C59.7252 43.5253 59.4987 43.4606 59.2676 43.4606C59.0365 43.4606 58.81 43.5253 58.6139 43.6475C58.4177 43.7696 58.2597 43.9443 58.1578 44.1517L55.4668 49.6026L49.4502 50.4776C49.2216 50.5109 49.007 50.6074 48.8304 50.7564C48.6539 50.9053 48.5225 51.1006 48.4512 51.3203C48.3798 51.5399 48.3714 51.7752 48.4267 51.9994C48.482 52.2236 48.599 52.4279 48.7643 52.5892L53.1166 56.8334L52.0886 62.8246C52.0488 63.0529 52.0739 63.2878 52.1611 63.5026C52.2483 63.7174 52.394 63.9033 52.5816 64.0394C52.7693 64.1754 52.9913 64.2561 53.2225 64.2721C53.4538 64.2882 53.6849 64.239 53.8895 64.1303L59.2699 61.3013L64.6517 64.1303C64.8296 64.2234 65.0272 64.2723 65.228 64.2728C65.4083 64.2726 65.5864 64.233 65.7498 64.1568C65.9132 64.0807 66.058 63.9698 66.1742 63.8319C66.2904 63.694 66.3751 63.5324 66.4224 63.3585C66.4697 63.1845 66.4785 63.0023 66.4481 62.8246L65.4201 56.8334L69.7724 52.5892C69.9377 52.4279 70.0547 52.2236 70.11 51.9994C70.1654 51.7752 70.1569 51.5399 70.0855 51.3203C70.0142 51.1006 69.8828 50.9053 69.7063 50.7564C69.5297 50.6074 69.3151 50.5109 69.0865 50.4776H69.085ZM58.692 58.8069C57.7481 59.2812 54.9536 60.7715 54.9536 60.7715L55.668 56.6098C55.7019 56.412 55.6872 56.209 55.6253 56.0181C55.5633 55.8273 55.4559 55.6543 55.3123 55.5142L52.2882 52.5667L56.4664 51.9663C56.6652 51.9376 56.854 51.8608 57.0164 51.7426C57.1788 51.6243 57.3099 51.4683 57.3984 51.288L59.2669 47.503L61.1353 51.288C61.2244 51.4682 61.3558 51.6241 61.5185 51.7422C61.6811 51.8604 61.8699 51.9373 62.0688 51.9663L66.2455 52.5667L63.2229 55.5142C63.0791 55.6542 62.9715 55.8271 62.9096 56.018C62.8476 56.2089 62.8331 56.412 62.8673 56.6098L63.5876 60.7715C63.5876 60.7715 60.7947 59.2812 59.8507 58.8069C59.6726 58.7111 59.4736 58.6609 59.2714 58.6609C59.0691 58.6609 58.8701 58.7111 58.692 58.8069Z" fill="#047BDC"></path><path d="M20.6944 50.4776L14.6777 49.6026L11.9868 44.1517C11.8849 43.9443 11.7269 43.7696 11.5307 43.6475C11.3345 43.5253 11.1081 43.4606 10.877 43.4606C10.6459 43.4606 10.4194 43.5253 10.2233 43.6475C10.0271 43.7696 9.86908 43.9443 9.76714 44.1517L7.07622 49.6026L1.05955 50.4776C0.831008 50.5109 0.61634 50.6074 0.439805 50.7564C0.26327 50.9053 0.131907 51.1006 0.0605597 51.3203C-0.0107872 51.5399 -0.0192732 51.7752 0.0360607 51.9994C0.0913946 52.2236 0.208342 52.4279 0.373688 52.5892L4.72598 56.8334L3.70545 62.8246C3.66569 63.0529 3.69082 63.2878 3.77798 63.5026C3.86514 63.7174 4.01084 63.9033 4.19849 64.0394C4.38614 64.1754 4.60821 64.2561 4.83943 64.2721C5.07065 64.2882 5.30173 64.239 5.50639 64.1303L10.8882 61.3013L16.2686 64.1303C16.4464 64.2234 16.6441 64.2723 16.8449 64.2728C17.0252 64.2726 17.2032 64.233 17.3667 64.1568C17.5301 64.0807 17.6749 63.9698 17.7911 63.8319C17.9073 63.694 17.9919 63.5324 18.0393 63.3585C18.0866 63.1845 18.0954 63.0023 18.065 62.8246L17.037 56.8334L21.3893 52.5892C21.5546 52.4279 21.6716 52.2236 21.7269 51.9994C21.7822 51.7752 21.7737 51.5399 21.7024 51.3203C21.6311 51.1006 21.4997 50.9053 21.3232 50.7564C21.1466 50.6074 20.932 50.5109 20.7034 50.4776H20.6944ZM10.3089 58.8069L6.56445 60.7715L7.27733 56.6098C7.31152 56.412 7.29699 56.2089 7.23502 56.018C7.17304 55.8271 7.06548 55.6542 6.92164 55.5142L3.89905 52.5667L8.07575 51.9663C8.27465 51.9373 8.46352 51.8604 8.62612 51.7422C8.78873 51.6241 8.9202 51.4682 9.00924 51.288L10.8777 47.503L12.7462 51.288C12.8347 51.4683 12.9658 51.6243 13.1282 51.7426C13.2906 51.8608 13.4794 51.9376 13.6782 51.9663L17.8564 52.5667L14.8323 55.5142C14.6887 55.6543 14.5813 55.8273 14.5193 56.0181C14.4573 56.209 14.4427 56.412 14.4766 56.6098L15.191 60.7715L11.4525 58.8069C11.2804 58.7016 11.0825 58.6459 10.8807 58.6459C10.6789 58.6459 10.4811 58.7016 10.3089 58.8069Z" fill="#047BDC"></path></svg>