<svg xmlns="http://www.w3.org/2000/svg" width="64" height="64" viewBox="0 0 64 64" fill="none"><path d="M62.9086 16.4856C62.9085 16.4856 62.9085 16.4856 62.9083 16.4856L62.9062 16.4835L58.787 15.8958C58.2081 15.8133 57.8055 15.2771 57.888 14.6981C57.9276 14.4199 58.0762 14.1689 58.301 14.0003L61.6302 11.5033C62.0981 11.1525 62.1929 10.4888 61.842 10.0209L58.0299 4.93804C57.679 4.47013 57.0153 4.37536 56.5474 4.72626L53.2192 7.22319C52.7533 7.57674 52.0891 7.48567 51.7355 7.01975C51.5639 6.79354 51.4903 6.50776 51.5313 6.22675L52.1201 2.10755C52.2031 1.52859 51.8011 0.99211 51.2222 0.908985C51.2218 0.908985 51.2214 0.908852 51.221 0.908852L44.9353 0.0108877C44.3565 -0.0722375 43.8197 0.329623 43.7366 0.908587C43.7366 0.90872 43.7366 0.90872 43.7366 0.908852L43.1478 5.02805C43.0654 5.60702 42.5292 6.00954 41.9502 5.92708C41.672 5.8875 41.421 5.73885 41.2524 5.5141L38.7565 2.18485C38.4056 1.71694 37.7419 1.62217 37.274 1.97307L34.0919 4.36093C32.6523 4.20792 31.2006 4.20792 29.761 4.36093C20.3331 5.43852 12.9399 12.9571 12.0209 22.4018C11.9923 22.7014 11.9817 22.999 11.9669 23.2965H11.6492C11.1467 23.2975 10.714 23.6514 10.6136 24.1437L9.88185 27.6233L6.95076 25.6018C6.5301 25.3115 5.96199 25.3633 5.60063 25.7247L2.42387 28.9014C2.06304 29.2626 2.01142 29.83 2.30104 30.2505L4.31299 33.1763L0.832314 33.908C0.345475 34.0147 -0.0010565 34.4463 2.4202e-06 34.9447V39.1804C-0.00026231 39.6812 0.350637 40.1138 0.840785 40.217L4.32146 40.9488L2.30951 43.8745C2.01989 44.2951 2.07152 44.8624 2.43234 45.2236L5.6091 48.4004C5.97046 48.7617 6.53857 48.8135 6.95923 48.5232L9.88502 46.506L10.6167 49.9866C10.7172 50.4789 11.1499 50.8328 11.6524 50.8338H15.888C16.3889 50.834 16.8215 50.4831 16.9247 49.993L17.6564 46.5123L20.5822 48.5243C21.0028 48.8139 21.5701 48.7623 21.9313 48.4014L23.5758 46.7516V49.7696C23.5806 51.276 24.3876 52.6657 25.6936 53.4165V59.2998C25.6936 61.6391 27.59 63.5355 29.9293 63.5355H34.165C36.5043 63.5355 38.4007 61.6391 38.4007 59.2998V53.4165C39.7067 52.6657 40.5138 51.276 40.5185 49.7696V45.5783C40.5473 43.8149 41.4698 42.1868 42.9678 41.2558C43.8466 40.6857 44.68 40.0484 45.4605 39.3498L44.0479 37.772C43.3497 38.3978 42.6037 38.9682 41.8168 39.4779C39.7142 40.7976 38.427 43.096 38.4007 45.5783V49.7696C38.4007 50.9393 37.4526 51.8874 36.2829 51.8874H27.8115C26.6418 51.8874 25.6936 50.9393 25.6936 49.7696V45.4905C25.6692 43.0551 24.4023 40.801 22.3347 39.5139C13.9419 34.2402 11.4132 23.1614 16.6869 14.7685C19.9589 9.56116 25.6694 6.39168 31.8195 6.3697C31.8037 6.40743 31.7899 6.44595 31.7782 6.48513C31.7389 6.76309 31.8117 7.04543 31.9805 7.26979L34.4763 10.598C34.7395 10.9385 34.7648 11.4063 34.5399 11.7734C34.3233 12.1427 33.9046 12.3441 33.4809 12.2827L29.3617 11.694C28.7828 11.611 28.2463 12.013 28.1632 12.5918C28.1632 12.5922 28.163 12.5926 28.163 12.593L27.264 18.8819C27.181 19.4607 27.583 19.9973 28.1619 20.0805C28.1623 20.0805 28.1627 20.0806 28.163 20.0806L32.2822 20.6694C32.8612 20.7518 33.2637 21.288 33.1813 21.867C33.1417 22.1452 32.993 22.3962 32.7683 22.5648L29.4401 25.0607C28.9722 25.4116 28.8774 26.0753 29.2283 26.5432L33.0404 31.626C33.3913 32.0939 34.055 32.1887 34.5229 31.8378L37.8522 29.3419C38.3205 28.9917 38.9842 29.0874 39.3344 29.5558C39.502 29.7799 39.5741 30.0613 39.5348 30.3384L38.9471 34.4576C38.864 35.0364 39.2658 35.5731 39.8448 35.6563C39.8449 35.6563 39.8449 35.6563 39.8451 35.6563L46.135 36.5553C46.1846 36.5616 46.2345 36.5648 46.2844 36.5648C46.8116 36.5655 47.2588 36.1782 47.3337 35.6563L47.9214 31.5371C48.0039 30.9581 48.5401 30.5556 49.1191 30.638C49.3973 30.6776 49.6483 30.8263 49.8169 31.051L52.3138 34.3792C52.6647 34.8471 53.3284 34.9419 53.7963 34.591L58.8792 30.7789C59.3471 30.428 59.4418 29.7643 59.0909 29.2964L56.5951 25.9682C56.3331 25.6271 56.3078 25.1601 56.5315 24.7928C56.7434 24.4186 57.166 24.2158 57.5904 24.2845L61.7096 24.8722C62.2885 24.9553 62.8252 24.5534 62.9083 23.9745C62.9083 23.9744 62.9083 23.9744 62.9083 23.9743L63.8063 17.6843C63.8894 17.1053 63.4876 16.5687 62.9086 16.4856ZM27.8115 54.0052H36.2829V56.1231H27.8115V54.0052ZM27.8115 58.2409H36.2829V59.2998C36.2829 60.4696 35.3347 61.4177 34.165 61.4177H29.9293C28.7596 61.4177 27.8115 60.4696 27.8115 59.2998V58.2409ZM19.3814 39.9798C19.9596 40.4526 20.5637 40.8929 21.1911 41.2982C22.1917 41.9305 22.9448 42.8871 23.3248 44.008L21.0535 46.2751L18.8541 44.7587C17.891 44.0951 16.5722 44.3378 15.9084 45.3009C15.7493 45.5319 15.6376 45.7921 15.5799 46.0665L15.025 48.7106H12.508L11.9531 46.0707C11.7122 44.9262 10.5891 44.1935 9.44451 44.4345C9.17012 44.4922 8.90989 44.6039 8.67891 44.763L6.47848 46.2751L4.54912 44.35L6.06444 42.1517C6.72878 41.189 6.48682 39.8701 5.52413 39.2058C5.29302 39.0463 5.03252 38.9343 4.75773 38.8764L2.11784 38.3205V35.8045L4.75773 35.2486C5.9019 35.006 6.63282 33.8818 6.39019 32.7375C6.33261 32.466 6.22235 32.2086 6.0655 31.9797L4.54912 29.775L6.47848 27.8499L8.67997 29.3663C9.64346 30.0293 10.9622 29.7857 11.6252 28.8223C11.7841 28.5915 11.8955 28.3316 11.9531 28.0575L12.1384 27.1764C12.3081 28.3966 12.5891 29.5984 12.9781 30.7672C9.49388 31.1826 7.00608 34.344 7.42145 37.8282C7.83681 41.3125 10.9982 43.8003 14.4825 43.3849C16.5799 43.1348 18.416 41.8586 19.3814 39.9798ZM17.7369 38.4878C16.9462 40.6857 14.5235 41.8265 12.3256 41.0358C10.1276 40.2451 8.98693 37.8224 9.77754 35.6245C10.3825 33.9431 11.9789 32.8231 13.7658 32.8268C13.7796 32.8268 13.7923 32.8268 13.8061 32.8268C14.7799 34.9265 16.1098 36.8417 17.7369 38.4878ZM60.9557 22.6231L57.8848 22.1847C56.1479 21.9366 54.5389 23.1437 54.2909 24.8804C54.1717 25.7145 54.3888 26.5617 54.8944 27.2357L56.755 29.7168L53.3664 32.2582L51.5048 29.7782C50.4523 28.3745 48.4611 28.0898 47.0575 29.1423C46.3835 29.6477 45.9378 30.4002 45.8184 31.2342L45.3896 34.3093L41.1973 33.71L41.6357 30.6391C41.8844 28.9023 40.678 27.2928 38.9413 27.0442C38.1067 26.9247 37.259 27.1418 36.5846 27.6477L34.1036 29.5082L31.5622 26.1196L34.0422 24.258C35.4459 23.2055 35.7306 21.2143 34.6781 19.8107C34.1727 19.1367 33.4202 18.691 32.5862 18.5716L29.5153 18.1333L30.1146 13.941L33.1855 14.3794C34.9223 14.6281 36.5318 13.4217 36.7804 11.685C36.8999 10.8504 36.6829 10.0027 36.177 9.32833L34.3101 6.84516L37.6986 4.30375L39.5602 6.7848C40.6128 8.18853 42.6039 8.47325 44.0075 7.42068C44.6815 6.91531 45.1272 6.16282 45.2466 5.32879L45.685 2.25792L49.8773 2.85621L49.4389 5.92708C49.1908 7.66397 50.3977 9.273 52.1346 9.52105C52.9687 9.64018 53.8159 9.4231 54.4899 8.91747L56.971 7.05694L59.5124 10.4455L57.0313 12.3071C55.6276 13.3596 55.3429 15.3508 56.3955 16.7544C56.9008 17.4284 57.6533 17.8741 58.4874 17.9935L61.5582 18.4319L60.9557 22.6231Z" fill="#0369CA"></path><path d="M45.5573 9.81018C40.8787 9.81018 37.0859 13.603 37.0859 18.2815C37.0859 22.9601 40.8787 26.7529 45.5573 26.7529C50.2359 26.7529 54.0287 22.9601 54.0287 18.2815C54.0234 13.6051 50.2338 9.81534 45.5573 9.81018ZM45.5573 24.6351C42.0483 24.6351 39.2038 21.7905 39.2038 18.2815C39.2038 14.7725 42.0483 11.928 45.5573 11.928C49.0663 11.928 51.9108 14.7725 51.9108 18.2815C51.9067 21.7888 49.0646 24.631 45.5573 24.6351Z" fill="#0369CA"></path></svg>