<svg xmlns="http://www.w3.org/2000/svg" width="57" height="56" viewBox="0 0 57 56" fill="none"><path fill-rule="evenodd" clip-rule="evenodd" d="M34.8721 6.34003C34.4645 7.04402 34.2308 7.86117 34.2308 8.73237C34.2308 11.372 36.3738 13.5149 39.0133 13.5149C41.6528 13.5149 43.7959 11.372 43.7959 8.73237C43.7959 3.98108 39.9384 0.123779 35.1873 0.123779C32.4843 0.123779 30.0704 1.37204 28.4917 3.32349C26.913 1.37204 24.4991 0.123779 21.7961 0.123779C17.045 0.123779 13.1875 3.98108 13.1875 8.73237C13.1875 11.372 15.3306 13.5149 17.9701 13.5149C20.6096 13.5149 22.7526 11.372 22.7526 8.73237C22.7526 7.86117 22.5189 7.04402 22.1113 6.34003C21.8468 5.88319 21.2611 5.72705 20.8044 5.99162C20.3475 6.25602 20.1912 6.84181 20.4559 7.29866C20.7001 7.7205 20.8396 8.21023 20.8396 8.73237C20.8396 10.3162 19.5537 11.6019 17.9701 11.6019C16.3864 11.6019 15.1005 10.3162 15.1005 8.73237C15.1005 5.0369 18.1008 2.0368 21.7961 2.0368C24.316 2.0368 26.5124 3.43208 27.6554 5.49147C27.8241 5.79527 28.1442 5.98381 28.4917 5.98381C28.8392 5.98381 29.1593 5.79527 29.328 5.49147C30.471 3.43208 32.6674 2.0368 35.1873 2.0368C38.8826 2.0368 41.8829 5.0369 41.8829 8.73237C41.8829 10.3162 40.597 11.6019 39.0133 11.6019C37.4297 11.6019 36.1438 10.3162 36.1438 8.73237C36.1438 8.21023 36.2833 7.7205 36.5275 7.29866C36.7922 6.84181 36.6359 6.25602 36.179 5.99162C35.7223 5.72705 35.1366 5.88319 34.8721 6.34003Z" fill="#048DEF"></path><path fill-rule="evenodd" clip-rule="evenodd" d="M14.5315 7.45556C13.5283 7.04576 12.4305 6.81946 11.2805 6.81946C6.52933 6.81946 2.67188 10.6768 2.67188 15.428C2.67188 20.1793 6.52933 24.0366 11.2805 24.0366C13.92 24.0366 16.063 21.8937 16.063 19.2541C16.063 16.6144 13.92 14.4715 11.2805 14.4715C10.4402 14.4715 9.65043 14.6889 8.96381 15.07C8.50214 15.3261 8.33538 15.9088 8.59157 16.3704C8.84776 16.8321 9.43043 16.9988 9.89211 16.7426C10.3036 16.5143 10.777 16.3846 11.2805 16.3846C12.8642 16.3846 14.15 17.6703 14.15 19.2541C14.15 20.8379 12.8642 22.1236 11.2805 22.1236C7.58516 22.1236 4.5849 19.1235 4.5849 15.428C4.5849 11.7326 7.58516 8.73248 11.2805 8.73248C12.1745 8.73248 13.028 8.90782 13.8081 9.22661C14.2967 9.42621 15.0203 7.65533 14.5315 7.45556Z" fill="#048DEF"></path><path fill-rule="evenodd" clip-rule="evenodd" d="M43.1847 9.22661C43.9647 8.90782 44.8182 8.73248 45.7122 8.73248C49.4076 8.73248 52.4078 11.7326 52.4078 15.428C52.4078 19.1235 49.4076 22.1236 45.7122 22.1236C44.1286 22.1236 42.8427 20.8379 42.8427 19.2541C42.8427 17.6703 44.1286 16.3846 45.7122 16.3846C46.2157 16.3846 46.6892 16.5143 47.1006 16.7426C47.5623 16.9988 48.145 16.8321 48.4012 16.3704C48.6574 15.9088 48.4906 15.3261 48.0289 15.07C47.3423 14.6889 46.5525 14.4715 45.7122 14.4715C43.0728 14.4715 40.9297 16.6144 40.9297 19.2541C40.9297 21.8937 43.0728 24.0366 45.7122 24.0366C50.4634 24.0366 54.3209 20.1793 54.3209 15.428C54.3209 10.6768 50.4634 6.81946 45.7122 6.81946C44.5622 6.81946 43.4644 7.04576 42.4612 7.45556C41.9724 7.65533 42.696 9.42621 43.1847 9.22661Z" fill="#048DEF"></path><path fill-rule="evenodd" clip-rule="evenodd" d="M17.9711 49.8624C16.3874 49.8624 15.1016 51.1482 15.1016 52.732C15.1016 54.3157 16.3874 55.6015 17.9711 55.6015C19.5548 55.6015 20.8406 54.3157 20.8406 52.732C20.8406 51.1482 19.5548 49.8624 17.9711 49.8624ZM17.9711 51.7754C18.499 51.7754 18.9276 52.204 18.9276 52.732C18.9276 53.2599 18.499 53.6885 17.9711 53.6885C17.4432 53.6885 17.0146 53.2599 17.0146 52.732C17.0146 52.204 17.4432 51.7754 17.9711 51.7754Z" fill="#048DEF"></path><path fill-rule="evenodd" clip-rule="evenodd" d="M11.2758 43.167C9.69204 43.167 8.40625 44.4528 8.40625 46.0365C8.40625 47.6203 9.69204 48.9061 11.2758 48.9061C12.8595 48.9061 14.1453 47.6203 14.1453 46.0365C14.1453 44.4528 12.8595 43.167 11.2758 43.167ZM11.2758 45.08C11.8037 45.08 12.2323 45.5086 12.2323 46.0365C12.2323 46.5644 11.8037 46.993 11.2758 46.993C10.7479 46.993 10.3193 46.5644 10.3193 46.0365C10.3193 45.5086 10.7479 45.08 11.2758 45.08Z" fill="#048DEF"></path><path fill-rule="evenodd" clip-rule="evenodd" d="M5.54141 36.4713C3.95767 36.4713 2.67188 37.7571 2.67188 39.3408C2.67188 40.9246 3.95767 42.2104 5.54141 42.2104C7.12516 42.2104 8.41095 40.9246 8.41095 39.3408C8.41095 37.7571 7.12516 36.4713 5.54141 36.4713ZM5.54141 38.3843C6.06933 38.3843 6.49792 38.8129 6.49792 39.3408C6.49792 39.8688 6.06933 40.2974 5.54141 40.2974C5.0135 40.2974 4.5849 39.8688 4.5849 39.3408C4.5849 38.8129 5.0135 38.3843 5.54141 38.3843Z" fill="#048DEF"></path><path fill-rule="evenodd" clip-rule="evenodd" d="M39.018 49.8624C37.4342 49.8624 36.1484 51.1482 36.1484 52.732C36.1484 54.3157 37.4342 55.6015 39.018 55.6015C40.6017 55.6015 41.8875 54.3157 41.8875 52.732C41.8875 51.1482 40.6017 49.8624 39.018 49.8624ZM39.018 51.7754C39.5459 51.7754 39.9745 52.204 39.9745 52.732C39.9745 53.2599 39.5459 53.6885 39.018 53.6885C38.4901 53.6885 38.0615 53.2599 38.0615 52.732C38.0615 52.204 38.4901 51.7754 39.018 51.7754Z" fill="#048DEF"></path><path fill-rule="evenodd" clip-rule="evenodd" d="M45.7133 43.167C44.1295 43.167 42.8438 44.4528 42.8438 46.0365C42.8438 47.6203 44.1295 48.9061 45.7133 48.9061C47.297 48.9061 48.5828 47.6203 48.5828 46.0365C48.5828 44.4528 47.297 43.167 45.7133 43.167ZM45.7133 45.08C46.2412 45.08 46.6698 45.5086 46.6698 46.0365C46.6698 46.5644 46.2412 46.993 45.7133 46.993C45.1854 46.993 44.7568 46.5644 44.7568 46.0365C44.7568 45.5086 45.1854 45.08 45.7133 45.08Z" fill="#048DEF"></path><path fill-rule="evenodd" clip-rule="evenodd" d="M51.4516 36.4713C49.8678 36.4713 48.582 37.7571 48.582 39.3408C48.582 40.9246 49.8678 42.2104 51.4516 42.2104C53.0353 42.2104 54.3211 40.9246 54.3211 39.3408C54.3211 37.7571 53.0353 36.4713 51.4516 36.4713ZM51.4516 38.3843C51.9795 38.3843 52.4081 38.8129 52.4081 39.3408C52.4081 39.8688 51.9795 40.2974 51.4516 40.2974C50.9237 40.2974 50.4951 39.8688 50.4951 39.3408C50.4951 38.8129 50.9237 38.3843 51.4516 38.3843Z" fill="#048DEF"></path><path fill-rule="evenodd" clip-rule="evenodd" d="M28.4945 49.8624C26.9108 49.8624 25.625 51.1482 25.625 52.732C25.625 54.3157 26.9108 55.6015 28.4945 55.6015C30.0783 55.6015 31.3641 54.3157 31.3641 52.732C31.3641 51.1482 30.0783 49.8624 28.4945 49.8624ZM28.4945 51.7754C29.0225 51.7754 29.451 52.204 29.451 52.732C29.451 53.2599 29.0225 53.6885 28.4945 53.6885C27.9666 53.6885 27.538 53.2599 27.538 52.732C27.538 52.204 27.9666 51.7754 28.4945 51.7754Z" fill="#048DEF"></path><path fill-rule="evenodd" clip-rule="evenodd" d="M37.1071 22.1236C37.1071 20.5396 35.8215 19.254 34.2379 19.254H22.7598C21.1762 19.254 19.8906 20.5396 19.8906 22.1236V33.6017C19.8906 35.1857 21.1762 36.4713 22.7598 36.4713H34.2379C35.8215 36.4713 37.1071 35.1857 37.1071 33.6017V22.1236ZM35.194 22.1236L35.1948 33.6017C35.1948 34.1297 34.7655 34.5582 34.2379 34.5582H22.7598C22.2322 34.5582 21.8036 34.1297 21.8036 33.6017V22.1236C21.8036 21.5956 22.2322 21.1671 22.7598 21.1671H34.2379C34.7655 21.1671 35.194 21.5956 35.194 22.1236Z" fill="#048DEF"></path><path fill-rule="evenodd" clip-rule="evenodd" d="M32.3242 24.9932C32.3242 24.4649 31.8959 24.0367 31.3676 24.0367H25.6285C25.1002 24.0367 24.6719 24.4649 24.6719 24.9932V30.7322C24.6719 31.2605 25.1002 31.6887 25.6285 31.6887H31.3676C31.8959 31.6887 32.3242 31.2605 32.3242 30.7322V24.9932ZM30.411 25.9496V29.7758H26.5851V25.9496H30.411Z" fill="#048DEF"></path><path fill-rule="evenodd" clip-rule="evenodd" d="M4.59756 18.936C2.32811 20.0081 0.757812 22.3186 0.757812 24.993C0.757812 28.6884 3.75744 31.6888 7.45341 31.6888H13.1905C13.7205 31.6888 14.149 31.2601 14.149 30.7321C14.149 30.2041 13.7205 29.7754 13.1905 29.7754H7.45341C4.81182 29.7754 2.66923 27.6324 2.66923 24.993C2.66923 23.0825 3.79409 21.4319 5.41513 20.6658C5.89157 20.4402 5.074 18.7105 4.59756 18.936Z" fill="#048DEF"></path><path fill-rule="evenodd" clip-rule="evenodd" d="M43.8023 31.6888H49.5393C53.2353 31.6888 56.2349 28.6884 56.2349 24.993C56.2349 22.3186 54.6646 20.0081 52.3952 18.936C51.9187 18.7105 51.1012 20.4402 51.5776 20.6658C53.1987 21.4319 54.3235 23.0825 54.3235 24.993C54.3235 27.6324 52.1809 29.7754 49.5393 29.7754H43.8023C43.2723 29.7754 42.8438 30.2041 42.8438 30.7321C42.8438 31.2601 43.2723 31.6888 43.8023 31.6888Z" fill="#048DEF"></path><path fill-rule="evenodd" clip-rule="evenodd" d="M27.5391 35.5148V39.3408C27.5391 39.8687 27.9676 40.2973 28.4956 40.2973C29.0236 40.2973 29.4521 39.8687 29.4521 39.3408V35.5148H27.5391Z" fill="#048DEF"></path><path fill-rule="evenodd" clip-rule="evenodd" d="M27.5391 43.1667V50.8188H29.4521V43.1667C29.4521 42.6387 29.0236 42.2102 28.4956 42.2102C27.9676 42.2102 27.5391 42.6387 27.5391 43.1667Z" fill="#048DEF"></path><path fill-rule="evenodd" clip-rule="evenodd" d="M32.3208 44.1235H38.0589V50.8191H39.9738V43.167C39.9738 42.6387 39.5453 42.2104 39.0163 42.2104H32.3208C31.7918 42.2104 31.3633 42.6391 31.3633 43.167C31.3633 43.6948 31.7918 44.1235 32.3208 44.1235Z" fill="#048DEF"></path><path fill-rule="evenodd" clip-rule="evenodd" d="M43.8003 35.5148H50.4958V37.4278H52.4089V34.5582C52.4089 34.03 51.9804 33.6017 51.4524 33.6017H43.8003C43.2723 33.6017 42.8438 34.0303 42.8438 34.5582C42.8438 35.0861 43.2723 35.5148 43.8003 35.5148Z" fill="#048DEF"></path><path fill-rule="evenodd" clip-rule="evenodd" d="M13.1946 33.6017H5.54245C5.01445 33.6017 4.58594 34.03 4.58594 34.5582V37.4278H6.49896V35.5146C6.49896 35.5148 13.1946 35.5148 13.1946 35.5148C13.7225 35.5148 14.1511 35.0861 14.1511 34.5582C14.1511 34.0303 13.7225 33.6017 13.1946 33.6017Z" fill="#048DEF"></path><path fill-rule="evenodd" clip-rule="evenodd" d="M39.0156 35.0366V39.3409C39.0156 39.8691 39.4441 40.2974 39.9731 40.2974H44.756V44.1234H46.6687V39.3409C46.6687 38.8125 46.2402 38.3844 45.7112 38.3844H40.9283V35.0366C40.9283 34.5087 40.4998 34.0801 39.9731 34.0801C39.4441 34.0801 39.0156 34.5087 39.0156 35.0366Z" fill="#048DEF"></path><path fill-rule="evenodd" clip-rule="evenodd" d="M16.0607 35.0366V38.3844H11.2778C10.7488 38.3844 10.3203 38.8125 10.3203 39.3409V44.1234H12.233V40.2974H17.0159C17.5449 40.2974 17.9734 39.8691 17.9734 39.3409V35.0366C17.9734 34.5087 17.5449 34.0801 17.0159 34.0801C16.4892 34.0801 16.0607 34.5087 16.0607 35.0366Z" fill="#048DEF"></path><path fill-rule="evenodd" clip-rule="evenodd" d="M24.6687 42.2104H17.9731C17.4441 42.2104 17.0156 42.6387 17.0156 43.167V50.8191H18.9306V44.1235H24.6687C25.1976 44.1235 25.6261 43.6948 25.6261 43.167C25.6261 42.6391 25.1976 42.2104 24.6687 42.2104Z" fill="#048DEF"></path><path fill-rule="evenodd" clip-rule="evenodd" d="M20.8451 26.9058H17.019C16.4912 26.9058 16.0625 27.3343 16.0625 27.8623C16.0625 28.3903 16.4912 28.8188 17.019 28.8188H20.8451V26.9058Z" fill="#048DEF"></path><path fill-rule="evenodd" clip-rule="evenodd" d="M27.5391 16.3845V20.2106H29.4521V16.3845C29.4521 15.8566 29.0236 15.428 28.4956 15.428C27.9676 15.428 27.5391 15.8566 27.5391 16.3845Z" fill="#048DEF"></path><path fill-rule="evenodd" clip-rule="evenodd" d="M27.5391 4.90634V12.5584C27.5391 13.0864 27.9676 13.5149 28.4956 13.5149C29.0236 13.5149 29.4521 13.0864 29.4521 12.5584V4.90634C29.4521 4.37835 29.0236 3.94983 28.4956 3.94983C27.9676 3.94983 27.5391 4.37835 27.5391 4.90634Z" fill="#048DEF"></path><path fill-rule="evenodd" clip-rule="evenodd" d="M39.9745 26.9055H36.1484V28.8185H39.9745C40.5024 28.8185 40.931 28.39 40.931 27.862C40.931 27.334 40.5024 26.9055 39.9745 26.9055Z" fill="#048DEF"></path><path fill-rule="evenodd" clip-rule="evenodd" d="M23.7109 35.5148V39.3408C23.7109 39.8687 24.1395 40.2973 24.6674 40.2973C25.1954 40.2973 25.624 39.8687 25.624 39.3408V35.5148H23.7109Z" fill="#048DEF"></path><path fill-rule="evenodd" clip-rule="evenodd" d="M20.8451 23.0795H17.019C16.4912 23.0795 16.0625 23.508 16.0625 24.036C16.0625 24.564 16.4912 24.9925 17.019 24.9925H20.8451V23.0795Z" fill="#048DEF"></path><path fill-rule="evenodd" clip-rule="evenodd" d="M23.7109 16.3845V20.2106H25.624V16.3845C25.624 15.8566 25.1954 15.428 24.6674 15.428C24.1395 15.428 23.7109 15.8566 23.7109 16.3845Z" fill="#048DEF"></path><path fill-rule="evenodd" clip-rule="evenodd" d="M39.9745 23.0795H36.1484V24.9925H39.9745C40.5024 24.9925 40.931 24.564 40.931 24.036C40.931 23.508 40.5024 23.0795 39.9745 23.0795Z" fill="#048DEF"></path><path fill-rule="evenodd" clip-rule="evenodd" d="M31.3672 35.5148V39.3408C31.3672 39.8687 31.7957 40.2973 32.3237 40.2973C32.8517 40.2973 33.2802 39.8687 33.2802 39.3408V35.5148H31.3672Z" fill="#048DEF"></path><path fill-rule="evenodd" clip-rule="evenodd" d="M20.8451 30.7317H17.019C16.4912 30.7317 16.0625 31.1602 16.0625 31.6882C16.0625 32.2162 16.4912 32.6447 17.019 32.6447H20.8451V30.7317Z" fill="#048DEF"></path><path fill-rule="evenodd" clip-rule="evenodd" d="M31.3672 16.3845V20.2106H33.2802V16.3845C33.2802 15.8566 32.8517 15.428 32.3237 15.428C31.7957 15.428 31.3672 15.8566 31.3672 16.3845Z" fill="#048DEF"></path><path fill-rule="evenodd" clip-rule="evenodd" d="M39.9745 30.7317H36.1484V32.6447H39.9745C40.5024 32.6447 40.931 32.2162 40.931 31.6882C40.931 31.1602 40.5024 30.7317 39.9745 30.7317Z" fill="#048DEF"></path></svg>