<svg xmlns="http://www.w3.org/2000/svg" width="52" height="52" viewBox="0 0 52 52" fill="none"><path d="M17.7908 51.093C18.1208 51.4269 18.6553 51.4269 18.9853 51.093L23.2091 46.8144L22.0146 45.6043L18.388 49.2779L2.68743 33.3734L12.2272 23.7097L11.0327 22.4996L0.895616 32.7684C0.566045 33.1026 0.566045 33.6442 0.895616 33.9784L17.7908 51.093Z" fill="#0458B9"></path><path d="M51.3315 17.8764L49.642 2.47328C49.5982 2.07508 49.2881 1.76045 48.895 1.71657L33.6893 0.00511754C33.4348 -0.0220418 33.1811 0.0682108 32.9992 0.250805L27.0859 6.24091L28.2805 7.45096L33.9067 1.75167L48.042 3.34154L49.6114 17.6562L46.2968 21.0143L44.6914 10.0771C45.8438 9.61326 46.4989 8.37647 46.2427 7.14761C45.987 5.91875 44.8943 5.0555 43.6552 5.10272C42.4166 5.15035 41.3915 6.09466 41.2278 7.33981C41.064 8.58455 41.8094 9.76786 42.9928 10.1422L44.2995 19.0417L32.5043 7.09663C32.1743 6.76236 31.6397 6.76236 31.3097 7.09663L27.0859 11.3753L28.2805 12.5853L31.907 8.91171L42.5391 19.6819L40.6021 21.644L41.7966 22.8541L44.3309 20.2869C44.3787 20.2317 44.4191 20.1703 44.4509 20.1047L44.8056 22.5202L43.1363 24.2112L44.3309 25.4213L45.1146 24.627L45.6512 28.2742C45.7787 29.3272 46.4655 30.2247 47.4401 30.6125C48.4152 31.0002 49.5211 30.8159 50.3221 30.1324C51.1228 29.4488 51.4899 28.3762 51.2783 27.337L49.7236 19.9581L51.0889 18.5754C51.2704 18.3916 51.3595 18.1346 51.3315 17.8764ZM43.7336 6.84593C44.2001 6.84593 44.5784 7.22909 44.5784 7.70166C44.5784 8.17423 44.2001 8.55739 43.7336 8.55739C43.2671 8.55739 42.8888 8.17423 42.8888 7.70166C42.8888 7.22909 43.2671 6.84593 43.7336 6.84593ZM49.6242 27.6847C49.7051 28.1088 49.5508 28.5442 49.2212 28.8191C48.8921 29.094 48.4404 29.1642 48.0448 29.0021C47.6493 28.84 47.3729 28.4719 47.3246 28.0423L46.6057 23.1211L48.3047 21.4L49.6242 27.6847Z" fill="#0458B9"></path><path d="M6.80859 33.2819L12.2991 27.7201L13.4936 28.9301L8.00313 34.492L6.80859 33.2819Z" fill="#0458B9"></path><path d="M9.42578 35.9344L14.9163 30.3726L16.1112 31.5826L10.6203 37.1444L9.42578 35.9344Z" fill="#0458B9"></path><path d="M12.0469 38.5868L15.2568 35.3352L16.4517 36.5453L13.2414 39.7969L12.0469 38.5868Z" fill="#0458B9"></path><path d="M14.6641 41.2401L16.9455 38.9294L18.14 40.1395L15.859 42.4505L14.6641 41.2401Z" fill="#0458B9"></path><path d="M17.2852 43.8929L18.9747 42.1819L20.1692 43.3919L18.4801 45.103L17.2852 43.8929Z" fill="#0458B9"></path><path d="M31.0609 47.0651C33.9388 47.0639 36.7404 46.1262 39.0523 44.3901L45.1446 50.5616C46.1746 51.6045 47.8439 51.6045 48.8735 50.5616C49.903 49.5186 49.903 47.8272 48.8735 46.7843L42.6401 40.47L42.532 40.5795C45.7662 35.28 45.056 28.4363 40.8054 23.9337C36.5543 19.4307 29.8367 18.407 24.4662 21.4434C19.0953 24.4798 16.4291 30.8092 17.9812 36.8382C19.533 42.8667 24.9105 47.0714 31.0609 47.0651ZM47.6789 47.9944C48.0489 48.3692 48.0489 48.9767 47.6789 49.3515C47.3089 49.7263 46.7092 49.7263 46.3392 49.3515L40.3533 43.2887C40.8132 42.8479 41.2418 42.3753 41.6365 41.8743L47.6789 47.9944ZM31.0609 21.3933C37.5926 21.3933 42.8876 26.757 42.8876 33.3735C42.8876 39.9899 37.5926 45.3537 31.0609 45.3537C24.5293 45.3537 19.2343 39.9899 19.2343 33.3735C19.2414 26.7599 24.5322 21.4004 31.0609 21.3933Z" fill="#0458B9"></path><path d="M31.059 43.6422C36.6576 43.6422 41.1961 39.0448 41.1961 33.3735C41.1961 27.7022 36.6576 23.1047 31.059 23.1047C25.4604 23.1047 20.9219 27.7022 20.9219 33.3735C20.9281 39.0423 25.4629 43.636 31.059 43.6422ZM31.059 24.8162C35.7245 24.8162 39.5065 28.6473 39.5065 33.3735C39.5065 38.0996 35.7245 41.9308 31.059 41.9308C26.3934 41.9308 22.6114 38.0996 22.6114 33.3735C22.6163 28.6494 26.3955 24.8212 31.059 24.8162Z" fill="#0458B9"></path><path d="M31.9035 36.7963H30.214C29.7474 36.7963 29.3692 36.4132 29.3692 35.9406H27.6797C27.6797 37.3583 28.8144 38.5078 30.214 38.5078V40.2192H31.9035V38.5078C33.303 38.5078 34.4377 37.3583 34.4377 35.9406V35.0849C34.4377 33.6672 33.303 32.5177 31.9035 32.5177H30.214C29.7474 32.5177 29.3692 32.1345 29.3692 31.662V30.8062C29.3692 30.3337 29.7474 29.9505 30.214 29.9505H31.9035C32.37 29.9505 32.7482 30.3337 32.7482 30.8062H34.4377C34.4377 29.3885 33.303 28.239 31.9035 28.239V26.5276H30.214V28.239C28.8144 28.239 27.6797 29.3885 27.6797 30.8062V31.662C27.6797 33.0797 28.8144 34.2291 30.214 34.2291H31.9035C32.37 34.2291 32.7482 34.6123 32.7482 35.0849V35.9406C32.7482 36.4132 32.37 36.7963 31.9035 36.7963Z" fill="#0458B9"></path><path d="M4.87223 20.5375H10.5154L16.208 24.6561C16.3511 24.7601 16.5227 24.8161 16.6988 24.8161C16.8614 24.8157 17.0206 24.7681 17.1575 24.6791C17.45 24.4877 17.5964 24.1346 17.5267 23.7891L16.8849 20.5375H21.7674C24.0991 20.5346 25.9883 18.6205 25.9912 16.2588V4.27864C25.9883 1.91661 24.0991 0.00292485 21.7674 0H4.87223C2.54048 0.00292485 0.651325 1.91661 0.648438 4.27864V16.2588C0.651325 18.6205 2.54048 20.5346 4.87223 20.5375ZM2.33795 4.27864C2.33795 2.86092 3.47268 1.71146 4.87223 1.71146H21.7674C23.1669 1.71146 24.3017 2.86092 24.3017 4.27864V16.2588C24.3017 17.6766 23.1669 18.826 21.7674 18.826H15.8541C15.6004 18.826 15.3599 18.9414 15.1995 19.1402C15.039 19.3396 14.9755 19.6011 15.0262 19.8527L15.4486 22.0099L11.2739 18.9894C11.132 18.8845 10.9612 18.8273 10.7855 18.826H4.87223C3.47268 18.826 2.33795 17.6766 2.33795 16.2588V4.27864Z" fill="#0458B9"></path><path d="M4.8721 17.1146H22.612V15.4032H5.71686V13.1209L7.40637 10.8396L9.26501 13.3495C9.43454 13.5647 9.69151 13.6904 9.96333 13.6917C10.2376 13.6842 10.4913 13.5421 10.6435 13.3106L13.3947 9.12976L16.8938 13.3846C17.0551 13.5789 17.2927 13.6913 17.5435 13.6917C17.5699 13.6934 17.5963 13.6934 17.6231 13.6917C17.9003 13.665 18.1465 13.502 18.2818 13.2551L22.5056 5.5535L21.0289 4.72368L17.4032 11.3334L13.9693 7.15716C13.8006 6.94574 13.542 6.82958 13.2739 6.84587C13.0083 6.8605 12.7645 7.00131 12.6168 7.22569L9.90022 11.3556L8.08202 8.89954C7.91579 8.6948 7.66789 8.57613 7.40637 8.57613C7.14486 8.57613 6.89696 8.6948 6.73073 8.89954L5.71686 10.2688V4.27869H4.02734V16.2589C4.02734 16.7315 4.40559 17.1146 4.8721 17.1146Z" fill="#0458B9"></path></svg>