<svg xmlns="http://www.w3.org/2000/svg" width="49" height="52" viewBox="0 0 49 52" fill="none"><mask id="path-1-outside-1_1572_25" maskUnits="userSpaceOnUse" x="-0.0976562" y="0" width="49" height="52" fill="black"><rect fill="white" x="-0.0976562" width="49" height="52"></rect><path fill-rule="evenodd" clip-rule="evenodd" d="M24.9448 6.46587C25.4485 6.46587 25.8595 6.87543 25.8595 7.3791C25.8595 7.88328 25.4485 8.29274 24.9448 8.29274C24.4417 8.29274 24.0312 7.88318 24.0312 7.3791C24.0312 6.87533 24.4417 6.46587 24.9448 6.46587ZM24.9448 9.30912C25.8327 9.30912 26.5805 8.70555 26.8056 7.88744H28.2029C28.8714 7.88744 28.8717 6.87106 28.2029 6.87106H26.8056C26.6255 6.21444 26.1094 5.69837 25.4528 5.5192V3.17759C25.4528 2.8976 25.2262 2.66965 24.9448 2.66965C24.6643 2.66965 24.4364 2.8976 24.4364 3.17759V5.5192C23.6183 5.74289 23.0147 6.49117 23.0147 7.3791C23.0147 8.44325 23.8806 9.30912 24.9448 9.30912ZM31.1064 49.7816H18.7837V46.5212C18.7837 43.956 20.3602 41.753 22.5952 40.827C22.8795 41.2996 23.3005 41.6737 23.7942 41.9022L23.1094 47.24C23.0889 47.3997 23.1462 47.5601 23.2619 47.672L24.5941 48.9455C24.7903 49.134 25.1 49.133 25.2966 48.9455L26.6279 47.672C26.7445 47.5602 26.8014 47.3997 26.7812 47.24L26.0951 41.9037C26.5901 41.6738 27.0106 41.2997 27.2955 40.8271C29.53 41.7532 31.1065 43.9562 31.1065 46.5213L31.1064 49.7816ZM24.9457 41.1432C25.471 41.1432 25.9598 40.9015 26.2828 40.5082C25.631 40.3797 24.9623 40.3056 24.2767 40.3973L23.6072 40.5082C23.9303 40.9014 24.4191 41.1432 24.9457 41.1432ZM25.7405 47.1146L25.1031 42.1534H24.7872L24.1502 47.1146L24.9449 47.8749L25.7405 47.1146ZM26.9346 39.6269C25.9256 39.3172 24.7567 39.2724 23.7172 39.4511C20.3683 40.0271 17.7677 42.964 17.7677 46.5212V50.2897C17.7677 50.5702 17.9952 50.7981 18.2757 50.7981H31.6144C31.8949 50.7981 32.1223 50.5702 32.1223 50.2897V46.5212C32.1224 43.254 29.9276 40.4914 26.9346 39.6269ZM27.2009 34.5949C27.2009 35.8594 26.1725 36.8878 24.908 36.8878C23.6436 36.8878 22.6152 35.8594 22.6152 34.5949C22.6152 33.331 23.6436 32.3026 24.908 32.3026C26.1725 32.3027 27.2009 33.331 27.2009 34.5949ZM21.5988 34.5949C21.5988 36.4204 23.0831 37.9041 24.908 37.9041C26.7326 37.9041 28.2173 36.4204 28.2173 34.5949C28.2173 32.7709 26.7326 31.2862 24.908 31.2862C23.083 31.2862 21.5988 32.771 21.5988 34.5949ZM40.5739 27.0767C39.9051 27.0767 39.9052 26.0607 40.5739 26.0607H45.1643C45.8317 26.0607 45.8318 27.0767 45.1643 27.0767H40.5739ZM40.066 23.6762C40.066 23.3948 40.2934 23.1683 40.5739 23.1683H45.1643C45.8322 23.1683 45.8315 24.1842 45.1643 24.1842H40.5739C40.2934 24.1841 40.066 23.9567 40.066 23.6762ZM40.066 20.7827C40.066 20.5022 40.2934 20.2748 40.5739 20.2748H45.1643C45.8319 20.2748 45.8316 21.2912 45.1643 21.2912H40.5739C40.2934 21.2912 40.066 21.0637 40.066 20.7827ZM46.617 29.781L44.8871 31.5076V29.781H46.617ZM38.4045 32.026C38.4045 32.1522 38.5111 32.2577 38.6363 32.2577H43.8742V29.273C43.8742 28.9925 44.0988 28.765 44.3807 28.765H47.3339V18.9578C47.3339 18.8317 47.2288 18.726 47.0998 18.726H38.6363C38.5111 18.726 38.4045 18.8316 38.4045 18.9578V32.026ZM47.0997 17.7095H38.6362C37.948 17.7095 37.388 18.2696 37.388 18.9577V32.026C37.388 32.7141 37.948 33.2742 38.6362 33.2742H44.3472C44.4857 33.2742 44.6148 33.2202 44.7104 33.1256L48.2036 29.6319C48.2991 29.5373 48.3516 29.4073 48.3516 29.2731V18.9578C48.3516 18.2696 47.7926 17.7095 47.0997 17.7095ZM11.3366 32.1927H10.1974V18.7909H11.3366V32.1927ZM9.68942 17.7751C9.40893 17.7751 9.18148 18.0025 9.18148 18.283V32.7007C9.18148 32.9812 9.40893 33.2091 9.68942 33.2091H11.8447C12.1251 33.2091 12.3531 32.9812 12.3531 32.7007V18.283C12.3531 18.0025 12.1251 17.7751 11.8447 17.7751H9.68942ZM7.19638 32.1927H6.05804V22.2311H7.19638V32.1927ZM7.70432 21.2147H5.55011C5.26961 21.2147 5.04166 21.4426 5.04166 21.7231V32.7007C5.04166 32.9812 5.26961 33.2091 5.55011 33.2091H7.70432C7.98583 33.2091 8.21276 32.9812 8.21276 32.7007V21.7232C8.21276 21.4426 7.98583 21.2147 7.70432 21.2147ZM3.05706 32.1927H1.91883V25.7645H3.05717L3.05706 32.1927ZM3.5651 24.7486H1.41079C1.1303 24.7486 0.902344 24.976 0.902344 25.2565V32.7007C0.902344 32.9812 1.1303 33.2091 1.41079 33.2091H3.565C3.8455 33.2091 4.07294 32.9812 4.07294 32.7007V25.2565C4.07304 24.976 3.8456 24.7486 3.5651 24.7486ZM24.9448 2.01638C21.9883 2.01638 19.5827 4.42192 19.5827 7.379C19.5827 10.3356 21.9883 12.7421 24.9448 12.7421C27.9018 12.7421 30.3074 10.3356 30.3074 7.379C30.3074 4.42202 27.9018 2.01638 24.9448 2.01638ZM24.9448 13.7585C28.462 13.7585 31.3238 10.8966 31.3238 7.379C31.3238 3.86185 28.4619 1 24.9448 1C21.4273 1 18.5662 3.86195 18.5662 7.379C18.5662 10.8966 21.4273 13.7585 24.9448 13.7585Z"></path></mask><path fill-rule="evenodd" clip-rule="evenodd" d="M24.9448 6.46587C25.4485 6.46587 25.8595 6.87543 25.8595 7.3791C25.8595 7.88328 25.4485 8.29274 24.9448 8.29274C24.4417 8.29274 24.0312 7.88318 24.0312 7.3791C24.0312 6.87533 24.4417 6.46587 24.9448 6.46587ZM24.9448 9.30912C25.8327 9.30912 26.5805 8.70555 26.8056 7.88744H28.2029C28.8714 7.88744 28.8717 6.87106 28.2029 6.87106H26.8056C26.6255 6.21444 26.1094 5.69837 25.4528 5.5192V3.17759C25.4528 2.8976 25.2262 2.66965 24.9448 2.66965C24.6643 2.66965 24.4364 2.8976 24.4364 3.17759V5.5192C23.6183 5.74289 23.0147 6.49117 23.0147 7.3791C23.0147 8.44325 23.8806 9.30912 24.9448 9.30912ZM31.1064 49.7816H18.7837V46.5212C18.7837 43.956 20.3602 41.753 22.5952 40.827C22.8795 41.2996 23.3005 41.6737 23.7942 41.9022L23.1094 47.24C23.0889 47.3997 23.1462 47.5601 23.2619 47.672L24.5941 48.9455C24.7903 49.134 25.1 49.133 25.2966 48.9455L26.6279 47.672C26.7445 47.5602 26.8014 47.3997 26.7812 47.24L26.0951 41.9037C26.5901 41.6738 27.0106 41.2997 27.2955 40.8271C29.53 41.7532 31.1065 43.9562 31.1065 46.5213L31.1064 49.7816ZM24.9457 41.1432C25.471 41.1432 25.9598 40.9015 26.2828 40.5082C25.631 40.3797 24.9623 40.3056 24.2767 40.3973L23.6072 40.5082C23.9303 40.9014 24.4191 41.1432 24.9457 41.1432ZM25.7405 47.1146L25.1031 42.1534H24.7872L24.1502 47.1146L24.9449 47.8749L25.7405 47.1146ZM26.9346 39.6269C25.9256 39.3172 24.7567 39.2724 23.7172 39.4511C20.3683 40.0271 17.7677 42.964 17.7677 46.5212V50.2897C17.7677 50.5702 17.9952 50.7981 18.2757 50.7981H31.6144C31.8949 50.7981 32.1223 50.5702 32.1223 50.2897V46.5212C32.1224 43.254 29.9276 40.4914 26.9346 39.6269ZM27.2009 34.5949C27.2009 35.8594 26.1725 36.8878 24.908 36.8878C23.6436 36.8878 22.6152 35.8594 22.6152 34.5949C22.6152 33.331 23.6436 32.3026 24.908 32.3026C26.1725 32.3027 27.2009 33.331 27.2009 34.5949ZM21.5988 34.5949C21.5988 36.4204 23.0831 37.9041 24.908 37.9041C26.7326 37.9041 28.2173 36.4204 28.2173 34.5949C28.2173 32.7709 26.7326 31.2862 24.908 31.2862C23.083 31.2862 21.5988 32.771 21.5988 34.5949ZM40.5739 27.0767C39.9051 27.0767 39.9052 26.0607 40.5739 26.0607H45.1643C45.8317 26.0607 45.8318 27.0767 45.1643 27.0767H40.5739ZM40.066 23.6762C40.066 23.3948 40.2934 23.1683 40.5739 23.1683H45.1643C45.8322 23.1683 45.8315 24.1842 45.1643 24.1842H40.5739C40.2934 24.1841 40.066 23.9567 40.066 23.6762ZM40.066 20.7827C40.066 20.5022 40.2934 20.2748 40.5739 20.2748H45.1643C45.8319 20.2748 45.8316 21.2912 45.1643 21.2912H40.5739C40.2934 21.2912 40.066 21.0637 40.066 20.7827ZM46.617 29.781L44.8871 31.5076V29.781H46.617ZM38.4045 32.026C38.4045 32.1522 38.5111 32.2577 38.6363 32.2577H43.8742V29.273C43.8742 28.9925 44.0988 28.765 44.3807 28.765H47.3339V18.9578C47.3339 18.8317 47.2288 18.726 47.0998 18.726H38.6363C38.5111 18.726 38.4045 18.8316 38.4045 18.9578V32.026ZM47.0997 17.7095H38.6362C37.948 17.7095 37.388 18.2696 37.388 18.9577V32.026C37.388 32.7141 37.948 33.2742 38.6362 33.2742H44.3472C44.4857 33.2742 44.6148 33.2202 44.7104 33.1256L48.2036 29.6319C48.2991 29.5373 48.3516 29.4073 48.3516 29.2731V18.9578C48.3516 18.2696 47.7926 17.7095 47.0997 17.7095ZM11.3366 32.1927H10.1974V18.7909H11.3366V32.1927ZM9.68942 17.7751C9.40893 17.7751 9.18148 18.0025 9.18148 18.283V32.7007C9.18148 32.9812 9.40893 33.2091 9.68942 33.2091H11.8447C12.1251 33.2091 12.3531 32.9812 12.3531 32.7007V18.283C12.3531 18.0025 12.1251 17.7751 11.8447 17.7751H9.68942ZM7.19638 32.1927H6.05804V22.2311H7.19638V32.1927ZM7.70432 21.2147H5.55011C5.26961 21.2147 5.04166 21.4426 5.04166 21.7231V32.7007C5.04166 32.9812 5.26961 33.2091 5.55011 33.2091H7.70432C7.98583 33.2091 8.21276 32.9812 8.21276 32.7007V21.7232C8.21276 21.4426 7.98583 21.2147 7.70432 21.2147ZM3.05706 32.1927H1.91883V25.7645H3.05717L3.05706 32.1927ZM3.5651 24.7486H1.41079C1.1303 24.7486 0.902344 24.976 0.902344 25.2565V32.7007C0.902344 32.9812 1.1303 33.2091 1.41079 33.2091H3.565C3.8455 33.2091 4.07294 32.9812 4.07294 32.7007V25.2565C4.07304 24.976 3.8456 24.7486 3.5651 24.7486ZM24.9448 2.01638C21.9883 2.01638 19.5827 4.42192 19.5827 7.379C19.5827 10.3356 21.9883 12.7421 24.9448 12.7421C27.9018 12.7421 30.3074 10.3356 30.3074 7.379C30.3074 4.42202 27.9018 2.01638 24.9448 2.01638ZM24.9448 13.7585C28.462 13.7585 31.3238 10.8966 31.3238 7.379C31.3238 3.86185 28.4619 1 24.9448 1C21.4273 1 18.5662 3.86195 18.5662 7.379C18.5662 10.8966 21.4273 13.7585 24.9448 13.7585Z" fill="#0369CA"></path><path fill-rule="evenodd" clip-rule="evenodd" d="M24.9448 6.46587C25.4485 6.46587 25.8595 6.87543 25.8595 7.3791C25.8595 7.88328 25.4485 8.29274 24.9448 8.29274C24.4417 8.29274 24.0312 7.88318 24.0312 7.3791C24.0312 6.87533 24.4417 6.46587 24.9448 6.46587ZM24.9448 9.30912C25.8327 9.30912 26.5805 8.70555 26.8056 7.88744H28.2029C28.8714 7.88744 28.8717 6.87106 28.2029 6.87106H26.8056C26.6255 6.21444 26.1094 5.69837 25.4528 5.5192V3.17759C25.4528 2.8976 25.2262 2.66965 24.9448 2.66965C24.6643 2.66965 24.4364 2.8976 24.4364 3.17759V5.5192C23.6183 5.74289 23.0147 6.49117 23.0147 7.3791C23.0147 8.44325 23.8806 9.30912 24.9448 9.30912ZM31.1064 49.7816H18.7837V46.5212C18.7837 43.956 20.3602 41.753 22.5952 40.827C22.8795 41.2996 23.3005 41.6737 23.7942 41.9022L23.1094 47.24C23.0889 47.3997 23.1462 47.5601 23.2619 47.672L24.5941 48.9455C24.7903 49.134 25.1 49.133 25.2966 48.9455L26.6279 47.672C26.7445 47.5602 26.8014 47.3997 26.7812 47.24L26.0951 41.9037C26.5901 41.6738 27.0106 41.2997 27.2955 40.8271C29.53 41.7532 31.1065 43.9562 31.1065 46.5213L31.1064 49.7816ZM24.9457 41.1432C25.471 41.1432 25.9598 40.9015 26.2828 40.5082C25.631 40.3797 24.9623 40.3056 24.2767 40.3973L23.6072 40.5082C23.9303 40.9014 24.4191 41.1432 24.9457 41.1432ZM25.7405 47.1146L25.1031 42.1534H24.7872L24.1502 47.1146L24.9449 47.8749L25.7405 47.1146ZM26.9346 39.6269C25.9256 39.3172 24.7567 39.2724 23.7172 39.4511C20.3683 40.0271 17.7677 42.964 17.7677 46.5212V50.2897C17.7677 50.5702 17.9952 50.7981 18.2757 50.7981H31.6144C31.8949 50.7981 32.1223 50.5702 32.1223 50.2897V46.5212C32.1224 43.254 29.9276 40.4914 26.9346 39.6269ZM27.2009 34.5949C27.2009 35.8594 26.1725 36.8878 24.908 36.8878C23.6436 36.8878 22.6152 35.8594 22.6152 34.5949C22.6152 33.331 23.6436 32.3026 24.908 32.3026C26.1725 32.3027 27.2009 33.331 27.2009 34.5949ZM21.5988 34.5949C21.5988 36.4204 23.0831 37.9041 24.908 37.9041C26.7326 37.9041 28.2173 36.4204 28.2173 34.5949C28.2173 32.7709 26.7326 31.2862 24.908 31.2862C23.083 31.2862 21.5988 32.771 21.5988 34.5949ZM40.5739 27.0767C39.9051 27.0767 39.9052 26.0607 40.5739 26.0607H45.1643C45.8317 26.0607 45.8318 27.0767 45.1643 27.0767H40.5739ZM40.066 23.6762C40.066 23.3948 40.2934 23.1683 40.5739 23.1683H45.1643C45.8322 23.1683 45.8315 24.1842 45.1643 24.1842H40.5739C40.2934 24.1841 40.066 23.9567 40.066 23.6762ZM40.066 20.7827C40.066 20.5022 40.2934 20.2748 40.5739 20.2748H45.1643C45.8319 20.2748 45.8316 21.2912 45.1643 21.2912H40.5739C40.2934 21.2912 40.066 21.0637 40.066 20.7827ZM46.617 29.781L44.8871 31.5076V29.781H46.617ZM38.4045 32.026C38.4045 32.1522 38.5111 32.2577 38.6363 32.2577H43.8742V29.273C43.8742 28.9925 44.0988 28.765 44.3807 28.765H47.3339V18.9578C47.3339 18.8317 47.2288 18.726 47.0998 18.726H38.6363C38.5111 18.726 38.4045 18.8316 38.4045 18.9578V32.026ZM47.0997 17.7095H38.6362C37.948 17.7095 37.388 18.2696 37.388 18.9577V32.026C37.388 32.7141 37.948 33.2742 38.6362 33.2742H44.3472C44.4857 33.2742 44.6148 33.2202 44.7104 33.1256L48.2036 29.6319C48.2991 29.5373 48.3516 29.4073 48.3516 29.2731V18.9578C48.3516 18.2696 47.7926 17.7095 47.0997 17.7095ZM11.3366 32.1927H10.1974V18.7909H11.3366V32.1927ZM9.68942 17.7751C9.40893 17.7751 9.18148 18.0025 9.18148 18.283V32.7007C9.18148 32.9812 9.40893 33.2091 9.68942 33.2091H11.8447C12.1251 33.2091 12.3531 32.9812 12.3531 32.7007V18.283C12.3531 18.0025 12.1251 17.7751 11.8447 17.7751H9.68942ZM7.19638 32.1927H6.05804V22.2311H7.19638V32.1927ZM7.70432 21.2147H5.55011C5.26961 21.2147 5.04166 21.4426 5.04166 21.7231V32.7007C5.04166 32.9812 5.26961 33.2091 5.55011 33.2091H7.70432C7.98583 33.2091 8.21276 32.9812 8.21276 32.7007V21.7232C8.21276 21.4426 7.98583 21.2147 7.70432 21.2147ZM3.05706 32.1927H1.91883V25.7645H3.05717L3.05706 32.1927ZM3.5651 24.7486H1.41079C1.1303 24.7486 0.902344 24.976 0.902344 25.2565V32.7007C0.902344 32.9812 1.1303 33.2091 1.41079 33.2091H3.565C3.8455 33.2091 4.07294 32.9812 4.07294 32.7007V25.2565C4.07304 24.976 3.8456 24.7486 3.5651 24.7486ZM24.9448 2.01638C21.9883 2.01638 19.5827 4.42192 19.5827 7.379C19.5827 10.3356 21.9883 12.7421 24.9448 12.7421C27.9018 12.7421 30.3074 10.3356 30.3074 7.379C30.3074 4.42202 27.9018 2.01638 24.9448 2.01638ZM24.9448 13.7585C28.462 13.7585 31.3238 10.8966 31.3238 7.379C31.3238 3.86185 28.4619 1 24.9448 1C21.4273 1 18.5662 3.86195 18.5662 7.379C18.5662 10.8966 21.4273 13.7585 24.9448 13.7585Z" stroke="#0369CA" stroke-width="0.6" mask="url(#path-1-outside-1_1572_25)"></path><path d="M7.64366 13.6354L7.64374 13.6353C9.35633 11.1685 11.6274 9.06184 14.2113 7.54176L7.64366 13.6354ZM7.64366 13.6354C7.33977 14.074 7.65817 14.6684 8.18363 14.6684C8.39201 14.6684 8.59675 14.5701 8.72451 14.3856C10.3298 12.0752 12.4584 10.1003 14.8786 8.67623L14.8787 8.6762M7.64366 13.6354L14.8787 8.6762M14.8787 8.6762C15.1915 8.49196 15.2971 8.08812 15.1126 7.77474M14.8787 8.6762L15.1126 7.77474M15.1126 7.77474C14.9285 7.46114 14.5242 7.35752 14.2114 7.54173L15.1126 7.77474Z" fill="#0369CA" stroke="#0369CA" stroke-width="0.3"></path><path d="M34.6726 8.70657L34.6726 8.70655C34.3596 8.52089 34.2568 8.11798 34.4423 7.80485C34.6266 7.49247 35.0313 7.38898 35.3441 7.57439C37.9218 9.10173 40.1837 11.2131 41.8872 13.6789L34.6726 8.70657ZM34.6726 8.70657C37.0869 10.1377 39.2074 12.1164 40.8035 14.4272M34.6726 8.70657L40.8035 14.4272M40.8035 14.4272C41.0117 14.7289 41.4246 14.7994 41.7187 14.5953M40.8035 14.4272L41.7187 14.5953M41.7187 14.5953C42.0169 14.389 42.0943 13.9785 41.8872 13.679L41.7187 14.5953Z" fill="#0369CA" stroke="#0369CA" stroke-width="0.3"></path><path d="M40.9002 38.6189C41.1299 38.3371 41.0871 37.9225 40.8055 37.6934L40.8055 37.6934L40.8052 37.6931C40.5227 37.4645 40.1094 37.5064 39.8792 37.7879L39.879 37.7882C38.1272 39.9415 35.8891 41.732 33.409 42.9644L33.409 42.9645C32.7858 43.2743 33.0143 44.2121 33.7023 44.2121C33.801 44.2121 33.9017 44.1899 33.9957 44.1422C36.6424 42.8266 39.0303 40.9181 40.9002 38.6189ZM40.9002 38.6189C40.9002 38.6189 40.9001 38.619 40.9001 38.619L40.7839 38.5242L40.9002 38.6188C40.9002 38.6189 40.9002 38.6189 40.9002 38.6189Z" fill="#0369CA" stroke="#0369CA" stroke-width="0.3"></path><path d="M8.94226 38.008L8.94227 38.008C9.21984 37.7742 9.6344 37.8081 9.86961 38.0859L8.94226 38.008ZM8.94226 38.008L8.94158 38.0086M8.94226 38.008L8.94158 38.0086M8.94158 38.0086C8.66554 38.2439 8.62975 38.6584 8.86569 38.9364C10.8064 41.2281 13.2657 43.1065 15.9778 44.3687C16.3036 44.5208 16.6969 44.3831 16.8518 44.0504L16.8519 44.0502M8.94158 38.0086L16.8519 44.0502M16.8519 44.0502C17.0045 43.7213 16.8627 43.329 16.533 43.1759C13.9928 41.9928 11.6893 40.2333 9.86966 38.086L16.8519 44.0502Z" fill="#0369CA" stroke="#0369CA" stroke-width="0.3"></path></svg>