<svg xmlns="http://www.w3.org/2000/svg" width="53" height="52" viewBox="0 0 53 52" fill="none"><path d="M4.82692 51.0856H43.7692C44.2471 51.0856 44.6346 50.7044 44.6346 50.2342V28.0971H42.9038V49.3828H4.82692C3.39321 49.3828 2.23077 48.2391 2.23077 46.8285C2.23077 45.4179 3.39321 44.2742 4.82692 44.2742H6.55769C7.03559 44.2742 7.42307 43.893 7.42307 43.4228V17.88H21.2692V16.1771H7.42307V10.2171C7.42307 9.74695 7.03559 9.36572 6.55769 9.36572H4.82692C2.43824 9.36863 0.502958 11.2727 0.5 13.6229V46.8285C0.502958 49.1786 2.43824 51.0827 4.82692 51.0856ZM2.23077 17.0286V13.6229C2.23077 12.2123 3.39321 11.0686 4.82692 11.0686H5.6923V42.5713H4.82692C3.89055 42.5701 2.97911 42.869 2.23077 43.4228V17.0286Z" fill="#048DEF"></path><path d="M20.4023 20.4342H10.0177C9.53982 20.4342 9.15234 20.8154 9.15234 21.2856V28.097C9.15234 28.5672 9.53982 28.9485 10.0177 28.9485H20.4023C20.8802 28.9485 21.2677 28.5672 21.2677 28.097V25.5428H24.7293V23.8399H21.2677V21.2856C21.2677 20.8154 20.8802 20.4342 20.4023 20.4342ZM19.537 27.2456H10.8831V22.1371H19.537V27.2456Z" fill="#048DEF"></path><path d="M29.0562 44.2742H39.4408C39.9187 44.2742 40.3062 43.893 40.3062 43.4228V36.6114C40.3062 36.1412 39.9187 35.7599 39.4408 35.7599H35.1139V30.6514H33.3831V35.7599H29.0562C28.5783 35.7599 28.1908 36.1412 28.1908 36.6114V39.1656H21.2677V36.6114C21.2677 36.1412 20.8802 35.7599 20.4023 35.7599H10.0177C9.53982 35.7599 9.15234 36.1412 9.15234 36.6114V43.4228C9.15234 43.893 9.53982 44.2742 10.0177 44.2742H20.4023C20.8802 44.2742 21.2677 43.893 21.2677 43.4228V40.8685H28.1908V43.4228C28.1908 43.893 28.5783 44.2742 29.0562 44.2742ZM29.9216 37.4628H38.5754V42.5713H29.9216V37.4628ZM19.537 42.5713H10.8831V37.4628H19.537V42.5713Z" fill="#048DEF"></path><path d="M37.7103 6.8114C33.4088 6.8114 29.9219 10.2421 29.9219 14.4742C29.9219 18.7064 33.4088 22.1371 37.7103 22.1371C42.0119 22.1371 45.4988 18.7064 45.4988 14.4742C45.4941 10.2441 42.0098 6.81597 37.7103 6.8114ZM37.7103 20.4342C34.3646 20.4342 31.6526 17.766 31.6526 14.4742C31.6526 11.1824 34.3646 8.51425 37.7103 8.51425C41.0561 8.51425 43.768 11.1824 43.768 14.4742C43.7642 17.7644 41.0544 20.4305 37.7103 20.4342Z" fill="#048DEF"></path><path d="M51.5577 17.88C52.0356 17.88 52.4231 17.4987 52.4231 17.0285V11.92C52.4231 11.4498 52.0356 11.0685 51.5577 11.0685H48.405C48.2204 10.5098 47.9913 9.96601 47.7205 9.44218L49.9532 7.25334C50.1159 7.09369 50.2076 6.87668 50.2076 6.65052C50.2076 6.42436 50.1159 6.20735 49.9532 6.0477L46.2787 2.42914C46.1165 2.2695 45.8963 2.1797 45.6669 2.1797C45.4374 2.18012 45.2173 2.26992 45.055 2.42997L42.8261 4.62672C42.2937 4.36023 41.741 4.13532 41.1731 3.95323V0.851426C41.1731 0.381229 40.7856 0 40.3077 0H35.1154C34.6375 0 34.25 0.381229 34.25 0.851426V3.95323C33.6821 4.13532 33.1294 4.36023 32.597 4.62672L30.3714 2.42997C30.2091 2.26992 29.989 2.18012 29.7595 2.1797C29.5301 2.1797 29.31 2.2695 29.1477 2.42914L25.469 6.04521C25.3063 6.20485 25.2146 6.42187 25.2146 6.64803C25.2146 6.87419 25.3063 7.0912 25.469 7.25084L27.7017 9.43969C27.4309 9.96435 27.2023 10.509 27.018 11.0685H23.8654C23.3875 11.0685 23 11.4498 23 11.92V17.0285C23 17.4987 23.3875 17.88 23.8654 17.88H27.018C27.2027 18.4387 27.4317 18.9825 27.7026 19.5063L25.4698 21.6952C25.3067 21.8548 25.215 22.0722 25.215 22.2984C25.215 22.525 25.3067 22.742 25.4698 22.9016L29.1443 26.511C29.4824 26.8432 30.03 26.8432 30.368 26.511L32.5936 24.3218C33.1273 24.5883 33.6812 24.8132 34.25 24.9953V28.0971C34.25 28.5673 34.6375 28.9485 35.1154 28.9485H40.3077C40.7856 28.9485 41.1731 28.5673 41.1731 28.0971V24.9953C41.7414 24.8132 42.2941 24.5883 42.8269 24.3218L45.0525 26.511C45.3905 26.8428 45.9373 26.8428 46.2754 26.511L49.9532 22.9008C50.1164 22.7411 50.208 22.5241 50.208 22.2976C50.208 22.071 50.1164 21.854 49.9532 21.6943L47.7205 19.5055C47.9913 18.9821 48.2204 18.4383 48.405 17.88H51.5577ZM46.9227 16.8115C46.695 17.6592 46.3523 18.4728 45.9031 19.2303C45.7049 19.5649 45.7611 19.989 46.04 20.2621L48.1168 22.2988L45.6652 24.7059L43.596 22.6676C43.3184 22.394 42.8878 22.3391 42.548 22.5337C41.7786 22.9756 40.9512 23.3128 40.0896 23.536C39.7085 23.6337 39.4427 23.9721 39.4423 24.3592V27.2456H35.9808V24.3592C35.9808 23.9726 35.7158 23.6346 35.3359 23.536C34.4744 23.3128 33.647 22.9756 32.8775 22.5337C32.5378 22.3391 32.1072 22.394 31.8296 22.6676L29.7587 24.7051L27.3071 22.2988L29.3839 20.2621C29.6628 19.989 29.719 19.5649 29.5208 19.2303C29.0716 18.4728 28.7289 17.6592 28.5012 16.8115C28.401 16.4378 28.0575 16.1771 27.6645 16.1771H24.7308V12.7714H27.6645C28.0571 12.771 28.4002 12.5107 28.5003 12.137C28.7281 11.2893 29.0708 10.4757 29.52 9.71823C29.7181 9.38357 29.6619 8.95952 29.3831 8.68638L27.3062 6.64886L29.7587 4.23593L31.8296 6.27927C32.1072 6.55365 32.5382 6.60895 32.8784 6.41397C33.6479 5.97204 34.4752 5.63488 35.3368 5.41163C35.7162 5.31268 35.9803 4.97511 35.9808 4.5893V1.70285H39.4423V4.5893C39.4423 4.97594 39.7072 5.31393 40.0871 5.41246C40.9487 5.63571 41.776 5.97287 42.5455 6.4148C42.8861 6.61061 43.3179 6.55532 43.596 6.2801L45.6669 4.23676L48.1194 6.64969L46.0425 8.68721C45.7637 8.96035 45.7075 9.3844 45.9061 9.71906C46.3548 10.4765 46.6975 11.2901 46.9253 12.1378C47.0254 12.5103 47.3672 12.7701 47.7585 12.7714H50.6923V16.1771H47.7585C47.366 16.1775 47.0229 16.4378 46.9227 16.8115Z" fill="#048DEF"></path><path d="M37.7115 11.0686C35.7999 11.0686 34.25 12.5935 34.25 14.4743C34.25 16.3551 35.7999 17.88 37.7115 17.88C39.6232 17.88 41.1731 16.3551 41.1731 14.4743C41.1731 12.5935 39.6232 11.0686 37.7115 11.0686ZM37.7115 16.1772C36.7557 16.1772 35.9808 15.4147 35.9808 14.4743C35.9808 13.5339 36.7557 12.7715 37.7115 12.7715C38.6673 12.7715 39.4423 13.5339 39.4423 14.4743C39.4423 15.4147 38.6673 16.1772 37.7115 16.1772Z" fill="#048DEF"></path></svg>