<svg xmlns="http://www.w3.org/2000/svg" width="38" height="56" viewBox="0 0 38 56" fill="none"><mask id="path-1-outside-1_1541_16" maskUnits="userSpaceOnUse" x="0.0859375" y="-0.275024" width="38" height="56" fill="black"><rect fill="white" x="0.0859375" y="-0.275024" width="38" height="56"></rect><path d="M33.2323 27.6279C32.8455 25.6599 32.0811 23.837 30.959 22.2023C31.9922 20.5461 32.8622 18.5467 32.8622 15.6699C32.8622 12.4954 31.6178 9.8266 29.2638 7.95203C27.2031 6.31109 24.4394 5.40738 21.4818 5.40738C18.5242 5.40738 15.7605 6.31109 13.6998 7.95203C11.3457 9.8266 10.1014 12.4954 10.1014 15.6699C10.1014 16.0977 10.1217 16.5051 10.1578 16.8959C7.4427 17.8253 5.24311 19.2722 3.78693 21.0945C3.77567 21.1085 3.76495 21.1232 3.75488 21.1382C2.91009 22.3981 3.33292 23.1778 3.6417 23.7471C3.78823 24.0172 3.91474 24.2504 3.94842 24.556C3.99575 24.9865 3.56307 26.5371 3.24714 27.6692C2.98698 28.6016 2.74124 29.4823 2.63412 30.0995C2.39487 31.4825 2.91399 32.158 3.29295 32.6513C3.54714 32.982 3.70051 33.1816 3.69022 33.5812C3.67311 34.2586 3.05576 35.5336 1.85356 37.3737C1.80623 37.447 1.76009 37.5168 1.71569 37.5842C1.34593 38.1438 0.996641 38.6726 1.10646 39.5103C1.24174 40.5442 2.11804 40.791 2.69792 40.9544C3.17338 41.0882 3.47166 41.1843 3.6065 41.4593C3.62816 41.5036 3.66769 41.5842 3.58646 41.989C3.28732 42.69 3.26187 43.2359 3.50545 43.7031C3.59902 43.8824 3.72022 44.0252 3.8569 44.1429C3.75141 44.276 3.65101 44.4295 3.56805 44.6037C3.557 44.627 3.54736 44.651 3.53902 44.6753C3.4344 44.9855 3.4018 45.6519 3.72444 46.2514C3.73527 46.3123 3.74069 46.4716 3.68827 46.8879C3.59512 47.628 3.43927 48.8667 4.37742 49.6366C4.88224 50.0509 5.5624 50.1669 6.31848 50.1669C6.68402 50.1669 7.06742 50.1398 7.45711 50.106C7.46686 50.1051 7.47671 50.1041 7.48646 50.1028C8.83455 49.9242 10.1125 49.6962 11.3187 49.4208C11.6394 49.6196 11.8321 50.0951 11.8926 50.8379C11.9028 51.0918 11.8916 53.8609 11.8667 54.3148C11.8569 54.4931 11.9208 54.6674 12.0437 54.7971C12.1664 54.9267 12.337 55.0002 12.5156 55.0002H26.8949C27.0708 55.0002 27.2391 54.9289 27.3615 54.8026C27.4839 54.6763 27.5499 54.5058 27.5444 54.3301C27.3858 49.2352 27.6913 45.2437 28.3828 43.3717C28.8742 42.2615 29.4731 41.1664 30.1068 40.0075C32.0231 36.5033 34.1952 32.5315 33.232 27.6277L33.2323 27.6279ZM21.4818 6.70705C26.3369 6.70705 31.5624 9.51175 31.5624 15.6699C31.5624 19.211 30.1099 21.2374 28.7052 23.1971C27.4952 24.8852 26.3482 26.4854 26.2109 28.8367H23.8832V22.1899C23.8832 22.0464 23.8845 21.9052 23.8872 21.7671C25.451 21.2061 26.719 20.0957 27.4159 18.6018C28.1998 16.921 28.2111 15.4334 27.4459 14.6223C26.9691 14.1168 26.268 13.9803 25.5704 14.2576C24.2715 14.7736 22.8927 16.7552 22.6285 20.7678C21.8908 20.9117 21.0727 20.9117 20.3348 20.7678C20.0708 16.7552 18.6918 14.7736 17.393 14.2576C16.6953 13.9805 15.9943 14.1168 15.5175 14.6223C14.7524 15.4334 14.7636 16.9211 15.5475 18.6018C16.2442 20.0955 17.5124 21.206 19.0762 21.7671C19.0788 21.9052 19.0802 22.0464 19.0802 22.1899V28.8367H16.7525C16.6152 26.4855 15.4682 24.8852 14.2583 23.1972C12.8536 21.2375 11.4011 19.2111 11.4011 15.67C11.4011 9.51197 16.6266 6.70705 21.4818 6.70705ZM19.2617 35.5682H23.7017V35.9683C23.7017 36.4069 23.345 36.7638 22.9063 36.7638H20.0572C19.6186 36.7638 19.2617 36.4069 19.2617 35.9683V35.5682ZM24.9585 34.2685H18.0049C17.322 34.2685 16.7662 33.7129 16.7662 33.0299V32.8523H26.197V33.0299C26.197 33.7129 25.6414 34.2685 24.9584 34.2685H24.9585ZM26.1971 31.5526H16.7664V30.1363H26.1971V31.5526ZM20.3798 22.0947C21.0963 22.203 21.867 22.203 22.5837 22.0947C22.5836 22.1263 22.5835 22.1578 22.5835 22.1898V28.8366H20.3799V22.1898C20.3799 22.1579 20.3799 22.1263 20.3798 22.0947ZM23.9685 20.3235C24.2857 17.0577 25.4109 15.7192 26.0501 15.4653C26.1397 15.4298 26.2128 15.4166 26.2724 15.4166C26.4084 15.4166 26.4735 15.4856 26.5004 15.5141C26.7136 15.7401 26.9333 16.5616 26.238 18.0525C25.7705 19.0547 24.9689 19.8386 23.9684 20.3236L23.9685 20.3235ZM18.995 20.3235C17.9945 19.8384 17.193 19.0546 16.7254 18.0523C16.0301 16.5615 16.2496 15.7401 16.463 15.514C16.4898 15.4855 16.5549 15.4165 16.691 15.4165C16.7505 15.4165 16.8238 15.4297 16.9132 15.4652C17.5524 15.7192 18.6777 17.0576 18.9949 20.3234L18.995 20.3235ZM28.9666 39.3841C28.3445 40.5217 27.7013 41.698 27.1862 42.8647C27.1811 42.8762 27.1763 42.8879 27.1719 42.8999C26.44 44.8599 26.1073 48.6801 26.227 53.7006H13.1808C13.1955 52.6706 13.2011 50.9223 13.1889 50.7435C13.1301 50.0045 12.9547 49.4644 12.7236 49.0693C14.7076 48.5278 16.4722 47.8451 17.9986 47.0245C18.3147 46.8545 18.4332 46.4605 18.2633 46.1445C18.0934 45.8285 17.6994 45.7099 17.3833 45.8798C14.7642 47.2877 11.382 48.2743 7.33071 48.8125C6.49199 48.8848 5.57074 48.9345 5.20217 48.632C4.8479 48.3412 4.89393 47.7179 4.97787 47.0503C5.05108 46.4691 5.06462 46.0412 4.90574 45.7041C4.89783 45.6874 4.88928 45.671 4.87996 45.6551C4.76472 45.4564 4.7579 45.2104 4.76971 45.1078C4.92404 44.8299 5.19827 44.6434 5.29217 44.5796C5.31665 44.563 5.33506 44.5501 5.34665 44.5415C5.53348 44.403 5.63204 44.1753 5.60507 43.9443C5.57821 43.7132 5.42994 43.5143 5.21636 43.4224C4.96812 43.3158 4.71154 43.2054 4.65772 43.1023C4.60876 43.0084 4.66292 42.765 4.80263 42.4513C4.82104 42.41 4.83501 42.3669 4.84444 42.3227C4.95957 41.7833 4.99162 41.3329 4.77339 40.8875C4.37601 40.077 3.60964 39.8611 3.05013 39.7035C2.44968 39.5343 2.41285 39.4786 2.39498 39.3418C2.35047 39.0018 2.4643 38.8088 2.79994 38.3007C2.84684 38.2298 2.89557 38.156 2.94345 38.0819C4.3341 35.9534 4.96509 34.5755 4.98946 33.6145C5.01145 32.755 4.62999 32.2586 4.32348 31.8597C4.00366 31.4434 3.77253 31.1427 3.91463 30.3215C4.01048 29.7689 4.25872 28.8792 4.49883 28.0187C5.00657 26.199 5.30983 25.0485 5.24008 24.4141C5.17856 23.8551 4.95978 23.4517 4.784 23.1277C4.52028 22.6414 4.4293 22.4736 4.81931 21.8844C6.08129 20.3154 7.98629 19.0493 10.3512 18.2031C10.8656 20.6931 12.09 22.4033 13.2018 23.9544C14.417 25.6497 15.4665 27.1138 15.4665 29.312V33.03C15.4665 34.4153 16.582 35.5441 17.9619 35.5672V35.9684C17.9619 37.1237 18.9018 38.0635 20.0571 38.0635H22.9062C24.0615 38.0635 25.0013 37.1237 25.0013 35.9684V35.5672C26.3811 35.5441 27.4967 34.4153 27.4967 33.03V29.312C27.4967 27.1139 28.5462 25.6497 29.7614 23.9544C29.8977 23.7641 30.0358 23.5714 30.1741 23.3753C31.0395 24.749 31.6386 26.2595 31.9567 27.8785C32.8293 32.3208 30.8656 35.9116 28.9665 39.3842L28.9666 39.3841ZM5.41846 14.415C5.41792 14.0562 5.70829 13.7647 6.06721 13.7641L8.22273 13.7605H8.22381C8.5823 13.7605 8.8731 14.0508 8.87365 14.4093C8.87419 14.7682 8.58382 15.0596 8.22489 15.0602L6.06938 15.0637H6.0683C5.70991 15.0637 5.41911 14.7735 5.41846 14.415ZM10.9375 5.07282C10.6969 4.8066 10.7177 4.39569 10.984 4.15493C11.2503 3.91438 11.6611 3.93506 11.9019 4.20139L13.1747 5.6098C13.4154 5.87602 13.3946 6.28693 13.1282 6.5277C13.0039 6.64001 12.8481 6.69536 12.6927 6.69536C12.5153 6.69536 12.3387 6.62312 12.2103 6.48124L10.9375 5.07282ZM20.8121 3.25902V1.37481C20.8121 1.01599 21.1032 0.724976 21.462 0.724976C21.8208 0.724976 22.1118 1.01599 22.1118 1.37481V3.25912C22.1118 3.61794 21.8208 3.90896 21.462 3.90896C21.1032 3.90896 20.8121 3.61784 20.8121 3.25902ZM34.0503 14.4091C34.0508 14.0507 34.3417 13.7604 34.7001 13.7604H34.7012L36.8567 13.764C37.2157 13.7645 37.5061 14.056 37.5055 14.4149C37.5049 14.7735 37.214 15.0636 36.8556 15.0636H36.8546L34.6991 15.0601C34.3401 15.0595 34.0496 14.7681 34.0503 14.4091ZM29.7958 6.52759C29.5296 6.28693 29.5088 5.87602 29.7493 5.60969L31.0221 4.20128C31.2627 3.93506 31.6736 3.91438 31.94 4.15482C32.2062 4.39547 32.227 4.80639 31.9864 5.07271L30.7137 6.48113C30.5854 6.62312 30.4087 6.69525 30.2313 6.69525C30.076 6.69525 29.9201 6.6399 29.7958 6.52759Z"></path></mask><path d="M33.2323 27.6279C32.8455 25.6599 32.0811 23.837 30.959 22.2023C31.9922 20.5461 32.8622 18.5467 32.8622 15.6699C32.8622 12.4954 31.6178 9.8266 29.2638 7.95203C27.2031 6.31109 24.4394 5.40738 21.4818 5.40738C18.5242 5.40738 15.7605 6.31109 13.6998 7.95203C11.3457 9.8266 10.1014 12.4954 10.1014 15.6699C10.1014 16.0977 10.1217 16.5051 10.1578 16.8959C7.4427 17.8253 5.24311 19.2722 3.78693 21.0945C3.77567 21.1085 3.76495 21.1232 3.75488 21.1382C2.91009 22.3981 3.33292 23.1778 3.6417 23.7471C3.78823 24.0172 3.91474 24.2504 3.94842 24.556C3.99575 24.9865 3.56307 26.5371 3.24714 27.6692C2.98698 28.6016 2.74124 29.4823 2.63412 30.0995C2.39487 31.4825 2.91399 32.158 3.29295 32.6513C3.54714 32.982 3.70051 33.1816 3.69022 33.5812C3.67311 34.2586 3.05576 35.5336 1.85356 37.3737C1.80623 37.447 1.76009 37.5168 1.71569 37.5842C1.34593 38.1438 0.996641 38.6726 1.10646 39.5103C1.24174 40.5442 2.11804 40.791 2.69792 40.9544C3.17338 41.0882 3.47166 41.1843 3.6065 41.4593C3.62816 41.5036 3.66769 41.5842 3.58646 41.989C3.28732 42.69 3.26187 43.2359 3.50545 43.7031C3.59902 43.8824 3.72022 44.0252 3.8569 44.1429C3.75141 44.276 3.65101 44.4295 3.56805 44.6037C3.557 44.627 3.54736 44.651 3.53902 44.6753C3.4344 44.9855 3.4018 45.6519 3.72444 46.2514C3.73527 46.3123 3.74069 46.4716 3.68827 46.8879C3.59512 47.628 3.43927 48.8667 4.37742 49.6366C4.88224 50.0509 5.5624 50.1669 6.31848 50.1669C6.68402 50.1669 7.06742 50.1398 7.45711 50.106C7.46686 50.1051 7.47671 50.1041 7.48646 50.1028C8.83455 49.9242 10.1125 49.6962 11.3187 49.4208C11.6394 49.6196 11.8321 50.0951 11.8926 50.8379C11.9028 51.0918 11.8916 53.8609 11.8667 54.3148C11.8569 54.4931 11.9208 54.6674 12.0437 54.7971C12.1664 54.9267 12.337 55.0002 12.5156 55.0002H26.8949C27.0708 55.0002 27.2391 54.9289 27.3615 54.8026C27.4839 54.6763 27.5499 54.5058 27.5444 54.3301C27.3858 49.2352 27.6913 45.2437 28.3828 43.3717C28.8742 42.2615 29.4731 41.1664 30.1068 40.0075C32.0231 36.5033 34.1952 32.5315 33.232 27.6277L33.2323 27.6279ZM21.4818 6.70705C26.3369 6.70705 31.5624 9.51175 31.5624 15.6699C31.5624 19.211 30.1099 21.2374 28.7052 23.1971C27.4952 24.8852 26.3482 26.4854 26.2109 28.8367H23.8832V22.1899C23.8832 22.0464 23.8845 21.9052 23.8872 21.7671C25.451 21.2061 26.719 20.0957 27.4159 18.6018C28.1998 16.921 28.2111 15.4334 27.4459 14.6223C26.9691 14.1168 26.268 13.9803 25.5704 14.2576C24.2715 14.7736 22.8927 16.7552 22.6285 20.7678C21.8908 20.9117 21.0727 20.9117 20.3348 20.7678C20.0708 16.7552 18.6918 14.7736 17.393 14.2576C16.6953 13.9805 15.9943 14.1168 15.5175 14.6223C14.7524 15.4334 14.7636 16.9211 15.5475 18.6018C16.2442 20.0955 17.5124 21.206 19.0762 21.7671C19.0788 21.9052 19.0802 22.0464 19.0802 22.1899V28.8367H16.7525C16.6152 26.4855 15.4682 24.8852 14.2583 23.1972C12.8536 21.2375 11.4011 19.2111 11.4011 15.67C11.4011 9.51197 16.6266 6.70705 21.4818 6.70705ZM19.2617 35.5682H23.7017V35.9683C23.7017 36.4069 23.345 36.7638 22.9063 36.7638H20.0572C19.6186 36.7638 19.2617 36.4069 19.2617 35.9683V35.5682ZM24.9585 34.2685H18.0049C17.322 34.2685 16.7662 33.7129 16.7662 33.0299V32.8523H26.197V33.0299C26.197 33.7129 25.6414 34.2685 24.9584 34.2685H24.9585ZM26.1971 31.5526H16.7664V30.1363H26.1971V31.5526ZM20.3798 22.0947C21.0963 22.203 21.867 22.203 22.5837 22.0947C22.5836 22.1263 22.5835 22.1578 22.5835 22.1898V28.8366H20.3799V22.1898C20.3799 22.1579 20.3799 22.1263 20.3798 22.0947ZM23.9685 20.3235C24.2857 17.0577 25.4109 15.7192 26.0501 15.4653C26.1397 15.4298 26.2128 15.4166 26.2724 15.4166C26.4084 15.4166 26.4735 15.4856 26.5004 15.5141C26.7136 15.7401 26.9333 16.5616 26.238 18.0525C25.7705 19.0547 24.9689 19.8386 23.9684 20.3236L23.9685 20.3235ZM18.995 20.3235C17.9945 19.8384 17.193 19.0546 16.7254 18.0523C16.0301 16.5615 16.2496 15.7401 16.463 15.514C16.4898 15.4855 16.5549 15.4165 16.691 15.4165C16.7505 15.4165 16.8238 15.4297 16.9132 15.4652C17.5524 15.7192 18.6777 17.0576 18.9949 20.3234L18.995 20.3235ZM28.9666 39.3841C28.3445 40.5217 27.7013 41.698 27.1862 42.8647C27.1811 42.8762 27.1763 42.8879 27.1719 42.8999C26.44 44.8599 26.1073 48.6801 26.227 53.7006H13.1808C13.1955 52.6706 13.2011 50.9223 13.1889 50.7435C13.1301 50.0045 12.9547 49.4644 12.7236 49.0693C14.7076 48.5278 16.4722 47.8451 17.9986 47.0245C18.3147 46.8545 18.4332 46.4605 18.2633 46.1445C18.0934 45.8285 17.6994 45.7099 17.3833 45.8798C14.7642 47.2877 11.382 48.2743 7.33071 48.8125C6.49199 48.8848 5.57074 48.9345 5.20217 48.632C4.8479 48.3412 4.89393 47.7179 4.97787 47.0503C5.05108 46.4691 5.06462 46.0412 4.90574 45.7041C4.89783 45.6874 4.88928 45.671 4.87996 45.6551C4.76472 45.4564 4.7579 45.2104 4.76971 45.1078C4.92404 44.8299 5.19827 44.6434 5.29217 44.5796C5.31665 44.563 5.33506 44.5501 5.34665 44.5415C5.53348 44.403 5.63204 44.1753 5.60507 43.9443C5.57821 43.7132 5.42994 43.5143 5.21636 43.4224C4.96812 43.3158 4.71154 43.2054 4.65772 43.1023C4.60876 43.0084 4.66292 42.765 4.80263 42.4513C4.82104 42.41 4.83501 42.3669 4.84444 42.3227C4.95957 41.7833 4.99162 41.3329 4.77339 40.8875C4.37601 40.077 3.60964 39.8611 3.05013 39.7035C2.44968 39.5343 2.41285 39.4786 2.39498 39.3418C2.35047 39.0018 2.4643 38.8088 2.79994 38.3007C2.84684 38.2298 2.89557 38.156 2.94345 38.0819C4.3341 35.9534 4.96509 34.5755 4.98946 33.6145C5.01145 32.755 4.62999 32.2586 4.32348 31.8597C4.00366 31.4434 3.77253 31.1427 3.91463 30.3215C4.01048 29.7689 4.25872 28.8792 4.49883 28.0187C5.00657 26.199 5.30983 25.0485 5.24008 24.4141C5.17856 23.8551 4.95978 23.4517 4.784 23.1277C4.52028 22.6414 4.4293 22.4736 4.81931 21.8844C6.08129 20.3154 7.98629 19.0493 10.3512 18.2031C10.8656 20.6931 12.09 22.4033 13.2018 23.9544C14.417 25.6497 15.4665 27.1138 15.4665 29.312V33.03C15.4665 34.4153 16.582 35.5441 17.9619 35.5672V35.9684C17.9619 37.1237 18.9018 38.0635 20.0571 38.0635H22.9062C24.0615 38.0635 25.0013 37.1237 25.0013 35.9684V35.5672C26.3811 35.5441 27.4967 34.4153 27.4967 33.03V29.312C27.4967 27.1139 28.5462 25.6497 29.7614 23.9544C29.8977 23.7641 30.0358 23.5714 30.1741 23.3753C31.0395 24.749 31.6386 26.2595 31.9567 27.8785C32.8293 32.3208 30.8656 35.9116 28.9665 39.3842L28.9666 39.3841ZM5.41846 14.415C5.41792 14.0562 5.70829 13.7647 6.06721 13.7641L8.22273 13.7605H8.22381C8.5823 13.7605 8.8731 14.0508 8.87365 14.4093C8.87419 14.7682 8.58382 15.0596 8.22489 15.0602L6.06938 15.0637H6.0683C5.70991 15.0637 5.41911 14.7735 5.41846 14.415ZM10.9375 5.07282C10.6969 4.8066 10.7177 4.39569 10.984 4.15493C11.2503 3.91438 11.6611 3.93506 11.9019 4.20139L13.1747 5.6098C13.4154 5.87602 13.3946 6.28693 13.1282 6.5277C13.0039 6.64001 12.8481 6.69536 12.6927 6.69536C12.5153 6.69536 12.3387 6.62312 12.2103 6.48124L10.9375 5.07282ZM20.8121 3.25902V1.37481C20.8121 1.01599 21.1032 0.724976 21.462 0.724976C21.8208 0.724976 22.1118 1.01599 22.1118 1.37481V3.25912C22.1118 3.61794 21.8208 3.90896 21.462 3.90896C21.1032 3.90896 20.8121 3.61784 20.8121 3.25902ZM34.0503 14.4091C34.0508 14.0507 34.3417 13.7604 34.7001 13.7604H34.7012L36.8567 13.764C37.2157 13.7645 37.5061 14.056 37.5055 14.4149C37.5049 14.7735 37.214 15.0636 36.8556 15.0636H36.8546L34.6991 15.0601C34.3401 15.0595 34.0496 14.7681 34.0503 14.4091ZM29.7958 6.52759C29.5296 6.28693 29.5088 5.87602 29.7493 5.60969L31.0221 4.20128C31.2627 3.93506 31.6736 3.91438 31.94 4.15482C32.2062 4.39547 32.227 4.80639 31.9864 5.07271L30.7137 6.48113C30.5854 6.62312 30.4087 6.69525 30.2313 6.69525C30.076 6.69525 29.9201 6.6399 29.7958 6.52759Z" fill="#047BDC"></path><path d="M33.2323 27.6279C32.8455 25.6599 32.0811 23.837 30.959 22.2023C31.9922 20.5461 32.8622 18.5467 32.8622 15.6699C32.8622 12.4954 31.6178 9.8266 29.2638 7.95203C27.2031 6.31109 24.4394 5.40738 21.4818 5.40738C18.5242 5.40738 15.7605 6.31109 13.6998 7.95203C11.3457 9.8266 10.1014 12.4954 10.1014 15.6699C10.1014 16.0977 10.1217 16.5051 10.1578 16.8959C7.4427 17.8253 5.24311 19.2722 3.78693 21.0945C3.77567 21.1085 3.76495 21.1232 3.75488 21.1382C2.91009 22.3981 3.33292 23.1778 3.6417 23.7471C3.78823 24.0172 3.91474 24.2504 3.94842 24.556C3.99575 24.9865 3.56307 26.5371 3.24714 27.6692C2.98698 28.6016 2.74124 29.4823 2.63412 30.0995C2.39487 31.4825 2.91399 32.158 3.29295 32.6513C3.54714 32.982 3.70051 33.1816 3.69022 33.5812C3.67311 34.2586 3.05576 35.5336 1.85356 37.3737C1.80623 37.447 1.76009 37.5168 1.71569 37.5842C1.34593 38.1438 0.996641 38.6726 1.10646 39.5103C1.24174 40.5442 2.11804 40.791 2.69792 40.9544C3.17338 41.0882 3.47166 41.1843 3.6065 41.4593C3.62816 41.5036 3.66769 41.5842 3.58646 41.989C3.28732 42.69 3.26187 43.2359 3.50545 43.7031C3.59902 43.8824 3.72022 44.0252 3.8569 44.1429C3.75141 44.276 3.65101 44.4295 3.56805 44.6037C3.557 44.627 3.54736 44.651 3.53902 44.6753C3.4344 44.9855 3.4018 45.6519 3.72444 46.2514C3.73527 46.3123 3.74069 46.4716 3.68827 46.8879C3.59512 47.628 3.43927 48.8667 4.37742 49.6366C4.88224 50.0509 5.5624 50.1669 6.31848 50.1669C6.68402 50.1669 7.06742 50.1398 7.45711 50.106C7.46686 50.1051 7.47671 50.1041 7.48646 50.1028C8.83455 49.9242 10.1125 49.6962 11.3187 49.4208C11.6394 49.6196 11.8321 50.0951 11.8926 50.8379C11.9028 51.0918 11.8916 53.8609 11.8667 54.3148C11.8569 54.4931 11.9208 54.6674 12.0437 54.7971C12.1664 54.9267 12.337 55.0002 12.5156 55.0002H26.8949C27.0708 55.0002 27.2391 54.9289 27.3615 54.8026C27.4839 54.6763 27.5499 54.5058 27.5444 54.3301C27.3858 49.2352 27.6913 45.2437 28.3828 43.3717C28.8742 42.2615 29.4731 41.1664 30.1068 40.0075C32.0231 36.5033 34.1952 32.5315 33.232 27.6277L33.2323 27.6279ZM21.4818 6.70705C26.3369 6.70705 31.5624 9.51175 31.5624 15.6699C31.5624 19.211 30.1099 21.2374 28.7052 23.1971C27.4952 24.8852 26.3482 26.4854 26.2109 28.8367H23.8832V22.1899C23.8832 22.0464 23.8845 21.9052 23.8872 21.7671C25.451 21.2061 26.719 20.0957 27.4159 18.6018C28.1998 16.921 28.2111 15.4334 27.4459 14.6223C26.9691 14.1168 26.268 13.9803 25.5704 14.2576C24.2715 14.7736 22.8927 16.7552 22.6285 20.7678C21.8908 20.9117 21.0727 20.9117 20.3348 20.7678C20.0708 16.7552 18.6918 14.7736 17.393 14.2576C16.6953 13.9805 15.9943 14.1168 15.5175 14.6223C14.7524 15.4334 14.7636 16.9211 15.5475 18.6018C16.2442 20.0955 17.5124 21.206 19.0762 21.7671C19.0788 21.9052 19.0802 22.0464 19.0802 22.1899V28.8367H16.7525C16.6152 26.4855 15.4682 24.8852 14.2583 23.1972C12.8536 21.2375 11.4011 19.2111 11.4011 15.67C11.4011 9.51197 16.6266 6.70705 21.4818 6.70705ZM19.2617 35.5682H23.7017V35.9683C23.7017 36.4069 23.345 36.7638 22.9063 36.7638H20.0572C19.6186 36.7638 19.2617 36.4069 19.2617 35.9683V35.5682ZM24.9585 34.2685H18.0049C17.322 34.2685 16.7662 33.7129 16.7662 33.0299V32.8523H26.197V33.0299C26.197 33.7129 25.6414 34.2685 24.9584 34.2685H24.9585ZM26.1971 31.5526H16.7664V30.1363H26.1971V31.5526ZM20.3798 22.0947C21.0963 22.203 21.867 22.203 22.5837 22.0947C22.5836 22.1263 22.5835 22.1578 22.5835 22.1898V28.8366H20.3799V22.1898C20.3799 22.1579 20.3799 22.1263 20.3798 22.0947ZM23.9685 20.3235C24.2857 17.0577 25.4109 15.7192 26.0501 15.4653C26.1397 15.4298 26.2128 15.4166 26.2724 15.4166C26.4084 15.4166 26.4735 15.4856 26.5004 15.5141C26.7136 15.7401 26.9333 16.5616 26.238 18.0525C25.7705 19.0547 24.9689 19.8386 23.9684 20.3236L23.9685 20.3235ZM18.995 20.3235C17.9945 19.8384 17.193 19.0546 16.7254 18.0523C16.0301 16.5615 16.2496 15.7401 16.463 15.514C16.4898 15.4855 16.5549 15.4165 16.691 15.4165C16.7505 15.4165 16.8238 15.4297 16.9132 15.4652C17.5524 15.7192 18.6777 17.0576 18.9949 20.3234L18.995 20.3235ZM28.9666 39.3841C28.3445 40.5217 27.7013 41.698 27.1862 42.8647C27.1811 42.8762 27.1763 42.8879 27.1719 42.8999C26.44 44.8599 26.1073 48.6801 26.227 53.7006H13.1808C13.1955 52.6706 13.2011 50.9223 13.1889 50.7435C13.1301 50.0045 12.9547 49.4644 12.7236 49.0693C14.7076 48.5278 16.4722 47.8451 17.9986 47.0245C18.3147 46.8545 18.4332 46.4605 18.2633 46.1445C18.0934 45.8285 17.6994 45.7099 17.3833 45.8798C14.7642 47.2877 11.382 48.2743 7.33071 48.8125C6.49199 48.8848 5.57074 48.9345 5.20217 48.632C4.8479 48.3412 4.89393 47.7179 4.97787 47.0503C5.05108 46.4691 5.06462 46.0412 4.90574 45.7041C4.89783 45.6874 4.88928 45.671 4.87996 45.6551C4.76472 45.4564 4.7579 45.2104 4.76971 45.1078C4.92404 44.8299 5.19827 44.6434 5.29217 44.5796C5.31665 44.563 5.33506 44.5501 5.34665 44.5415C5.53348 44.403 5.63204 44.1753 5.60507 43.9443C5.57821 43.7132 5.42994 43.5143 5.21636 43.4224C4.96812 43.3158 4.71154 43.2054 4.65772 43.1023C4.60876 43.0084 4.66292 42.765 4.80263 42.4513C4.82104 42.41 4.83501 42.3669 4.84444 42.3227C4.95957 41.7833 4.99162 41.3329 4.77339 40.8875C4.37601 40.077 3.60964 39.8611 3.05013 39.7035C2.44968 39.5343 2.41285 39.4786 2.39498 39.3418C2.35047 39.0018 2.4643 38.8088 2.79994 38.3007C2.84684 38.2298 2.89557 38.156 2.94345 38.0819C4.3341 35.9534 4.96509 34.5755 4.98946 33.6145C5.01145 32.755 4.62999 32.2586 4.32348 31.8597C4.00366 31.4434 3.77253 31.1427 3.91463 30.3215C4.01048 29.7689 4.25872 28.8792 4.49883 28.0187C5.00657 26.199 5.30983 25.0485 5.24008 24.4141C5.17856 23.8551 4.95978 23.4517 4.784 23.1277C4.52028 22.6414 4.4293 22.4736 4.81931 21.8844C6.08129 20.3154 7.98629 19.0493 10.3512 18.2031C10.8656 20.6931 12.09 22.4033 13.2018 23.9544C14.417 25.6497 15.4665 27.1138 15.4665 29.312V33.03C15.4665 34.4153 16.582 35.5441 17.9619 35.5672V35.9684C17.9619 37.1237 18.9018 38.0635 20.0571 38.0635H22.9062C24.0615 38.0635 25.0013 37.1237 25.0013 35.9684V35.5672C26.3811 35.5441 27.4967 34.4153 27.4967 33.03V29.312C27.4967 27.1139 28.5462 25.6497 29.7614 23.9544C29.8977 23.7641 30.0358 23.5714 30.1741 23.3753C31.0395 24.749 31.6386 26.2595 31.9567 27.8785C32.8293 32.3208 30.8656 35.9116 28.9665 39.3842L28.9666 39.3841ZM5.41846 14.415C5.41792 14.0562 5.70829 13.7647 6.06721 13.7641L8.22273 13.7605H8.22381C8.5823 13.7605 8.8731 14.0508 8.87365 14.4093C8.87419 14.7682 8.58382 15.0596 8.22489 15.0602L6.06938 15.0637H6.0683C5.70991 15.0637 5.41911 14.7735 5.41846 14.415ZM10.9375 5.07282C10.6969 4.8066 10.7177 4.39569 10.984 4.15493C11.2503 3.91438 11.6611 3.93506 11.9019 4.20139L13.1747 5.6098C13.4154 5.87602 13.3946 6.28693 13.1282 6.5277C13.0039 6.64001 12.8481 6.69536 12.6927 6.69536C12.5153 6.69536 12.3387 6.62312 12.2103 6.48124L10.9375 5.07282ZM20.8121 3.25902V1.37481C20.8121 1.01599 21.1032 0.724976 21.462 0.724976C21.8208 0.724976 22.1118 1.01599 22.1118 1.37481V3.25912C22.1118 3.61794 21.8208 3.90896 21.462 3.90896C21.1032 3.90896 20.8121 3.61784 20.8121 3.25902ZM34.0503 14.4091C34.0508 14.0507 34.3417 13.7604 34.7001 13.7604H34.7012L36.8567 13.764C37.2157 13.7645 37.5061 14.056 37.5055 14.4149C37.5049 14.7735 37.214 15.0636 36.8556 15.0636H36.8546L34.6991 15.0601C34.3401 15.0595 34.0496 14.7681 34.0503 14.4091ZM29.7958 6.52759C29.5296 6.28693 29.5088 5.87602 29.7493 5.60969L31.0221 4.20128C31.2627 3.93506 31.6736 3.91438 31.94 4.15482C32.2062 4.39547 32.227 4.80639 31.9864 5.07271L30.7137 6.48113C30.5854 6.62312 30.4087 6.69525 30.2313 6.69525C30.076 6.69525 29.9201 6.6399 29.7958 6.52759Z" stroke="#047BDC" stroke-width="0.4" mask="url(#path-1-outside-1_1541_16)"></path></svg>