<svg xmlns="http://www.w3.org/2000/svg" width="62" height="62" viewBox="0 0 62 62" fill="none"><path d="M31 48.6667C34.4941 48.6667 37.9098 47.6305 40.8151 45.6893C43.7203 43.7481 45.9847 40.9889 47.3219 37.7607C48.659 34.5326 49.0089 30.9804 48.3272 27.5534C47.6455 24.1264 45.9629 20.9785 43.4922 18.5078C41.0215 16.0371 37.8736 14.3545 34.4466 13.6728C31.0196 12.9911 27.4674 13.341 24.2393 14.6781C21.0111 16.0153 18.2519 18.2797 16.3107 21.1849C14.3695 24.0902 13.3333 27.5059 13.3333 31C13.3386 35.6839 15.2016 40.1744 18.5136 43.4864C21.8256 46.7984 26.3161 48.6614 31 48.6667ZM24.0733 40.38C25.9999 39.8026 27.9907 39.4667 30 39.38V46.5533C27.6133 46.04 25.4867 43.7133 24.0733 40.38ZM32 39.38C34.0093 39.4667 36.0001 39.8026 37.9267 40.38C36.5133 43.7133 34.3867 46.04 32 46.5533V39.38ZM32 37.38V32H39.7C39.6277 34.2048 39.2646 36.3903 38.62 38.5C36.4708 37.8429 34.2457 37.4665 32 37.38ZM32 30V24.6133C34.246 24.5296 36.4715 24.1531 38.62 23.4933C39.264 25.6054 39.6272 27.7931 39.7 30H32ZM32 22.62V15.4467C34.3867 15.96 36.5133 18.2867 37.9267 21.62C36 22.1968 34.0093 22.5327 32 22.62ZM30 22.62C27.9907 22.5327 26 22.1968 24.0733 21.62C25.4867 18.2867 27.6133 15.96 30 15.4467V22.62ZM30 24.62V30H22.3333C22.4062 27.7931 22.7693 25.6054 23.4133 23.4933C25.5512 24.1502 27.7652 24.5267 30 24.6133V24.62ZM30 32.0067V37.3867C27.7543 37.4731 25.5292 37.8496 23.38 38.5067C22.7461 36.3933 22.3942 34.2055 22.3333 32L30 32.0067ZM21.46 39.1733C20.4708 39.5568 19.5066 40.0021 18.5733 40.5067C16.6843 38.052 15.5681 35.0909 15.3667 32H20.2933C20.3594 34.4325 20.7518 36.8452 21.46 39.1733ZM19.92 42.0667C20.64 41.6933 21.38 41.3533 22.1333 41.0533C22.75 42.5913 23.595 44.0274 24.64 45.3133C22.8812 44.5291 21.2814 43.4286 19.92 42.0667ZM37.36 45.3133C38.405 44.0274 39.25 42.5913 39.8667 41.0533C40.62 41.3533 41.36 41.72 42.08 42.0667C40.7186 43.4286 39.1188 44.5291 37.36 45.3133ZM43.4267 40.5267C42.4934 40.0221 41.5292 39.5768 40.54 39.1933C41.2499 36.8588 41.6424 34.4393 41.7067 32H46.6333C46.4358 35.0978 45.3194 38.0664 43.4267 40.5267ZM41.7067 30C41.6406 27.5675 41.2482 25.1548 40.54 22.8267C41.5287 22.4419 42.4927 21.9966 43.4267 21.4933C45.3157 23.948 46.4319 26.9091 46.6333 30H41.7067ZM42.08 19.9333C41.3607 20.3081 40.6219 20.6441 39.8667 20.94C39.2501 19.4041 38.405 17.9701 37.36 16.6867C39.1188 17.4709 40.7186 18.5714 42.08 19.9333ZM24.64 16.6867C23.595 17.9701 22.7499 19.4041 22.1333 20.94C21.3782 20.6441 20.6393 20.3081 19.92 19.9333C21.2814 18.5714 22.8812 17.4709 24.64 16.6867ZM18.5733 21.4733C19.5073 21.9766 20.4713 22.4219 21.46 22.8067C20.7501 25.1412 20.3576 27.5607 20.2933 30H15.3667C15.5642 26.9022 16.6806 23.9336 18.5733 21.4733ZM9.2 44.56C9.33924 44.7858 9.38374 45.0574 9.32382 45.3158C9.2639 45.5742 9.1044 45.7985 8.88 45.94C8.7212 46.0362 8.53901 46.087 8.35333 46.0867C8.18415 46.0874 8.01757 46.045 7.8694 45.9633C7.72123 45.8816 7.59637 45.7635 7.50667 45.62C6.40676 43.8566 5.51206 41.9733 4.84 40.0067C4.75159 39.7556 4.76655 39.4797 4.88157 39.2396C4.99659 38.9996 5.20226 38.8151 5.45333 38.7267C5.70441 38.6383 5.98031 38.6532 6.22036 38.7682C6.46041 38.8833 6.64493 39.0889 6.73333 39.34C7.35782 41.1667 8.18522 42.9177 9.2 44.56ZM11.36 50.4867C11.2622 50.3946 11.184 50.2839 11.13 50.161C11.0759 50.0381 11.0472 49.9055 11.0455 49.7713C11.0438 49.637 11.0691 49.5038 11.12 49.3795C11.1709 49.2553 11.2462 49.1426 11.3416 49.0481C11.437 48.9536 11.5505 48.8793 11.6752 48.8296C11.7999 48.7798 11.9334 48.7558 12.0676 48.7587C12.2018 48.7617 12.3341 48.7917 12.4565 48.8469C12.5789 48.9021 12.6889 48.9814 12.78 49.08L12.8533 49.1467C14.1894 50.4905 15.672 51.6801 17.2733 52.6933C17.4576 52.8091 17.599 52.9818 17.6762 53.1853C17.7534 53.3888 17.7621 53.6118 17.7011 53.8207C17.64 54.0296 17.5125 54.2128 17.3378 54.3426C17.1632 54.4724 16.9509 54.5417 16.7333 54.54C16.5439 54.5386 16.3589 54.4831 16.2 54.38C14.4782 53.2874 12.8819 52.0086 11.44 50.5667L11.36 50.4867ZM11.58 12.7C11.3927 12.5125 11.2875 12.2583 11.2875 11.9933C11.2875 11.7283 11.3927 11.4742 11.58 11.2867C13.0606 9.82842 14.6997 8.54041 16.4667 7.44667C16.692 7.31047 16.962 7.26864 17.218 7.33026C17.4739 7.39188 17.6953 7.55197 17.834 7.77579C17.9727 7.99961 18.0175 8.2691 17.9587 8.52575C17.8999 8.78241 17.7423 9.00552 17.52 9.14667C15.8841 10.1619 14.3678 11.3583 13 12.7133C12.8208 12.8879 12.5833 12.99 12.3333 13C12.1937 13.0062 12.0543 12.9827 11.9244 12.931C11.7946 12.8792 11.6772 12.8005 11.58 12.7ZM50.56 49.1467C50.6535 49.2391 50.7278 49.3491 50.7785 49.4704C50.8291 49.5917 50.8552 49.7219 50.8552 49.8533C50.8552 49.9848 50.8291 50.115 50.7785 50.2363C50.7278 50.3576 50.6535 50.4676 50.56 50.56C49.0944 52.033 47.4662 53.3346 45.7067 54.44C45.4826 54.5659 45.2187 54.6006 44.9697 54.5371C44.7207 54.4735 44.5057 54.3166 44.3693 54.0987C44.2329 53.8809 44.1857 53.6189 44.2373 53.3672C44.289 53.1154 44.4356 52.8932 44.6467 52.7467C46.276 51.7179 47.7853 50.5104 49.1467 49.1467C49.335 48.961 49.5889 48.8569 49.8533 48.8569C50.1178 48.8569 50.3716 48.961 50.56 49.1467ZM52.9067 17.6067C52.8384 17.495 52.7927 17.3711 52.7724 17.2418C52.752 17.1125 52.7573 16.9805 52.7879 16.8533C52.8186 16.7261 52.874 16.6062 52.951 16.5004C53.028 16.3946 53.125 16.305 53.2367 16.2367C53.3483 16.1684 53.4723 16.1227 53.6015 16.1024C53.7308 16.082 53.8628 16.0873 53.99 16.1179C54.1172 16.1486 54.2372 16.204 54.343 16.281C54.4488 16.358 54.5384 16.455 54.6067 16.5667C55.6931 18.3364 56.5744 20.2241 57.2333 22.1933C57.2762 22.3176 57.2939 22.4492 57.2856 22.5803C57.2772 22.7115 57.2429 22.8397 57.1846 22.9576C57.1263 23.0754 57.0452 23.1805 56.946 23.2667C56.8468 23.353 56.7315 23.4187 56.6067 23.46C56.5042 23.4972 56.3957 23.5152 56.2867 23.5133C56.0792 23.5141 55.8766 23.4504 55.707 23.3309C55.5374 23.2115 55.4092 23.0423 55.34 22.8467C54.727 21.0147 53.9108 19.2571 52.9067 17.6067ZM52.5333 45C53.5842 43.3856 54.4476 41.6567 55.1067 39.8467C55.2082 39.6153 55.3935 39.431 55.6254 39.3307C55.8572 39.2304 56.1185 39.2216 56.3566 39.306C56.5947 39.3905 56.792 39.5619 56.9089 39.7859C57.0258 40.0098 57.0536 40.2697 56.9867 40.5133C56.2737 42.466 55.341 44.3313 54.2067 46.0733C54.1151 46.2125 53.9904 46.3268 53.8438 46.4059C53.6972 46.485 53.5333 46.5265 53.3667 46.5267C53.1731 46.5252 52.9838 46.4698 52.82 46.3667C52.6034 46.2213 52.4522 45.997 52.3986 45.7417C52.3451 45.4863 52.3934 45.2202 52.5333 45ZM44.6 8.03333C44.6704 7.92248 44.7622 7.8267 44.8698 7.75152C44.9775 7.67635 45.0991 7.62327 45.2274 7.59538C45.3557 7.56748 45.4883 7.5653 45.6175 7.58898C45.7467 7.61266 45.8699 7.66173 45.98 7.73333C47.6355 8.80063 49.171 10.0434 50.56 11.44L50.7933 11.6667C50.979 11.855 51.0831 12.1089 51.0831 12.3733C51.0831 12.6378 50.979 12.8916 50.7933 13.08C50.6156 13.2568 50.3772 13.3593 50.1267 13.3667C49.993 13.3676 49.8606 13.3409 49.7379 13.2881C49.6151 13.2353 49.5046 13.1577 49.4133 13.06L49.2 12.8533C47.91 11.5599 46.4865 10.4067 44.9533 9.41333C44.8381 9.34727 44.7373 9.25878 44.6569 9.15308C44.5765 9.04739 44.5181 8.92664 44.4851 8.79798C44.4522 8.66932 44.4454 8.53536 44.4651 8.40402C44.4848 8.27268 44.5307 8.14664 44.6 8.03333ZM4.94 21.6667C5.63749 19.7169 6.55213 17.8519 7.66667 16.1067C7.81633 15.8989 8.04 15.7565 8.29156 15.7087C8.54312 15.661 8.80342 15.7115 9.01881 15.85C9.2342 15.9885 9.38827 16.2043 9.44926 16.453C9.51026 16.7016 9.47354 16.9643 9.34667 17.1867C8.31719 18.8028 7.47192 20.5291 6.82667 22.3333C6.7579 22.5279 6.63064 22.6963 6.46236 22.8157C6.29407 22.935 6.09298 22.9994 5.88667 23C5.77074 22.9996 5.65573 22.9793 5.54667 22.94C5.42291 22.8967 5.30895 22.8293 5.21136 22.7417C5.11378 22.6541 5.0345 22.5481 4.9781 22.4297C4.92171 22.3113 4.8893 22.183 4.88276 22.052C4.87622 21.921 4.89568 21.7901 4.94 21.6667ZM22.4133 6.74667C22.5221 6.7452 22.63 6.72722 22.7333 6.69333C24.0164 6.26144 25.3316 5.93152 26.6667 5.70667V7.66667C26.6667 7.79799 26.6925 7.92802 26.7428 8.04935C26.793 8.17068 26.8667 8.28091 26.9596 8.37377C27.0524 8.46663 27.1627 8.54029 27.284 8.59055C27.4053 8.6408 27.5353 8.66667 27.6667 8.66667H34.3333C34.5986 8.66667 34.8529 8.56131 35.0404 8.37377C35.228 8.18624 35.3333 7.93188 35.3333 7.66667V5.70667C36.8313 5.95972 38.3038 6.34569 39.7333 6.86C39.8424 6.8993 39.9574 6.9196 40.0733 6.92C40.2996 6.90888 40.5154 6.82126 40.6854 6.67148C40.8554 6.52171 40.9694 6.31865 41.0089 6.09558C41.0484 5.8725 41.011 5.64262 40.9028 5.44358C40.7946 5.24454 40.622 5.08815 40.4133 5C38.7663 4.39485 37.0653 3.94838 35.3333 3.66667V1C35.3333 0.734784 35.228 0.48043 35.0404 0.292893C34.8529 0.105357 34.5986 0 34.3333 0H27.6667C27.4015 0 27.1471 0.105357 26.9596 0.292893C26.772 0.48043 26.6667 0.734784 26.6667 1V3.66667C25.1129 3.91122 23.5829 4.28815 22.0933 4.79333C21.8692 4.86961 21.6795 5.0229 21.5578 5.22595C21.4361 5.429 21.3904 5.66863 21.4288 5.90221C21.4672 6.13579 21.5872 6.34818 21.7675 6.50159C21.9478 6.655 22.1766 6.73948 22.4133 6.74V6.74667ZM28.6667 2H33.3333V6.66667H28.6667V2ZM34.3333 53.3333H27.6667C27.4015 53.3333 27.1471 53.4387 26.9596 53.6262C26.772 53.8138 26.6667 54.0681 26.6667 54.3333V56.3333C25.2342 56.0869 23.8249 55.7212 22.4533 55.24C22.3295 55.1962 22.1982 55.1773 22.067 55.1842C21.9358 55.1912 21.8072 55.224 21.6887 55.2806C21.5701 55.3372 21.4639 55.4167 21.376 55.5144C21.2882 55.6121 21.2204 55.7261 21.1767 55.85C21.1329 55.9739 21.1139 56.1052 21.1209 56.2364C21.1279 56.3676 21.1606 56.4961 21.2173 56.6147C21.2739 56.7332 21.3533 56.8394 21.451 56.9273C21.5487 57.0151 21.6628 57.0829 21.7867 57.1267C23.3727 57.6784 25.0063 58.0824 26.6667 58.3333V61C26.6667 61.2652 26.772 61.5196 26.9596 61.7071C27.1471 61.8946 27.4015 62 27.6667 62H34.3333C34.5986 62 34.8529 61.8946 35.0404 61.7071C35.228 61.5196 35.3333 61.2652 35.3333 61V58.3333C36.9564 58.0798 38.5538 57.6826 40.1067 57.1467C40.231 57.1029 40.3455 57.0351 40.4436 56.947C40.5417 56.859 40.6215 56.7526 40.6784 56.6337C40.7354 56.5148 40.7684 56.3859 40.7755 56.2543C40.7826 56.1227 40.7638 55.991 40.72 55.8667C40.6762 55.7424 40.6084 55.6279 40.5204 55.5298C40.4324 55.4317 40.3259 55.3519 40.207 55.2949C40.0882 55.2379 39.9593 55.205 39.8276 55.1978C39.696 55.1907 39.5643 55.2096 39.44 55.2533C38.1031 55.7257 36.7296 56.0869 35.3333 56.3333V54.3333C35.3333 54.0681 35.228 53.8138 35.0404 53.6262C34.8529 53.4387 34.5986 53.3333 34.3333 53.3333ZM33.3333 60H28.6667V55.3333H33.3333V60ZM53.3333 27.6667V34.3333C53.3333 34.5986 53.4387 34.8529 53.6262 35.0404C53.8138 35.228 54.0681 35.3333 54.3333 35.3333H57.2733H57.3333H57.46C57.4977 35.3366 57.5356 35.3366 57.5733 35.3333H61C61.2652 35.3333 61.5196 35.228 61.7071 35.0404C61.8946 34.8529 62 34.5986 62 34.3333V27.6667C62 27.4015 61.8946 27.1471 61.7071 26.9596C61.5196 26.772 61.2652 26.6667 61 26.6667H54.3333C54.0681 26.6667 53.8138 26.772 53.6262 26.9596C53.4387 27.1471 53.3333 27.4015 53.3333 27.6667ZM55.3333 28.6667H60V33.3333H55.3333V28.6667ZM1 35.3333H7.66667C7.93188 35.3333 8.18624 35.228 8.37377 35.0404C8.56131 34.8529 8.66667 34.5986 8.66667 34.3333V27.6667C8.66667 27.4015 8.56131 27.1471 8.37377 26.9596C8.18624 26.772 7.93188 26.6667 7.66667 26.6667H1C0.734784 26.6667 0.48043 26.772 0.292893 26.9596C0.105357 27.1471 0 27.4015 0 27.6667V34.3333C0 34.5986 0.105357 34.8529 0.292893 35.0404C0.48043 35.228 0.734784 35.3333 1 35.3333ZM2 28.6667H6.66667V33.3333H2V28.6667Z" fill="#048DEF"></path></svg>