<svg xmlns="http://www.w3.org/2000/svg" width="62" height="62" viewBox="0 0 62 62" fill="none"><path d="M58.9 0H3.1C2.27812 0.000940125 1.49017 0.327848 0.909007 0.909007C0.327848 1.49017 0.000940125 2.27812 0 3.1V48.5667C0.000940125 49.3885 0.327848 50.1765 0.909007 50.7577C1.49017 51.3388 2.27812 51.6657 3.1 51.6667H24.4445L21.9645 59.9333H18.6V62H43.4V59.9333H40.0355L37.5555 51.6667H58.9C59.7219 51.6657 60.5098 51.3388 61.091 50.7577C61.6721 50.1765 61.9991 49.3885 62 48.5667V3.1C61.9991 2.27812 61.6721 1.49017 61.091 0.909007C60.5098 0.327848 59.7219 0.000940125 58.9 0ZM37.8778 59.9333H24.1222L26.6022 51.6667H35.3978L37.8778 59.9333ZM59.9333 48.5667C59.933 48.8406 59.824 49.1033 59.6303 49.297C59.4366 49.4907 59.174 49.5997 58.9 49.6H3.1C2.82604 49.5997 2.56339 49.4907 2.36967 49.297C2.17595 49.1033 2.06698 48.8406 2.06667 48.5667V45.4667H59.9333V48.5667ZM59.9333 43.4H2.06667V3.1C2.06698 2.82604 2.17595 2.56339 2.36967 2.36967C2.56339 2.17595 2.82604 2.06698 3.1 2.06667H58.9C59.174 2.06698 59.4366 2.17595 59.6303 2.36967C59.824 2.56339 59.933 2.82604 59.9333 3.1V43.4Z" fill="#048DEF"></path><path d="M54.7719 17.5667H41.1613C41.0255 17.5671 40.891 17.5405 40.7656 17.4885C40.6401 17.4366 40.5263 17.3602 40.4305 17.264L37.5079 14.3413C37.2207 14.0525 36.8791 13.8236 36.5028 13.6678C36.1265 13.5119 35.7231 13.4322 35.3158 13.4334H23.7719C22.95 13.4343 22.162 13.7612 21.5809 14.3424C20.9997 14.9235 20.6728 15.7115 20.6719 16.5334V38.2334C20.6728 39.0552 20.9997 39.8432 21.5809 40.4244C22.162 41.0055 22.95 41.3324 23.7719 41.3334H54.7719C55.5938 41.3324 56.3817 41.0055 56.9629 40.4244C57.544 39.8432 57.8709 39.0552 57.8719 38.2334V20.6667C57.8709 19.8448 57.544 19.0569 56.9629 18.4757C56.3817 17.8945 55.5938 17.5676 54.7719 17.5667ZM55.8052 38.2334C55.8049 38.5073 55.6959 38.77 55.5022 38.9637C55.3085 39.1574 55.0458 39.2664 54.7719 39.2667H23.7719C23.4979 39.2664 23.2353 39.1574 23.0415 38.9637C22.8478 38.77 22.7389 38.5073 22.7385 38.2334V16.5334C22.7389 16.2594 22.8478 15.9967 23.0415 15.803C23.2353 15.6093 23.4979 15.5003 23.7719 15.5H35.3158C35.4516 15.4997 35.5861 15.5262 35.7115 15.5782C35.837 15.6301 35.9508 15.7065 36.0466 15.8028L38.9692 18.7254C39.2564 19.0142 39.598 19.2431 39.9743 19.399C40.3506 19.5548 40.754 19.6345 41.1613 19.6334H54.7719C55.0458 19.6337 55.3085 19.7426 55.5022 19.9364C55.6959 20.1301 55.8049 20.3927 55.8052 20.6667V38.2334Z" fill="#048DEF"></path><path d="M32.3347 23.036L26.4375 28.9334L32.3347 34.8307L33.7961 33.3693L29.36 28.9334L33.7961 24.4974L32.3347 23.036Z" fill="#048DEF"></path><path d="M36.2969 33.6166L41.4673 24.3183L43.2735 25.3226L38.103 34.6209L36.2969 33.6166Z" fill="#048DEF"></path><path d="M44.7344 24.4974L49.1705 28.9334L44.7344 33.3693L46.1958 34.8307L52.093 28.9334L46.1958 23.036L44.7344 24.4974Z" fill="#048DEF"></path><path d="M24.1349 6.19997L25.8082 10.1033L29.4985 11.6323L33.4483 10.054L35.4916 12.0973L36.9528 10.6359L33.9465 7.62933L29.5127 9.40111L27.3763 8.51593L25.4974 4.1333H19.9838L18.1051 8.51593L15.9685 9.40111L11.5349 7.62933L7.63678 11.5276L9.40843 15.9612L8.52325 18.0976L4.14062 19.9765V25.4901L8.52312 27.369L9.40843 29.5054L7.63665 33.939L11.5348 37.8373L15.9685 36.0655L18.2117 36.995L19.0029 35.0858L15.9828 33.8343L12.033 35.4126L10.0614 33.441L11.6397 29.4912L10.1105 25.8008L6.20729 24.1275V21.3391L10.1106 19.6659L11.6397 15.9754L10.0614 12.0256L12.0331 10.054L15.9828 11.6323L19.673 10.1033L21.3464 6.19997H24.1349Z" fill="#048DEF"></path><path d="M19.0505 15.3253L18.1308 13.4746C16.4069 14.3305 14.9562 15.6506 13.9421 17.2864C12.928 18.9222 12.3906 20.8086 12.3906 22.7332C12.3906 24.6579 12.928 26.5443 13.9421 28.1801C14.9562 29.8158 16.4069 31.136 18.1308 31.9919L19.0505 30.1411C17.6711 29.4564 16.5103 28.4002 15.6988 27.0914C14.8873 25.7826 14.4573 24.2732 14.4573 22.7332C14.4573 21.1933 14.8873 19.6839 15.6988 18.3751C16.5103 17.0663 17.6711 16.01 19.0505 15.3253Z" fill="#048DEF"></path></svg>