<svg xmlns="http://www.w3.org/2000/svg" width="38" height="39" viewBox="0 0 38 39" fill="none"><mask id="path-1-outside-1_1577_199" maskUnits="userSpaceOnUse" x="-0.289062" y="0.0910645" width="39" height="39" fill="black"><rect fill="white" x="-0.289062" y="0.0910645" width="39" height="39"></rect><path fill-rule="evenodd" clip-rule="evenodd" d="M19.0786 21.404C18.1444 21.404 17.3844 20.6342 17.3844 19.6886C17.3844 18.7428 18.1445 17.9729 19.0786 17.9729C20.0128 17.9729 20.7728 18.7428 20.7728 19.6886C20.7728 20.6342 20.0127 21.404 19.0786 21.404ZM19.0786 17.2138C17.7306 17.2138 16.6346 18.3238 16.6346 19.6886C16.6346 21.0532 17.7306 22.1629 19.0786 22.1629C20.4267 22.1629 21.5227 21.0532 21.5227 19.6886C21.5226 18.3238 20.4267 17.2138 19.0786 17.2138ZM26.9221 21.4905C26.9221 20.5236 26.35 19.6641 25.4638 19.3014C25.272 19.2233 25.1796 19.0016 25.2569 18.8071C25.3348 18.613 25.553 18.5194 25.7451 18.5976C25.8928 18.6576 26.0327 18.7289 26.1663 18.8086C26.2283 18.6108 26.2608 18.4035 26.2608 18.1933C26.2608 17.4441 25.8543 16.7677 25.2226 16.4169C25.0929 16.6924 24.9166 16.9462 24.6977 17.1678C24.5515 17.3167 24.3138 17.3167 24.1675 17.1678C24.0216 17.0197 24.0216 16.7792 24.1675 16.631C24.5296 16.2645 24.7291 15.7773 24.7291 15.2586C24.7291 14.1882 23.8689 13.3176 22.8121 13.3176C22.3002 13.3176 21.8187 13.5196 21.4566 13.8862C21.3103 14.034 21.0727 14.034 20.9264 13.8862C20.7794 13.7381 20.7794 13.4976 20.9264 13.3494C21.3508 12.92 21.893 12.6526 22.4793 12.5791C22.3188 11.896 21.7108 11.3856 20.9867 11.3856C20.1417 11.3856 19.4532 12.082 19.4532 12.9382V14.6582C19.5015 14.6617 19.5495 14.6642 19.5967 14.6689C20.0172 14.7135 20.3388 15.0422 20.3779 15.4688L20.4399 16.1437C20.4431 16.1747 20.4586 16.1958 20.4865 16.2079C20.5143 16.2193 20.5404 16.215 20.5644 16.1943L21.0759 15.7578C21.3988 15.4815 21.8553 15.4755 22.186 15.7427C22.4673 15.9698 22.7236 16.2278 22.9499 16.5101C23.2167 16.8427 23.2146 17.3057 22.9439 17.6351L22.5166 18.1566C22.4973 18.1801 22.4934 18.2066 22.5046 18.2348C22.5166 18.2633 22.5385 18.2787 22.5692 18.2819L23.2358 18.3386C23.6577 18.3751 23.9853 18.6977 24.0318 19.1242C24.0522 19.3094 24.0624 19.5 24.0624 19.6885C24.0624 19.863 24.0537 20.0397 24.0363 20.2128C23.992 20.6386 23.6676 20.9645 23.246 21.0037L22.5797 21.0666C22.5491 21.0698 22.5279 21.0859 22.5159 21.1137C22.5046 21.1419 22.5093 21.1682 22.5293 21.1925L22.9604 21.7104C23.2333 22.0378 23.2393 22.5 22.9756 22.8344C22.7513 23.1185 22.4965 23.3787 22.2176 23.6082C21.8891 23.8784 21.4326 23.8759 21.1065 23.6021L20.5914 23.1692C20.5682 23.1495 20.5417 23.1459 20.5142 23.157C20.4857 23.1692 20.4705 23.1913 20.4677 23.2227L20.4113 23.8973C20.3753 24.3246 20.0567 24.6564 19.6353 24.7032C19.5754 24.7103 19.5141 24.7139 19.4531 24.7185V26.4386C19.4531 27.2948 20.1415 27.9908 20.9865 27.9908C21.4818 27.9908 21.9436 27.7434 22.2285 27.3487C21.865 27.2059 21.5305 26.9868 21.2464 26.6991C21.1004 26.5502 21.1004 26.3104 21.2464 26.1623C21.3927 26.0134 21.6303 26.0134 21.7766 26.1623C22.1724 26.5624 22.698 26.7826 23.2572 26.7826C24.411 26.7826 25.3497 25.8321 25.3497 24.6632C25.3497 24.0968 25.1323 23.5649 24.7371 23.1648C24.5904 23.0167 24.5904 22.7761 24.7371 22.628C24.8834 22.4799 25.1209 22.4799 25.2673 22.628C25.5141 22.8779 25.7097 23.1648 25.8489 23.4775C26.5111 23.0488 26.9221 22.305 26.9221 21.4905ZM17.1708 27.9911C18.0154 27.9911 18.7038 27.2951 18.7038 26.4389V24.7188C18.6556 24.7159 18.6076 24.7127 18.5607 24.7081C18.1401 24.6635 17.8183 24.3347 17.7792 23.9083L17.7171 23.2333C17.7139 23.2023 17.6984 23.1809 17.6706 23.1687C17.6427 23.1573 17.6167 23.162 17.5927 23.1826L17.0812 23.6188C16.7583 23.8954 16.3018 23.9014 15.9711 23.6341C15.6898 23.4071 15.4335 23.149 15.2072 22.8667C14.9404 22.5341 14.9425 22.0712 15.2132 21.7417L15.6397 21.2202C15.6598 21.1967 15.6637 21.1702 15.6525 21.142C15.6405 21.1131 15.6186 21.0982 15.5879 21.0949L14.9213 21.0382C14.4993 21.0018 14.1718 20.6792 14.1253 20.2526C14.1049 20.0674 14.0947 19.8767 14.0947 19.6886C14.0947 19.5131 14.1035 19.337 14.1207 19.164C14.1651 18.7381 14.4895 18.4126 14.9111 18.373L15.5773 18.3099C15.6084 18.307 15.6292 18.291 15.6411 18.2627C15.6525 18.2349 15.6478 18.2081 15.6277 18.1839L15.1966 17.6663C14.9238 17.339 14.9178 16.8768 15.1814 16.542C15.4057 16.2575 15.6605 15.9976 15.9393 15.7685C16.2678 15.4983 16.7244 15.5004 17.0504 15.7746L17.5655 16.2065C17.5887 16.2272 17.6159 16.2308 17.6426 16.2193C17.6712 16.2071 17.6863 16.1854 17.6892 16.1543L17.7456 15.4793C17.7816 15.0518 18.1002 14.7202 18.5214 14.6731C18.5813 14.6663 18.6427 14.6616 18.7037 14.6573V12.938C18.7037 12.0818 18.0152 11.3854 17.1706 11.3854C16.4462 11.3854 15.8381 11.8958 15.6777 12.579C16.264 12.6525 16.8061 12.9199 17.2306 13.3492C17.3766 13.4973 17.3766 13.7379 17.2306 13.886C17.0843 14.0338 16.8467 14.0338 16.7004 13.886C16.3384 13.5195 15.8568 13.3175 15.3449 13.3175C14.2881 13.3175 13.4279 14.188 13.4279 15.2585C13.4279 15.7771 13.6274 16.2643 13.9896 16.6309C14.1358 16.779 14.1358 17.0195 13.9896 17.1677C13.8433 17.3165 13.6057 17.3165 13.4594 17.1677C13.2404 16.946 13.0638 16.6923 12.9348 16.4167C12.302 16.7676 11.8962 17.444 11.8962 18.1931C11.8962 18.4034 11.9287 18.6107 11.9907 18.8084C12.1243 18.7288 12.2643 18.6574 12.4119 18.5975C12.6041 18.5193 12.8223 18.6128 12.9002 18.807C12.9774 19.0015 12.885 19.2232 12.6932 19.3013C11.807 19.6639 11.2348 20.5234 11.2348 21.4903C11.2348 22.3048 11.6459 23.0486 12.3079 23.4777C12.4471 23.165 12.6432 22.878 12.8895 22.6282C13.0358 22.4801 13.2734 22.4801 13.4197 22.6282C13.566 22.7763 13.566 23.0169 13.4197 23.165C13.0245 23.5651 12.8063 24.0969 12.8063 24.6633C12.8063 25.8323 13.7457 26.7827 14.8995 26.7827C15.4587 26.7827 15.9842 26.5625 16.3801 26.1624C16.5264 26.0136 16.764 26.0136 16.9103 26.1624C17.0563 26.3105 17.0563 26.5504 16.9103 26.6992C16.6259 26.9869 16.2917 27.2061 15.9282 27.3489C16.2133 27.7437 16.6751 27.9911 17.1708 27.9911ZM21.8135 18.5286C21.6943 18.2409 21.7429 17.9123 21.9404 17.6716L22.3676 17.1501C22.4075 17.1016 22.4082 17.0377 22.3684 16.9885C22.1759 16.7486 21.9573 16.5291 21.7183 16.3363C21.6697 16.2967 21.6066 16.2978 21.5586 16.3385L21.0475 16.775C20.8113 16.977 20.4873 17.0284 20.2025 16.9103C19.9169 16.7918 19.722 16.5244 19.6934 16.2132L19.6321 15.5386C19.6258 15.4755 19.5817 15.4308 19.5193 15.4241C19.2165 15.392 18.9056 15.3934 18.6041 15.4277C18.5418 15.4344 18.4983 15.4801 18.4931 15.5433L18.436 16.2185C18.4099 16.5305 18.2171 16.7985 17.9329 16.9192C17.6492 17.0398 17.3242 16.9906 17.0865 16.791L16.5715 16.3584C16.5235 16.3181 16.4604 16.3174 16.4118 16.3577C16.1749 16.5526 15.958 16.7736 15.7681 17.0156C15.7289 17.0652 15.7297 17.1287 15.7702 17.1772L16.2013 17.6952C16.4008 17.9333 16.4517 18.2623 16.3346 18.5503C16.2175 18.8398 15.9539 19.0372 15.6465 19.0658L14.9798 19.1289C14.9178 19.1343 14.8738 19.1789 14.8667 19.2421C14.8519 19.3891 14.8441 19.5394 14.8441 19.6886C14.8441 19.8492 14.8526 20.0102 14.8706 20.169C14.8773 20.2318 14.9221 20.2757 14.9845 20.2814L15.6518 20.3389C15.9592 20.3653 16.2246 20.5605 16.3438 20.8482C16.4629 21.1366 16.4142 21.4646 16.2168 21.7052L15.7896 22.2267C15.7498 22.2752 15.749 22.3391 15.7889 22.3884C15.9814 22.6282 16.2 22.8478 16.439 23.0405C16.4876 23.0801 16.5508 23.0791 16.5987 23.038L17.1098 22.6018C17.2621 22.4719 17.4503 22.4045 17.6421 22.4045C17.7471 22.4045 17.8536 22.4248 17.9548 22.4666C18.2404 22.5851 18.4353 22.8524 18.4639 23.1636L18.5259 23.8382C18.5315 23.9014 18.5756 23.946 18.6379 23.9528C18.9407 23.9849 19.2517 23.9831 19.5531 23.9492C19.6155 23.9424 19.6588 23.8967 19.6641 23.8336L19.7213 23.1583C19.7474 22.8471 19.9402 22.5783 20.2243 22.4577C20.5091 22.3371 20.8332 22.3863 21.0707 22.5858L21.5858 23.0184C21.6338 23.0587 21.6968 23.0595 21.7451 23.0191C21.9824 22.8242 22.1988 22.6026 22.3892 22.3609C22.4283 22.3116 22.4275 22.2481 22.3871 22.1996L21.9559 21.6817C21.7567 21.4433 21.7056 21.1149 21.8226 20.8261C21.9396 20.537 22.2033 20.3396 22.5108 20.3107L23.1774 20.2486C23.2394 20.2425 23.2839 20.1979 23.2905 20.1348C23.3053 19.9873 23.3131 19.837 23.3131 19.6886C23.3131 19.5273 23.3046 19.3666 23.2866 19.2078C23.28 19.145 23.2348 19.101 23.1728 19.0954L22.5054 19.0379C22.1981 19.0112 21.9329 18.8163 21.8135 18.5286ZM27.0103 18.1931C27.0103 17.1105 26.3933 16.1383 25.4465 15.6803C25.4677 15.5422 25.4789 15.4012 25.4789 15.2585C25.4789 13.9185 24.5102 12.8035 23.2446 12.594C23.0804 11.4818 22.1307 10.6266 20.9868 10.6266C20.1898 10.6266 19.4871 11.0418 19.0785 11.6703C18.67 11.0418 17.9667 10.6266 17.1707 10.6266C16.0264 10.6266 15.0774 11.4818 14.9124 12.594C13.6469 12.8035 12.6782 13.9186 12.6782 15.2585C12.6782 15.4012 12.6894 15.5422 12.7106 15.6803C11.7638 16.1383 11.1468 17.1105 11.1468 18.1931C11.1468 18.5739 11.2237 18.9505 11.3717 19.2974C10.8137 19.8689 10.4855 20.6487 10.4855 21.4904C10.4855 22.6418 11.1063 23.6848 12.0891 24.2284C12.068 24.3712 12.0567 24.5161 12.0567 24.6635C12.0567 26.2507 13.3328 27.5417 14.8998 27.5417C14.9868 27.5417 15.0721 27.5382 15.1574 27.5303C15.5512 28.2705 16.3278 28.7503 17.1707 28.7503C17.9674 28.7503 18.67 28.3351 19.0785 27.7066C19.4871 28.3352 20.1897 28.7503 20.9868 28.7503C21.8293 28.7503 22.6059 28.2705 22.9996 27.5303C23.085 27.5382 23.1703 27.5417 23.2573 27.5417C24.8243 27.5417 26.0994 26.2507 26.0994 24.6635C26.0994 24.5161 26.0892 24.3712 26.068 24.2284C27.0508 23.6848 27.6717 22.6418 27.6717 21.4904C27.6717 20.6487 27.3434 19.8685 26.7858 19.2974C26.9334 18.9505 27.0103 18.574 27.0103 18.1931ZM35.7239 26.7865C35.188 26.7865 34.751 26.3446 34.751 25.8021C34.751 25.2592 35.1881 24.8184 35.7239 24.8184C36.2597 24.8184 36.6968 25.2592 36.6968 25.8021C36.6968 26.3446 36.2597 26.7865 35.7239 26.7865ZM29.3661 28.2478V11.1292C29.3661 10.1052 28.5437 9.27246 27.5323 9.27246H10.6248C9.61345 9.27246 8.79103 10.1052 8.79103 11.1292V28.2478C8.79103 29.2718 9.61345 30.1045 10.6248 30.1045H27.5323C28.5437 30.1045 29.3661 29.2718 29.3661 28.2478ZM26.0891 36.5423C26.0891 37.0848 25.6527 37.5268 25.1168 37.5268C24.5806 37.5268 24.1449 37.0849 24.1449 36.5423C24.1449 36.0001 24.5806 35.5583 25.1168 35.5583C25.6527 35.5583 26.0891 36.0002 26.0891 36.5423ZM20.0502 35.4591C20.0502 36.0009 19.6148 36.4427 19.0786 36.4427C18.5424 36.4427 18.1064 36.0009 18.1064 35.4591C18.1064 34.9162 18.5424 34.4743 19.0786 34.4743C19.6148 34.4743 20.0502 34.9162 20.0502 35.4591ZM14.0122 36.5423C14.0122 37.0848 13.5765 37.5268 13.0406 37.5268C12.5045 37.5268 12.0681 37.0849 12.0681 36.5423C12.0681 36.0001 12.5045 35.5583 13.0406 35.5583C13.5765 35.5583 14.0122 36.0002 14.0122 36.5423ZM2.43226 26.7865C1.89682 26.7865 1.46034 26.3446 1.46034 25.8021C1.46034 25.2592 1.89674 24.8184 2.43226 24.8184C2.96807 24.8184 3.40447 25.2592 3.40447 25.8021C3.40455 26.3446 2.96807 26.7865 2.43226 26.7865ZM3.50291 20.6731C2.9674 20.6731 2.53099 20.2312 2.53099 19.6886C2.53099 19.1458 2.9674 18.7039 3.50291 18.7039C4.03873 18.7039 4.47513 19.1458 4.47513 19.6886C4.47513 20.2312 4.03873 20.6731 3.50291 20.6731ZM2.43226 14.5586C1.89682 14.5586 1.46034 14.1174 1.46034 13.5749C1.46034 13.032 1.89674 12.5902 2.43226 12.5902C2.96807 12.5902 3.40447 13.032 3.40447 13.5749C3.40455 14.1174 2.96807 14.5586 2.43226 14.5586ZM12.0681 2.83466C12.0681 2.29215 12.5045 1.85022 13.0406 1.85022C13.5765 1.85022 14.0122 2.29207 14.0122 2.83466C14.0122 3.37679 13.5765 3.81835 13.0406 3.81835C12.5045 3.81835 12.0681 3.37679 12.0681 2.83466ZM18.1063 3.91862C18.1063 3.37573 18.5424 2.93418 19.0785 2.93418C19.6147 2.93418 20.0501 3.37573 20.0501 3.91862C20.0501 4.46075 19.6147 4.90231 19.0785 4.90231C18.5424 4.90231 18.1063 4.46075 18.1063 3.91862ZM24.145 2.83466C24.145 2.29215 24.5807 1.85022 25.1169 1.85022C25.6527 1.85022 26.0892 2.29207 26.0892 2.83466C26.0892 3.37679 25.6528 3.81835 25.1169 3.81835C24.5807 3.81835 24.145 3.37679 24.145 2.83466ZM35.7239 12.5902C36.2597 12.5902 36.6968 13.032 36.6968 13.5749C36.6968 14.1174 36.2597 14.5586 35.7239 14.5586C35.188 14.5586 34.751 14.1174 34.751 13.5749C34.7509 13.032 35.188 12.5902 35.7239 12.5902ZM34.6522 18.7039C35.188 18.7039 35.6251 19.1458 35.6251 19.6886C35.6251 20.2312 35.188 20.6731 34.6522 20.6731C34.1199 20.6731 33.6827 20.2312 33.6827 19.6886C33.6828 19.1458 34.1199 18.7039 34.6522 18.7039ZM35.7239 24.0593C34.9025 24.0593 34.2151 24.6435 34.0459 25.4223H32.7591V22.5434C32.7591 22.3339 32.5914 22.164 32.3844 22.164H30.1156V20.0681H32.9742C33.1469 20.8476 33.8343 21.4319 34.6522 21.4319C35.604 21.4319 36.3759 20.6495 36.3759 19.6886C36.3759 18.7274 35.604 17.9447 34.6522 17.9447C33.8343 17.9447 33.1469 18.5294 32.9742 19.3089H30.1156V17.213H32.3844C32.5914 17.213 32.7591 17.0431 32.7591 16.8336V13.9543H34.0459C34.2151 14.7338 34.9025 15.3177 35.7239 15.3177C36.6757 15.3177 37.4477 14.5357 37.4477 13.5749C37.4477 12.6141 36.6757 11.8313 35.7239 11.8313C34.9025 11.8313 34.2151 12.4156 34.0459 13.1951H32.3844C32.1775 13.1951 32.0094 13.3654 32.0094 13.5749V16.4538H30.1156V11.1292C30.1156 9.68691 28.9569 8.51331 27.5324 8.51331H22.2731V6.59588H25.1169C25.3235 6.59588 25.4916 6.426 25.4916 6.2165V4.53575C26.2615 4.36192 26.8386 3.66517 26.8386 2.83466C26.8386 1.87306 26.0659 1.09106 25.1169 1.09106C24.1675 1.09106 23.3956 1.87306 23.3956 2.83466C23.3956 3.66524 23.9719 4.36192 24.7418 4.53575V5.83673H21.898C21.6915 5.83673 21.5233 6.00699 21.5233 6.2165V8.51331H19.4533V5.61971C20.2236 5.44588 20.7999 4.7492 20.7999 3.91862C20.7999 2.9571 20.0279 2.17502 19.0785 2.17502C18.1292 2.17502 17.3565 2.95702 17.3565 3.91862C17.3565 4.7492 17.9335 5.44588 18.7038 5.61971V8.51331H16.6338V6.2165C16.6338 6.00699 16.4656 5.83673 16.259 5.83673H13.4152V4.53575C14.1844 4.36192 14.7614 3.66517 14.7614 2.83466C14.7614 1.87306 13.9894 1.09106 13.0404 1.09106C12.0911 1.09106 11.3184 1.87306 11.3184 2.83466C11.3184 3.66524 11.8954 4.36192 12.6653 4.53575V6.2165C12.6653 6.426 12.8334 6.59588 13.0403 6.59588H15.8838V8.51331H10.6245C9.20029 8.51331 8.04125 9.68691 8.04125 11.1292V16.4538H6.14749V13.5749C6.14749 13.3654 5.97933 13.1951 5.77242 13.1951H4.1131C3.94141 12.4156 3.25296 11.8313 2.43226 11.8313C1.48291 11.8313 0.710938 12.6141 0.710938 13.5749C0.710938 14.5357 1.48298 15.3177 2.43226 15.3177C3.25288 15.3177 3.94141 14.7338 4.1131 13.9543H5.39801V16.8336C5.39801 17.0431 5.5658 17.213 5.77272 17.213H8.04155V19.3089H5.18367C5.01199 18.5294 4.32354 17.9447 3.50284 17.9447C2.55349 17.9447 1.78152 18.7275 1.78152 19.6886C1.78152 20.6495 2.55356 21.4319 3.50284 21.4319C4.32346 21.4319 5.01199 20.8476 5.18367 20.0681H8.04155V22.164H5.77272C5.5658 22.164 5.39801 22.3339 5.39801 22.5434V25.4223H4.1131C3.94141 24.6435 3.25296 24.0593 2.43226 24.0593C1.48291 24.0593 0.710938 24.8413 0.710938 25.8021C0.710938 26.7629 1.48298 27.5457 2.43226 27.5457C3.25288 27.5457 3.94141 26.961 4.1131 26.1816H5.77272C5.97963 26.1816 6.14779 26.0117 6.14779 25.8022V22.9228H8.04155V28.2478C8.04155 29.6902 9.20059 30.8638 10.6248 30.8638H15.8841V32.7812H13.0406C12.8337 32.7812 12.6656 32.9511 12.6656 33.1606V34.8413C11.8957 35.0151 11.3187 35.7118 11.3187 36.5424C11.3187 37.5039 12.0914 38.286 13.0407 38.286C13.9897 38.286 14.7617 37.504 14.7617 36.5424C14.7617 35.7118 14.1847 35.0151 13.4155 34.8413V33.54H16.2593C16.4659 33.54 16.6341 33.3701 16.6341 33.1606V30.8638H18.7041V33.7574C17.9338 33.9312 17.3568 34.6279 17.3568 35.4592C17.3568 36.42 18.1295 37.202 19.0788 37.202C20.0282 37.202 20.8002 36.42 20.8002 35.4592C20.8002 34.6279 20.2239 33.9312 19.4536 33.7574V30.8638H21.5233V33.1606C21.5233 33.3701 21.6915 33.54 21.898 33.54H24.7418V34.8413C23.9719 35.0151 23.3956 35.7118 23.3956 36.5424C23.3956 37.5039 24.1676 38.286 25.1169 38.286C26.0659 38.286 26.8386 37.504 26.8386 36.5424C26.8386 35.7118 26.2615 35.0151 25.4916 34.8413V33.1606C25.4916 32.9511 25.3234 32.7812 25.1169 32.7812H22.2731V30.8638H27.5324C28.9569 30.8638 30.1156 29.6902 30.1156 28.2478V22.9228H32.0094V25.8022C32.0094 26.0117 32.1775 26.1816 32.3844 26.1816H34.0459C34.2151 26.961 34.9025 27.5457 35.7239 27.5457C36.6757 27.5457 37.4477 26.7629 37.4477 25.8021C37.4476 24.8413 36.6757 24.0593 35.7239 24.0593Z"></path></mask><path fill-rule="evenodd" clip-rule="evenodd" d="M19.0786 21.404C18.1444 21.404 17.3844 20.6342 17.3844 19.6886C17.3844 18.7428 18.1445 17.9729 19.0786 17.9729C20.0128 17.9729 20.7728 18.7428 20.7728 19.6886C20.7728 20.6342 20.0127 21.404 19.0786 21.404ZM19.0786 17.2138C17.7306 17.2138 16.6346 18.3238 16.6346 19.6886C16.6346 21.0532 17.7306 22.1629 19.0786 22.1629C20.4267 22.1629 21.5227 21.0532 21.5227 19.6886C21.5226 18.3238 20.4267 17.2138 19.0786 17.2138ZM26.9221 21.4905C26.9221 20.5236 26.35 19.6641 25.4638 19.3014C25.272 19.2233 25.1796 19.0016 25.2569 18.8071C25.3348 18.613 25.553 18.5194 25.7451 18.5976C25.8928 18.6576 26.0327 18.7289 26.1663 18.8086C26.2283 18.6108 26.2608 18.4035 26.2608 18.1933C26.2608 17.4441 25.8543 16.7677 25.2226 16.4169C25.0929 16.6924 24.9166 16.9462 24.6977 17.1678C24.5515 17.3167 24.3138 17.3167 24.1675 17.1678C24.0216 17.0197 24.0216 16.7792 24.1675 16.631C24.5296 16.2645 24.7291 15.7773 24.7291 15.2586C24.7291 14.1882 23.8689 13.3176 22.8121 13.3176C22.3002 13.3176 21.8187 13.5196 21.4566 13.8862C21.3103 14.034 21.0727 14.034 20.9264 13.8862C20.7794 13.7381 20.7794 13.4976 20.9264 13.3494C21.3508 12.92 21.893 12.6526 22.4793 12.5791C22.3188 11.896 21.7108 11.3856 20.9867 11.3856C20.1417 11.3856 19.4532 12.082 19.4532 12.9382V14.6582C19.5015 14.6617 19.5495 14.6642 19.5967 14.6689C20.0172 14.7135 20.3388 15.0422 20.3779 15.4688L20.4399 16.1437C20.4431 16.1747 20.4586 16.1958 20.4865 16.2079C20.5143 16.2193 20.5404 16.215 20.5644 16.1943L21.0759 15.7578C21.3988 15.4815 21.8553 15.4755 22.186 15.7427C22.4673 15.9698 22.7236 16.2278 22.9499 16.5101C23.2167 16.8427 23.2146 17.3057 22.9439 17.6351L22.5166 18.1566C22.4973 18.1801 22.4934 18.2066 22.5046 18.2348C22.5166 18.2633 22.5385 18.2787 22.5692 18.2819L23.2358 18.3386C23.6577 18.3751 23.9853 18.6977 24.0318 19.1242C24.0522 19.3094 24.0624 19.5 24.0624 19.6885C24.0624 19.863 24.0537 20.0397 24.0363 20.2128C23.992 20.6386 23.6676 20.9645 23.246 21.0037L22.5797 21.0666C22.5491 21.0698 22.5279 21.0859 22.5159 21.1137C22.5046 21.1419 22.5093 21.1682 22.5293 21.1925L22.9604 21.7104C23.2333 22.0378 23.2393 22.5 22.9756 22.8344C22.7513 23.1185 22.4965 23.3787 22.2176 23.6082C21.8891 23.8784 21.4326 23.8759 21.1065 23.6021L20.5914 23.1692C20.5682 23.1495 20.5417 23.1459 20.5142 23.157C20.4857 23.1692 20.4705 23.1913 20.4677 23.2227L20.4113 23.8973C20.3753 24.3246 20.0567 24.6564 19.6353 24.7032C19.5754 24.7103 19.5141 24.7139 19.4531 24.7185V26.4386C19.4531 27.2948 20.1415 27.9908 20.9865 27.9908C21.4818 27.9908 21.9436 27.7434 22.2285 27.3487C21.865 27.2059 21.5305 26.9868 21.2464 26.6991C21.1004 26.5502 21.1004 26.3104 21.2464 26.1623C21.3927 26.0134 21.6303 26.0134 21.7766 26.1623C22.1724 26.5624 22.698 26.7826 23.2572 26.7826C24.411 26.7826 25.3497 25.8321 25.3497 24.6632C25.3497 24.0968 25.1323 23.5649 24.7371 23.1648C24.5904 23.0167 24.5904 22.7761 24.7371 22.628C24.8834 22.4799 25.1209 22.4799 25.2673 22.628C25.5141 22.8779 25.7097 23.1648 25.8489 23.4775C26.5111 23.0488 26.9221 22.305 26.9221 21.4905ZM17.1708 27.9911C18.0154 27.9911 18.7038 27.2951 18.7038 26.4389V24.7188C18.6556 24.7159 18.6076 24.7127 18.5607 24.7081C18.1401 24.6635 17.8183 24.3347 17.7792 23.9083L17.7171 23.2333C17.7139 23.2023 17.6984 23.1809 17.6706 23.1687C17.6427 23.1573 17.6167 23.162 17.5927 23.1826L17.0812 23.6188C16.7583 23.8954 16.3018 23.9014 15.9711 23.6341C15.6898 23.4071 15.4335 23.149 15.2072 22.8667C14.9404 22.5341 14.9425 22.0712 15.2132 21.7417L15.6397 21.2202C15.6598 21.1967 15.6637 21.1702 15.6525 21.142C15.6405 21.1131 15.6186 21.0982 15.5879 21.0949L14.9213 21.0382C14.4993 21.0018 14.1718 20.6792 14.1253 20.2526C14.1049 20.0674 14.0947 19.8767 14.0947 19.6886C14.0947 19.5131 14.1035 19.337 14.1207 19.164C14.1651 18.7381 14.4895 18.4126 14.9111 18.373L15.5773 18.3099C15.6084 18.307 15.6292 18.291 15.6411 18.2627C15.6525 18.2349 15.6478 18.2081 15.6277 18.1839L15.1966 17.6663C14.9238 17.339 14.9178 16.8768 15.1814 16.542C15.4057 16.2575 15.6605 15.9976 15.9393 15.7685C16.2678 15.4983 16.7244 15.5004 17.0504 15.7746L17.5655 16.2065C17.5887 16.2272 17.6159 16.2308 17.6426 16.2193C17.6712 16.2071 17.6863 16.1854 17.6892 16.1543L17.7456 15.4793C17.7816 15.0518 18.1002 14.7202 18.5214 14.6731C18.5813 14.6663 18.6427 14.6616 18.7037 14.6573V12.938C18.7037 12.0818 18.0152 11.3854 17.1706 11.3854C16.4462 11.3854 15.8381 11.8958 15.6777 12.579C16.264 12.6525 16.8061 12.9199 17.2306 13.3492C17.3766 13.4973 17.3766 13.7379 17.2306 13.886C17.0843 14.0338 16.8467 14.0338 16.7004 13.886C16.3384 13.5195 15.8568 13.3175 15.3449 13.3175C14.2881 13.3175 13.4279 14.188 13.4279 15.2585C13.4279 15.7771 13.6274 16.2643 13.9896 16.6309C14.1358 16.779 14.1358 17.0195 13.9896 17.1677C13.8433 17.3165 13.6057 17.3165 13.4594 17.1677C13.2404 16.946 13.0638 16.6923 12.9348 16.4167C12.302 16.7676 11.8962 17.444 11.8962 18.1931C11.8962 18.4034 11.9287 18.6107 11.9907 18.8084C12.1243 18.7288 12.2643 18.6574 12.4119 18.5975C12.6041 18.5193 12.8223 18.6128 12.9002 18.807C12.9774 19.0015 12.885 19.2232 12.6932 19.3013C11.807 19.6639 11.2348 20.5234 11.2348 21.4903C11.2348 22.3048 11.6459 23.0486 12.3079 23.4777C12.4471 23.165 12.6432 22.878 12.8895 22.6282C13.0358 22.4801 13.2734 22.4801 13.4197 22.6282C13.566 22.7763 13.566 23.0169 13.4197 23.165C13.0245 23.5651 12.8063 24.0969 12.8063 24.6633C12.8063 25.8323 13.7457 26.7827 14.8995 26.7827C15.4587 26.7827 15.9842 26.5625 16.3801 26.1624C16.5264 26.0136 16.764 26.0136 16.9103 26.1624C17.0563 26.3105 17.0563 26.5504 16.9103 26.6992C16.6259 26.9869 16.2917 27.2061 15.9282 27.3489C16.2133 27.7437 16.6751 27.9911 17.1708 27.9911ZM21.8135 18.5286C21.6943 18.2409 21.7429 17.9123 21.9404 17.6716L22.3676 17.1501C22.4075 17.1016 22.4082 17.0377 22.3684 16.9885C22.1759 16.7486 21.9573 16.5291 21.7183 16.3363C21.6697 16.2967 21.6066 16.2978 21.5586 16.3385L21.0475 16.775C20.8113 16.977 20.4873 17.0284 20.2025 16.9103C19.9169 16.7918 19.722 16.5244 19.6934 16.2132L19.6321 15.5386C19.6258 15.4755 19.5817 15.4308 19.5193 15.4241C19.2165 15.392 18.9056 15.3934 18.6041 15.4277C18.5418 15.4344 18.4983 15.4801 18.4931 15.5433L18.436 16.2185C18.4099 16.5305 18.2171 16.7985 17.9329 16.9192C17.6492 17.0398 17.3242 16.9906 17.0865 16.791L16.5715 16.3584C16.5235 16.3181 16.4604 16.3174 16.4118 16.3577C16.1749 16.5526 15.958 16.7736 15.7681 17.0156C15.7289 17.0652 15.7297 17.1287 15.7702 17.1772L16.2013 17.6952C16.4008 17.9333 16.4517 18.2623 16.3346 18.5503C16.2175 18.8398 15.9539 19.0372 15.6465 19.0658L14.9798 19.1289C14.9178 19.1343 14.8738 19.1789 14.8667 19.2421C14.8519 19.3891 14.8441 19.5394 14.8441 19.6886C14.8441 19.8492 14.8526 20.0102 14.8706 20.169C14.8773 20.2318 14.9221 20.2757 14.9845 20.2814L15.6518 20.3389C15.9592 20.3653 16.2246 20.5605 16.3438 20.8482C16.4629 21.1366 16.4142 21.4646 16.2168 21.7052L15.7896 22.2267C15.7498 22.2752 15.749 22.3391 15.7889 22.3884C15.9814 22.6282 16.2 22.8478 16.439 23.0405C16.4876 23.0801 16.5508 23.0791 16.5987 23.038L17.1098 22.6018C17.2621 22.4719 17.4503 22.4045 17.6421 22.4045C17.7471 22.4045 17.8536 22.4248 17.9548 22.4666C18.2404 22.5851 18.4353 22.8524 18.4639 23.1636L18.5259 23.8382C18.5315 23.9014 18.5756 23.946 18.6379 23.9528C18.9407 23.9849 19.2517 23.9831 19.5531 23.9492C19.6155 23.9424 19.6588 23.8967 19.6641 23.8336L19.7213 23.1583C19.7474 22.8471 19.9402 22.5783 20.2243 22.4577C20.5091 22.3371 20.8332 22.3863 21.0707 22.5858L21.5858 23.0184C21.6338 23.0587 21.6968 23.0595 21.7451 23.0191C21.9824 22.8242 22.1988 22.6026 22.3892 22.3609C22.4283 22.3116 22.4275 22.2481 22.3871 22.1996L21.9559 21.6817C21.7567 21.4433 21.7056 21.1149 21.8226 20.8261C21.9396 20.537 22.2033 20.3396 22.5108 20.3107L23.1774 20.2486C23.2394 20.2425 23.2839 20.1979 23.2905 20.1348C23.3053 19.9873 23.3131 19.837 23.3131 19.6886C23.3131 19.5273 23.3046 19.3666 23.2866 19.2078C23.28 19.145 23.2348 19.101 23.1728 19.0954L22.5054 19.0379C22.1981 19.0112 21.9329 18.8163 21.8135 18.5286ZM27.0103 18.1931C27.0103 17.1105 26.3933 16.1383 25.4465 15.6803C25.4677 15.5422 25.4789 15.4012 25.4789 15.2585C25.4789 13.9185 24.5102 12.8035 23.2446 12.594C23.0804 11.4818 22.1307 10.6266 20.9868 10.6266C20.1898 10.6266 19.4871 11.0418 19.0785 11.6703C18.67 11.0418 17.9667 10.6266 17.1707 10.6266C16.0264 10.6266 15.0774 11.4818 14.9124 12.594C13.6469 12.8035 12.6782 13.9186 12.6782 15.2585C12.6782 15.4012 12.6894 15.5422 12.7106 15.6803C11.7638 16.1383 11.1468 17.1105 11.1468 18.1931C11.1468 18.5739 11.2237 18.9505 11.3717 19.2974C10.8137 19.8689 10.4855 20.6487 10.4855 21.4904C10.4855 22.6418 11.1063 23.6848 12.0891 24.2284C12.068 24.3712 12.0567 24.5161 12.0567 24.6635C12.0567 26.2507 13.3328 27.5417 14.8998 27.5417C14.9868 27.5417 15.0721 27.5382 15.1574 27.5303C15.5512 28.2705 16.3278 28.7503 17.1707 28.7503C17.9674 28.7503 18.67 28.3351 19.0785 27.7066C19.4871 28.3352 20.1897 28.7503 20.9868 28.7503C21.8293 28.7503 22.6059 28.2705 22.9996 27.5303C23.085 27.5382 23.1703 27.5417 23.2573 27.5417C24.8243 27.5417 26.0994 26.2507 26.0994 24.6635C26.0994 24.5161 26.0892 24.3712 26.068 24.2284C27.0508 23.6848 27.6717 22.6418 27.6717 21.4904C27.6717 20.6487 27.3434 19.8685 26.7858 19.2974C26.9334 18.9505 27.0103 18.574 27.0103 18.1931ZM35.7239 26.7865C35.188 26.7865 34.751 26.3446 34.751 25.8021C34.751 25.2592 35.1881 24.8184 35.7239 24.8184C36.2597 24.8184 36.6968 25.2592 36.6968 25.8021C36.6968 26.3446 36.2597 26.7865 35.7239 26.7865ZM29.3661 28.2478V11.1292C29.3661 10.1052 28.5437 9.27246 27.5323 9.27246H10.6248C9.61345 9.27246 8.79103 10.1052 8.79103 11.1292V28.2478C8.79103 29.2718 9.61345 30.1045 10.6248 30.1045H27.5323C28.5437 30.1045 29.3661 29.2718 29.3661 28.2478ZM26.0891 36.5423C26.0891 37.0848 25.6527 37.5268 25.1168 37.5268C24.5806 37.5268 24.1449 37.0849 24.1449 36.5423C24.1449 36.0001 24.5806 35.5583 25.1168 35.5583C25.6527 35.5583 26.0891 36.0002 26.0891 36.5423ZM20.0502 35.4591C20.0502 36.0009 19.6148 36.4427 19.0786 36.4427C18.5424 36.4427 18.1064 36.0009 18.1064 35.4591C18.1064 34.9162 18.5424 34.4743 19.0786 34.4743C19.6148 34.4743 20.0502 34.9162 20.0502 35.4591ZM14.0122 36.5423C14.0122 37.0848 13.5765 37.5268 13.0406 37.5268C12.5045 37.5268 12.0681 37.0849 12.0681 36.5423C12.0681 36.0001 12.5045 35.5583 13.0406 35.5583C13.5765 35.5583 14.0122 36.0002 14.0122 36.5423ZM2.43226 26.7865C1.89682 26.7865 1.46034 26.3446 1.46034 25.8021C1.46034 25.2592 1.89674 24.8184 2.43226 24.8184C2.96807 24.8184 3.40447 25.2592 3.40447 25.8021C3.40455 26.3446 2.96807 26.7865 2.43226 26.7865ZM3.50291 20.6731C2.9674 20.6731 2.53099 20.2312 2.53099 19.6886C2.53099 19.1458 2.9674 18.7039 3.50291 18.7039C4.03873 18.7039 4.47513 19.1458 4.47513 19.6886C4.47513 20.2312 4.03873 20.6731 3.50291 20.6731ZM2.43226 14.5586C1.89682 14.5586 1.46034 14.1174 1.46034 13.5749C1.46034 13.032 1.89674 12.5902 2.43226 12.5902C2.96807 12.5902 3.40447 13.032 3.40447 13.5749C3.40455 14.1174 2.96807 14.5586 2.43226 14.5586ZM12.0681 2.83466C12.0681 2.29215 12.5045 1.85022 13.0406 1.85022C13.5765 1.85022 14.0122 2.29207 14.0122 2.83466C14.0122 3.37679 13.5765 3.81835 13.0406 3.81835C12.5045 3.81835 12.0681 3.37679 12.0681 2.83466ZM18.1063 3.91862C18.1063 3.37573 18.5424 2.93418 19.0785 2.93418C19.6147 2.93418 20.0501 3.37573 20.0501 3.91862C20.0501 4.46075 19.6147 4.90231 19.0785 4.90231C18.5424 4.90231 18.1063 4.46075 18.1063 3.91862ZM24.145 2.83466C24.145 2.29215 24.5807 1.85022 25.1169 1.85022C25.6527 1.85022 26.0892 2.29207 26.0892 2.83466C26.0892 3.37679 25.6528 3.81835 25.1169 3.81835C24.5807 3.81835 24.145 3.37679 24.145 2.83466ZM35.7239 12.5902C36.2597 12.5902 36.6968 13.032 36.6968 13.5749C36.6968 14.1174 36.2597 14.5586 35.7239 14.5586C35.188 14.5586 34.751 14.1174 34.751 13.5749C34.7509 13.032 35.188 12.5902 35.7239 12.5902ZM34.6522 18.7039C35.188 18.7039 35.6251 19.1458 35.6251 19.6886C35.6251 20.2312 35.188 20.6731 34.6522 20.6731C34.1199 20.6731 33.6827 20.2312 33.6827 19.6886C33.6828 19.1458 34.1199 18.7039 34.6522 18.7039ZM35.7239 24.0593C34.9025 24.0593 34.2151 24.6435 34.0459 25.4223H32.7591V22.5434C32.7591 22.3339 32.5914 22.164 32.3844 22.164H30.1156V20.0681H32.9742C33.1469 20.8476 33.8343 21.4319 34.6522 21.4319C35.604 21.4319 36.3759 20.6495 36.3759 19.6886C36.3759 18.7274 35.604 17.9447 34.6522 17.9447C33.8343 17.9447 33.1469 18.5294 32.9742 19.3089H30.1156V17.213H32.3844C32.5914 17.213 32.7591 17.0431 32.7591 16.8336V13.9543H34.0459C34.2151 14.7338 34.9025 15.3177 35.7239 15.3177C36.6757 15.3177 37.4477 14.5357 37.4477 13.5749C37.4477 12.6141 36.6757 11.8313 35.7239 11.8313C34.9025 11.8313 34.2151 12.4156 34.0459 13.1951H32.3844C32.1775 13.1951 32.0094 13.3654 32.0094 13.5749V16.4538H30.1156V11.1292C30.1156 9.68691 28.9569 8.51331 27.5324 8.51331H22.2731V6.59588H25.1169C25.3235 6.59588 25.4916 6.426 25.4916 6.2165V4.53575C26.2615 4.36192 26.8386 3.66517 26.8386 2.83466C26.8386 1.87306 26.0659 1.09106 25.1169 1.09106C24.1675 1.09106 23.3956 1.87306 23.3956 2.83466C23.3956 3.66524 23.9719 4.36192 24.7418 4.53575V5.83673H21.898C21.6915 5.83673 21.5233 6.00699 21.5233 6.2165V8.51331H19.4533V5.61971C20.2236 5.44588 20.7999 4.7492 20.7999 3.91862C20.7999 2.9571 20.0279 2.17502 19.0785 2.17502C18.1292 2.17502 17.3565 2.95702 17.3565 3.91862C17.3565 4.7492 17.9335 5.44588 18.7038 5.61971V8.51331H16.6338V6.2165C16.6338 6.00699 16.4656 5.83673 16.259 5.83673H13.4152V4.53575C14.1844 4.36192 14.7614 3.66517 14.7614 2.83466C14.7614 1.87306 13.9894 1.09106 13.0404 1.09106C12.0911 1.09106 11.3184 1.87306 11.3184 2.83466C11.3184 3.66524 11.8954 4.36192 12.6653 4.53575V6.2165C12.6653 6.426 12.8334 6.59588 13.0403 6.59588H15.8838V8.51331H10.6245C9.20029 8.51331 8.04125 9.68691 8.04125 11.1292V16.4538H6.14749V13.5749C6.14749 13.3654 5.97933 13.1951 5.77242 13.1951H4.1131C3.94141 12.4156 3.25296 11.8313 2.43226 11.8313C1.48291 11.8313 0.710938 12.6141 0.710938 13.5749C0.710938 14.5357 1.48298 15.3177 2.43226 15.3177C3.25288 15.3177 3.94141 14.7338 4.1131 13.9543H5.39801V16.8336C5.39801 17.0431 5.5658 17.213 5.77272 17.213H8.04155V19.3089H5.18367C5.01199 18.5294 4.32354 17.9447 3.50284 17.9447C2.55349 17.9447 1.78152 18.7275 1.78152 19.6886C1.78152 20.6495 2.55356 21.4319 3.50284 21.4319C4.32346 21.4319 5.01199 20.8476 5.18367 20.0681H8.04155V22.164H5.77272C5.5658 22.164 5.39801 22.3339 5.39801 22.5434V25.4223H4.1131C3.94141 24.6435 3.25296 24.0593 2.43226 24.0593C1.48291 24.0593 0.710938 24.8413 0.710938 25.8021C0.710938 26.7629 1.48298 27.5457 2.43226 27.5457C3.25288 27.5457 3.94141 26.961 4.1131 26.1816H5.77272C5.97963 26.1816 6.14779 26.0117 6.14779 25.8022V22.9228H8.04155V28.2478C8.04155 29.6902 9.20059 30.8638 10.6248 30.8638H15.8841V32.7812H13.0406C12.8337 32.7812 12.6656 32.9511 12.6656 33.1606V34.8413C11.8957 35.0151 11.3187 35.7118 11.3187 36.5424C11.3187 37.5039 12.0914 38.286 13.0407 38.286C13.9897 38.286 14.7617 37.504 14.7617 36.5424C14.7617 35.7118 14.1847 35.0151 13.4155 34.8413V33.54H16.2593C16.4659 33.54 16.6341 33.3701 16.6341 33.1606V30.8638H18.7041V33.7574C17.9338 33.9312 17.3568 34.6279 17.3568 35.4592C17.3568 36.42 18.1295 37.202 19.0788 37.202C20.0282 37.202 20.8002 36.42 20.8002 35.4592C20.8002 34.6279 20.2239 33.9312 19.4536 33.7574V30.8638H21.5233V33.1606C21.5233 33.3701 21.6915 33.54 21.898 33.54H24.7418V34.8413C23.9719 35.0151 23.3956 35.7118 23.3956 36.5424C23.3956 37.5039 24.1676 38.286 25.1169 38.286C26.0659 38.286 26.8386 37.504 26.8386 36.5424C26.8386 35.7118 26.2615 35.0151 25.4916 34.8413V33.1606C25.4916 32.9511 25.3234 32.7812 25.1169 32.7812H22.2731V30.8638H27.5324C28.9569 30.8638 30.1156 29.6902 30.1156 28.2478V22.9228H32.0094V25.8022C32.0094 26.0117 32.1775 26.1816 32.3844 26.1816H34.0459C34.2151 26.961 34.9025 27.5457 35.7239 27.5457C36.6757 27.5457 37.4477 26.7629 37.4477 25.8021C37.4476 24.8413 36.6757 24.0593 35.7239 24.0593Z" fill="#048DEF"></path><path fill-rule="evenodd" clip-rule="evenodd" d="M19.0786 21.404C18.1444 21.404 17.3844 20.6342 17.3844 19.6886C17.3844 18.7428 18.1445 17.9729 19.0786 17.9729C20.0128 17.9729 20.7728 18.7428 20.7728 19.6886C20.7728 20.6342 20.0127 21.404 19.0786 21.404ZM19.0786 17.2138C17.7306 17.2138 16.6346 18.3238 16.6346 19.6886C16.6346 21.0532 17.7306 22.1629 19.0786 22.1629C20.4267 22.1629 21.5227 21.0532 21.5227 19.6886C21.5226 18.3238 20.4267 17.2138 19.0786 17.2138ZM26.9221 21.4905C26.9221 20.5236 26.35 19.6641 25.4638 19.3014C25.272 19.2233 25.1796 19.0016 25.2569 18.8071C25.3348 18.613 25.553 18.5194 25.7451 18.5976C25.8928 18.6576 26.0327 18.7289 26.1663 18.8086C26.2283 18.6108 26.2608 18.4035 26.2608 18.1933C26.2608 17.4441 25.8543 16.7677 25.2226 16.4169C25.0929 16.6924 24.9166 16.9462 24.6977 17.1678C24.5515 17.3167 24.3138 17.3167 24.1675 17.1678C24.0216 17.0197 24.0216 16.7792 24.1675 16.631C24.5296 16.2645 24.7291 15.7773 24.7291 15.2586C24.7291 14.1882 23.8689 13.3176 22.8121 13.3176C22.3002 13.3176 21.8187 13.5196 21.4566 13.8862C21.3103 14.034 21.0727 14.034 20.9264 13.8862C20.7794 13.7381 20.7794 13.4976 20.9264 13.3494C21.3508 12.92 21.893 12.6526 22.4793 12.5791C22.3188 11.896 21.7108 11.3856 20.9867 11.3856C20.1417 11.3856 19.4532 12.082 19.4532 12.9382V14.6582C19.5015 14.6617 19.5495 14.6642 19.5967 14.6689C20.0172 14.7135 20.3388 15.0422 20.3779 15.4688L20.4399 16.1437C20.4431 16.1747 20.4586 16.1958 20.4865 16.2079C20.5143 16.2193 20.5404 16.215 20.5644 16.1943L21.0759 15.7578C21.3988 15.4815 21.8553 15.4755 22.186 15.7427C22.4673 15.9698 22.7236 16.2278 22.9499 16.5101C23.2167 16.8427 23.2146 17.3057 22.9439 17.6351L22.5166 18.1566C22.4973 18.1801 22.4934 18.2066 22.5046 18.2348C22.5166 18.2633 22.5385 18.2787 22.5692 18.2819L23.2358 18.3386C23.6577 18.3751 23.9853 18.6977 24.0318 19.1242C24.0522 19.3094 24.0624 19.5 24.0624 19.6885C24.0624 19.863 24.0537 20.0397 24.0363 20.2128C23.992 20.6386 23.6676 20.9645 23.246 21.0037L22.5797 21.0666C22.5491 21.0698 22.5279 21.0859 22.5159 21.1137C22.5046 21.1419 22.5093 21.1682 22.5293 21.1925L22.9604 21.7104C23.2333 22.0378 23.2393 22.5 22.9756 22.8344C22.7513 23.1185 22.4965 23.3787 22.2176 23.6082C21.8891 23.8784 21.4326 23.8759 21.1065 23.6021L20.5914 23.1692C20.5682 23.1495 20.5417 23.1459 20.5142 23.157C20.4857 23.1692 20.4705 23.1913 20.4677 23.2227L20.4113 23.8973C20.3753 24.3246 20.0567 24.6564 19.6353 24.7032C19.5754 24.7103 19.5141 24.7139 19.4531 24.7185V26.4386C19.4531 27.2948 20.1415 27.9908 20.9865 27.9908C21.4818 27.9908 21.9436 27.7434 22.2285 27.3487C21.865 27.2059 21.5305 26.9868 21.2464 26.6991C21.1004 26.5502 21.1004 26.3104 21.2464 26.1623C21.3927 26.0134 21.6303 26.0134 21.7766 26.1623C22.1724 26.5624 22.698 26.7826 23.2572 26.7826C24.411 26.7826 25.3497 25.8321 25.3497 24.6632C25.3497 24.0968 25.1323 23.5649 24.7371 23.1648C24.5904 23.0167 24.5904 22.7761 24.7371 22.628C24.8834 22.4799 25.1209 22.4799 25.2673 22.628C25.5141 22.8779 25.7097 23.1648 25.8489 23.4775C26.5111 23.0488 26.9221 22.305 26.9221 21.4905ZM17.1708 27.9911C18.0154 27.9911 18.7038 27.2951 18.7038 26.4389V24.7188C18.6556 24.7159 18.6076 24.7127 18.5607 24.7081C18.1401 24.6635 17.8183 24.3347 17.7792 23.9083L17.7171 23.2333C17.7139 23.2023 17.6984 23.1809 17.6706 23.1687C17.6427 23.1573 17.6167 23.162 17.5927 23.1826L17.0812 23.6188C16.7583 23.8954 16.3018 23.9014 15.9711 23.6341C15.6898 23.4071 15.4335 23.149 15.2072 22.8667C14.9404 22.5341 14.9425 22.0712 15.2132 21.7417L15.6397 21.2202C15.6598 21.1967 15.6637 21.1702 15.6525 21.142C15.6405 21.1131 15.6186 21.0982 15.5879 21.0949L14.9213 21.0382C14.4993 21.0018 14.1718 20.6792 14.1253 20.2526C14.1049 20.0674 14.0947 19.8767 14.0947 19.6886C14.0947 19.5131 14.1035 19.337 14.1207 19.164C14.1651 18.7381 14.4895 18.4126 14.9111 18.373L15.5773 18.3099C15.6084 18.307 15.6292 18.291 15.6411 18.2627C15.6525 18.2349 15.6478 18.2081 15.6277 18.1839L15.1966 17.6663C14.9238 17.339 14.9178 16.8768 15.1814 16.542C15.4057 16.2575 15.6605 15.9976 15.9393 15.7685C16.2678 15.4983 16.7244 15.5004 17.0504 15.7746L17.5655 16.2065C17.5887 16.2272 17.6159 16.2308 17.6426 16.2193C17.6712 16.2071 17.6863 16.1854 17.6892 16.1543L17.7456 15.4793C17.7816 15.0518 18.1002 14.7202 18.5214 14.6731C18.5813 14.6663 18.6427 14.6616 18.7037 14.6573V12.938C18.7037 12.0818 18.0152 11.3854 17.1706 11.3854C16.4462 11.3854 15.8381 11.8958 15.6777 12.579C16.264 12.6525 16.8061 12.9199 17.2306 13.3492C17.3766 13.4973 17.3766 13.7379 17.2306 13.886C17.0843 14.0338 16.8467 14.0338 16.7004 13.886C16.3384 13.5195 15.8568 13.3175 15.3449 13.3175C14.2881 13.3175 13.4279 14.188 13.4279 15.2585C13.4279 15.7771 13.6274 16.2643 13.9896 16.6309C14.1358 16.779 14.1358 17.0195 13.9896 17.1677C13.8433 17.3165 13.6057 17.3165 13.4594 17.1677C13.2404 16.946 13.0638 16.6923 12.9348 16.4167C12.302 16.7676 11.8962 17.444 11.8962 18.1931C11.8962 18.4034 11.9287 18.6107 11.9907 18.8084C12.1243 18.7288 12.2643 18.6574 12.4119 18.5975C12.6041 18.5193 12.8223 18.6128 12.9002 18.807C12.9774 19.0015 12.885 19.2232 12.6932 19.3013C11.807 19.6639 11.2348 20.5234 11.2348 21.4903C11.2348 22.3048 11.6459 23.0486 12.3079 23.4777C12.4471 23.165 12.6432 22.878 12.8895 22.6282C13.0358 22.4801 13.2734 22.4801 13.4197 22.6282C13.566 22.7763 13.566 23.0169 13.4197 23.165C13.0245 23.5651 12.8063 24.0969 12.8063 24.6633C12.8063 25.8323 13.7457 26.7827 14.8995 26.7827C15.4587 26.7827 15.9842 26.5625 16.3801 26.1624C16.5264 26.0136 16.764 26.0136 16.9103 26.1624C17.0563 26.3105 17.0563 26.5504 16.9103 26.6992C16.6259 26.9869 16.2917 27.2061 15.9282 27.3489C16.2133 27.7437 16.6751 27.9911 17.1708 27.9911ZM21.8135 18.5286C21.6943 18.2409 21.7429 17.9123 21.9404 17.6716L22.3676 17.1501C22.4075 17.1016 22.4082 17.0377 22.3684 16.9885C22.1759 16.7486 21.9573 16.5291 21.7183 16.3363C21.6697 16.2967 21.6066 16.2978 21.5586 16.3385L21.0475 16.775C20.8113 16.977 20.4873 17.0284 20.2025 16.9103C19.9169 16.7918 19.722 16.5244 19.6934 16.2132L19.6321 15.5386C19.6258 15.4755 19.5817 15.4308 19.5193 15.4241C19.2165 15.392 18.9056 15.3934 18.6041 15.4277C18.5418 15.4344 18.4983 15.4801 18.4931 15.5433L18.436 16.2185C18.4099 16.5305 18.2171 16.7985 17.9329 16.9192C17.6492 17.0398 17.3242 16.9906 17.0865 16.791L16.5715 16.3584C16.5235 16.3181 16.4604 16.3174 16.4118 16.3577C16.1749 16.5526 15.958 16.7736 15.7681 17.0156C15.7289 17.0652 15.7297 17.1287 15.7702 17.1772L16.2013 17.6952C16.4008 17.9333 16.4517 18.2623 16.3346 18.5503C16.2175 18.8398 15.9539 19.0372 15.6465 19.0658L14.9798 19.1289C14.9178 19.1343 14.8738 19.1789 14.8667 19.2421C14.8519 19.3891 14.8441 19.5394 14.8441 19.6886C14.8441 19.8492 14.8526 20.0102 14.8706 20.169C14.8773 20.2318 14.9221 20.2757 14.9845 20.2814L15.6518 20.3389C15.9592 20.3653 16.2246 20.5605 16.3438 20.8482C16.4629 21.1366 16.4142 21.4646 16.2168 21.7052L15.7896 22.2267C15.7498 22.2752 15.749 22.3391 15.7889 22.3884C15.9814 22.6282 16.2 22.8478 16.439 23.0405C16.4876 23.0801 16.5508 23.0791 16.5987 23.038L17.1098 22.6018C17.2621 22.4719 17.4503 22.4045 17.6421 22.4045C17.7471 22.4045 17.8536 22.4248 17.9548 22.4666C18.2404 22.5851 18.4353 22.8524 18.4639 23.1636L18.5259 23.8382C18.5315 23.9014 18.5756 23.946 18.6379 23.9528C18.9407 23.9849 19.2517 23.9831 19.5531 23.9492C19.6155 23.9424 19.6588 23.8967 19.6641 23.8336L19.7213 23.1583C19.7474 22.8471 19.9402 22.5783 20.2243 22.4577C20.5091 22.3371 20.8332 22.3863 21.0707 22.5858L21.5858 23.0184C21.6338 23.0587 21.6968 23.0595 21.7451 23.0191C21.9824 22.8242 22.1988 22.6026 22.3892 22.3609C22.4283 22.3116 22.4275 22.2481 22.3871 22.1996L21.9559 21.6817C21.7567 21.4433 21.7056 21.1149 21.8226 20.8261C21.9396 20.537 22.2033 20.3396 22.5108 20.3107L23.1774 20.2486C23.2394 20.2425 23.2839 20.1979 23.2905 20.1348C23.3053 19.9873 23.3131 19.837 23.3131 19.6886C23.3131 19.5273 23.3046 19.3666 23.2866 19.2078C23.28 19.145 23.2348 19.101 23.1728 19.0954L22.5054 19.0379C22.1981 19.0112 21.9329 18.8163 21.8135 18.5286ZM27.0103 18.1931C27.0103 17.1105 26.3933 16.1383 25.4465 15.6803C25.4677 15.5422 25.4789 15.4012 25.4789 15.2585C25.4789 13.9185 24.5102 12.8035 23.2446 12.594C23.0804 11.4818 22.1307 10.6266 20.9868 10.6266C20.1898 10.6266 19.4871 11.0418 19.0785 11.6703C18.67 11.0418 17.9667 10.6266 17.1707 10.6266C16.0264 10.6266 15.0774 11.4818 14.9124 12.594C13.6469 12.8035 12.6782 13.9186 12.6782 15.2585C12.6782 15.4012 12.6894 15.5422 12.7106 15.6803C11.7638 16.1383 11.1468 17.1105 11.1468 18.1931C11.1468 18.5739 11.2237 18.9505 11.3717 19.2974C10.8137 19.8689 10.4855 20.6487 10.4855 21.4904C10.4855 22.6418 11.1063 23.6848 12.0891 24.2284C12.068 24.3712 12.0567 24.5161 12.0567 24.6635C12.0567 26.2507 13.3328 27.5417 14.8998 27.5417C14.9868 27.5417 15.0721 27.5382 15.1574 27.5303C15.5512 28.2705 16.3278 28.7503 17.1707 28.7503C17.9674 28.7503 18.67 28.3351 19.0785 27.7066C19.4871 28.3352 20.1897 28.7503 20.9868 28.7503C21.8293 28.7503 22.6059 28.2705 22.9996 27.5303C23.085 27.5382 23.1703 27.5417 23.2573 27.5417C24.8243 27.5417 26.0994 26.2507 26.0994 24.6635C26.0994 24.5161 26.0892 24.3712 26.068 24.2284C27.0508 23.6848 27.6717 22.6418 27.6717 21.4904C27.6717 20.6487 27.3434 19.8685 26.7858 19.2974C26.9334 18.9505 27.0103 18.574 27.0103 18.1931ZM35.7239 26.7865C35.188 26.7865 34.751 26.3446 34.751 25.8021C34.751 25.2592 35.1881 24.8184 35.7239 24.8184C36.2597 24.8184 36.6968 25.2592 36.6968 25.8021C36.6968 26.3446 36.2597 26.7865 35.7239 26.7865ZM29.3661 28.2478V11.1292C29.3661 10.1052 28.5437 9.27246 27.5323 9.27246H10.6248C9.61345 9.27246 8.79103 10.1052 8.79103 11.1292V28.2478C8.79103 29.2718 9.61345 30.1045 10.6248 30.1045H27.5323C28.5437 30.1045 29.3661 29.2718 29.3661 28.2478ZM26.0891 36.5423C26.0891 37.0848 25.6527 37.5268 25.1168 37.5268C24.5806 37.5268 24.1449 37.0849 24.1449 36.5423C24.1449 36.0001 24.5806 35.5583 25.1168 35.5583C25.6527 35.5583 26.0891 36.0002 26.0891 36.5423ZM20.0502 35.4591C20.0502 36.0009 19.6148 36.4427 19.0786 36.4427C18.5424 36.4427 18.1064 36.0009 18.1064 35.4591C18.1064 34.9162 18.5424 34.4743 19.0786 34.4743C19.6148 34.4743 20.0502 34.9162 20.0502 35.4591ZM14.0122 36.5423C14.0122 37.0848 13.5765 37.5268 13.0406 37.5268C12.5045 37.5268 12.0681 37.0849 12.0681 36.5423C12.0681 36.0001 12.5045 35.5583 13.0406 35.5583C13.5765 35.5583 14.0122 36.0002 14.0122 36.5423ZM2.43226 26.7865C1.89682 26.7865 1.46034 26.3446 1.46034 25.8021C1.46034 25.2592 1.89674 24.8184 2.43226 24.8184C2.96807 24.8184 3.40447 25.2592 3.40447 25.8021C3.40455 26.3446 2.96807 26.7865 2.43226 26.7865ZM3.50291 20.6731C2.9674 20.6731 2.53099 20.2312 2.53099 19.6886C2.53099 19.1458 2.9674 18.7039 3.50291 18.7039C4.03873 18.7039 4.47513 19.1458 4.47513 19.6886C4.47513 20.2312 4.03873 20.6731 3.50291 20.6731ZM2.43226 14.5586C1.89682 14.5586 1.46034 14.1174 1.46034 13.5749C1.46034 13.032 1.89674 12.5902 2.43226 12.5902C2.96807 12.5902 3.40447 13.032 3.40447 13.5749C3.40455 14.1174 2.96807 14.5586 2.43226 14.5586ZM12.0681 2.83466C12.0681 2.29215 12.5045 1.85022 13.0406 1.85022C13.5765 1.85022 14.0122 2.29207 14.0122 2.83466C14.0122 3.37679 13.5765 3.81835 13.0406 3.81835C12.5045 3.81835 12.0681 3.37679 12.0681 2.83466ZM18.1063 3.91862C18.1063 3.37573 18.5424 2.93418 19.0785 2.93418C19.6147 2.93418 20.0501 3.37573 20.0501 3.91862C20.0501 4.46075 19.6147 4.90231 19.0785 4.90231C18.5424 4.90231 18.1063 4.46075 18.1063 3.91862ZM24.145 2.83466C24.145 2.29215 24.5807 1.85022 25.1169 1.85022C25.6527 1.85022 26.0892 2.29207 26.0892 2.83466C26.0892 3.37679 25.6528 3.81835 25.1169 3.81835C24.5807 3.81835 24.145 3.37679 24.145 2.83466ZM35.7239 12.5902C36.2597 12.5902 36.6968 13.032 36.6968 13.5749C36.6968 14.1174 36.2597 14.5586 35.7239 14.5586C35.188 14.5586 34.751 14.1174 34.751 13.5749C34.7509 13.032 35.188 12.5902 35.7239 12.5902ZM34.6522 18.7039C35.188 18.7039 35.6251 19.1458 35.6251 19.6886C35.6251 20.2312 35.188 20.6731 34.6522 20.6731C34.1199 20.6731 33.6827 20.2312 33.6827 19.6886C33.6828 19.1458 34.1199 18.7039 34.6522 18.7039ZM35.7239 24.0593C34.9025 24.0593 34.2151 24.6435 34.0459 25.4223H32.7591V22.5434C32.7591 22.3339 32.5914 22.164 32.3844 22.164H30.1156V20.0681H32.9742C33.1469 20.8476 33.8343 21.4319 34.6522 21.4319C35.604 21.4319 36.3759 20.6495 36.3759 19.6886C36.3759 18.7274 35.604 17.9447 34.6522 17.9447C33.8343 17.9447 33.1469 18.5294 32.9742 19.3089H30.1156V17.213H32.3844C32.5914 17.213 32.7591 17.0431 32.7591 16.8336V13.9543H34.0459C34.2151 14.7338 34.9025 15.3177 35.7239 15.3177C36.6757 15.3177 37.4477 14.5357 37.4477 13.5749C37.4477 12.6141 36.6757 11.8313 35.7239 11.8313C34.9025 11.8313 34.2151 12.4156 34.0459 13.1951H32.3844C32.1775 13.1951 32.0094 13.3654 32.0094 13.5749V16.4538H30.1156V11.1292C30.1156 9.68691 28.9569 8.51331 27.5324 8.51331H22.2731V6.59588H25.1169C25.3235 6.59588 25.4916 6.426 25.4916 6.2165V4.53575C26.2615 4.36192 26.8386 3.66517 26.8386 2.83466C26.8386 1.87306 26.0659 1.09106 25.1169 1.09106C24.1675 1.09106 23.3956 1.87306 23.3956 2.83466C23.3956 3.66524 23.9719 4.36192 24.7418 4.53575V5.83673H21.898C21.6915 5.83673 21.5233 6.00699 21.5233 6.2165V8.51331H19.4533V5.61971C20.2236 5.44588 20.7999 4.7492 20.7999 3.91862C20.7999 2.9571 20.0279 2.17502 19.0785 2.17502C18.1292 2.17502 17.3565 2.95702 17.3565 3.91862C17.3565 4.7492 17.9335 5.44588 18.7038 5.61971V8.51331H16.6338V6.2165C16.6338 6.00699 16.4656 5.83673 16.259 5.83673H13.4152V4.53575C14.1844 4.36192 14.7614 3.66517 14.7614 2.83466C14.7614 1.87306 13.9894 1.09106 13.0404 1.09106C12.0911 1.09106 11.3184 1.87306 11.3184 2.83466C11.3184 3.66524 11.8954 4.36192 12.6653 4.53575V6.2165C12.6653 6.426 12.8334 6.59588 13.0403 6.59588H15.8838V8.51331H10.6245C9.20029 8.51331 8.04125 9.68691 8.04125 11.1292V16.4538H6.14749V13.5749C6.14749 13.3654 5.97933 13.1951 5.77242 13.1951H4.1131C3.94141 12.4156 3.25296 11.8313 2.43226 11.8313C1.48291 11.8313 0.710938 12.6141 0.710938 13.5749C0.710938 14.5357 1.48298 15.3177 2.43226 15.3177C3.25288 15.3177 3.94141 14.7338 4.1131 13.9543H5.39801V16.8336C5.39801 17.0431 5.5658 17.213 5.77272 17.213H8.04155V19.3089H5.18367C5.01199 18.5294 4.32354 17.9447 3.50284 17.9447C2.55349 17.9447 1.78152 18.7275 1.78152 19.6886C1.78152 20.6495 2.55356 21.4319 3.50284 21.4319C4.32346 21.4319 5.01199 20.8476 5.18367 20.0681H8.04155V22.164H5.77272C5.5658 22.164 5.39801 22.3339 5.39801 22.5434V25.4223H4.1131C3.94141 24.6435 3.25296 24.0593 2.43226 24.0593C1.48291 24.0593 0.710938 24.8413 0.710938 25.8021C0.710938 26.7629 1.48298 27.5457 2.43226 27.5457C3.25288 27.5457 3.94141 26.961 4.1131 26.1816H5.77272C5.97963 26.1816 6.14779 26.0117 6.14779 25.8022V22.9228H8.04155V28.2478C8.04155 29.6902 9.20059 30.8638 10.6248 30.8638H15.8841V32.7812H13.0406C12.8337 32.7812 12.6656 32.9511 12.6656 33.1606V34.8413C11.8957 35.0151 11.3187 35.7118 11.3187 36.5424C11.3187 37.5039 12.0914 38.286 13.0407 38.286C13.9897 38.286 14.7617 37.504 14.7617 36.5424C14.7617 35.7118 14.1847 35.0151 13.4155 34.8413V33.54H16.2593C16.4659 33.54 16.6341 33.3701 16.6341 33.1606V30.8638H18.7041V33.7574C17.9338 33.9312 17.3568 34.6279 17.3568 35.4592C17.3568 36.42 18.1295 37.202 19.0788 37.202C20.0282 37.202 20.8002 36.42 20.8002 35.4592C20.8002 34.6279 20.2239 33.9312 19.4536 33.7574V30.8638H21.5233V33.1606C21.5233 33.3701 21.6915 33.54 21.898 33.54H24.7418V34.8413C23.9719 35.0151 23.3956 35.7118 23.3956 36.5424C23.3956 37.5039 24.1676 38.286 25.1169 38.286C26.0659 38.286 26.8386 37.504 26.8386 36.5424C26.8386 35.7118 26.2615 35.0151 25.4916 34.8413V33.1606C25.4916 32.9511 25.3234 32.7812 25.1169 32.7812H22.2731V30.8638H27.5324C28.9569 30.8638 30.1156 29.6902 30.1156 28.2478V22.9228H32.0094V25.8022C32.0094 26.0117 32.1775 26.1816 32.3844 26.1816H34.0459C34.2151 26.961 34.9025 27.5457 35.7239 27.5457C36.6757 27.5457 37.4477 26.7629 37.4477 25.8021C37.4476 24.8413 36.6757 24.0593 35.7239 24.0593Z" stroke="#048DEF" stroke-width="0.6" mask="url(#path-1-outside-1_1577_199)"></path></svg>