<svg xmlns="http://www.w3.org/2000/svg" width="63" height="64" viewBox="0 0 63 64" fill="none"><path d="M59.5558 0.9H3.59424C2.05523 0.9 0.9 2.07414 0.9 3.632V60.408C0.9 61.9659 2.05523 63.14 3.59424 63.14H59.5558C60.9998 63.14 62.25 61.9682 62.25 60.408V3.632C62.25 2.07414 61.0948 0.9 59.5558 0.9ZM3.59424 2.98H59.5558C59.708 2.98 59.869 3.05829 59.9941 3.1852C60.1191 3.31202 60.197 3.47602 60.197 3.632V13.872H2.95303V3.632C2.95303 3.47602 3.03088 3.31202 3.15588 3.1852C3.28097 3.05828 3.44198 2.98 3.59424 2.98ZM59.5558 61.06H3.59424C3.44198 61.06 3.28097 60.9817 3.15588 60.8548C3.03088 60.728 2.95303 60.564 2.95303 60.408V15.952H60.197V60.408C60.197 60.564 60.1191 60.728 59.9941 60.8548C59.869 60.9817 59.708 61.06 59.5558 61.06Z" fill="#047BDC" stroke="#047BDC" stroke-width="0.2"></path><path d="M8.77808 12.474C10.9657 12.474 12.7694 10.6419 12.7694 8.42603C12.7694 6.21017 10.9657 4.37803 8.77808 4.37803C6.59366 4.37803 4.78672 6.11303 4.78672 8.33203C4.78672 10.6403 6.589 12.474 8.77808 12.474ZM8.77808 6.36403C9.83331 6.36403 10.7164 7.25789 10.7164 8.33203C10.7164 9.40617 9.83331 10.3 8.77808 10.3C7.72285 10.3 6.83975 9.40617 6.83975 8.33203C6.83975 7.25789 7.72285 6.36403 8.77808 6.36403Z" fill="#047BDC" stroke="#047BDC" stroke-width="0.2"></path><path d="M18.1414 12.474C20.3289 12.474 22.1327 10.6419 22.1327 8.42603C22.1327 6.21017 20.3289 4.37803 18.1414 4.37803C15.9538 4.37803 14.15 6.21017 14.15 8.42603C14.15 10.6419 15.9538 12.474 18.1414 12.474ZM18.1414 6.36403C19.1966 6.36403 20.0797 7.25789 20.0797 8.33203C20.0797 9.40617 19.1966 10.3 18.1414 10.3C17.0861 10.3 16.203 9.40617 16.203 8.33203C16.203 7.25789 17.0861 6.36403 18.1414 6.36403Z" fill="#047BDC" stroke="#047BDC" stroke-width="0.2"></path><path d="M27.5945 12.474C29.7821 12.474 31.5859 10.6419 31.5859 8.42603C31.5859 6.21017 29.7821 4.37803 27.5945 4.37803C25.4069 4.37803 23.6031 6.21017 23.6031 8.42603C23.6031 10.6403 25.3127 12.474 27.5945 12.474ZM27.5945 6.36403C28.6497 6.36403 29.5328 7.25789 29.5328 8.33203C29.5328 9.40617 28.6497 10.3 27.5945 10.3C26.5393 10.3 25.6562 9.40617 25.6562 8.33203C25.6562 7.25485 26.4496 6.36403 27.5945 6.36403Z" fill="#047BDC" stroke="#047BDC" stroke-width="0.2"></path><path d="M34.6335 12.098H57.0552C57.3563 12.098 57.6148 11.9957 57.7982 11.8097C57.9814 11.6238 58.0817 11.3623 58.0817 11.058V5.70001C58.0817 5.39572 57.9814 5.13418 57.7982 4.94831C57.6148 4.76232 57.3563 4.66001 57.0552 4.66001H34.6335C34.3324 4.66001 34.0739 4.76232 33.8906 4.94831C33.7074 5.13418 33.607 5.39572 33.607 5.70001V10.964C33.607 11.5688 34.009 12.098 34.6335 12.098ZM35.6601 6.74001H56.0287V9.92401H35.6601V6.74001Z" fill="#047BDC" stroke="#047BDC" stroke-width="0.2"></path><path d="M34.695 44.2393L34.6949 44.239L34.6878 44.2421L28.5375 46.8646L30.8327 42.0282C30.8328 42.028 30.8329 42.0278 30.8331 42.0276C31.0388 41.6094 30.9329 41.1893 30.6305 40.8814C28.6084 38.6427 27.4151 35.753 27.4149 32.7727C27.5071 25.692 33.8468 19.9 41.7685 19.9C49.6909 19.9 56.0295 25.6923 56.0295 32.772C56.0295 39.8505 49.5997 45.55 41.7685 45.55C39.6535 45.55 37.5367 45.0838 35.5099 44.2431C35.2924 44.1345 34.9862 44.1408 34.695 44.2393ZM41.7685 17.82C32.8274 17.82 25.4545 24.5306 25.4545 32.772C25.4545 35.9721 26.6525 39.1698 28.772 41.7168L25.5575 48.4258C25.5574 48.426 25.5573 48.4262 25.5572 48.4264C25.351 48.8453 25.4576 49.2662 25.7613 49.5742C26.0644 49.8818 26.4798 49.9912 26.8937 49.7829L35.0988 46.3221C37.2288 47.1628 39.4522 47.63 41.7685 47.63C50.7097 47.63 58.0826 40.9195 58.0826 32.678C58.0826 24.4358 50.7089 17.82 41.7685 17.82Z" fill="#047BDC" stroke="#047BDC" stroke-width="0.2"></path><path d="M51.2205 29.4133L51.2211 29.4134L51.2227 29.402C51.3223 28.695 50.8246 28.0661 50.1972 28.0661H35.7285L35.0994 25.6042C35.0994 25.604 35.0994 25.6039 35.0993 25.6038C34.9976 25.1919 34.5933 24.7761 34.0758 24.7761H32.5007C32.1996 24.7761 31.9411 24.8784 31.7578 25.0644C31.5746 25.2503 31.4742 25.5118 31.4742 25.8161C31.4742 26.1204 31.5746 26.3819 31.7578 26.5678C31.9411 26.7538 32.1996 26.8561 32.5007 26.8561H33.3491L35.6464 36.086C35.6465 36.0861 35.6465 36.0862 35.6465 36.0862C35.7481 36.4981 36.1525 36.9141 36.6701 36.9141H48.4368C48.9393 36.9141 49.3549 36.607 49.4603 36.1806C49.4603 36.1804 49.4604 36.1802 49.4604 36.18L51.2205 29.4133ZM48.9554 30.1461L47.7113 34.8341H37.4896L36.3344 30.1461H48.9554Z" fill="#047BDC" stroke="#047BDC" stroke-width="0.2"></path><path d="M46.5825 37.372C45.0412 37.372 43.8883 38.6425 43.8883 40.104C43.8883 41.5679 45.1362 42.836 46.5825 42.836C48.1238 42.836 49.2768 41.5655 49.2768 40.104C49.2768 38.6425 48.1238 37.372 46.5825 37.372ZM46.5825 40.85C46.1838 40.85 45.9413 40.5286 45.9413 40.198C45.9413 40.0421 46.0192 39.8781 46.1442 39.7512C46.2693 39.6243 46.4303 39.546 46.5825 39.546C46.7348 39.546 46.8958 39.6243 47.0209 39.7512C47.1459 39.8781 47.2237 40.0421 47.2237 40.198C47.2237 40.5286 46.9812 40.85 46.5825 40.85Z" fill="#047BDC" stroke="#047BDC" stroke-width="0.2"></path><path d="M38.7036 37.3722C37.1623 37.3722 36.0094 38.6427 36.0094 40.1042C36.0094 41.568 37.2573 42.8362 38.7036 42.8362C40.15 42.8362 41.3979 41.568 41.3979 40.1042C41.3979 38.6427 40.2449 37.3722 38.7036 37.3722ZM38.7036 40.8502C38.3049 40.8502 38.0624 40.5287 38.0624 40.1982C38.0624 40.0422 38.1403 39.8782 38.2653 39.7514C38.3903 39.6245 38.5514 39.5462 38.7036 39.5462C38.8559 39.5462 39.0169 39.6245 39.142 39.7514C39.267 39.8782 39.3448 40.0422 39.3448 40.1982C39.3448 40.5287 39.1023 40.8502 38.7036 40.8502Z" fill="#047BDC" stroke="#047BDC" stroke-width="0.2"></path><path d="M21.3756 56.454H7.86319V43.964H21.3756V56.454ZM22.4948 41.884H6.83667C6.53555 41.884 6.27705 41.9863 6.09373 42.1723C5.91053 42.3582 5.81016 42.6197 5.81016 42.924V57.494C5.81016 57.7983 5.91053 58.0598 6.09373 58.2457C6.27705 58.4317 6.53555 58.534 6.83667 58.534H22.4021C22.7032 58.534 22.9617 58.4317 23.1451 58.2457C23.3283 58.0598 23.4286 57.7983 23.4286 57.494V42.932C23.5278 42.2972 23.0018 41.884 22.4948 41.884Z" fill="#047BDC" stroke="#047BDC" stroke-width="0.2"></path><path d="M22.9565 20.17H6.37183C6.07071 20.17 5.81221 20.2723 5.62888 20.4583C5.44569 20.6442 5.34531 20.9057 5.34531 21.21C5.34531 21.5143 5.44569 21.7759 5.62888 21.9617C5.81221 22.1477 6.07071 22.25 6.37183 22.25H22.9565C23.2576 22.25 23.5161 22.1477 23.6994 21.9617C23.8826 21.7759 23.983 21.5143 23.983 21.21C23.983 20.5857 23.4697 20.17 22.9565 20.17Z" fill="#047BDC" stroke="#047BDC" stroke-width="0.2"></path><path d="M22.9565 25.2459H6.37183C6.07071 25.2459 5.81221 25.3483 5.62888 25.5342C5.44569 25.7201 5.34531 25.9817 5.34531 26.2859C5.34531 26.5902 5.44569 26.8518 5.62888 27.0376C5.81221 27.2236 6.07071 27.3259 6.37183 27.3259H22.9565C23.2576 27.3259 23.5161 27.2236 23.6994 27.0376C23.8826 26.8518 23.983 26.5902 23.983 26.2859C23.983 25.6616 23.4697 25.2459 22.9565 25.2459Z" fill="#047BDC" stroke="#047BDC" stroke-width="0.2"></path><path d="M22.9565 30.322H6.37183C6.07071 30.322 5.81221 30.4243 5.62888 30.6103C5.44569 30.7962 5.34531 31.0577 5.34531 31.362C5.34531 31.6663 5.44569 31.9278 5.62888 32.1137C5.81221 32.2997 6.07071 32.402 6.37183 32.402H22.9565C23.2576 32.402 23.5161 32.2997 23.6994 32.1137C23.8826 31.9278 23.983 31.6663 23.983 31.362C23.983 31.095 23.8523 30.836 23.6646 30.6455C23.477 30.4552 23.2211 30.322 22.9565 30.322Z" fill="#047BDC" stroke="#047BDC" stroke-width="0.2"></path><path d="M22.9565 35.398H6.37183C6.07071 35.398 5.81221 35.5004 5.62888 35.6863C5.44569 35.8722 5.34531 36.1338 5.34531 36.438C5.34531 36.7423 5.44569 37.0039 5.62888 37.1897C5.81221 37.3757 6.07071 37.478 6.37183 37.478H22.9565C23.2576 37.478 23.5161 37.3757 23.6994 37.1897C23.8826 37.0039 23.983 36.7423 23.983 36.438C23.983 35.8137 23.4697 35.398 22.9565 35.398Z" fill="#047BDC" stroke="#047BDC" stroke-width="0.2"></path></svg>