<svg xmlns="http://www.w3.org/2000/svg" width="61" height="61" viewBox="0 0 61 61" fill="none"><path fill-rule="evenodd" clip-rule="evenodd" d="M51.7913 4.75985C52.2793 4.87989 52.749 5.03545 53.2004 5.22286C53.6591 5.41395 54.102 5.63933 54.5253 5.89656L55.5453 5.11507C55.8796 4.85907 56.3456 4.89704 56.6348 5.18857L56.636 5.18734L58.5831 7.14229C58.8942 7.45464 58.9064 7.95317 58.621 8.28022L57.8755 9.26014C58.1317 9.68518 58.3562 10.1298 58.5465 10.5904C58.7332 11.0424 58.8881 11.5152 59.0077 12.0051L60.279 12.1766C60.695 12.233 60.9976 12.5906 60.9976 13.001H61V15.7656C61 16.2102 60.6535 16.5728 60.218 16.5985L59.0089 16.7614C58.8894 17.2502 58.7344 17.723 58.5478 18.175C58.3574 18.6355 58.133 19.0802 57.8767 19.5052L58.6551 20.5292C58.9101 20.8649 58.8723 21.3328 58.5819 21.6231L58.5831 21.6243L57.6096 22.6018C57.5949 22.6165 57.5791 22.6312 57.5644 22.6446L56.636 23.5768C56.3395 23.8769 55.871 23.9014 55.5453 23.6515L54.5253 22.87C54.102 23.1273 53.6604 23.3526 53.2016 23.5437C52.7514 23.7311 52.2805 23.8867 51.7925 24.0067L51.6217 25.2831C51.5656 25.7008 51.2093 26.0045 50.8006 26.0045V26.007H48.047C47.6042 26.007 47.243 25.6591 47.2174 25.2218L47.0552 24.008C46.5672 23.8879 46.0974 23.7324 45.6473 23.5449C45.1885 23.3539 44.7457 23.1285 44.3223 22.8713L43.3024 23.6527C42.9681 23.9087 42.502 23.8708 42.2129 23.5792L42.2117 23.5805L40.2645 21.6255C39.9534 21.3132 39.9412 20.8146 40.2267 20.4876L40.9721 19.5064C40.7159 19.0814 40.4902 18.6368 40.3011 18.1762C40.1145 17.7242 39.9595 17.2514 39.84 16.7627L38.5687 16.5912C38.1527 16.5348 37.8501 16.1772 37.8501 15.7668H37.8477V13.0022C37.8477 12.5576 38.1941 12.195 38.6297 12.1693L39.8387 12.0064C39.9583 11.5164 40.1132 11.0448 40.2999 10.5916C40.4902 10.131 40.7147 9.68641 40.9709 9.26137L40.1925 8.23735C39.9376 7.90172 39.9754 7.43381 40.2657 7.14351L40.2645 7.14229L42.2117 5.18734C42.5228 4.87499 43.0193 4.86274 43.3451 5.14937L44.3223 5.89779C44.7457 5.64056 45.1885 5.41517 45.6473 5.22409C46.0974 5.03668 46.5684 4.88112 47.0552 4.76108L47.226 3.48473C47.2821 3.06704 47.6383 2.76326 48.047 2.76326V2.76081H50.8006C51.2435 2.76081 51.6046 3.10868 51.6302 3.54597L51.7913 4.75985ZM52.5636 6.76134C52.0414 6.54453 51.4973 6.37917 50.9385 6.27505C50.5774 6.22728 50.2772 5.94188 50.2272 5.56094L50.0759 4.42913H48.7705L48.6192 5.56094H48.618C48.5716 5.90881 48.3069 6.20279 47.9433 6.26771C47.3711 6.37182 46.8148 6.53841 46.2817 6.76134C45.7485 6.98305 45.2471 7.25743 44.7823 7.57713C44.4931 7.79761 44.082 7.80741 43.7782 7.57468L42.8729 6.88138L41.9506 7.80741L42.6411 8.71628C42.8534 8.99434 42.8729 9.38998 42.6643 9.69376C42.3361 10.169 42.0567 10.6835 41.831 11.2298C41.6151 11.754 41.4504 12.3003 41.3467 12.8614C41.2991 13.2239 41.0148 13.5252 40.6354 13.5755L39.5081 13.7274V15.038L40.6354 15.1899V15.1911C40.9819 15.2377 41.2747 15.5035 41.3394 15.8685C41.4431 16.443 41.609 17.0015 41.8298 17.5368C42.0506 18.0721 42.3239 18.5755 42.6423 19.0422C42.8619 19.3325 42.8717 19.7453 42.6399 20.0503L41.9494 20.9592L42.8717 21.8852L43.777 21.1919C44.0539 20.9788 44.448 20.9592 44.7505 21.1686C45.2239 21.4981 45.7363 21.7786 46.2804 22.0052C46.8026 22.2221 47.3467 22.3874 47.9055 22.4915C48.2666 22.5393 48.5668 22.8247 48.6168 23.2056L48.7681 24.3375H50.0735L50.2248 23.2056H50.226C50.2724 22.8578 50.5371 22.5638 50.9007 22.4989C51.4729 22.3948 52.0292 22.2282 52.5623 22.0052C53.0955 21.7835 53.5969 21.5092 54.0617 21.1895C54.3509 20.969 54.762 20.9592 55.0658 21.1919L55.9735 21.8864L56.3908 21.4675C56.4042 21.4516 56.4188 21.4369 56.4335 21.4222L56.8946 20.9592L56.2041 20.0503C55.9918 19.7722 55.9723 19.3766 56.1809 19.0728C56.5079 18.5976 56.7885 18.0831 57.0142 17.5368C57.2301 17.0125 57.3948 16.4662 57.4985 15.9052C57.5461 15.5427 57.8304 15.2413 58.2098 15.1911L59.3371 15.0392V13.7286L58.2098 13.5767V13.5755C57.8633 13.5289 57.5705 13.2631 57.5059 12.8981C57.4022 12.3236 57.2362 11.7651 57.0142 11.2298C56.7934 10.6945 56.5201 10.1911 56.2017 9.72438C55.9821 9.43408 55.9723 9.02129 56.2041 8.71628L56.8946 7.80741L55.9723 6.88138L55.067 7.57468C54.7901 7.78781 54.396 7.80741 54.0935 7.59795C53.6201 7.26845 53.1077 6.98795 52.5636 6.76134ZM49.422 7.78168C47.6066 7.78168 45.9632 8.5203 44.7737 9.71458C43.5842 10.9089 42.8485 12.5588 42.8485 14.3815C42.8485 16.2041 43.5842 17.8541 44.7737 19.0483C45.9632 20.2426 47.6066 20.9812 49.422 20.9812C51.2374 20.9812 52.8808 20.2426 54.0703 19.0483C55.2598 17.8541 55.9955 16.2041 55.9955 14.3815C55.9955 12.5588 55.2598 10.9089 54.0703 9.71458C52.8808 8.52152 51.2374 7.78168 49.422 7.78168ZM52.8966 10.8954C52.0072 10.0024 50.7799 9.45123 49.4232 9.45123C48.0666 9.45123 46.838 10.0037 45.9498 10.8954C45.0604 11.7883 44.5114 13.0206 44.5114 14.3827C44.5114 15.7448 45.0616 16.9782 45.9498 17.87C46.8392 18.7629 48.0666 19.3141 49.4232 19.3141C50.7799 19.3141 52.0084 18.7617 52.8966 17.87C53.786 16.977 54.335 15.7448 54.335 14.3827C54.335 13.0206 53.7848 11.7871 52.8966 10.8954ZM10.2386 55.374V38.9554C10.2386 38.4042 10.4618 37.9045 10.823 37.5431C11.1829 37.1806 11.6819 36.9564 12.2297 36.9564C12.7787 36.9564 13.2764 37.1806 13.6363 37.5431C13.9975 37.9045 14.2207 38.4055 14.2207 38.9554V55.3728C14.2207 56.4152 14.7868 57.0779 15.5115 57.3645C15.8092 57.4821 16.1374 57.5409 16.4692 57.5409C16.8011 57.5409 17.1293 57.4821 17.4269 57.3645C18.1516 57.0779 18.7177 56.4152 18.7177 55.3728V34.2273H5.74158V35.5V55.374C5.74158 56.4164 6.30767 57.0791 7.03236 57.3657C7.33005 57.4833 7.65823 57.5421 7.99008 57.5421C8.32192 57.5421 8.65011 57.4833 8.94779 57.3657C9.67249 57.0791 10.2386 56.4164 10.2386 55.374ZM11.9002 38.9554V55.3728C11.9002 57.2126 10.8705 58.3946 9.55171 58.9152C9.05516 59.1112 8.52079 59.2092 7.99008 59.2092C7.45937 59.2092 6.925 59.1112 6.42845 58.9152C5.10961 58.3946 4.07991 57.2126 4.07991 55.3728V36.3329H3.83347C2.77937 36.3329 1.82165 35.9005 1.12624 35.2036C0.432046 34.5066 0.0013787 33.5438 0.000158682 32.4831C-0.00106134 30.4852 0.00503877 28.0073 0.00869883 26.0523C0.00991885 25.702 0.00991885 25.4154 0.00991885 23.3061C0.00991885 20.0283 0.616269 18.1248 2.01563 16.9721C3.28446 15.9273 5.09863 15.6125 7.63871 15.512L8.15112 13.7445C7.92786 13.5902 7.71191 13.4187 7.50451 13.2276C6.38209 12.1962 5.53174 10.6443 5.25967 8.37209C5.21209 7.97032 5.18891 7.5857 5.18891 7.217C5.18891 5.14447 5.89774 3.48105 6.99332 2.28432C8.09256 1.08392 9.57855 0.362453 11.1292 0.175043C11.4037 0.141971 11.677 0.124822 11.9466 0.124822C12.5334 0.124822 12.9385 0.228939 13.3435 0.334281C13.9596 0.493518 14.5745 0.65153 16.4338 0.0733766C16.6986 -0.00869187 16.9609 -0.0209409 17.2147 0.0317299C17.5819 0.107674 17.904 0.309783 18.1651 0.618458C18.3761 0.868338 18.5481 1.19416 18.6665 1.58123C18.8849 2.29045 18.9337 3.25077 18.7116 4.33726C18.7019 4.38503 18.6921 4.43403 18.6836 4.4818C18.6799 4.51365 18.675 4.54672 18.6665 4.57857C18.5018 5.59033 18.5628 6.70622 18.6055 7.49873C18.6226 7.82211 18.6384 8.10016 18.6384 8.27409C18.6384 10.0674 17.915 11.6744 16.8291 12.8601C16.5473 13.1676 16.2399 13.4481 15.9141 13.6955L16.2826 15.5084C20.6283 15.6015 25.8109 15.5757 30.4946 15.5525C31.5987 15.5463 32.676 15.5414 33.7215 15.5378C35.26 15.5329 36.2555 16.3903 36.6984 17.4903C36.8631 17.9006 36.9473 18.3489 36.9485 18.7972C36.9497 19.2443 36.868 19.6914 36.7033 20.1042C36.2653 21.2029 35.2746 22.0591 33.7301 22.0591H23.1232C20.3684 22.0591 20.3696 22.3825 20.3794 25.0724L20.3806 25.3982C20.3843 26.9894 20.3904 29.7356 20.3892 32.0249C20.3892 33.3405 20.3855 34.5054 20.3794 35.2134V55.3716C20.3794 57.2114 19.3497 58.3934 18.0309 58.914C17.5343 59.11 16.9999 59.208 16.4692 59.208C15.9385 59.208 15.4041 59.11 14.9076 58.914C13.5888 58.3934 12.5591 57.2114 12.5591 55.3716V38.9554C12.5591 38.8648 12.5212 38.7827 12.4615 38.7227C12.4017 38.6627 12.3187 38.6247 12.2297 38.6247C12.1394 38.6247 12.0576 38.6627 11.9978 38.7227C11.9381 38.7827 11.9002 38.866 11.9002 38.9554ZM4.07991 34.6658H3.83347C3.23322 34.6658 2.68909 34.4209 2.29502 34.0252C1.90095 33.6296 1.65573 33.0845 1.65573 32.4843C1.65451 30.4852 1.65939 28.0073 1.66427 26.0523C1.66915 24.0423 1.67159 24.2627 1.67159 23.3061C1.67159 20.5746 2.09372 19.0581 3.06729 18.2558C4.01769 17.4731 5.6025 17.2441 7.89614 17.1657L9.82499 19.4685L8.69525 21.1625C8.44027 21.5435 8.54275 22.0604 8.92217 22.3164L8.9417 22.3298L9.79327 22.8664L8.68427 29.5078C8.64523 29.7442 8.70867 29.9732 8.84287 30.1496L10.6009 32.5578H5.74158V22.6116C5.74158 22.151 5.36947 21.7774 4.91074 21.7774C4.45202 21.7774 4.07991 22.151 4.07991 22.6116V33.3907V34.6658ZM13.3423 32.559H18.736V32.0262C18.7372 29.7368 18.7311 26.9906 18.7275 25.3994L18.7263 25.0736C18.7116 20.8943 18.7092 20.392 23.1257 20.392H33.7325C34.4877 20.392 34.9635 19.9952 35.1673 19.4856C35.2539 19.27 35.2966 19.0336 35.2954 18.7972C35.2954 18.5633 35.2502 18.3269 35.1624 18.1088C34.9562 17.5956 34.4767 17.1963 33.724 17.1987C32.7004 17.2024 31.6158 17.2073 30.5031 17.2134C25.7023 17.2379 20.3806 17.2636 15.9715 17.1632L14.1585 19.3276L15.3712 21.1454C15.3797 21.1576 15.3883 21.1699 15.3956 21.1821C15.6396 21.5704 15.5225 22.0849 15.1357 22.3286L14.2842 22.8651L15.3871 29.4686C15.4346 29.7001 15.3834 29.95 15.2272 30.1508L13.3423 32.559ZM12.7433 18.4383L14.7124 16.0877L14.4001 14.5566C13.773 14.8053 13.1178 14.9449 12.4639 14.9547C11.5525 14.9682 10.5826 14.8457 9.65419 14.5137L9.1857 16.1269L11.1219 18.4396H12.7433V18.4383ZM16.9023 6.19789C16.4216 6.33875 15.8714 6.40734 15.2858 6.41959C13.9572 6.44654 12.4066 6.19054 11.1475 5.85124C10.9828 5.80714 10.8217 5.7606 10.6668 5.71405C10.1373 7.36399 8.90753 8.34024 6.97502 8.64157C7.24343 10.218 7.84856 11.2935 8.62205 12.0039C8.89289 12.2526 9.18692 12.4596 9.49558 12.6286C9.509 12.636 9.52243 12.6421 9.53463 12.6494C10.4448 13.137 11.4818 13.306 12.4432 13.2925C13.152 13.2827 13.8742 13.0463 14.5294 12.6372C14.5453 12.6274 14.5599 12.6164 14.577 12.6078C14.9491 12.3689 15.298 12.075 15.6103 11.7344C16.4314 10.8378 16.978 9.62516 16.978 8.27532C16.978 8.06586 16.9658 7.84415 16.9524 7.58447C16.9304 7.18393 16.9048 6.70989 16.9023 6.19789ZM6.85424 6.96835C8.25116 6.68785 9.04784 5.86961 9.24426 4.51365C9.2528 4.44995 9.26866 4.38626 9.29306 4.32501C9.4602 3.8963 9.94089 3.68561 10.3667 3.8522C10.7034 3.98449 11.1158 4.118 11.5757 4.24172C12.7164 4.54917 14.0999 4.78067 15.2529 4.75863C16.1728 4.74025 16.8987 4.58959 17.0451 4.21599C17.0475 4.20864 17.05 4.2013 17.0536 4.19272C17.0646 4.13025 17.0768 4.06778 17.089 4.00531C17.2513 3.2079 17.2269 2.5391 17.0829 2.07119C17.0317 1.90583 16.9694 1.77844 16.8987 1.69515C16.8914 1.68657 16.8889 1.67922 16.8877 1.67432C14.6124 2.37742 13.7742 2.16183 12.9336 1.94503C12.642 1.87031 12.3504 1.79436 11.9454 1.79436C11.7331 1.79436 11.5257 1.80661 11.3232 1.83111C10.1532 1.9732 9.03564 2.51338 8.21212 3.41246C7.42887 4.26989 6.9067 5.46417 6.85424 6.96835ZM11.3939 20.1066L10.546 21.3781L11.1438 21.7541C11.4354 21.9379 11.5733 22.2735 11.5196 22.5944L10.3777 29.4367L11.9686 31.6158L13.6949 29.411L12.5566 22.5944C12.4981 22.2392 12.6725 21.8987 12.9678 21.7321L13.5302 21.3769L12.6823 20.1054H11.3939V20.1066ZM46.5574 42.2957L48.0849 35.9116L41.5504 37.3006L42.7338 38.479C43.0584 38.8023 43.0596 39.329 42.7375 39.6549L42.7363 39.6561L42.7375 39.6573L35.6333 46.7899L37.051 48.2132L44.1637 41.0733C44.4882 40.7475 45.0141 40.7475 45.3386 41.0733C45.3532 41.088 45.3666 41.1015 45.3788 41.1174L46.5574 42.2957ZM50.0015 35.0174C50.1077 34.5715 49.8331 34.1232 49.3878 34.0166C49.2646 33.9872 49.1414 33.9872 49.0243 34.0117V34.0093L39.7057 35.99C39.258 36.0855 38.9713 36.5277 39.0665 36.9772C39.1043 37.1561 39.1958 37.3092 39.3214 37.4219L40.9734 39.0694L33.8692 46.202C33.5446 46.5278 33.5446 47.0557 33.8692 47.3815L36.4605 49.9832C36.785 50.3091 37.3108 50.3091 37.6354 49.9832L44.7518 42.8384L45.2983 43.3847C45.5863 43.6738 45.3618 43.4496 46.4281 44.5202C46.7526 44.846 47.2784 44.846 47.6029 44.5202C47.7347 44.3879 47.8128 44.2225 47.8372 44.051L50.0015 35.0174ZM41.9042 29.8446V32.1805C41.9042 32.6411 41.5321 33.0147 41.0734 33.0147C40.6147 33.0147 40.2426 32.6411 40.2426 32.1805V29.8446C36.9448 30.0516 33.9765 31.4786 31.7817 33.6822C29.5869 35.8858 28.1643 38.866 27.9594 42.1769H30.286C30.7447 42.1769 31.1168 42.5505 31.1168 43.0111C31.1168 43.4717 30.7447 43.8452 30.286 43.8452H27.9594C28.1656 47.1562 29.5869 50.1363 31.7817 52.3399C33.9765 54.5435 36.9448 55.9718 40.2426 56.1776V53.8417C40.2426 53.3811 40.6147 53.0075 41.0734 53.0075C41.5321 53.0075 41.9042 53.3811 41.9042 53.8417V56.1776C45.2019 55.9706 48.1703 54.5435 50.3651 52.3399C52.5599 50.1363 53.9824 47.1562 54.1874 43.8452H51.8608C51.4021 43.8452 51.03 43.4717 51.03 43.0111C51.03 42.5505 51.4021 42.1769 51.8608 42.1769H54.1874C53.9812 38.866 52.5599 35.8858 50.3651 33.6822C48.1703 31.4799 45.2019 30.0516 41.9042 29.8446ZM41.0734 57.8741C45.1605 57.8741 48.862 56.2106 51.54 53.5207C54.2191 50.8309 55.8759 47.1157 55.8759 43.0123C55.8759 38.9089 54.2191 35.1925 51.54 32.5039C48.8608 29.814 45.1605 28.1506 41.0734 28.1506C36.9863 28.1506 33.2848 29.814 30.6068 32.5039C27.9277 35.1938 26.2709 38.9089 26.2709 43.0123C26.2709 47.1157 27.9277 50.8321 30.6068 53.5207C33.2848 56.2106 36.9863 57.8741 41.0734 57.8741ZM41.0734 61C46.0206 61 50.4993 58.9863 53.7409 55.7317C56.9825 52.4771 58.9882 47.9793 58.9882 43.0135C58.9882 38.0466 56.9825 33.5499 53.7409 30.2954C50.4993 27.0408 46.0194 25.0271 41.0734 25.0271C36.1262 25.0271 31.6475 27.0408 28.4059 30.2954C25.1643 33.5499 23.1586 38.0466 23.1586 43.0135C23.1586 47.9805 25.1643 52.4771 28.4059 55.7317C31.6475 58.9863 36.1262 61 41.0734 61ZM29.5796 54.5521C32.521 57.5054 36.5849 59.3317 41.0734 59.3317C45.5619 59.3317 49.6257 57.5054 52.5672 54.5521C55.5087 51.5989 57.3277 47.5187 57.3277 43.0123C57.3277 38.5059 55.5087 34.4258 52.5672 31.4725C49.6257 28.5193 45.5619 26.6929 41.0734 26.6929C36.5849 26.6929 32.521 28.5193 29.5796 31.4725C26.6381 34.4258 24.8191 38.5059 24.8191 43.0123C24.8191 47.5187 26.6381 51.5989 29.5796 54.5521Z" fill="#047BDC"></path></svg>