<svg xmlns="http://www.w3.org/2000/svg" width="62" height="62" viewBox="0 0 62 62" fill="none"><path d="M47.101 44.5809C46.6496 42.3247 44.652 40.6875 42.3512 40.6875H19.6418C17.341 40.6875 15.3434 42.3247 14.892 44.5809L12.1039 58.5241C11.9325 59.3815 12.1514 60.2601 12.7065 60.9363C13.2616 61.6125 14.0792 62 14.954 62H18.4037C18.7089 62 18.9956 61.8566 19.1787 61.6125L21.7944 58.125H40.2006L42.8162 61.6125C42.9984 61.8566 43.2861 62 43.5912 62H47.0409C47.9148 62 48.7343 61.6125 49.2884 60.9363C49.8426 60.2601 50.0625 59.3815 49.891 58.5241L47.1029 44.5809H47.101ZM34.6003 42.625L34.1159 44.5625H27.8791L27.3947 42.625H34.6003ZM47.7888 59.7079C47.6048 59.9337 47.3316 60.0625 47.04 60.0625H44.0746L41.459 56.575C41.2769 56.3309 40.9892 56.1875 40.684 56.1875H21.309C21.0039 56.1875 20.7171 56.3309 20.534 56.575L17.9184 60.0625H14.953C14.6614 60.0625 14.3883 59.9337 14.2042 59.7079C14.0192 59.4832 13.9455 59.1897 14.0027 58.9039L16.7908 44.9607C17.062 43.6073 18.2604 42.624 19.6408 42.624H25.3952L26.1809 45.7657C26.2884 46.1968 26.6759 46.499 27.1205 46.499H34.8705C35.3152 46.499 35.7027 46.1968 35.8102 45.7657L36.5959 42.624H42.3503C43.7307 42.624 44.9291 43.6063 45.2003 44.9607L47.9884 58.9039C48.0455 59.1887 47.9719 59.4822 47.7869 59.7079H47.7888Z" fill="#0369CA"></path><path d="M24.2188 48.4375H22.2812V46.5C22.2812 45.9653 21.8472 45.5312 21.3125 45.5312C20.7778 45.5312 20.3438 45.9653 20.3438 46.5V48.4375H18.4062C17.8715 48.4375 17.4375 48.8715 17.4375 49.4062C17.4375 49.941 17.8715 50.375 18.4062 50.375H20.3438V52.3125C20.3438 52.8472 20.7778 53.2812 21.3125 53.2812C21.8472 53.2812 22.2812 52.8472 22.2812 52.3125V50.375H24.2188C24.7535 50.375 25.1875 49.941 25.1875 49.4062C25.1875 48.8715 24.7535 48.4375 24.2188 48.4375Z" fill="#0369CA"></path><path d="M39.7188 45.5312H41.6562V47.4688H39.7188V45.5312Z" fill="#0369CA"></path><path d="M36.8125 48.4375H38.75V50.375H36.8125V48.4375Z" fill="#0369CA"></path><path d="M42.625 48.4375H44.5625V50.375H42.625V48.4375Z" fill="#0369CA"></path><path d="M39.7188 51.3438H41.6562V53.2812H39.7188V51.3438Z" fill="#0369CA"></path><path d="M31 48.4375C29.3977 48.4375 28.0938 49.7414 28.0938 51.3438C28.0938 52.9461 29.3977 54.25 31 54.25C32.6023 54.25 33.9062 52.9461 33.9062 51.3438C33.9062 49.7414 32.6023 48.4375 31 48.4375ZM31 52.3125C30.4662 52.3125 30.0312 51.8775 30.0312 51.3438C30.0312 50.81 30.4662 50.375 31 50.375C31.5338 50.375 31.9688 50.81 31.9688 51.3438C31.9688 51.8775 31.5338 52.3125 31 52.3125Z" fill="#0369CA"></path><path d="M31 0C13.6167 0 0 5.10628 0 11.625V39.7188C0 43.1753 3.5805 46.1745 10.355 48.39C10.4538 48.422 10.5555 48.4375 10.6562 48.4375C10.8578 48.4375 11.0573 48.3745 11.2249 48.2534C11.4758 48.0713 11.625 47.7797 11.625 47.4688V32.6023C16.9958 30.9477 23.8303 30.0312 31 30.0312C38.1697 30.0312 45.0042 30.9467 50.375 32.6023V47.4688C50.375 47.7787 50.5242 48.0713 50.7751 48.2534C50.9427 48.3745 51.1422 48.4375 51.3438 48.4375C51.4445 48.4375 51.5462 48.422 51.645 48.39C58.4195 46.1745 62 43.1762 62 39.7188V11.625C62 5.10628 48.3833 0 31 0ZM9.6875 46.1077C4.74203 44.2932 1.9375 41.9953 1.9375 39.7188V15.7858C3.55047 17.4046 6.1535 18.8499 9.6875 20.0706V46.1077ZM28.5558 20.3438H33.4442L31 26.4546L28.5558 20.3438ZM60.0625 39.7188C60.0625 41.9963 57.258 44.2932 52.3125 46.1077V20.0715C55.8465 18.8499 58.4495 17.4055 60.0625 15.7867V39.7188ZM51.0425 18.4537C50.6443 18.5845 50.375 18.9555 50.375 19.375V30.5805C45.2803 29.0867 39.0125 28.2255 32.4221 28.117L35.775 19.7344C35.8941 19.436 35.8573 19.0979 35.6771 18.8315C35.4969 18.5651 35.1966 18.4062 34.875 18.4062H27.125C26.8034 18.4062 26.5031 18.5661 26.3229 18.8315C26.1427 19.097 26.1059 19.436 26.225 19.7344L29.5779 28.117C22.9865 28.2255 16.7197 29.0867 11.625 30.5805V19.375C11.625 18.9555 11.3557 18.5845 10.9575 18.4537C5.22544 16.5792 1.9375 14.0905 1.9375 11.625C1.9375 6.94691 13.6158 1.9375 31 1.9375C48.3842 1.9375 60.0625 6.94691 60.0625 11.625C60.0625 14.0905 56.7746 16.5792 51.0425 18.4537Z" fill="#0369CA"></path><path d="M34.875 14.5312C34.875 12.3942 33.1371 10.6562 31 10.6562C28.8629 10.6562 27.125 12.3942 27.125 14.5312C27.125 16.6683 28.8629 18.4062 31 18.4062C33.1371 18.4062 34.875 16.6683 34.875 14.5312ZM31 16.4688C29.9315 16.4688 29.0625 15.5998 29.0625 14.5312C29.0625 13.4627 29.9315 12.5938 31 12.5938C32.0685 12.5938 32.9375 13.4627 32.9375 14.5312C32.9375 15.5998 32.0685 16.4688 31 16.4688Z" fill="#0369CA"></path><path d="M48.244 6.19993C47.8788 5.71168 47.0592 5.71168 46.694 6.19993L43.7877 10.0749C43.5291 10.4188 43.5291 10.8935 43.7877 11.2374L46.694 15.1124C46.8761 15.3566 47.1638 15.4999 47.469 15.4999C47.7741 15.4999 48.0609 15.3566 48.244 15.1124L51.1502 11.2374C51.4089 10.8935 51.4089 10.4188 51.1502 10.0749L48.244 6.19993ZM47.469 12.9172L45.7737 10.6571L47.469 8.39705L49.1643 10.6571L47.469 12.9172Z" fill="#0369CA"></path><path d="M19.1815 15.8874C18.8163 15.3992 17.9967 15.3992 17.6315 15.8874L14.7252 19.7624C14.4666 20.1063 14.4666 20.581 14.7252 20.9249L17.6315 24.7999C17.8136 25.0441 18.1013 25.1874 18.4065 25.1874C18.7116 25.1874 18.9984 25.0441 19.1815 24.7999L22.0877 20.9249C22.3464 20.581 22.3464 20.1063 22.0877 19.7624L19.1815 15.8874ZM18.4065 22.6047L16.7112 20.3446L18.4065 18.0846L20.1018 20.3446L18.4065 22.6047Z" fill="#0369CA"></path><path d="M45.5312 22.2812V18.4062C45.5312 17.8715 45.0972 17.4375 44.5625 17.4375H40.6875C40.1528 17.4375 39.7188 17.8715 39.7188 18.4062V22.2812C39.7188 22.816 40.1528 23.25 40.6875 23.25H44.5625C45.0972 23.25 45.5312 22.816 45.5312 22.2812ZM43.5938 21.3125H41.6562V19.375H43.5938V21.3125Z" fill="#0369CA"></path><path d="M17.4375 11.625V7.75C17.4375 7.21525 17.0035 6.78125 16.4688 6.78125H12.5938C12.059 6.78125 11.625 7.21525 11.625 7.75V11.625C11.625 12.1597 12.059 12.5938 12.5938 12.5938H16.4688C17.0035 12.5938 17.4375 12.1597 17.4375 11.625ZM15.5 10.6562H13.5625V8.71875H15.5V10.6562Z" fill="#0369CA"></path><path d="M37.7812 5.8125H39.7188V7.75H37.7812V5.8125Z" fill="#0369CA"></path><path d="M44.5625 25.1875H46.5V27.125H44.5625V25.1875Z" fill="#0369CA"></path><path d="M13.5625 25.1875H15.5V27.125H13.5625V25.1875Z" fill="#0369CA"></path><path d="M26.1562 3.875H28.0938V5.8125H26.1562V3.875Z" fill="#0369CA"></path><path d="M21.3125 12.5938H23.25V14.5312H21.3125V12.5938Z" fill="#0369CA"></path></svg>