<svg xmlns="http://www.w3.org/2000/svg" width="58" height="61" viewBox="0 0 58 61" fill="none"><path d="M32.4263 18.6422V26.0254H26.9558C23.8607 26.0254 21.3516 23.5163 21.3516 20.4212V18.6422" stroke="#0369CA" stroke-width="2" stroke-miterlimit="10"></path><path d="M26.8699 13.105H32.4263C33.9554 13.105 35.195 14.3446 35.195 15.8737C35.195 17.4027 33.9554 18.6424 32.4263 18.6424H21.3516V13.105H25.0476" stroke="#0369CA" stroke-width="2" stroke-miterlimit="10"></path><path d="M30.5873 13.0919H32.5339C34.5112 13.0919 36.1142 11.4889 36.1142 9.51159V5.7218H25.0028C22.9842 5.7218 21.3478 7.35816 21.3478 9.37673V9.4134H20.5257C18.9409 9.4134 17.6562 10.6981 17.6562 12.2829V16.7966" stroke="#0369CA" stroke-width="2" stroke-miterlimit="10"></path><path d="M21.4133 16.7366H17.6562V18.6425C17.6562 20.202 18.9205 21.4662 20.48 21.4662H21.4133" stroke="#0369CA" stroke-width="2" stroke-miterlimit="10"></path><path d="M21.418 22.3337V29.7169C22.0358 30.0426 23.3221 30.6156 25.0441 30.6228C26.803 30.6302 28.1164 30.0435 28.7357 29.7169V26.2243" stroke="#0369CA" stroke-width="2" stroke-miterlimit="10"></path><path d="M21.4155 29.717H17.7239C14.6295 29.717 12.1211 32.2255 12.1211 35.3199V58.5607" stroke="#0369CA" stroke-width="2" stroke-miterlimit="10"></path><path d="M28.7344 29.717H32.5659C34.8774 29.717 37.0523 30.8122 38.4286 32.6693L41.7125 37.1002L49.0381 29.717L52.4924 32.8672L45.6457 41.9173C43.9503 44.1278 40.6101 44.1004 38.9514 41.8621L34.7256 36.1603H34.3058V60" stroke="#0369CA" stroke-width="2" stroke-miterlimit="10"></path><path d="M17.6562 38.9462V59.1887" stroke="#0369CA" stroke-width="2" stroke-miterlimit="10"></path><path d="M49.043 29.7172V22.334L52.7346 16.7966L53.8422 17.4777C54.8151 18.076 55.2025 19.2971 54.7525 20.3468L53.6875 22.8314L54.7451 23.3522C55.726 23.835 56.2368 24.937 55.9717 25.9976L55.1764 29.1785C54.794 30.7083 53.8337 32.0305 52.4971 32.8674" stroke="#0369CA" stroke-width="2" stroke-miterlimit="10"></path><path d="M34.3022 46.6949C43.4379 47.6653 49.9478 50.1821 49.9478 53.1339C49.9478 56.926 39.2047 60.0001 25.9524 60.0001C12.7001 60.0001 1.95703 56.926 1.95703 53.1339C1.95703 50.816 5.97102 48.7664 12.1185 47.5231" stroke="#0369CA" stroke-width="2" stroke-miterlimit="10"></path><path d="M4.67188 42.4533V14.7664" stroke="#0369CA" stroke-width="2" stroke-miterlimit="10"></path><path d="M8.36719 31.3785V7.38318" stroke="#0369CA" stroke-width="2" stroke-miterlimit="10"></path><path d="M12.0508 28.6098V18.4579" stroke="#0369CA" stroke-width="2" stroke-miterlimit="10"></path><path d="M12.0508 16.6122V0" stroke="#0369CA" stroke-width="2" stroke-miterlimit="10"></path><path d="M47.1367 46.1448V39.9513" stroke="#0369CA" stroke-width="2" stroke-miterlimit="10"></path><path d="M43.4414 31.3785V7.38318" stroke="#0369CA" stroke-width="2" stroke-miterlimit="10"></path><path d="M39.7422 28.6098V18.4579" stroke="#0369CA" stroke-width="2" stroke-miterlimit="10"></path><path d="M39.7422 16.6122V0" stroke="#0369CA" stroke-width="2" stroke-miterlimit="10"></path></svg>