<svg xmlns="http://www.w3.org/2000/svg" width="62" height="62" viewBox="0 0 62 62" fill="none"><path d="M54.8989 16.7397C56.6235 14.2183 57.6889 11.7952 56.5295 10.6369C55.4445 9.55083 53.5329 10.423 52.1895 11.1742C51.9504 11.3082 51.7743 11.5317 51.7 11.7955C51.6257 12.0594 51.6592 12.3419 51.7933 12.581C51.9273 12.8202 52.1508 12.9962 52.4146 13.0706C52.6785 13.1449 52.961 13.1113 53.2001 12.9773C53.7439 12.6425 54.3336 12.3888 54.9506 12.224C54.6145 13.2658 54.1139 14.2472 53.4678 15.1308C51.507 13.3411 48.9318 12.3762 46.2778 12.4369C43.6238 12.4975 41.0953 13.579 39.2184 15.4563C37.3414 17.3337 36.2605 19.8624 36.2004 22.5164C36.1403 25.1704 37.1058 27.7454 38.8958 29.7058C38.0123 30.3518 37.0309 30.852 35.9891 31.1876C36.1541 30.571 36.4079 29.9817 36.7424 29.4381C36.8764 29.199 36.91 28.9165 36.8356 28.6526C36.7613 28.3888 36.5852 28.1653 36.3461 28.0313C36.107 27.8973 35.8245 27.8637 35.5606 27.938C35.2968 28.0124 35.0733 28.1884 34.9393 28.4276C34.188 29.7709 33.3138 31.6753 34.4019 32.7675C34.5743 32.9325 34.7784 33.0606 35.0019 33.1441C35.2254 33.2276 35.4636 33.2647 35.7018 33.2532C36.9739 33.2532 38.713 32.3562 40.5006 31.1338C42.4875 32.5613 44.917 33.2361 47.3555 33.0379C49.7939 32.8396 52.0825 31.7811 53.8127 30.0515C55.5429 28.3218 56.602 26.0335 56.801 23.5951C56.9999 21.1567 56.3258 18.7269 54.8989 16.7397ZM53.3603 27.3374C53.1517 27.1462 52.9852 26.9138 52.8713 26.6547C52.7575 26.3957 52.6988 26.1158 52.699 25.8329C52.7005 25.2983 52.9091 24.7852 53.281 24.4012C53.6529 24.0172 54.159 23.7922 54.6933 23.7735C54.5338 25.0494 54.0773 26.27 53.3603 27.3374ZM38.2325 22.7329C38.2311 21.1057 38.7104 19.5143 39.6102 18.1586C40.5101 16.8028 41.7904 15.743 43.2904 15.1123C44.7904 14.4816 46.4432 14.308 48.0416 14.6133C49.6399 14.9186 51.1124 15.6893 52.2743 16.8285C50.5951 19.0222 48.7651 21.0963 46.7977 23.0357C44.8586 25.0035 42.7845 26.8335 40.5905 28.5123C39.0767 26.9698 38.2298 24.8941 38.2325 22.7329ZM42.2779 29.8277C44.3731 28.1666 46.3714 26.3867 48.2629 24.4968C50.1535 22.6065 51.9341 20.6092 53.5959 18.5149C54.1784 19.4891 54.5524 20.5735 54.6943 21.6996C53.8657 21.7118 53.0599 21.9733 52.3822 22.4502C51.7044 22.9271 51.1861 23.5972 50.8949 24.373C50.6036 25.1489 50.5529 25.9945 50.7494 26.7996C50.9458 27.6047 51.3804 28.3319 51.9963 28.8864C50.6906 30.0632 49.0415 30.7895 47.2919 30.9584C45.5422 31.1273 43.7846 30.7299 42.2779 29.8246V29.8277Z" fill="#048DEF"></path><path d="M42.3656 18.5997C41.7525 18.5997 41.1531 18.7815 40.6433 19.1222C40.1336 19.4628 39.7362 19.9469 39.5016 20.5134C39.267 21.0798 39.2056 21.7031 39.3252 22.3045C39.4448 22.9058 39.74 23.4582 40.1736 23.8917C40.6071 24.3252 41.1595 24.6205 41.7608 24.7401C42.3622 24.8597 42.9855 24.7983 43.5519 24.5637C44.1183 24.3291 44.6025 23.9317 44.9431 23.4219C45.2837 22.9122 45.4656 22.3128 45.4656 21.6997C45.4656 20.8775 45.139 20.089 44.5576 19.5077C43.9762 18.9263 43.1878 18.5997 42.3656 18.5997ZM42.3656 22.733C42.1612 22.733 41.9614 22.6724 41.7915 22.5589C41.6216 22.4453 41.4891 22.2839 41.4109 22.0951C41.3327 21.9063 41.3123 21.6986 41.3521 21.4981C41.392 21.2977 41.4904 21.1135 41.6349 20.969C41.7794 20.8245 41.9636 20.7261 42.164 20.6862C42.3644 20.6464 42.5722 20.6668 42.761 20.745C42.9498 20.8232 43.1112 20.9557 43.2248 21.1256C43.3383 21.2955 43.3989 21.4953 43.3989 21.6997C43.3989 21.9738 43.29 22.2366 43.0963 22.4304C42.9025 22.6242 42.6396 22.733 42.3656 22.733Z" fill="#048DEF"></path><path d="M41.6369 7.96359C41.8307 8.15731 42.0934 8.26613 42.3674 8.26613C42.6414 8.26613 42.9042 8.15731 43.098 7.96359L46.198 4.86363C46.3917 4.66985 46.5005 4.40707 46.5005 4.13307C46.5005 3.85907 46.3917 3.59628 46.198 3.40251L43.098 0.302543C42.9042 0.108825 42.6414 0 42.3674 0C42.0934 0 41.8307 0.108825 41.6369 0.302543L38.5369 3.40251C38.3432 3.59628 38.2344 3.85907 38.2344 4.13307C38.2344 4.40707 38.3432 4.66985 38.5369 4.86363L41.6369 7.96359ZM42.3674 2.49422L44.0063 4.13307L42.3674 5.77192L40.7286 4.13307L42.3674 2.49422Z" fill="#048DEF"></path><path d="M54.7677 8.26642H60.9676C61.1595 8.26642 61.3476 8.21298 61.5109 8.11209C61.6741 8.0112 61.806 7.86685 61.8919 7.69521C61.9777 7.52357 62.014 7.33142 61.9968 7.1403C61.9795 6.94917 61.9094 6.76662 61.7943 6.6131L58.6943 2.47981C58.5939 2.35776 58.4677 2.25946 58.3248 2.19197C58.1818 2.12448 58.0257 2.08948 57.8677 2.08948C57.7096 2.08948 57.5535 2.12448 57.4106 2.19197C57.2676 2.25946 57.1414 2.35776 57.041 2.47981L53.941 6.6131C53.8259 6.76662 53.7558 6.94917 53.7386 7.1403C53.7213 7.33142 53.7576 7.52357 53.8435 7.69521C53.9293 7.86685 54.0612 8.0112 54.2244 8.11209C54.3877 8.21298 54.5758 8.26642 54.7677 8.26642ZM57.8677 4.82235L58.901 6.19977H56.8343L57.8677 4.82235Z" fill="#048DEF"></path><path d="M31.146 19.1317C31.2378 19.2845 31.3677 19.4109 31.5228 19.4987C31.678 19.5865 31.8533 19.6326 32.0315 19.6326C32.2098 19.6326 32.385 19.5865 32.5402 19.4987C32.6954 19.4109 32.8252 19.2845 32.9171 19.1317L36.017 13.9651C36.1112 13.8084 36.1621 13.6294 36.1645 13.4465C36.1669 13.2636 36.1207 13.0834 36.0307 12.9242C35.9406 12.765 35.81 12.6326 35.652 12.5404C35.494 12.4483 35.3144 12.3997 35.1315 12.3997H28.9316C28.7487 12.3997 28.5691 12.4483 28.4111 12.5404C28.2531 12.6326 28.1224 12.765 28.0324 12.9242C27.9423 13.0834 27.8961 13.2636 27.8985 13.4465C27.9009 13.6294 27.9518 13.8084 28.046 13.9651L31.146 19.1317ZM33.3056 14.4663L32.0315 16.5918L30.7574 14.4663H33.3056Z" fill="#048DEF"></path><path d="M58.8968 30.9994C58.2837 30.9994 57.6844 31.1812 57.1746 31.5218C56.6648 31.8625 56.2675 32.3466 56.0328 32.9131C55.7982 33.4795 55.7368 34.1028 55.8564 34.7041C55.9761 35.3055 56.2713 35.8578 56.7048 36.2914C57.1384 36.7249 57.6907 37.0201 58.2921 37.1398C58.8934 37.2594 59.5167 37.198 60.0831 36.9633C60.6496 36.7287 61.1337 36.3314 61.4744 35.8216C61.815 35.3118 61.9968 34.7125 61.9968 34.0994C61.9968 33.2772 61.6702 32.4887 61.0888 31.9074C60.5075 31.326 59.719 30.9994 58.8968 30.9994ZM58.8968 35.1327C58.6925 35.1327 58.4927 35.0721 58.3228 34.9585C58.1528 34.845 58.0204 34.6836 57.9422 34.4948C57.864 34.306 57.8435 34.0982 57.8834 33.8978C57.9232 33.6973 58.0217 33.5132 58.1662 33.3687C58.3107 33.2242 58.4948 33.1258 58.6952 33.0859C58.8957 33.046 59.1035 33.0665 59.2923 33.1447C59.4811 33.2229 59.6425 33.3553 59.756 33.5253C59.8696 33.6952 59.9302 33.895 59.9302 34.0994C59.9302 34.3734 59.8213 34.6362 59.6275 34.83C59.4337 35.0238 59.1709 35.1327 58.8968 35.1327Z" fill="#048DEF"></path><path d="M26.8664 59.9325H8.26657V48.9224C8.26747 46.2625 9.19974 43.6869 10.9015 41.6427L11.8904 40.4554C12.3081 41.3339 12.9656 42.0763 13.787 42.5972C14.6085 43.1181 15.5605 43.3962 16.5331 43.3993C17.3553 43.3993 18.1438 43.0727 18.7252 42.4914C19.3065 41.91 19.6331 41.1215 19.6331 40.2994V40.2405L20.4091 40.7943C22.7395 42.4555 24.3555 44.9364 24.933 47.7393C24.9806 47.9723 25.1071 48.1818 25.2912 48.3324C25.4753 48.483 25.7058 48.5655 25.9436 48.5659C26.013 48.5656 26.0823 48.5583 26.1503 48.5442C26.4185 48.4888 26.6538 48.3291 26.8043 48.1003C26.9549 47.8714 27.0084 47.5922 26.9532 47.3239C26.2716 44.0101 24.3611 41.0771 21.6057 39.1142L19.6331 37.7016V37.0651L20.8028 36.6393C22.1636 36.1491 23.345 35.26 24.1929 34.0883C25.0408 32.9165 25.5159 31.5163 25.5561 30.0705L25.584 29.1829L27.7674 27.449C27.9712 27.2873 28.1065 27.0548 28.1464 26.7977C28.1862 26.5407 28.1276 26.278 27.9824 26.0623L26.3218 23.604C27.0237 23.281 27.578 22.7052 27.8739 21.9915C28.1698 21.2778 28.1857 20.4787 27.9183 19.7538L26.5037 15.8696C26.3654 15.4867 26.1527 15.135 25.8778 14.8347C25.6029 14.5345 25.2713 14.2916 24.902 14.1202C24.8442 14.0933 24.7832 14.0809 24.7253 14.0582L25.4487 12.9577C25.8856 12.2853 26.1608 11.5209 26.2526 10.7243C26.3444 9.92774 26.2503 9.12073 25.9777 8.36663L24.2107 3.51002C24.1504 3.34448 24.0488 3.19711 23.9155 3.0819C23.7822 2.9667 23.6217 2.88749 23.4492 2.85179C23.2767 2.8171 23.0983 2.82657 22.9304 2.87932C22.7626 2.93207 22.6108 3.0264 22.4892 3.15352L19.9803 5.80089C19.6537 6.14666 19.2516 6.41225 18.8054 6.57692L8.21078 10.2504C5.8159 11.0802 3.705 12.5713 2.12244 14.5511L1.13355 15.791C0.40283 16.7063 0.00331098 17.8418 0 19.0129V19.5182C4.73961e-05 20.4549 0.254714 21.3739 0.736759 22.177L2.01188 24.3015C1.74643 24.6796 1.56634 25.1109 1.48409 25.5655C1.40184 26.0202 1.41938 26.4872 1.53552 26.9344C1.64142 27.358 1.83561 27.7544 2.10537 28.0977C2.37513 28.4411 2.71438 28.7235 3.10088 28.9266C3.48739 29.1297 3.91245 29.2489 4.34821 29.2763C4.78397 29.3038 5.22062 29.2388 5.62954 29.0858L5.7959 29.0238L11.3665 34.7597V37.8597L9.31333 40.3242C7.30413 42.7392 6.20276 45.7809 6.19993 48.9224V60.9658C6.19993 61.2399 6.3088 61.5027 6.50258 61.6965C6.69637 61.8903 6.9592 61.9991 7.23325 61.9991H26.8664C27.1404 61.9991 27.4033 61.8903 27.597 61.6965C27.7908 61.5027 27.8997 61.2399 27.8997 60.9658C27.8997 60.6918 27.7908 60.4289 27.597 60.2351C27.4033 60.0414 27.1404 59.9325 26.8664 59.9325ZM16.5331 41.3327C15.711 41.3327 14.9225 41.0061 14.3411 40.4247C13.7598 39.8434 13.4332 39.0549 13.4332 38.2327V36.6776C14.3387 37.4146 15.469 37.82 16.6365 37.8266C16.9485 37.8249 17.2598 37.7952 17.5665 37.7378V40.2994C17.5665 40.5734 17.4576 40.8363 17.2638 41.03C17.07 41.2238 16.8072 41.3327 16.5331 41.3327ZM23.9266 27.8623C23.8087 27.9556 23.7126 28.0734 23.645 28.2076C23.5773 28.3418 23.5398 28.4892 23.5349 28.6394L23.4946 29.9662H21.6998C21.4257 29.9662 21.1629 30.075 20.9691 30.2688C20.7753 30.4626 20.6664 30.7254 20.6664 30.9995C20.6664 31.2735 20.7753 31.5364 20.9691 31.7301C21.1629 31.9239 21.4257 32.0328 21.6998 32.0328H23.0007C22.7162 32.6466 22.313 33.198 21.8145 33.6554C21.316 34.1127 20.732 34.467 20.096 34.6977L17.7029 35.5699C17.1619 35.7689 16.5759 35.8123 16.0115 35.695C15.4471 35.5777 14.9268 35.3046 14.5099 34.9065L13.4952 33.9465L13.7111 33.3265C14.212 31.8987 14.4674 30.3964 14.4665 28.8832V25.7822L16.7997 24.9091C17.0901 25.261 17.4544 25.5448 17.8668 25.7401C18.2791 25.9355 18.7294 26.0377 19.1857 26.0395C19.5459 26.0398 19.9033 25.9769 20.2417 25.8535L24.3399 24.3614L25.7369 26.4281L23.9266 27.8623ZM16.8318 18.6141C16.8892 18.491 16.9703 18.3805 17.0705 18.2889C17.1707 18.1972 17.288 18.1262 17.4156 18.0799L18.5626 17.6665C18.5626 18.0186 18.6227 18.368 18.7403 18.6998L20.1498 22.582C20.2712 22.9127 20.4488 23.22 20.6747 23.4903L19.5319 23.9037C19.2739 23.9951 18.9903 23.9813 18.7424 23.8653C18.4945 23.7493 18.3022 23.5403 18.2071 23.2837L16.7946 19.4004C16.7027 19.1437 16.7161 18.861 16.8318 18.6141ZM25.9798 20.4596C26.0262 20.5873 26.0469 20.7229 26.0409 20.8586C26.0348 20.9943 26.0021 21.1275 25.9445 21.2505C25.8869 21.3736 25.8056 21.484 25.7053 21.5756C25.605 21.6672 25.4875 21.7381 25.3598 21.7843L23.4171 22.4921C23.1592 22.5841 22.8753 22.5706 22.6273 22.4545C22.3792 22.3384 22.187 22.1292 22.0924 21.8721L20.6799 17.9879C20.6335 17.8602 20.6127 17.7246 20.6188 17.5889C20.6248 17.4532 20.6576 17.32 20.7152 17.197C20.7728 17.0739 20.854 16.9634 20.9544 16.8718C21.0547 16.7803 21.1721 16.7093 21.2999 16.6632L23.2404 15.9553C23.3542 15.9146 23.4741 15.8936 23.5949 15.8933C23.8068 15.8935 24.0136 15.9588 24.1871 16.0804C24.3607 16.2021 24.4927 16.3741 24.5652 16.5733L25.9798 20.4596ZM2.06664 19.0129C2.06767 18.3088 2.30736 17.6258 2.74657 17.0755L3.73649 15.8355C5.07571 14.1627 6.86131 12.9034 8.88657 12.2034L19.4957 8.52473C20.2487 8.24926 20.9277 7.80329 21.4797 7.22171L22.8364 5.78643L24.032 9.06929C24.1952 9.52182 24.2516 10.006 24.1965 10.4839C24.1415 10.9618 23.9766 11.4205 23.7147 11.8241L22.2164 14.1346L20.5982 14.7236H20.592L16.7088 16.1372C16.1053 16.3537 15.5849 16.754 15.2209 17.2817C14.8568 17.8094 14.6674 18.4381 14.6794 19.0791L3.69929 23.1008L2.50891 21.1168C2.21957 20.6349 2.0667 20.0834 2.06664 19.5213V19.0129ZM4.06302 27.0987C3.92267 27.0215 3.80114 26.9142 3.70717 26.7845C3.61319 26.6548 3.5491 26.5059 3.51949 26.3485C3.45748 26.101 3.48924 25.8392 3.60867 25.6137C3.7281 25.3882 3.92675 25.2149 4.16635 25.1271L15.2105 21.0848L15.9183 23.0326L4.90518 27.1535C4.76918 27.2051 4.62374 27.2272 4.47854 27.2183C4.33333 27.2094 4.19169 27.1697 4.06302 27.1018V27.0987ZM12.3999 26.5562V28.8915C12.4002 30.0529 12.2221 31.2075 11.8718 32.3149L7.90905 28.2364L12.3999 26.5562Z" fill="#048DEF"></path><path d="M50.8299 39.2661H43.9511L42.6356 37.2924C42.3544 36.8705 41.9528 36.5428 41.483 36.352C41.0131 36.1612 40.4968 36.116 40.001 36.2224C39.5052 36.3288 39.0528 36.5819 38.7026 36.9487C38.3525 37.3154 38.1207 37.779 38.0374 38.2793L37.2841 42.8011L29.0351 48.5774C28.0979 49.2191 26.9914 49.5686 25.8556 49.5815C24.7199 49.5943 23.6058 49.2701 22.6543 48.6497L18.1397 45.6396C17.9117 45.4875 17.6326 45.4322 17.3638 45.4859C17.095 45.5396 16.8586 45.6978 16.7065 45.9258C16.5544 46.1539 16.4991 46.433 16.5528 46.7017C16.6065 46.9705 16.7647 47.207 16.9927 47.3591L21.5073 50.3691C22.8071 51.2149 24.3283 51.6564 25.8789 51.638C27.4295 51.6197 28.9399 51.1421 30.2192 50.2658L38.0053 44.815L39.8849 47.326L30.9116 54.056C29.4011 55.1842 27.5672 55.7955 25.6819 55.7992C23.9619 55.8015 22.28 55.2921 20.8501 54.3361L14.0054 49.7729C13.7774 49.6208 13.4983 49.5655 13.2295 49.6192C12.9607 49.6729 12.7243 49.8311 12.5722 50.0591C12.4201 50.2871 12.3648 50.5662 12.4185 50.835C12.4721 51.1038 12.6304 51.3403 12.8584 51.4924L19.7031 56.0555C21.4725 57.2385 23.5536 57.8686 25.6819 57.8659C28.0139 57.8614 30.2823 57.1051 32.1505 55.7093L41.7842 48.4844L45.0722 47.6577C45.5537 47.5389 46.0244 47.3803 46.4796 47.1834L51.9748 44.8347C52.5892 44.5714 53.0939 44.104 53.4035 43.5116C53.7131 42.9192 53.8087 42.238 53.674 41.5833C53.5394 40.9286 53.1829 40.3404 52.6646 39.9182C52.1464 39.496 51.4983 39.2656 50.8299 39.2661ZM51.1595 42.9354L45.6633 45.2893C45.31 45.4412 44.9451 45.5646 44.5721 45.6582L41.7459 46.364L39.3238 43.1328L40.0761 38.6182C40.0983 38.5315 40.1444 38.4528 40.209 38.3908C40.2736 38.3289 40.3542 38.2862 40.4417 38.2676C40.5293 38.249 40.6203 38.2553 40.7045 38.2856C40.7887 38.316 40.8627 38.3693 40.9183 38.4394L42.5406 40.8739C42.6349 41.0149 42.7625 41.1305 42.912 41.2106C43.0616 41.2906 43.2286 41.3325 43.3982 41.3327H50.8299C51.0224 41.3324 51.2091 41.3985 51.3584 41.52C51.5077 41.6415 51.6104 41.8109 51.6492 41.9995C51.688 42.188 51.6604 42.3842 51.5712 42.5547C51.482 42.7253 51.3365 42.8598 51.1595 42.9354Z" fill="#048DEF"></path></svg>