<svg xmlns="http://www.w3.org/2000/svg" width="60" height="64" viewBox="0 0 60 64" fill="none"><path d="M59.9906 11.0727C59.5037 -3.58935 -1.52225 -4.15424 0.138231 12.1648V44.4389C0.0508374 44.8029 0.000898034 45.1669 0.000898034 45.531C-0.0615262 48.4182 3.1346 51.4811 8.30333 53.2637C8.66539 53.2762 8.98999 52.9499 8.98999 52.5733V38.9783C13.0226 37.4593 18.3162 36.4049 24.0342 35.9781C24.0842 36.1538 24.1341 36.3295 24.1965 36.5053C22.6609 37.5472 23.8969 40.3968 25.7322 39.6938C26.1192 40.4595 25.9444 41.4638 26.9182 41.6772L26.6561 42.7442C16.8929 44.715 18.0665 50.728 18.079 58.7996C17.9916 62.0132 19.2026 64.21 22.5485 63.984C25.0081 63.984 27.5425 63.984 30.002 63.9966C32.4615 63.984 34.996 63.984 37.4555 63.984C40.7889 64.21 42.0124 62.0132 41.925 58.7996C41.9375 50.7154 43.0986 44.715 33.323 42.7442L33.0109 41.5767C33.6975 41.3131 33.6101 40.2587 34.0221 39.6812C35.7825 40.3842 37.056 37.7983 35.7575 36.6183C35.8324 36.4049 35.8949 36.1915 35.9448 35.9781C41.6754 36.4049 46.9814 37.4593 51.014 38.9783V52.5733C51.0015 53.0377 51.5259 53.4018 51.9504 53.2135C57.1441 51.1673 59.9906 48.4433 59.9906 45.531C60.0031 45.5184 60.0031 11.0852 59.9906 11.0727ZM7.62915 51.5565C3.32187 49.5731 0.912293 47.5269 1.4866 44.715C1.56151 44.5769 1.4866 14.8512 1.51157 14.688C3.08466 16.4705 5.43181 17.7007 7.62915 18.6171V51.5565ZM25.1704 38.4259C25.0955 38.4636 24.8582 38.1121 24.8832 37.9112C24.9831 38.0744 25.1079 38.2376 25.1953 38.4259H25.1704ZM40.5767 54.406L40.5517 58.8122C40.5517 62.3145 39.6029 62.7915 36.4192 62.6283V59.1385C36.4192 58.762 36.1071 58.4481 35.7326 58.4481C35.358 58.4481 35.0459 58.762 35.0459 59.1385V62.6283C31.675 62.6283 28.3041 62.6283 24.9332 62.6283V59.1385C24.9332 58.762 24.621 58.4481 24.2465 58.4481C23.8719 58.4481 23.5598 58.762 23.5598 59.1385V62.6283C20.3512 62.7538 19.4648 62.3521 19.4273 58.8122C19.4773 56.1886 19.1901 52.4352 19.702 49.8995C26.3689 51.908 33.5976 51.908 40.2646 49.8995C40.5892 51.3431 40.5767 52.8997 40.5767 54.406ZM38.8413 46.8616C39.2783 47.3512 39.6278 47.9286 39.89 48.5688C33.4728 50.4895 26.5437 50.5146 20.114 48.5688C21.2376 45.7193 24.1466 44.715 27.093 44.0623C28.8159 45.2674 31.213 45.2799 32.9235 44.0623C35.1707 44.5769 37.418 45.2799 38.8413 46.8616ZM28.0044 43.0329L28.2292 42.1165C29.3778 42.3676 30.5763 42.3425 31.7124 42.0538L31.9746 43.058C30.8135 43.7986 29.178 43.8112 28.0044 43.0329ZM34.7088 35.1621C34.6214 36.2166 34.0221 37.1832 33.3979 37.9991C33.3979 37.9866 33.4104 37.9866 33.4104 37.974C32.911 38.7272 32.5115 39.5682 32.2618 40.4219C30.7136 41.0746 28.9533 41.0872 27.4176 40.4219C27.0681 39.0536 26.4313 37.7857 25.7197 36.5932C24.9956 35.2625 24.8832 33.0908 25.8446 32.074C26.4064 31.4213 27.2304 31.2455 27.8172 31.2204C27.9545 31.2079 28.0918 31.1577 28.2042 31.0698C31.1881 28.6596 35.2831 31.4966 34.7088 35.1621ZM58.6298 45.531C58.6298 47.6399 56.37 49.8116 52.3874 51.5439C52.3874 43.8489 52.3874 26.4377 52.3874 18.592C54.6721 17.6254 57.0068 16.4078 58.6298 14.4997V45.531ZM51.451 17.4873C51.1888 17.5877 51.014 17.8514 51.014 18.1275V37.497C46.9065 36.0157 41.7877 35.024 36.1071 34.5972C36.2444 30.1032 31.2255 27.0779 27.53 29.8521C25.1829 29.9526 23.5473 32.1619 23.7845 34.6098C18.2288 35.0366 13.0351 36.0534 8.98999 37.497V18.1275C8.98999 17.8388 8.81521 17.5877 8.55302 17.4873C-9.94953 9.61652 10.8627 1.01764 30.002 1.31892C49.1787 1.01764 69.9036 9.61652 51.451 17.4873ZM18.5909 31.0196C16.0939 31.3585 13.8091 31.8983 11.6493 32.4255C10.8752 32.4381 10.7129 31.2706 11.4745 31.0698C13.5969 30.4923 15.9316 30.0153 18.4036 29.6513C19.29 29.5383 19.4773 30.8815 18.5909 31.0196ZM15.9565 33.4047C16.0315 33.7813 15.7818 34.1328 15.4197 34.2081C14.0963 34.4466 12.8603 34.7981 11.6493 35.0742C10.8752 35.0868 10.7129 33.9193 11.4745 33.7185C12.6481 33.4047 13.8841 33.1034 15.1575 32.8523C15.5196 32.7896 15.8816 33.0406 15.9565 33.4047ZM49.6906 32.0113C49.5783 32.3753 49.1787 32.5762 48.8292 32.4632C46.9689 31.8732 44.8964 31.3585 42.6741 30.9568C42.2996 30.894 42.0499 30.53 42.1248 30.1534C42.1997 29.7768 42.5493 29.5383 42.9238 29.6011C45.2086 30.0153 47.331 30.5426 49.2537 31.1577C49.6032 31.2581 49.803 31.6472 49.6906 32.0113ZM31.4378 23.2492V21.0399C31.4378 20.6633 31.1256 20.3494 30.7511 20.3494H28.5787C28.2042 20.3494 27.8921 20.6633 27.8921 21.0399V21.7554H26.9307C26.9807 21.3286 26.6935 20.9143 26.2441 20.9143H23.2477V18.1275H24.8707C25.2453 18.1275 25.5574 17.8137 25.5574 17.4371V16.4831H26.706C27.0806 16.4831 27.3927 16.1692 27.3927 15.7927V14.5625H30.2517C30.6263 14.5625 30.9384 14.2486 30.9384 13.872V11.3237C31.5626 11.4242 32.0495 10.7338 31.6375 10.2065C29.4652 7.44484 26.1692 5.86314 22.6859 5.85059C16.5184 5.78783 11.1499 11.1229 11.2498 17.3492C11.1499 23.563 16.5059 28.9232 22.6859 28.8479C26.269 28.8353 29.615 27.1909 31.7624 24.3288C32.062 23.9647 31.8747 23.3747 31.4378 23.2492ZM26.0318 15.1148H24.8832C24.5087 15.1148 24.1965 15.4286 24.1965 15.8052V16.7592H22.5735C22.199 16.7592 21.8869 17.0731 21.8869 17.4497V20.362H18.4161C18.1164 18.4288 18.1164 16.2697 18.4161 14.3365H26.0318V15.1148ZM29.7648 10.1563C29.6399 10.2818 29.565 10.445 29.565 10.6333V13.1942H28.1792C27.7922 11.2735 27.1679 9.36546 25.9944 7.79632C27.4052 8.27334 28.6911 9.07674 29.7648 10.1563ZM22.6984 7.23143C25.1454 7.45739 26.2316 10.9095 26.7435 12.9682H18.6533C19.4024 9.55376 21.0129 7.23143 22.6984 7.23143ZM19.3774 7.80888C18.441 9.03908 17.6919 10.8091 17.255 12.9682H13.6344C14.7955 10.5203 16.8804 8.68759 19.3774 7.80888ZM13.085 14.3365H17.0178C16.7556 16.2822 16.7556 18.4163 17.0178 20.362H13.0975C12.4733 18.4288 12.4733 16.2697 13.085 14.3365ZM13.6219 21.7303H17.2425C17.6795 23.8894 18.4285 25.6468 19.3649 26.8771C16.8804 26.0109 14.7955 24.1656 13.6219 21.7303ZM18.6533 21.7303H21.9118C21.9742 22.0441 22.2364 22.2952 22.5735 22.2952H25.5699C25.5075 22.7722 25.8695 23.1864 26.3564 23.1362C24.209 29.7517 20.114 28.3207 18.6533 21.7303ZM26.0069 26.9022C26.731 25.9481 27.3427 24.6803 27.7922 23.1362H28.5912C28.9658 23.1362 29.2779 22.8224 29.2779 22.4458V21.7303H30.0769C30.1019 21.8935 30.027 24.0903 30.1269 24.1656C28.9907 25.4334 27.5799 26.3624 26.0069 26.9022ZM36.7438 15.868C36.7438 15.4914 36.4317 15.1776 36.0572 15.1776H33.1107C32.7362 15.1776 32.4241 15.4914 32.4241 15.868V18.8305C32.4241 19.2071 32.7362 19.5209 33.1107 19.5209C37.5054 19.4456 36.6689 20.2741 36.7438 15.868ZM33.7974 16.5458H35.383V18.1401H33.7974V16.5458ZM44.422 20.2616C44.4969 24.6803 43.6729 23.8392 48.0551 23.9145C48.4297 23.9145 48.7418 23.6007 48.7418 23.2241V20.2616C48.7418 19.885 48.4297 19.5711 48.0551 19.5711H45.1087C44.7217 19.5711 44.422 19.885 44.422 20.2616ZM45.7954 20.952H47.3809V22.5462H45.7954V20.952ZM35.2082 14.0101C38.3793 13.9976 37.9424 14.4244 37.9673 11.2359C37.9673 10.8593 37.6552 10.5455 37.2807 10.5455H35.2082C34.8336 10.5455 34.5215 10.8593 34.5215 11.2359V13.3197C34.534 13.7088 34.8336 14.0101 35.2082 14.0101ZM35.8949 11.9263H36.594V12.6293H35.8949V11.9263ZM29.6649 16.232H27.967C27.5924 16.232 27.2803 16.5458 27.2803 16.9224V18.6297C27.2803 19.0062 27.5924 19.3201 27.967 19.3201H29.6649C30.0395 19.3201 30.3516 19.0062 30.3516 18.6297V16.9224C30.3516 16.5333 30.0395 16.232 29.6649 16.232ZM28.9783 17.9392H28.6412V17.6003H28.9783V17.9392ZM35.2207 8.08505H36.9186C37.2932 8.08505 37.6053 7.77122 37.6053 7.39462V5.6874C37.6053 5.31081 37.2932 4.99698 36.9186 4.99698H35.2207C34.8461 4.99698 34.534 5.31081 34.534 5.6874V7.39462C34.534 7.77122 34.8336 8.08505 35.2207 8.08505ZM35.8949 6.37782H36.232V6.71676H35.8949V6.37782ZM45.7954 14.5122V10.922C45.7954 10.5455 45.4832 10.2316 45.1087 10.2316H41.5505C41.176 10.2316 40.8638 10.5455 40.8638 10.922V14.4997C40.8638 14.8763 41.176 15.1901 41.5505 15.1901H45.1087C45.4832 15.1901 45.7954 14.8888 45.7954 14.5122ZM44.422 13.8218H42.2247V11.6125H44.422V13.8218ZM40.8389 18.5167H38.3169C37.9424 18.5167 37.6303 18.8305 37.6303 19.2071C37.6802 23.0232 37.056 22.383 40.8389 22.4332C41.2134 22.4332 41.5255 22.1194 41.5255 21.7428V19.2071C41.513 18.818 41.2134 18.5167 40.8389 18.5167ZM40.1522 21.0524H38.9911V19.885H40.1522V21.0524ZM36.232 22.3454C32.7112 22.383 33.2606 21.8307 33.2231 25.3707C33.2231 25.7473 33.5352 26.0611 33.9098 26.0611H36.232C36.6065 26.0611 36.9186 25.7473 36.9186 25.3707V23.0358C36.9186 22.6467 36.619 22.3454 36.232 22.3454ZM35.5453 24.6803H34.584V23.7137H35.5453V24.6803Z" fill="#047BDC"></path></svg>