<svg xmlns="http://www.w3.org/2000/svg" id="Layer_1" data-name="Layer 1" viewBox="0 0 73 61"><defs><style>.cls-1{fill:none;stroke:#047bdc;stroke-miterlimit:10;stroke-width:2px;}</style></defs><path class="cls-1" d="M27.06,31v7.19H21.74a5.45,5.45,0,0,1-5.46-5.46V31"></path><path class="cls-1" d="M21.65,25.6h5.41a2.7,2.7,0,0,1,2.7,2.69h0a2.7,2.7,0,0,1-2.7,2.7H16.28V25.6h3.6"></path><path class="cls-1" d="M25.28,25.59h1.89a3.49,3.49,0,0,0,3.49-3.49V18.41H19.84A3.56,3.56,0,0,0,16.28,22v0h-.8a2.8,2.8,0,0,0-2.8,2.8v4.39"></path><path class="cls-1" d="M16.34,29.13H12.68V31a2.75,2.75,0,0,0,2.75,2.75h.91"></path><path class="cls-1" d="M16.34,34.59v7.19a7.66,7.66,0,0,0,7.13,0V38.37"></path><path class="cls-1" d="M16.34,41.78H12.75a5.46,5.46,0,0,0-5.46,5.45V61.67"></path><line class="cls-1" x1="32.45" y1="54.36" x2="32.45" y2="61.67"></line><path class="cls-1" d="M23.4,41.78H27a5.45,5.45,0,0,1,5.45,5.45v5.33"></path><line class="cls-1" x1="12.68" y1="50.76" x2="12.68" y2="61.67"></line><line class="cls-1" x1="12.68" y1="48.97" x2="12.68" y2="47.17"></line><path class="cls-1" d="M51.3,1.33A14.41,14.41,0,0,0,39.91,24.56l-4.78,5v.59H51.3a14.41,14.41,0,1,0,0-28.81Z"></path><circle class="cls-1" cx="51.34" cy="12.15" r="4.53"></circle><path class="cls-1" d="M44.12,29.82V23.9a7.22,7.22,0,1,1,14.44,0v3.67"></path><path class="cls-1" d="M24.59,18.41a9,9,0,1,0-11.42,4.81"></path><path class="cls-1" d="M58.56,39.17a4.4,4.4,0,0,0,4.4,4.4h0a4.4,4.4,0,0,0-4.4,4.4v0a4.4,4.4,0,0,0-4.4-4.4h0a4.4,4.4,0,0,0,4.4-4.4v0Z"></path><polygon class="cls-1" points="44.45 35.47 35.12 37.97 41.95 44.79 44.45 35.47"></polygon><circle class="cls-1" cx="48.63" cy="54.36" r="2.72"></circle><line class="cls-1" x1="47.76" y1="22" x2="47.76" y2="23.8"></line></svg>