<svg xmlns="http://www.w3.org/2000/svg" width="60" height="42" viewBox="0 0 60 42" fill="none"><path fill-rule="evenodd" clip-rule="evenodd" d="M19.6652 3.74992H12.036C7.463 3.74992 3.75057 7.46234 3.75057 12.0354V20.0696L0.523773 21.6577C0.0587826 21.8864 -0.130611 22.4489 0.0962592 22.9139C0.325004 23.3789 0.887489 23.5682 1.35248 23.3414L6.95862 20.5777L14.616 18.9015C15.0584 20.2383 15.1166 21.2958 14.8166 22.1695C14.4734 23.1689 13.671 23.8907 12.6154 24.532C10.9654 25.5313 8.72296 26.3001 6.30426 27.2525C6.16364 27.3069 6.03801 27.395 5.94052 27.5094L0.231268 34.0718C-0.1081 34.4618 -0.0668582 35.0542 0.323133 35.3936C0.713125 35.733 1.30562 35.6917 1.64498 35.3017L4.90368 31.5556C5.9424 33.3068 7.60735 34.6436 9.58919 35.2567C7.45736 37.2929 4.54742 38.6917 0.767498 39.3891C0.259384 39.4848 -0.0781107 39.9741 0.0156373 40.4823C0.11126 40.9904 0.600639 41.3279 1.10875 41.2341C5.88803 40.3491 9.39608 38.4179 11.8298 35.6224C11.8991 35.6242 11.9666 35.6242 12.036 35.6242H47.964C48.0334 35.6242 48.1008 35.6242 48.1702 35.6224C50.6039 38.4179 54.112 40.3491 58.8912 41.2341C59.3994 41.3279 59.8887 40.9904 59.9844 40.4823C60.0781 39.9741 59.7406 39.4848 59.2325 39.3891C55.4526 38.6917 52.5426 37.2929 50.4108 35.2567C52.3926 34.6436 54.0576 33.3068 55.0963 31.5556C56.6244 33.3143 58.355 35.3017 58.355 35.3017C58.6944 35.6917 59.2869 35.733 59.6769 35.3936C60.0669 35.0542 60.1081 34.4618 59.7687 34.0718L54.0595 27.5094C53.962 27.395 53.8364 27.3069 53.6957 27.2525C51.277 26.3001 49.0346 25.5313 47.3846 24.532C46.329 23.8907 45.5266 23.1689 45.1834 22.1695C44.8834 21.2958 44.9416 20.2383 45.384 18.9015L53.0414 20.5777L58.6475 23.3414C59.1125 23.5682 59.675 23.3789 59.9037 22.9139C60.1306 22.4489 59.9412 21.8864 59.4762 21.6577L56.2494 20.0696V12.0354C56.2494 7.46234 52.537 3.74992 47.964 3.74992H40.3348C40.3348 3.64867 40.3179 3.54742 40.2842 3.44805L39.7479 1.87496H49.9008C52.1864 2.11683 53.9114 3.66742 55.1901 5.39801C57.2469 8.18232 58.1582 11.4991 58.1582 11.4991C58.295 11.9979 58.8106 12.2904 59.3112 12.1535C59.81 12.0166 60.1025 11.501 59.9656 11.0004C59.9656 11.0004 58.9625 7.34984 56.6975 4.28428C55.1057 2.12808 52.8951 0.284994 50.0396 0.00374965C50.0096 0.00187469 49.9796 0 49.9496 0H38.4373C38.1355 0 37.8505 0.146247 37.6742 0.391867C37.498 0.637486 37.453 0.954354 37.5504 1.23935L38.4054 3.74992H21.5946L22.4496 1.23935C22.547 0.954354 22.502 0.637486 22.3258 0.391867C22.1495 0.146247 21.8645 0 21.5627 0H10.0504C10.0204 0 9.99042 0.00187469 9.96042 0.00374965C7.10486 0.284994 4.89429 2.12808 3.30245 4.28428C1.0375 7.34984 0.0344052 11.0004 0.0344052 11.0004C-0.102467 11.501 0.190025 12.0166 0.688764 12.1535C1.18938 12.2904 1.70497 11.9979 1.84185 11.4991C1.84185 11.4991 2.75309 8.18232 4.80992 5.39801C6.08677 3.6693 7.80797 2.12245 10.086 1.87683C10.0992 1.87496 20.2521 1.87496 20.2521 1.87496L19.7158 3.44805C19.6821 3.54742 19.6652 3.64867 19.6652 3.74992ZM48.7496 27.3069V30.9368C48.7496 31.4543 48.3296 31.8743 47.8121 31.8743H12.1879C11.6704 31.8743 11.2504 31.4543 11.2504 30.9368V27.3069C10.0204 27.8394 8.64608 28.3494 7.20423 28.9138L6.22175 30.0406C7.2436 32.2306 9.46358 33.7493 12.036 33.7493H47.964C50.5364 33.7493 52.7564 32.2306 53.7783 30.0406C53.1933 29.3712 52.7958 28.9119 52.7939 28.9119C51.3539 28.3494 49.9796 27.8394 48.7496 27.3069ZM46.8746 10.3123V9.3748H13.1254V10.3123H17.8128C18.3303 10.3123 18.7502 10.7323 18.7502 11.2498V12.1872H21.5627C22.0802 12.1872 22.5002 12.6072 22.5002 13.1247V16.3309L24.1726 15.9597C24.677 15.8472 25.1776 16.1659 25.2901 16.6721C25.4026 17.1765 25.0839 17.6771 24.5776 17.7896L16.7197 19.5352C16.7403 19.6365 16.759 19.7358 16.774 19.8333C17.104 19.7377 17.4528 19.6871 17.8128 19.6871C19.8827 19.6871 21.5627 21.367 21.5627 23.437C21.5627 25.507 19.8827 27.1869 17.8128 27.1869C16.4684 27.1869 15.2891 26.4782 14.6272 25.4151C14.3103 25.6682 13.9616 25.9082 13.5866 26.1351C13.4366 26.2251 13.2829 26.3151 13.1254 26.4013V29.9994H46.8746V26.4013C46.7171 26.3151 46.5634 26.2251 46.4134 26.1351C46.0384 25.9082 45.6897 25.6682 45.3728 25.4151C44.7109 26.4782 43.5316 27.1869 42.1872 27.1869C40.1173 27.1869 38.4373 25.507 38.4373 23.437C38.4373 21.367 40.1173 19.6871 42.1872 19.6871C42.5472 19.6871 42.896 19.7377 43.226 19.8333C43.241 19.7358 43.2597 19.6365 43.2803 19.5352L35.4224 17.7896C34.9161 17.6771 34.5974 17.1765 34.7099 16.6721C34.8224 16.1659 35.323 15.8472 35.8274 15.9597L37.4998 16.3309V13.1247C37.4998 12.6072 37.9198 12.1872 38.4373 12.1872H41.2498V11.2498C41.2498 10.7323 41.6697 10.3123 42.1872 10.3123H46.8746ZM25.367 22.1826C25.3482 22.2389 25.3332 22.297 25.3238 22.3589C25.3145 22.4114 25.3107 22.4639 25.3126 22.5183V25.312C25.3126 25.8294 25.7326 26.2494 26.2501 26.2494V27.1869C26.2501 27.7044 26.6701 28.1244 27.1876 28.1244C27.705 28.1244 28.125 27.7044 28.125 27.1869V26.2494H31.875V27.1869C31.875 27.7044 32.295 28.1244 32.8124 28.1244C33.3299 28.1244 33.7499 27.7044 33.7499 27.1869V26.2494C34.2674 26.2494 34.6874 25.8294 34.6874 25.312V22.5183C34.6893 22.4658 34.6855 22.4114 34.6762 22.3589C34.6668 22.297 34.6518 22.2389 34.633 22.1826L33.7012 19.3908C33.5737 19.0083 33.2156 18.7496 32.8124 18.7496H27.1876C26.7844 18.7496 26.4263 19.0083 26.2988 19.3908L25.367 22.1826ZM16.0015 23.9601C16.0184 23.992 16.0316 24.0257 16.0447 24.0614C16.3016 24.7888 16.9972 25.312 17.8128 25.312C18.8477 25.312 19.6877 24.472 19.6877 23.437C19.6877 22.402 18.8477 21.562 17.8128 21.562C17.4453 21.562 17.1021 21.667 16.8134 21.8508C16.7665 22.177 16.6897 22.4864 16.5903 22.7789C16.4441 23.2008 16.2472 23.5926 16.0015 23.9601ZM43.1866 21.8508C42.8979 21.667 42.5547 21.562 42.1872 21.562C41.1523 21.562 40.3123 22.402 40.3123 23.437C40.3123 24.472 41.1523 25.312 42.1872 25.312C43.0028 25.312 43.6984 24.7888 43.9553 24.0614C43.9684 24.0257 43.9816 23.992 43.9985 23.9601C43.7528 23.5926 43.5559 23.2008 43.4097 22.7789C43.3103 22.4864 43.2335 22.177 43.1866 21.8508ZM27.1876 23.437H32.8124V24.3745H27.1876V23.437ZM32.4487 21.562L32.1375 20.6246H27.8625L27.5513 21.562H32.4487ZM54.3745 19.1452V12.0354C54.3745 8.49732 51.502 5.62488 47.964 5.62488H12.036C8.49797 5.62488 5.62552 8.49732 5.62552 12.0354V19.1452L6.23302 18.8452C6.30052 18.8133 6.37364 18.7871 6.44676 18.7721L11.2504 17.7202V8.43732C11.2504 7.91983 11.6704 7.49984 12.1879 7.49984H47.8121C48.3296 7.49984 48.7496 7.91983 48.7496 8.43732V17.7202L53.5532 18.7721C53.6264 18.7871 53.6995 18.8133 53.767 18.8452L54.3745 19.1452ZM43.1247 17.5815L43.8128 17.7334C43.8466 17.6434 43.8822 17.5515 43.9197 17.4596C44.0922 17.0359 44.5441 16.7978 44.9903 16.8971L46.8746 17.3096V12.1872H43.1247V17.5815ZM13.1254 12.1872V17.3096L15.0097 16.8971C15.4559 16.7978 15.9078 17.0359 16.0803 17.4596C16.1178 17.5515 16.1534 17.6434 16.1872 17.7334L16.8753 17.5815V12.1872H13.1254ZM18.7502 14.0622V17.1634L20.6252 16.7471V14.0622H18.7502ZM41.2498 14.0622H39.3748V16.7471L41.2498 17.1634V14.0622ZM9.37544 14.0622V13.1247C9.37544 12.6072 8.95545 12.1872 8.43796 12.1872C7.92047 12.1872 7.50048 12.6072 7.50048 13.1247V14.0622C7.50048 14.5797 7.92047 14.9997 8.43796 14.9997C8.95545 14.9997 9.37544 14.5797 9.37544 14.0622Z" fill="#048DEF"></path></svg>