<svg xmlns="http://www.w3.org/2000/svg" width="36" height="62" viewBox="0 0 36 62" fill="none"><path d="M5 62H31C32.3256 61.9984 33.5964 61.4711 34.5338 60.5338C35.4711 59.5964 35.9984 58.3256 36 57V5C35.9984 3.6744 35.4711 2.40356 34.5338 1.46622C33.5964 0.528882 32.3256 0.00158786 31 0H5C3.6744 0.00158786 2.40356 0.528882 1.46622 1.46622C0.528882 2.40356 0.00158786 3.6744 0 5V57C0.00158786 58.3256 0.528882 59.5964 1.46622 60.5338C2.40356 61.4711 3.6744 61.9984 5 62ZM13 2H23V3C23 3.26522 22.8946 3.51957 22.7071 3.70711C22.5196 3.89464 22.2652 4 22 4H14C13.7348 4 13.4804 3.89464 13.2929 3.70711C13.1054 3.51957 13 3.26522 13 3V2ZM2 5C2 4.20435 2.31607 3.44129 2.87868 2.87868C3.44129 2.31607 4.20435 2 5 2H11V3C11 3.79565 11.3161 4.55871 11.8787 5.12132C12.4413 5.68393 13.2044 6 14 6H22C22.7956 6 23.5587 5.68393 24.1213 5.12132C24.6839 4.55871 25 3.79565 25 3V2H31C31.7956 2 32.5587 2.31607 33.1213 2.87868C33.6839 3.44129 34 4.20435 34 5V57C34 57.7956 33.6839 58.5587 33.1213 59.1213C32.5587 59.6839 31.7956 60 31 60H5C4.20435 60 3.44129 59.6839 2.87868 59.1213C2.31607 58.5587 2 57.7956 2 57V5Z" fill="#047BDC"></path><path d="M14 56H22V58H14V56Z" fill="#047BDC"></path><path d="M5 16.0001H11C11.2652 16.0001 11.5196 15.8948 11.7071 15.7072C11.8946 15.5197 12 15.2653 12 15.0001V9.00012C12 8.73491 11.8946 8.48055 11.7071 8.29302C11.5196 8.10548 11.2652 8.00012 11 8.00012H5C4.73478 8.00012 4.48043 8.10548 4.29289 8.29302C4.10536 8.48055 4 8.73491 4 9.00012V15.0001C4 15.2653 4.10536 15.5197 4.29289 15.7072C4.48043 15.8948 4.73478 16.0001 5 16.0001ZM6 10.0001H10V14.0001H6V10.0001Z" fill="#047BDC"></path><path d="M15 16.0001H21C21.2652 16.0001 21.5196 15.8948 21.7071 15.7072C21.8946 15.5197 22 15.2653 22 15.0001V9.00012C22 8.73491 21.8946 8.48055 21.7071 8.29302C21.5196 8.10548 21.2652 8.00012 21 8.00012H15C14.7348 8.00012 14.4804 8.10548 14.2929 8.29302C14.1054 8.48055 14 8.73491 14 9.00012V15.0001C14 15.2653 14.1054 15.5197 14.2929 15.7072C14.4804 15.8948 14.7348 16.0001 15 16.0001ZM16 10.0001H20V14.0001H16V10.0001Z" fill="#047BDC"></path><path d="M25.0039 16.0001H31.0039C31.2691 16.0001 31.5235 15.8948 31.711 15.7072C31.8986 15.5197 32.0039 15.2653 32.0039 15.0001V9.00012C32.0039 8.73491 31.8986 8.48055 31.711 8.29302C31.5235 8.10548 31.2691 8.00012 31.0039 8.00012H25.0039C24.7387 8.00012 24.4843 8.10548 24.2968 8.29302C24.1093 8.48055 24.0039 8.73491 24.0039 9.00012V15.0001C24.0039 15.2653 24.1093 15.5197 24.2968 15.7072C24.4843 15.8948 24.7387 16.0001 25.0039 16.0001ZM26.0039 10.0001H30.0039V14.0001H26.0039V10.0001Z" fill="#047BDC"></path><path d="M5 26H11C11.2652 26 11.5196 25.8946 11.7071 25.7071C11.8946 25.5196 12 25.2652 12 25V19C12 18.7348 11.8946 18.4804 11.7071 18.2929C11.5196 18.1054 11.2652 18 11 18H5C4.73478 18 4.48043 18.1054 4.29289 18.2929C4.10536 18.4804 4 18.7348 4 19V25C4 25.2652 4.10536 25.5196 4.29289 25.7071C4.48043 25.8946 4.73478 26 5 26ZM6 20H10V24H6V20Z" fill="#047BDC"></path><path d="M15 26H21C21.2652 26 21.5196 25.8946 21.7071 25.7071C21.8946 25.5196 22 25.2652 22 25V19C22 18.7348 21.8946 18.4804 21.7071 18.2929C21.5196 18.1054 21.2652 18 21 18H15C14.7348 18 14.4804 18.1054 14.2929 18.2929C14.1054 18.4804 14 18.7348 14 19V25C14 25.2652 14.1054 25.5196 14.2929 25.7071C14.4804 25.8946 14.7348 26 15 26ZM16 20H20V24H16V20Z" fill="#047BDC"></path><path d="M25.0039 26H31.0039C31.2691 26 31.5235 25.8946 31.711 25.7071C31.8986 25.5196 32.0039 25.2652 32.0039 25V19C32.0039 18.7348 31.8986 18.4804 31.711 18.2929C31.5235 18.1054 31.2691 18 31.0039 18H25.0039C24.7387 18 24.4843 18.1054 24.2968 18.2929C24.1093 18.4804 24.0039 18.7348 24.0039 19V25C24.0039 25.2652 24.1093 25.5196 24.2968 25.7071C24.4843 25.8946 24.7387 26 25.0039 26ZM26.0039 20H30.0039V24H26.0039V20Z" fill="#047BDC"></path><path d="M5 35.9999H11C11.2652 35.9999 11.5196 35.8945 11.7071 35.707C11.8946 35.5194 12 35.2651 12 34.9999V28.9999C12 28.7347 11.8946 28.4803 11.7071 28.2928C11.5196 28.1052 11.2652 27.9999 11 27.9999H5C4.73478 27.9999 4.48043 28.1052 4.29289 28.2928C4.10536 28.4803 4 28.7347 4 28.9999V34.9999C4 35.2651 4.10536 35.5194 4.29289 35.707C4.48043 35.8945 4.73478 35.9999 5 35.9999ZM6 29.9999H10V33.9999H6V29.9999Z" fill="#047BDC"></path><path d="M15 35.9999H21C21.2652 35.9999 21.5196 35.8945 21.7071 35.707C21.8946 35.5194 22 35.2651 22 34.9999V28.9999C22 28.7347 21.8946 28.4803 21.7071 28.2928C21.5196 28.1052 21.2652 27.9999 21 27.9999H15C14.7348 27.9999 14.4804 28.1052 14.2929 28.2928C14.1054 28.4803 14 28.7347 14 28.9999V34.9999C14 35.2651 14.1054 35.5194 14.2929 35.707C14.4804 35.8945 14.7348 35.9999 15 35.9999ZM16 29.9999H20V33.9999H16V29.9999Z" fill="#047BDC"></path><path d="M25.0039 35.9999H31.0039C31.2691 35.9999 31.5235 35.8945 31.711 35.707C31.8986 35.5194 32.0039 35.2651 32.0039 34.9999V28.9999C32.0039 28.7347 31.8986 28.4803 31.711 28.2928C31.5235 28.1052 31.2691 27.9999 31.0039 27.9999H25.0039C24.7387 27.9999 24.4843 28.1052 24.2968 28.2928C24.1093 28.4803 24.0039 28.7347 24.0039 28.9999V34.9999C24.0039 35.2651 24.1093 35.5194 24.2968 35.707C24.4843 35.8945 24.7387 35.9999 25.0039 35.9999ZM26.0039 29.9999H30.0039V33.9999H26.0039V29.9999Z" fill="#047BDC"></path><path d="M5 54.0001H11C11.2652 54.0001 11.5196 53.8948 11.7071 53.7072C11.8946 53.5197 12 53.2653 12 53.0001V47.0001C12 46.7349 11.8946 46.4806 11.7071 46.293C11.5196 46.1055 11.2652 46.0001 11 46.0001H5C4.73478 46.0001 4.48043 46.1055 4.29289 46.293C4.10536 46.4806 4 46.7349 4 47.0001V53.0001C4 53.2653 4.10536 53.5197 4.29289 53.7072C4.48043 53.8948 4.73478 54.0001 5 54.0001ZM6 48.0001H10V52.0001H6V48.0001Z" fill="#047BDC"></path><path d="M21 46.0001H15C14.7348 46.0001 14.4804 46.1055 14.2929 46.293C14.1054 46.4806 14 46.7349 14 47.0001V53.0001C14 53.2653 14.1054 53.5197 14.2929 53.7072C14.4804 53.8948 14.7348 54.0001 15 54.0001H21C21.2652 54.0001 21.5196 53.8948 21.7071 53.7072C21.8946 53.5197 22 53.2653 22 53.0001V47.0001C22 46.7349 21.8946 46.4806 21.7071 46.293C21.5196 46.1055 21.2652 46.0001 21 46.0001ZM20 52.0001H16V48.0001H20V52.0001Z" fill="#047BDC"></path><path d="M31.0039 46.0001H25.0039C24.7387 46.0001 24.4843 46.1055 24.2968 46.293C24.1093 46.4806 24.0039 46.7349 24.0039 47.0001V53.0001C24.0039 53.2653 24.1093 53.5197 24.2968 53.7072C24.4843 53.8948 24.7387 54.0001 25.0039 54.0001H31.0039C31.2691 54.0001 31.5235 53.8948 31.711 53.7072C31.8986 53.5197 32.0039 53.2653 32.0039 53.0001V47.0001C32.0039 46.7349 31.8986 46.4806 31.711 46.293C31.5235 46.1055 31.2691 46.0001 31.0039 46.0001ZM30.0039 52.0001H26.0039V48.0001H30.0039V52.0001Z" fill="#047BDC"></path><path d="M4 42H32V44H4V42Z" fill="#047BDC"></path></svg>