<svg xmlns="http://www.w3.org/2000/svg" width="51" height="63" viewBox="0 0 51 63" fill="none"><path d="M47.6801 0H33.4767C31.7987 0 30.4331 1.34605 30.4331 3.0001V5.00017C28.1951 5.00017 26.375 6.79423 26.375 9.0003C26.375 11.2064 28.1951 13.0004 30.4331 13.0004V18.0006H38.5493V16.0005C38.5493 14.8975 39.4594 14.0005 40.5784 14.0005C41.6974 14.0005 42.6074 14.8975 42.6074 16.0005V18.0006H47.6801C49.3581 18.0006 50.7236 16.6546 50.7236 15.0005V3.0001C50.7236 1.34605 49.3581 0 47.6801 0ZM48.6946 15.0005C48.6946 15.5515 48.2401 16.0005 47.6801 16.0005H44.6365C44.6365 13.7945 42.8164 12.0004 40.5784 12.0004C38.3403 12.0004 36.5203 13.7945 36.5203 16.0005H32.4622V11.0004H30.4331C29.3141 11.0004 28.4041 10.1033 28.4041 9.0003C28.4041 7.89726 29.3141 7.00023 30.4331 7.00023H32.4622V3.0001C32.4622 2.44908 32.9167 2.00007 33.4767 2.00007H47.6801C48.2401 2.00007 48.6946 2.44908 48.6946 3.0001V15.0005Z" fill="#0458B9"></path><path d="M30.4358 20.0006C28.1978 20.0006 26.3777 21.7947 26.3777 24.0007H22.3196V19.0006H20.2905C19.1715 19.0006 18.2615 18.1035 18.2615 17.0005C18.2615 15.8975 19.1715 15.0004 20.2905 15.0004H22.3196V6.00012H19.5996C8.7929 6.00012 0 14.6674 0 25.3198C0 31.138 2.62052 36.5881 7.18894 40.2723L11.1598 43.4754V46.1865C9.98193 46.6005 9.13074 47.7005 9.13074 49.0026C9.13074 50.3856 10.0895 51.5416 11.383 51.8867C11.242 52.2317 11.1598 52.6067 11.1598 53.0017C11.1598 54.3237 12.0374 55.4358 13.2436 55.8348C13.6636 59.3029 16.6616 62.002 20.2905 62.002C23.9195 62.002 26.9174 59.3029 27.3374 55.8348C28.5437 55.4358 29.4213 54.3237 29.4213 53.0017C29.4213 52.6067 29.3391 52.2317 29.1981 51.8857C30.4916 51.5396 31.4503 50.3846 31.4503 49.0016C31.4503 47.6995 30.5991 46.5995 29.4213 46.1855V43.4744L33.3921 40.2713C37.9605 36.5881 40.5811 31.138 40.5811 25.3198V24.0007H34.4939C34.4939 21.7947 32.6738 20.0006 30.4358 20.0006ZM19.5996 8.00019H20.2905V13.0004C18.0525 13.0004 16.2324 14.7944 16.2324 17.0005C16.2324 19.2066 18.0525 21.0006 20.2905 21.0006V24.0007H16.2324C16.2324 21.7947 14.4124 20.0006 12.1743 20.0006C9.93627 20.0006 8.11621 21.7947 8.11621 24.0007H2.07978C2.7656 15.0644 10.3614 8.00019 19.5996 8.00019ZM8.47333 38.7242C4.55624 35.5651 2.23703 30.959 2.04326 26.0008H10.1453V24.0007C10.1453 22.8977 11.0553 22.0007 12.1743 22.0007C13.2933 22.0007 14.2034 22.8977 14.2034 24.0007V26.0008H20.2905V30.0009C18.0525 30.0009 16.2324 31.795 16.2324 34.0011C16.2324 36.2071 18.0525 38.0012 20.2905 38.0012V46.0015H13.1888V42.5273L8.47333 38.7242ZM20.2905 60.0019C17.8415 60.0019 15.7921 58.2809 15.3204 56.0018H25.2607C24.7889 58.2809 22.7396 60.0019 20.2905 60.0019ZM26.3777 54.0017H14.2034C13.6434 54.0017 13.1888 53.5527 13.1888 53.0017C13.1888 52.4507 13.6434 52.0017 14.2034 52.0017H26.3777C26.9377 52.0017 27.3922 52.4507 27.3922 53.0017C27.3922 53.5527 26.9377 54.0017 26.3777 54.0017ZM28.4067 50.0016H26.3777H14.2034H12.1743C11.6143 50.0016 11.1598 49.5526 11.1598 49.0016C11.1598 48.4505 11.6143 48.0015 12.1743 48.0015H28.4067C28.9668 48.0015 29.4213 48.4505 29.4213 49.0016C29.4213 49.5526 28.9668 50.0016 28.4067 50.0016ZM32.1077 38.7242L27.3922 42.5273V46.0015H22.3196V36.0011H20.2905C19.1715 36.0011 18.2615 35.1041 18.2615 34.0011C18.2615 32.898 19.1715 32.001 20.2905 32.001H22.3196V26.0008H28.4067V24.0007C28.4067 22.8977 29.3168 22.0007 30.4358 22.0007C31.5548 22.0007 32.4649 22.8977 32.4649 24.0007V26.0008H38.5378C38.344 30.959 36.0248 35.5651 32.1077 38.7242Z" fill="#0458B9"></path></svg>