<svg xmlns="http://www.w3.org/2000/svg" width="45" height="47" viewBox="0 0 45 47" fill="none"><path d="M19.7852 4.38538V4.34143C19.7852 2.88508 20.9393 1.70471 22.3633 1.70471H41.2695C42.6935 1.70471 43.8477 2.88508 43.8477 4.34143V42.7496C43.8477 44.206 42.6935 45.3864 41.2695 45.3864H39.4013" stroke="#047BDC" stroke-width="1.7" stroke-miterlimit="10"></path><path d="M19.7852 21.2753V42.7496C19.7852 44.2059 20.9393 45.3863 22.3633 45.3863H38.1122" stroke="#047BDC" stroke-width="1.7" stroke-miterlimit="10"></path><path d="M6.80078 4.38538H20.7106C22.2833 4.38538 23.5586 5.71956 23.5586 7.36575V18.2949C23.5586 19.9411 22.2833 21.2753 20.7106 21.2753H15.7537V25.2497L9.59461 21.2753H4.06281C2.49016 21.2753 1.21484 19.9411 1.21484 18.2949V7.36575C1.21484 5.71956 2.49016 4.38538 4.06281 4.38538H5.51172" stroke="#047BDC" stroke-width="1.7" stroke-miterlimit="10"></path><path d="M19.7852 38.5973H43.8867" stroke="#047BDC" stroke-width="1.7" stroke-miterlimit="10"></path><path d="M23.5664 6.95667H43.8867" stroke="#047BDC" stroke-width="1.7" stroke-miterlimit="10"></path><path d="M27.9688 41.9918H35.7031" stroke="#047BDC" stroke-width="1.7" stroke-miterlimit="10"></path><path d="M27.9688 4.33069H35.7031" stroke="#047BDC" stroke-width="1.7" stroke-miterlimit="10"></path><path d="M26.7718 31.3951C24.6105 31.7432 22.957 33.6574 22.957 35.9663V38.5969H26.0731H37.5595H40.6756V35.9663C40.6756 33.6574 39.0222 31.7432 36.8609 31.3951" stroke="#047BDC" stroke-width="1.7" stroke-miterlimit="10"></path><path d="M35.7437 29.9186H27.8903C26.7731 30.9901 26.0742 32.5123 26.0742 34.2024V38.5973H37.5598V34.2023C37.5599 32.5123 36.8609 30.9901 35.7437 29.9186Z" stroke="#047BDC" stroke-width="1.7" stroke-miterlimit="10"></path><path d="M35.2539 29.9186H28.3789C26.955 29.9186 25.8008 28.7381 25.8008 27.2819V22.0889C25.8008 20.6326 26.955 19.4521 28.3789 19.4521H35.2539C36.6778 19.4521 37.832 20.6326 37.832 22.0889V27.2819C37.832 28.7381 36.6778 29.9186 35.2539 29.9186Z" stroke="#047BDC" stroke-width="1.7" stroke-miterlimit="10"></path><path d="M25.8008 27.2818H25.7615C24.3594 27.2818 23.2227 26.1193 23.2227 24.6853C23.2227 23.2513 24.3594 22.0887 25.7615 22.0887H25.8008" stroke="#047BDC" stroke-width="1.7" stroke-miterlimit="10"></path><path d="M37.832 22.0889H37.8713C39.2735 22.0889 40.4102 23.2514 40.4102 24.6854C40.4102 26.1194 39.2735 27.282 37.8713 27.282H37.832" stroke="#047BDC" stroke-width="1.7" stroke-miterlimit="10"></path><path d="M28.6367 22.3998V26.7943" stroke="#047BDC" stroke-width="1.7" stroke-miterlimit="10"></path><path d="M34.9961 22.3998V26.7943" stroke="#047BDC" stroke-width="1.7" stroke-miterlimit="10"></path><path d="M31.8164 19.4522V15.1772" stroke="#047BDC" stroke-width="1.7" stroke-miterlimit="10"></path><path d="M31.8164 15.1229C32.5283 15.1229 33.1055 14.5327 33.1055 13.8046C33.1055 13.0765 32.5283 12.4862 31.8164 12.4862C31.1045 12.4862 30.5273 13.0765 30.5273 13.8046C30.5273 14.5327 31.1045 15.1229 31.8164 15.1229Z" stroke="#047BDC" stroke-width="1.7" stroke-miterlimit="10"></path><path d="M10.668 8.66528H19.2617" stroke="#047BDC" stroke-width="1.7" stroke-miterlimit="10"></path><path d="M19.2616 11.3024H9.71484" stroke="#047BDC" stroke-width="1.7" stroke-miterlimit="10"></path><path d="M8.42586 11.3024H5.51172" stroke="#047BDC" stroke-width="1.7" stroke-miterlimit="10"></path><path d="M10.668 16.5754H5.51172" stroke="#047BDC" stroke-width="1.7" stroke-miterlimit="10"></path><path d="M19.2634 13.9391H15.1797" stroke="#047BDC" stroke-width="1.7" stroke-miterlimit="10"></path><path d="M13.8889 13.9391H5.51172" stroke="#047BDC" stroke-width="1.7" stroke-miterlimit="10"></path><path d="M35.4688 13.8046H36.7578" stroke="#047BDC" stroke-width="1.7" stroke-miterlimit="10"></path><path d="M26.875 13.8046H28.1641" stroke="#047BDC" stroke-width="1.7" stroke-miterlimit="10"></path></svg>