<svg xmlns="http://www.w3.org/2000/svg" width="64" height="63" viewBox="0 0 64 63" fill="none"><path d="M52.6599 43.4063H57.3428C57.8711 43.4063 58.2996 42.9779 58.2996 42.4495C58.2996 41.9211 57.8711 41.4927 57.3428 41.4927H52.6599C52.1316 41.4927 51.7031 41.9211 51.7031 42.4495C51.7031 42.9779 52.1316 43.4063 52.6599 43.4063Z" fill="#047BDC"></path><path d="M52.6599 47.4649H57.3428C57.8711 47.4649 58.2996 47.0365 58.2996 46.5081C58.2996 45.9797 57.8711 45.5513 57.3428 45.5513H52.6599C52.1316 45.5513 51.7031 45.9797 51.7031 46.5081C51.7031 47.0365 52.1316 47.4649 52.6599 47.4649Z" fill="#047BDC"></path><path d="M54.7359 53.0789C53.0896 53.0789 51.75 54.4183 51.75 56.0652C51.75 57.7116 53.0895 59.0511 54.7359 59.0511C56.3828 59.0511 57.7223 57.7117 57.7223 56.0652C57.7223 54.4183 56.3828 53.0789 54.7359 53.0789ZM54.7359 57.1375C54.1449 57.1375 53.6637 56.6563 53.6637 56.0653C53.6637 55.4738 54.1449 54.9926 54.7359 54.9926C55.3274 54.9926 55.8086 55.4738 55.8086 56.0653C55.8086 56.6563 55.3274 57.1375 54.7359 57.1375Z" fill="#047BDC"></path><path d="M63.5194 20.8575V9.66599C63.5194 8.51343 62.5817 7.57572 61.4291 7.57572H44.8858C43.7333 7.57572 42.7956 8.51343 42.7956 9.66599V20.8575C42.7956 22.0096 43.7333 22.9472 44.8858 22.9472H45.5714L38.6341 26.9507C39.0988 23.1848 36.1995 19.5809 32.1423 19.54V11.1802H36.505C37.8758 11.1802 38.9911 10.065 38.9911 8.69421V2.48602C38.9911 1.11525 37.8758 0 36.505 0H25.6332C24.2624 0 23.1472 1.11525 23.1472 2.48602V8.69421C23.1472 10.065 24.2624 11.1802 25.6332 11.1802H30.2286V19.8147C28.1027 20.4338 26.3996 22.078 25.7546 24.2232C24.2292 23.9026 22.5799 24.3896 21.4471 25.6185L14.8186 21.7957C14.9952 21.4773 15.1046 21.1167 15.1046 20.7275V13.1536C15.1046 12.1005 14.366 11.2207 13.3807 10.9942V9.01414C13.3807 6.27122 11.1493 4.03984 8.40637 4.03984C5.66345 4.03984 3.43208 6.27122 3.43208 9.01414V10.9944C2.447 11.2211 1.7082 12.1007 1.7082 13.1537V20.7276C1.7082 21.9516 2.7043 22.9472 3.92835 22.9472H12.8852C12.9161 22.9472 12.945 22.9395 12.9756 22.9381C12.9801 22.9407 12.9824 22.9455 12.987 22.9481L20.4783 27.2686C20.4555 27.3369 20.4226 27.4004 20.4029 27.4702C18.0893 27.6346 15.6178 29.8627 15.6178 32.807C15.6178 35.2739 17.3112 37.3473 19.595 37.941L12.9865 41.7568C12.9491 41.7783 12.9266 41.8134 12.8933 41.839H9.36653V40.3523C10.7443 39.9371 11.7572 38.6712 11.7572 37.16C11.7572 35.3136 10.2547 33.8111 8.40834 33.8111C6.56197 33.8111 5.05945 35.3136 5.05945 37.16C5.05945 38.6723 6.07377 39.9388 7.45291 40.3532V41.839H3.84889C3.58421 41.839 3.34473 41.9467 3.17153 42.1204C2.99714 42.2939 2.88883 42.5335 2.88883 42.7987V45.3045C1.51205 45.7204 0.5 46.9859 0.5 48.4964C0.5 50.3428 2.00252 51.8453 3.84889 51.8453C5.69526 51.8453 7.19778 50.3428 7.19778 48.4964C7.19778 46.9835 6.18258 45.7163 4.80245 45.3026V43.7529H8.39584C8.40076 43.753 8.4048 43.7557 8.40972 43.7557C8.41465 43.7557 8.41878 43.7529 8.4237 43.7528H12.0077V45.3036C10.6293 45.7184 9.61566 46.9846 9.61566 48.4963C9.61566 50.3427 11.1182 51.8452 12.9645 51.8452C14.8109 51.8452 16.3134 50.3427 16.3134 48.4963C16.3134 46.9846 15.2998 45.7183 13.9214 45.3036V43.4236C13.9284 43.4198 13.9362 43.4187 13.9433 43.4146L23.1176 38.1174H30.2286V44.5186H22.5038C21.9754 44.5186 21.547 44.947 21.547 45.4754V57.4742C21.547 58.0026 21.9754 58.431 22.5038 58.431H30.2324V60.4881H27.2885C26.7601 60.4881 26.3317 60.9165 26.3317 61.4449C26.3317 61.9733 26.7601 62.4017 27.2885 62.4017H35.0899C35.6182 62.4017 36.0467 61.9733 36.0467 61.4449C36.0467 60.9165 35.6182 60.4881 35.0899 60.4881H32.146V58.431H39.8745C40.4029 58.431 40.8313 58.0026 40.8313 57.4742V45.4754C40.8313 44.947 40.4029 44.5186 39.8745 44.5186H32.1422V38.1174H38.3042C38.5853 38.1174 38.8592 38.089 39.1286 38.0467C42.2977 39.8721 48.142 43.2669 48.3487 43.3503V59.4438C48.3487 61.2846 49.8466 62.7825 51.6873 62.7825H57.7834C59.6241 62.7825 61.122 61.2846 61.122 59.4438V41.1542C61.122 39.3135 59.6241 37.8161 57.7834 37.8161H51.6873C49.8466 37.8161 48.3487 39.3135 48.3487 41.1542V41.1603L41.3734 37.1327C42.727 36.1693 43.6145 34.5914 43.6145 32.8071C43.6145 30.7016 42.3813 28.8843 40.6032 28.0241L49.1837 23.0724C49.2406 23.0394 49.2781 22.9892 49.3256 22.9471H61.4291C62.5817 22.9472 63.5194 22.0095 63.5194 20.8575ZM5.3459 9.01424C5.3459 7.32669 6.71903 5.95356 8.40657 5.95356C10.0941 5.95356 11.4672 7.32669 11.4672 9.01424V10.934H5.3459V9.01424ZM13.1911 20.7276C13.1911 20.8962 13.0538 21.0336 12.8851 21.0336H3.92835C3.75919 21.0336 3.62182 20.8962 3.62182 20.7276V13.1537C3.62182 12.7123 4.23055 12.876 4.38899 12.8477H12.424C12.5832 12.8761 13.1911 12.7127 13.1911 13.1537V20.7276ZM5.28416 48.4964C5.28416 49.2879 4.64037 49.9316 3.84889 49.9316C3.05741 49.9316 2.41362 49.2879 2.41362 48.4964C2.41362 47.7049 3.05741 47.0611 3.84889 47.0611C4.64037 47.0611 5.28416 47.7049 5.28416 48.4964ZM8.40834 38.5953C7.61686 38.5953 6.97308 37.9516 6.97308 37.1601C6.97308 36.3686 7.61686 35.7248 8.40834 35.7248C9.19983 35.7248 9.84361 36.3686 9.84361 37.1601C9.84361 37.9516 9.19983 38.5953 8.40834 38.5953ZM14.3998 48.4964C14.3998 49.2879 13.756 49.9316 12.9645 49.9316C12.1731 49.9316 11.5293 49.2879 11.5293 48.4964C11.5293 47.7049 12.1731 47.0611 12.9645 47.0611C13.756 47.0611 14.3998 47.7049 14.3998 48.4964ZM50.2625 41.1542C50.2625 40.3689 50.9016 39.7297 51.6875 39.7297H57.7835C58.5694 39.7297 59.2085 40.3689 59.2085 41.1542V59.4439C59.2085 60.2298 58.5693 60.8689 57.7835 60.8689H51.6875C50.9016 60.8689 50.2625 60.2297 50.2625 59.4439V41.1542ZM34.9781 1.91372L31.0692 4.62671L27.1603 1.91362L34.9781 1.91372ZM25.6333 9.26651C25.3179 9.26651 25.061 9.00951 25.061 8.69421V2.78585L30.5235 6.57735C30.6875 6.69138 30.8786 6.74839 31.0692 6.74839C31.2599 6.74839 31.4509 6.69138 31.6149 6.57735L37.0775 2.78585V8.69421C37.0775 9.00961 36.8205 9.26651 36.5052 9.26651H25.6333ZM38.9178 46.4322V56.5173H23.4608V46.4322H38.9178ZM41.7009 32.8071C41.7009 34.6802 40.1773 36.2037 38.3044 36.2037H20.928C19.055 36.2037 17.5315 34.6801 17.5315 32.8071C17.5315 30.7434 19.4236 29.3741 20.6749 29.3741C21.4702 29.3741 22.0955 29.3875 22.1512 28.535C22.2767 26.6105 24.3632 25.4714 26.0271 26.3363C26.6229 26.6457 27.3424 26.2603 27.4189 25.5953C27.6885 23.2317 29.6905 21.4493 32.0751 21.4493C35.5671 21.4493 37.7938 25.1514 36.2982 28.1832C36.1309 28.5214 36.1785 28.927 36.4197 29.2176C36.9409 29.8457 37.4624 29.405 38.3044 29.405C40.1774 29.405 41.7009 30.9313 41.7009 32.8071ZM48.4941 21.0336H44.8858C44.541 21.0336 44.7893 21.1313 44.7092 9.66609C44.7092 9.56891 44.7887 9.48944 44.8858 9.48944H48.4941V21.0336ZM61.6058 20.8575C61.6058 20.9546 61.5263 21.0336 61.4291 21.0336H50.4077V9.48944H61.4291C61.5263 9.48944 61.6058 9.56891 61.6058 9.66609V20.8575Z" fill="#047BDC"></path><path d="M46.5379 16.3247C47.1155 16.3247 47.5836 15.8565 47.5836 15.279C47.5836 14.7015 47.1155 14.2333 46.5379 14.2333C45.9604 14.2333 45.4922 14.7015 45.4922 15.279C45.4922 15.8565 45.9604 16.3247 46.5379 16.3247Z" fill="#047BDC"></path></svg>