<svg xmlns="http://www.w3.org/2000/svg" id="Layer_1" data-name="Layer 1" viewBox="0 0 73 61"><defs><style>.cls-1{fill:#047bdc;}</style></defs><path class="cls-1" d="M65.41,10.39l-6-9a1,1,0,0,0-.83-.45H14.44a1,1,0,0,0-.83.45l-6,9a1,1,0,0,0-.16.56v3a5,5,0,0,0,4,4.91V53.06a1,1,0,0,0,1,1H25.27L35,59.67a3,3,0,0,0,3,0l9.73-5.61H60.56a1,1,0,0,0,1-1V18.87a5,5,0,0,0,4-4.91V11A1,1,0,0,0,65.41,10.39ZM15,2.93H58l4.68,7H10.3Zm40.57,9v2a3,3,0,0,1-6,0V12Zm-8,0v2a3,3,0,0,1-6,0V12Zm-8,0v2a3,3,0,0,1-6,0V12Zm-8,0v2a3,3,0,0,1-6,0V12Zm-8,0v2a3,3,0,0,1-6,0V12Zm-14,2V12h6v2a3,3,0,0,1-6,0ZM37,57.94a1,1,0,0,1-1,0L22,49.83a1,1,0,0,1-.5-.87V33.09a1,1,0,0,1,.5-.87l14-8.1a1,1,0,0,1,1,0l14,8.1a1,1,0,0,1,.5.87V49a1,1,0,0,1-.5.87Zm14.2-5.89.84-.48A3,3,0,0,0,53.54,49V33.09A3,3,0,0,0,52,30.48l-14-8.1a3,3,0,0,0-3,0l-14,8.1a3,3,0,0,0-1.5,2.61V49A3,3,0,0,0,21,51.57l.84.49H13.44V18.86a5,5,0,0,0,3-1.93A5,5,0,0,0,23.39,18a4.81,4.81,0,0,0,1.08-1.08A5,5,0,0,0,31.41,18a4.81,4.81,0,0,0,1.08-1.08A5,5,0,0,0,39.43,18a4.81,4.81,0,0,0,1.08-1.08A5,5,0,0,0,47.45,18a4.81,4.81,0,0,0,1.08-1.08A5,5,0,0,0,55.47,18a4.81,4.81,0,0,0,1.08-1.08,5,5,0,0,0,3,1.93V52.05ZM63.57,14a3,3,0,0,1-6,0V12h6Z"></path><path class="cls-1" d="M41,29.94l-4-2.31a1,1,0,0,0-1,0l-1,.57a1,1,0,0,0-.51.87v24a1,1,0,0,0,2,0V42.53H40a1,1,0,0,0,0-2H36.5V29.65l3.51,2a1,1,0,0,0,1.37-.37h0A1,1,0,0,0,41,29.94Z"></path><path class="cls-1" d="M49,34.57l-5-2.89a1,1,0,1,0-1,1.73l1.5.87V49.05a1,1,0,0,0,2,0V35.44l1.5.87a1,1,0,1,0,1-1.73Z"></path><path class="cls-1" d="M31,31.5a1,1,0,0,0-1,1V45.34L25.9,35.14a1,1,0,0,0-1.93.37v13a1,1,0,0,0,2,0V40.72l4.09,10.2A1,1,0,0,0,32,50.55v-18A1,1,0,0,0,31,31.5Z"></path></svg>