<svg xmlns="http://www.w3.org/2000/svg" width="60" height="64" viewBox="0 0 60 64" fill="none"><path d="M25.6 27.7353V36.2649C25.6 36.5477 25.4876 36.8189 25.2877 37.0188C25.0877 37.2188 24.8165 37.3311 24.5337 37.3311C24.3477 37.33 24.1651 37.2802 24.0043 37.1867C23.8434 37.0932 23.7098 36.9592 23.6168 36.798L19.2027 30.9339V36.2649C19.2027 36.5477 19.0904 36.8189 18.8904 37.0188C18.6905 37.2188 18.4193 37.3311 18.1365 37.3311C17.8537 37.3311 17.5825 37.2188 17.3826 37.0188C17.1826 36.8189 17.0703 36.5477 17.0703 36.2649V27.7353C17.0703 27.4525 17.1826 27.1813 17.3826 26.9814C17.5825 26.7814 17.8537 26.6691 18.1365 26.6691C18.3226 26.6702 18.5051 26.72 18.666 26.8135C18.8268 26.907 18.9604 27.041 19.0535 27.2022L23.4675 33.0663V27.7353C23.4675 27.4525 23.5799 27.1813 23.7798 26.9814C23.9798 26.7814 24.251 26.6691 24.5337 26.6691C24.8165 26.6691 25.0877 26.7814 25.2877 26.9814C25.4876 27.1813 25.6 27.4525 25.6 27.7353Z" fill="#047BDC"></path><path d="M33.0576 28.8015C33.3404 28.8015 33.6116 28.6891 33.8115 28.4892C34.0115 28.2892 34.1238 28.018 34.1238 27.7353C34.1238 27.4525 34.0115 27.1813 33.8115 26.9814C33.6116 26.7814 33.3404 26.6691 33.0576 26.6691H28.7928C28.51 26.6691 28.2388 26.7814 28.0388 26.9814C27.8389 27.1813 27.7266 27.4525 27.7266 27.7353V36.2649C27.7266 36.5477 27.8389 36.8189 28.0388 37.0188C28.2388 37.2188 28.51 37.3311 28.7928 37.3311C29.0755 37.3311 29.3467 37.2188 29.5467 37.0188C29.7466 36.8189 29.859 36.5477 29.859 36.2649V33.0663H33.0576C33.3404 33.0663 33.6116 32.954 33.8115 32.754C34.0115 32.5541 34.1238 32.2829 34.1238 32.0001C34.1238 31.7173 34.0115 31.4461 33.8115 31.2462C33.6116 31.0462 33.3404 30.9339 33.0576 30.9339H29.859V28.8015H33.0576Z" fill="#047BDC"></path><path d="M39.4642 37.3311C39.747 37.3311 40.0182 37.2188 40.2182 37.0188C40.4181 36.8189 40.5304 36.5477 40.5304 36.2649V28.8015H41.5967C41.8794 28.8015 42.1506 28.6891 42.3506 28.4892C42.5505 28.2892 42.6629 28.018 42.6629 27.7353C42.6629 27.4525 42.5505 27.1813 42.3506 26.9814C42.1506 26.7814 41.8794 26.6691 41.5967 26.6691H37.3318C37.0491 26.6691 36.7779 26.7814 36.5779 26.9814C36.378 27.1813 36.2656 27.4525 36.2656 27.7353C36.2656 28.018 36.378 28.2892 36.5779 28.4892C36.7779 28.6891 37.0491 28.8015 37.3318 28.8015H38.398V36.2649C38.398 36.5477 38.5104 36.8189 38.7103 37.0188C38.9103 37.2188 39.1815 37.3311 39.4642 37.3311Z" fill="#047BDC"></path><path d="M55.4565 33.0662C54.5134 33.0693 53.5979 33.3849 52.8532 33.9636C52.1086 34.5424 51.5767 35.3516 51.341 36.2648H46.9269V27.7352H51.341C51.6005 28.7402 52.2176 29.6162 53.0767 30.1988C53.9359 30.7813 54.978 31.0306 56.0077 30.8998C57.0375 30.769 57.9842 30.2671 58.6704 29.4883C59.3566 28.7094 59.7352 27.707 59.7352 26.669C59.7352 25.6309 59.3566 24.6285 58.6704 23.8497C57.9842 23.0708 57.0375 22.5689 56.0077 22.4381C54.978 22.3073 53.9359 22.5566 53.0767 23.1392C52.2176 23.7218 51.6005 24.5977 51.341 25.6028H46.9269V24.6112C46.9223 23.6673 46.6672 22.7416 46.1876 21.9286C45.7081 21.1156 45.0213 20.4445 44.1974 19.9839L40.5296 17.9581V13.2454L42.6621 11.113C43.5707 11.6428 44.6415 11.8226 45.6734 11.6189C46.7052 11.4151 47.6273 10.8418 48.2664 10.0064C48.9055 9.17107 49.2177 8.13117 49.1445 7.08192C49.0713 6.03268 48.6176 5.04623 47.8687 4.30775C47.1197 3.56927 46.127 3.12954 45.0768 3.0711C44.0266 3.01266 42.9912 3.33952 42.165 3.99034C41.3387 4.64115 40.7784 5.57117 40.5892 6.60581C40.4 7.64045 40.5949 8.70858 41.1374 9.60969L38.7064 12.03C38.605 12.1321 38.5253 12.2537 38.4722 12.3875C38.4191 12.5213 38.3936 12.6644 38.3972 12.8083V16.7746L32.4158 13.4587C31.9509 13.2086 31.4515 13.0289 30.9338 12.9256V8.39421C31.9389 8.13471 32.8148 7.51755 33.3974 6.65843C33.98 5.7993 34.2292 4.75719 34.0984 3.72743C33.9676 2.69768 33.4658 1.75098 32.6869 1.06478C31.908 0.37858 30.9056 0 29.8676 0C28.8296 0 27.8272 0.37858 27.0483 1.06478C26.2694 1.75098 25.7676 2.69768 25.6368 3.72743C25.506 4.75719 25.7552 5.7993 26.3378 6.65843C26.9204 7.51755 27.7963 8.13471 28.8014 8.39421V12.9256C28.282 13.0284 27.782 13.2119 27.3194 13.4694L21.3379 16.7746V12.8083C21.3388 12.668 21.3119 12.5289 21.2588 12.399C21.2057 12.2691 21.1276 12.1509 21.0287 12.0513L18.5978 9.60969C19.132 8.7044 19.3176 7.63535 19.1198 6.60299C18.9221 5.57062 18.3545 4.64584 17.5237 4.00201C16.6928 3.35819 15.6556 3.03954 14.6066 3.1058C13.5575 3.17207 12.5687 3.6187 11.8254 4.36196C11.0821 5.10523 10.6355 6.09408 10.5692 7.14312C10.503 8.19216 10.8216 9.22935 11.4654 10.0602C12.1093 10.8911 13.0341 11.4586 14.0664 11.6564C15.0988 11.8541 16.1678 11.6685 17.0731 11.1344L19.2055 13.2668V17.9794L16.1562 19.6747C15.9102 19.8161 15.7304 20.0494 15.6564 20.3233C15.5824 20.5972 15.6203 20.8894 15.7617 21.1354C15.9031 21.3814 16.1364 21.5612 16.4103 21.6351C16.6843 21.7091 16.9764 21.6713 17.2224 21.5299L28.3856 15.3565C28.8537 15.1027 29.3777 14.9698 29.9102 14.9698C30.4427 14.9698 30.9668 15.1027 31.4349 15.3565L43.1632 21.871C43.651 22.1452 44.0584 22.5425 44.3446 23.0233C44.6309 23.5042 44.786 24.0517 44.7945 24.6112V39.3888C44.7908 39.9509 44.6391 40.5021 44.3545 40.9869C44.07 41.4717 43.6628 41.873 43.1738 42.1503L31.4456 48.6648C30.9775 48.9186 30.4534 49.0515 29.9209 49.0515C29.3884 49.0515 28.8643 48.9186 28.3962 48.6648L16.668 42.1503C16.1591 41.8869 15.7304 41.4916 15.4265 41.0059C15.1227 40.5201 14.9549 39.9616 14.9407 39.3888V24.6112C14.9355 24.4495 14.9535 24.288 14.994 24.1314C15.0562 23.8486 15.0036 23.5527 14.8476 23.3088C14.6916 23.0648 14.4452 22.8928 14.1624 22.8306C13.8796 22.7684 13.5837 22.8211 13.3398 22.9771C13.0958 23.133 12.9238 23.3795 12.8616 23.6623C12.7959 23.9743 12.7637 24.2924 12.7657 24.6112V25.6028H8.39421C8.13471 24.5977 7.51755 23.7218 6.65843 23.1392C5.7993 22.5566 4.75719 22.3073 3.72743 22.4381C2.69768 22.5689 1.75098 23.0708 1.06478 23.8497C0.37858 24.6285 0 25.6309 0 26.669C0 27.707 0.37858 28.7094 1.06478 29.4883C1.75098 30.2671 2.69768 30.769 3.72743 30.8998C4.75719 31.0306 5.7993 30.7813 6.65843 30.1988C7.51755 29.6162 8.13471 28.7402 8.39421 27.7352H12.8083V36.2648H8.39421C8.13471 35.2598 7.51755 34.3838 6.65843 33.8012C5.7993 33.2187 4.75719 32.9694 3.72743 33.1002C2.69768 33.231 1.75098 33.7329 1.06478 34.5117C0.37858 35.2906 0 36.293 0 37.331C0 38.3691 0.37858 39.3715 1.06478 40.1503C1.75098 40.9292 2.69768 41.4311 3.72743 41.5619C4.75719 41.6926 5.7993 41.4434 6.65843 40.8608C7.51755 40.2782 8.13471 39.4023 8.39421 38.3972H12.8083V39.3888C12.8129 40.3327 13.068 41.2584 13.5475 42.0714C14.0271 42.8844 14.7139 43.5555 15.5378 44.0161L19.2055 46.0419V50.7545L17.0731 52.887C16.1645 52.3572 15.0937 52.1774 14.0618 52.3811C13.0299 52.5849 12.1079 53.1582 11.4688 53.9936C10.8297 54.8289 10.5174 55.8688 10.5907 56.9181C10.6639 57.9673 11.1176 58.9538 11.8665 59.6922C12.6155 60.4307 13.6082 60.8704 14.6584 60.9289C15.7086 60.9873 16.744 60.6605 17.5702 60.0097C18.3965 59.3588 18.9568 58.4288 19.146 57.3942C19.3352 56.3595 19.1403 55.2914 18.5978 54.3903L21.0287 51.97C21.1302 51.8679 21.2098 51.7462 21.263 51.6125C21.3161 51.4787 21.3416 51.3356 21.3379 51.1917V47.2254L27.3194 50.5413C27.7842 50.7914 28.2837 50.9711 28.8014 51.0744V55.6058C27.7963 55.8653 26.9204 56.4824 26.3378 57.3416C25.7552 58.2007 25.506 59.2428 25.6368 60.2726C25.7676 61.3023 26.2694 62.249 27.0483 62.9352C27.8272 63.6214 28.8296 64 29.8676 64C30.9056 64 31.908 63.6214 32.6869 62.9352C33.4658 62.249 33.9676 61.3023 34.0984 60.2726C34.2292 59.2428 33.98 58.2007 33.3974 57.3416C32.8148 56.4824 31.9389 55.8653 30.9338 55.6058V51.0744C31.4531 50.9716 31.9532 50.7881 32.4158 50.5306L38.3972 47.2254V51.1917C38.3964 51.332 38.4233 51.4711 38.4764 51.601C38.5294 51.7309 38.6076 51.8491 38.7064 51.9487L41.1374 54.3903C40.6032 55.2956 40.4176 56.3646 40.6154 57.397C40.8131 58.4294 41.3806 59.3542 42.2115 59.998C43.0424 60.6418 44.0796 60.9605 45.1286 60.8942C46.1777 60.8279 47.1665 60.3813 47.9098 59.638C48.653 58.8948 49.0997 57.9059 49.1659 56.8569C49.2322 55.8078 48.9135 54.7706 48.2697 53.9398C47.6259 53.1089 46.7011 52.5414 45.6687 52.3436C44.6364 52.1459 43.5673 52.3315 42.6621 52.8656L40.5296 50.7332V46.0419L44.208 44.0055C45.0284 43.5444 45.712 42.8744 46.1896 42.0635C46.6671 41.2526 46.9215 40.3298 46.9269 39.3888V38.3972H51.341C51.5405 39.1701 51.953 39.8715 52.5315 40.4216C53.1099 40.9717 53.8312 41.3483 54.6131 41.5088C55.3951 41.6692 56.2064 41.607 56.9547 41.3292C57.7031 41.0513 58.3584 40.569 58.8462 39.9372C59.334 39.3053 59.6347 38.5492 59.714 37.7549C59.7934 36.9606 59.6482 36.16 59.2951 35.4441C58.9419 34.7282 58.3949 34.1259 57.7163 33.7055C57.0377 33.2851 56.2548 33.0636 55.4565 33.0662ZM55.4565 24.5366C55.8783 24.5366 56.2905 24.6616 56.6412 24.8959C56.9919 25.1302 57.2652 25.4633 57.4266 25.8529C57.588 26.2426 57.6302 26.6713 57.5479 27.085C57.4657 27.4986 57.2626 27.8786 56.9644 28.1768C56.6661 28.475 56.2862 28.6781 55.8725 28.7604C55.4589 28.8427 55.0301 28.8005 54.6405 28.6391C54.2508 28.4777 53.9178 28.2043 53.6835 27.8537C53.4492 27.503 53.3241 27.0907 53.3241 26.669C53.3241 26.1034 53.5488 25.561 53.9487 25.1611C54.3486 24.7612 54.891 24.5366 55.4565 24.5366ZM44.7945 5.34487C45.1447 5.34515 45.4895 5.43169 45.7983 5.59685C46.1072 5.762 46.3706 6.00069 46.5653 6.29182C46.76 6.58295 46.88 6.91755 46.9147 7.26606C46.9494 7.61457 46.8977 7.96627 46.7642 8.29006C46.6307 8.61386 46.4195 8.89979 46.1493 9.12259C45.879 9.34539 45.5581 9.49819 45.2148 9.56751C44.8715 9.63682 44.5164 9.62051 44.1809 9.52001C43.8454 9.41952 43.5398 9.23793 43.2911 8.99129C42.991 8.69367 42.7862 8.31358 42.7025 7.8993C42.6189 7.48502 42.6602 7.05523 42.8213 6.66449C42.9824 6.27376 43.256 5.93971 43.6073 5.70475C43.9586 5.46979 44.3718 5.34453 44.7945 5.34487ZM12.8083 7.47728C12.8086 7.12704 12.8951 6.78227 13.0603 6.47342C13.2254 6.16457 13.4641 5.90116 13.7553 5.70645C14.0464 5.51175 14.381 5.39175 14.7295 5.35706C15.078 5.32237 15.4297 5.37405 15.7535 5.50755C16.0773 5.64104 16.3632 5.85224 16.586 6.12247C16.8088 6.3927 16.9616 6.71365 17.0309 7.05696C17.1003 7.40026 17.0839 7.75536 16.9835 8.09087C16.883 8.42637 16.7014 8.73196 16.4547 8.98063C16.1571 9.2807 15.777 9.48557 15.3627 9.56921C14.9485 9.65286 14.5187 9.61151 14.1279 9.45042C13.7372 9.28932 13.4031 9.01575 13.1682 8.66444C12.9332 8.31313 12.808 7.89992 12.8083 7.47728ZM27.7352 4.27866C27.7352 3.85691 27.8602 3.44463 28.0946 3.09396C28.3289 2.74329 28.6619 2.46997 29.0515 2.30857C29.4412 2.14718 29.87 2.10495 30.2836 2.18723C30.6972 2.26951 31.0772 2.4726 31.3754 2.77082C31.6737 3.06904 31.8767 3.449 31.959 3.86265C32.0413 4.2763 31.9991 4.70505 31.8377 5.0947C31.6763 5.48435 31.403 5.81739 31.0523 6.0517C30.7016 6.28601 30.2893 6.41107 29.8676 6.41107C29.302 6.41107 28.7597 6.18641 28.3597 5.78651C27.9598 5.3866 27.7352 4.84421 27.7352 4.27866ZM4.27866 28.8014C3.85691 28.8014 3.44463 28.6763 3.09396 28.442C2.74329 28.2077 2.46997 27.8747 2.30857 27.485C2.14718 27.0954 2.10495 26.6666 2.18723 26.253C2.26951 25.8393 2.4726 25.4594 2.77082 25.1611C3.06904 24.8629 3.449 24.6598 3.86265 24.5775C4.2763 24.4953 4.70505 24.5375 5.0947 24.6989C5.48435 24.8603 5.81739 25.1336 6.0517 25.4843C6.28601 25.8349 6.41107 26.2472 6.41107 26.669C6.41107 27.2345 6.18641 27.7769 5.7865 28.1768C5.3866 28.5767 4.84421 28.8014 4.27866 28.8014ZM4.27866 39.4634C3.85691 39.4634 3.44463 39.3384 3.09396 39.1041C2.74329 38.8697 2.46997 38.5367 2.30857 38.1471C2.14718 37.7574 2.10495 37.3287 2.18723 36.915C2.26951 36.5014 2.4726 36.1214 2.77082 35.8232C3.06904 35.525 3.449 35.3219 3.86265 35.2396C4.2763 35.1573 4.70505 35.1995 5.0947 35.3609C5.48435 35.5223 5.81739 35.7956 6.0517 36.1463C6.28601 36.497 6.41107 36.9093 6.41107 37.331C6.41107 37.8966 6.18641 38.439 5.7865 38.8389C5.3866 39.2388 4.84421 39.4634 4.27866 39.4634ZM14.9407 58.6551C14.5905 58.6548 14.2457 58.5683 13.9369 58.4031C13.628 58.238 13.3646 57.9993 13.1699 57.7082C12.9752 57.417 12.8552 57.0824 12.8205 56.7339C12.7858 56.3854 12.8375 56.0337 12.971 55.7099C13.1045 55.3861 13.3157 55.1002 13.5859 54.8774C13.8561 54.6546 14.1771 54.5018 14.5204 54.4325C14.8637 54.3632 15.2188 54.3795 15.5543 54.48C15.8898 54.5805 16.1954 54.7621 16.4441 55.0087C16.7441 55.3063 16.949 55.6864 17.0326 56.1007C17.1163 56.515 17.0749 56.9448 16.9139 57.3355C16.7528 57.7262 16.4792 58.0603 16.1279 58.2952C15.7766 58.5302 15.3634 58.6555 14.9407 58.6551ZM32 59.7213C32 60.1431 31.8749 60.5554 31.6406 60.906C31.4063 61.2567 31.0733 61.53 30.6836 61.6914C30.294 61.8528 29.8652 61.895 29.4516 61.8128C29.0379 61.7305 28.658 61.5274 28.3597 61.2292C28.0615 60.931 27.8584 60.551 27.7762 60.1373C27.6939 59.7237 27.7361 59.2949 27.8975 58.9053C28.0589 58.5156 28.3322 58.1826 28.6829 57.9483C29.0336 57.714 29.4458 57.5889 29.8676 57.5889C30.4331 57.5889 30.9755 57.8136 31.3754 58.2135C31.7753 58.6134 32 59.1558 32 59.7213ZM46.9269 56.5227C46.9266 56.873 46.84 57.2177 46.6749 57.5266C46.5097 57.8354 46.271 58.0988 45.9799 58.2935C45.6888 58.4882 45.3542 58.6082 45.0057 58.6429C44.6572 58.6776 44.3055 58.6259 43.9817 58.4924C43.6579 58.359 43.372 58.1478 43.1492 57.8775C42.9264 57.6073 42.7735 57.2863 42.7042 56.943C42.6349 56.5997 42.6512 56.2446 42.7517 55.9091C42.8522 55.5736 43.0338 55.268 43.2805 55.0194C43.5781 54.7193 43.9582 54.5144 44.3724 54.4308C44.7867 54.3471 45.2165 54.3885 45.6072 54.5496C45.998 54.7107 46.332 54.9842 46.567 55.3356C46.8019 55.6869 46.9272 56.1001 46.9269 56.5227ZM55.4565 39.4634C55.0348 39.4634 54.6225 39.3384 54.2718 39.1041C53.9211 38.8697 53.6478 38.5367 53.4864 38.1471C53.325 37.7574 53.2828 37.3287 53.3651 36.915C53.4474 36.5014 53.6504 36.1214 53.9487 35.8232C54.2469 35.525 54.6269 35.3219 55.0405 35.2396C55.4541 35.1573 55.8829 35.1995 56.2725 35.3609C56.6622 35.5223 56.9952 35.7956 57.2295 36.1463C57.4639 36.497 57.5889 36.9093 57.5889 37.331C57.5889 37.8966 57.3643 38.439 56.9644 38.8389C56.5645 39.2388 56.0221 39.4634 55.4565 39.4634Z" fill="#047BDC"></path></svg>