<svg xmlns="http://www.w3.org/2000/svg" width="59" height="45" viewBox="0 0 59 45" fill="none"><path fill-rule="evenodd" clip-rule="evenodd" d="M13.8546 6.07373H18.4886C18.9896 6.07373 19.3957 6.47989 19.3957 6.98087V9.27154C20.0301 9.43072 20.647 9.63439 21.2428 9.88137C21.8503 10.133 22.4332 10.4268 22.988 10.7604L24.608 9.14044C24.9626 8.78578 25.5362 8.78578 25.8908 9.14044L26.8846 10.1342L32.3508 4.59539C32.5276 4.41513 32.7617 4.325 32.9958 4.325V4.32266H35.8928V2.98244C35.8928 2.16074 36.2275 1.41514 36.7683 0.875535C37.3079 0.335934 38.0547 0 38.8752 0H42.8092H55.652C56.4737 0 57.2193 0.334763 57.7589 0.875535C58.2985 1.41514 58.6344 2.16191 58.6344 2.98244V7.4795C58.6344 8.30119 58.2996 9.0468 57.7589 9.5864C57.2193 10.126 56.4725 10.4619 55.652 10.4619H42.8092H38.8752C38.0535 10.4619 37.3079 10.1272 36.7683 9.5864C36.2287 9.0468 35.8928 8.30002 35.8928 7.4795V6.13811H33.3715L28.1651 11.4147L29.1682 12.4178C29.5229 12.7725 29.5229 13.346 29.1682 13.7007L27.5483 15.3207C27.8807 15.8755 28.1745 16.4584 28.4261 17.0659C28.6731 17.6617 28.8779 18.2785 29.036 18.913H31.3266C31.8276 18.913 32.2338 19.3191 32.2338 19.8201V21.2294H35.8928V19.888C35.8928 19.0663 36.2275 18.3207 36.7683 17.7811C37.3079 17.2415 38.0547 16.9055 38.8752 16.9055H42.8092H55.652C56.4737 16.9055 57.2193 17.2403 57.7589 17.7811C58.2985 18.3207 58.6344 19.0675 58.6344 19.888V24.385C58.6344 25.2067 58.2996 25.9523 57.7589 26.4919C57.2193 27.0315 56.4725 27.3675 55.652 27.3675H42.8092H38.8752C38.0535 27.3675 37.3079 27.0327 36.7683 26.4919C36.2287 25.9523 35.8928 25.2056 35.8928 24.385V23.0436H32.2338V24.4529C32.2338 24.9539 31.8276 25.3601 31.3266 25.3601H29.036C28.8768 25.9945 28.6731 26.6125 28.4261 27.2083C28.1745 27.8158 27.8807 28.3987 27.5483 28.9535L29.1682 30.5735C29.5229 30.9281 29.5229 31.5017 29.1682 31.8564L28.1651 32.8595L33.3715 38.1361H35.8928V36.7947C35.8928 35.973 36.2275 35.2274 36.7683 34.6878C37.3079 34.1482 38.0547 33.8123 38.8752 33.8123H42.8092H55.652C56.4737 33.8123 57.2193 34.147 57.7589 34.6878C58.2985 35.2274 58.6344 35.9742 58.6344 36.7947V41.2918C58.6344 42.1134 58.2996 42.8591 57.7589 43.3987C57.2193 43.9383 56.4725 44.2742 55.652 44.2742H42.8092H38.8752C38.0535 44.2742 37.3079 43.9394 36.7683 43.3987C36.2287 42.8591 35.8928 42.1123 35.8928 41.2918V39.9504H32.9958V39.948C32.7617 39.948 32.5276 39.8579 32.3508 39.6776L26.8857 34.1388L25.892 35.1326C25.5373 35.4872 24.9638 35.4872 24.6091 35.1326L22.9892 33.5126C22.4343 33.845 21.8514 34.14 21.2439 34.3917C20.6482 34.6386 20.0313 34.8435 19.3969 35.0015V37.2922C19.3969 37.7931 18.9907 38.1993 18.4897 38.1993C18.4628 38.1993 18.4359 38.1981 18.4102 38.1958H13.8569C13.3583 38.1958 12.9533 37.7908 12.9533 37.2922H12.9498V35.0015C12.3154 34.8423 11.6973 34.6375 11.1015 34.3917C10.4941 34.14 9.91115 33.8462 9.35633 33.5138L7.73636 35.1338C7.3817 35.4884 6.80815 35.4884 6.45349 35.1338L3.17609 31.8564C2.82143 31.5017 2.82143 30.9281 3.17609 30.5735L4.79606 28.9535C4.46364 28.3987 4.16984 27.8158 3.91701 27.2083C3.67004 26.6125 3.4652 25.9957 3.30718 25.3612H1.01651C0.515539 25.3612 0.109375 24.9551 0.109375 24.4541V19.8201C0.109375 19.3191 0.515539 18.913 1.01651 18.913H3.30718C3.46637 18.2785 3.67004 17.6605 3.91701 17.0647C4.16867 16.4572 4.46247 15.8743 4.79489 15.3195L3.17609 13.7007C2.82143 13.346 2.82143 12.7725 3.17609 12.4178L6.45232 9.14161C6.80698 8.78695 7.3817 8.78695 7.73519 9.14161L9.35516 10.7616C9.90998 10.4292 10.4929 10.1354 11.1004 9.88254C11.6973 9.63556 12.3154 9.43072 12.9509 9.27154V6.98204C12.9509 6.4834 13.3559 6.07841 13.8546 6.07841V6.07373ZM17.5814 7.88917H14.7594V9.94926C14.7839 10.3964 14.4738 10.8037 14.0219 10.888C13.2459 11.0355 12.4991 11.2602 11.7886 11.554C11.0852 11.8455 10.4145 12.2072 9.78473 12.632C9.4289 12.9095 8.91388 12.8837 8.58731 12.5571L7.09492 11.0647L5.10156 13.0581L6.59395 14.5505L6.59278 14.5517C6.89477 14.8537 6.94978 15.3371 6.70046 15.7023C6.2627 16.3449 5.89048 17.032 5.592 17.7518C5.30523 18.4448 5.084 19.1716 4.93652 19.9266C4.88268 20.3772 4.49992 20.7261 4.03523 20.7261H1.92365V23.5446H4.03406V23.547C4.4613 23.547 4.84171 23.8501 4.92364 24.2855C5.07113 25.0616 5.29586 25.8084 5.58966 26.5189C5.88111 27.2223 6.2428 27.893 6.66769 28.5228C6.9451 28.8786 6.91935 29.3936 6.59278 29.7202L5.10039 31.2126L7.09375 33.2059L8.58614 31.7135L8.58731 31.7147C8.8893 31.4127 9.37272 31.3577 9.73791 31.607C10.3805 32.0448 11.0676 32.417 11.7875 32.7155C12.4804 33.0023 13.2073 33.2235 13.9634 33.371C14.4141 33.4248 14.7629 33.8076 14.7629 34.2723V36.385H17.5814V34.2746H17.5838C17.5838 33.8474 17.8869 33.467 18.3224 33.385C19.0984 33.2375 19.8452 33.0128 20.5557 32.719C21.2592 32.4276 21.9299 32.0659 22.5596 31.641C22.9154 31.3636 23.4304 31.3893 23.757 31.7159L25.2494 33.2083L27.2428 31.2149L25.7504 29.7225L25.7515 29.7214C25.4495 29.4194 25.3945 28.936 25.6438 28.5708C26.0816 27.9281 26.4538 27.2411 26.7523 26.5212C27.0391 25.8283 27.2603 25.1014 27.4078 24.3452C27.4616 23.8946 27.8444 23.5458 28.3091 23.5458H30.4183V22.1365V20.7272H28.3091V20.7249C27.8818 20.7249 27.5014 20.4217 27.4195 19.9863C27.272 19.2103 27.0473 18.4635 26.7535 17.753C26.462 17.0495 26.1003 16.3788 25.6755 15.7491C25.398 15.3933 25.4238 14.8782 25.7504 14.5517L27.2428 13.0593L25.2494 11.0659L23.757 12.5583L23.7558 12.5571C23.4538 12.8591 22.9704 12.9141 22.6052 12.6648C21.9615 12.2271 21.2755 11.8537 20.5545 11.5552C19.8616 11.2684 19.1347 11.0472 18.3797 10.8997C17.9291 10.8459 17.5803 10.4631 17.5803 9.99842V7.88917H17.5814ZM16.1722 13.5064C13.789 13.5064 11.6318 14.4721 10.0703 16.0335C8.50772 17.5961 7.54205 19.7534 7.54205 22.1365C7.54205 24.5197 8.50772 26.6769 10.0692 28.2383C11.6306 29.7998 13.7878 30.7654 16.171 30.7654C18.5541 30.7654 20.7114 29.7998 22.2728 28.2383C23.8343 26.6769 24.7999 24.5197 24.7999 22.1365C24.7999 19.7534 23.8343 17.5961 22.2728 16.0347C20.7125 14.4732 18.5541 13.5064 16.1722 13.5064ZM20.9911 17.3176C19.7574 16.0839 18.0543 15.3219 16.1722 15.3219C14.29 15.3219 12.5869 16.085 11.3532 17.3176C10.1195 18.5513 9.35633 20.2543 9.35633 22.1365C9.35633 24.0187 10.1195 25.7218 11.352 26.9555C12.5857 28.1892 14.2888 28.9512 16.171 28.9512C18.0532 28.9512 19.7562 28.188 20.9899 26.9555C22.2236 25.7218 22.9856 24.0187 22.9856 22.1365C22.9856 20.2543 22.2236 18.5513 20.9911 17.3176ZM43.7164 35.6265V42.4599H55.6508C55.9715 42.4599 56.263 42.3288 56.4748 42.1158C56.6867 41.9039 56.819 41.6113 56.819 41.2918V36.7947C56.819 36.474 56.6879 36.1825 56.4748 35.9707C56.263 35.7588 55.9715 35.6265 55.6508 35.6265H43.7164ZM41.9021 42.4587V35.6254H38.8752C38.5545 35.6254 38.263 35.7576 38.0512 35.9695C37.8393 36.1813 37.707 36.4728 37.707 36.7935V39.0421V41.2906C37.707 41.6113 37.8381 41.9028 38.0512 42.1146C38.263 42.3265 38.5556 42.4587 38.8752 42.4587H41.9021ZM43.7164 18.7198V25.5532H55.6508C55.9715 25.5532 56.263 25.4221 56.4748 25.2091C56.6867 24.9972 56.819 24.7058 56.819 24.385V19.888C56.819 19.5673 56.6879 19.2758 56.4748 19.0639C56.263 18.8521 55.9715 18.7198 55.6508 18.7198H43.7164ZM41.9021 25.5532V18.7198H38.8752C38.5545 18.7198 38.263 18.8509 38.0512 19.0639C37.8393 19.2758 37.707 19.5684 37.707 19.888V22.1365V24.385C37.707 24.7058 37.8381 24.9972 38.0512 25.2091C38.263 25.4209 38.5545 25.5532 38.8752 25.5532H41.9021ZM43.7164 1.81428V8.64766H55.6508C55.9715 8.64766 56.263 8.51656 56.4748 8.30353C56.6867 8.09167 56.819 7.80022 56.819 7.4795V2.98244C56.819 2.66172 56.6879 2.37026 56.4748 2.1584C56.263 1.94654 55.9715 1.81428 55.6508 1.81428H43.7164ZM41.9021 8.64649V1.81428H38.8752C38.5545 1.81428 38.263 1.94537 38.0512 2.1584C37.8393 2.37026 37.707 2.66289 37.707 2.98244V5.23097V7.4795C37.707 7.80022 37.8381 8.09167 38.0512 8.30353C38.263 8.51539 38.5545 8.64766 38.8752 8.64766H41.9021V8.64649Z" fill="#0369CA"></path></svg>