<svg xmlns="http://www.w3.org/2000/svg" width="62" height="51" viewBox="0 0 62 51" fill="none"><path fill-rule="evenodd" clip-rule="evenodd" d="M48.6687 25.0468V2.93033C48.6687 2.15332 48.3596 1.40745 47.8101 0.857813C47.2605 0.308171 46.5156 0 45.7385 0H2.93033C2.15322 0 1.40746 0.308171 0.857813 0.857813C0.308171 1.40745 0 2.15322 0 2.93033V38.059C0 38.8361 0.308171 39.581 0.857813 40.1306C1.40735 40.6801 2.15322 40.9892 2.93033 40.9892H36.7524C37.2915 40.9892 37.7291 40.5516 37.7291 40.0125C37.7291 39.4733 37.2915 39.0358 36.7524 39.0358H2.93033C2.67068 39.0358 2.42247 38.9324 2.23922 38.7493C2.05597 38.5661 1.95352 38.3177 1.95352 38.0591V2.93033C1.95352 2.67068 2.05597 2.42237 2.23922 2.23922C2.42237 2.05597 2.67068 1.95352 2.93033 1.95352H45.7385C45.9972 1.95352 46.2455 2.05597 46.4287 2.23922C46.6118 2.42237 46.7152 2.67068 46.7152 2.93033V25.0469C46.7152 25.5861 47.1528 26.0236 47.6919 26.0236C48.2312 26.0236 48.6687 25.586 48.6687 25.0468Z" fill="#048DEF"></path><path fill-rule="evenodd" clip-rule="evenodd" d="M39.073 31.5342H0.97671C0.437487 31.5342 0 31.9718 0 32.5109C0 33.0501 0.437589 33.4876 0.97671 33.4876H39.073C39.6122 33.4876 40.0497 33.05 40.0497 32.5109C40.0497 31.9718 39.6121 31.5342 39.073 31.5342Z" fill="#048DEF"></path><path fill-rule="evenodd" clip-rule="evenodd" d="M27.6915 47.0417V40.0125C27.6915 39.4733 27.2539 39.0358 26.7148 39.0358C26.1756 39.0358 25.738 39.4734 25.738 40.0125V47.0417C25.738 47.5809 26.1756 48.0184 26.7148 48.0184C27.2539 48.0184 27.6915 47.5808 27.6915 47.0417ZM20.9766 40.0125V47.0417C20.9766 47.5809 21.415 48.0184 21.9533 48.0184C22.4925 48.0184 22.93 47.5808 22.93 47.0417V40.0125C22.93 39.4733 22.4924 39.0358 21.9533 39.0358C21.415 39.0357 20.9766 39.4733 20.9766 40.0125Z" fill="#048DEF"></path><path fill-rule="evenodd" clip-rule="evenodd" d="M4.88306 5.86065H47.6912C48.2304 5.86065 48.6679 5.42306 48.6679 4.88394C48.6679 4.34471 48.2303 3.90723 47.6912 3.90723H4.88296C4.34384 3.90723 3.90625 4.34482 3.90625 4.88394C3.90625 5.42306 4.34384 5.86065 4.88306 5.86065Z" fill="#048DEF"></path><path fill-rule="evenodd" clip-rule="evenodd" d="M11.4806 48.0184H37.1907C37.7298 48.0184 38.1674 47.5808 38.1674 47.0417C38.1674 46.5025 37.7298 46.0649 37.1907 46.0649H11.4806C10.9414 46.0649 10.5039 46.5025 10.5039 47.0417C10.5039 47.5808 10.9414 48.0184 11.4806 48.0184Z" fill="#048DEF"></path><path fill-rule="evenodd" clip-rule="evenodd" d="M21.2345 37.2386H27.4285C27.9677 37.2386 28.4052 36.801 28.4052 36.2619C28.4052 35.7227 27.9676 35.2852 27.4285 35.2852H21.2345C20.6962 35.2852 20.2578 35.7227 20.2578 36.2619C20.2578 36.801 20.6962 37.2386 21.2345 37.2386Z" fill="#048DEF"></path><path fill-rule="evenodd" clip-rule="evenodd" d="M35.6379 28.604V10.0933C35.6379 9.48898 35.3974 8.909 34.9703 8.48183C34.5431 8.05384 33.9631 7.81421 33.3588 7.81421C29.6445 7.81421 19.0287 7.81421 15.3143 7.81421C14.71 7.81421 14.13 8.05384 13.7029 8.48183C13.2748 8.909 13.0352 9.48898 13.0352 10.0933V28.604C13.0352 29.1432 13.4727 29.5807 14.0119 29.5807C14.551 29.5807 14.9886 29.1431 14.9886 28.604C14.9886 28.604 14.9886 15.0569 14.9886 10.0933C14.9886 10.0064 15.0224 9.92401 15.0841 9.86313C15.1449 9.80144 15.2274 9.76763 15.3141 9.76763H33.3586C33.4445 9.76763 33.528 9.80144 33.5888 9.86313C33.6495 9.92391 33.6843 10.0064 33.6843 10.0933V28.604C33.6843 29.1432 34.1219 29.5807 34.661 29.5807C35.2003 29.5807 35.6379 29.1431 35.6379 28.604Z" fill="#048DEF"></path><path fill-rule="evenodd" clip-rule="evenodd" d="M21.5499 28.0153L28.4958 21.0695C28.877 20.6883 28.877 20.0693 28.4958 19.6882C28.1147 19.3071 27.4956 19.3071 27.1145 19.6882L20.1686 26.6348C19.7875 27.0161 19.7875 27.6342 20.1686 28.0153C20.5498 28.3974 21.1688 28.3974 21.5499 28.0153Z" fill="#048DEF"></path><path fill-rule="evenodd" clip-rule="evenodd" d="M20.6712 16.8655C19.0528 16.8655 17.7383 18.1792 17.7383 19.7984C17.7383 21.4168 19.0528 22.7313 20.6712 22.7313C22.2904 22.7313 23.6041 21.4168 23.6041 19.7984C23.6041 18.1791 22.2905 16.8655 20.6712 16.8655ZM20.6712 18.819C21.212 18.819 21.6505 19.2574 21.6505 19.7984C21.6505 20.3384 21.2121 20.7777 20.6712 20.7777C20.1302 20.7777 19.6918 20.3384 19.6918 19.7984C19.6918 19.2574 20.1302 18.819 20.6712 18.819Z" fill="#048DEF"></path><path fill-rule="evenodd" clip-rule="evenodd" d="M27.9993 24.5823C26.3809 24.5823 25.0664 25.8968 25.0664 27.5152C25.0664 29.1345 26.3809 30.448 27.9993 30.448C29.6186 30.448 30.933 29.1344 30.933 27.5152C30.9331 25.8968 29.6186 24.5823 27.9993 24.5823ZM27.9993 26.5358C28.5403 26.5358 28.9795 26.9742 28.9795 27.5152C28.9795 28.0561 28.5402 28.4945 27.9993 28.4945C27.4593 28.4945 27.0199 28.056 27.0199 27.5152C27.0199 26.9742 27.4593 26.5358 27.9993 26.5358Z" fill="#048DEF"></path><path fill-rule="evenodd" clip-rule="evenodd" d="M20.1468 8.79092C20.1468 8.25088 19.7092 7.81421 19.1701 7.81421H15.2049C14.0068 7.81421 13.0352 8.78581 13.0352 9.98397V12.4567C13.0352 13.3996 13.4093 14.3034 14.0761 14.9702C14.7429 15.637 15.6476 16.0121 16.5905 16.0121H16.5913C17.5342 16.0121 18.4381 15.637 19.1049 14.9702C19.7717 14.3034 20.1468 13.3996 20.1468 12.4567C20.1468 10.7366 20.1468 8.79092 20.1468 8.79092ZM18.1933 9.76763V12.4565C18.1933 12.8811 18.0239 13.2883 17.7236 13.5887C17.4232 13.8891 17.0159 14.0584 16.5914 14.0584H16.5906C16.1652 14.0584 15.758 13.8891 15.4576 13.5887C15.1572 13.2883 14.9888 12.8811 14.9888 12.4565V9.98377C14.9888 9.86395 15.0852 9.76753 15.205 9.76753L18.1933 9.76763Z" fill="#048DEF"></path><path fill-rule="evenodd" clip-rule="evenodd" d="M18.1914 8.79092V12.4566C18.1914 13.3995 18.5656 14.3033 19.2324 14.9701C19.8992 15.6369 20.8029 16.012 21.7468 16.012C22.6897 16.012 23.5944 15.6369 24.2612 14.9701C24.928 14.3033 25.3021 13.3995 25.3021 12.4566C25.3021 10.7366 25.3021 8.79092 25.3021 8.79092C25.3021 8.2517 24.8645 7.81421 24.3254 7.81421C23.7863 7.81421 23.3487 8.2518 23.3487 8.79092V12.4566C23.3487 12.8811 23.1803 13.2884 22.8799 13.5888C22.5795 13.8892 22.1722 14.0585 21.7469 14.0585C21.3214 14.0585 20.9143 13.8892 20.6139 13.5888C20.3135 13.2884 20.145 12.8812 20.145 12.4566V8.79092C20.145 8.2517 19.7066 7.81421 19.1683 7.81421C18.629 7.81411 18.1914 8.2517 18.1914 8.79092Z" fill="#048DEF"></path><path fill-rule="evenodd" clip-rule="evenodd" d="M35.6351 9.98385C35.6351 8.78569 34.6635 7.81409 33.4653 7.81409H29.5001C28.9609 7.81409 28.5234 8.25086 28.5234 8.7908V12.4565C28.5234 13.3994 28.8976 14.3033 29.5644 14.97C30.2312 15.6368 31.1359 16.0118 32.0788 16.0118H32.0796C33.0225 16.0118 33.9263 15.6368 34.5932 14.97C35.26 14.3031 35.6351 13.3994 35.6351 12.4565V9.98385ZM33.6816 9.98385V12.4566C33.6816 12.8812 33.5122 13.2883 33.2118 13.5887C32.9114 13.8892 32.5042 14.0585 32.0796 14.0585H32.0788C31.6543 14.0585 31.2462 13.8892 30.9458 13.5887C30.6454 13.2883 30.477 12.8812 30.477 12.4566V9.76771H33.4654C33.5843 9.76761 33.6816 9.86403 33.6816 9.98385Z" fill="#048DEF"></path><path fill-rule="evenodd" clip-rule="evenodd" d="M23.3633 8.79092V12.4566C23.3633 13.3995 23.7384 14.3033 24.4052 14.9701C25.072 15.6369 25.9757 16.012 26.9186 16.012H26.9196C27.8625 16.012 28.7672 15.6369 29.434 14.9701C30.1008 14.3033 30.475 13.3995 30.475 12.4566C30.475 10.7366 30.475 8.79092 30.475 8.79092C30.475 8.2517 30.0374 7.81421 29.4983 7.81421C28.9591 7.81421 28.5216 8.2518 28.5216 8.79092V12.4566C28.5216 12.8811 28.3532 13.2884 28.0528 13.5888C27.7523 13.8892 27.3443 14.0585 26.9198 14.0585H26.9189C26.4943 14.0585 26.0872 13.8892 25.7868 13.5888C25.4864 13.2884 25.3171 12.8812 25.3171 12.4566V8.79092C25.3171 8.2517 24.8795 7.81421 24.3404 7.81421C23.8009 7.81411 23.3633 8.2517 23.3633 8.79092Z" fill="#048DEF"></path><path fill-rule="evenodd" clip-rule="evenodd" d="M58.1265 29.1596C58.189 28.8713 58.1169 28.57 57.9312 28.34C57.7463 28.1108 57.4666 27.9771 57.1714 27.9771H39.1122C38.62 27.9771 38.1546 28.1993 37.8455 28.5822C37.5364 28.965 37.4175 29.4668 37.5208 29.9479C37.974 32.0533 39.2121 37.8097 39.7192 40.1688C39.9449 41.2184 40.8739 41.9687 41.9479 41.9687H53.5301C54.6041 41.9687 55.5322 41.2185 55.758 40.1689C56.3848 37.2558 58.1265 29.1596 58.1265 29.1596ZM39.5151 29.9306H55.9619L53.8487 39.758C53.8165 39.9074 53.6837 40.015 53.53 40.015H41.9477C41.7941 40.015 41.6612 39.9074 41.6291 39.758L39.5151 29.9306Z" fill="#048DEF"></path><path fill-rule="evenodd" clip-rule="evenodd" d="M57.8968 30.2379L58.5576 27.1644C58.5906 27.0142 58.7226 26.9074 58.8762 26.9074H60.8853C61.4245 26.9074 61.862 26.4698 61.862 25.9307C61.862 25.3916 61.4244 24.954 60.8853 24.954H58.8762C57.8022 24.954 56.874 25.7041 56.6483 26.7539L55.9867 29.8266C55.8738 30.3536 56.209 30.8737 56.736 30.9875C57.2638 31.1 57.783 30.7649 57.8968 30.2379Z" fill="#048DEF"></path><path fill-rule="evenodd" clip-rule="evenodd" d="M40.2658 35.9491H55.3747C55.914 35.9491 56.3515 35.5116 56.3515 34.9724C56.3515 34.4341 55.9139 33.9957 55.3747 33.9957H40.2658C39.7267 33.9957 39.2891 34.4342 39.2891 34.9724C39.289 35.5116 39.7266 35.9491 40.2658 35.9491Z" fill="#048DEF"></path><path fill-rule="evenodd" clip-rule="evenodd" d="M49.7969 28.9538V40.9917C49.7969 41.5309 50.2345 41.9685 50.7736 41.9685C51.3127 41.9685 51.7503 41.5309 51.7503 40.9917V28.9538C51.7503 28.4145 51.3127 27.9771 50.7736 27.9771C50.2345 27.9771 49.7969 28.4146 49.7969 28.9538Z" fill="#048DEF"></path><path fill-rule="evenodd" clip-rule="evenodd" d="M44.0977 28.9538V40.9917C44.0977 41.5309 44.5352 41.9685 45.0744 41.9685C45.6136 41.9685 46.0511 41.5309 46.0511 40.9917V28.9538C46.0511 28.4145 45.6135 27.9771 45.0744 27.9771C44.5352 27.9771 44.0977 28.4146 44.0977 28.9538Z" fill="#048DEF"></path><path fill-rule="evenodd" clip-rule="evenodd" d="M43.2133 43.9221C41.4916 43.9221 40.0938 45.32 40.0938 47.0416C40.0938 48.7634 41.4916 50.1611 43.2133 50.1611C44.935 50.1611 46.3328 48.7633 46.3328 47.0416C46.3329 45.32 44.935 43.9221 43.2133 43.9221ZM43.2133 45.8756C43.8567 45.8756 44.3792 46.3983 44.3792 47.0416C44.3792 47.685 43.8566 48.2076 43.2133 48.2076C42.569 48.2076 42.0473 47.6849 42.0473 47.0416C42.0473 46.3983 42.569 45.8756 43.2133 45.8756Z" fill="#048DEF"></path><path fill-rule="evenodd" clip-rule="evenodd" d="M52.6117 43.9221C50.89 43.9221 49.4922 45.32 49.4922 47.0416C49.4922 48.7634 50.89 50.1611 52.6117 50.1611C54.3334 50.1611 55.7312 48.7633 55.7312 47.0416C55.7312 45.32 54.3333 43.9221 52.6117 43.9221ZM52.6117 45.8756C53.2559 45.8756 53.7777 46.3983 53.7777 47.0416C53.7777 47.685 53.2559 48.2076 52.6117 48.2076C51.9684 48.2076 51.4457 47.6849 51.4457 47.0416C51.4457 46.3983 51.9684 45.8756 52.6117 45.8756Z" fill="#048DEF"></path></svg>