<svg xmlns="http://www.w3.org/2000/svg" width="64" height="64" viewBox="0 0 64 64" fill="none"><g clip-path="url(#clip0_1682_32)"><path d="M51.2 25.6C58.2583 25.6 64 19.8583 64 12.8C64 5.74167 58.2583 0 51.2 0C46.0745 0 41.6552 3.0349 39.613 7.39635L36.1854 6.13125C36.226 5.86875 36.2667 5.60625 36.2667 5.33333C36.2667 2.39271 33.874 0 30.9333 0C27.9927 0 25.6 2.39271 25.6 5.33333C25.6 8.27396 27.9927 10.6667 30.9333 10.6667C32.8438 10.6667 34.5099 9.64792 35.4516 8.13438L38.8734 9.3974C38.5729 10.4833 38.4 11.6203 38.4 12.8C38.4 14.1974 38.6323 15.5391 39.0484 16.799L27.3172 21.7708C25.1693 17.7099 20.9057 14.9333 16 14.9333C14.4104 14.9333 12.8938 15.2385 11.488 15.7698L8.5375 9.56927C9.82292 8.59427 10.6667 7.06667 10.6667 5.33333C10.6667 2.39271 8.27396 0 5.33333 0C2.39271 0 0 2.39271 0 5.33333C0 8.27396 2.39271 10.6667 5.33333 10.6667C5.77708 10.6667 6.2026 10.5964 6.61563 10.4927L9.5625 16.687C5.76406 18.9099 3.2 23.0229 3.2 27.7333C3.2 32.1578 5.45729 36.063 8.87917 38.3625L6.92813 41.8698C6.42031 41.7099 5.89219 41.6 5.33333 41.6C2.39271 41.6 0 43.9927 0 46.9333C0 49.874 2.39271 52.2667 5.33333 52.2667C8.27396 52.2667 10.6667 49.874 10.6667 46.9333C10.6667 45.3182 9.92969 43.8859 8.79271 42.9078L10.7479 39.3932C12.3521 40.1193 14.1271 40.5333 16 40.5333C18.9271 40.5333 21.6193 39.5349 23.7781 37.875L27.9766 42.4938C25.8474 44.7807 24.5333 47.8359 24.5333 51.2C24.5333 51.8526 24.5984 52.4885 24.6922 53.1146L19.7526 54.287C18.9026 52.4693 17.0688 51.2 14.9333 51.2C11.9927 51.2 9.6 53.5927 9.6 56.5333C9.6 59.474 11.9927 61.8667 14.9333 61.8667C17.874 61.8667 20.2667 59.474 20.2667 56.5333C20.2667 56.4745 20.2505 56.4193 20.2495 56.3604L25.1797 55.1917C26.8609 60.2995 31.6693 64 37.3333 64C44.3917 64 50.1333 58.2583 50.1333 51.2C50.1333 49.0115 49.5797 46.9505 48.6068 45.1479L54.8724 41.074C55.8411 42.0552 57.1828 42.6667 58.6667 42.6667C61.6073 42.6667 64 40.274 64 37.3333C64 34.3927 61.6073 32 58.6667 32C55.726 32 53.3333 34.3927 53.3333 37.3333C53.3333 38.0224 53.475 38.6771 53.7141 39.2823L47.4339 43.3651C46.1771 41.7495 44.5453 40.4448 42.6667 39.5786L47.8729 25.1458C48.9354 25.4323 50.0479 25.6 51.2 25.6ZM30.9333 8.53333C29.1693 8.53333 27.7333 7.0974 27.7333 5.33333C27.7333 3.56927 29.1693 2.13333 30.9333 2.13333C32.6974 2.13333 34.1333 3.56927 34.1333 5.33333C34.1333 7.0974 32.6974 8.53333 30.9333 8.53333ZM2.13333 5.33333C2.13333 3.56927 3.56927 2.13333 5.33333 2.13333C7.0974 2.13333 8.53333 3.56927 8.53333 5.33333C8.53333 7.0974 7.0974 8.53333 5.33333 8.53333C3.56927 8.53333 2.13333 7.0974 2.13333 5.33333ZM5.33333 50.1333C3.56927 50.1333 2.13333 48.6974 2.13333 46.9333C2.13333 45.1693 3.56927 43.7333 5.33333 43.7333C7.0974 43.7333 8.53333 45.1693 8.53333 46.9333C8.53333 48.6974 7.0974 50.1333 5.33333 50.1333ZM14.9333 59.7333C13.1693 59.7333 11.7333 58.2974 11.7333 56.5333C11.7333 54.7693 13.1693 53.3333 14.9333 53.3333C16.6974 53.3333 18.1333 54.7693 18.1333 56.5333C18.1333 58.2974 16.6974 59.7333 14.9333 59.7333ZM58.6667 34.1333C60.4307 34.1333 61.8667 35.5693 61.8667 37.3333C61.8667 39.0974 60.4307 40.5333 58.6667 40.5333C56.9026 40.5333 55.4667 39.0974 55.4667 37.3333C55.4667 35.5693 56.9026 34.1333 58.6667 34.1333ZM44.9182 21.4016C45.3943 18.9344 47.5693 17.0667 50.1333 17.0667H52.2667C54.8307 17.0667 57.0057 18.9344 57.4818 21.4016C55.7172 22.6932 53.55 23.4667 51.2 23.4667C48.85 23.4667 46.6828 22.6932 44.9182 21.4016ZM51.2 14.9333C49.4359 14.9333 48 13.4974 48 11.7333C48 9.96927 49.4359 8.53333 51.2 8.53333C52.9641 8.53333 54.4 9.96927 54.4 11.7333C54.4 13.4974 52.9641 14.9333 51.2 14.9333ZM51.2 2.13333C57.0818 2.13333 61.8667 6.91823 61.8667 12.8C61.8667 15.4667 60.8755 17.9031 59.251 19.775C58.5036 17.8068 56.9453 16.2359 55.0036 15.4604C55.9479 14.4979 56.5333 13.1839 56.5333 11.7333C56.5333 8.79271 54.1406 6.4 51.2 6.4C48.2594 6.4 45.8667 8.79271 45.8667 11.7333C45.8667 13.1839 46.4521 14.4979 47.3964 15.4604C45.4547 16.2359 43.8964 17.8068 43.149 19.775C41.5245 17.9031 40.5333 15.4667 40.5333 12.8C40.5333 6.91823 45.3182 2.13333 51.2 2.13333ZM5.33333 27.7333C5.33333 21.8516 10.1182 17.0667 16 17.0667C21.8818 17.0667 26.6667 21.8516 26.6667 27.7333C26.6667 30.4083 25.6693 32.851 24.0365 34.7255C23.2917 32.75 21.7302 31.1714 19.7833 30.3938C20.7266 29.4313 21.312 28.1172 21.312 26.6667C21.312 23.726 18.9193 21.3333 15.9786 21.3333C13.038 21.3333 10.6453 23.726 10.6453 26.6667C10.6453 28.1172 11.2307 29.4313 12.175 30.3938C10.2391 31.1656 8.68281 32.7307 7.93281 34.6911C6.31771 32.8214 5.33333 30.3927 5.33333 27.7333ZM12.7786 26.6667C12.7786 24.9026 14.2146 23.4667 15.9786 23.4667C17.7427 23.4667 19.1786 24.9026 19.1786 26.6667C19.1786 28.4307 17.7427 29.8667 15.9786 29.8667C14.2146 29.8667 12.7786 28.4307 12.7786 26.6667ZM9.70052 36.3208C10.1813 33.8604 12.3531 32 14.912 32H17.0453C19.6141 32 21.7932 33.874 22.2625 36.349C20.5016 37.6328 18.3411 38.4 16 38.4C13.6417 38.4 11.4677 37.6214 9.70052 36.3208ZM31.0339 59.7875C31.5146 57.3271 33.6865 55.4667 36.2453 55.4667H38.3786C40.9474 55.4667 43.1266 57.3406 43.5958 59.8156C41.8349 61.0995 39.6745 61.8667 37.3333 61.8667C34.975 61.8667 32.801 61.088 31.0339 59.7875ZM37.312 53.3333C35.5479 53.3333 34.112 51.8974 34.112 50.1333C34.112 48.3693 35.5479 46.9333 37.312 46.9333C39.076 46.9333 40.512 48.3693 40.512 50.1333C40.512 51.8974 39.076 53.3333 37.312 53.3333ZM48 51.2C48 53.875 47.0026 56.3177 45.3698 58.1922C44.625 56.2167 43.0635 54.638 41.1167 53.8604C42.0599 52.8979 42.6453 51.5839 42.6453 50.1333C42.6453 47.1927 40.2526 44.8 37.312 44.8C34.3714 44.8 31.9786 47.1927 31.9786 50.1333C31.9786 51.5839 32.5641 52.8979 33.5083 53.8604C31.5724 54.6323 30.0161 56.1974 29.2661 58.1578C27.651 56.288 26.6667 53.8594 26.6667 51.2C26.6667 45.3182 31.4516 40.5333 37.3333 40.5333C43.2151 40.5333 48 45.3182 48 51.2ZM40.6604 38.8542C39.5979 38.5677 38.4854 38.4 37.3333 38.4C34.4063 38.4 31.7141 39.3984 29.5552 41.0583L25.3568 36.4396C27.4859 34.1526 28.8 31.0974 28.8 27.7333C28.8 26.3359 28.5677 24.9943 28.1516 23.7344L39.8828 18.7625C41.1969 21.2469 43.3057 23.2406 45.8677 24.4214L40.6604 38.8542Z" fill="#0449A9"></path></g><defs><clipPath id="clip0_1682_32"><rect width="64" height="64" fill="white"></rect></clipPath></defs></svg>