<svg xmlns="http://www.w3.org/2000/svg" width="57" height="62" viewBox="0 0 57 62" fill="none"><path d="M1 10.8677V5.65548C1 2.98029 3.16897 0.811314 5.84416 0.811314H31.7604C34.4356 0.811314 36.6046 2.98029 36.6046 5.65548V10.4391" stroke="#0458B9" stroke-width="1.5" stroke-miterlimit="10" stroke-linecap="round" stroke-linejoin="round"></path><path d="M36.6046 39.504V56.1558C36.6046 58.831 34.4356 61 31.7604 61H5.84416C3.16897 61 1 58.831 1 56.1558V15.1621" stroke="#0458B9" stroke-width="1.5" stroke-miterlimit="10" stroke-linecap="round" stroke-linejoin="round"></path><path d="M33.4634 53.3158V56.1557C33.4634 57.092 32.7041 57.8512 31.768 57.8512H5.85171C4.91557 57.8512 4.15625 57.092 4.15625 56.1557V5.65534C4.15625 4.7192 4.91557 3.95988 5.85171 3.95988H10.708C10.9914 3.95988 11.2421 4.13924 11.3341 4.40554L11.9735 6.2657C12.0656 6.53213 12.3162 6.71137 12.5996 6.71137H25.0201C25.3034 6.71137 25.5541 6.53213 25.6462 6.2657L26.2856 4.40554C26.3776 4.13924 26.6283 3.95988 26.9117 3.95988H31.768C32.7041 3.95988 33.4634 4.7192 33.4634 5.65534V10.439" stroke="#0458B9" stroke-width="1.5" stroke-miterlimit="10" stroke-linecap="round" stroke-linejoin="round"></path><path d="M33.4531 39.5039V49.08" stroke="#0458B9" stroke-width="1.5" stroke-miterlimit="10" stroke-linecap="round" stroke-linejoin="round"></path><path d="M23.5127 50.0399H14.0666C12.6621 50.0399 11.5234 48.9013 11.5234 47.4967C11.5234 46.0922 12.6621 44.9535 14.0666 44.9535H23.5127C24.9173 44.9535 26.0559 46.0922 26.0559 47.4967C26.0559 48.9013 24.9173 50.0399 23.5127 50.0399Z" stroke="#0458B9" stroke-width="1.5" stroke-miterlimit="10" stroke-linecap="round" stroke-linejoin="round"></path><path d="M48.7374 10.439H53.361C54.674 10.439 55.7383 11.5034 55.7383 12.8164V37.1266C55.7383 38.4396 54.674 39.504 53.361 39.504H11.6116C10.2988 39.504 9.23438 38.4396 9.23438 37.1266V12.8164C9.23438 11.5034 10.2988 10.439 11.6116 10.439H44.4678" stroke="#0458B9" stroke-width="1.5" stroke-miterlimit="10" stroke-linecap="round" stroke-linejoin="round"></path><path d="M39.7344 35.3556L42.3646 28.4498C42.4183 28.3184 42.6043 28.3181 42.6584 28.4494L45.2646 35.3556" stroke="#0458B9" stroke-width="1.5" stroke-miterlimit="10" stroke-linecap="round" stroke-linejoin="round"></path><path d="M40.5469 33.6357H44.4498" stroke="#0458B9" stroke-width="1.5" stroke-miterlimit="10" stroke-linecap="round" stroke-linejoin="round"></path><path d="M46.375 28.3511L48.6124 31.7776L50.8314 28.3687" stroke="#0458B9" stroke-width="1.5" stroke-miterlimit="10" stroke-linecap="round" stroke-linejoin="round"></path><path d="M48.6016 35.3556L48.6103 31.7776" stroke="#0458B9" stroke-width="1.5" stroke-miterlimit="10" stroke-linecap="round" stroke-linejoin="round"></path><path d="M34.6484 29.4435V35.3557" stroke="#0458B9" stroke-width="1.5" stroke-miterlimit="10" stroke-linecap="round" stroke-linejoin="round"></path><path d="M38.6141 30.3279C38.6141 31.4195 37.6905 32.3045 36.5987 32.3045C36.0574 32.3045 34.662 32.3132 34.662 32.3132C34.662 32.3132 34.6533 30.8781 34.6533 30.3279C34.6533 29.8759 34.6484 28.3512 34.6484 28.3512H36.5987C37.6905 28.3512 38.6141 29.2361 38.6141 30.3279Z" stroke="#0458B9" stroke-width="1.5" stroke-miterlimit="10" stroke-linecap="round" stroke-linejoin="round"></path><path d="M22.9226 21.4596H15.4141C15.0129 21.4596 14.6875 21.1342 14.6875 20.733V15.8888C14.6875 15.4876 15.0129 15.1622 15.4141 15.1622H22.9226C23.3238 15.1622 23.6492 15.4876 23.6492 15.8888V20.733C23.6492 21.1342 23.3238 21.4596 22.9226 21.4596Z" stroke="#0458B9" stroke-width="1.5" stroke-miterlimit="10" stroke-linecap="round" stroke-linejoin="round"></path><path d="M19.8915 35.0021H9.23438V28.7047H19.8915C21.6305 28.7047 23.0402 30.1144 23.0402 31.8534C23.0402 33.5923 21.6305 35.0021 19.8915 35.0021Z" stroke="#0458B9" stroke-width="1.5" stroke-miterlimit="10" stroke-linecap="round" stroke-linejoin="round"></path><path d="M31.4375 17.3503V18.8036" stroke="#0458B9" stroke-width="1.5" stroke-miterlimit="10" stroke-linecap="round" stroke-linejoin="round"></path><path d="M46.4219 17.3503V18.8036" stroke="#0458B9" stroke-width="1.5" stroke-miterlimit="10" stroke-linecap="round" stroke-linejoin="round"></path><path d="M49.6641 17.3503V18.8036" stroke="#0458B9" stroke-width="1.5" stroke-miterlimit="10" stroke-linecap="round" stroke-linejoin="round"></path><path d="M36.1328 17.3503V18.8036" stroke="#0458B9" stroke-width="1.5" stroke-miterlimit="10" stroke-linecap="round" stroke-linejoin="round"></path><path d="M39.5781 17.3503V18.8036" stroke="#0458B9" stroke-width="1.5" stroke-miterlimit="10" stroke-linecap="round" stroke-linejoin="round"></path></svg>