<svg xmlns="http://www.w3.org/2000/svg" width="59" height="65" viewBox="0 0 59 65" fill="none"><path d="M28.5538 8.59824V1.83314C28.5538 1.34911 28.9452 0.957642 29.4293 0.957642C29.9133 0.957642 30.3048 1.34911 30.3048 1.83314V8.59699C30.3048 9.08101 29.9133 9.47249 29.4293 9.47249C28.9452 9.47249 28.5538 9.08101 28.5538 8.59824ZM39.6163 12.2028C39.7539 12.2828 39.9052 12.3204 40.054 12.3204C40.3567 12.3204 40.6506 12.1628 40.8132 11.8826L44.1952 6.02553C44.4365 5.60654 44.294 5.07123 43.875 4.82985C43.456 4.58846 42.9207 4.73104 42.6793 5.15003L39.2974 11.0071C39.0547 11.4261 39.1973 11.9614 39.6163 12.2028ZM47.8335 20.0985C47.9823 20.0985 48.1324 20.061 48.2712 19.981L54.1283 16.599C54.5473 16.3577 54.6911 15.8211 54.4485 15.4034C54.2071 14.9844 53.6705 14.8405 53.2528 15.0832L47.3957 18.4651C46.9767 18.7065 46.8329 19.243 47.0755 19.6608C47.2369 19.9422 47.5308 20.0985 47.8335 20.0985ZM57.4439 28.9761H50.6801C50.1961 28.9761 49.8046 29.3676 49.8046 29.8516C49.8046 30.3356 50.1961 30.7271 50.6801 30.7271H57.4439C57.928 30.7271 58.3194 30.3356 58.3194 29.8516C58.3194 29.3676 57.928 28.9761 57.4439 28.9761ZM8.17466 28.9761H1.41456C0.930535 28.9761 0.539062 29.3676 0.539062 29.8516C0.539062 30.3356 0.930535 30.7271 1.41456 30.7271H8.17591C8.65993 30.7271 9.05141 30.3356 9.05141 29.8516C9.05141 29.3676 8.65868 28.9761 8.17466 28.9761ZM11.7805 19.6608C12.0218 19.2418 11.8793 18.7065 11.4603 18.4651L5.60319 15.0819C5.18421 14.8393 4.6489 14.9831 4.40751 15.4021C4.16613 15.8211 4.30871 16.3564 4.7277 16.5978L10.5848 19.9797C10.7224 20.0598 10.8737 20.0973 11.0225 20.0973C11.3239 20.0985 11.6179 19.9422 11.7805 19.6608ZM18.0415 11.8826C18.2041 12.164 18.498 12.3204 18.8007 12.3204C18.9495 12.3204 19.0996 12.2828 19.2372 12.2028C19.6562 11.9614 19.8 11.4261 19.5586 11.0071L16.1805 5.15003C15.9391 4.73104 15.4025 4.58721 14.9848 4.82859C14.5658 5.06998 14.422 5.60529 14.6633 6.02427L18.0415 11.8826ZM55.6179 51.7528C56.8336 52.9685 56.8336 54.9484 55.6179 56.1641C55.0101 56.7719 54.2108 57.0758 53.4116 57.0758C52.6124 57.0758 51.8145 56.7719 51.2054 56.1641L45.2783 50.2369L44.2827 51.2325C43.7624 51.7528 43.0683 52.0392 42.3266 52.0392C41.5849 52.0392 40.8908 51.7528 40.3705 51.2325C39.2936 50.1506 39.2949 48.3971 40.3705 47.3215L41.366 46.326L40.473 45.4329C39.0147 47.2878 37.5514 49.4227 36.377 52.2343V58.7818C36.377 62.2087 33.2602 64.9966 29.428 64.9966C25.5946 64.9966 22.4753 62.2087 22.4753 58.7818V52.2318C20.8856 48.4284 18.8357 45.947 16.8508 43.5469C13.9017 39.9798 11.1163 36.6117 11.1163 29.8366C11.1163 19.7396 19.331 11.5249 29.428 11.5249C39.5225 11.5249 47.7359 19.7396 47.7359 29.8366C47.7359 34.8995 46.1775 38.0037 44.384 40.5177L45.7786 41.9109L46.7729 40.9166C47.8485 39.841 49.6032 39.8398 50.6826 40.9154L50.6838 40.9166C51.762 41.9947 51.762 43.7495 50.6838 44.8276L49.6883 45.8232L55.6179 51.7528ZM34.6272 58.4916V56.478H24.2288V58.4916H34.6272ZM34.6272 52.9322H24.2288V54.7257H34.6272V52.9322ZM34.3395 60.2426H24.5165C25.2231 61.9886 27.158 63.2456 29.4305 63.2456C31.6993 63.2456 33.6329 61.9886 34.3395 60.2426ZM39.2273 44.186L37.3575 42.3162C35.1212 43.7245 32.556 44.4649 29.8933 44.4649C22.1601 44.4649 15.8678 38.1738 15.8678 30.4394C15.8678 22.705 22.1601 16.4139 29.8933 16.4139C37.6264 16.4139 43.9187 22.7063 43.9187 30.4394C43.9187 33.1034 43.1783 35.6686 41.77 37.9037L43.1283 39.2607C44.8655 36.7543 45.9862 34.0652 45.9862 29.8366C45.9862 20.7051 38.5594 13.2759 29.4293 13.2759C20.2978 13.2759 12.8686 20.7051 12.8686 29.8366C12.8686 35.9813 15.34 38.9693 18.2016 42.43C20.1102 44.7388 22.2627 47.3403 23.9324 51.1787H34.9211C36.1818 48.2846 37.7127 46.0958 39.2273 44.186ZM42.6055 45.0865L44.5416 43.1504L42.6455 41.2556C42.628 41.2393 42.6118 41.2231 42.5955 41.2055L40.024 38.6366C39.7226 38.3352 39.6813 37.8611 39.9277 37.5122C41.3936 35.4348 42.1678 32.9896 42.1678 30.4407C42.1678 23.6731 36.6621 18.1662 29.8933 18.1662C23.1244 18.1662 17.6188 23.6718 17.6188 30.4407C17.6188 37.2083 23.1244 42.7152 29.8933 42.7152C32.4422 42.7152 34.8874 41.941 36.9648 40.4751C37.3125 40.23 37.7878 40.27 38.0892 40.5714L41.0196 43.5019L41.0233 43.5056L42.6055 45.0865ZM44.6241 48.4146C44.6354 48.4021 44.6454 48.3896 44.6567 48.3784C44.6679 48.3671 44.6804 48.3559 44.6929 48.3459L47.796 45.2428C47.8072 45.2303 47.8172 45.2178 47.8297 45.2053C47.8422 45.1928 47.8547 45.1828 47.8672 45.1716L49.4469 43.5919C49.8359 43.2029 49.8359 42.5463 49.4481 42.1573C49.2493 41.9597 48.9891 41.8609 48.729 41.8609C48.4688 41.8609 48.2099 41.9597 48.0123 42.1561L46.4002 43.7683L46.3989 43.7695L46.3977 43.7708L43.2584 46.91C43.2471 46.9225 43.2371 46.9351 43.2246 46.9476C43.2121 46.9601 43.1996 46.9701 43.1871 46.9813L41.6074 48.561C41.2135 48.9562 41.2135 49.6003 41.6087 49.9968C41.7963 50.1844 42.0514 50.2895 42.3241 50.2895C42.5967 50.2895 42.8519 50.1857 43.042 49.9955L44.6241 48.4146ZM54.3784 52.991L48.4513 47.0639L46.5165 48.9987L52.4436 54.9258C52.9764 55.4587 53.8444 55.4587 54.3784 54.9258C54.9125 54.393 54.9125 53.5238 54.3784 52.991ZM37.4701 35.8437H36.5558V27.0512C36.5558 26.5672 36.1643 26.1757 35.6803 26.1757C35.1963 26.1757 34.8048 26.5672 34.8048 27.0512V35.8437H32.6811V30.7458C32.6811 30.2618 32.2896 29.8703 31.8056 29.8703C31.3216 29.8703 30.9301 30.2618 30.9301 30.7458V35.8437H28.8026V28.6684C28.8026 28.1844 28.4112 27.7929 27.9271 27.7929C27.4431 27.7929 27.0517 28.1844 27.0517 28.6684V35.8437H24.9267V31.2424C24.9267 30.7583 24.5352 30.3669 24.0512 30.3669C23.5672 30.3669 23.1757 30.7583 23.1757 31.2424V35.8437H22.2614C21.7774 35.8437 21.3859 36.2352 21.3859 36.7192C21.3859 37.2033 21.7774 37.5947 22.2614 37.5947H37.4713C37.9553 37.5947 38.3468 37.2033 38.3468 36.7192C38.3468 36.2352 37.9541 35.8437 37.4701 35.8437ZM24.0512 29.0824C24.2863 29.0824 24.5115 28.9873 24.6765 28.8197L28.071 25.3565L31.3591 27.2976C31.7131 27.5065 32.1658 27.4415 32.446 27.14L36.3207 22.9714C36.6496 22.6175 36.6296 22.0634 36.2756 21.7332C35.9217 21.4043 35.3676 21.4243 35.0374 21.7782L31.6418 25.4316L28.3699 23.4992C28.0235 23.2941 27.5807 23.3529 27.2993 23.6405L23.6822 27.3314H21.965C21.481 27.3314 21.0895 27.7229 21.0895 28.2069C21.0895 28.6909 21.481 29.0824 21.965 29.0824H24.0512Z" fill="#048DEF"></path></svg>