<svg xmlns="http://www.w3.org/2000/svg" width="57" height="57" viewBox="0 0 57 57" fill="none"><path d="M47.9507 36.6226L44.0664 40.507" stroke="#0369CA" stroke-width="2" stroke-miterlimit="10" stroke-linecap="round" stroke-linejoin="round"></path><path d="M13.8173 40.557L9.88281 36.6225" stroke="#0369CA" stroke-width="2" stroke-miterlimit="10" stroke-linecap="round" stroke-linejoin="round"></path><mask id="mask0_1577_153" style="mask-type:luminance" maskUnits="userSpaceOnUse" x="0" y="0" width="57" height="57"><path d="M0.917969 0.862061H56.918V56.8621H0.917969V0.862061Z" fill="white"></path></mask><g mask="url(#mask0_1577_153)"><path d="M42.7882 56.0419H55.2221C55.7143 56.0419 56.1134 55.6361 56.0981 55.1439C55.6245 40.5412 43.6359 28.848 28.9184 28.848C14.2009 28.848 2.21241 40.5412 1.73871 55.1439C1.7234 55.6361 2.12261 56.0419 2.6148 56.0419H38.9601" stroke="#0369CA" stroke-width="2" stroke-miterlimit="10" stroke-linecap="round" stroke-linejoin="round"></path><path d="M7.20703 56.0419C7.20703 44.0708 16.9469 34.3309 28.918 34.3309C40.8891 34.3309 50.6289 44.0708 50.6289 56.0419" stroke="#0369CA" stroke-width="2" stroke-miterlimit="10" stroke-linecap="round" stroke-linejoin="round"></path><path d="M29.832 52.0431L38.955 43.9963C39.5173 43.4998 40.3693 43.526 40.8997 44.0564C41.1765 44.3332 41.3153 44.6962 41.3153 45.0604C41.3153 45.3962 41.1972 45.7321 40.9598 46.0012L32.9131 55.1241" stroke="#0369CA" stroke-width="2" stroke-miterlimit="10" stroke-linecap="round" stroke-linejoin="round"></path><path d="M28.918 28.8622V34.3309" stroke="#0369CA" stroke-width="2" stroke-miterlimit="10" stroke-linecap="round" stroke-linejoin="round"></path><path d="M24.8164 56.0419C24.8164 53.7767 26.6528 51.9403 28.918 51.9403C31.1831 51.9403 33.0195 53.7767 33.0195 56.0419" stroke="#0369CA" stroke-width="2" stroke-miterlimit="10" stroke-linecap="round" stroke-linejoin="round"></path><path d="M45.4191 14.4343L52.3185 7.57216C52.5952 7.29763 53.0643 7.49341 53.0643 7.88289V11.4342C53.0643 12.2676 53.7436 12.9425 54.5814 12.9425C55.4182 12.9425 56.0974 12.2676 56.0974 11.4342V3.1906C56.0974 2.35716 55.4182 1.68232 54.5814 1.68232H46.2908C45.4541 1.68232 44.7749 2.35716 44.7749 3.1906C44.7749 4.02305 45.4541 4.69779 46.2908 4.69779H49.8597C50.2502 4.69779 50.446 5.17028 50.1693 5.44591L36.493 19.0467C36.1518 19.3859 35.6004 19.3859 35.2593 19.0467L26.8221 10.6554C25.6397 9.47966 23.7158 9.47966 22.5335 10.6554L2.18207 30.8953C1.59035 31.4849 1.59035 32.4397 2.18207 33.0281C2.47848 33.3223 2.86676 33.47 3.25394 33.47C3.64223 33.47 4.03051 33.3223 4.32691 33.0281L24.0614 13.402C24.4027 13.0628 24.9539 13.0628 25.2952 13.402L33.7323 21.7921C34.3044 22.3618 35.0668 22.6759 35.8761 22.6759C36.6866 22.6759 37.4479 22.3618 38.021 21.7921L42.7044 17.1337" stroke="#0369CA" stroke-width="2" stroke-miterlimit="10" stroke-linecap="round" stroke-linejoin="round"></path></g></svg>