<svg xmlns="http://www.w3.org/2000/svg" width="66" height="55" viewBox="0 0 66 55" fill="none"><path d="M29.3082 26.4767L29.3082 26.4767L29.309 26.4761C30.3259 25.7027 31.668 25.3119 33.0165 25.3119C34.365 25.3119 35.7071 25.7027 36.724 26.4761C38.6256 27.9236 39.0653 30.3898 37.8581 33.4787C36.4796 36.1589 34.7497 37.5797 33.0091 37.5797C31.2686 37.5797 29.5386 36.1589 28.1602 33.4787C27.5569 31.9349 27.3623 30.5455 27.5573 29.3646C27.7521 28.1853 28.3364 27.2055 29.3082 26.4767ZM26.6003 34.1409L26.6117 34.1701L26.6164 34.1748C26.6185 34.1804 26.6211 34.1871 26.6242 34.1939C26.628 34.2024 26.6338 34.2137 26.6423 34.226C28.2903 37.4557 30.555 39.2811 33.0091 39.2811C35.4636 39.2811 37.7135 37.4553 39.3758 34.2263C39.3844 34.2139 39.3902 34.2025 39.3941 34.1939C39.3972 34.1871 39.3998 34.1804 39.4018 34.1748L39.4063 34.1704L39.4177 34.1416C40.9089 30.3839 40.3098 27.0725 37.7463 25.1308L37.7462 25.1308C35.0818 23.1137 30.9365 23.1137 28.2721 25.1308L28.272 25.1308C25.7081 27.0727 25.1245 30.3695 26.6003 34.1409Z" fill="#0458B9" stroke="#0458B9" stroke-width="0.3"></path><path d="M25.4281 53.764C25.4281 54.2304 25.8051 54.6073 26.2714 54.6073C26.7313 54.6073 27.1312 54.2359 27.1147 53.7613V46.9638C27.1147 46.4974 26.7378 46.1205 26.2714 46.1205C25.8051 46.1205 25.4281 46.4974 25.4281 46.9638V53.764Z" fill="#0458B9" stroke="#0458B9" stroke-width="0.3"></path><path d="M38.8891 53.764C38.8891 54.2304 39.266 54.6073 39.7324 54.6073C40.1987 54.6073 40.5757 54.2304 40.5757 53.764V46.9638C40.5757 46.4974 40.1987 46.1205 39.7324 46.1205C39.266 46.1205 38.8891 46.4974 38.8891 46.9638V53.764Z" fill="#0458B9" stroke="#0458B9" stroke-width="0.3"></path><path d="M21.8257 47.3327C21.8257 44.2444 24.3397 41.7446 27.4138 41.7446H28.8959C31.5017 43.1163 34.4619 43.1314 37.069 41.7446H38.5802C41.6686 41.7446 44.1684 44.2586 44.1684 47.3327V52.9208H21.8257V47.3327ZM20.1391 53.7641C20.1391 53.981 20.2285 54.1944 20.3864 54.3539C20.536 54.5201 20.7543 54.6074 20.9824 54.6074H45.0264C45.4928 54.6074 45.8697 54.2305 45.8697 53.7641V47.3327C45.8697 43.3261 42.6016 40.058 38.595 40.058H36.8691C36.7268 40.058 36.5831 40.0935 36.4561 40.1659C34.2303 41.4086 31.7785 41.4086 29.5527 40.1659C29.4257 40.0935 29.282 40.058 29.1396 40.058H27.4138C23.4072 40.058 20.1391 43.3261 20.1391 47.3327V53.7641Z" fill="#0458B9" stroke="#0458B9" stroke-width="0.3"></path><path d="M15.6727 26.5486L15.6727 26.5486L15.6734 26.5498L21.8385 37.228C21.8386 37.2282 21.8387 37.2285 21.8389 37.2287C22.0002 37.515 22.2882 37.6585 22.574 37.6585C22.7116 37.6585 22.8751 37.6251 23.0098 37.5311C23.4008 37.296 23.5401 36.7808 23.3094 36.3726L23.3087 36.3714L17.1428 25.6917L17.1428 25.6917L17.142 25.6904C16.9085 25.2952 16.3903 25.1536 15.9803 25.3854L15.9802 25.3853L15.9778 25.3868C15.5825 25.6203 15.4409 26.1385 15.6727 26.5486Z" fill="#0458B9" stroke="#0458B9" stroke-width="0.3"></path><path d="M15.1353 30.5283L15.1353 30.5283L15.1394 30.5293C15.2005 30.5446 15.2892 30.5633 15.3675 30.5633C15.7453 30.5633 16.0806 30.3122 16.2031 29.9445L16.2033 29.9445L16.205 29.9384L17.006 27.1421L19.8304 27.8447L19.8304 27.8447L19.8316 27.845C20.2812 27.9529 20.7455 27.6669 20.8532 27.2179C20.9611 26.7685 20.6754 26.3044 20.2268 26.1964C20.2265 26.1963 20.2263 26.1963 20.2261 26.1962L16.6134 25.2967L16.6134 25.2967L16.6121 25.2964C16.168 25.1898 15.718 25.4391 15.592 25.888C15.592 25.8882 15.5919 25.8884 15.5919 25.8886L14.5602 29.47C14.4173 29.9208 14.6871 30.4028 15.1353 30.5283Z" fill="#0458B9" stroke="#0458B9" stroke-width="0.3"></path><path d="M43.0069 37.5506L43.0069 37.5508L43.0137 37.5542C43.15 37.6224 43.2909 37.6586 43.4348 37.6586C43.7245 37.6586 44.0069 37.4976 44.1657 37.2504L44.1659 37.2505L44.1695 37.2443L50.3354 26.5646L50.3354 26.5646L50.3361 26.5634C50.5656 26.1572 50.445 25.6356 50.0285 25.4002C49.6225 25.1707 49.1012 25.2911 48.8657 25.7071C48.8655 25.7073 48.8654 25.7075 48.8653 25.7078L42.7001 36.3863L42.7001 36.3863L42.6994 36.3874C42.4698 36.7936 42.5904 37.3152 43.0069 37.5506Z" fill="#0458B9" stroke="#0458B9" stroke-width="0.3"></path><path d="M46.1999 27.8599L46.1999 27.8599L46.2011 27.8596L49.0255 27.157L49.8258 29.9509C49.9184 30.316 50.2617 30.5635 50.6344 30.5635C50.6691 30.5635 50.7067 30.5596 50.7378 30.5565C50.7416 30.5561 50.7453 30.5557 50.7489 30.5554C50.7852 30.5517 50.8194 30.5487 50.8557 30.5487H50.8791L50.9014 30.5416C51.3465 30.3992 51.5974 29.935 51.4722 29.488L51.4722 29.488L51.4719 29.4869L50.4396 25.9035C50.4396 25.9033 50.4395 25.9031 50.4395 25.9029C50.3134 25.454 49.8635 25.2047 49.4194 25.3113L49.4194 25.3113L49.4181 25.3116L45.8053 26.2111C45.3383 26.3196 45.0714 26.7863 45.1781 27.2321C45.2864 27.6998 45.7536 27.967 46.1999 27.8599Z" fill="#0458B9" stroke="#0458B9" stroke-width="0.3"></path><path d="M22.9912 12.7561V12.7565C22.9912 18.397 18.4118 22.9764 12.7713 22.9764C7.14535 22.9764 2.55134 18.3969 2.55134 12.7565C2.55134 7.1306 7.13087 2.53659 12.7713 2.53659C18.412 2.53659 23.0057 7.13086 22.9912 12.7561ZM0.85 12.7713C0.85 19.3445 6.198 24.6925 12.7713 24.6925C19.3446 24.6925 24.6925 19.3297 24.6925 12.7713C24.6925 6.198 19.3445 0.85 12.7713 0.85C6.198 0.85 0.85 6.198 0.85 12.7713Z" fill="#0458B9" stroke="#0458B9" stroke-width="0.3"></path><path d="M10.8951 12.7565C10.8951 11.7323 11.7285 10.8856 12.766 10.8856C13.8035 10.8856 14.6369 11.7323 14.6369 12.7565C14.6369 13.7806 13.8035 14.6273 12.766 14.6273C11.7418 14.6273 10.8951 13.794 10.8951 12.7565ZM9.19375 12.7565C9.19375 14.7274 10.795 16.3287 12.766 16.3287C14.7369 16.3287 16.3382 14.7274 16.3382 12.7565C16.3382 10.7855 14.7369 9.18423 12.766 9.18423C10.795 9.18423 9.19375 10.7855 9.19375 12.7565Z" fill="#0458B9" stroke="#0458B9" stroke-width="0.3"></path><mask id="path-11-outside-1_1682_14" maskUnits="userSpaceOnUse" x="3.27344" y="3.28931" width="19" height="19" fill="black"><rect fill="white" x="3.27344" y="3.28931" width="19" height="19"></rect><path fill-rule="evenodd" clip-rule="evenodd" d="M12.0767 19.8663H13.4633V18.3912C13.4633 18.0667 13.6845 17.7864 13.9943 17.7127C14.4959 17.5947 14.9679 17.3882 15.4104 17.1226C15.6907 16.9604 16.0447 17.0046 16.266 17.2259L17.3133 18.2732L18.2868 17.2849L17.2395 16.2376C17.0183 16.0163 16.974 15.6623 17.1363 15.382C17.4018 14.9395 17.5936 14.4675 17.7263 13.9659C17.8001 13.6562 18.0803 13.4349 18.4049 13.4349H19.8799V12.0483H18.4049C18.0803 12.0483 17.8001 11.827 17.7263 11.5173C17.6083 11.0157 17.4018 10.5437 17.1363 10.1012C16.974 9.82091 17.0183 9.46689 17.2395 9.24563L18.2868 8.19831L17.3133 7.20999L16.266 8.25731C16.0447 8.47858 15.6907 8.52283 15.4104 8.36057C14.9679 8.09505 14.4959 7.90329 13.9943 7.77053C13.6845 7.69678 13.4633 7.41651 13.4633 7.09199V5.61689H12.0767V7.09199C12.0767 7.41651 11.8554 7.69678 11.5457 7.77053C11.0441 7.88854 10.5721 8.09505 10.1296 8.36057C9.8493 8.52283 9.49528 8.47858 9.27401 8.25731L8.22669 7.20999L7.25313 8.19831L8.30045 9.24563C8.52171 9.46689 8.56597 9.82091 8.40371 10.1012C8.13819 10.5437 7.94643 11.0157 7.81367 11.5173C7.73991 11.827 7.45964 12.0483 7.13512 12.0483H5.66003V13.4349H7.13512C7.45964 13.4349 7.73991 13.6562 7.81367 13.9659C7.93167 14.4675 8.13819 14.9395 8.40371 15.382C8.56597 15.6623 8.52171 16.0163 8.30045 16.2376L7.25313 17.2849L8.22669 18.2732L9.27401 17.2259C9.49528 17.0046 9.8493 16.9604 10.1296 17.1226C10.5721 17.3882 11.0441 17.5799 11.5457 17.7127C11.8554 17.7864 12.0767 18.0667 12.0767 18.3912V19.8663ZM14.1713 21.2677H11.3834C10.9999 21.2677 10.6901 20.9579 10.6901 20.5744V18.9223C10.4246 18.8337 10.1591 18.7157 9.9083 18.5977L8.74298 19.7631C8.61022 19.8958 8.43321 19.9696 8.2562 19.9696C8.06443 19.9696 7.88742 19.8958 7.76941 19.7631L5.80754 17.8012C5.54202 17.5209 5.54202 17.0784 5.80754 16.8129L6.97286 15.6475C6.8401 15.3968 6.73685 15.1313 6.64834 14.8657H4.96673C4.58321 14.8657 4.27344 14.556 4.27344 14.1724V11.3845C4.27344 11.001 4.58321 10.6912 4.96673 10.6912H6.61884C6.70735 10.4257 6.82535 10.1602 6.94336 9.90942L5.77804 8.74409C5.51252 8.47858 5.51252 8.03605 5.77804 7.75578L7.73991 5.7939C7.87267 5.66114 8.04968 5.58739 8.22669 5.58739C8.41846 5.58739 8.59547 5.66114 8.71348 5.7939L9.8788 6.95923C10.1296 6.82647 10.3951 6.72321 10.6606 6.63471V4.9826C10.6606 4.59908 10.9704 4.28931 11.3539 4.28931H14.1418C14.5254 4.28931 14.8351 4.59908 14.8351 4.9826V6.63471C15.1006 6.72321 15.3662 6.84122 15.6169 6.95923L16.7822 5.7939C16.915 5.66114 17.092 5.58739 17.269 5.58739C17.4608 5.58739 17.6378 5.66114 17.7558 5.7939L19.7177 7.75578C19.9832 8.03605 19.9832 8.47858 19.7177 8.74409L18.5524 9.90942C18.6851 10.1602 18.7884 10.4257 18.8769 10.6912H20.529C20.9125 10.6912 21.2223 11.001 21.2223 11.3845V14.1724C21.2223 14.556 20.9125 14.8657 20.529 14.8657H18.8769C18.7884 15.1313 18.6704 15.3968 18.5524 15.6475L19.7177 16.8129C19.9832 17.0784 19.9832 17.5209 19.7177 17.8012L17.7558 19.7631C17.6231 19.8958 17.446 19.9696 17.269 19.9696C17.0773 19.9696 16.9003 19.8958 16.7822 19.7631L15.6169 18.5977C15.3662 18.7157 15.1006 18.8337 14.8351 18.9223V20.5744C14.8646 20.9579 14.5549 21.2677 14.1713 21.2677Z"></path></mask><path fill-rule="evenodd" clip-rule="evenodd" d="M12.0767 19.8663H13.4633V18.3912C13.4633 18.0667 13.6845 17.7864 13.9943 17.7127C14.4959 17.5947 14.9679 17.3882 15.4104 17.1226C15.6907 16.9604 16.0447 17.0046 16.266 17.2259L17.3133 18.2732L18.2868 17.2849L17.2395 16.2376C17.0183 16.0163 16.974 15.6623 17.1363 15.382C17.4018 14.9395 17.5936 14.4675 17.7263 13.9659C17.8001 13.6562 18.0803 13.4349 18.4049 13.4349H19.8799V12.0483H18.4049C18.0803 12.0483 17.8001 11.827 17.7263 11.5173C17.6083 11.0157 17.4018 10.5437 17.1363 10.1012C16.974 9.82091 17.0183 9.46689 17.2395 9.24563L18.2868 8.19831L17.3133 7.20999L16.266 8.25731C16.0447 8.47858 15.6907 8.52283 15.4104 8.36057C14.9679 8.09505 14.4959 7.90329 13.9943 7.77053C13.6845 7.69678 13.4633 7.41651 13.4633 7.09199V5.61689H12.0767V7.09199C12.0767 7.41651 11.8554 7.69678 11.5457 7.77053C11.0441 7.88854 10.5721 8.09505 10.1296 8.36057C9.8493 8.52283 9.49528 8.47858 9.27401 8.25731L8.22669 7.20999L7.25313 8.19831L8.30045 9.24563C8.52171 9.46689 8.56597 9.82091 8.40371 10.1012C8.13819 10.5437 7.94643 11.0157 7.81367 11.5173C7.73991 11.827 7.45964 12.0483 7.13512 12.0483H5.66003V13.4349H7.13512C7.45964 13.4349 7.73991 13.6562 7.81367 13.9659C7.93167 14.4675 8.13819 14.9395 8.40371 15.382C8.56597 15.6623 8.52171 16.0163 8.30045 16.2376L7.25313 17.2849L8.22669 18.2732L9.27401 17.2259C9.49528 17.0046 9.8493 16.9604 10.1296 17.1226C10.5721 17.3882 11.0441 17.5799 11.5457 17.7127C11.8554 17.7864 12.0767 18.0667 12.0767 18.3912V19.8663ZM14.1713 21.2677H11.3834C10.9999 21.2677 10.6901 20.9579 10.6901 20.5744V18.9223C10.4246 18.8337 10.1591 18.7157 9.9083 18.5977L8.74298 19.7631C8.61022 19.8958 8.43321 19.9696 8.2562 19.9696C8.06443 19.9696 7.88742 19.8958 7.76941 19.7631L5.80754 17.8012C5.54202 17.5209 5.54202 17.0784 5.80754 16.8129L6.97286 15.6475C6.8401 15.3968 6.73685 15.1313 6.64834 14.8657H4.96673C4.58321 14.8657 4.27344 14.556 4.27344 14.1724V11.3845C4.27344 11.001 4.58321 10.6912 4.96673 10.6912H6.61884C6.70735 10.4257 6.82535 10.1602 6.94336 9.90942L5.77804 8.74409C5.51252 8.47858 5.51252 8.03605 5.77804 7.75578L7.73991 5.7939C7.87267 5.66114 8.04968 5.58739 8.22669 5.58739C8.41846 5.58739 8.59547 5.66114 8.71348 5.7939L9.8788 6.95923C10.1296 6.82647 10.3951 6.72321 10.6606 6.63471V4.9826C10.6606 4.59908 10.9704 4.28931 11.3539 4.28931H14.1418C14.5254 4.28931 14.8351 4.59908 14.8351 4.9826V6.63471C15.1006 6.72321 15.3662 6.84122 15.6169 6.95923L16.7822 5.7939C16.915 5.66114 17.092 5.58739 17.269 5.58739C17.4608 5.58739 17.6378 5.66114 17.7558 5.7939L19.7177 7.75578C19.9832 8.03605 19.9832 8.47858 19.7177 8.74409L18.5524 9.90942C18.6851 10.1602 18.7884 10.4257 18.8769 10.6912H20.529C20.9125 10.6912 21.2223 11.001 21.2223 11.3845V14.1724C21.2223 14.556 20.9125 14.8657 20.529 14.8657H18.8769C18.7884 15.1313 18.6704 15.3968 18.5524 15.6475L19.7177 16.8129C19.9832 17.0784 19.9832 17.5209 19.7177 17.8012L17.7558 19.7631C17.6231 19.8958 17.446 19.9696 17.269 19.9696C17.0773 19.9696 16.9003 19.8958 16.7822 19.7631L15.6169 18.5977C15.3662 18.7157 15.1006 18.8337 14.8351 18.9223V20.5744C14.8646 20.9579 14.5549 21.2677 14.1713 21.2677Z" fill="#0458B9"></path><path fill-rule="evenodd" clip-rule="evenodd" d="M12.0767 19.8663H13.4633V18.3912C13.4633 18.0667 13.6845 17.7864 13.9943 17.7127C14.4959 17.5947 14.9679 17.3882 15.4104 17.1226C15.6907 16.9604 16.0447 17.0046 16.266 17.2259L17.3133 18.2732L18.2868 17.2849L17.2395 16.2376C17.0183 16.0163 16.974 15.6623 17.1363 15.382C17.4018 14.9395 17.5936 14.4675 17.7263 13.9659C17.8001 13.6562 18.0803 13.4349 18.4049 13.4349H19.8799V12.0483H18.4049C18.0803 12.0483 17.8001 11.827 17.7263 11.5173C17.6083 11.0157 17.4018 10.5437 17.1363 10.1012C16.974 9.82091 17.0183 9.46689 17.2395 9.24563L18.2868 8.19831L17.3133 7.20999L16.266 8.25731C16.0447 8.47858 15.6907 8.52283 15.4104 8.36057C14.9679 8.09505 14.4959 7.90329 13.9943 7.77053C13.6845 7.69678 13.4633 7.41651 13.4633 7.09199V5.61689H12.0767V7.09199C12.0767 7.41651 11.8554 7.69678 11.5457 7.77053C11.0441 7.88854 10.5721 8.09505 10.1296 8.36057C9.8493 8.52283 9.49528 8.47858 9.27401 8.25731L8.22669 7.20999L7.25313 8.19831L8.30045 9.24563C8.52171 9.46689 8.56597 9.82091 8.40371 10.1012C8.13819 10.5437 7.94643 11.0157 7.81367 11.5173C7.73991 11.827 7.45964 12.0483 7.13512 12.0483H5.66003V13.4349H7.13512C7.45964 13.4349 7.73991 13.6562 7.81367 13.9659C7.93167 14.4675 8.13819 14.9395 8.40371 15.382C8.56597 15.6623 8.52171 16.0163 8.30045 16.2376L7.25313 17.2849L8.22669 18.2732L9.27401 17.2259C9.49528 17.0046 9.8493 16.9604 10.1296 17.1226C10.5721 17.3882 11.0441 17.5799 11.5457 17.7127C11.8554 17.7864 12.0767 18.0667 12.0767 18.3912V19.8663ZM14.1713 21.2677H11.3834C10.9999 21.2677 10.6901 20.9579 10.6901 20.5744V18.9223C10.4246 18.8337 10.1591 18.7157 9.9083 18.5977L8.74298 19.7631C8.61022 19.8958 8.43321 19.9696 8.2562 19.9696C8.06443 19.9696 7.88742 19.8958 7.76941 19.7631L5.80754 17.8012C5.54202 17.5209 5.54202 17.0784 5.80754 16.8129L6.97286 15.6475C6.8401 15.3968 6.73685 15.1313 6.64834 14.8657H4.96673C4.58321 14.8657 4.27344 14.556 4.27344 14.1724V11.3845C4.27344 11.001 4.58321 10.6912 4.96673 10.6912H6.61884C6.70735 10.4257 6.82535 10.1602 6.94336 9.90942L5.77804 8.74409C5.51252 8.47858 5.51252 8.03605 5.77804 7.75578L7.73991 5.7939C7.87267 5.66114 8.04968 5.58739 8.22669 5.58739C8.41846 5.58739 8.59547 5.66114 8.71348 5.7939L9.8788 6.95923C10.1296 6.82647 10.3951 6.72321 10.6606 6.63471V4.9826C10.6606 4.59908 10.9704 4.28931 11.3539 4.28931H14.1418C14.5254 4.28931 14.8351 4.59908 14.8351 4.9826V6.63471C15.1006 6.72321 15.3662 6.84122 15.6169 6.95923L16.7822 5.7939C16.915 5.66114 17.092 5.58739 17.269 5.58739C17.4608 5.58739 17.6378 5.66114 17.7558 5.7939L19.7177 7.75578C19.9832 8.03605 19.9832 8.47858 19.7177 8.74409L18.5524 9.90942C18.6851 10.1602 18.7884 10.4257 18.8769 10.6912H20.529C20.9125 10.6912 21.2223 11.001 21.2223 11.3845V14.1724C21.2223 14.556 20.9125 14.8657 20.529 14.8657H18.8769C18.7884 15.1313 18.6704 15.3968 18.5524 15.6475L19.7177 16.8129C19.9832 17.0784 19.9832 17.5209 19.7177 17.8012L17.7558 19.7631C17.6231 19.8958 17.446 19.9696 17.269 19.9696C17.0773 19.9696 16.9003 19.8958 16.7822 19.7631L15.6169 18.5977C15.3662 18.7157 15.1006 18.8337 14.8351 18.9223V20.5744C14.8646 20.9579 14.5549 21.2677 14.1713 21.2677Z" stroke="#0458B9" stroke-width="0.6" mask="url(#path-11-outside-1_1682_14)"></path><path d="M43.0123 12.7565C43.0123 7.1306 47.5918 2.53659 53.2322 2.53659C58.8726 2.53659 63.4521 7.1306 63.4521 12.7565C63.4521 18.397 58.8727 22.9764 53.2322 22.9764C47.6063 22.9764 43.0123 18.3969 43.0123 12.7565ZM41.3109 12.7713C41.3109 19.3445 46.6589 24.6925 53.2322 24.6925C59.8056 24.6925 65.1535 19.3297 65.1535 12.7713C65.1535 6.198 59.8055 0.85 53.2322 0.85C46.6589 0.85 41.3109 6.198 41.3109 12.7713Z" fill="#0458B9" stroke="#0458B9" stroke-width="0.3"></path><path d="M54.6687 16.5564L54.6672 16.5666V16.577V16.5771V16.5773V16.5775V16.5777V16.5778V16.578V16.5782V16.5783V16.5785V16.5787V16.5789V16.579V16.5792V16.5794V16.5796V16.5797V16.5799V16.5801V16.5802V16.5804V16.5806V16.5808V16.5809V16.5811V16.5813V16.5815V16.5816V16.5818V16.582V16.5821V16.5823V16.5825V16.5827V16.5828V16.583V16.5832V16.5834V16.5835V16.5837V16.5839V16.584V16.5842V16.5844V16.5846V16.5847V16.5849V16.5851V16.5853V16.5854V16.5856V16.5858V16.5859V16.5861V16.5863V16.5865V16.5866V16.5868V16.587V16.5872V16.5873V16.5875V16.5877V16.5878V16.588V16.5882V16.5884V16.5885V16.5887V16.5889V16.5891V16.5892V16.5894V16.5896V16.5898V16.5899V16.5901V16.5903V16.5904V16.5906V16.5908V16.591V16.5911V16.5913V16.5915V16.5917V16.5918V16.592V16.5922V16.5923V16.5925V16.5927V16.5929V16.593V16.5932V16.5934V16.5936V16.5937V16.5939V16.5941V16.5942V16.5944V16.5946V16.5948V16.5949V16.5951V16.5953V16.5955V16.5956V16.5958V16.596V16.5961V16.5963V16.5965V16.5967V16.5968V16.597V16.5972V16.5974V16.5975V16.5977V16.5979V16.598V16.5982V16.5984V16.5986V16.5987V16.5989V16.5991V16.5993V16.5994V16.5996V16.5998V16.5999V16.6001V16.6003V16.6005V16.6006V16.6008V16.601V16.6012V16.6013V16.6015V16.6017V16.6019V16.602V16.6022V16.6024V16.6025V16.6027V16.6029V16.6031V16.6032V16.6034V16.6036V16.6038V16.6039V16.6041V16.6043V16.6044V16.6046V16.6048V16.605V16.6051V16.6053V16.6055V16.6057V16.6058V16.606V16.6062V16.6063V16.6065V16.6067V16.6069V16.607V16.6072V16.6074V16.6076V16.6077V16.6079V16.6081V16.6082V16.6084V16.6086V16.6088V16.6089V16.6091V16.6093V16.6095V16.6096V16.6098V16.61V16.6101V16.6103V16.6105V16.6107V16.6108V16.611V16.6112V16.6114V16.6115V16.6117V16.6119V16.6121V16.6122V16.6124V16.6126V16.6127V16.6129V16.6131V16.6133V16.6134V16.6136V16.6138V16.614V16.6141V16.6143V16.6145V16.6146V16.6148V16.615V16.6152V16.6153V16.6155V16.6157V16.6159V16.616V16.6162V16.6164V16.6165V16.6167V16.6169V16.6171V16.6172V16.6174V16.6176V16.6178V16.6179V16.6181V16.6183V16.6184V16.6186V16.6188V16.619V16.6191V16.6193V16.6195V16.6197V16.6198V16.62V16.6202V16.6203V16.6205V16.6207V16.6209V16.621V16.6212V16.6214V16.6216V16.6217V16.6219V16.6221V16.6222V16.6224V16.6226V16.6228V16.6229V16.6231V16.6233V16.6235V16.6236V16.6238V16.624V16.6242V16.6243V16.6245V16.6247V16.6248V16.625V16.6252V16.6254V16.6255V16.6257V16.6259V16.6261V16.6262V16.6264V16.6266V16.6267V16.6269V16.6271V16.6273V16.6274V16.6276V16.6278V16.628V16.6281V16.6283V16.6285V16.6286V16.6288V16.629V16.6292V16.6293V16.6295V16.6297V16.6299V16.63V16.6302V16.6304V16.6305V16.6307V16.6309V16.6311V16.6312V16.6314V16.6316V16.6318V16.6319V16.6321V16.6323V16.6324V16.6326V16.6328V16.633V16.6331V16.6333V16.6335V16.6337V16.6338V16.634V16.6342V16.6343V16.6345V16.6347V16.6349V16.635V16.6352V16.6354V16.6356V16.6357V16.6359V16.6361V16.6363V16.6364V16.6366V16.6368V16.6369V16.6371V16.6373V16.6375V16.6376V16.6378V16.638V16.6382V16.6383V16.6385V16.6387V16.6388V16.639V16.6392V16.6394V16.6395V16.6397V16.6399V16.6401V16.6402V16.6404V16.6406V16.6407V16.6409V16.6411V16.6413V16.6414V16.6416V16.6418V16.642V16.6421V16.6423V16.6425V16.6426V16.6428V16.643V16.6432V16.6433V16.6435V16.6437V16.6439V16.644V16.6442V16.6444V16.6445V16.6447V16.6449V16.6451V16.6452V16.6454V16.6456V16.6458V16.6459V16.6461V16.6463V16.6465V16.6466V16.6468V16.647V16.6471V16.6473V16.6475V16.6477V16.6478V16.648V16.6482V16.6484V16.6485V16.6487V16.6489V16.649V16.6492V16.6494V16.6496V16.6497V16.6499V16.6501V16.6503V16.6504V16.6506V16.6508V16.6509V16.6511V16.6513V16.6515V16.6516V16.6518V16.652V16.6522V16.6523V16.6525V16.6527V16.6528V16.653V16.6532V16.6534V16.6535V16.6537V16.6539V16.6541V16.6542V16.6544V16.6546V16.6547V16.6549V16.6551V16.6553V16.6554V16.6556V16.6558V16.656V16.6561V16.6563V16.6565V16.6566V16.6568V16.657V16.6572V16.6573V16.6575V16.6577V16.6579V16.658V16.6582V16.6584V16.6586V16.6587V16.6589V16.6591V16.6592V16.6594V16.6596V16.6598V16.6599V16.6601V16.6603V16.6605V16.6606V16.6608V16.661V16.6611V16.6613V16.6615V16.6617V16.6618V16.662V16.6622V16.6624V16.6625V16.6627V16.6629V16.663V16.6632V16.6634V16.6636V16.6637V16.6639V16.6641V16.6643V16.6644V16.6646V16.6648V16.6649V16.6651V16.6653V16.6655V17.076H51.8214L51.8105 16.6635V16.577V16.5673L51.8093 16.5578C51.6117 15.0224 50.8486 14.0791 50.1985 13.2813C49.8137 12.8077 49.4675 12.3783 49.2145 11.8474C48.9632 11.32 48.8013 10.686 48.8013 9.80627C48.8013 7.36639 50.7849 5.36872 53.2389 5.36872C55.6788 5.36872 57.6764 7.35226 57.6764 9.80627C57.6764 10.686 57.5146 11.32 57.2632 11.8474C57.0103 12.3783 56.6641 12.8076 56.2793 13.2813C55.6282 14.0803 54.8813 15.0226 54.6687 16.5564ZM48.9906 14.2611C48.9803 14.2481 48.97 14.2352 48.9596 14.2222C48.1559 13.2142 47.25 12.0782 47.25 9.80627C47.25 6.50206 49.9347 3.81738 53.2389 3.81738C56.5431 3.81738 59.2278 6.50206 59.2278 9.80627C59.2278 12.0782 58.3219 13.2142 57.5181 14.2222C57.5078 14.2352 57.4975 14.2481 57.4872 14.2611C56.8824 14.9986 56.3661 15.6476 56.2038 16.7245V17.934C56.2038 18.3176 55.8941 18.6273 55.5105 18.6273H50.9672C50.5837 18.6273 50.2739 18.3176 50.2739 17.934L48.9906 14.2611ZM50.1239 16.7358V17.934C50.1239 18.4004 50.5009 18.7773 50.9672 18.7773H55.5105C55.9769 18.7773 56.3538 18.4004 56.3538 17.934V16.7358C56.5112 15.7098 57.001 15.0904 57.6032 14.3562L57.6045 14.3546C57.6157 14.3405 57.6269 14.3264 57.6382 14.3123C58.0334 13.8167 58.4643 13.2763 58.7971 12.5796C59.1407 11.8601 59.3778 10.9787 59.3778 9.80627C59.3778 6.41921 56.6259 3.66738 53.2389 3.66738C49.8518 3.66738 47.1 6.41921 47.1 9.80627C47.1 10.9787 47.3371 11.8601 47.6807 12.5796C48.0135 13.2763 48.4444 13.8167 48.8396 14.3123C48.8509 14.3264 48.8621 14.3405 48.8733 14.3546L48.8733 14.3546L48.8746 14.3562C49.4767 15.0904 49.9665 15.7098 50.1239 16.7358Z" fill="#0458B9" stroke="#0458B9" stroke-width="0.3"></path><path d="M51.903 21.8604H54.5729C55.5564 21.8604 56.3462 21.0545 56.3308 20.0718V17.9194C56.3308 17.453 55.9538 17.0761 55.4875 17.0761C55.0211 17.0761 54.6442 17.453 54.6442 17.9194V20.073C54.6442 20.1229 54.6081 20.159 54.5582 20.159H51.8882C51.8383 20.159 51.8022 20.1229 51.8022 20.073V17.9194C51.8022 17.453 51.4253 17.0761 50.9589 17.0761C50.4926 17.0761 50.1156 17.453 50.1156 17.9194V20.073C50.1156 21.0557 50.9203 21.8604 51.903 21.8604Z" fill="#0458B9" stroke="#0458B9" stroke-width="0.3"></path><path d="M52.1183 11.2332L52.1182 11.2331C51.741 10.9637 51.2048 11.0531 50.9354 11.4303C50.666 11.8074 50.7553 12.3435 51.1323 12.6129C51.1324 12.613 51.1325 12.613 51.1325 12.6131L52.3825 13.512V17.9341C52.3825 18.4005 52.7595 18.7774 53.2258 18.7774C53.6933 18.7774 54.0661 18.4006 54.0838 17.9399L54.0839 17.9399V17.9341V13.081C54.0839 12.7929 53.9396 12.5438 53.7289 12.3858L53.7289 12.3857L53.7262 12.3838L52.1183 11.2332Z" fill="#0458B9" stroke="#0458B9" stroke-width="0.3"></path><path d="M52.5291 13.5666L52.5291 13.5665C52.2597 13.1893 52.3491 12.6532 52.7262 12.3837C52.7262 12.3837 52.7263 12.3837 52.7263 12.3837L54.334 11.2332L54.3341 11.2331C54.7113 10.9637 55.2475 11.0531 55.5169 11.4303C55.7863 11.8074 55.697 12.3436 55.3198 12.613L55.3199 12.613L55.2326 12.491L55.3198 12.6131L52.5291 13.5666ZM52.5291 13.5666L52.5323 13.5708C52.7063 13.797 52.9557 13.9243 53.2265 13.9243C53.4059 13.9243 53.5697 13.8699 53.7134 13.7626L52.5291 13.5666Z" fill="#0458B9" stroke="#0458B9" stroke-width="0.3"></path></svg>