<svg xmlns="http://www.w3.org/2000/svg" width="60" height="60" viewBox="0 0 60 60" fill="none"><path d="M0.0799999 41.6074C0.115 42.0474 0.434 42.4124 0.866 42.5054L4.351 43.2574C4.474 43.8514 4.63 44.4374 4.819 45.0094L2.181 47.3994C1.854 47.6954 1.76 48.1714 1.95 48.5704C2.432 49.5844 2.969 50.5214 3.546 51.3554C3.796 51.7174 4.254 51.8734 4.675 51.7384L8.062 50.6474C8.467 51.1014 8.898 51.5324 9.352 51.9374L8.261 55.3244C8.126 55.7434 8.281 56.2024 8.644 56.4534C9.478 57.0304 10.415 57.5674 11.429 58.0494C11.829 58.2394 12.304 58.1444 12.6 57.8184L14.99 55.1804C15.563 55.3684 16.149 55.5254 16.743 55.6484L17.495 59.1334C17.588 59.5644 17.953 59.8834 18.392 59.9194C18.924 59.9614 19.457 59.9994 20 59.9994C20.543 59.9994 21.076 59.9614 21.608 59.9194C22.048 59.8844 22.413 59.5654 22.506 59.1334L23.258 55.6484C23.852 55.5254 24.439 55.3694 25.011 55.1804L27.401 57.8184C27.698 58.1454 28.174 58.2404 28.572 58.0494C29.586 57.5674 30.523 57.0294 31.357 56.4534C31.72 56.2024 31.875 55.7434 31.74 55.3244L30.649 51.9374C31.103 51.5324 31.534 51.1014 31.939 50.6484L35.326 51.7394C35.745 51.8754 36.204 51.7194 36.455 51.3564C37.032 50.5224 37.569 49.5854 38.051 48.5714C38.241 48.1724 38.147 47.6964 37.82 47.4004L35.182 45.0104C35.37 44.4374 35.527 43.8514 35.65 43.2574L39.135 42.5054C39.566 42.4124 39.885 42.0474 39.921 41.6084C39.962 41.0754 40 40.5424 40 39.9994C40 39.4564 39.962 38.9234 39.92 38.3914C39.885 37.9514 39.566 37.5864 39.134 37.4934L35.649 36.7414C35.526 36.1474 35.37 35.5604 35.181 34.9884L37.819 32.5984C38.146 32.3024 38.24 31.8264 38.05 31.4274C37.568 30.4134 37.03 29.4764 36.454 28.6424C36.203 28.2794 35.744 28.1234 35.325 28.2594L31.938 29.3504C31.533 28.8964 31.102 28.4654 30.648 28.0604L31.739 24.6734C31.874 24.2544 31.719 23.7954 31.356 23.5444C30.522 22.9674 29.585 22.4304 28.571 21.9484C28.171 21.7574 27.696 21.8524 27.4 22.1794L25.01 24.8174C24.437 24.6294 23.851 24.4724 23.257 24.3494L22.505 20.8644C22.412 20.4334 22.047 20.1144 21.608 20.0784C20.543 19.9924 19.456 19.9944 18.391 20.0784C17.951 20.1134 17.586 20.4324 17.493 20.8644L16.741 24.3494C16.147 24.4724 15.561 24.6284 14.989 24.8174L12.599 22.1794C12.303 21.8524 11.828 21.7584 11.428 21.9484C10.414 22.4304 9.477 22.9674 8.643 23.5444C8.28 23.7954 8.125 24.2544 8.26 24.6734L9.351 28.0604C8.897 28.4654 8.466 28.8964 8.061 29.3504L4.675 28.2594C4.255 28.1234 3.796 28.2794 3.546 28.6424C2.969 29.4764 2.432 30.4134 1.95 31.4274C1.76 31.8264 1.854 32.3024 2.181 32.5984L4.819 34.9884C4.631 35.5614 4.474 36.1474 4.351 36.7414L0.866 37.4934C0.435 37.5864 0.116 37.9514 0.0799999 38.3904C0.0379999 38.9234 0 39.4564 0 39.9994C0 40.5424 0.0379999 41.0754 0.0799999 41.6074ZM2.021 39.2904L5.423 38.5554C5.825 38.4684 6.133 38.1444 6.199 37.7384C6.349 36.8164 6.591 35.9114 6.918 35.0474C7.064 34.6634 6.959 34.2284 6.654 33.9524L4.085 31.6244C4.309 31.1954 4.543 30.7844 4.785 30.3954L8.081 31.4574C8.471 31.5824 8.901 31.4574 9.162 31.1394C9.752 30.4174 10.418 29.7524 11.14 29.1614C11.458 28.9014 11.585 28.4724 11.458 28.0804L10.396 24.7844C10.785 24.5414 11.195 24.3074 11.625 24.0844L13.953 26.6544C14.23 26.9594 14.666 27.0644 15.049 26.9184C15.911 26.5914 16.816 26.3494 17.739 26.1994C18.145 26.1334 18.469 25.8254 18.556 25.4234L19.29 22.0214C19.761 21.9964 20.24 21.9954 20.709 22.0214L21.444 25.4234C21.531 25.8254 21.855 26.1334 22.261 26.1994C23.183 26.3494 24.088 26.5914 24.952 26.9184C25.334 27.0644 25.77 26.9604 26.047 26.6544L28.375 24.0854C28.804 24.3094 29.215 24.5434 29.604 24.7854L28.542 28.0814C28.416 28.4734 28.542 28.9014 28.86 29.1624C29.582 29.7524 30.247 30.4184 30.838 31.1404C31.099 31.4594 31.528 31.5864 31.919 31.4584L35.215 30.3964C35.458 30.7854 35.692 31.1954 35.915 31.6244L33.345 33.9524C33.04 34.2284 32.935 34.6634 33.081 35.0484C33.408 35.9104 33.65 36.8154 33.8 37.7384C33.866 38.1444 34.174 38.4684 34.576 38.5554L37.978 39.2894C37.991 39.5244 38 39.7614 38 39.9994C38 40.2374 37.992 40.4744 37.979 40.7084L34.577 41.4434C34.175 41.5304 33.867 41.8544 33.801 42.2604C33.651 43.1824 33.409 44.0874 33.082 44.9514C32.936 45.3354 33.041 45.7704 33.346 46.0464L35.915 48.3744C35.691 48.8034 35.457 49.2144 35.215 49.6034L31.919 48.5414C31.526 48.4134 31.099 48.5404 30.838 48.8594C30.249 49.5794 29.583 50.2454 28.86 50.8374C28.542 51.0974 28.416 51.5264 28.542 51.9174L29.604 55.2134C29.215 55.4564 28.805 55.6904 28.376 55.9134L26.048 53.3434C25.772 53.0384 25.337 52.9354 24.952 53.0794C24.09 53.4064 23.185 53.6484 22.262 53.7984C21.856 53.8644 21.532 54.1724 21.445 54.5744L20.711 57.9764C20.24 58.0014 19.761 58.0024 19.292 57.9764L18.557 54.5744C18.47 54.1724 18.146 53.8644 17.74 53.7984C16.818 53.6484 15.913 53.4064 15.049 53.0794C14.666 52.9334 14.23 53.0374 13.954 53.3434L11.626 55.9124C11.197 55.6884 10.786 55.4544 10.397 55.2124L11.459 51.9164C11.585 51.5244 11.459 51.0964 11.141 50.8354C10.419 50.2454 9.754 49.5794 9.163 48.8574C8.902 48.5384 8.472 48.4124 8.082 48.5394L4.786 49.6014C4.543 49.2124 4.309 48.8024 4.086 48.3724L6.656 46.0444C6.961 45.7684 7.066 45.3334 6.92 44.9484C6.593 44.0864 6.351 43.1814 6.201 42.2584C6.135 41.8524 5.827 41.5284 5.425 41.4414L2.021 40.7094C2.009 40.4744 2 40.2374 2 39.9994C2 39.7614 2.008 39.5244 2.021 39.2904Z" fill="#048DEF"></path><path d="M52.219 14.2345C52.595 14.1165 52.867 13.7875 52.912 13.3955C52.972 12.8905 53 12.4335 53 11.9995C53 11.5655 52.972 11.1085 52.913 10.6035C52.868 10.2115 52.596 9.8825 52.22 9.7645L49.447 8.8935C49.364 8.6665 49.272 8.4435 49.171 8.2255L50.515 5.6505C50.697 5.3015 50.657 4.8775 50.413 4.5675C49.834 3.8355 49.168 3.1695 48.434 2.5885C48.124 2.3435 47.7 2.3045 47.351 2.4855L44.774 3.8295C44.556 3.7295 44.333 3.6375 44.106 3.5545L43.235 0.7815C43.117 0.4055 42.788 0.1335 42.396 0.0885C41.384 -0.0295 40.615 -0.0295 39.603 0.0885C39.211 0.1335 38.882 0.4055 38.764 0.7815L37.893 3.5545C37.666 3.6375 37.443 3.7295 37.225 3.8305L34.65 2.4865C34.301 2.3055 33.878 2.3445 33.567 2.5885C32.835 3.1675 32.169 3.8335 31.588 4.5675C31.343 4.8775 31.303 5.3005 31.485 5.6505L32.828 8.2255C32.728 8.4435 32.636 8.6665 32.553 8.8935L29.78 9.7645C29.404 9.8825 29.132 10.2115 29.087 10.6035C29.028 11.1085 29 11.5655 29 11.9995C29 12.4335 29.028 12.8905 29.087 13.3955C29.132 13.7875 29.404 14.1165 29.78 14.2345L32.553 15.1055C32.636 15.3325 32.728 15.5555 32.829 15.7735L31.485 18.3485C31.303 18.6975 31.343 19.1215 31.587 19.4315C32.166 20.1635 32.832 20.8295 33.566 21.4105C33.875 21.6555 34.3 21.6945 34.649 21.5135L37.224 20.1705C37.442 20.2705 37.665 20.3625 37.892 20.4455L38.763 23.2185C38.881 23.5945 39.21 23.8665 39.602 23.9115C40.109 23.9715 40.566 23.9995 41 23.9995C41.434 23.9995 41.891 23.9715 42.396 23.9125C42.788 23.8675 43.117 23.5955 43.235 23.2195L44.106 20.4465C44.333 20.3635 44.556 20.2715 44.774 20.1705L47.349 21.5145C47.698 21.6965 48.122 21.6575 48.432 21.4125C49.164 20.8335 49.83 20.1675 50.411 19.4335C50.656 19.1235 50.696 18.7005 50.514 18.3505L49.17 15.7755C49.271 15.5575 49.363 15.3345 49.446 15.1075L52.219 14.2345ZM48.359 13.3505C48.043 13.4505 47.797 13.6995 47.701 14.0175C47.565 14.4695 47.385 14.9045 47.167 15.3115C47.01 15.6035 47.007 15.9545 47.161 16.2475L48.43 18.6795C48.193 18.9425 47.942 19.1935 47.68 19.4295L45.248 18.1605C44.954 18.0065 44.603 18.0105 44.312 18.1665C43.905 18.3845 43.47 18.5645 43.018 18.7005C42.701 18.7955 42.451 19.0425 42.351 19.3585L41.527 21.9825C41.162 22.0045 40.839 22.0045 40.473 21.9825L39.649 19.3585C39.549 19.0425 39.3 18.7965 38.982 18.7005C38.529 18.5645 38.094 18.3845 37.689 18.1665C37.397 18.0095 37.046 18.0065 36.752 18.1605L34.32 19.4295C34.057 19.1925 33.806 18.9415 33.57 18.6795L34.839 16.2475C34.992 15.9545 34.99 15.6025 34.833 15.3115C34.615 14.9045 34.435 14.4695 34.299 14.0175C34.204 13.7005 33.957 13.4505 33.641 13.3505L31.017 12.5265C31.005 12.3435 31 12.1685 31 11.9995C31 11.8305 31.005 11.6555 31.017 11.4725L33.641 10.6485C33.957 10.5485 34.203 10.2995 34.299 9.9815C34.435 9.5285 34.615 9.0935 34.833 8.6885C34.99 8.3965 34.993 8.0455 34.839 7.7515L33.57 5.3195C33.807 5.0565 34.058 4.8055 34.32 4.5695L36.752 5.8385C37.045 5.9915 37.397 5.9885 37.688 5.8325C38.095 5.6145 38.53 5.4345 38.982 5.2985C39.299 5.2035 39.549 4.9565 39.649 4.6405L40.473 2.0165C40.838 1.9945 41.161 1.9945 41.527 2.0165L42.351 4.6405C42.451 4.9565 42.7 5.2025 43.018 5.2985C43.471 5.4345 43.906 5.6145 44.311 5.8325C44.603 5.9895 44.954 5.9925 45.248 5.8385L47.68 4.5695C47.943 4.8065 48.194 5.0575 48.43 5.3195L47.161 7.7515C47.008 8.0445 47.01 8.3965 47.167 8.6875C47.385 9.0945 47.565 9.5295 47.701 9.9815C47.796 10.2985 48.043 10.5485 48.359 10.6485L50.983 11.4725C50.995 11.6555 51 11.8305 51 11.9995C51 12.1685 50.995 12.3435 50.983 12.5265L48.359 13.3505Z" fill="#048DEF"></path><path d="M59.262 32.9635L57.544 32.3535C57.446 32.0745 57.334 31.8015 57.207 31.5365L57.988 29.8915C58.151 29.5495 58.106 29.1455 57.872 28.8475C57.372 28.2085 56.794 27.6295 56.153 27.1275C55.854 26.8935 55.448 26.8495 55.108 27.0115L53.462 27.7925C53.198 27.6665 52.925 27.5535 52.646 27.4565L52.035 25.7385C51.908 25.3815 51.589 25.1265 51.213 25.0805C50.322 24.9735 49.677 24.9735 48.786 25.0805C48.41 25.1255 48.091 25.3805 47.964 25.7385L47.354 27.4565C47.075 27.5545 46.802 27.6665 46.537 27.7935L44.892 27.0125C44.552 26.8505 44.147 26.8955 43.848 27.1285C43.209 27.6285 42.63 28.2065 42.128 28.8475C41.895 29.1455 41.85 29.5505 42.012 29.8925L42.793 31.5385C42.667 31.8025 42.554 32.0755 42.457 32.3545L40.739 32.9655C40.382 33.0925 40.127 33.4115 40.081 33.7875C40.026 34.2305 40 34.6275 40 34.9995C40 35.3715 40.026 35.7675 40.08 36.2125C40.125 36.5885 40.38 36.9075 40.738 37.0345L42.456 37.6445C42.554 37.9235 42.666 38.1965 42.793 38.4615L42.012 40.1065C41.849 40.4485 41.894 40.8525 42.128 41.1505C42.628 41.7895 43.206 42.3685 43.847 42.8705C44.145 43.1035 44.551 43.1485 44.892 42.9865L46.538 42.2055C46.802 42.3315 47.075 42.4445 47.354 42.5415L47.965 44.2595C48.092 44.6165 48.411 44.8715 48.787 44.9175C49.232 44.9735 49.628 44.9995 50 44.9995C50.372 44.9995 50.768 44.9735 51.213 44.9195C51.589 44.8745 51.908 44.6195 52.035 44.2615L52.645 42.5435C52.924 42.4455 53.197 42.3335 53.462 42.2065L55.107 42.9875C55.448 43.1505 55.854 43.1065 56.151 42.8715C56.79 42.3715 57.369 41.7935 57.871 41.1525C58.104 40.8545 58.149 40.4495 57.987 40.1075L57.206 38.4615C57.332 38.1975 57.445 37.9245 57.542 37.6455L59.26 37.0345C59.617 36.9075 59.872 36.5885 59.918 36.2125C59.974 35.7675 60 35.3715 60 34.9995C60 34.6275 59.974 34.2315 59.92 33.7865C59.875 33.4095 59.62 33.0915 59.262 32.9635ZM57.99 35.3645L56.405 35.9275C56.098 36.0365 55.863 36.2885 55.776 36.6025C55.645 37.0775 55.458 37.5305 55.221 37.9495C55.061 38.2325 55.049 38.5765 55.188 38.8705L55.906 40.3835C55.74 40.5655 55.566 40.7395 55.385 40.9045L53.872 40.1865C53.58 40.0475 53.235 40.0595 52.951 40.2195C52.531 40.4575 52.078 40.6435 51.605 40.7745C51.291 40.8615 51.039 41.0965 50.929 41.4035L50.366 42.9885C50.124 43.0015 49.878 43.0015 49.636 42.9885L49.073 41.4035C48.964 41.0965 48.712 40.8615 48.398 40.7745C47.923 40.6435 47.47 40.4565 47.051 40.2195C46.768 40.0605 46.425 40.0485 46.13 40.1865L44.617 40.9045C44.435 40.7385 44.261 40.5645 44.096 40.3835L44.814 38.8705C44.954 38.5765 44.941 38.2325 44.781 37.9495C44.543 37.5295 44.357 37.0765 44.226 36.6035C44.139 36.2895 43.904 36.0375 43.597 35.9275L42.012 35.3645C42.004 35.2435 42 35.1225 42 34.9995C42 34.8765 42.004 34.7545 42.01 34.6345L43.595 34.0705C43.902 33.9615 44.137 33.7095 44.223 33.3955C44.355 32.9195 44.542 32.4675 44.779 32.0485C44.939 31.7655 44.951 31.4215 44.812 31.1275L44.094 29.6145C44.26 29.4325 44.434 29.2585 44.615 29.0935L46.128 29.8115C46.422 29.9515 46.766 29.9395 47.049 29.7785C47.469 29.5405 47.922 29.3545 48.395 29.2235C48.709 29.1365 48.961 28.9015 49.071 28.5945L49.634 27.0095C49.876 26.9965 50.122 26.9965 50.364 27.0095L50.927 28.5945C51.036 28.9015 51.288 29.1365 51.602 29.2235C52.077 29.3545 52.53 29.5415 52.949 29.7785C53.233 29.9395 53.576 29.9515 53.87 29.8115L55.383 29.0935C55.565 29.2595 55.739 29.4335 55.904 29.6145L55.186 31.1275C55.046 31.4215 55.059 31.7655 55.219 32.0485C55.457 32.4685 55.643 32.9215 55.774 33.3945C55.861 33.7085 56.096 33.9605 56.403 34.0705L57.988 34.6335C57.996 34.7555 58 34.8765 58 34.9995C58 35.1225 57.996 35.2435 57.99 35.3645Z" fill="#048DEF"></path><path d="M20 50.9995C26.065 50.9995 31 46.0645 31 39.9995C31 33.9345 26.065 28.9995 20 28.9995C13.935 28.9995 9 33.9345 9 39.9995C9 46.0645 13.935 50.9995 20 50.9995ZM20 30.9995C24.962 30.9995 29 35.0375 29 39.9995C29 44.9615 24.962 48.9995 20 48.9995C15.038 48.9995 11 44.9615 11 39.9995C11 35.0375 15.038 30.9995 20 30.9995Z" fill="#048DEF"></path><path d="M0.0195312 23.3586L1.55553 24.6396C6.13453 19.1486 12.8555 15.9996 19.9975 15.9996C20.5065 15.9996 21.0145 16.0286 21.5225 16.0606L20.2905 17.2926L21.7045 18.7066L24.7045 15.7066C25.0955 15.3156 25.0955 14.6836 24.7045 14.2926L21.7045 11.2926L20.2905 12.7066L21.6495 14.0656C21.0995 14.0306 20.5485 13.9996 19.9975 13.9996C12.2615 13.9996 4.97953 17.4106 0.0195312 23.3586Z" fill="#048DEF"></path><path d="M41.0039 6.99963C38.2469 6.99963 36.0039 9.24263 36.0039 11.9996C36.0039 14.7566 38.2469 16.9996 41.0039 16.9996C43.7609 16.9996 46.0039 14.7566 46.0039 11.9996C46.0039 9.24263 43.7609 6.99963 41.0039 6.99963ZM41.0039 14.9996C39.3499 14.9996 38.0039 13.6536 38.0039 11.9996C38.0039 10.3456 39.3499 8.99963 41.0039 8.99963C42.6579 8.99963 44.0039 10.3456 44.0039 11.9996C44.0039 13.6536 42.6579 14.9996 41.0039 14.9996Z" fill="#048DEF"></path><path d="M50 30.9994C47.794 30.9994 46 32.7934 46 34.9994C46 37.2054 47.794 38.9994 50 38.9994C52.206 38.9994 54 37.2054 54 34.9994C54 32.7934 52.206 30.9994 50 30.9994ZM50 36.9994C48.897 36.9994 48 36.1024 48 34.9994C48 33.8964 48.897 32.9994 50 32.9994C51.103 32.9994 52 33.8964 52 34.9994C52 36.1024 51.103 36.9994 50 36.9994Z" fill="#048DEF"></path><path d="M59.1965 3.01948L54.1965 2.01948C53.6525 1.90948 53.1275 2.26248 53.0195 2.80348L52.0195 7.80348L53.9805 8.19648L54.5195 5.50448C55.4885 7.52048 56.0005 9.74248 56.0005 11.9995C56.0005 15.4475 54.8625 18.6895 52.7105 21.3745L54.2715 22.6255C56.6765 19.6245 58.0005 15.8515 58.0005 11.9995C58.0005 9.38048 57.3955 6.79848 56.2445 4.46848L58.8045 4.98048L59.1965 3.01948Z" fill="#048DEF"></path></svg>