<svg xmlns="http://www.w3.org/2000/svg" width="75" height="55" viewBox="0 0 75 55" fill="none"><path fill-rule="evenodd" clip-rule="evenodd" d="M1 30.2954C22.4989 30.2954 43.9979 30.2954 65.4968 30.2954L73.0669 42.0136L65.4968 53.7318C43.9979 53.7318 22.4989 53.7318 1 53.7318V30.2954Z" stroke="#0369CA" stroke-width="2" stroke-miterlimit="22.9256" stroke-linecap="round" stroke-linejoin="round"></path><path d="M44.125 30.4916L51.5685 42.0136L44.172 53.4631" stroke="#0369CA" stroke-width="2" stroke-miterlimit="22.9256" stroke-linecap="round" stroke-linejoin="round"></path><path d="M22.7444 30.6783L30.0672 42.0136L22.6953 53.4251" stroke="#0369CA" stroke-width="2" stroke-miterlimit="22.9256" stroke-linecap="round" stroke-linejoin="round"></path><path d="M54.7578 29.5631V1H73.0675L67.1617 7.59149L73.0675 14.183H55.4902" stroke="#0369CA" stroke-width="2" stroke-miterlimit="22.9256" stroke-linecap="round" stroke-linejoin="round"></path><path d="M33.2578 29.5631V18.9436" stroke="#0369CA" stroke-width="2" stroke-miterlimit="22.9256" stroke-linecap="round" stroke-linejoin="round"></path><path d="M11.7578 29.563V23.1548" stroke="#0369CA" stroke-width="2" stroke-miterlimit="22.9256" stroke-linecap="round" stroke-linejoin="round"></path><path d="M11.9644 22.4174C13.7812 22.3044 15.1623 20.74 15.0493 18.9232C14.9362 17.1065 13.3718 15.7254 11.5551 15.8384C9.73838 15.9515 8.35726 17.5158 8.47029 19.3326C8.58332 21.1493 10.1477 22.5304 11.9644 22.4174Z" stroke="#0369CA" stroke-width="2" stroke-miterlimit="22.9256" stroke-linecap="round" stroke-linejoin="round"></path><path d="M33.2567 18.2111C35.0769 18.2111 36.5524 16.7356 36.5524 14.9154C36.5524 13.0952 35.0769 11.6196 33.2567 11.6196C31.4365 11.6196 29.9609 13.0952 29.9609 14.9154C29.9609 16.7356 31.4365 18.2111 33.2567 18.2111Z" stroke="#0369CA" stroke-width="2" stroke-miterlimit="22.9256" stroke-linecap="round" stroke-linejoin="round"></path></svg>