<svg xmlns="http://www.w3.org/2000/svg" width="54" height="54" viewBox="0 0 54 54" fill="none"><path d="M50.7949 25.9686H49.1446V25.4603C49.1446 24.4267 48.3023 23.5858 47.2668 23.5858H46.1217C45.0864 23.5858 44.2441 24.4267 44.2441 25.4603V25.9686H39.9507V25.4603C39.9507 24.4975 39.2194 23.7026 38.2824 23.5983V0.843127C38.2824 0.377477 37.9049 0 37.4392 0H0.843175C0.377498 0 0 0.377477 0 0.843127V53.1569C0 53.6225 0.377498 54 0.843175 54H50.7949C52.5622 54 54 52.6534 54 50.9983V28.9672C53.9999 27.3138 52.5622 25.9686 50.7949 25.9686ZM45.9305 25.4602C45.9305 25.3581 46.018 25.2719 46.1217 25.2719H47.2668C47.3705 25.2719 47.4582 25.3581 47.4582 25.4602V28.7878C47.4582 28.8899 47.3705 28.9761 47.2668 28.9761H46.1217C46.0181 28.9761 45.9305 28.8899 45.9305 28.7878V25.4602ZM44.244 27.6548V28.7878C44.244 29.8214 45.0862 30.6623 46.1216 30.6623H47.2667C48.3021 30.6623 49.1445 29.8213 49.1445 28.7878V27.6548H50.7948C51.6322 27.6548 52.3134 28.2436 52.3134 28.9672V32.0555H23.1565V28.9672C23.1565 28.2436 23.8379 27.6548 24.6754 27.6548H25.8563V28.7878C25.8563 29.8214 26.6986 30.6623 27.734 30.6623H28.8791C29.9144 30.6623 30.7567 29.8213 30.7567 28.7878V27.6548H35.0501V28.7878C35.0501 29.8214 35.8924 30.6623 36.9279 30.6623H38.0728C39.1082 30.6623 39.9506 29.8213 39.9506 28.7878V27.6548H44.244ZM27.5427 28.7878V25.4602C27.5427 25.3581 27.6303 25.2719 27.734 25.2719H28.8791C28.9827 25.2719 29.0703 25.3581 29.0703 25.4602V28.7878C29.0703 28.8899 28.9828 28.9761 28.8791 28.9761H27.734C27.6303 28.9761 27.5427 28.8899 27.5427 28.7878ZM38.0728 25.272C38.1765 25.272 38.2641 25.3583 38.2641 25.4603V28.7879C38.2641 28.89 38.1765 28.9762 38.0728 28.9762H36.9279C36.8242 28.9762 36.7365 28.89 36.7365 28.7879V25.4603C36.7365 25.3583 36.8242 25.272 36.9279 25.272H38.0728ZM1.68635 1.68625H36.5959V23.6169C35.7186 23.7741 35.0502 24.5399 35.0502 25.4603V25.9686H30.7568V25.4603C30.7568 24.4267 29.9146 23.5858 28.8792 23.5858H27.7341C26.6988 23.5858 25.8564 24.4267 25.8564 25.4603V25.9686H24.6755C22.9081 25.9686 21.4702 27.3138 21.4702 28.9673V50.9984C21.4702 51.47 21.5872 51.9163 21.795 52.3139H1.68635V1.68625ZM50.7949 52.3137H24.6754C23.852 52.3137 23.1565 51.7114 23.1565 50.9983V33.7419H52.3137V50.9983C52.3135 51.7236 51.6323 52.3137 50.7949 52.3137ZM31.842 36.3278H27.5127C27.047 36.3278 26.6695 36.7052 26.6695 37.1709V41.4971C26.6695 41.9627 27.047 42.3402 27.5127 42.3402H31.842C32.3077 42.3402 32.6852 41.9627 32.6852 41.4971V37.1709C32.6852 36.7053 32.3077 36.3278 31.842 36.3278ZM30.9989 40.6539H28.3558V38.0141H30.9989V40.6539ZM39.825 36.3278H35.4986C35.0329 36.3278 34.6554 36.7052 34.6554 37.1709V41.4971C34.6554 41.9627 35.0329 42.3402 35.4986 42.3402H39.825C40.2907 42.3402 40.6682 41.9627 40.6682 41.4971V37.1709C40.6682 36.7053 40.2907 36.3278 39.825 36.3278ZM38.9818 40.6539H36.3418V38.0141H38.9818V40.6539ZM31.842 43.7153H27.5127C27.047 43.7153 26.6695 44.0928 26.6695 44.5584V48.8846C26.6695 49.3502 27.047 49.7277 27.5127 49.7277H31.842C32.3077 49.7277 32.6852 49.3502 32.6852 48.8846V44.5584C32.6852 44.0928 32.3077 43.7153 31.842 43.7153ZM30.9989 48.0415H28.3558V45.4017H30.9989V48.0415ZM39.825 43.7153H35.4986C35.0329 43.7153 34.6554 44.0928 34.6554 44.5584V48.8846C34.6554 49.3502 35.0329 49.7277 35.4986 49.7277H39.825C40.2907 49.7277 40.6682 49.3502 40.6682 48.8846V44.5584C40.6682 44.0928 40.2907 43.7153 39.825 43.7153ZM38.9818 48.0415H36.3418V45.4017H38.9818V48.0415ZM47.9604 36.3278H43.6312C43.1655 36.3278 42.788 36.7052 42.788 37.1709V41.4971C42.788 41.9627 43.1655 42.3402 43.6312 42.3402H47.9604C48.4261 42.3402 48.8036 41.9627 48.8036 41.4971V37.1709C48.8036 36.7053 48.4261 36.3278 47.9604 36.3278ZM47.1173 40.6539H44.4744V38.0141H47.1173V40.6539ZM47.9604 43.7153H43.6312C43.1655 43.7153 42.788 44.0928 42.788 44.5584V48.8846C42.788 49.3502 43.1655 49.7277 43.6312 49.7277H47.9604C48.4261 49.7277 48.8036 49.3502 48.8036 48.8846V44.5584C48.8036 44.0928 48.4261 43.7153 47.9604 43.7153ZM47.1173 48.0415H44.4744V45.4017H47.1173V48.0415ZM5.17528 15.08V6.01822C5.17528 5.55257 5.55278 5.1751 6.01846 5.1751H15.8164C16.2821 5.1751 16.6596 5.55257 16.6596 6.01822C16.6596 6.48387 16.2821 6.86135 15.8164 6.86135H6.86163V14.237H14.9732V11.6711L13.405 13.0944C13.244 13.2406 13.041 13.3133 12.8384 13.3133C12.6224 13.3133 12.4067 13.2307 12.2426 13.0668L10.3201 11.1473C9.99058 10.8184 9.99016 10.2845 10.3192 9.955C10.648 9.62551 11.182 9.62508 11.5116 9.95405L12.8661 11.3063L16.9359 7.6124C17.2807 7.29947 17.8136 7.3251 18.1269 7.66999C18.4398 8.01477 18.4141 8.54792 18.0693 8.86096L16.6596 10.1404V15.08C16.6596 15.5456 16.2821 15.9231 15.8164 15.9231H6.01846C5.55278 15.9231 5.17528 15.5456 5.17528 15.08ZM5.17528 31.5294V22.4706C5.17528 22.0049 5.55278 21.6275 6.01846 21.6275H15.8164C16.2821 21.6275 16.6596 22.0049 16.6596 22.4706C16.6596 22.9362 16.2821 23.3137 15.8164 23.3137H6.86163V30.6863H14.9732V28.1234L13.405 29.5467C13.244 29.693 13.041 29.7655 12.8384 29.7655C12.6222 29.7655 12.4063 29.6828 12.2422 29.5185L10.3197 27.5961C9.99037 27.2668 9.99037 26.7331 10.3197 26.4038C10.6489 26.0745 11.1829 26.0745 11.5121 26.4038L12.8665 27.7581L16.9359 24.0647C17.2807 23.7516 17.8136 23.7774 18.1269 24.1222C18.4398 24.467 18.4141 25.0002 18.0693 25.3132L16.6596 26.5927V31.5294C16.6596 31.9951 16.2821 32.3725 15.8164 32.3725H6.01846C5.55278 32.3725 5.17528 31.9951 5.17528 31.5294ZM18.1271 40.5749C18.4399 40.9198 18.414 41.453 18.069 41.7658L16.6596 43.0441V47.9817C16.6596 48.4473 16.2821 48.8248 15.8164 48.8248H6.01846C5.55278 48.8248 5.17528 48.4473 5.17528 47.9817V38.9229C5.17528 38.4572 5.55278 38.0797 6.01846 38.0797H15.8164C16.2821 38.0797 16.6596 38.4572 16.6596 38.9229C16.6596 39.3885 16.2821 39.766 15.8164 39.766H6.86163V47.1384H14.9732V44.5735L13.4047 45.9961C13.2438 46.1422 13.0409 46.2147 12.8384 46.2147C12.6224 46.2147 12.4067 46.1321 12.2426 45.9681L10.3201 44.0487C9.99058 43.7197 9.99016 43.1858 10.3192 42.8564C10.648 42.5269 11.182 42.5264 11.5116 42.8555L12.8663 44.208L16.9362 40.5166C17.2809 40.2039 17.814 40.2298 18.1271 40.5749ZM21.4701 6.01822C21.4701 5.55257 21.8476 5.1751 22.3132 5.1751H33.2771C33.7428 5.1751 34.1203 5.55257 34.1203 6.01822C34.1203 6.48387 33.7428 6.86135 33.2771 6.86135H22.3132C21.8476 6.86135 21.4701 6.48387 21.4701 6.01822ZM21.4701 10.5476C21.4701 10.082 21.8476 9.7045 22.3132 9.7045H33.2771C33.7428 9.7045 34.1203 10.082 34.1203 10.5476C34.1203 11.0133 33.7428 11.3908 33.2771 11.3908H22.3132C21.8476 11.3908 21.4701 11.0133 21.4701 10.5476Z" fill="#0369CA"></path></svg>