<svg xmlns="http://www.w3.org/2000/svg" width="60" height="62" viewBox="0 0 60 62" fill="none"><g clip-path="url(#clip0_1710_186)"><path d="M45 21.0703C50.5575 21.0703 55.0781 16.399 55.0781 10.6562C55.0781 4.9135 50.5575 0.242188 45 0.242188C39.4425 0.242188 34.9219 4.9135 34.9219 10.6562C34.9219 16.399 39.4425 21.0703 45 21.0703ZM45 1.69531C49.7822 1.69531 53.6719 5.71466 53.6719 10.6562C53.6719 15.5978 49.7822 19.6172 45 19.6172C40.2178 19.6172 36.3281 15.5978 36.3281 10.6562C36.3281 5.71466 40.2178 1.69531 45 1.69531Z" fill="#0458B9"></path><path d="M44.2969 16.1336V17.4375C44.2969 17.8386 44.6119 18.1641 45 18.1641C45.3881 18.1641 45.7031 17.8386 45.7031 17.4375V16.1336C47.0437 15.8032 48.0469 14.5632 48.0469 13.0781C48.0469 11.3421 46.68 9.92969 45 9.92969C44.0953 9.92969 43.3594 9.16922 43.3594 8.23438C43.3594 7.29953 44.0953 6.53906 45 6.53906C45.9047 6.53906 46.6406 7.29953 46.6406 8.23438V8.83984C46.6406 9.24091 46.9556 9.56641 47.3438 9.56641C47.7319 9.56641 48.0469 9.24091 48.0469 8.83984V8.23438C48.0469 6.74928 47.0437 5.50928 45.7031 5.17894V3.875C45.7031 3.47394 45.3881 3.14844 45 3.14844C44.6119 3.14844 44.2969 3.47394 44.2969 3.875V5.17894C42.9563 5.50928 41.9531 6.74928 41.9531 8.23438C41.9531 9.97038 43.32 11.3828 45 11.3828C45.9047 11.3828 46.6406 12.1433 46.6406 13.0781C46.6406 14.013 45.9047 14.7734 45 14.7734C44.0953 14.7734 43.3594 14.013 43.3594 13.0781V12.4727C43.3594 12.0716 43.0444 11.7461 42.6562 11.7461C42.2681 11.7461 41.9531 12.0716 41.9531 12.4727V13.0781C41.9531 14.5632 42.9563 15.8032 44.2969 16.1336Z" fill="#0458B9"></path><path d="M32.3438 22.0391C33.5063 22.0391 34.4531 21.0616 34.4531 19.8594C34.4531 18.6572 33.5063 17.6797 32.3438 17.6797C31.1812 17.6797 30.2344 18.6572 30.2344 19.8594C30.2344 21.0616 31.1812 22.0391 32.3438 22.0391ZM32.3438 19.1328C32.7309 19.1328 33.0469 19.4583 33.0469 19.8594C33.0469 20.2604 32.7309 20.5859 32.3438 20.5859C31.9566 20.5859 31.6406 20.2604 31.6406 19.8594C31.6406 19.4583 31.9566 19.1328 32.3438 19.1328Z" fill="#0458B9"></path><path d="M54.6094 19.375C54.6094 19.7761 54.9244 20.1016 55.3125 20.1016H56.4844V21.3125C56.4844 21.7136 56.7994 22.0391 57.1875 22.0391C57.5756 22.0391 57.8906 21.7136 57.8906 21.3125V20.1016H59.0625C59.4506 20.1016 59.7656 19.7761 59.7656 19.375C59.7656 18.9739 59.4506 18.6484 59.0625 18.6484H57.8906V17.4375C57.8906 17.0364 57.5756 16.7109 57.1875 16.7109C56.7994 16.7109 56.4844 17.0364 56.4844 17.4375V18.6484H55.3125C54.9244 18.6484 54.6094 18.9739 54.6094 19.375Z" fill="#0458B9"></path><path d="M23.4375 3.63281H24.6094V4.84375C24.6094 5.24481 24.9244 5.57031 25.3125 5.57031C25.7006 5.57031 26.0156 5.24481 26.0156 4.84375V3.63281H27.1875C27.5756 3.63281 27.8906 3.30731 27.8906 2.90625C27.8906 2.50519 27.5756 2.17969 27.1875 2.17969H26.0156V0.96875C26.0156 0.567687 25.7006 0.242188 25.3125 0.242188C24.9244 0.242188 24.6094 0.567687 24.6094 0.96875V2.17969H23.4375C23.0494 2.17969 22.7344 2.50519 22.7344 2.90625C22.7344 3.30731 23.0494 3.63281 23.4375 3.63281Z" fill="#0458B9"></path><path d="M7.03125 8.47656H9.84375C10.2319 8.47656 10.5469 8.15106 10.5469 7.75V3.875C10.5469 3.47394 10.2319 3.14844 9.84375 3.14844H7.03125C6.64312 3.14844 6.32812 3.47394 6.32812 3.875V7.75C6.32812 8.15106 6.64312 8.47656 7.03125 8.47656ZM7.73438 4.60156H9.14062V7.02344H7.73438V4.60156Z" fill="#0458B9"></path><path d="M12.6562 8.47656H15.4688C15.8569 8.47656 16.1719 8.15106 16.1719 7.75V3.875C16.1719 3.47394 15.8569 3.14844 15.4688 3.14844H12.6562C12.2681 3.14844 11.9531 3.47394 11.9531 3.875V7.75C11.9531 8.15106 12.2681 8.47656 12.6562 8.47656ZM13.3594 4.60156H14.7656V7.02344H13.3594V4.60156Z" fill="#0458B9"></path><path d="M7.03125 15.2578H9.84375C10.2319 15.2578 10.5469 14.9323 10.5469 14.5312V10.6562C10.5469 10.2552 10.2319 9.92969 9.84375 9.92969H7.03125C6.64312 9.92969 6.32812 10.2552 6.32812 10.6562V14.5312C6.32812 14.9323 6.64312 15.2578 7.03125 15.2578ZM7.73438 11.3828H9.14062V13.8047H7.73438V11.3828Z" fill="#0458B9"></path><path d="M12.6562 15.2578H15.4688C15.8569 15.2578 16.1719 14.9323 16.1719 14.5312V10.6562C16.1719 10.2552 15.8569 9.92969 15.4688 9.92969H12.6562C12.2681 9.92969 11.9531 10.2552 11.9531 10.6562V14.5312C11.9531 14.9323 12.2681 15.2578 12.6562 15.2578ZM13.3594 11.3828H14.7656V13.8047H13.3594V11.3828Z" fill="#0458B9"></path><path d="M7.03125 22.0391H9.84375C10.2319 22.0391 10.5469 21.7136 10.5469 21.3125V17.4375C10.5469 17.0364 10.2319 16.7109 9.84375 16.7109H7.03125C6.64312 16.7109 6.32812 17.0364 6.32812 17.4375V21.3125C6.32812 21.7136 6.64312 22.0391 7.03125 22.0391ZM7.73438 18.1641H9.14062V20.5859H7.73438V18.1641Z" fill="#0458B9"></path><path d="M12.6562 22.0391H15.4688C15.8569 22.0391 16.1719 21.7136 16.1719 21.3125V17.4375C16.1719 17.0364 15.8569 16.7109 15.4688 16.7109H12.6562C12.2681 16.7109 11.9531 17.0364 11.9531 17.4375V21.3125C11.9531 21.7136 12.2681 22.0391 12.6562 22.0391ZM13.3594 18.1641H14.7656V20.5859H13.3594V18.1641Z" fill="#0458B9"></path><path d="M10.5469 28.0938V24.2188C10.5469 23.8177 10.2319 23.4922 9.84375 23.4922H7.03125C6.64312 23.4922 6.32812 23.8177 6.32812 24.2188V28.0938C6.32812 28.4948 6.64312 28.8203 7.03125 28.8203H9.84375C10.2319 28.8203 10.5469 28.4948 10.5469 28.0938ZM9.14062 27.3672H7.73438V24.9453H9.14062V27.3672Z" fill="#0458B9"></path><path d="M12.6562 28.8203H15.4688C15.8569 28.8203 16.1719 28.4948 16.1719 28.0938V24.2188C16.1719 23.8177 15.8569 23.4922 15.4688 23.4922H12.6562C12.2681 23.4922 11.9531 23.8177 11.9531 24.2188V28.0938C11.9531 28.4948 12.2681 28.8203 12.6562 28.8203ZM13.3594 24.9453H14.7656V27.3672H13.3594V24.9453Z" fill="#0458B9"></path><path d="M24.375 16.7109H21.5625C21.1744 16.7109 20.8594 17.0364 20.8594 17.4375V21.3125C20.8594 21.7136 21.1744 22.0391 21.5625 22.0391H24.375C24.7631 22.0391 25.0781 21.7136 25.0781 21.3125V17.4375C25.0781 17.0364 24.7631 16.7109 24.375 16.7109ZM23.6719 20.5859H22.2656V18.1641H23.6719V20.5859Z" fill="#0458B9"></path><path d="M24.375 23.4922H21.5625C21.1744 23.4922 20.8594 23.8177 20.8594 24.2188V28.0938C20.8594 28.4948 21.1744 28.8203 21.5625 28.8203H24.375C24.7631 28.8203 25.0781 28.4948 25.0781 28.0938V24.2188C25.0781 23.8177 24.7631 23.4922 24.375 23.4922ZM23.6719 27.3672H22.2656V24.9453H23.6719V27.3672Z" fill="#0458B9"></path><path d="M24.375 30.2734H21.5625C21.1744 30.2734 20.8594 30.5989 20.8594 31V34.875C20.8594 35.2761 21.1744 35.6016 21.5625 35.6016H24.375C24.7631 35.6016 25.0781 35.2761 25.0781 34.875V31C25.0781 30.5989 24.7631 30.2734 24.375 30.2734ZM23.6719 34.1484H22.2656V31.7266H23.6719V34.1484Z" fill="#0458B9"></path><path d="M59.0625 37.0547H54.1406V35.0397C55.6022 34.7365 56.9531 33.4403 56.9531 30.5156C56.9531 27.8428 55.7016 23.9766 53.4375 23.9766C51.1734 23.9766 49.9219 27.8428 49.9219 30.5156C49.9219 33.4403 51.2728 34.7365 52.7344 35.0397V37.0547H45.7031V35.0397C47.1647 34.7365 48.5156 33.4403 48.5156 30.5156C48.5156 27.8428 47.2641 23.9766 45 23.9766C42.7359 23.9766 41.4844 27.8428 41.4844 30.5156C41.4844 33.4403 42.8353 34.7365 44.2969 35.0397V37.0547H37.2656V35.0397C38.7272 34.7365 40.0781 33.4403 40.0781 30.5156C40.0781 27.8428 38.8266 23.9766 36.5625 23.9766C34.2984 23.9766 33.0469 27.8428 33.0469 30.5156C33.0469 33.4403 34.3978 34.7365 35.8594 35.0397V37.0547H27.8906V14.5312C27.8906 14.1302 27.5756 13.8047 27.1875 13.8047H19.4531V0.96875C19.4531 0.567687 19.1381 0.242188 18.75 0.242188H3.75C3.36187 0.242188 3.04687 0.567687 3.04687 0.96875V37.0547H0.9375C0.549375 37.0547 0.234375 37.3802 0.234375 37.7812V41.6562C0.234375 41.8054 0.278438 41.9508 0.361875 42.0728L6.92437 51.7603C7.05562 51.955 7.27125 52.0703 7.5 52.0703H14.775L27.7162 61.6222C27.9844 61.8198 28.35 61.7985 28.5956 61.5708L37.8366 52.9761L53.5987 49.1437C53.7441 49.1088 53.8744 49.0265 53.9719 48.9093L59.5969 42.128C59.7066 41.9963 59.7666 41.8287 59.7666 41.6553V37.7803C59.7666 37.3792 59.4516 37.0537 59.0634 37.0537L59.0625 37.0547ZM51.3281 30.5156C51.3281 27.9446 52.5356 25.4297 53.4375 25.4297C54.3394 25.4297 55.5469 27.9446 55.5469 30.5156C55.5469 32.5161 54.7781 33.6641 53.4375 33.6641C52.0969 33.6641 51.3281 32.5161 51.3281 30.5156ZM42.8906 30.5156C42.8906 27.9446 44.0981 25.4297 45 25.4297C45.9019 25.4297 47.1094 27.9446 47.1094 30.5156C47.1094 32.5161 46.3406 33.6641 45 33.6641C43.6594 33.6641 42.8906 32.5161 42.8906 30.5156ZM34.4531 30.5156C34.4531 27.9446 35.6606 25.4297 36.5625 25.4297C37.4644 25.4297 38.6719 27.9446 38.6719 30.5156C38.6719 32.5161 37.9031 33.6641 36.5625 33.6641C35.2219 33.6641 34.4531 32.5161 34.4531 30.5156ZM19.4531 15.2578H26.4844V37.0547H19.4531V15.2578ZM4.45312 1.69531H18.0469V37.0547H14.2969V31C14.2969 30.5989 13.9819 30.2734 13.5937 30.2734H8.90625C8.51812 30.2734 8.20312 30.5989 8.20312 31V37.0547H4.45312V1.69531ZM12.8906 31.7266V37.0547H9.60937V31.7266H12.8906ZM15.4087 50.7528C15.2897 50.6647 15.1462 50.6172 15 50.6172H7.86656L2.28844 42.3828H12.9703L24.6984 47.9764L27.0572 59.3505L15.4087 50.7528ZM53.0531 47.7846L37.3387 51.6053C37.2234 51.6334 37.1175 51.6906 37.0294 51.7729L28.5581 59.6518L26.0006 47.3176C25.9547 47.0938 25.8084 46.9059 25.6078 46.81L16.3266 42.3838H45.1781L41.8969 45.7744H36.5634C36.1753 45.7744 35.8603 46.0999 35.8603 46.501C35.8603 46.902 36.1753 47.2275 36.5634 47.2275H42.1884C42.375 47.2275 42.5541 47.151 42.6853 47.0144L47.1666 42.3838H57.5344L53.0531 47.7846ZM58.3594 40.9297H1.64062V38.5078H58.3594V40.9297Z" fill="#0458B9"></path></g><defs><clipPath id="clip0_1710_186"><rect width="60" height="62" fill="white"></rect></clipPath></defs></svg>