<svg xmlns="http://www.w3.org/2000/svg" width="62" height="54" viewBox="0 0 62 54" fill="none"><path d="M6.72705 53.8565H55.4115C57.1659 53.8598 58.8487 53.1619 60.0862 51.9179C61.3231 50.6745 62.0123 48.9878 61.9998 47.2335V30.4505C61.9998 26.7798 59.0828 23.7582 55.4115 23.7582H53.3792L35.5094 7.03913C35.8285 6.37867 35.9937 5.65428 35.9932 4.92067C35.9916 2.20135 33.7853 -0.00162452 31.066 8.98884e-07C28.3467 0.00162632 26.1437 2.20786 26.1453 4.92718C26.1448 5.65861 26.3101 6.3803 26.6292 7.03805L8.75936 23.7582H6.72705C3.05578 23.7582 0 26.7798 0 30.4505V47.2335C0 50.9048 3.05578 53.8565 6.72705 53.8565ZM31.0693 2.22465C32.563 2.22465 33.774 3.43559 33.774 4.92934C33.774 6.4231 32.563 7.63403 31.0693 7.63403C29.5755 7.63403 28.3646 6.4231 28.3646 4.92934C28.3662 3.43613 29.5761 2.22628 31.0693 2.22465ZM28.0216 8.77562C29.8031 10.2027 32.3371 10.2011 34.1169 8.77128L50.1321 23.7582H12.0064L28.0216 8.77562ZM59.7806 47.1988C59.7806 49.6499 57.7933 51.6373 55.3421 51.6373H6.6577C4.20657 51.6373 2.21923 49.6499 2.21923 47.1988V30.4159C2.21923 27.9647 4.20657 25.9774 6.6577 25.9774H55.3421C57.7933 25.9774 59.7806 27.9647 59.7806 30.4159V47.1988Z" fill="#047BDC"></path><path d="M14.6345 43.7903C15.1753 43.7903 15.6748 43.5681 15.6748 43.1244V39.8476H16.6598L18.5599 43.5042C18.6937 43.7594 18.9663 43.9105 19.2534 43.89C19.8911 43.89 20.6128 43.2994 20.6128 42.7581C20.6139 42.6687 20.5901 42.5804 20.5435 42.5046L18.8509 39.4369C19.8218 39.0625 20.5294 38.1512 20.5294 36.5978C20.5294 34.3369 19.0177 33.606 17.1171 33.606H14.2461C14.0673 33.6108 13.8971 33.6872 13.7747 33.8183C13.6522 33.9489 13.5872 34.1234 13.5943 34.3027V43.1238C13.5943 43.5681 14.0938 43.7903 14.6345 43.7903ZM15.6748 35.5478H17.1171C17.894 35.5478 18.3654 35.8945 18.3654 36.8655C18.3654 37.8364 17.894 38.1831 17.1171 38.1831H15.6748V35.5478Z" fill="#047BDC"></path><path d="M24.0084 43.7312H28.9459C29.4037 43.7312 29.5977 43.2875 29.5977 42.8437C29.5977 42.3306 29.362 41.9281 28.9459 41.9281H25.2427V39.5701H27.3091C27.7669 39.5701 27.9614 39.1264 27.9614 38.752C27.9614 38.3083 27.7252 37.9057 27.3091 37.9057H25.2427V35.5478H28.9459C29.362 35.5478 29.5977 35.0764 29.5977 34.5633C29.5977 34.119 29.4037 33.606 28.9459 33.606H24.0084C23.5365 33.606 23.0234 33.8725 23.0234 34.3163V43.1238C23.0234 43.5681 23.5365 43.7312 24.0084 43.7312Z" fill="#047BDC"></path><path d="M33.0081 43.7902C33.5488 43.7902 34.1177 43.5681 34.1177 43.1243V38.4085L36.7389 43.2078C37.0028 43.6932 37.4189 43.7902 37.9179 43.7902C38.4592 43.7902 38.9722 43.5681 38.9722 43.1243V34.3032C38.9722 33.8454 38.4727 33.6509 37.932 33.6509C37.3913 33.6509 36.8917 33.8454 36.8917 34.3032V39.0191L34.6237 34.7329C34.0971 33.7202 33.7812 33.6509 33.0048 33.6509C32.4635 33.6509 31.8984 33.8589 31.8984 34.3168V43.1243C31.8984 43.5681 32.4673 43.7902 33.0081 43.7902Z" fill="#047BDC"></path><path d="M41.9096 35.5478H43.8238V43.1244C43.8238 43.5681 44.3927 43.7903 44.9334 43.7903C45.4741 43.7903 46.043 43.5681 46.043 43.1244V35.5478H47.9014C48.3175 35.5478 48.5538 35.09 48.5538 34.5633C48.5538 34.1055 48.3593 33.606 47.9014 33.606H41.9096C41.4518 33.606 41.2578 34.1055 41.2578 34.5633C41.2578 35.09 41.4935 35.5478 41.9096 35.5478Z" fill="#047BDC"></path></svg>