<svg xmlns="http://www.w3.org/2000/svg" width="59" height="62" viewBox="0 0 59 62" fill="none"><path d="M54.6447 15.0059H53.4211C54.5143 13.7118 55.231 12.1093 55.4846 10.3923C55.7382 8.67517 55.5178 6.91688 54.8501 5.32986C54.1824 3.74283 53.0959 2.39497 51.7219 1.44915C50.3479 0.503321 48.7452 0 47.1075 0C45.4698 0 43.8671 0.503321 42.4932 1.44915C41.1192 2.39497 40.0327 3.74283 39.365 5.32986C38.6972 6.91688 38.4769 8.67517 38.7304 10.3923C38.984 12.1093 39.7007 13.7118 40.7939 15.0059H29.2067V5.00714C29.2067 4.74196 29.1074 4.48763 28.9307 4.30012C28.754 4.11261 28.5144 4.00726 28.2645 4.00726H24.4959C24.246 4.00726 24.0064 4.11261 23.8297 4.30012C23.653 4.48763 23.5538 4.74196 23.5538 5.00714V15.0059H22.6116V1.00764C22.6116 0.742456 22.5124 0.488134 22.3357 0.300621C22.159 0.113108 21.9193 0.00776468 21.6695 0.00776468H17.9009C17.651 0.00776468 17.4113 0.113108 17.2347 0.300621C17.058 0.488134 16.9587 0.742456 16.9587 1.00764V15.0059H16.0166V8.00676C16.0166 7.74158 15.9173 7.48726 15.7406 7.29974C15.5639 7.11223 15.3243 7.00689 15.0744 7.00689H11.3058C11.0559 7.00689 10.8163 7.11223 10.6396 7.29974C10.4629 7.48726 10.3637 7.74158 10.3637 8.00676V15.0059H3.7686C2.76945 15.0071 1.81154 15.4288 1.10504 16.1786C0.39853 16.9284 0.00112215 17.945 0 19.0054V49.0016C0.00112215 50.062 0.39853 51.0786 1.10504 51.8284C1.81154 52.5782 2.76945 52.9999 3.7686 53.0011H23.1887L21.9321 57.0006H18.843C18.5931 57.0006 18.3535 57.106 18.1768 57.2935C18.0001 57.481 17.9009 57.7353 17.9009 58.0005V60.0003H8.47936C8.22948 60.0003 7.98984 60.1056 7.81315 60.2931C7.63647 60.4806 7.5372 60.7349 7.5372 61.0001C7.5372 61.2653 7.63647 61.5196 7.81315 61.7071C7.98984 61.8947 8.22948 62 8.47936 62H49.934C50.1839 62 50.4235 61.8947 50.6002 61.7071C50.7769 61.5196 50.8761 61.2653 50.8761 61.0001C50.8761 60.7349 50.7769 60.4806 50.6002 60.2931C50.4235 60.1056 50.1839 60.0003 49.934 60.0003H40.5125V58.0005C40.5125 57.7353 40.4132 57.481 40.2365 57.2935C40.0598 57.106 39.8202 57.0006 39.5703 57.0006H36.4812L35.2247 53.0011H54.6447C55.6439 52.9999 56.6018 52.5782 57.3083 51.8284C58.0148 51.0786 58.4122 50.062 58.4133 49.0016V19.0054C58.4122 17.945 58.0148 16.9284 57.3083 16.1786C56.6018 15.4288 55.6439 15.0071 54.6447 15.0059ZM48.0497 2.08001C49.4578 2.29807 50.7619 2.99268 51.7681 4.06053C52.7743 5.12839 53.4288 6.51242 53.6343 8.00676H48.0497V2.08001ZM47.4973 10.0065H53.6343C53.4716 11.208 53.017 12.3438 52.3153 13.3024C51.6136 14.2609 50.689 15.0092 49.6323 15.4736C48.5755 15.938 47.4231 16.1026 46.2883 15.9511C45.1535 15.7996 44.0754 15.3373 43.1599 14.6097L47.4973 10.0065ZM40.5125 9.00664C40.5147 7.32433 41.087 5.69899 42.1248 4.42734C43.1626 3.15569 44.5968 2.32254 46.1654 2.08001V8.59294L41.828 13.1961C40.9727 11.9881 40.511 10.5176 40.5125 9.00664ZM25.4381 6.00701H27.3224V25.0046H25.4381V6.00701ZM22.6116 17.0056H23.5538V25.0046H22.6116V17.0056ZM18.843 2.00751H20.7273V25.0046H18.843V2.00751ZM16.0166 17.0056H16.9587V25.0046H16.0166V17.0056ZM12.248 9.00664H14.1323V25.0046H12.248V9.00664ZM38.6282 59.0004V60.0003H19.7852V59.0004H38.6282ZM23.9188 57.0006L25.1754 53.0011H33.2379L34.4945 57.0006H23.9188ZM56.529 49.0016C56.5284 49.5318 56.3296 50.04 55.9764 50.4149C55.6232 50.7898 55.1443 51.0007 54.6447 51.0014H3.7686C3.26906 51.0007 2.79016 50.7898 2.43692 50.4149C2.08369 50.04 1.88496 49.5318 1.8843 49.0016V47.0019H56.529V49.0016ZM56.529 45.0021H1.8843V19.0054C1.88496 18.4752 2.08369 17.967 2.43692 17.5921C2.79016 17.2172 3.26906 17.0063 3.7686 17.0056H10.3637V25.0046H9.42151V19.0054C9.42151 18.7402 9.32224 18.4859 9.14556 18.2984C8.96887 18.1109 8.72923 18.0055 8.47936 18.0055H4.71075C4.46088 18.0055 4.22124 18.1109 4.04455 18.2984C3.86786 18.4859 3.7686 18.7402 3.7686 19.0054V26.0045C3.7686 26.2697 3.86786 26.524 4.04455 26.7115C4.22124 26.899 4.46088 27.0044 4.71075 27.0044H34.8596C35.1094 27.0044 35.3491 26.899 35.5258 26.7115C35.7025 26.524 35.8017 26.2697 35.8017 26.0045V19.0054C35.8017 18.7402 35.7025 18.4859 35.5258 18.2984C35.3491 18.1109 35.1094 18.0055 34.8596 18.0055H31.091C30.8411 18.0055 30.6015 18.1109 30.4248 18.2984C30.2481 18.4859 30.1488 18.7402 30.1488 19.0054V25.0046H29.2067V17.0056H43.2306C44.4291 17.6627 45.7585 18.0055 47.1075 18.0055C48.4565 18.0055 49.7859 17.6627 50.9845 17.0056H54.6447C55.1443 17.0063 55.6232 17.2172 55.9764 17.5921C56.3296 17.967 56.5284 18.4752 56.529 19.0054V45.0021ZM7.5372 20.0053V25.0046H5.6529V20.0053H7.5372ZM32.0331 25.0046V20.0053H33.9174V25.0046H32.0331Z" fill="#0369CA"></path><path d="M10.3685 48.0018H4.71559C4.46571 48.0018 4.22607 48.1072 4.04939 48.2947C3.8727 48.4822 3.77344 48.7365 3.77344 49.0017C3.77344 49.2669 3.8727 49.5212 4.04939 49.7087C4.22607 49.8962 4.46571 50.0016 4.71559 50.0016H10.3685C10.6184 50.0016 10.858 49.8962 11.0347 49.7087C11.2114 49.5212 11.3106 49.2669 11.3106 49.0017C11.3106 48.7365 11.2114 48.4822 11.0347 48.2947C10.858 48.1072 10.6184 48.0018 10.3685 48.0018Z" fill="#0369CA"></path><path d="M14.1343 48.0018H13.1922C12.9423 48.0018 12.7026 48.1072 12.5259 48.2947C12.3493 48.4822 12.25 48.7365 12.25 49.0017C12.25 49.2669 12.3493 49.5212 12.5259 49.7087C12.7026 49.8962 12.9423 50.0016 13.1922 50.0016H14.1343C14.3842 50.0016 14.6238 49.8962 14.8005 49.7087C14.9772 49.5212 15.0765 49.2669 15.0765 49.0017C15.0765 48.7365 14.9772 48.4822 14.8005 48.2947C14.6238 48.1072 14.3842 48.0018 14.1343 48.0018Z" fill="#0369CA"></path><path d="M39.5711 25.0045C39.6948 25.0047 39.8174 24.9789 39.9317 24.9286C40.0461 24.8784 40.1499 24.8046 40.2373 24.7117L43.7299 21.005H51.819C52.0689 21.005 52.3086 20.8997 52.4853 20.7121C52.6619 20.5246 52.7612 20.2703 52.7612 20.0051C52.7612 19.7399 52.6619 19.4856 52.4853 19.2981C52.3086 19.1106 52.0689 19.0052 51.819 19.0052H43.3397C43.216 19.0052 43.0935 19.0311 42.9791 19.0813C42.8648 19.1316 42.761 19.2052 42.6735 19.2981L38.9049 23.2976C38.7731 23.4374 38.6834 23.6156 38.647 23.8095C38.6107 24.0035 38.6293 24.2046 38.7006 24.3873C38.7719 24.57 38.8927 24.7261 39.0476 24.836C39.2026 24.9459 39.3847 25.0045 39.5711 25.0045Z" fill="#0369CA"></path><path d="M51.8225 36.0033C51.3274 36.0036 50.8411 36.142 50.4122 36.4046C49.9833 36.6672 49.627 37.0447 49.3788 37.4993L39.5157 31.3926C39.382 30.7112 39.0293 30.1003 38.5179 29.6646C38.0065 29.2289 37.3683 28.9955 36.7125 29.0044C36.0568 29.0133 35.4243 29.2638 34.9235 29.7132C34.4228 30.1626 34.0848 30.7828 33.9676 31.4676L24.042 39.3678C23.772 38.9265 23.3973 38.5685 22.9555 38.3296C22.5137 38.0908 22.0205 37.9796 21.5254 38.0072C21.0302 38.0348 20.5507 38.2003 20.135 38.4869C19.7192 38.7736 19.3819 39.1714 19.157 39.6403L9.34682 35.3021C9.19204 34.6172 8.81516 34.0118 8.28218 33.5921C7.7492 33.1724 7.09408 32.965 6.43153 33.0062C5.76898 33.0475 5.14121 33.3348 4.65814 33.8178C4.17508 34.3008 3.8675 34.9488 3.78925 35.6482C3.71101 36.3476 3.8671 37.054 4.23018 37.6436C4.59326 38.2332 5.1402 38.6685 5.77523 38.8733C6.41027 39.078 7.09293 39.0392 7.7037 38.7635C8.31446 38.4879 8.81441 37.993 9.116 37.3656L18.9261 41.7038C19.0776 42.3728 19.4412 42.9661 19.9559 43.3843C20.4706 43.8026 21.1052 44.0203 21.7532 44.0009C22.4012 43.9816 23.0233 43.7264 23.5151 43.2781C24.0068 42.8298 24.3384 42.2158 24.4542 41.5388L34.3798 33.6386C34.6427 34.0684 35.0051 34.4196 35.4325 34.6584C35.8598 34.8971 36.3376 35.0156 36.8204 35.0025C37.3032 34.9893 37.7747 34.8449 38.1899 34.5832C38.605 34.3214 38.95 33.951 39.1918 33.5073L49.0549 39.6141C49.1638 40.1692 49.4187 40.6803 49.7901 41.088C50.1616 41.4956 50.6343 41.7832 51.1534 41.9174C51.6726 42.0515 52.2169 42.0268 52.7234 41.8459C53.2298 41.6651 53.6776 41.3356 54.0148 40.8957C54.3519 40.4558 54.5647 39.9235 54.6284 39.3605C54.6921 38.7975 54.6041 38.2268 54.3746 37.7147C54.1452 37.2026 53.7836 36.77 53.3319 36.4671C52.8802 36.1642 52.3568 36.0033 51.8225 36.0033ZM7.54143 36.0083C7.5408 36.2739 7.44085 36.5284 7.26354 36.7159C7.08622 36.9034 6.84604 37.0085 6.59575 37.0081C6.34545 37.0078 6.10551 36.9021 5.92864 36.7141C5.75177 36.5262 5.65242 36.2714 5.65242 36.0058C5.65242 35.7401 5.75177 35.4854 5.92864 35.2974C6.10551 35.1095 6.34545 35.0037 6.59575 35.0034C6.84604 35.0031 7.08622 35.1082 7.26354 35.2957C7.44085 35.4831 7.5408 35.7376 7.54143 36.0033V36.0083ZM21.6737 42.0025C21.4239 42.0022 21.1845 41.8967 21.0079 41.7093C20.8312 41.5218 20.7319 41.2677 20.7315 41.0026V40.9976C20.7325 40.8001 20.7885 40.6073 20.8926 40.4435C20.9967 40.2797 21.1442 40.1524 21.3164 40.0774C21.4886 40.0025 21.6779 39.9835 21.8604 40.0226C22.0428 40.0617 22.2102 40.1574 22.3415 40.2974C22.4728 40.4374 22.5621 40.6156 22.5981 40.8094C22.634 41.0032 22.6151 41.204 22.5437 41.3864C22.4722 41.5688 22.3515 41.7247 22.1966 41.8343C22.0418 41.944 21.8598 42.0025 21.6737 42.0025ZM36.7481 33.0036C36.5618 33.0036 36.3796 32.945 36.2247 32.8351C36.0697 32.7253 35.949 32.5691 35.8777 32.3864C35.8064 32.2037 35.7877 32.0027 35.824 31.8087C35.8604 31.6147 35.9501 31.4366 36.0819 31.2967C36.2137 31.1569 36.3815 31.0617 36.5643 31.0231C36.7471 30.9845 36.9365 31.0043 37.1086 31.08C37.2808 31.1557 37.4279 31.2838 37.5315 31.4483C37.635 31.6127 37.6902 31.806 37.6902 32.0038C37.6899 32.2688 37.5905 32.5229 37.4139 32.7104C37.2373 32.8978 36.9979 33.0033 36.7481 33.0036ZM51.8225 40.0028C51.6362 40.0028 51.454 39.9441 51.2991 39.8343C51.1441 39.7244 51.0234 39.5682 50.9521 39.3855C50.8808 39.2028 50.8621 39.0018 50.8985 38.8078C50.9348 38.6139 51.0245 38.4357 51.1563 38.2959C51.2881 38.156 51.4559 38.0608 51.6387 38.0222C51.8215 37.9836 52.0109 38.0035 52.1831 38.0791C52.3552 38.1548 52.5024 38.283 52.6059 38.4474C52.7094 38.6118 52.7647 38.8051 52.7647 39.0029C52.7643 39.268 52.6649 39.5221 52.4883 39.7095C52.3117 39.8969 52.0723 40.0024 51.8225 40.0028Z" fill="#0369CA"></path><path d="M44.2794 42.0024H37.6843C37.4345 42.0024 37.1948 42.1078 37.0181 42.2953C36.8414 42.4828 36.7422 42.7371 36.7422 43.0023C36.7422 43.2675 36.8414 43.5218 37.0181 43.7093C37.1948 43.8968 37.4345 44.0022 37.6843 44.0022H44.2794C44.5293 44.0022 44.7689 43.8968 44.9456 43.7093C45.1223 43.5218 45.2215 43.2675 45.2215 43.0023C45.2215 42.7371 45.1223 42.4828 44.9456 42.2953C44.7689 42.1078 44.5293 42.0024 44.2794 42.0024Z" fill="#0369CA"></path><path d="M44.2803 39.0028H41.4539C41.204 39.0028 40.9644 39.1082 40.7877 39.2957C40.611 39.4832 40.5117 39.7375 40.5117 40.0027C40.5117 40.2679 40.611 40.5222 40.7877 40.7097C40.9644 40.8972 41.204 41.0026 41.4539 41.0026H44.2803C44.5302 41.0026 44.7698 40.8972 44.9465 40.7097C45.1232 40.5222 45.2225 40.2679 45.2225 40.0027C45.2225 39.7375 45.1232 39.4832 44.9465 39.2957C44.7698 39.1082 44.5302 39.0028 44.2803 39.0028Z" fill="#0369CA"></path><path d="M4.71559 30.004H15.0792C15.3291 30.004 15.5688 29.8987 15.7454 29.7112C15.9221 29.5237 16.0214 29.2693 16.0214 29.0041C16.0214 28.739 15.9221 28.4846 15.7454 28.2971C15.5688 28.1096 15.3291 28.0043 15.0792 28.0043H4.71559C4.46571 28.0043 4.22607 28.1096 4.04939 28.2971C3.8727 28.4846 3.77344 28.739 3.77344 29.0041C3.77344 29.2693 3.8727 29.5237 4.04939 29.7112C4.22607 29.8987 4.46571 30.004 4.71559 30.004Z" fill="#0369CA"></path><path d="M17.8953 30.004H18.8374C19.0873 30.004 19.3269 29.8987 19.5036 29.7112C19.6803 29.5237 19.7796 29.2693 19.7796 29.0041C19.7796 28.739 19.6803 28.4846 19.5036 28.2971C19.3269 28.1096 19.0873 28.0043 18.8374 28.0043H17.8953C17.6454 28.0043 17.4058 28.1096 17.2291 28.2971C17.0524 28.4846 16.9531 28.739 16.9531 29.0041C16.9531 29.2693 17.0524 29.5237 17.2291 29.7112C17.4058 29.8987 17.6454 30.004 17.8953 30.004Z" fill="#0369CA"></path></svg>