<svg xmlns="http://www.w3.org/2000/svg" width="57" height="57" viewBox="0 0 57 57" fill="none"><g clip-path="url(#clip0_1577_150)"><path d="M44.8313 23.3498C51.0073 23.3498 56.0313 18.3259 56.0313 12.1498C56.0313 5.97379 51.0073 0.949829 44.8313 0.949829C40.3464 0.949829 36.4796 3.60536 34.6926 7.42164L31.6935 6.31467C31.729 6.08499 31.7646 5.8553 31.7646 5.6165C31.7646 3.04345 29.671 0.949829 27.0979 0.949829C24.5249 0.949829 22.4313 3.04345 22.4313 5.6165C22.4313 8.18954 24.5249 10.2832 27.0979 10.2832C28.7695 10.2832 30.2274 9.39176 31.0514 8.06741L34.0455 9.17255C33.7826 10.1227 33.6313 11.1176 33.6313 12.1498C33.6313 13.3726 33.8345 14.5465 34.1986 15.6489L23.9338 19.9993C22.0544 16.446 18.3238 14.0165 14.0313 14.0165C12.6404 14.0165 11.3133 14.2836 10.0833 14.7484L7.50156 9.32294C8.6263 8.46982 9.36458 7.13316 9.36458 5.6165C9.36458 3.04345 7.27096 0.949829 4.69792 0.949829C2.12487 0.949829 0.03125 3.04345 0.03125 5.6165C0.03125 8.18954 2.12487 10.2832 4.69792 10.2832C5.0862 10.2832 5.45853 10.2216 5.81992 10.1309L8.39844 15.5509C5.0748 17.496 2.83125 21.0949 2.83125 25.2165C2.83125 29.0879 4.80638 32.505 7.80052 34.517L6.09336 37.5859C5.64902 37.446 5.18691 37.3498 4.69792 37.3498C2.12487 37.3498 0.03125 39.4434 0.03125 42.0165C0.03125 44.5895 2.12487 46.6832 4.69792 46.6832C7.27096 46.6832 9.36458 44.5895 9.36458 42.0165C9.36458 40.6033 8.71973 39.35 7.72487 38.4942L9.43568 35.4189C10.8393 36.0542 12.3924 36.4165 14.0313 36.4165C16.5924 36.4165 18.9481 35.5429 20.8371 34.0905L24.5107 38.1319C22.6477 40.133 21.4979 42.8063 21.4979 45.7498C21.4979 46.3209 21.5549 46.8773 21.6369 47.4251L17.3148 48.4509C16.571 46.8604 14.9664 45.7498 13.0979 45.7498C10.5249 45.7498 8.43125 47.8434 8.43125 50.4165C8.43125 52.9895 10.5249 55.0832 13.0979 55.0832C15.671 55.0832 17.7646 52.9895 17.7646 50.4165C17.7646 50.365 17.7505 50.3167 17.7495 50.2652L22.0635 49.2425C23.5346 53.7119 27.7419 56.9498 32.6979 56.9498C38.874 56.9498 43.8979 51.9259 43.8979 45.7498C43.8979 43.8349 43.4135 42.0315 42.5622 40.4543L48.0446 36.8895C48.8923 37.7481 50.0662 38.2832 51.3646 38.2832C53.9376 38.2832 56.0313 36.1895 56.0313 33.6165C56.0313 31.0434 53.9376 28.9498 51.3646 28.9498C48.7915 28.9498 46.6979 31.0434 46.6979 33.6165C46.6979 34.2194 46.8219 34.7923 47.0311 35.3218L41.5359 38.8943C40.4362 37.4806 39.0084 36.339 37.3646 35.5811L41.9201 22.9524C42.8497 23.2031 43.8232 23.3498 44.8313 23.3498ZM27.0979 8.4165C25.5544 8.4165 24.2979 7.16005 24.2979 5.6165C24.2979 4.07294 25.5544 2.8165 27.0979 2.8165C28.6415 2.8165 29.8979 4.07294 29.8979 5.6165C29.8979 7.16005 28.6415 8.4165 27.0979 8.4165ZM1.89792 5.6165C1.89792 4.07294 3.15436 2.8165 4.69792 2.8165C6.24147 2.8165 7.49792 4.07294 7.49792 5.6165C7.49792 7.16005 6.24147 8.4165 4.69792 8.4165C3.15436 8.4165 1.89792 7.16005 1.89792 5.6165ZM4.69792 44.8165C3.15436 44.8165 1.89792 43.5601 1.89792 42.0165C1.89792 40.4729 3.15436 39.2165 4.69792 39.2165C6.24147 39.2165 7.49792 40.4729 7.49792 42.0165C7.49792 43.5601 6.24147 44.8165 4.69792 44.8165ZM13.0979 53.2165C11.5544 53.2165 10.2979 51.9601 10.2979 50.4165C10.2979 48.8729 11.5544 47.6165 13.0979 47.6165C14.6415 47.6165 15.8979 48.8729 15.8979 50.4165C15.8979 51.9601 14.6415 53.2165 13.0979 53.2165ZM51.3646 30.8165C52.9081 30.8165 54.1646 32.0729 54.1646 33.6165C54.1646 35.1601 52.9081 36.4165 51.3646 36.4165C49.821 36.4165 48.5646 35.1601 48.5646 33.6165C48.5646 32.0729 49.821 30.8165 51.3646 30.8165ZM39.3347 19.6762C39.7512 17.5174 41.6544 15.8832 43.8979 15.8832H45.7646C48.0081 15.8832 49.9113 17.5174 50.3278 19.6762C48.7838 20.8064 46.8875 21.4832 44.8313 21.4832C42.775 21.4832 40.8787 20.8064 39.3347 19.6762ZM44.8313 14.0165C43.2877 14.0165 42.0313 12.7601 42.0313 11.2165C42.0313 9.67294 43.2877 8.4165 44.8313 8.4165C46.3748 8.4165 47.6313 9.67294 47.6313 11.2165C47.6313 12.7601 46.3748 14.0165 44.8313 14.0165ZM44.8313 2.8165C49.9778 2.8165 54.1646 7.00328 54.1646 12.1498C54.1646 14.4832 53.2973 16.6151 51.8759 18.253C51.2219 16.5308 49.8584 15.1563 48.1594 14.4777C48.9857 13.6355 49.4979 12.4857 49.4979 11.2165C49.4979 8.64345 47.4043 6.54983 44.8313 6.54983C42.2582 6.54983 40.1646 8.64345 40.1646 11.2165C40.1646 12.4857 40.6768 13.6355 41.5031 14.4777C39.8041 15.1563 38.4406 16.5308 37.7866 18.253C36.3652 16.6151 35.4979 14.4832 35.4979 12.1498C35.4979 7.00328 39.6847 2.8165 44.8313 2.8165ZM4.69792 25.2165C4.69792 20.0699 8.8847 15.8832 14.0313 15.8832C19.1778 15.8832 23.3646 20.0699 23.3646 25.2165C23.3646 27.5571 22.4919 29.6945 21.0632 31.3347C20.4115 29.6061 19.0452 28.2248 17.3417 27.5444C18.167 26.7022 18.6792 25.5524 18.6792 24.2832C18.6792 21.7101 16.5856 19.6165 14.0126 19.6165C11.4395 19.6165 9.3459 21.7101 9.3459 24.2832C9.3459 25.5524 9.85814 26.7022 10.6844 27.5444C8.99043 28.2198 7.62871 29.5892 6.97246 31.3046C5.55924 29.6685 4.69792 27.5434 4.69792 25.2165ZM11.2126 24.2832C11.2126 22.7396 12.469 21.4832 14.0126 21.4832C15.5561 21.4832 16.8126 22.7396 16.8126 24.2832C16.8126 25.8267 15.5561 27.0832 14.0126 27.0832C12.469 27.0832 11.2126 25.8267 11.2126 24.2832ZM8.51921 32.7306C8.93984 30.5777 10.8402 28.9498 13.0792 28.9498H14.9459C17.1936 28.9498 19.1003 30.5895 19.5109 32.7552C17.9701 33.8785 16.0798 34.5498 14.0313 34.5498C11.9677 34.5498 10.0655 33.8685 8.51921 32.7306ZM27.1859 53.2639C27.6065 51.111 29.5069 49.4832 31.7459 49.4832H33.6126C35.8602 49.4832 37.767 51.1229 38.1776 53.2885C36.6368 54.4119 34.7464 55.0832 32.6979 55.0832C30.6344 55.0832 28.7322 54.4018 27.1859 53.2639ZM32.6792 47.6165C31.1357 47.6165 29.8792 46.3601 29.8792 44.8165C29.8792 43.2729 31.1357 42.0165 32.6792 42.0165C34.2228 42.0165 35.4792 43.2729 35.4792 44.8165C35.4792 46.3601 34.2228 47.6165 32.6792 47.6165ZM42.0313 45.7498C42.0313 48.0905 41.1585 50.2278 39.7298 51.868C39.0781 50.1394 37.7118 48.7581 36.0083 48.0777C36.8337 47.2355 37.3459 46.0857 37.3459 44.8165C37.3459 42.2434 35.2523 40.1498 32.6792 40.1498C30.1062 40.1498 28.0126 42.2434 28.0126 44.8165C28.0126 46.0857 28.5248 47.2355 29.351 48.0777C27.6571 48.7531 26.2954 50.1226 25.6391 51.8379C24.2259 50.2018 23.3646 48.0768 23.3646 45.7498C23.3646 40.6033 27.5514 36.4165 32.6979 36.4165C37.8445 36.4165 42.0313 40.6033 42.0313 45.7498ZM35.6091 34.9472C34.6794 34.6966 33.706 34.5498 32.6979 34.5498C30.1367 34.5498 27.7811 35.4235 25.8921 36.8759L22.2184 32.8345C24.0814 30.8334 25.2313 28.1601 25.2313 25.2165C25.2313 23.9938 25.028 22.8198 24.6639 21.7174L34.9287 17.367C36.0785 19.5408 37.9238 21.2854 40.1655 22.3185L35.6091 34.9472Z" fill="#047BDC"></path></g><defs><clipPath id="clip0_1577_150"><rect width="56" height="56" fill="white" transform="translate(0.03125 0.949829)"></rect></clipPath></defs></svg>