<svg xmlns="http://www.w3.org/2000/svg" width="54" height="54" viewBox="0 0 54 54" fill="none"><path d="M14.2292 36.9679C13.7939 36.9679 13.4414 37.3204 13.4414 37.7557C13.4414 38.1909 13.7939 38.5434 14.2292 38.5434H39.4346C39.8698 38.5434 40.2223 38.1909 40.2223 37.7557C40.2223 37.3204 39.8698 36.9679 39.4346 36.9679H36.8616V35.916C37.8373 35.5864 38.542 34.6631 38.542 33.5777C38.542 32.4022 37.0676 30.9135 36.6155 30.4856C36.3117 30.1973 35.836 30.1973 35.5322 30.4856C35.0801 30.9139 33.6057 32.4022 33.6057 33.5777C33.6057 34.6631 34.3104 35.5864 35.2861 35.916V36.9679H32.6607V26.4546C32.6607 26.0194 32.3078 25.6668 31.873 25.6668C31.4381 25.6668 31.0852 26.0194 31.0852 26.4546V36.9679H22.5786V18.3791H31.0852V22.7557C31.0852 23.1909 31.4381 23.5435 31.873 23.5435C32.3078 23.5435 32.6607 23.1909 32.6607 22.7557V17.5914C32.6607 17.1561 32.3078 16.8036 31.873 16.8036H21.7908C21.356 16.8036 21.003 17.1561 21.003 17.5914V36.9679H18.3777V35.916C19.3534 35.5864 20.058 34.6631 20.058 33.5777C20.058 32.4022 18.5836 30.9135 18.1316 30.4856C17.8278 30.1973 17.352 30.1973 17.0482 30.4856C16.5962 30.9139 15.1218 32.4022 15.1218 33.5777C15.1218 34.6631 15.8264 35.5864 16.8021 35.916V36.9679H14.2292ZM36.0743 32.1942C36.5754 32.7645 36.9636 33.3488 36.9664 33.5777C36.9664 34.0699 36.566 34.4703 36.0739 34.4703C35.5817 34.4703 35.1813 34.0699 35.1813 33.5777C35.1845 33.3501 35.5731 32.7654 36.0743 32.1942ZM17.5903 32.1942C18.0915 32.7645 18.4792 33.3488 18.4825 33.5777C18.4825 34.0699 18.082 34.4703 17.5899 34.4703C17.0977 34.4703 16.6973 34.0699 16.6973 33.5777C16.7002 33.3501 17.0887 32.7654 17.5903 32.1942Z" fill="#048DEF"></path><path d="M30.1419 20.9521C30.1419 20.5168 29.789 20.1643 29.3542 20.1643C28.9193 20.1643 28.5664 20.5168 28.5664 20.9521V21.7923C28.5664 22.2275 28.9193 22.58 29.3542 22.58C29.789 22.58 30.1419 22.2275 30.1419 21.7923V20.9521Z" fill="#048DEF"></path><path d="M27.6224 20.9521C27.6224 20.5168 27.2695 20.1643 26.8346 20.1643C26.3998 20.1643 26.0469 20.5168 26.0469 20.9521V21.7923C26.0469 22.2275 26.3998 22.58 26.8346 22.58C27.2695 22.58 27.6224 22.2275 27.6224 21.7923V20.9521Z" fill="#048DEF"></path><path d="M25.099 20.9521C25.099 20.5168 24.746 20.1643 24.3112 20.1643C23.8764 20.1643 23.5234 20.5168 23.5234 20.9521V21.7923C23.5234 22.2275 23.8764 22.58 24.3112 22.58C24.746 22.58 25.099 22.2275 25.099 21.7923V20.9521Z" fill="#048DEF"></path><path d="M30.1419 25.153C30.1419 24.7178 29.789 24.3652 29.3542 24.3652C28.9193 24.3652 28.5664 24.7178 28.5664 25.153V25.9932C28.5664 26.4284 28.9193 26.781 29.3542 26.781C29.789 26.781 30.1419 26.4284 30.1419 25.9932V25.153Z" fill="#048DEF"></path><path d="M27.6224 25.153C27.6224 24.7178 27.2695 24.3652 26.8346 24.3652C26.3998 24.3652 26.0469 24.7178 26.0469 25.153V25.9932C26.0469 26.4284 26.3998 26.781 26.8346 26.781C27.2695 26.781 27.6224 26.4284 27.6224 25.9932V25.153Z" fill="#048DEF"></path><path d="M25.099 25.153C25.099 24.7178 24.746 24.3652 24.3112 24.3652C23.8764 24.3652 23.5234 24.7178 23.5234 25.153V25.9932C23.5234 26.4284 23.8764 26.781 24.3112 26.781C24.746 26.781 25.099 26.4284 25.099 25.9932V25.153Z" fill="#048DEF"></path><path d="M30.1419 29.3539C30.1419 28.9187 29.789 28.5662 29.3542 28.5662C28.9193 28.5662 28.5664 28.9187 28.5664 29.3539V30.1941C28.5664 30.6294 28.9193 30.9819 29.3542 30.9819C29.789 30.9819 30.1419 30.6294 30.1419 30.1941V29.3539Z" fill="#048DEF"></path><path d="M27.6224 29.3539C27.6224 28.9187 27.2695 28.5662 26.8346 28.5662C26.3998 28.5662 26.0469 28.9187 26.0469 29.3539V30.1941C26.0469 30.6294 26.3998 30.9819 26.8346 30.9819C27.2695 30.9819 27.6224 30.6294 27.6224 30.1941V29.3539Z" fill="#048DEF"></path><path d="M25.099 29.3539C25.099 28.9187 24.746 28.5662 24.3112 28.5662C23.8764 28.5662 23.5234 28.9187 23.5234 29.3539V30.1941C23.5234 30.6294 23.8764 30.9819 24.3112 30.9819C24.746 30.9819 25.099 30.6294 25.099 30.1941V29.3539Z" fill="#048DEF"></path><path d="M29.3542 32.767C28.9193 32.767 28.5664 33.1195 28.5664 33.5547V34.3949C28.5664 34.8302 28.9193 35.1827 29.3542 35.1827C29.789 35.1827 30.1419 34.8302 30.1419 34.3949V33.5547C30.1419 33.1195 29.789 32.767 29.3542 32.767Z" fill="#048DEF"></path><path d="M26.8346 32.767C26.3998 32.767 26.0469 33.1195 26.0469 33.5547V34.3949C26.0469 34.8302 26.3998 35.1827 26.8346 35.1827C27.2695 35.1827 27.6224 34.8302 27.6224 34.3949V33.5547C27.6224 33.1195 27.2695 32.767 26.8346 32.767Z" fill="#048DEF"></path><path d="M24.3112 32.767C23.8764 32.767 23.5234 33.1195 23.5234 33.5547V34.3949C23.5234 34.8302 23.8764 35.1827 24.3112 35.1827C24.746 35.1827 25.099 34.8302 25.099 34.3949V33.5547C25.099 33.1195 24.746 32.767 24.3112 32.767Z" fill="#048DEF"></path><path d="M51.1986 48.7304C50.1131 48.7304 49.1898 49.4355 48.8602 50.4108H41.064V45.2649H41.1164C48.0368 45.2649 53.6667 39.635 53.6667 32.7146C53.6667 27.8971 50.9377 23.7056 46.9452 21.6027V17.4092C47.921 17.0796 48.6256 16.1563 48.6256 15.0708C48.6256 13.7098 47.5185 12.6027 46.1575 12.6027C44.7965 12.6027 43.6893 13.7098 43.6893 15.0708C43.6893 16.1563 44.3944 17.0796 45.3697 17.4092V20.907C44.0411 20.4268 42.6088 20.1643 41.1164 20.1643C40.4887 20.1643 39.8627 20.2114 39.244 20.3039C39.337 19.6857 39.3836 19.0592 39.3836 18.4315C39.3836 15.5708 38.4206 12.9307 36.8029 10.8175H50.3584C50.7936 10.8175 51.1461 10.465 51.1461 10.0297V4.80647C52.1219 4.47686 52.8265 3.55357 52.8265 2.46813C52.8265 1.10714 51.7194 0 50.3584 0C48.9974 0 47.8902 1.10714 47.8902 2.46813C47.8902 3.55357 48.5953 4.47686 49.5706 4.80647V9.24198H35.3711C33.3095 7.32537 30.6051 6.09253 27.6211 5.90664V2.46813C27.6211 2.03289 27.2682 1.68036 26.8333 1.68036H20.7699C20.4403 0.704654 19.517 0 18.4315 0C17.0706 0 15.9634 1.10714 15.9634 2.46813C15.9634 3.82912 17.0706 4.93626 18.4315 4.93626C19.517 4.93626 20.4403 4.2312 20.7699 3.2559H26.0456V5.90664C23.1348 6.08721 20.3916 7.26723 18.2498 9.27596C16.1145 11.2786 14.7609 13.9289 14.3883 16.8044C14.3355 16.804 14.2826 16.8036 14.2306 16.8036C13.0543 16.8036 11.9111 16.9481 10.8171 17.2184V6.66903C10.8171 6.23379 10.4646 5.88126 10.0297 5.88126H5.64665C5.31704 4.90555 4.39375 4.2009 3.30831 4.2009C1.94732 4.2009 0.84018 5.30804 0.84018 6.66903C0.84018 8.03002 1.94732 9.13716 3.30831 9.13716C4.39375 9.13716 5.31704 8.4321 5.64665 7.4568H9.24198V17.7068C3.84878 19.7324 0 24.9421 0 31.0342C0 36.5392 3.14208 41.3236 7.72703 43.6893H2.46813C2.03289 43.6893 1.68036 44.0419 1.68036 44.4771V47.1799C0.704654 47.5095 0 48.4328 0 49.5182C0 50.8792 1.10714 51.9863 2.46813 51.9863C3.82912 51.9863 4.93626 50.8792 4.93626 49.5182C4.93626 48.4328 4.2312 47.5095 3.2559 47.1799V45.2649H20.1643V50.4108H16.569C16.2394 49.4355 15.3161 48.7304 14.2306 48.7304C12.8697 48.7304 11.7625 49.8376 11.7625 51.1986C11.7625 52.5596 12.8697 53.6667 14.2306 53.6667C15.3161 53.6667 16.2394 52.962 16.569 51.9863H20.9521C21.3869 51.9863 21.7399 51.6338 21.7399 51.1986V45.2649H33.2534C33.6887 45.2649 34.0412 44.9124 34.0412 44.4771C34.0412 44.0419 33.6887 43.6893 33.2534 43.6893H14.2306C7.25249 43.6893 1.57554 38.0124 1.57554 31.0342C1.57554 24.0561 7.25249 18.3791 14.2306 18.3791C14.4923 18.3791 14.7674 18.3881 15.0491 18.4062C15.4819 18.4344 15.8553 18.1064 15.8852 17.6737C16.2754 11.9443 21.0843 7.4568 26.8333 7.4568C32.8849 7.4568 37.8081 12.38 37.8081 18.4315C37.8081 19.3381 37.6967 20.2409 37.4773 21.1146C37.3348 21.6821 37.8662 22.2124 38.4333 22.0707C39.3071 21.8512 40.2099 21.7399 41.1164 21.7399C47.168 21.7399 52.0911 26.663 52.0911 32.7146C52.0911 38.7662 47.168 43.6893 41.1164 43.6893H36.9794C36.5445 43.6893 36.192 44.0419 36.192 44.4771C36.192 44.9124 36.5445 45.2649 36.9794 45.2649H39.4884V51.1986C39.4884 51.6338 39.8414 51.9863 40.2762 51.9863H48.8602C49.1898 52.962 50.1131 53.6667 51.1986 53.6667C52.5596 53.6667 53.6667 52.5596 53.6667 51.1986C53.6667 49.8376 52.5596 48.7304 51.1986 48.7304ZM46.1575 14.1782C46.6496 14.1782 47.0501 14.5787 47.0501 15.0708C47.0501 15.563 46.6496 15.9634 46.1575 15.9634C45.6653 15.9634 45.2649 15.563 45.2649 15.0708C45.2649 14.5787 45.6653 14.1782 46.1575 14.1782ZM50.3584 1.57554C50.8505 1.57554 51.251 1.97598 51.251 2.46813C51.251 2.96028 50.8505 3.36072 50.3584 3.36072C49.8662 3.36072 49.4658 2.96028 49.4658 2.46813C49.4658 1.97598 49.8662 1.57554 50.3584 1.57554ZM18.4315 3.36072C17.9394 3.36072 17.539 2.96028 17.539 2.46813C17.539 1.97598 17.9394 1.57554 18.4315 1.57554C18.9237 1.57554 19.3241 1.97598 19.3241 2.46813C19.3241 2.96028 18.9237 3.36072 18.4315 3.36072ZM3.30831 7.56162C2.81616 7.56162 2.41572 7.16118 2.41572 6.66903C2.41572 6.17688 2.81616 5.77644 3.30831 5.77644C3.80046 5.77644 4.2009 6.17688 4.2009 6.66903C4.2009 7.16118 3.80046 7.56162 3.30831 7.56162ZM2.46813 50.4108C1.97598 50.4108 1.57554 50.0103 1.57554 49.5182C1.57554 49.026 1.97598 48.6256 2.46813 48.6256C2.96028 48.6256 3.36072 49.026 3.36072 49.5182C3.36072 50.0103 2.96028 50.4108 2.46813 50.4108ZM14.2306 52.0911C13.7385 52.0911 13.3381 51.6907 13.3381 51.1986C13.3381 50.7064 13.7385 50.306 14.2306 50.306C14.7228 50.306 15.1232 50.7064 15.1232 51.1986C15.1232 51.6907 14.7228 52.0911 14.2306 52.0911ZM51.1986 52.0911C50.7064 52.0911 50.306 51.6907 50.306 51.1986C50.306 50.7064 50.7064 50.306 51.1986 50.306C51.6907 50.306 52.0911 50.7064 52.0911 51.1986C52.0911 51.6907 51.6907 52.0911 51.1986 52.0911Z" fill="#048DEF"></path></svg>