<svg xmlns="http://www.w3.org/2000/svg" width="59" height="59" viewBox="0 0 59 59" fill="none"><mask id="mask0_1495_56" style="mask-type:luminance" maskUnits="userSpaceOnUse" x="0" y="0" width="59" height="59"><path d="M0 0H58.6667V58.6667H0V0Z" fill="white"></path></mask><g mask="url(#mask0_1495_56)"><path d="M1.14844 17.7979H19.126H53.3434" stroke="#047BDC" stroke-width="2" stroke-miterlimit="10" stroke-linecap="round" stroke-linejoin="round"></path><path d="M10.714 12.9219C12.2146 12.9219 13.439 11.7013 13.439 10.2015C13.439 8.70177 12.2146 7.48122 10.714 7.48122C9.21674 7.48122 7.99219 8.70177 7.99219 10.2015C7.99219 11.7013 9.21674 12.9219 10.714 12.9219Z" stroke="#047BDC" stroke-width="2" stroke-miterlimit="10" stroke-linecap="round" stroke-linejoin="round"></path><path d="M34.3742 7.4811H44.6248C46.1221 7.4811 47.3466 8.70497 47.3466 10.2014C47.3466 11.698 46.1221 12.9218 44.6248 12.9218H34.3742C32.8769 12.9218 31.6523 11.698 31.6523 10.2014C31.6523 8.70497 32.8769 7.4811 34.3742 7.4811Z" stroke="#047BDC" stroke-width="2" stroke-miterlimit="10" stroke-linecap="round" stroke-linejoin="round"></path><path d="M20.7609 12.9219C22.2615 12.9219 23.4859 11.7013 23.4859 10.2015C23.4859 8.70177 22.2615 7.48122 20.7609 7.48122C19.2636 7.48122 18.0391 8.70177 18.0391 10.2015C18.0391 11.7013 19.2636 12.9219 20.7609 12.9219Z" stroke="#047BDC" stroke-width="2" stroke-miterlimit="10" stroke-linecap="round" stroke-linejoin="round"></path><path d="M18.6096 26.6113L16.3164 36.2073" stroke="#047BDC" stroke-width="2" stroke-miterlimit="10" stroke-linecap="round" stroke-linejoin="round"></path><path d="M23.8945 35.3406L27.1392 31.6982C27.2821 31.5392 27.2821 31.2795 27.1392 31.1205L23.8945 27.4781" stroke="#047BDC" stroke-width="2" stroke-miterlimit="10" stroke-linecap="round" stroke-linejoin="round"></path><path d="M11.0394 35.3406L7.79475 31.6982C7.65175 31.5392 7.65175 31.2795 7.79475 31.1205L11.0394 27.4781" stroke="#047BDC" stroke-width="2" stroke-miterlimit="10" stroke-linecap="round" stroke-linejoin="round"></path><path d="M46.3491 31.6754C47.6028 31.9547 48.7753 32.4481 49.831 33.1102L50.7696 32.1754C51.325 31.617 52.2377 31.617 52.7964 32.1754L54.2742 33.6524C54.8328 34.2108 54.8328 35.123 54.2742 35.6782L53.3387 36.6163C53.9981 37.6616 54.4852 38.8238 54.7679 40.0639H56.0832C56.8726 40.0639 57.5188 40.7099 57.5188 41.4955V43.5894C57.5188 44.3748 56.8726 45.0208 56.0832 45.0208H54.7614C54.4787 46.2545 53.9916 47.4101 53.3387 48.449L54.2742 49.3838C54.8328 49.9422 54.8328 50.8544 54.2742 51.4096L52.7964 52.8899C52.2377 53.4482 51.325 53.4482 50.7696 52.8899L49.831 51.9549C48.7884 52.6106 47.6288 53.0976 46.3881 53.3801V54.7109C46.3881 55.4999 45.7417 56.1459 44.9558 56.1459H42.8609C42.0747 56.1459 41.4284 55.4999 41.4284 54.7109V53.3768C40.1941 53.0976 39.0347 52.6074 37.992 51.9549L37.0566 52.8899C36.4979 53.4482 35.5854 53.4482 35.0299 52.8899L33.5489 51.4096C32.9934 50.8544 32.9934 49.9422 33.5489 49.3838L34.4874 48.449C33.8314 47.4101 33.3442 46.2545 33.0617 45.0208H31.7332C30.9441 45.0208 30.3008 44.3748 30.3008 43.5894V41.4955C30.3008 40.7099 30.9441 40.0639 31.7332 40.0639H33.0585C33.3377 38.8368 33.8185 37.6876 34.4647 36.652L33.5229 35.7074C32.9643 35.1522 32.9643 34.24 33.5229 33.6817L35.0007 32.2046C35.5594 31.6462 36.472 31.6462 37.0274 32.2046L37.9595 33.133C38.999 32.4741 40.1552 31.9838 41.3895 31.6949V30.3738C41.3895 29.5848 42.0325 28.9388 42.8218 28.9388H44.9135C45.7028 28.9388 46.3491 29.5848 46.3491 30.3738V31.6754Z" stroke="#047BDC" stroke-width="2" stroke-miterlimit="10" stroke-linecap="round" stroke-linejoin="round"></path><path d="M43.9121 36.639C47.173 36.639 49.8169 39.2815 49.8169 42.5439C49.8169 45.8033 47.173 48.4457 43.9121 48.4457C40.6479 48.4457 38.0039 45.8033 38.0039 42.5439C38.0039 39.2815 40.6479 36.639 43.9121 36.639Z" stroke="#047BDC" stroke-width="2" stroke-miterlimit="10" stroke-linecap="round" stroke-linejoin="round"></path><path d="M12.1981 45.0209H5.41621C3.07138 45.0209 1.14844 42.7259 1.14844 39.9243V7.61738C1.14844 4.81272 3.06794 2.52082 5.41621 2.52082H10.3597H49.0756C51.4239 2.52082 53.3434 4.81593 53.3434 7.61738V32.7176M31.7379 45.0209H22.439" stroke="#047BDC" stroke-width="2" stroke-miterlimit="10" stroke-linecap="round" stroke-linejoin="round"></path><path d="M17.332 45.0209H17.3547" stroke="#047BDC" stroke-width="2" stroke-miterlimit="10" stroke-linecap="round" stroke-linejoin="round"></path></g></svg>