<svg xmlns="http://www.w3.org/2000/svg" width="50" height="59" viewBox="0 0 50 59" fill="none"><path fill-rule="evenodd" clip-rule="evenodd" d="M46.0225 19.591C45.8549 19.2379 45.4696 19.0479 45.0897 19.1322L41.2298 19.9957C41.3136 19.3622 41.2577 18.7129 41.0678 18.0991L46.7319 17.5009L48.0558 23.9117L46.0225 19.591ZM23.0811 0H22.2601C20.8146 0.0958116 19.3963 0.698278 18.2939 1.80788C16.903 3.20933 16.3165 5.1166 16.5287 6.94706L6.60812 15.1892C4.87649 15.2674 3.26216 15.9813 2.02769 17.222C0.720571 18.5374 0 20.2863 0 22.1465C0 24.0071 0.720571 25.7566 2.02769 27.0714C3.01085 28.0625 4.23973 28.7179 5.58033 28.9811L14.0039 47.5511C14.0039 47.6107 13.9983 47.6697 13.9983 47.7294V53.3981H11.6746C10.5908 53.3981 9.70835 54.2847 9.70835 55.3747V57.023C9.70835 58.113 10.591 59 11.6746 59H30.1584C31.2421 59 32.1246 58.113 32.1246 57.023V55.3747C32.1246 54.2847 31.242 53.3981 30.1584 53.3981H27.8348V47.7294C27.8348 45.9507 27.1644 44.3255 26.0753 43.094L13.2498 24.9752C13.6353 24.096 13.842 23.1375 13.842 22.1465C13.842 22.0947 13.842 22.0436 13.842 21.9919L21.7349 12.3684C22.0421 12.4162 22.3605 12.4409 22.6733 12.4409C23.2151 12.4409 23.757 12.3684 24.282 12.2263L32.6498 19.1756C32.6442 19.2554 32.6386 19.3352 32.6386 19.415C32.6386 20.5752 33.0912 21.6658 33.9067 22.486C33.9569 22.5405 34.0128 22.5934 34.0688 22.6445L33.3259 29.8333C33.2812 30.2605 33.566 30.6517 33.9794 30.7394L42.5259 32.5247C42.5818 32.5365 42.6376 32.5421 42.6991 32.5421C42.9169 32.5421 43.1292 32.4555 43.2856 32.297L44.2521 31.3206C44.4476 31.129 44.5314 30.8546 44.4866 30.587C44.442 30.3189 44.2688 30.09 44.023 29.9736L38.4426 27.313L39.3922 22.9985C39.61 22.8478 39.8167 22.6775 40.0066 22.4859C40.1966 22.293 40.3698 22.0862 40.515 21.8686L44.8049 20.9096L47.447 26.5261C47.5643 26.7717 47.7933 26.946 48.0559 26.9921C48.1061 27 48.1509 27.0045 48.2011 27.0045C48.4189 27.0045 48.6312 26.9174 48.7876 26.7595L49.754 25.7836C49.9551 25.5841 50.039 25.2978 49.983 25.0219L48.2067 16.4209C48.1228 15.9999 47.7318 15.7138 47.3073 15.7593L40.1629 16.5121C40.1126 16.4553 40.0623 16.3991 40.0064 16.3446C39.107 15.4373 37.9005 15.0169 36.7218 15.0815L28.8121 5.43785C28.6445 4.1101 28.0581 2.82561 27.047 1.80812C25.9448 0.698397 24.5266 0.0959311 23.0811 0ZM38.8334 21.3033C38.3307 21.8075 37.6659 22.0852 36.9565 22.0852C36.2471 22.0852 35.5823 21.8075 35.0797 21.3033C34.577 20.799 34.3032 20.1283 34.3032 19.415C34.3032 18.7017 34.577 18.0316 35.0797 17.5273C35.5992 17.0062 36.2751 16.7459 36.9565 16.7459C37.638 16.7459 38.3139 17.0062 38.8334 17.5273C39.8669 18.5679 39.8669 20.2621 38.8334 21.3033ZM37.1297 28.5392C36.7777 28.3722 36.5935 27.9832 36.6773 27.6021L37.532 23.7188C37.3421 23.7435 37.1521 23.7576 36.9566 23.7576C36.5042 23.7576 36.0628 23.6879 35.6495 23.5546L35.0518 29.2554L41.4253 30.586L37.1297 28.5392ZM25.9858 11.4741C26.3656 11.2335 26.7231 10.9496 27.047 10.6191C27.8403 9.82595 28.3653 8.86962 28.6391 7.85775L34.9623 15.5643C34.5824 15.7633 34.225 16.0235 33.9066 16.3445C33.5882 16.6615 33.3312 17.0202 33.1301 17.4064L25.9858 11.4741ZM19.467 9.43625C17.7018 7.65931 17.7018 4.76812 19.467 2.99059C20.3497 2.10236 21.5115 1.65771 22.6734 1.65771C23.8296 1.65771 24.9916 2.10236 25.8741 2.99059C27.6393 4.76812 27.6393 7.65919 25.8741 9.43625C24.109 11.2138 21.2378 11.2133 19.467 9.43625ZM13.4509 19.8349C13.1158 18.8629 12.5627 17.972 11.8143 17.2221C10.9876 16.3862 9.9821 15.7898 8.88166 15.4653L17.0036 8.71957C17.3052 9.40877 17.7353 10.0552 18.2939 10.6191C18.8078 11.1362 19.3888 11.5421 20.0144 11.8389L13.4509 19.8349ZM22.5225 40.9583C22.003 40.8346 21.4668 40.7671 20.9193 40.7671C18.1152 40.7671 15.702 42.4524 14.6127 44.868L7.45725 29.089C9.10507 28.9637 10.6356 28.2598 11.8143 27.0714C11.9875 26.8965 12.155 26.7139 12.3059 26.5245L22.5225 40.9583ZM26.1701 53.398H15.663V47.7292C15.663 44.8128 18.0202 42.44 20.9193 42.44C23.8128 42.44 26.1701 44.8128 26.1701 47.7292V53.398ZM30.4602 55.3746V57.0228C30.4602 57.1903 30.3262 57.327 30.1586 57.327H11.6747C11.5071 57.327 11.3674 57.1876 11.3674 57.0228V55.3746C11.3674 55.2098 11.5071 55.0704 11.6747 55.0704H30.1586C30.3261 55.0704 30.4602 55.207 30.4602 55.3746ZM3.20078 18.4042C4.1951 17.4046 5.51895 16.8544 6.92104 16.8544C8.32871 16.8544 9.64698 17.4047 10.6413 18.4042C12.6913 20.4678 12.6913 23.8256 10.6413 25.8892C9.64698 26.8888 8.32871 27.439 6.92104 27.439C5.51895 27.439 4.1951 26.8887 3.20078 25.8892C1.15078 23.8257 1.15078 20.4678 3.20078 18.4042ZM4.91567 22.1465C4.91567 21.6073 5.12792 21.1009 5.50222 20.7197C5.88209 20.3386 6.38483 20.1288 6.92104 20.1288C7.45725 20.1288 7.95999 20.3385 8.33986 20.7197C8.71974 21.1008 8.92641 21.6073 8.92641 22.1465C8.92641 22.6855 8.71974 23.1926 8.33986 23.5737C7.95999 23.9543 7.45725 24.1646 6.92104 24.1646C6.38483 24.1646 5.88209 23.9543 5.50222 23.5737C5.12792 23.1926 4.91567 22.6856 4.91567 22.1465ZM9.51296 24.756C8.79797 25.4755 7.85956 25.8353 6.92104 25.8353C5.98264 25.8353 5.04411 25.4755 4.32924 24.756C2.89926 23.3175 2.89926 20.9761 4.32924 19.537C5.75922 18.0985 8.08298 18.0985 9.51296 19.537C10.9429 20.9761 10.9429 23.3175 9.51296 24.756ZM23.8464 7.39852C23.5336 7.71498 23.1146 7.88929 22.6733 7.88929C22.2265 7.88929 21.8074 7.71498 21.4946 7.39852C21.1818 7.08205 21.0086 6.66153 21.0086 6.21414C21.0086 5.76614 21.1818 5.34562 21.4946 5.02856C21.8074 4.71209 22.2263 4.53779 22.6733 4.53779C23.1145 4.53779 23.5335 4.71209 23.8464 5.02856C24.1648 5.34562 24.338 5.76614 24.338 6.21414C24.338 6.66153 24.1648 7.08205 23.8464 7.39852ZM25.0251 3.84632C25.6507 4.47877 25.9971 5.3191 25.9971 6.21414C25.9971 7.10798 25.6507 7.9489 25.0251 8.58135C24.3939 9.2138 23.5615 9.56181 22.6734 9.56181C21.7852 9.56181 20.9474 9.2138 20.3218 8.58135C19.6906 7.9489 19.3442 7.10798 19.3442 6.21414C19.3442 5.31922 19.6905 4.47877 20.3218 3.84632C20.9474 3.21387 21.7852 2.86539 22.6734 2.86539C23.5615 2.86527 24.3939 3.21387 25.0251 3.84632ZM20.9193 49.8655C19.7463 49.8655 18.7967 48.9076 18.7967 47.7294C18.7967 46.5517 19.7463 45.5932 20.9193 45.5932C22.0869 45.5932 23.042 46.5517 23.042 47.7294C23.042 48.9075 22.0869 49.8655 20.9193 49.8655ZM20.9193 43.9208C23.0028 43.9208 24.701 45.6297 24.701 47.7294C24.701 49.8296 23.0028 51.5379 20.9193 51.5379C18.8302 51.5379 17.132 49.8296 17.132 47.7294C17.1321 45.6296 18.8303 43.9208 20.9193 43.9208Z" fill="#047BDC"></path></svg>