<svg xmlns="http://www.w3.org/2000/svg" width="51" height="59" viewBox="0 0 51 59" fill="none"><path d="M39.9045 41.918L41.2509 40.5692L43.0573 41.6808C43.2111 41.7754 43.3832 41.8216 43.5541 41.8216C43.8036 41.8216 44.0506 41.7234 44.2345 41.5343C44.5445 41.2159 44.593 40.7248 44.351 40.3517L43.2157 38.6006L44.1743 37.6402C44.4521 37.3619 44.5303 36.9409 44.3707 36.5812L42.9617 33.4029C43.8625 31.8518 44.5484 30.1941 45.0059 28.4635L48.2434 27.2151C48.61 27.0737 48.852 26.7207 48.852 26.327V20.2776C48.852 19.8838 48.61 19.5309 48.2434 19.3895L45.0069 18.1414C44.5493 16.4095 43.8631 14.7515 42.9622 13.2003L44.3708 10.0231C44.5303 9.66339 44.4522 9.2423 44.1743 8.96396L39.9042 4.68646C39.6263 4.40811 39.2061 4.3302 38.8469 4.48971L35.6743 5.90119C34.1259 4.99882 32.4715 4.31164 30.7436 3.8532L29.4974 0.609984C29.3566 0.242423 29.0042 0 28.6113 0H22.5727C22.1798 0 21.8273 0.242423 21.6862 0.609746L20.44 3.85296C18.712 4.3114 17.0576 4.99858 15.5091 5.90095L12.3366 4.48947C11.9776 4.3296 11.5572 4.40787 11.2794 4.68622L7.00941 8.96396C6.73156 9.24242 6.65343 9.66339 6.81301 10.0231L8.22185 13.2009C7.32098 14.7521 6.63502 16.4099 6.1774 18.141L2.94046 19.3892C2.57379 19.5305 2.3318 19.8836 2.3318 20.2773V26.3268C2.3318 26.7206 2.57379 27.0735 2.94046 27.2149L6.17693 28.4629C6.17883 28.4699 6.18097 28.4767 6.18275 28.4837C5.06719 29.5624 4.37138 31.074 4.37138 32.7462C4.37138 34.1041 4.83066 35.356 5.60033 36.3566L4.18199 53.5138H2.73812C1.22836 53.5138 0 54.7444 0 56.2569V58.0484C0 58.5739 0.425324 59 0.949913 59H19.6272C20.1518 59 20.5771 58.5739 20.5771 58.0484V56.2567C20.5771 54.7443 19.3488 53.5137 17.839 53.5137H16.3951L15.3424 40.7773L15.5093 40.7031C17.0578 41.6056 18.7123 42.2927 20.4401 42.751L21.6863 45.9942C21.8273 46.3615 22.1798 46.6039 22.5728 46.6039H28.6114C29.0044 46.6039 29.3567 46.3615 29.4979 45.9942L30.7437 42.7519C32.4725 42.2935 34.1276 41.6062 35.6761 40.7036L38.8474 42.1147C39.2062 42.2745 39.6267 42.1963 39.9045 41.918ZM6.27109 32.7463C6.27109 30.5271 8.07331 28.7216 10.2886 28.7216C12.5039 28.7216 14.3062 30.5271 14.3062 32.7463C14.3062 34.9653 12.5039 36.7708 10.2886 36.7708C8.07331 36.7708 6.27109 34.9653 6.27109 32.7463ZM28.6299 30.0251C28.6299 28.2448 30.0756 26.7965 31.8525 26.7965C33.6295 26.7965 35.0752 28.2448 35.0752 30.0251C35.0752 31.8053 33.6295 33.2536 31.8525 33.2536C30.0756 33.2536 28.6299 31.8053 28.6299 30.0251ZM36.9648 29.7154C36.8043 27.0295 34.5732 24.8934 31.8525 24.8934C30.9022 24.8934 30.012 25.1548 29.2484 25.6085L13.1887 27.376C12.7597 26.0654 12.5423 24.6979 12.5423 23.3021C12.5423 16.0936 18.3964 10.229 25.592 10.229C32.7877 10.229 38.6417 16.0937 38.6417 23.3021C38.6416 25.5826 38.0648 27.7683 36.9648 29.7154ZM14.9468 29.0971L27.2673 27.7412C26.9242 28.4296 26.7301 29.2049 26.7301 30.0251C26.7301 30.6344 26.8372 31.2191 27.0326 31.7617L15.9272 34.5434C16.1078 33.9763 16.206 33.3726 16.206 32.7463C16.206 31.3706 15.7345 30.104 14.9468 29.0971ZM28.0565 33.467C28.8556 34.3507 29.9574 34.9537 31.1959 35.1132C29.4637 35.9424 27.5677 36.375 25.5918 36.375C23.8365 36.375 22.1192 36.0257 20.5267 35.3531L28.0565 33.467ZM36.2563 32.6423L38.6273 35.0166L40.4656 37.8523L37.5631 36.0662L35.3089 33.8088C35.6787 33.4695 35.9983 33.0764 36.2563 32.6423ZM7.31896 26.864L4.23139 25.6734V20.9307L7.31955 19.7398C7.61177 19.6271 7.8299 19.3772 7.90244 19.0721C8.34795 17.1965 9.08699 15.411 10.0988 13.765C10.263 13.4977 10.2852 13.1665 10.1581 12.8797L8.814 9.84777L12.1616 6.49416L15.1885 7.84081C15.4748 7.96809 15.8054 7.94597 16.0721 7.78146C17.7153 6.76787 19.4976 6.02752 21.3695 5.58121C21.6742 5.50865 21.9236 5.29025 22.0361 4.9974L23.2248 1.90323H27.959L29.1478 4.99728C29.2603 5.29002 29.5096 5.50853 29.8144 5.58109C31.6864 6.0274 33.4686 6.76775 35.1118 7.78134C35.3786 7.94597 35.7091 7.96833 35.9954 7.8407L39.0223 6.49404L42.37 9.84753L41.0261 12.8788C40.899 13.1656 40.9212 13.4967 41.0855 13.764C42.0974 15.4099 42.8364 17.1959 43.2821 19.0721C43.3545 19.3773 43.5726 19.6273 43.865 19.7399L46.9525 20.9306V25.6732L43.864 26.8643C43.5718 26.9769 43.3537 27.2268 43.2811 27.5319C42.8357 29.4072 42.0967 31.1926 41.0849 32.8387C40.9207 33.1059 40.8985 33.4371 41.0256 33.7239L42.3699 36.7562L42.1581 36.9685L40.1661 33.8959C40.1299 33.8401 40.088 33.7882 40.0411 33.7411L37.982 31.6792C39.6576 29.2024 40.5415 26.3243 40.5415 23.3019C40.5415 15.0439 33.8351 8.32554 25.5918 8.32554C17.3487 8.32554 10.6424 15.0439 10.6424 23.3019C10.6424 24.5149 10.7866 25.7095 11.0708 26.8715C10.8146 26.8375 10.5539 26.8181 10.2886 26.8181C9.41483 26.8181 8.58543 27.0103 7.83821 27.3524C7.7355 27.1307 7.55145 26.9536 7.31896 26.864ZM18.6773 56.2567V57.0968H1.89983V56.2567C1.89983 55.7937 2.27587 55.4169 2.73812 55.4169H17.839C18.3013 55.4171 18.6773 55.7938 18.6773 56.2567ZM6.08835 53.5138L7.37857 37.9045C8.2386 38.3933 9.23125 38.674 10.2886 38.674C11.346 38.674 12.3387 38.3934 13.1986 37.9046L14.4888 53.5138H6.08835ZM35.1129 38.8233C33.4699 39.8369 31.6872 40.5772 29.8142 41.0238C29.5095 41.0964 29.2601 41.3148 29.1476 41.6076L27.9591 44.7007H23.2249L22.0361 41.6067C21.9236 41.3138 21.6743 41.0954 21.3695 41.0228C19.4977 40.5765 17.7155 39.8363 16.0722 38.8227C15.8054 38.6581 15.4747 38.636 15.1886 38.7634L15.1764 38.7688L15.0083 36.7355L17.7464 36.0496C20.1025 37.5079 22.8052 38.2783 25.5918 38.2783C28.7099 38.2783 31.7665 37.2898 34.291 35.4807L36.299 37.4915C36.3515 37.5441 36.4102 37.5904 36.4734 37.6293L39.5866 39.5449L39.0223 40.1101L35.9966 38.7638C35.7102 38.6363 35.3796 38.6586 35.1129 38.8233ZM13.2705 32.7463C13.2705 31.0991 11.9328 29.7591 10.2886 29.7591C8.64445 29.7591 7.30673 31.0992 7.30673 32.7463C7.30673 34.3934 8.64445 35.7335 10.2886 35.7335C11.9328 35.7335 13.2705 34.3935 13.2705 32.7463ZM9.20656 32.7463C9.20656 32.1486 9.69196 31.6623 10.2886 31.6623C10.8853 31.6623 11.3707 32.1486 11.3707 32.7463C11.3707 33.344 10.8853 33.8303 10.2886 33.8303C9.69196 33.8303 9.20656 33.344 9.20656 32.7463ZM31.0353 30.8437C30.584 30.3915 30.5841 29.6586 31.0353 29.2064C31.4866 28.7543 32.2183 28.7543 32.6696 29.2064C33.121 29.6586 33.121 30.3915 32.6696 30.8437C32.2184 31.2958 31.4866 31.2958 31.0353 30.8437ZM50.0502 44.7131H37.6885C37.1639 44.7131 36.7386 45.1392 36.7386 45.6647V57.2229C36.7386 58.2028 37.5344 59 38.5126 59H49.226C50.2042 59 51 58.2028 51 57.2229V45.6647C51.0001 45.1392 50.5748 44.7131 50.0502 44.7131ZM42.7498 46.6163H44.9889V49.7655H42.7498V46.6163ZM49.1003 57.0968H38.6385V46.6163H40.8501V50.7172C40.8501 51.2427 41.2754 51.6688 41.8 51.6688H45.939C46.4636 51.6688 46.8889 51.2427 46.8889 50.7172V46.6163H49.1004V57.0968H49.1003Z" fill="#0369CA"></path></svg>