<svg xmlns="http://www.w3.org/2000/svg" width="60" height="62" viewBox="0 0 60 62" fill="none"><path d="M8.50277 14.6271C5.25928 14.6349 2.63134 17.2604 2.62014 20.5039V51.1843H0.875328C0.392825 51.1843 0 51.5147 0 51.9972V55.8348C0.00341154 57.3861 0.623842 58.8726 1.72434 59.9663C2.82483 61.06 4.31474 61.6711 5.86606 61.6648H54.0227C55.5746 61.6711 57.0645 61.06 58.165 59.9663C59.265 58.8726 59.8854 57.3861 59.8888 55.8348V51.9972C59.8888 51.5147 59.496 51.1843 59.0135 51.1843H57.2687V20.5039C57.2579 17.2604 54.6295 14.6349 51.3865 14.6271H36.8067V11.2584H42.1507C42.6332 11.2691 43.0334 10.887 43.0451 10.404V7.04259C43.5919 6.8798 44.091 6.58738 44.5004 6.19017C45.7958 4.89764 45.7973 2.79949 44.5043 1.50502C43.2108 0.211034 41.1126 0.211034 39.8191 1.50502C38.5256 2.79949 38.5271 4.89764 39.8225 6.19017C40.2202 6.61272 40.7335 6.90905 41.2983 7.04259V9.51164H35.9425C35.4547 9.51992 35.0628 9.91616 35.0599 10.404V14.6271H30.8178V6.49526C32.4149 6.05809 33.4418 4.50677 33.2215 2.86577C33.0007 1.22478 31.6005 0 29.9444 0C28.2888 0 26.8881 1.22478 26.6678 2.86577C26.447 4.50677 27.4744 6.05809 29.071 6.49526V14.6271H24.5794V10.404C24.5647 9.91129 24.1641 9.51797 23.6714 9.51164H18.5905V7.04259C19.1558 6.90905 19.669 6.61272 20.0672 6.19017C21.3588 4.89911 21.3607 2.80583 20.0726 1.51135H20.075C19.1295 0.565357 17.7064 0.282678 16.4704 0.794424C15.2344 1.30666 14.4288 2.51291 14.4293 3.85076C14.4234 4.72755 14.7685 5.57022 15.3879 6.19017C15.7978 6.58738 16.2974 6.8798 16.8437 7.04259V10.404C16.8554 10.887 17.2556 11.2691 17.7386 11.2584H22.8326V14.6271H8.50277ZM41.0463 2.74685C41.6561 2.13666 42.6449 2.13666 43.2551 2.74637C43.8648 3.35656 43.8648 4.34545 43.2551 4.95516C42.6449 5.56535 41.6561 5.56535 41.0463 4.95516C40.4376 4.34496 40.4376 3.35705 41.0463 2.74685ZM28.3828 3.30392C28.3828 2.59723 28.8576 1.97826 29.5404 1.79549C30.2232 1.61224 30.9435 1.91052 31.2969 2.52266C31.6502 3.1348 31.5484 3.90827 31.0488 4.40783C30.6019 4.85427 29.9303 4.98781 29.3469 4.74607C28.7635 4.50433 28.3828 3.93508 28.3828 3.30392ZM16.177 3.85076C16.177 3.10556 16.7029 2.46417 17.4339 2.31894C18.1645 2.1737 18.8966 2.56457 19.1817 3.25324C19.4668 3.94141 19.226 4.73535 18.6066 5.14962C17.9866 5.5634 17.161 5.48201 16.6342 4.95516C16.3403 4.66273 16.1755 4.26552 16.177 3.85076ZM58.142 55.8348C58.1391 56.9231 57.7029 57.9656 56.9304 58.7318C56.1575 59.4979 55.1111 59.9249 54.0227 59.918H5.86606C4.77775 59.9249 3.73184 59.4979 2.95886 58.7318C2.18588 57.9656 1.74968 56.9231 1.74676 55.8348V52.931H22.24L22.9939 53.705C24.11 54.8961 25.6735 55.5653 27.3057 55.5512H32.5835C34.2158 55.5653 35.7793 54.8961 36.8954 53.705L37.6488 52.931H58.142V55.8348ZM55.5219 20.5039V51.1843H37.2663C37.026 51.1731 36.7925 51.2647 36.6239 51.4357L35.6106 52.506C34.8274 53.3429 33.7299 53.8137 32.5835 53.8044H27.3057C26.1575 53.8083 25.0599 53.3321 24.2782 52.4909L23.2654 51.4289C23.0958 51.2598 22.8623 51.1706 22.623 51.1843H4.36689V20.5039C4.37664 18.225 6.2238 16.3807 8.50277 16.3739H51.3865C53.6655 16.3807 55.5122 18.225 55.5219 20.5039Z" fill="#048DEF"></path><path d="M52.4051 20.7408C52.4051 20.2588 52.0142 19.8674 51.5317 19.8674H8.48666C8.00464 19.8674 7.61328 20.2588 7.61328 20.7408V47.566C7.61328 48.0485 8.00464 48.4394 8.48666 48.4394H51.5317C52.0142 48.4394 52.4051 48.0485 52.4051 47.566V20.7408ZM9.36004 21.6142H50.5336V46.8174H9.36004V21.6142Z" fill="#048DEF"></path><path d="M40.1209 32.0792L38.5301 31.9256C38.3444 31.2974 38.0885 30.6921 37.7668 30.1214L38.7684 28.9117C39.055 28.5661 39.0326 28.0593 38.7163 27.74L36.6522 25.655C36.334 25.3334 35.8227 25.3085 35.4742 25.5975L34.2592 26.6049C33.6875 26.2867 33.0827 26.0313 32.4554 25.8442L32.3024 24.2699C32.259 23.823 31.8818 23.4828 31.4329 23.4857H28.4735C28.0252 23.4828 27.6484 23.822 27.6046 24.2685L27.4515 25.8451C26.8218 26.0289 26.2155 26.2828 25.6434 26.6025L24.4332 25.598C24.0862 25.3105 23.5779 25.3339 23.2586 25.6521L21.1692 27.7366C20.85 28.0549 20.8261 28.5647 21.1142 28.9122L22.1196 30.1248C21.8014 30.6955 21.5465 31.2994 21.3588 31.9256L19.7602 32.0792C19.3104 32.1216 18.9658 32.4968 18.9609 32.9486V35.9036C18.9658 36.3554 19.3109 36.7307 19.7602 36.7731L21.351 36.9261C21.5367 37.5543 21.7931 38.1597 22.1143 38.7309L21.1127 39.9401C20.8252 40.2875 20.849 40.7973 21.1688 41.1161L23.2581 43.2006C23.5769 43.5189 24.0857 43.5422 24.4327 43.2547L25.6477 42.2478C26.2194 42.566 26.8243 42.8214 27.451 43.0086L27.6046 44.5599C27.6504 45.0019 28.0295 45.3338 28.4735 45.3202H31.4329C31.8769 45.3338 32.2561 45.0024 32.3024 44.5609L32.4554 42.9954C33.0846 42.8136 33.6909 42.5616 34.2636 42.2434L35.4737 43.2513C35.8198 43.5393 36.3286 43.5164 36.6478 43.1986L38.7367 41.1151C39.056 40.7964 39.0798 40.2871 38.7923 39.9401L37.7868 38.7275C38.1051 38.1563 38.36 37.5524 38.5476 36.9261L40.1214 36.7731C40.5707 36.7302 40.9153 36.3554 40.9197 35.9041V32.9486C40.9153 32.4968 40.5707 32.1216 40.1209 32.0792ZM39.1734 35.1116L37.7824 35.2466C37.4052 35.2832 37.0938 35.5571 37.0095 35.9265C36.8169 36.7828 36.4714 37.5972 35.9899 38.3312C35.7808 38.6514 35.8042 39.0706 36.0484 39.3654L36.9403 40.442L35.9772 41.4027L34.8986 40.5088C34.6028 40.2632 34.1807 40.2403 33.8595 40.4528C33.1304 40.9358 32.317 41.2779 31.4617 41.4607C31.0942 41.5279 30.8149 41.8296 30.7764 42.201L30.6409 43.5734H29.267L29.131 42.201C29.0935 41.8252 28.8142 41.5187 28.4433 41.446C27.587 41.2589 26.7716 40.9177 26.0372 40.4391C25.7165 40.2349 25.3002 40.2617 25.0078 40.5054L23.9297 41.4012L22.9672 40.4411L23.86 39.3649C24.1062 39.0681 24.1281 38.6451 23.9146 38.3239C23.4307 37.5963 23.0876 36.7843 22.9033 35.9299C22.8175 35.5581 22.5037 35.2827 22.1235 35.2466L20.7077 35.1106V33.7421L22.1235 33.6061C22.5012 33.57 22.8132 33.2956 22.8975 32.9262C23.09 32.0699 23.4351 31.255 23.9171 30.5215C24.1262 30.2013 24.1023 29.7822 23.8586 29.4873L22.9667 28.4107L23.9293 27.4496L25.0078 28.3434C25.3041 28.5891 25.7257 28.612 26.0469 28.4C26.776 27.9165 27.5894 27.5748 28.4448 27.3916C28.8162 27.3146 29.094 27.0056 29.131 26.6283L29.267 25.2325H30.6404L30.7764 26.6279C30.8134 27.0061 31.0917 27.3165 31.4636 27.3945C32.3204 27.5841 33.1358 27.9267 33.8698 28.4073C34.19 28.6124 34.6067 28.5871 34.8991 28.3439L35.9738 27.453L36.9178 28.4063L36.0215 29.4868C35.7754 29.7836 35.7535 30.2067 35.967 30.5278C36.4509 31.2555 36.794 32.0679 36.9788 32.9218C37.064 33.2942 37.3779 33.5696 37.7581 33.6056L39.1734 33.7421V35.1116Z" fill="#048DEF"></path><path d="M29.9505 28.265C26.5486 28.2694 23.7944 31.0299 23.7969 34.4313C23.7998 37.8327 26.5588 40.5883 29.9607 40.5869C33.3621 40.5859 36.1187 37.8278 36.1187 34.4259C36.1129 31.0231 33.3534 28.267 29.9505 28.265ZM29.9505 38.8401C27.5136 38.8357 25.5412 36.8579 25.5436 34.4211C25.5466 31.9842 27.5238 30.0103 29.9607 30.0118C32.3976 30.0132 34.3725 31.9891 34.372 34.4259C34.3671 36.8648 32.3893 38.8396 29.9505 38.8401Z" fill="#048DEF"></path></svg>