<svg xmlns="http://www.w3.org/2000/svg" width="58" height="61" viewBox="0 0 58 61" fill="none"><path d="M42.7521 46.3778H47.7843C49.4272 46.3778 50.758 45.0459 50.758 43.4041V16.1477C50.758 14.5059 49.4272 13.1752 47.7843 13.1752H9.61827C7.9753 13.1752 6.64453 14.5059 6.64453 16.1477V43.4041C6.64453 45.0459 7.9753 46.3778 9.61827 46.3778H38.5971" stroke="#048DEF" stroke-width="1.8" stroke-miterlimit="10" stroke-linecap="round" stroke-linejoin="round"></path><path d="M10.1875 60V55.5615C10.1875 54.6265 10.9455 53.8685 11.8805 53.8685H45.5116C46.4466 53.8685 47.2046 54.6265 47.2046 55.5615V60" stroke="#048DEF" stroke-width="1.8" stroke-miterlimit="10" stroke-linecap="round" stroke-linejoin="round"></path><path d="M24.1328 57.7172H39.6046C40.1946 57.7172 40.673 58.1956 40.673 58.7856V60" stroke="#048DEF" stroke-width="1.8" stroke-miterlimit="10" stroke-linecap="round" stroke-linejoin="round"></path><path d="M16.7227 60V58.7856C16.7227 58.1956 17.2011 57.7172 17.7911 57.7172H19.9742" stroke="#048DEF" stroke-width="1.8" stroke-miterlimit="10" stroke-linecap="round" stroke-linejoin="round"></path><path d="M27.552 39.226H29.8434C30.0452 39.226 30.2088 39.0624 30.2088 38.8606V37.223C30.2088 37.0568 30.3209 36.9107 30.4821 36.87C31.1723 36.6958 31.8228 36.4224 32.4185 36.0665C32.5614 35.9811 32.7441 36.0047 32.8619 36.1225L34.0209 37.2815C34.1636 37.4242 34.395 37.4242 34.5376 37.2815L36.1579 35.6612C36.3006 35.5185 36.3006 35.2871 36.1579 35.1444L34.999 33.9854C34.8812 33.8677 34.8576 33.685 34.9429 33.542C35.2988 32.9463 35.5721 32.2958 35.7465 31.6056C35.7872 31.4444 35.9332 31.3323 36.0994 31.3323H37.7371C37.9389 31.3323 38.1025 31.1687 38.1025 30.9669V28.6756C38.1025 28.4737 37.9389 28.3102 37.7371 28.3102H36.0994C35.9332 28.3102 35.7872 28.1981 35.7465 28.0369C35.5722 27.3467 35.2988 26.6961 34.9429 26.1004C34.8576 25.9575 34.8812 25.7748 34.999 25.6571L36.1579 24.4981C36.3006 24.3554 36.3006 24.124 36.1579 23.9813L34.5376 22.361C34.395 22.2183 34.1636 22.2183 34.0209 22.361L32.8619 23.52C32.7441 23.6378 32.5614 23.6614 32.4185 23.576C31.8228 23.2201 31.1723 22.9469 30.4821 22.7725C30.3209 22.7318 30.2088 22.5857 30.2088 22.4195V20.7819C30.2088 20.5801 30.0452 20.4165 29.8434 20.4165H27.552C27.3502 20.4165 27.1866 20.5801 27.1866 20.7819V22.4195C27.1866 22.5857 27.0744 22.7318 26.9133 22.7725C26.2232 22.9467 25.5726 23.2201 24.9769 23.576C24.834 23.6614 24.6513 23.6378 24.5335 23.52L23.3745 22.361C23.2318 22.2183 23.0005 22.2183 22.8578 22.361L21.2375 23.9813C21.0948 24.124 21.0948 24.3554 21.2375 24.4981L22.3965 25.6571C22.5142 25.7748 22.5379 25.9575 22.4525 26.1004C22.0966 26.6961 21.8233 27.3467 21.6489 28.0369C21.6082 28.1981 21.4622 28.3102 21.296 28.3102H19.6584C19.4566 28.3102 19.293 28.4737 19.293 28.6756V30.9669C19.293 31.1687 19.4566 31.3323 19.6584 31.3323H21.296C21.4622 31.3323 21.6082 31.4444 21.6489 31.6056C21.8232 32.2958 22.0966 32.9463 22.4525 33.542C22.5379 33.685 22.5142 33.8677 22.3965 33.9854L21.2375 35.1444C21.0948 35.2871 21.0948 35.5185 21.2375 35.6612L22.8578 37.2815C23.0005 37.4242 23.2318 37.4242 23.3745 37.2815L24.5335 36.1225C24.6513 36.0047 24.834 35.9811 24.9769 36.0665C25.5726 36.4224 26.2232 36.6956 26.9133 36.87C27.0746 36.9107 27.1866 37.0568 27.1866 37.223V38.8606C27.1866 39.0624 27.3502 39.226 27.552 39.226Z" stroke="#048DEF" stroke-width="1.8" stroke-miterlimit="10" stroke-linecap="round" stroke-linejoin="round"></path><path d="M28.6957 33.9586C30.9806 33.9586 32.8328 32.1063 32.8328 29.8214C32.8328 27.5366 30.9806 25.6843 28.6957 25.6843C26.4108 25.6843 24.5586 27.5366 24.5586 29.8214C24.5586 32.1063 26.4108 33.9586 28.6957 33.9586Z" stroke="#048DEF" stroke-width="1.8" stroke-miterlimit="10" stroke-linecap="round" stroke-linejoin="round"></path><path d="M37.9805 9.22437H41.2106C42.704 9.22437 43.9149 10.4352 43.9149 11.9274V12.8771" stroke="#048DEF" stroke-width="1.8" stroke-miterlimit="10" stroke-linecap="round" stroke-linejoin="round"></path><path d="M12.3086 12.9531V11.9274C12.3086 10.4352 13.5183 9.22437 15.0117 9.22437H33.824" stroke="#048DEF" stroke-width="1.8" stroke-miterlimit="10" stroke-linecap="round" stroke-linejoin="round"></path><path d="M6.29718 37.6366H3.29744C2.02864 37.6366 1 36.6079 1 35.3391V24.2125C1 22.9437 2.02864 21.915 3.29744 21.915H6.47893" stroke="#048DEF" stroke-width="1.8" stroke-miterlimit="10" stroke-linecap="round" stroke-linejoin="round"></path><path d="M51.2168 37.6366H54.1003C55.3691 37.6366 56.3978 36.6079 56.3978 35.3391V24.2125C56.3978 22.9437 55.3691 21.915 54.1003 21.915H51.1562" stroke="#048DEF" stroke-width="1.8" stroke-miterlimit="10" stroke-linecap="round" stroke-linejoin="round"></path><path d="M10.582 25.622V42.4364H46.8154V17.1151H10.582V21.4671" stroke="#048DEF" stroke-width="1.8" stroke-miterlimit="10" stroke-linecap="round" stroke-linejoin="round"></path><path d="M33.6641 46.5363V49.8703" stroke="#048DEF" stroke-width="1.8" stroke-miterlimit="10" stroke-linecap="round" stroke-linejoin="round"></path><path d="M23.7344 49.8703V46.5363" stroke="#048DEF" stroke-width="1.8" stroke-miterlimit="10" stroke-linecap="round" stroke-linejoin="round"></path><path d="M20.2852 53.5479V51.2423C20.2852 50.5891 20.7401 50.0597 21.3011 50.0597H36.093C36.6542 50.0597 37.1089 50.5891 37.1089 51.2423V53.4672" stroke="#048DEF" stroke-width="1.8" stroke-miterlimit="10" stroke-linecap="round" stroke-linejoin="round"></path><path d="M28.6953 9.02991V6.02222" stroke="#048DEF" stroke-width="1.8" stroke-miterlimit="10" stroke-linecap="round" stroke-linejoin="round"></path><path d="M28.6955 5.75039C30.0073 5.75039 31.0707 4.68698 31.0707 3.3752C31.0707 2.06341 30.0073 1 28.6955 1C27.3837 1 26.3203 2.06341 26.3203 3.3752C26.3203 4.68698 27.3837 5.75039 28.6955 5.75039Z" stroke="#048DEF" stroke-width="1.8" stroke-miterlimit="10" stroke-linecap="round" stroke-linejoin="round"></path><path d="M10.0174 55.5795H7.89181C6.52555 55.5795 5.41797 56.6871 5.41797 58.0533V60" stroke="#048DEF" stroke-width="1.8" stroke-miterlimit="10" stroke-linecap="round" stroke-linejoin="round"></path><path d="M47.3984 55.5795H49.5089C50.8752 55.5795 51.9827 56.6871 51.9827 58.0533V60" stroke="#048DEF" stroke-width="1.8" stroke-miterlimit="10" stroke-linecap="round" stroke-linejoin="round"></path></svg>