<svg xmlns="http://www.w3.org/2000/svg" width="59" height="59" viewBox="0 0 59 59" fill="none"><path d="M1.90323 39.016H9.51613V40.9192H6.66129V42.8225H14.2742V40.9192H11.4194V39.016H19.0323C19.537 39.016 20.0211 38.8155 20.378 38.4586C20.735 38.1016 20.9355 37.6176 20.9355 37.1128V23.7902C20.9355 23.2854 20.735 22.8013 20.378 22.4444C20.0211 22.0875 19.537 21.887 19.0323 21.887H16.8435C16.952 21.7405 17.0327 21.5754 17.0815 21.3998C17.1333 21.2083 17.1455 21.0083 17.1174 20.8119C17.0892 20.6156 17.0213 20.427 16.9178 20.2578L15.9985 18.7352C15.7916 18.3967 15.4618 18.1515 15.078 18.0509C14.6943 17.9503 14.2865 18.0022 13.9402 18.1957L13.8012 18.2718C13.521 18.0812 13.2246 17.9156 12.9153 17.777V17.6818C12.914 17.4827 12.8735 17.2857 12.796 17.1022C12.7186 16.9188 12.6057 16.7524 12.4638 16.6127C12.3219 16.4729 12.1538 16.3625 11.9692 16.2878C11.7846 16.2131 11.5871 16.1755 11.388 16.1773H9.54753C9.14697 16.175 8.76183 16.3316 8.47645 16.6127C8.19107 16.8938 8.02872 17.2765 8.02495 17.677V17.7722C7.71567 17.9108 7.41921 18.0764 7.139 18.267L7.00006 18.19C6.65347 17.9957 6.24498 17.9437 5.86077 18.0449C5.47657 18.1461 5.1467 18.3926 4.94077 18.7324L4.02342 20.255C3.91905 20.4249 3.8506 20.6144 3.82228 20.8117C3.79397 21.0091 3.80639 21.2102 3.85879 21.4026C3.90646 21.5769 3.98547 21.741 4.09194 21.887H1.90323C1.39846 21.887 0.914366 22.0875 0.557442 22.4444C0.200518 22.8013 0 23.2854 0 23.7902V37.1128C0 37.6176 0.200518 38.1016 0.557442 38.4586C0.914366 38.8155 1.39846 39.016 1.90323 39.016ZM6.56613 22.8386C6.56648 22.6749 6.57825 22.5115 6.60134 22.3495C6.64051 22.058 6.59234 21.7615 6.46292 21.4974C6.33351 21.2333 6.12866 21.0135 5.87431 20.8659L6.38247 20.0228L6.41482 20.0409C6.67663 20.1816 6.97299 20.2451 7.26948 20.2241C7.56596 20.203 7.85038 20.0982 8.08966 19.9219C8.35696 19.7277 8.64757 19.5679 8.95468 19.4461C9.23309 19.3394 9.47381 19.1529 9.64666 18.91C9.8195 18.6671 9.91677 18.3785 9.92627 18.0805H11.0092C11.0198 18.3779 11.1176 18.6656 11.2906 18.9078C11.4635 19.1499 11.7039 19.3358 11.9818 19.4423C12.2887 19.5639 12.579 19.7237 12.8458 19.9181C13.0852 20.0947 13.3699 20.1995 13.6666 20.2204C13.9633 20.2413 14.2599 20.1774 14.5216 20.0361L14.553 20.019L15.0612 20.8621C14.8077 21.009 14.6034 21.2277 14.4738 21.4905C14.3443 21.7532 14.2954 22.0485 14.3332 22.339C14.3808 22.6656 14.3808 22.9973 14.3332 23.3239C14.294 23.6154 14.3422 23.9119 14.4716 24.176C14.601 24.4401 14.8059 24.6599 15.0602 24.8075L14.5521 25.6506L14.5197 25.6325C14.2581 25.4911 13.9616 25.4272 13.665 25.4483C13.3684 25.4694 13.0839 25.5745 12.8449 25.7515C12.5776 25.9457 12.287 26.1055 11.9799 26.2273C11.701 26.3344 11.4601 26.5215 11.2874 26.7652C11.1147 27.0088 11.0179 27.2981 11.0092 27.5967H9.92627C9.91571 27.2993 9.81786 27.0116 9.64492 26.7694C9.47198 26.5273 9.23159 26.3414 8.95373 26.2349C8.64682 26.1133 8.3565 25.9534 8.08966 25.7591C7.85028 25.5825 7.56562 25.4777 7.2689 25.4568C6.97218 25.4359 6.67563 25.4998 6.41387 25.6411L6.38247 25.6582L5.87431 24.8151C6.12786 24.6683 6.33223 24.4497 6.46163 24.1868C6.59102 23.924 6.63964 23.6287 6.60134 23.3382C6.57832 23.1726 6.56656 23.0057 6.56613 22.8386ZM1.90323 23.7902H4.09194C3.98347 23.9367 3.90283 24.1018 3.85403 24.2774C3.80219 24.4689 3.78997 24.6689 3.81812 24.8653C3.84626 25.0616 3.91418 25.2502 4.01771 25.4194L4.93697 26.942C5.14368 27.2806 5.47357 27.526 5.85737 27.6266C6.24118 27.7273 6.64904 27.6752 6.99531 27.4815L7.13424 27.4054C7.41445 27.596 7.71091 27.7616 8.02019 27.9002V27.9954C8.02144 28.1945 8.06196 28.3915 8.13944 28.5749C8.21691 28.7584 8.32983 28.9248 8.4717 29.0645C8.61358 29.2043 8.78164 29.3147 8.96625 29.3894C9.15086 29.4641 9.34839 29.5016 9.54753 29.4999H11.388C11.7885 29.5022 12.1737 29.3456 12.459 29.0645C12.7444 28.7834 12.9068 28.4007 12.9105 28.0001V27.905C13.2198 27.7664 13.5163 27.6008 13.7965 27.4101L13.9354 27.4872C14.2822 27.6807 14.6904 27.7323 15.0744 27.6312C15.4584 27.5301 15.7883 27.284 15.9947 26.9448L16.9121 25.4222C17.0164 25.2523 17.0849 25.0628 17.1132 24.8654C17.1415 24.6681 17.1291 24.467 17.0767 24.2746C17.029 24.1003 16.95 23.9362 16.8435 23.7902H19.0323V33.3063H1.90323V23.7902ZM1.90323 35.2096H19.0323V37.1128H1.90323V35.2096Z" fill="#0369CA"></path><path d="M10.4681 25.6936C11.0328 25.6936 11.5847 25.5261 12.0542 25.2124C12.5237 24.8987 12.8896 24.4529 13.1056 23.9312C13.3217 23.4096 13.3783 22.8356 13.2681 22.2818C13.1579 21.728 12.8861 21.2193 12.4868 20.8201C12.0875 20.4208 11.5789 20.1489 11.0251 20.0387C10.4713 19.9286 9.89727 19.9851 9.37562 20.2012C8.85397 20.4173 8.4081 20.7832 8.09441 21.2527C7.78071 21.7221 7.61328 22.2741 7.61328 22.8387C7.61328 23.5959 7.91406 24.322 8.44944 24.8574C8.98483 25.3928 9.71097 25.6936 10.4681 25.6936ZM10.4681 21.8871C10.6563 21.8871 10.8403 21.9429 10.9968 22.0475C11.1533 22.1521 11.2753 22.3007 11.3473 22.4746C11.4193 22.6484 11.4382 22.8398 11.4014 23.0244C11.3647 23.209 11.2741 23.3785 11.141 23.5116C11.0079 23.6447 10.8384 23.7353 10.6538 23.7721C10.4692 23.8088 10.2778 23.7899 10.104 23.7179C9.93007 23.6459 9.78145 23.5239 9.67688 23.3674C9.57232 23.2109 9.51651 23.0269 9.51651 22.8387C9.51651 22.5863 9.61677 22.3443 9.79523 22.1658C9.97369 21.9874 10.2157 21.8871 10.4681 21.8871Z" fill="#0369CA"></path><path d="M57.0939 0H41.8681C41.3633 0 40.8792 0.200518 40.5223 0.557442C40.1654 0.914366 39.9648 1.39846 39.9648 1.90323V13.3226C39.9648 13.8273 40.1654 14.3114 40.5223 14.6684C40.8792 15.0253 41.3633 15.2258 41.8681 15.2258H57.0939C57.5986 15.2258 58.0827 15.0253 58.4397 14.6684C58.7966 14.3114 58.9971 13.8273 58.9971 13.3226V1.90323C58.9971 1.39846 58.7966 0.914366 58.4397 0.557442C58.0827 0.200518 57.5986 0 57.0939 0ZM41.8681 13.3226V1.90323H57.0939V13.3226H41.8681Z" fill="#0369CA"></path><path d="M29.5026 7.61287V28.5484H23.793V30.4516H29.5026V51.3871C29.5026 51.6394 29.6029 51.8815 29.7814 52.06C29.9598 52.2384 30.2019 52.3387 30.4543 52.3387H37.1156V50.4355H31.4059V30.4516H37.1156V28.5484H31.4059V8.56448H37.1156V6.66125H30.4543C30.2019 6.66125 29.9598 6.76151 29.7814 6.93998C29.6029 7.11844 29.5026 7.36048 29.5026 7.61287Z" fill="#0369CA"></path><path d="M47.8043 8.81949L46.4588 7.47391L45.1094 8.81949L47.1277 10.8379C47.3062 11.0163 47.5482 11.1165 47.8005 11.1165C48.0529 11.1165 48.2949 11.0163 48.4733 10.8379L53.8642 5.45459L52.5148 4.10901L47.8043 8.81949Z" fill="#0369CA"></path><path d="M57.0939 21.8871H41.8681C41.3633 21.8871 40.8792 22.0876 40.5223 22.4445C40.1654 22.8015 39.9648 23.2855 39.9648 23.7903V35.2097C39.9648 35.7144 40.1654 36.1985 40.5223 36.5555C40.8792 36.9124 41.3633 37.1129 41.8681 37.1129H57.0939C57.5986 37.1129 58.0827 36.9124 58.4397 36.5555C58.7966 36.1985 58.9971 35.7144 58.9971 35.2097V23.7903C58.9971 23.2855 58.7966 22.8015 58.4397 22.4445C58.0827 22.0876 57.5986 21.8871 57.0939 21.8871ZM41.8681 35.2097V23.7903H57.0939V35.2097H41.8681Z" fill="#0369CA"></path><path d="M47.8043 30.7066L46.4588 29.361L45.1094 30.7066L47.1277 32.7249C47.3062 32.9033 47.5482 33.0036 47.8005 33.0036C48.0529 33.0036 48.2949 32.9033 48.4733 32.7249L53.8642 27.3417L52.5186 25.9961L47.8043 30.7066Z" fill="#0369CA"></path><path d="M57.0939 43.7743H41.8681C41.3633 43.7743 40.8792 43.9748 40.5223 44.3317C40.1654 44.6887 39.9648 45.1728 39.9648 45.6775V57.0969C39.9648 57.6016 40.1654 58.0857 40.5223 58.4427C40.8792 58.7996 41.3633 59.0001 41.8681 59.0001H57.0939C57.5986 59.0001 58.0827 58.7996 58.4397 58.4427C58.7966 58.0857 58.9971 57.6016 58.9971 57.0969V45.6775C58.9971 45.1728 58.7966 44.6887 58.4397 44.3317C58.0827 43.9748 57.5986 43.7743 57.0939 43.7743ZM41.8681 57.0969V45.6775H57.0939V57.0969H41.8681Z" fill="#0369CA"></path><path d="M47.8043 52.5938L46.4588 51.2482L45.1094 52.5938L47.1277 54.6122C47.3062 54.7906 47.5482 54.8908 47.8005 54.8908C48.0529 54.8908 48.2949 54.7906 48.4733 54.6122L53.8642 49.2289L52.5186 47.8833L47.8043 52.5938Z" fill="#0369CA"></path></svg>