<svg xmlns="http://www.w3.org/2000/svg" width="51" height="51" viewBox="0 0 51 51" fill="none"><path d="M22.2631 33.8258L22.5833 36.0679C22.6118 36.2671 22.7113 36.4492 22.8633 36.581C23.0153 36.7127 23.2097 36.7852 23.4109 36.7852H26.7549C26.9561 36.7852 27.1505 36.7127 27.3025 36.581C27.4546 36.4492 27.554 36.2671 27.5826 36.0679L27.9027 33.8258C28.3742 33.6742 28.8325 33.4844 29.2729 33.2581L31.0846 34.6166C31.2455 34.7371 31.4444 34.7956 31.645 34.7813C31.8455 34.767 32.0341 34.6809 32.1764 34.5389L34.5406 32.1747C34.6827 32.0324 34.7687 31.8438 34.783 31.6433C34.7973 31.4427 34.7388 31.2438 34.6183 31.0829L33.2598 29.2712C33.4861 28.8307 33.6759 28.3725 33.8275 27.901L36.0696 27.5808C36.2688 27.5523 36.4509 27.4529 36.5827 27.3008C36.7144 27.1488 36.7869 26.9544 36.7869 26.7532V23.4092C36.7869 23.208 36.7144 23.0136 36.5827 22.8616C36.4509 22.7095 36.2688 22.6101 36.0696 22.5816L33.8275 22.2614C33.6759 21.7899 33.4861 21.3317 33.2598 20.8912L34.6183 19.0796C34.7388 18.9186 34.7973 18.7197 34.783 18.5192C34.7687 18.3186 34.6827 18.13 34.5406 17.9877L32.1764 15.6235C32.0347 15.4805 31.8459 15.3938 31.6451 15.3795C31.4443 15.3652 31.2451 15.4243 31.0846 15.5458L29.2729 16.9043C28.8325 16.678 28.3742 16.4882 27.9027 16.3366L27.5826 14.0945C27.554 13.8954 27.4546 13.7132 27.3025 13.5814C27.1505 13.4497 26.9561 13.3772 26.7549 13.3772H23.4109C23.2097 13.3772 23.0153 13.4497 22.8633 13.5814C22.7113 13.7132 22.6118 13.8954 22.5833 14.0945L22.2631 16.3366C21.7916 16.4882 21.3334 16.678 20.8929 16.9043L19.0813 15.5458C18.9209 15.4239 18.7216 15.3646 18.5207 15.3789C18.3198 15.3933 18.131 15.4802 17.9894 15.6235L15.6252 17.9877C15.4832 18.13 15.3971 18.3186 15.3828 18.5192C15.3686 18.7197 15.427 18.9186 15.5475 19.0796L16.906 20.8912C16.6797 21.3317 16.4899 21.7899 16.3383 22.2614L14.0962 22.5816C13.8971 22.6101 13.7149 22.7095 13.5831 22.8616C13.4514 23.0136 13.3789 23.208 13.3789 23.4092V26.7532C13.3789 26.9544 13.4514 27.1488 13.5831 27.3008C13.7149 27.4529 13.8971 27.5523 14.0962 27.5808L16.3383 27.901C16.4899 28.3725 16.6797 28.8307 16.906 29.2712L15.5475 31.0829C15.427 31.2438 15.3686 31.4427 15.3828 31.6433C15.3971 31.8438 15.4832 32.0324 15.6252 32.1747L17.9894 34.5389C18.1317 34.6809 18.3203 34.767 18.5209 34.7813C18.7214 34.7956 18.9203 34.7371 19.0813 34.6166L20.8929 33.2581C21.3334 33.4844 21.7916 33.6742 22.2631 33.8258ZM20.3227 31.597L18.6582 32.8443L17.3206 31.5067L18.568 29.8422C18.6673 29.71 18.7252 29.5512 18.7343 29.386C18.7434 29.2208 18.7032 29.0566 18.619 28.9143C18.2535 28.3003 17.9785 27.637 17.8022 26.9446C17.7615 26.7842 17.6741 26.6394 17.551 26.5286C17.4279 26.4179 17.2747 26.3462 17.1108 26.3227L15.0509 26.0284V24.134L17.11 23.8406C17.2739 23.817 17.427 23.7453 17.5501 23.6346C17.6732 23.5239 17.7607 23.3791 17.8013 23.2186C17.9776 22.5262 18.2527 21.8629 18.6181 21.249C18.7024 21.1066 18.7425 20.9424 18.7335 20.7773C18.7244 20.6121 18.6665 20.4533 18.5671 20.321L17.3198 18.6565L18.6574 17.3189L20.3219 18.5663C20.4542 18.6656 20.6129 18.7235 20.7781 18.7326C20.9433 18.7417 21.1075 18.7015 21.2499 18.6172C21.8638 18.2518 22.5271 17.9768 23.2195 17.8005C23.38 17.7598 23.5247 17.6723 23.6355 17.5493C23.7462 17.4262 23.8179 17.273 23.8415 17.1091L24.1357 15.0492H26.0301L26.3235 17.1083C26.3471 17.2721 26.4188 17.4253 26.5295 17.5484C26.6403 17.6715 26.785 17.7589 26.9455 17.7996C27.6379 17.9759 28.3012 18.251 28.9151 18.6164C29.0575 18.7007 29.2217 18.7408 29.3869 18.7317C29.552 18.7227 29.7108 18.6648 29.8431 18.5654L31.5076 17.3181L32.8452 18.6557L31.5979 20.3202C31.4985 20.4525 31.4406 20.6112 31.4315 20.7764C31.4225 20.9416 31.4626 21.1058 31.5469 21.2481C31.9123 21.8621 32.1874 22.5254 32.3636 23.2178C32.4043 23.3782 32.4918 23.523 32.6149 23.6338C32.7379 23.7445 32.8911 23.8162 33.055 23.8397L35.1149 24.134V26.0284L33.0558 26.3218C32.892 26.3454 32.7388 26.4171 32.6157 26.5278C32.4926 26.6385 32.4052 26.7833 32.3645 26.9438C32.1882 27.6362 31.9131 28.2995 31.5477 28.9134C31.4634 29.0558 31.4233 29.22 31.4324 29.3851C31.4415 29.5503 31.4993 29.7091 31.5987 29.8414L32.846 31.5059L31.5084 32.8435L29.8439 31.5962C29.7117 31.4968 29.5529 31.4389 29.3877 31.4298C29.2225 31.4207 29.0583 31.4609 28.916 31.5452C28.3021 31.9106 27.6387 32.1856 26.9464 32.3619C26.7859 32.4026 26.6411 32.4901 26.5304 32.6131C26.4196 32.7362 26.3479 32.8894 26.3244 33.0533L26.0301 35.1132H24.1357L23.8423 33.0541C23.8187 32.8903 23.747 32.7371 23.6363 32.614C23.5256 32.4909 23.3808 32.4035 23.2203 32.3628C22.528 32.1865 21.8646 31.9114 21.2507 31.546C21.1083 31.4617 20.9442 31.4216 20.779 31.4307C20.6138 31.4397 20.455 31.4976 20.3227 31.597Z" fill="#048DEF"></path><path d="M25.0785 30.0972C26.0706 30.0972 27.0404 29.803 27.8652 29.2518C28.6901 28.7007 29.333 27.9173 29.7127 27.0007C30.0923 26.0842 30.1917 25.0756 29.9981 24.1026C29.8046 23.1296 29.3269 22.2358 28.6254 21.5343C27.9239 20.8328 27.0301 20.3551 26.0571 20.1616C25.0841 19.968 24.0755 20.0674 23.159 20.447C22.2424 20.8267 21.459 21.4696 20.9078 22.2944C20.3567 23.1193 20.0625 24.0891 20.0625 25.0812C20.0638 26.4111 20.5927 27.6862 21.5331 28.6266C22.4735 29.567 23.7486 30.0959 25.0785 30.0972ZM25.0785 21.7372C25.7399 21.7372 26.3864 21.9333 26.9363 22.3008C27.4863 22.6682 27.9149 23.1905 28.168 23.8015C28.4211 24.4125 28.4873 25.0849 28.3583 25.7336C28.2292 26.3822 27.9107 26.9781 27.4431 27.4458C26.9754 27.9134 26.3796 28.2319 25.7309 28.3609C25.0822 28.49 24.4098 28.4237 23.7988 28.1706C23.1878 27.9175 22.6655 27.4889 22.2981 26.939C21.9306 26.3891 21.7345 25.7426 21.7345 25.0812C21.7345 24.1943 22.0868 23.3437 22.7139 22.7166C23.3411 22.0895 24.1916 21.7372 25.0785 21.7372Z" fill="#048DEF"></path><path d="M25.0819 4.18122C25.3036 4.18122 25.5162 4.09314 25.673 3.93636C25.8298 3.77958 25.9179 3.56694 25.9179 3.34522V2.62208L28.792 5.01722L25.9179 7.41237V6.68923C25.9179 6.4675 25.8298 6.25486 25.673 6.09808C25.5162 5.9413 25.3036 5.85322 25.0819 5.85322C21.3733 5.85701 17.7446 6.93111 14.6315 8.94656C11.5184 10.962 9.05311 13.8332 7.5317 17.2153L9.05656 17.8992C10.3881 14.941 12.5114 12.4083 15.1918 10.581C17.8723 8.75374 21.0057 7.70285 24.2459 7.54445V9.19723C24.2456 9.3563 24.2908 9.51214 24.376 9.64645C24.4613 9.78075 24.5831 9.88795 24.7271 9.95545C24.8712 10.023 25.0315 10.048 25.1892 10.0275C25.347 10.0071 25.4956 9.94208 25.6177 9.84011L30.6337 5.66011C30.7281 5.58166 30.8041 5.48339 30.8562 5.37228C30.9083 5.26117 30.9353 5.13995 30.9353 5.01722C30.9353 4.8945 30.9083 4.77328 30.8562 4.66217C30.8041 4.55106 30.7281 4.45279 30.6337 4.37434L25.6177 0.194337C25.4956 0.0923698 25.347 0.0273542 25.1892 0.00692393C25.0315 -0.0135063 24.8712 0.011497 24.7271 0.0789981C24.5831 0.146499 24.4613 0.253696 24.376 0.388002C24.2908 0.522307 24.2456 0.678147 24.2459 0.837222V2.52511C19.7785 2.70214 15.4633 4.19613 11.8429 6.81921C8.22242 9.44228 5.45841 13.0773 3.89844 17.2671L5.46761 17.8473C6.95728 13.8437 9.6334 10.3901 13.1383 7.94803C16.6433 5.50598 20.8101 4.19184 25.0819 4.18122Z" fill="#048DEF"></path><path d="M25.08 45.9812C24.8583 45.9812 24.6457 46.0693 24.4889 46.2261C24.3321 46.3829 24.244 46.5955 24.244 46.8172V47.5404L21.3699 45.1452L24.244 42.7501V43.4732C24.244 43.695 24.3321 43.9076 24.4889 44.0644C24.6457 44.2212 24.8583 44.3092 25.08 44.3092C28.7886 44.3055 32.4173 43.2314 35.5304 41.2159C38.6435 39.2004 41.1088 36.3293 42.6302 32.9472L41.1053 32.2633C39.7738 35.2215 37.6505 37.7541 34.9701 39.5814C32.2896 41.4087 29.1562 42.4596 25.916 42.618V40.9652C25.9163 40.8062 25.8711 40.6503 25.7859 40.516C25.7006 40.3817 25.5788 40.2745 25.4348 40.207C25.2907 40.1395 25.1304 40.1145 24.9727 40.1349C24.8149 40.1554 24.6662 40.2204 24.5442 40.3223L19.5281 44.5024C19.4338 44.5808 19.3578 44.6791 19.3057 44.7902C19.2536 44.9013 19.2266 45.0225 19.2266 45.1452C19.2266 45.268 19.2536 45.3892 19.3057 45.5003C19.3578 45.6114 19.4338 45.7097 19.5281 45.7881L24.5442 49.9681C24.6949 50.0928 24.8844 50.1611 25.08 50.1612C25.2026 50.1614 25.3237 50.1342 25.4345 50.0818C25.5783 50.0145 25.7 49.9076 25.7853 49.7736C25.8706 49.6396 25.9159 49.4841 25.916 49.3252V47.6374C30.3833 47.4603 34.6986 45.9663 38.319 43.3433C41.9395 40.7202 44.7035 37.0852 46.2634 32.8953L44.6943 32.3151C43.2046 36.3188 40.5285 39.7724 37.0235 42.2144C33.5186 44.6565 29.3518 45.9706 25.08 45.9812Z" fill="#048DEF"></path><path d="M50.0811 24.7268C50.0137 24.583 49.9068 24.4613 49.7728 24.376C49.6388 24.2907 49.4833 24.2454 49.3245 24.2453H47.6366C47.459 19.7783 45.9648 15.4636 43.3418 11.8435C40.7188 8.22339 37.084 5.45958 32.8946 3.89954L32.3144 5.46871C36.3178 6.95828 39.7712 9.63415 42.2132 13.1388C44.6552 16.6434 45.9695 20.8098 45.9805 25.0813C45.9805 25.303 46.0686 25.5156 46.2253 25.6724C46.3821 25.8292 46.5948 25.9173 46.8165 25.9173H47.5396L45.1445 28.7915L42.7493 25.9173H43.4725C43.6942 25.9173 43.9068 25.8292 44.0636 25.6724C44.2204 25.5156 44.3085 25.303 44.3085 25.0813C44.3044 21.3721 43.2304 17.7429 41.2152 14.6289C39.2 11.5149 36.3292 9.04841 32.9472 7.52527L32.2617 9.05014C35.2203 10.3829 37.7531 12.5072 39.5805 15.1886C41.4079 17.87 42.4588 21.0043 42.6173 24.2453H40.9645C40.8054 24.245 40.6496 24.2902 40.5153 24.3755C40.381 24.4607 40.2738 24.5825 40.2063 24.7265C40.1388 24.8706 40.1138 25.0309 40.1342 25.1886C40.1546 25.3464 40.2196 25.4951 40.3216 25.6172L44.5016 30.6332C44.5801 30.7275 44.6783 30.8035 44.7894 30.8556C44.9005 30.9077 45.0218 30.9347 45.1445 30.9347C45.2672 30.9347 45.3884 30.9077 45.4995 30.8556C45.6106 30.8035 45.7089 30.7275 45.7874 30.6332L49.9674 25.6172C50.069 25.4949 50.1337 25.3462 50.1538 25.1885C50.174 25.0308 50.1487 24.8707 50.0811 24.7268Z" fill="#048DEF"></path><path d="M5.85322 25.0812C5.84487 28.6275 6.82082 32.1066 8.67243 35.1312C10.524 38.1558 13.1787 40.6072 16.3409 42.2125L17.1016 40.7236C14.3409 39.322 12.0016 37.2129 10.3226 34.6117C8.64351 32.0104 7.68484 29.0101 7.54445 25.9172H9.19723C9.3563 25.9175 9.51214 25.8723 9.64645 25.787C9.78075 25.7018 9.88795 25.58 9.95545 25.436C10.023 25.2919 10.048 25.1316 10.0275 24.9739C10.0071 24.8161 9.94208 24.6674 9.84011 24.5453L5.66011 19.5293C5.57883 19.4395 5.47963 19.3677 5.3689 19.3186C5.25817 19.2694 5.13837 19.244 5.01722 19.244C4.89608 19.244 4.77628 19.2694 4.66555 19.3186C4.55482 19.3677 4.45561 19.4395 4.37434 19.5293L0.194337 24.5453C0.0923698 24.6674 0.0273542 24.8161 0.00692393 24.9739C-0.0135063 25.1316 0.011497 25.2919 0.0789981 25.436C0.146499 25.58 0.253696 25.7018 0.388002 25.787C0.522307 25.8723 0.678147 25.9175 0.837221 25.9172H2.52511C2.6773 30.2312 4.06633 34.4106 6.52675 37.9574C8.98717 41.5043 12.4153 44.2692 16.4027 45.9227L17.0464 44.3795C13.2324 42.7977 9.97382 40.1194 7.68351 36.6838C5.3932 33.2483 4.17428 29.2102 4.18122 25.0812C4.18122 24.8595 4.09314 24.6469 3.93636 24.4901C3.77958 24.3333 3.56694 24.2452 3.34522 24.2452H2.62208L5.01722 21.371L7.41237 24.2452H6.68922C6.4675 24.2452 6.25486 24.3333 6.09808 24.4901C5.9413 24.6469 5.85322 24.8595 5.85322 25.0812Z" fill="#048DEF"></path></svg>