<svg xmlns="http://www.w3.org/2000/svg" width="60" height="51" viewBox="0 0 60 51" fill="none"><path d="M28.4933 37.1402L24.9684 33.794C24.6221 33.4649 24.6082 32.9178 24.9368 32.5716C25.2655 32.2254 25.8126 32.2114 26.1588 32.5401L28.9368 35.1776L33.9574 27.6C34.2213 27.202 34.758 27.093 35.1555 27.3569C35.5536 27.6203 35.6625 28.157 35.3987 28.555C35.3987 28.555 29.8125 36.9862 29.8094 36.9912C29.5226 37.4234 28.8724 37.5045 28.4933 37.1402Z" fill="#047BDC"></path><path d="M29.0692 49.9536C16.2445 43.9631 13.897 30.9362 13.4917 27.0659C13.3985 26.1717 13.8898 25.3338 14.7142 24.9813C17.2355 23.903 18.9325 21.5338 19.1432 18.7981C19.2107 17.9166 19.9262 17.2475 20.8064 17.2421L38.0115 17.1412H38.021C38.8841 17.1412 39.6171 17.8094 39.6918 18.6671C39.9304 21.4014 41.6531 23.7539 44.1866 24.8057C45.0195 25.151 45.5234 25.9844 45.4405 26.8791C45.0808 30.7539 42.8894 43.8159 30.1327 49.9477C29.827 50.0945 29.3754 50.0967 29.0692 49.9536ZM20.8636 18.9706C20.5898 22.3339 18.4971 25.2438 15.394 26.5711C15.2707 26.6238 15.1973 26.7503 15.2112 26.8858C15.5899 30.5062 17.7438 42.6988 29.5911 48.2895C41.3708 42.5606 43.3824 30.3437 43.7188 26.7192C43.7314 26.5833 43.653 26.4559 43.5238 26.4018C40.409 25.1092 38.2866 22.2263 37.9741 18.8702L20.8636 18.9706Z" fill="#047BDC"></path><path d="M28.8961 46.4055C25.0294 44.2916 21.939 41.234 19.7639 37.2183C17.9593 33.8865 17.1628 30.6231 16.8121 28.4723C16.7171 27.8888 16.9818 27.3147 17.487 27.0099C19.5667 25.7551 21.0714 23.7763 21.7242 21.4377C21.8958 20.8222 22.4617 20.3895 23.0993 20.3859L35.7547 20.3116C36.3949 20.3121 36.9631 20.7335 37.1423 21.3472C37.8226 23.6777 39.3503 25.6389 41.4448 26.8694C41.9532 27.1684 42.2247 27.7388 42.1364 28.3233C41.8113 30.4781 41.0531 33.75 39.2873 37.1034C37.1594 41.1444 34.105 44.238 30.264 46.3974C29.8988 46.6027 29.3752 46.6675 28.8961 46.4055ZM18.5505 28.3854C18.8949 30.4038 19.6472 33.3727 21.2839 36.3952C23.2685 40.0593 26.056 42.8877 29.5701 44.8048C33.0618 42.8463 35.8159 39.985 37.7574 36.298C39.3589 33.2561 40.0761 30.2791 40.3967 28.2575C38.0716 26.8357 36.3594 24.6412 35.5458 22.0419L23.328 22.1135C22.5455 24.7218 20.8588 26.9365 18.5505 28.3854Z" fill="#047BDC"></path><path d="M49.5415 38.4696H45.4587C44.981 38.4696 44.5943 38.0829 44.5943 37.6052C44.5943 37.1279 44.981 36.7407 45.4587 36.7407H49.5415C53.8116 36.7407 57.2853 33.2671 57.2853 28.997C57.2853 24.7273 53.8116 21.2267 49.5415 21.2533C48.5542 21.2596 48.4677 20.6112 48.4587 19.2348C48.3975 9.58251 40.6056 1.72893 30.9533 1.72893C23.9052 1.72893 17.2965 6.2201 14.6901 12.745C14.555 13.0831 14.1867 13.2777 13.46 13.2781C6.99137 13.2822 1.72893 18.541 1.72893 25.0092C1.72893 31.4778 6.99137 36.7407 13.46 36.7407C13.9377 36.7407 14.3245 37.1279 14.3245 37.6052C14.3245 38.0824 13.9377 38.4696 13.46 38.4696C6.0382 38.4696 0 32.4314 0 25.0092C0 17.6356 5.95986 11.6275 13.3159 11.5501C17.4622 1.57855 27.0312 0 30.9533 0C41.5592 0 50.1881 8.6289 50.1881 19.2348C50.1881 19.3384 50.1867 19.4419 50.1854 19.5459C55.1097 19.8778 59.0142 23.9898 59.0142 28.997C59.0142 34.2202 54.7648 38.4696 49.5415 38.4696Z" fill="#047BDC"></path></svg>