<svg xmlns="http://www.w3.org/2000/svg" width="52" height="51" viewBox="0 0 52 51" fill="none"><path d="M16.6484 46.8305H21.6436V35.526H16.6484V46.8305ZM18.3135 37.1409H19.9786V45.2156H18.3135V37.1409Z" fill="#047BDC"></path><path d="M9.98828 46.83H14.9835V41.9852H9.98828V46.83ZM11.6533 43.6002H13.3184V45.2151H11.6533V43.6002Z" fill="#047BDC"></path><path d="M9.98828 40.3708H14.9835V35.526H9.98828V40.3708ZM11.6533 37.1409H13.3184V38.7559H11.6533V37.1409Z" fill="#047BDC"></path><path d="M3.32812 46.83H8.3233V41.9852H3.32812V46.83ZM4.99318 43.6002H6.65824V45.2151H4.99318V43.6002Z" fill="#047BDC"></path><path d="M3.32812 40.3708H8.3233V35.526H3.32812V40.3708ZM4.99318 37.1409H6.65824V38.7559H4.99318V37.1409Z" fill="#047BDC"></path><path d="M9.98828 33.9114H14.9835V29.0667H9.98828V33.9114ZM11.6533 30.6816H13.3184V32.2965H11.6533V30.6816Z" fill="#047BDC"></path><path d="M16.6484 33.9114H21.6436V29.0667H16.6484V33.9114ZM18.3135 30.6816H19.9786V32.2965H18.3135V30.6816Z" fill="#047BDC"></path><path d="M3.32812 33.9114H8.3233V29.0667H3.32812V33.9114ZM4.99318 30.6816H6.65824V32.2965H4.99318V30.6816Z" fill="#047BDC"></path><path d="M3.32812 27.4518H21.6425V19.3777H3.32812V27.4518ZM4.99307 20.9925H19.9776V25.837H4.99307V20.9925Z" fill="#047BDC"></path><path d="M37.4585 33.9115C37.9171 33.9115 38.2911 34.2742 38.2911 34.719H39.9561C39.9561 33.6678 39.2577 32.7796 38.2911 32.4452V30.6816H36.626V32.4452C35.6593 32.7796 34.9609 33.6678 34.9609 34.719C34.9609 36.0544 36.0817 37.1414 37.4585 37.1414C37.9171 37.1414 38.2911 37.5041 38.2911 37.9488C38.2911 38.3936 37.9171 38.7563 37.4585 38.7563C37 38.7563 36.626 38.3936 36.626 37.9488H34.9609C34.9609 38.9999 35.6593 39.8882 36.626 40.2226V41.9862H38.2911V40.2226C39.2577 39.8882 39.9561 38.9999 39.9561 37.9488C39.9561 36.6134 38.8354 35.5264 37.4585 35.5264C37 35.5264 36.626 35.1637 36.626 34.719C36.626 34.2742 37 33.9115 37.4585 33.9115Z" fill="#047BDC"></path><path d="M37.458 27.4519C32.4091 27.4519 28.3008 31.4365 28.3008 36.3334C28.3008 41.2303 32.4091 45.2149 37.458 45.2149C42.5069 45.2149 46.6152 41.2303 46.6152 36.3334C46.6152 31.4365 42.5069 27.4519 37.458 27.4519ZM37.458 43.6001C33.3273 43.6001 29.9657 40.3397 29.9657 36.3334C29.9657 32.3271 33.3273 29.0667 37.458 29.0667C41.5886 29.0667 44.9502 32.3271 44.9502 36.3334C44.9502 40.3397 41.5886 43.6001 37.458 43.6001Z" fill="#047BDC"></path><path d="M45.7535 8.25347C45.4181 3.64951 41.4598 0 36.6288 0C33.1908 0 30.193 1.849 28.6272 4.574C27.7354 4.22273 26.7757 4.03705 25.8066 4.03705C22.9296 4.03705 20.3582 5.60337 19.0977 8.07409C14.9886 8.10011 11.6546 11.3499 11.6546 15.3408C11.6546 15.6112 11.6762 15.8809 11.707 16.1482H2.49742C1.12067 16.1482 0 17.2351 0 18.5704V47.6371C0 48.9724 1.12067 50.0594 2.49742 50.0594H22.4768C23.8535 50.0594 24.9742 48.9724 24.9742 47.6371V22.6075H44.121C48.2517 22.6075 51.6133 19.3471 51.6133 15.3408C51.6133 11.8785 49.1008 8.97848 45.7535 8.25347ZM23.3092 47.6371C23.3092 48.0818 22.9353 48.4446 22.4768 48.4446H2.49742C2.03891 48.4446 1.66494 48.0818 1.66494 47.6371V18.5704C1.66494 18.1257 2.03891 17.763 2.49742 17.763H22.4768C22.9353 17.763 23.3092 18.1257 23.3092 18.5704V47.6371ZM44.121 20.9926H24.9742V18.5704C24.9742 17.2351 23.8535 16.1482 22.4768 16.1482H13.3838C13.3444 15.8817 13.3196 15.612 13.3196 15.3408C13.3196 12.2243 15.9336 9.68891 19.1469 9.68891C19.27 9.68891 19.3924 9.69877 19.5672 9.71059L20.1732 9.75278L20.3988 9.20517C21.2915 7.04709 23.4133 5.65186 25.8066 5.65186C26.5452 5.65186 27.2761 5.78827 27.9569 6.05005C27.6472 6.94064 27.4716 7.89077 27.4716 8.8815H29.1365C29.1365 4.87521 32.4981 1.61482 36.6288 1.61482C40.479 1.61482 43.6572 4.44785 44.0718 8.07646C39.9635 8.10248 36.6288 11.3499 36.6288 15.3408H38.2937C38.2937 12.2243 40.9078 9.68891 44.121 9.68891C47.3343 9.68891 49.9483 12.2243 49.9483 15.3408C49.9483 18.4573 47.3343 20.9926 44.121 20.9926Z" fill="#047BDC"></path></svg>