<svg xmlns="http://www.w3.org/2000/svg" width="51" height="52" viewBox="0 0 51 52" fill="none"><path d="M39.6581 30.0153C34.1303 30.0153 29.5939 34.304 29.1779 39.7275H28.3272C27.8805 39.7275 27.5179 39.3641 27.5179 38.9181V25.9685C27.5179 25.5226 27.8805 25.1592 28.3272 25.1592H40.4675C42.6503 25.1592 44.6996 24.192 46.09 22.5061C47.4797 20.8202 48.0333 18.6026 47.61 16.4222C47.0524 13.5482 44.7417 11.2578 41.8604 10.7212C41.2558 10.6079 40.648 10.5714 40.0474 10.6054C39.0487 7.77351 36.3536 5.73476 33.1833 5.73476C32.3101 5.73476 31.4594 5.88935 30.646 6.19528C28.5798 2.89799 24.966 0.878662 21.0431 0.878662C15.3946 0.878662 10.6268 5.08809 9.83684 10.5973C9.314 10.5876 8.7863 10.6297 8.25941 10.7325C5.40969 11.2861 3.12247 13.5725 2.56969 16.4214C2.1464 18.6026 2.69999 20.8202 4.08964 22.5061C5.48011 24.192 7.52938 25.1592 9.7122 25.1592H21.8524C22.2992 25.1592 22.6618 25.5226 22.6618 25.9685V37.2994C22.6618 37.7454 22.2992 38.1088 21.8524 38.1088H21.0431V30.8246C21.0431 28.5932 19.2277 26.7779 16.9963 26.7779H4.04675C1.81537 26.7779 0 28.5932 0 30.8246V47.0116C0 49.243 1.81537 51.0583 4.04675 51.0583H16.9963C19.2277 51.0583 21.0431 49.243 21.0431 47.0116V39.7275H21.8524C23.1911 39.7275 24.2805 38.6381 24.2805 37.2994V25.9685C24.2805 24.6298 23.1911 23.5405 21.8524 23.5405H9.7122C8.01337 23.5405 6.41976 22.7878 5.33847 21.4766C4.25718 20.1655 3.82742 18.4351 4.15844 16.7306C4.58739 14.5227 6.35987 12.751 8.56778 12.3212C10.2731 11.991 12.0018 12.42 13.313 13.5013C14.6249 14.5826 15.3776 16.177 15.3776 17.875H16.9963C16.9963 15.6914 16.0292 13.6421 14.3433 12.2525C13.4878 11.5475 12.4956 11.0595 11.4402 10.8037C12.1265 6.0933 16.2097 2.49736 21.0431 2.49736C24.6196 2.49736 27.8967 4.45518 29.5963 7.6076L29.9678 8.29635L30.6687 7.94833C31.4635 7.55337 32.3092 7.35346 33.1833 7.35346C36.3066 7.35346 38.8488 9.89482 38.8488 13.0189C38.8488 16.143 36.3066 18.6844 33.1833 18.6844V20.3031C37.2001 20.3031 40.4675 17.0349 40.4675 13.0189C40.4675 12.7486 40.4505 12.4831 40.4214 12.2201C40.8009 12.2168 41.1821 12.2403 41.5642 12.3115C43.7972 12.7275 45.5891 14.5033 46.0212 16.7298C46.3523 18.4343 45.9225 20.1647 44.8412 21.4758C43.7599 22.7878 42.1663 23.5405 40.4675 23.5405H28.3272C26.9886 23.5405 25.8992 24.6298 25.8992 25.9685V38.9181C25.8992 40.2568 26.9886 41.3462 28.3272 41.3462H29.1779C29.5939 46.7696 34.1303 51.0583 39.6581 51.0583C45.4596 51.0583 50.1797 46.3382 50.1797 40.5368C50.1797 34.7354 45.4596 30.0153 39.6581 30.0153ZM4.04675 28.3966H16.9963C18.335 28.3966 19.4244 29.4859 19.4244 30.8246V42.9649H1.6187V30.8246C1.6187 29.4859 2.70808 28.3966 4.04675 28.3966ZM16.9963 49.4396H4.04675C2.70808 49.4396 1.6187 48.3503 1.6187 47.0116V44.5835H19.4244V47.0116C19.4244 48.3503 18.335 49.4396 16.9963 49.4396ZM39.6581 31.634C44.5668 31.634 48.561 35.6281 48.561 40.5368C48.561 42.374 48.0009 44.0826 47.0443 45.5022C46.2066 43.7264 44.6971 42.3797 42.864 41.7476C43.8732 40.8565 44.5142 39.5575 44.5142 38.1088C44.5142 35.4306 42.3363 33.2527 39.6581 33.2527C36.98 33.2527 34.802 35.4306 34.802 38.1088C34.802 39.5575 35.443 40.8565 36.4531 41.7476C34.6199 42.3805 33.1113 43.7273 32.2728 45.5022C31.3154 44.0826 30.7553 42.374 30.7553 40.5368C30.7553 35.6281 34.7494 31.634 39.6581 31.634ZM36.4207 38.1088C36.4207 36.3233 37.8727 34.8714 39.6581 34.8714C41.4436 34.8714 42.8955 36.3233 42.8955 38.1088C42.8955 39.8942 41.4436 41.3462 39.6581 41.3462C37.8727 41.3462 36.4207 39.8942 36.4207 38.1088ZM33.4666 46.921C34.2072 44.5763 36.3511 42.9649 38.8488 42.9649H40.4675C42.9668 42.9649 45.1107 44.5763 45.8497 46.921C44.2455 48.4765 42.0635 49.4396 39.6581 49.4396C37.2528 49.4396 35.0707 48.4765 33.4666 46.921Z" fill="#0369CA"></path><path d="M4.85698 34.8712H16.1879C17.0806 34.8712 17.8066 34.1452 17.8066 33.2525V31.6338C17.8066 30.7411 17.0806 30.0151 16.1879 30.0151H4.85698C3.96427 30.0151 3.23828 30.7411 3.23828 31.6338V33.2525C3.23828 34.1452 3.96427 34.8712 4.85698 34.8712ZM4.85698 31.6338H16.1879L16.1887 33.2525H4.85698V31.6338Z" fill="#0369CA"></path><path d="M4.85698 41.3461H16.1879C17.0806 41.3461 17.8066 40.6201 17.8066 39.7274V38.1087C17.8066 37.216 17.0806 36.49 16.1879 36.49H4.85698C3.96427 36.49 3.23828 37.216 3.23828 38.1087V39.7274C3.23828 40.6201 3.96427 41.3461 4.85698 41.3461ZM4.85698 38.1087H16.1879L16.1887 39.7274H4.85698V38.1087Z" fill="#0369CA"></path></svg>