<svg xmlns="http://www.w3.org/2000/svg" width="52" height="51" viewBox="0 0 52 51" fill="none"><path d="M47.2447 33.3891C45.6015 33.3891 44.2415 34.5223 43.8449 36.0522H40.3318V29.5927H40.8418C46.6214 29.5927 51.6644 24.5497 51.6644 18.8268C51.6644 13.8404 48.7746 9.93072 44.0716 8.51415C43.6183 4.88774 41.2384 1.94128 37.782 0.638042C34.3256 -0.665199 30.5292 0.0714154 27.8094 2.45125C25.1462 1.26133 21.8598 1.26133 18.9133 2.50791C16.3635 3.5845 14.437 5.51103 13.5304 7.8342C11.8305 7.72087 10.1306 8.2875 8.82739 9.47742C7.52415 10.6673 6.78754 12.2539 6.78754 13.9538C3.21779 14.8037 0.667969 17.9202 0.667969 21.7165C0.667969 26.0229 4.29438 29.6493 8.60074 29.6493H12.0005V36.0522H8.48741C8.09078 34.5223 6.73087 33.3891 5.08766 33.3891C3.16113 33.3891 1.57457 34.9756 1.57457 36.9021C1.57457 38.8287 3.16113 40.4152 5.08766 40.4152C6.73087 40.4152 8.09078 39.282 8.48741 37.7521H12.8504C13.3037 37.7521 13.7004 37.3554 13.7004 36.9021V29.5927H18.6867V38.3754L15.4003 41.6618C14.8903 41.3218 14.267 41.1518 13.5871 41.1518C11.6605 41.1518 10.074 42.7384 10.074 44.6649C10.074 46.5915 11.6605 48.178 13.5871 48.178C15.5136 48.178 17.1001 46.5915 17.1001 44.6649C17.1001 43.985 16.9301 43.4183 16.5902 42.8517L20.0466 39.3953C20.2166 39.2253 20.2732 38.9987 20.2732 38.772V29.5927H25.2596V43.2484C23.7297 43.645 22.5964 45.0049 22.5964 46.6481C22.5964 48.5746 24.183 50.1612 26.1095 50.1612C28.036 50.1612 29.6226 48.5746 29.6226 46.6481C29.6226 45.0049 28.4893 43.645 26.9594 43.2484V29.5927H31.9458V38.772C31.9458 38.9987 32.0591 39.2253 32.1724 39.3953L35.6288 42.8517C35.2888 43.3617 35.1189 43.985 35.1189 44.6649C35.1189 46.5915 36.7054 48.178 38.6319 48.178C40.5585 48.178 42.145 46.5915 42.145 44.6649C42.145 42.7384 40.5585 41.1518 38.6319 41.1518C37.952 41.1518 37.3854 41.3218 36.8187 41.6618L33.589 38.432V29.5927H38.6319V36.8455C38.6319 37.2988 39.0286 37.6954 39.4819 37.6954H43.8449C44.2415 39.2253 45.6015 40.3586 47.2447 40.3586C49.1712 40.3586 50.7578 38.772 50.7578 36.8455C50.7578 34.9189 49.1712 33.3891 47.2447 33.3891ZM5.08766 38.6587C4.12439 38.6587 3.27445 37.8654 3.27445 36.8455C3.27445 35.8822 4.06773 35.0323 5.08766 35.0323C6.05092 35.0323 6.90086 35.8256 6.90086 36.8455C6.90086 37.8654 6.05092 38.6587 5.08766 38.6587ZM13.6437 46.4215C12.6805 46.4215 11.8305 45.6282 11.8305 44.6083C11.8305 43.645 12.6238 42.7951 13.6437 42.7951C14.607 42.7951 15.4569 43.5883 15.4569 44.6083C15.4003 45.6282 14.607 46.4215 13.6437 46.4215ZM27.9794 46.6481C27.9794 47.6114 27.1861 48.4613 26.1662 48.4613C25.2029 48.4613 24.353 47.668 24.353 46.6481C24.353 45.6849 25.1462 44.8349 26.1662 44.8349C27.1294 44.8349 27.9794 45.6282 27.9794 46.6481ZM40.5018 44.6083C40.5018 45.5715 39.7085 46.4215 38.6886 46.4215C37.7253 46.4215 36.8754 45.6282 36.8754 44.6083C36.8754 43.645 37.6687 42.7951 38.6886 42.7951C39.7085 42.8517 40.5018 43.645 40.5018 44.6083ZM2.36785 21.7165C2.36785 18.4868 4.57769 15.937 7.80746 15.5403C8.26076 15.4837 8.60074 15.087 8.54408 14.6337C8.43075 13.1605 8.94072 11.8006 10.0173 10.7807C10.8672 9.98738 12.0005 9.53408 13.1338 9.53408C13.4171 9.53408 13.7004 9.53408 13.9837 9.59074C14.437 9.6474 14.8336 9.42075 14.947 8.96745C15.5136 6.87093 17.2135 5.05773 19.5933 4.0378C22.2564 2.90455 25.3162 2.96121 27.5827 4.15113C27.9227 4.32111 28.3193 4.26445 28.6027 3.98114C30.8692 1.71463 34.1556 0.978018 37.2154 2.11127C40.2185 3.24452 42.2584 5.90767 42.485 9.13744C42.485 9.47742 42.7683 9.81739 43.1083 9.87406C47.358 11.064 49.9645 14.4637 49.9645 18.8268C49.9645 23.6431 45.7148 27.8928 40.8418 27.8928H8.60074C5.20098 27.8928 2.36785 25.0596 2.36785 21.7165ZM47.2447 38.6587C46.2814 38.6587 45.4315 37.8654 45.4315 36.8455C45.4315 35.8822 46.2247 35.0323 47.2447 35.0323C48.2079 35.0323 49.0579 35.8256 49.0579 36.8455C49.0579 37.8654 48.2646 38.6587 47.2447 38.6587Z" fill="#048DEF"></path></svg>