<svg xmlns="http://www.w3.org/2000/svg" width="55" height="50" viewBox="0 0 55 50" fill="none"><path d="M54.2766 29.3304L51.9305 28.955C51.8093 28.5918 51.6624 28.2376 51.4906 27.8949L52.8843 25.9712C53.1319 25.6294 53.0944 25.1586 52.7959 24.8602L50.9043 22.9697C50.6058 22.6714 50.1346 22.634 49.7926 22.8813L47.8678 24.2742C47.5248 24.1024 47.1703 23.9556 46.807 23.8345L46.4315 21.49C46.3648 21.0734 46.0051 20.7669 45.583 20.7669H42.9078C42.4857 20.7669 42.126 21.0734 42.0593 21.49L41.6838 23.8345C41.3203 23.9555 40.9659 24.1024 40.623 24.2741L38.6983 22.8812C38.3561 22.6338 37.885 22.6711 37.5866 22.9696L35.695 24.8603C35.3965 25.1586 35.359 25.6295 35.6066 25.9712L37.0003 27.895C36.8285 28.2377 36.6815 28.5918 36.5605 28.955L34.2144 29.3304C33.7976 29.397 33.4909 29.7565 33.4909 30.1784V32.8519C33.4909 33.2739 33.7976 33.6333 34.2144 33.7L36.5605 34.0753C36.6816 34.4385 36.8286 34.7927 37.0003 35.1353L35.6066 37.0591C35.359 37.4008 35.3965 37.8717 35.695 38.17L37.5866 40.0605C37.8851 40.3589 38.3562 40.3962 38.6982 40.1489L40.6231 38.756C40.9661 38.9278 41.3205 39.0747 41.6839 39.1958L42.0594 41.5402C42.1261 41.9568 42.4858 42.2633 42.9079 42.2633H45.5831C46.0052 42.2633 46.3649 41.9568 46.4316 41.5402L46.8071 39.1955C47.1705 39.0745 47.5249 38.9276 47.8678 38.756L49.7927 40.1489C50.1346 40.3963 50.6058 40.3589 50.9043 40.0605L52.7959 38.17C53.0944 37.8717 53.1319 37.4008 52.8843 37.0591L51.4906 35.1355C51.6625 34.7926 51.8096 34.4384 51.9306 34.0753L54.2765 33.7C54.6933 33.6333 55 33.2739 55 32.8519V30.1784C55.0001 29.7565 54.6934 29.397 54.2766 29.3304ZM53.2814 32.1196L51.124 32.4648C50.7858 32.5189 50.5121 32.7685 50.4273 33.1001C50.2782 33.683 50.0461 34.2422 49.7375 34.7623C49.5628 35.0568 49.5797 35.4267 49.7806 35.704L51.0624 37.4734L50.2072 38.3282L48.4366 37.0471C48.1592 36.8462 47.7889 36.8294 47.4943 37.004C46.9745 37.3121 46.4149 37.544 45.8312 37.6933C45.4995 37.7781 45.2497 38.0516 45.1956 38.3896L44.8502 40.5458H43.6407L43.2953 38.3897C43.2412 38.0517 42.9914 37.7782 42.6597 37.6934C42.0763 37.5443 41.5167 37.3124 40.9966 37.004C40.702 36.8294 40.3317 36.8463 40.0543 37.0471L38.2838 38.3282L37.4286 37.4734L38.7104 35.7039C38.9113 35.4266 38.9282 35.0567 38.7535 34.7622C38.4453 34.2428 38.2133 33.6835 38.064 33.1C37.9791 32.7685 37.7054 32.5189 37.3672 32.4648L35.2098 32.1196V30.9108L37.3672 30.5656C37.7054 30.5115 37.9791 30.2619 38.064 29.9304C38.2133 29.347 38.4452 28.7878 38.7535 28.2683C38.9282 27.9738 38.9113 27.6038 38.7104 27.3265L37.4286 25.5571L38.2838 24.7023L40.0542 25.9835C40.3316 26.1841 40.7018 26.2011 40.9966 26.0265C41.5165 25.7183 42.0761 25.4864 42.6597 25.3373C42.9915 25.2525 43.2413 24.9789 43.2953 24.6409L43.6407 22.4849H44.8502L45.1956 24.6409C45.2497 24.9789 45.4995 25.2525 45.8312 25.3373C46.4147 25.4864 46.9743 25.7183 47.4943 26.0265C47.7889 26.2013 48.1592 26.1842 48.4367 25.9836L50.2072 24.7025L51.0624 25.5572L49.7805 27.3266C49.5796 27.6039 49.5627 27.974 49.7374 28.2685C50.0457 28.7879 50.2777 29.3471 50.427 29.9306C50.5119 30.2621 50.7856 30.5117 51.1238 30.5658L53.2814 30.9108V32.1196ZM44.2454 26.7061C41.5921 26.7061 39.4335 28.8635 39.4335 31.5152C39.4335 34.167 41.5921 36.3243 44.2454 36.3243C46.8988 36.3243 49.0574 34.167 49.0574 31.5152C49.0574 28.8635 46.8988 26.7061 44.2454 26.7061ZM44.2454 34.6066C42.5398 34.6066 41.1522 33.2199 41.1522 31.5152C41.1522 29.8106 42.5398 28.4238 44.2454 28.4238C45.9511 28.4238 47.3387 29.8106 47.3387 31.5152C47.3387 33.2197 45.9511 34.6066 44.2454 34.6066ZM34.731 17.9892L36.6558 19.3821C36.9978 19.6295 37.4689 19.5921 37.7675 19.2937L39.6591 17.4033C39.9576 17.1049 39.9951 16.634 39.7475 16.2923L38.3538 14.3685C38.5257 14.0258 38.6726 13.6715 38.7938 13.3084L41.1397 12.9331C41.5565 12.8664 41.8631 12.507 41.8631 12.085V9.41148C41.8631 8.98956 41.5565 8.63013 41.1397 8.56346L38.7936 8.18813C38.6724 7.82494 38.5254 7.47065 38.3537 7.12796L39.7474 5.20431C39.995 4.86248 39.9575 4.39161 39.659 4.09326L37.7674 2.20278C37.4688 1.90443 36.9977 1.86707 36.6558 2.11443L34.731 3.5073C34.388 3.33552 34.0335 3.18855 33.6702 3.06756L33.2946 0.72306C33.2279 0.306509 32.8683 0 32.4461 0H29.771C29.3488 0 28.9892 0.306509 28.9225 0.723167L28.547 3.06766C28.1836 3.18866 27.8291 3.33563 27.4862 3.5073L25.5614 2.11453C25.2194 1.86707 24.7482 1.90443 24.4498 2.20289L22.5582 4.09337C22.2597 4.39172 22.2222 4.86259 22.4698 5.20431L23.8635 7.12807C23.6918 7.47087 23.5448 7.82504 23.4237 8.18813L21.0776 8.56346C20.6608 8.63013 20.3542 8.98956 20.3542 9.41148V12.085C20.3542 12.507 20.6608 12.8664 21.0776 12.9331L23.4237 13.3084C23.5449 13.6716 23.6919 14.0258 23.8636 14.3684L22.4699 16.2922C22.2223 16.6339 22.2598 17.1048 22.5583 17.4031L24.4499 19.2936C24.7485 19.592 25.2196 19.6293 25.5615 19.382L27.4864 17.9891C27.8294 18.1609 28.1838 18.3078 28.5472 18.4289L28.9227 20.7733C28.9894 21.19 29.349 21.4965 29.7712 21.4965H32.4463C32.8685 21.4965 33.2281 21.19 33.2948 20.7735L33.6704 18.4287C34.0337 18.3077 34.3881 18.1609 34.731 17.9892ZM32.6944 16.9264C32.3626 17.0112 32.1129 17.2847 32.0587 17.6227L31.7134 19.7789H30.5038L30.1586 17.6228C30.1044 17.2848 29.8547 17.0112 29.5229 16.9265C28.9395 16.7774 28.38 16.5455 27.8598 16.2371C27.5654 16.0626 27.195 16.0794 26.9175 16.2802L25.1471 17.5613L24.2918 16.7065L25.5737 14.937C25.7746 14.6597 25.7914 14.2897 25.6168 13.9954C25.3085 13.4758 25.0764 12.9165 24.9271 12.3331C24.8422 12.0016 24.5685 11.752 24.2304 11.6979L22.0729 11.3527V10.1439L24.2305 9.79872C24.5686 9.74461 24.8423 9.49501 24.9272 9.16338C25.0764 8.58031 25.3083 8.02108 25.6168 7.50136C25.7914 7.20698 25.7745 6.83692 25.5737 6.55972L24.2918 4.79034L25.1471 3.93555L26.9175 5.21655C27.195 5.41731 27.5652 5.43417 27.8598 5.2596C28.3799 4.95138 28.9394 4.71948 29.523 4.57036C29.8549 4.48555 30.1046 4.212 30.1587 3.87403L30.5039 1.71795H31.7135L32.0589 3.87403C32.113 4.212 32.3627 4.48555 32.6946 4.57036C33.2779 4.71938 33.8374 4.95127 34.3576 5.2596C34.6521 5.43438 35.0224 5.41731 35.2999 5.21666L37.0703 3.93555L37.9256 4.79034L36.6436 6.55972C36.4427 6.83702 36.4259 7.20709 36.6007 7.50157C36.9088 8.02087 37.1409 8.5801 37.2902 9.1637C37.3751 9.49522 37.6488 9.74483 37.9869 9.79894L40.1444 10.1441V11.353L37.987 11.6981C37.6489 11.7522 37.3752 12.0018 37.2903 12.3334C37.1411 12.9163 36.9091 13.4755 36.6005 13.9955C36.4259 14.29 36.4427 14.6599 36.6436 14.9372L37.9255 16.7066L37.0702 17.5614L35.2998 16.2802C35.0222 16.0793 34.652 16.0625 34.3575 16.2371C33.8377 16.5452 33.2781 16.7771 32.6944 16.9264ZM35.9207 10.7483C35.9207 8.09655 33.762 5.93918 31.1087 5.93918C28.4554 5.93918 26.2967 8.09655 26.2967 10.7483C26.2967 13.4001 28.4554 15.5574 31.1087 15.5574C33.762 15.5574 35.9207 13.4001 35.9207 10.7483ZM31.1086 13.8397C29.403 13.8397 28.0154 12.4529 28.0154 10.7483C28.0154 9.04367 29.403 7.65692 31.1086 7.65692C32.8142 7.65692 34.2018 9.04367 34.2018 10.7483C34.2019 12.4528 32.8142 13.8397 31.1086 13.8397ZM0.859854 19.9295C0.615577 19.9295 0.373018 19.826 0.202969 19.6249C-0.103399 19.2626 -0.0577445 18.7208 0.304805 18.4146C3.5569 15.6686 7.55117 13.904 11.7491 13.3258L9.90113 12.3448C9.48197 12.1223 9.32267 11.6023 9.54524 11.1834C9.76793 10.7646 10.2883 10.6055 10.7073 10.8278L15.2083 13.2169C15.461 13.3511 15.6303 13.602 15.66 13.8864C15.6897 14.1708 15.5757 14.4513 15.3561 14.6346L11.8171 17.5889C11.6563 17.7231 11.461 17.7886 11.2667 17.7886C11.0207 17.7886 10.7766 17.6837 10.6066 17.4802C10.3024 17.1162 10.351 16.5746 10.7153 16.2704L12.2448 14.9937C8.2724 15.4891 4.48481 17.1337 1.41404 19.7266C1.2527 19.8629 1.05568 19.9295 0.859854 19.9295ZM42.9621 7.78811L43.9265 3.28163C43.9863 3.00207 44.1815 2.7705 44.4471 2.6641C44.7125 2.55782 45.0137 2.59035 45.2503 2.75117L49.464 5.61625C49.8564 5.88303 49.9581 6.41725 49.6911 6.80943C49.424 7.20161 48.8896 7.30339 48.4972 7.03639L46.685 5.80423C47.1908 7.39325 47.4476 9.04872 47.4476 10.7482C47.4476 13.0083 46.9939 15.1969 46.0994 17.2533C45.9587 17.5767 45.6427 17.7699 45.311 17.7699C45.1966 17.7699 45.0803 17.7469 44.9687 17.6984C44.5334 17.5092 44.3341 17.0033 44.5233 16.5683C45.3233 14.7294 45.7289 12.7713 45.7289 10.7482C45.7289 9.21781 45.4965 7.72778 45.0387 6.29841L44.6429 8.14744C44.5566 8.55068 44.2001 8.82681 43.8034 8.82681C43.7439 8.82681 43.6834 8.82058 43.6228 8.80759C43.1586 8.70839 42.8627 8.2519 42.9621 7.78811ZM53.9082 44.2032C54.0458 44.4539 54.0494 44.7566 53.918 45.0106L51.5777 49.5354C51.4251 49.8306 51.1248 50 50.8137 50C50.6808 50 50.546 49.9691 50.4197 49.9039C49.9981 49.6861 49.8331 49.168 50.051 48.7466L51.0295 46.8547C49.8862 47.3862 48.6806 47.7824 47.4235 48.036C46.3575 48.251 45.2846 48.3574 44.2195 48.3574C41.1645 48.3574 38.1684 47.4836 35.5473 45.7956C35.1483 45.5387 35.0333 45.0072 35.2903 44.6085C35.5475 44.2096 36.0793 44.0947 36.4782 44.3516C39.6352 46.3847 43.4015 47.0953 47.0835 46.3522C48.2572 46.1153 49.3809 45.7404 50.4425 45.233L48.4849 45.0556C48.0122 45.0128 47.6637 44.5951 47.7066 44.1228C47.7493 43.6504 48.1679 43.3018 48.64 43.345L53.2323 43.761C53.5171 43.7866 53.7706 43.9525 53.9082 44.2032ZM18.9817 37.8721C19.0853 38.7246 18.8557 39.5037 18.318 40.1251C17.7298 40.8046 16.7779 41.2705 15.6906 41.431V42.094C15.6906 42.5683 15.3059 42.9529 14.8313 42.9529C14.3567 42.9529 13.9719 42.5683 13.9719 42.094V41.4179C12.3282 41.1335 11.0597 40.0584 10.6819 38.544C10.567 38.0837 10.8473 37.6177 11.3078 37.5029C11.7683 37.3877 12.2347 37.6683 12.3495 38.1285C12.6621 39.3817 13.9435 39.7974 14.9457 39.7744C15.8162 39.7537 16.6295 39.4502 17.0181 39.0014C17.2391 38.7459 17.321 38.4529 17.2755 38.0791C17.2012 37.467 16.8413 36.7192 14.7015 36.368C11.7487 35.8835 11.0599 34.3614 11.0021 33.1698C10.9219 31.5205 12.0696 30.1398 13.8577 29.7346C13.8954 29.726 13.9338 29.7186 13.9719 29.7109V29.0215C13.9719 28.5472 14.3567 28.1626 14.8313 28.1626C15.3059 28.1626 15.6906 28.5472 15.6906 29.0215V29.7032C16.8992 29.9295 18.0682 30.6638 18.6663 32.0874C18.85 32.5248 18.6443 33.0282 18.2067 33.2118C17.7688 33.3955 17.2653 33.1897 17.0816 32.7524C16.555 31.4989 15.2737 31.1747 14.2379 31.4097C13.4725 31.5832 12.6715 32.1147 12.7188 33.0865C12.735 33.4217 12.7782 34.3117 14.9799 34.6731C15.8917 34.8227 18.6666 35.2779 18.9817 37.8721ZM14.8312 24.3698C8.65848 24.3698 3.6366 29.3887 3.6366 35.5577C3.6366 41.7267 8.65848 46.7456 14.8312 46.7456C21.0038 46.7456 26.0257 41.7267 26.0257 35.5577C26.0257 29.3887 21.0038 24.3698 14.8312 24.3698ZM14.8312 45.028C9.60615 45.028 5.35536 40.7797 5.35536 35.5578C5.35536 30.3359 9.60615 26.0876 14.8312 26.0876C20.0562 26.0876 24.307 30.3359 24.307 35.5578C24.307 40.7797 20.0562 45.028 14.8312 45.028ZM14.8312 21.1722C6.89418 21.1722 0.437041 27.6255 0.437041 35.5578C0.437041 43.4901 6.89418 49.9435 14.8312 49.9435C22.7681 49.9435 29.2254 43.4901 29.2254 35.5578C29.2254 27.6255 22.7681 21.1722 14.8312 21.1722ZM14.8312 48.2257C7.84196 48.2257 2.15579 42.5429 2.15579 35.5577C2.15579 28.5725 7.84185 22.8899 14.8312 22.8899C21.8205 22.8899 27.5066 28.5727 27.5066 35.5578C27.5066 42.5429 21.8204 48.2257 14.8312 48.2257Z" fill="#0369CA"></path></svg>