<svg xmlns="http://www.w3.org/2000/svg" width="49" height="63" viewBox="0 0 49 63" fill="none"><path d="M16.2942 28.1791C16.069 27.9552 15.7644 27.8296 15.4469 27.8296C15.1293 27.8296 14.8247 27.9552 14.5995 28.1791L7.56826 35.2103C7.3444 35.4355 7.21875 35.7402 7.21875 36.0577C7.21875 36.3752 7.3444 36.6799 7.56826 36.9051L14.5995 43.9363C14.7073 44.0621 14.8399 44.1643 14.989 44.2365C15.1381 44.3086 15.3005 44.3491 15.466 44.3555C15.6316 44.3619 15.7966 44.334 15.9509 44.2736C16.1051 44.2132 16.2452 44.1215 16.3623 44.0044C16.4794 43.8873 16.5711 43.7472 16.6315 43.5929C16.692 43.4387 16.7198 43.2737 16.7135 43.1081C16.7071 42.9426 16.6665 42.7802 16.5944 42.6311C16.5222 42.4819 16.42 42.3493 16.2942 42.2416L10.1163 36.0577L16.2942 29.8738C16.5181 29.6486 16.6437 29.344 16.6437 29.0265C16.6437 28.7089 16.5181 28.4043 16.2942 28.1791Z" fill="#0369CA"></path><path d="M33.482 28.1792C33.3743 28.0533 33.2417 27.9512 33.0926 27.879C32.9434 27.8069 32.781 27.7663 32.6155 27.7599C32.45 27.7535 32.2849 27.7814 32.1307 27.8419C31.9764 27.9023 31.8364 27.9939 31.7192 28.1111C31.6021 28.2282 31.5104 28.3683 31.45 28.5225C31.3896 28.6768 31.3617 28.8418 31.3681 29.0073C31.3745 29.1729 31.415 29.3353 31.4872 29.4844C31.5593 29.6335 31.6615 29.7661 31.7873 29.8739L37.9652 36.0578L31.7873 42.2417C31.6615 42.3494 31.5593 42.482 31.4872 42.6311C31.415 42.7802 31.3745 42.9427 31.3681 43.1082C31.3617 43.2737 31.3896 43.4388 31.45 43.593C31.5104 43.7472 31.6021 43.8873 31.7192 44.0045C31.8364 44.1216 31.9764 44.2132 32.1307 44.2737C32.2849 44.3341 32.45 44.362 32.6155 44.3556C32.781 44.3492 32.9434 44.3087 33.0926 44.2365C33.2417 44.1644 33.3743 44.0622 33.482 43.9364L40.5133 36.9051C40.7371 36.6799 40.8628 36.3753 40.8628 36.0578C40.8628 35.7402 40.7371 35.4356 40.5133 35.2104L33.482 28.1792Z" fill="#0369CA"></path><path d="M27.4997 24.4892C27.1945 24.3976 26.8654 24.431 26.5848 24.582C26.3042 24.733 26.095 24.9893 26.0033 25.2944L19.7533 46.1298C19.7081 46.2813 19.6932 46.4403 19.7095 46.5975C19.7259 46.7548 19.7731 46.9073 19.8484 47.0463C19.9238 47.1854 20.0258 47.3081 20.1487 47.4076C20.2716 47.5071 20.413 47.5814 20.5646 47.6262C20.6756 47.6598 20.7912 47.676 20.9072 47.6743C21.1657 47.675 21.4176 47.5924 21.6254 47.4387C21.8333 47.285 21.986 47.0683 22.061 46.8209L28.311 25.9856C28.3562 25.834 28.3711 25.6751 28.3548 25.5178C28.3384 25.3605 28.2913 25.208 28.2159 25.069C28.1405 24.93 28.0385 24.8072 27.9156 24.7077C27.7927 24.6082 27.6514 24.5339 27.4997 24.4892Z" fill="#0369CA"></path><path d="M47.7224 14.7776L33.2993 0.354567C33.0749 0.128854 32.7702 0.00134182 32.4519 0H1.20192C0.883153 0 0.57744 0.126631 0.352035 0.352035C0.126631 0.57744 0 0.883153 0 1.20192V61.2981C0 61.6168 0.126631 61.9226 0.352035 62.148C0.57744 62.3734 0.883153 62.5 1.20192 62.5H46.875C47.1938 62.5 47.4995 62.3734 47.7249 62.148C47.9503 61.9226 48.0769 61.6168 48.0769 61.2981V15.625C48.0756 15.3067 47.9481 15.002 47.7224 14.7776ZM33.6538 4.10457L43.9724 14.4231H33.6538V4.10457ZM2.40385 60.0962V2.40385H31.25V15.625C31.25 15.9438 31.3766 16.2495 31.602 16.4749C31.8274 16.7003 32.1332 16.8269 32.4519 16.8269H45.6731V60.0962H2.40385Z" fill="#0369CA"></path></svg>