<svg xmlns="http://www.w3.org/2000/svg" id="Layer_1" data-name="Layer 1" viewBox="0 0 73 61"><defs><style>.cls-1{fill:none;stroke:#0458b9;stroke-miterlimit:10;stroke-width:2px;}</style></defs><polygon class="cls-1" points="56.92 1.48 65.67 6.53 65.67 16.64 56.92 21.69 48.17 16.64 48.17 6.53 56.92 1.48"></polygon><polygon class="cls-1" points="56.92 1.48 65.67 6.53 65.67 16.64 56.92 21.69 48.17 16.64 48.17 6.53 56.92 1.48"></polygon><polygon class="cls-1" points="56.92 1.48 65.67 6.53 56.92 11.58 48.17 6.53 56.92 1.48"></polygon><line class="cls-1" x1="56.92" y1="21.69" x2="56.92" y2="11.58"></line><polygon class="cls-1" points="16.08 1.48 24.83 6.53 24.83 16.64 16.08 21.69 7.33 16.64 7.33 6.53 16.08 1.48"></polygon><polygon class="cls-1" points="16.08 1.48 24.83 6.53 24.83 16.64 16.08 21.69 7.33 16.64 7.33 6.53 16.08 1.48"></polygon><polygon class="cls-1" points="16.08 1.48 24.83 6.53 16.08 11.58 7.33 6.53 16.08 1.48"></polygon><line class="cls-1" x1="16.08" y1="21.69" x2="16.08" y2="11.58"></line><line class="cls-1" x1="24.83" y1="10.24" x2="48.17" y2="10.24"></line><rect class="cls-1" x="55.95" y="28.71" width="9.73" height="21.4"></rect><rect class="cls-1" x="7.32" y="28.71" width="9.73" height="21.4"></rect><path class="cls-1" d="M42.34,36.49l-1,1a8.24,8.24,0,0,1-11.67,0h0l6.81-6.81a8.27,8.27,0,0,1,11.67,0l1.95,2H56V46.21H52.06Z"></path><path class="cls-1" d="M31.94,46.21a5,5,0,0,0-7.11,0h0a3.26,3.26,0,0,0-.94,2.28,3.22,3.22,0,0,0,.94,2.28l7.45,7.45a5.5,5.5,0,0,0,7.78,0h0a2.8,2.8,0,0,0,.81-1.95,2.76,2.76,0,0,0-.81-1.94Z"></path><path class="cls-1" d="M42.34,36.49l9.72,9.72-12,12h0a2.8,2.8,0,0,0,.81-1.95,2.76,2.76,0,0,0-.81-1.94l-8.12-8.12a5,5,0,0,0-7.11,0H17.05V32.6h5.83s.82-.83,1.94-1.94a8.26,8.26,0,0,1,11.68,0h0l-6.81,6.81h0a8.24,8.24,0,0,0,11.67,0Z"></path></svg>