<svg xmlns="http://www.w3.org/2000/svg" width="64" height="62" viewBox="0 0 64 62" fill="none"><g clip-path="url(#clip0_1710_204)"><path d="M56.4828 16.7506C56.3799 16.6603 56.2587 16.5918 56.1269 16.5494C55.9952 16.5069 55.8557 16.4916 55.7175 16.5042C55.5793 16.5169 55.4453 16.5573 55.324 16.6228C55.2028 16.6884 55.097 16.7777 55.0133 16.8851C54.9297 16.9924 54.8701 17.1155 54.8382 17.2464C54.8064 17.3774 54.803 17.5133 54.8283 17.6455C54.8537 17.7778 54.9072 17.9035 54.9854 18.0146C55.0637 18.1257 55.165 18.2198 55.2828 18.2909C56.981 19.5216 58.5248 20.9405 59.8828 22.5186V43.4436C57.5267 41.7241 55.0815 40.1223 52.5568 38.6444H54.6488C55.0707 38.6443 55.4877 38.558 55.8728 38.3912C56.2579 38.2244 56.6023 37.9807 56.8836 37.6762C57.165 37.3717 57.3768 37.0131 57.5054 36.6239C57.634 36.2347 57.6764 35.8236 57.6298 35.4175L56.2718 23.5784C56.1449 22.4814 55.6335 21.4598 54.8229 20.6841C54.0123 19.9083 52.9516 19.4254 51.8178 19.3159C52.5032 18.4745 52.8782 17.435 52.8828 16.3631V16.1849C53.4657 15.9852 53.9707 15.616 54.3287 15.1277C54.6867 14.6394 54.8803 14.0558 54.8828 13.4569V6.67562C54.8812 5.39145 54.3539 4.16032 53.4166 3.25227C52.4793 2.34423 51.2084 1.83341 49.8828 1.83187H46.7158C45.0085 1.83018 43.3248 1.4452 41.7968 0.707154L40.3298 -0.00390865C40.1773 -0.0777301 40.0079 -0.112559 39.8376 -0.105087C39.6673 -0.0976151 39.5018 -0.0480907 39.3568 0.0387826C39.2118 0.125656 39.0922 0.246993 39.0092 0.391271C38.9262 0.535548 38.8827 0.697974 38.8828 0.863123V5.70687C38.8854 6.30581 39.0789 6.88936 39.4369 7.37767C39.7949 7.86599 40.2999 8.23523 40.8828 8.43487V9.76012C40.2999 9.95977 39.7949 10.329 39.4369 10.8173C39.0789 11.3056 38.8854 11.8892 38.8828 12.4881V14.4256C38.8849 15.0392 39.0879 15.6363 39.4626 16.1311C39.8373 16.6258 40.3643 16.9927 40.9678 17.1788C41.1188 18.0157 41.4959 18.7988 42.0608 19.4486C40.5549 19.7417 39.1512 20.4026 37.9828 21.3687L34.0158 24.6624L30.6618 20.6014C30.6498 20.5878 30.6318 20.5811 30.6198 20.5685C30.6078 20.5559 30.6018 20.5355 30.5878 20.522L29.2088 19.1861C28.7722 18.7638 28.2163 18.4764 27.6112 18.3601C27.0061 18.2438 26.379 18.3039 25.809 18.5326C25.2391 18.7614 24.752 19.1487 24.4092 19.6455C24.0663 20.1424 23.8832 20.7265 23.8828 21.3241C23.885 22.1255 24.2135 22.8938 24.7968 23.4621L26.1538 24.7777L30.7058 29.8152C29.1137 29.4732 27.5037 29.2144 25.8828 29.0402V26.0506C25.8828 25.7937 25.7775 25.5473 25.5899 25.3656C25.4024 25.1839 25.148 25.0819 24.8828 25.0819C24.6176 25.0819 24.3632 25.1839 24.1757 25.3656C23.9882 25.5473 23.8828 25.7937 23.8828 26.0506V29.9256C23.882 30.1692 23.9758 30.4042 24.1458 30.5837C24.3157 30.7632 24.5492 30.8742 24.7998 30.8944C29.472 31.3447 34.0579 32.4169 38.4278 34.0806C38.1132 34.5153 37.9279 35.0254 37.8921 35.5551C37.8562 36.0849 37.9712 36.614 38.2244 37.0848C38.4777 37.5557 38.8595 37.9501 39.3283 38.2251C39.7971 38.5001 40.3348 38.6451 40.8828 38.6444H48.5738C52.6789 40.8366 56.5872 43.358 60.2578 46.1822C60.4049 46.2963 60.5823 46.3678 60.7695 46.3885C60.9567 46.4092 61.1462 46.3782 61.316 46.2991C61.4858 46.22 61.6292 46.0961 61.7294 45.9416C61.8297 45.787 61.8829 45.6082 61.8828 45.4256V22.1756C61.8829 21.9556 61.8057 21.742 61.6638 21.5702C60.1498 19.7617 58.4094 18.1428 56.4828 16.7506ZM45.6018 8.61312C47.4279 8.61499 49.1804 9.31064 50.4828 10.5506H50.1028C49.8238 10.2471 49.4819 10.0039 49.0994 9.837C48.7169 9.67008 48.3024 9.58315 47.8828 9.58187H42.8828V8.61312H45.6018ZM50.1018 16.3631H50.8828C50.8828 17.1339 50.5667 17.8731 50.0041 18.4182C49.4415 18.9632 48.6785 19.2694 47.8828 19.2694H45.8828C45.2646 19.2669 44.6622 19.0794 44.1581 18.7326C43.654 18.3858 43.2729 17.8966 43.0668 17.3319H47.8828C48.3024 17.3306 48.7169 17.2437 49.0994 17.0767C49.4819 16.9098 49.8228 16.6667 50.1018 16.3631ZM51.8828 14.4256H50.8828V12.4881H51.8828C52.148 12.4881 52.4024 12.5902 52.5899 12.7719C52.7775 12.9535 52.8828 13.1999 52.8828 13.4569C52.8828 13.7138 52.7775 13.9602 52.5899 14.1419C52.4024 14.3236 52.148 14.4256 51.8828 14.4256ZM40.8828 2.43056L40.9018 2.44025C42.708 3.31198 44.6979 3.76689 46.7158 3.76937H49.8828C50.6785 3.76937 51.4415 4.07557 52.0041 4.62059C52.5667 5.16562 52.8828 5.90484 52.8828 6.67562V10.2697C52.0491 9.15541 50.9545 8.24864 49.6888 7.62386C48.4231 6.99907 47.0224 6.67409 45.6018 6.67562H41.8828C41.6176 6.67562 41.3632 6.57356 41.1757 6.39188C40.9882 6.21021 40.8828 5.9638 40.8828 5.70687V2.43056ZM40.8828 12.4881C40.8828 12.2312 40.9882 11.9848 41.1757 11.8031C41.3632 11.6214 41.6176 11.5194 41.8828 11.5194H47.8828C48.148 11.5194 48.4024 11.6214 48.5899 11.8031C48.7775 11.9848 48.8828 12.2312 48.8828 12.4881V14.4256C48.8828 14.6826 48.7775 14.929 48.5899 15.1106C48.4024 15.2923 48.148 15.3944 47.8828 15.3944H41.8828C41.6176 15.3944 41.3632 15.2923 41.1757 15.1106C40.9882 14.929 40.8828 14.6826 40.8828 14.4256V12.4881ZM27.0038 20.2381C27.1511 20.2376 27.2971 20.2654 27.4332 20.3199C27.5694 20.3745 27.693 20.4547 27.7968 20.5559L28.4688 21.2069L26.8828 22.7433L26.2108 22.0923C26.0539 21.9404 25.947 21.7469 25.9037 21.5361C25.8604 21.3254 25.8826 21.1069 25.9675 20.9084C26.0524 20.7099 26.1962 20.5403 26.3807 20.4209C26.5651 20.3016 26.782 20.238 27.0038 20.2381ZM29.8038 22.66L33.1038 26.659C33.1877 26.7605 33.2918 26.8446 33.4099 26.9063C33.528 26.968 33.6578 27.0061 33.7914 27.0182C33.925 27.0303 34.0598 27.0163 34.1877 26.9768C34.3156 26.9374 34.434 26.8735 34.5358 26.7888L39.2828 22.8402C40.5527 21.7864 42.1697 21.2071 43.8418 21.2069H51.3028C52.0409 21.2073 52.7529 21.4712 53.3026 21.9482C53.8524 22.4252 54.2014 23.0818 54.2828 23.7925L55.6418 35.6316C55.6573 35.7669 55.6431 35.9038 55.6003 36.0335C55.5574 36.1631 55.4869 36.2826 55.3932 36.384C55.2995 36.4855 55.1848 36.5667 55.0565 36.6223C54.9283 36.6779 54.7893 36.7067 54.6488 36.7069H43.8828V34.7694H51.8828C52.0262 34.7694 52.1678 34.7396 52.2982 34.6819C52.4286 34.6242 52.5447 34.5401 52.6386 34.4352C52.7324 34.3303 52.8019 34.207 52.8424 34.0738C52.8828 33.9406 52.8932 33.8005 52.8728 33.6631L51.8728 26.8818C51.8352 26.6275 51.6947 26.398 51.4824 26.2439C51.2702 26.0899 51.0034 26.0238 50.7408 26.0603C50.4783 26.0968 50.2414 26.2328 50.0824 26.4385C49.9233 26.6441 49.8552 26.9026 49.8928 27.1569L50.7298 32.8319H41.8828V26.0506C41.8828 25.8653 41.8279 25.6839 41.7247 25.5279C41.6215 25.3719 41.4743 25.2479 41.3005 25.1705C41.1267 25.0931 40.9337 25.0656 40.7443 25.0913C40.5548 25.117 40.377 25.1947 40.2318 25.3153L34.7318 29.8801C34.5321 30.0453 34.2733 30.1277 34.0113 30.1096C33.7494 30.0914 33.5053 29.9742 33.3318 29.7832L28.2518 24.1587L29.8038 22.66ZM39.8828 28.1567V32.5412C38.6228 32.0659 37.3798 31.6355 36.1538 31.2499L39.8828 28.1567ZM39.8828 35.7381C39.8828 35.4812 39.9882 35.2348 40.1757 35.0531C40.3632 34.8714 40.6176 34.7694 40.8828 34.7694H41.8828V36.7069H40.8828C40.6176 36.7069 40.3632 36.6048 40.1757 36.4231C39.9882 36.2415 39.8828 35.9951 39.8828 35.7381Z" fill="#0458B9"></path><path d="M24.8828 17.3319C25.148 17.3319 25.4024 17.2298 25.5899 17.0482C25.7775 16.8665 25.8828 16.6201 25.8828 16.3632V9.5916C29.511 9.66499 33.1252 10.0508 36.6828 10.7444C36.9429 10.795 37.213 10.7435 37.4338 10.6011C37.6547 10.4588 37.8081 10.2373 37.8603 9.98539C37.9126 9.73348 37.8594 9.47177 37.7124 9.25784C37.5655 9.04392 37.3369 8.89531 37.0768 8.84469C33.0622 8.06105 28.9781 7.65905 24.8828 7.64441C24.6176 7.64441 24.3632 7.74647 24.1757 7.92815C23.9882 8.10983 23.8828 8.35623 23.8828 8.61316V16.3632C23.8828 16.6201 23.9882 16.8665 24.1757 17.0482C24.3632 17.2298 24.6176 17.3319 24.8828 17.3319Z" fill="#0458B9"></path><path d="M29.9093 44.3034L28.4093 45.7565L26.0643 48.0282L22.0163 44.6647C20.849 43.6991 19.4463 43.0385 17.9413 42.7456C18.5063 42.0959 18.8834 41.3127 19.0343 40.4759C19.6373 40.2892 20.1637 39.9221 20.5378 39.4275C20.9119 38.9328 21.1144 38.3359 21.1163 37.7227V35.7852C21.1138 35.1862 20.9202 34.6027 20.5622 34.1144C20.2042 33.626 19.6992 33.2568 19.1163 33.0572V31.5701C19.8341 31.2414 20.4147 30.6856 20.7627 29.9943C21.1106 29.3031 21.205 28.5175 21.0303 27.7673C20.8556 27.0171 20.4222 26.3469 19.8016 25.8673C19.181 25.3877 18.4102 25.1272 17.6163 25.1289H10.1163C8.79072 25.1305 7.51988 25.6413 6.58254 26.5493C5.6452 27.4574 5.11791 28.6885 5.11632 29.9727V36.7539C5.11888 37.3529 5.3124 37.9364 5.67041 38.4247C6.02841 38.913 6.53341 39.2823 7.11632 39.4819V39.6602C7.12 40.7117 7.48051 41.7329 8.14232 42.5664H7.99032C7.25711 42.5655 6.53273 42.7214 5.86881 43.0228C5.20489 43.3242 4.61778 43.7637 4.14932 44.3102L1.24332 47.6863C0.466626 48.59 0.0667726 49.7425 0.12228 50.9172C0.177788 52.092 0.684645 53.2042 1.54332 54.0354L3.04332 55.4886L2.12832 60.8099C2.10384 60.9491 2.11105 61.0918 2.14945 61.2279C2.18785 61.3641 2.25651 61.4905 2.35062 61.5983C2.44473 61.7061 2.56203 61.7926 2.69429 61.8519C2.82656 61.9112 2.97059 61.9417 3.11632 61.9414H19.1163C19.3815 61.9414 19.6359 61.8394 19.8234 61.6577C20.011 61.476 20.1163 61.2296 20.1163 60.9727V51.4537L24.0593 54.7291C24.6349 55.2023 25.3727 55.4491 26.1271 55.4208C26.8814 55.3924 27.5973 55.091 28.1333 54.576L32.8233 50.0326L34.3233 48.5794C34.9087 48.0124 35.2375 47.2433 35.2375 46.4414C35.2375 45.6395 34.9087 44.8704 34.3233 44.3034C33.738 43.7363 32.9441 43.4178 32.1163 43.4178C31.2885 43.4178 30.4947 43.7363 29.9093 44.3034ZM8.11632 37.7227C7.8511 37.7227 7.59675 37.6206 7.40921 37.4389C7.22168 37.2572 7.11632 37.0108 7.11632 36.7539C7.11632 36.497 7.22168 36.2506 7.40921 36.0689C7.59675 35.8872 7.8511 35.7852 8.11632 35.7852H15.1163V37.7227H8.11632ZM15.8963 33.8477H9.31632L9.75932 33.2044C10.0329 32.8055 10.4042 32.4785 10.8401 32.2526C11.276 32.0268 11.763 31.9091 12.2573 31.9102H17.1163V33.0572C16.6484 33.2187 16.2292 33.4904 15.8963 33.8477ZM19.1163 37.7227C19.1163 37.9796 19.011 38.226 18.8234 38.4077C18.6359 38.5894 18.3815 38.6914 18.1163 38.6914C17.8511 38.6914 17.5967 38.5894 17.4092 38.4077C17.2217 38.226 17.1163 37.9796 17.1163 37.7227V35.7852C17.1163 35.5282 17.2217 35.2818 17.4092 35.1002C17.5967 34.9185 17.8511 34.8164 18.1163 34.8164C18.3815 34.8164 18.6359 34.9185 18.8234 35.1002C19.011 35.2818 19.1163 35.5282 19.1163 35.7852V37.7227ZM7.11632 29.9727C7.11632 29.2019 7.43239 28.4627 7.995 27.9176C8.55761 27.3726 9.32067 27.0664 10.1163 27.0664H17.6163C18.0141 27.0664 18.3957 27.2195 18.677 27.492C18.9583 27.7645 19.1163 28.1341 19.1163 28.5195C19.1163 28.9049 18.9583 29.2745 18.677 29.5471C18.3957 29.8196 18.0141 29.9727 17.6163 29.9727H12.2573C11.4338 29.9715 10.6228 30.1679 9.89671 30.5444C9.17063 30.9208 8.55209 31.4656 8.09632 32.1301L7.11632 33.557V29.9727ZM9.11632 39.6602H15.8963C16.1993 39.9894 16.5754 40.2477 16.9963 40.4158C16.8255 41.0303 16.4513 41.5735 15.931 41.962C15.4107 42.3505 14.7732 42.5628 14.1163 42.5664H12.1163C11.3207 42.5664 10.5576 42.2602 9.995 41.7152C9.43239 41.1702 9.11632 40.4309 9.11632 39.6602ZM26.7163 53.2062C26.5383 53.3786 26.2997 53.4797 26.0482 53.4892C25.7967 53.4988 25.5507 53.416 25.3593 53.2575L19.7653 48.6075C19.6198 48.4873 19.4416 48.4099 19.2521 48.3848C19.0625 48.3596 18.8695 48.3876 18.6959 48.4656C18.5223 48.5435 18.3755 48.668 18.2727 48.8243C18.17 48.9807 18.1157 49.1623 18.1163 49.3477V60.0039H4.29732L5.08932 55.3956L7.06532 49.6538C7.14913 49.4097 7.12941 49.1434 7.01052 48.9134C6.89162 48.6834 6.68327 48.5085 6.43132 48.4273C6.17936 48.3462 5.90443 48.3653 5.66701 48.4804C5.42959 48.5956 5.24913 48.7975 5.16532 49.0415L3.67932 53.367L2.95532 52.6656C2.44979 52.1759 2.15155 51.5207 2.11917 50.8288C2.08679 50.1369 2.32261 49.4583 2.78032 48.9263L5.68532 45.5492C5.96667 45.2216 6.31907 44.9581 6.71746 44.7775C7.11585 44.5968 7.55044 44.5034 7.99032 44.5039H16.1573C17.8293 44.5038 19.4463 45.0828 20.7163 46.1363L25.4693 50.0829C25.6606 50.2418 25.9067 50.3249 26.1585 50.3156C26.4103 50.3062 26.6491 50.2052 26.8273 50.0326L29.1163 47.8112L30.7023 49.3477L26.7163 53.2062ZM32.9073 47.2096L32.1163 47.9778L30.5303 46.4414L31.3233 45.6732C31.5341 45.4703 31.8192 45.3564 32.1163 45.3564C32.4135 45.3564 32.6985 45.4703 32.9093 45.6732C33.0136 45.774 33.0964 45.8937 33.1529 46.0255C33.2093 46.1574 33.2384 46.2987 33.2384 46.4414C33.2384 46.5841 33.2093 46.7255 33.1529 46.8573C33.0964 46.9891 33.0136 47.1088 32.9093 47.2096H32.9073Z" fill="#0458B9"></path></g><defs><clipPath id="clip0_1710_204"><rect width="64" height="62" fill="white"></rect></clipPath></defs></svg>