<svg xmlns="http://www.w3.org/2000/svg" width="57" height="56" viewBox="0 0 57 56" fill="none"><path d="M35.8463 14.7341C37.3736 14.7341 38.6161 13.4916 38.6161 11.9643C38.6161 10.437 37.3736 9.19438 35.8463 9.19438C34.319 9.19438 33.0765 10.437 33.0765 11.9643C33.0765 12.5749 33.2752 13.1399 33.6113 13.5983L29.1849 19.7838C28.9236 19.7018 28.6458 19.6569 28.3575 19.6569C27.6429 19.6569 26.9909 19.9295 26.4992 20.3753L23.5839 18.7211C23.6195 18.5444 23.6386 18.3617 23.6386 18.1747C23.6386 16.6473 22.3961 15.4048 20.8688 15.4048C19.3414 15.4048 18.0989 16.6473 18.0989 18.1747C18.0989 18.3617 18.118 18.5444 18.1536 18.7211L15.2383 20.3753C14.7466 19.9295 14.0947 19.657 13.38 19.657C11.8527 19.657 10.6102 20.8996 10.6102 22.427C10.6102 23.9543 11.8527 25.1969 13.38 25.1969C14.9073 25.1969 16.1498 23.9543 16.1498 22.427C16.1498 22.2399 16.1308 22.0572 16.0952 21.8805L19.0104 20.2263C19.5021 20.6722 20.1541 20.9447 20.8688 20.9447C21.5834 20.9447 22.2353 20.6722 22.7271 20.2264L25.6423 21.8806C25.6067 22.0573 25.5877 22.24 25.5877 22.4271C25.5877 23.9544 26.8302 25.197 28.3575 25.197C29.885 25.197 31.1275 23.9544 31.1275 22.4271C31.1275 21.8164 30.9286 21.2512 30.5926 20.7929L35.0189 14.6073C35.2802 14.6893 35.5581 14.7341 35.8463 14.7341ZM35.8463 10.9263C36.4186 10.9263 36.8842 11.3919 36.8842 11.9643C36.8842 12.5366 36.4186 13.0023 35.8463 13.0023C35.274 13.0023 34.8084 12.5366 34.8084 11.9643C34.8083 11.3919 35.2739 10.9263 35.8463 10.9263ZM13.3797 23.4648C12.8074 23.4648 12.3417 22.9991 12.3417 22.4267C12.3417 21.8544 12.8074 21.3887 13.3797 21.3887C13.9519 21.3887 14.4176 21.8544 14.4176 22.4267C14.4176 22.9991 13.9519 23.4648 13.3797 23.4648ZM20.8685 19.2126C20.2963 19.2126 19.8306 18.7469 19.8306 18.1746C19.8306 17.6023 20.2963 17.1366 20.8685 17.1366C21.4408 17.1366 21.9065 17.6023 21.9065 18.1746C21.9066 18.7469 21.4408 19.2126 20.8685 19.2126ZM28.3574 23.4648C27.7852 23.4648 27.3195 22.9991 27.3195 22.4267C27.3195 21.8544 27.7852 21.3887 28.3574 21.3887C28.9298 21.3887 29.3955 21.8544 29.3955 22.4267C29.3955 22.9991 28.9297 23.4648 28.3574 23.4648Z" fill="#048DEF" stroke="#048DEF" stroke-width="0.1"></path><path d="M14.3801 53.9857L14.4246 54.0085L14.3801 53.9857C14.1621 54.4114 14.3303 54.9332 14.756 55.1513C14.8823 55.216 15.0172 55.2466 15.1501 55.2466C15.4646 55.2466 15.7682 55.0747 15.9215 54.7752L20.1334 46.552H29.0936L33.3055 54.7752C33.4589 55.0747 33.7624 55.2466 34.0769 55.2466C34.2099 55.2466 34.3447 55.2158 34.4709 55.1513L34.471 55.1513C34.8967 54.9332 35.065 54.4114 34.8469 53.9857L31.0395 46.552H39.1252C40.1758 46.552 41.0304 45.6974 41.0304 44.6467V42.901H45.8746C46.3528 42.901 46.7406 42.5134 46.7406 42.0351C46.7406 41.5567 46.3528 41.1691 45.8746 41.1691H40.1645H9.06251H2.62055C2.27533 41.1691 1.9944 40.8882 1.9944 40.543V6.88031C1.9944 6.53509 2.27533 6.25416 2.62055 6.25416H6.46703C6.94526 6.25416 7.33298 5.86656 7.33298 5.38821C7.33298 4.90987 6.94526 4.52227 6.46703 4.52227H2.62055C1.32027 4.52227 0.2625 5.58004 0.2625 6.88031V40.543C0.2625 41.8432 1.32027 42.901 2.62055 42.901H8.19656V44.6467C8.19656 45.6973 9.05122 46.552 10.1018 46.552H18.1876L14.3801 53.9857ZM39.2985 44.6467C39.2985 44.7423 39.2207 44.8201 39.1252 44.8201H10.1018C10.0063 44.8201 9.92846 44.7423 9.92846 44.6467V42.901H39.2985V44.6467Z" fill="#048DEF" stroke="#048DEF" stroke-width="0.1"></path><path d="M21.7661 2.96844V2.95943C21.7709 2.76229 21.9328 2.60328 22.1312 2.60328H27.0942C27.2955 2.60328 27.4594 2.76717 27.4594 2.96844V4.52227H21.7661V2.96844ZM9.73001 6.25416H20.9H28.3253H46.6055C46.9508 6.25416 47.2317 6.53509 47.2317 6.88031V14.6385C47.2317 15.1168 47.6194 15.5044 48.0976 15.5044C48.5759 15.5044 48.9636 15.1168 48.9636 14.6385V6.88031C48.9636 5.58004 47.9058 4.52227 46.6055 4.52227H29.1913V2.96844C29.1913 1.81209 28.2506 0.871387 27.0942 0.871387H22.1312C20.9749 0.871387 20.0341 1.81209 20.0341 2.96844V4.52227H9.73001C9.25178 4.52227 8.86406 4.90987 8.86406 5.38821C8.86406 5.86656 9.25178 6.25416 9.73001 6.25416Z" fill="#048DEF" stroke="#048DEF" stroke-width="0.1"></path><path d="M11.7261 29.2684C11.2479 29.2684 10.8602 29.656 10.8602 30.1343V37.3442C10.8602 37.8226 11.2479 38.2102 11.7261 38.2102H15.0364C15.5146 38.2102 15.9023 37.8226 15.9023 37.3442V30.1343C15.9023 29.656 15.5146 29.2684 15.0364 29.2684H11.7261ZM14.1704 36.4784H12.5921V31.0004H14.1704V36.4784Z" fill="#048DEF" stroke="#048DEF" stroke-width="0.1"></path><path d="M19.2144 25.0986C18.7362 25.0986 18.3484 25.4862 18.3484 25.9645V37.3444C18.3484 37.8227 18.7362 38.2103 19.2144 38.2103H22.5246C23.0029 38.2103 23.3906 37.8227 23.3906 37.3444V25.9645C23.3906 25.4862 23.0029 25.0986 22.5246 25.0986H19.2144ZM21.6588 36.4784H20.0804V26.8305H21.6588V36.4784Z" fill="#048DEF" stroke="#048DEF" stroke-width="0.1"></path><path d="M26.7027 29.2684C26.2244 29.2684 25.8367 29.656 25.8367 30.1343V37.3442C25.8367 37.8226 26.2244 38.2102 26.7027 38.2102H30.0129C30.4911 38.2102 30.8789 37.8226 30.8789 37.3442V30.1343C30.8789 29.656 30.4911 29.2684 30.0129 29.2684H26.7027ZM29.147 36.4784H27.5686V31.0004H29.147V36.4784Z" fill="#048DEF" stroke="#048DEF" stroke-width="0.1"></path><path d="M34.1909 34.0831C33.7127 34.0831 33.325 34.4707 33.325 34.949V37.3443C33.325 37.8227 33.7127 38.2103 34.1909 38.2103H37.5012C37.9794 38.2103 38.3671 37.8227 38.3671 37.3443C38.3671 36.866 37.9794 36.4784 37.5012 36.4784H35.0569V34.949C35.0569 34.4707 34.6692 34.0831 34.1909 34.0831Z" fill="#048DEF" stroke="#048DEF" stroke-width="0.1"></path><path d="M51.6833 44.2476C52.0745 44.9254 52.9447 45.1585 53.6228 44.7669C54.0608 44.5141 54.3331 44.0422 54.3331 43.5359C54.3331 43.2891 54.2671 43.044 54.1422 42.8273L51.6833 44.2476ZM51.6833 44.2476L47.2091 36.4962C47.6441 36.316 48.0702 36.1068 48.4847 35.8675C48.8996 35.628 49.2933 35.3625 49.6668 35.0756L54.1422 42.8273L51.6833 44.2476ZM55.6421 41.9616L55.5988 41.9866L55.6421 41.9616L50.9796 33.8858C52.1582 32.6207 53.0168 31.0786 53.4769 29.3615C54.2176 26.5972 53.8375 23.7096 52.4065 21.2311C49.4525 16.1142 42.8866 14.3552 37.7701 17.3092C32.6534 20.2631 30.8942 26.829 33.8483 31.9456C35.2792 34.4241 37.5899 36.1971 40.3542 36.9379C41.2773 37.1853 42.2139 37.3076 43.1446 37.3076C43.9457 37.3076 44.7422 37.2168 45.5217 37.0372L50.1832 45.1133C50.7662 46.1235 51.8277 46.6886 52.9177 46.6885C53.4521 46.6885 53.9934 46.5526 54.4885 46.267L54.4635 46.2237L54.4885 46.267C55.4609 45.7057 56.065 44.6592 56.065 43.5358C56.065 42.9853 55.9188 42.4411 55.6421 41.9616ZM40.8024 35.265C38.4848 34.644 36.5477 33.1577 35.348 31.0797C32.8715 26.7902 34.3465 21.2856 38.6359 18.809C40.0471 17.9943 41.589 17.6074 43.1121 17.6074C46.219 17.6074 49.2448 19.2188 50.9066 22.097C52.1062 24.175 52.425 26.5955 51.8039 28.9133C51.1829 31.231 49.6965 33.1678 47.6186 34.3676C45.5407 35.5674 43.1202 35.8859 40.8024 35.265Z" fill="#048DEF" stroke="#048DEF" stroke-width="0.1"></path><path d="M48.6158 24.0099C49.2614 25.3802 49.3685 26.9349 48.9174 28.3881C48.4637 29.8491 47.4838 31.0752 46.1579 31.8407L46.1829 31.884L46.1579 31.8407C44.7549 32.6508 43.1204 32.8658 41.5556 32.4465C39.9907 32.0272 38.6829 31.0237 37.8729 29.6206C36.2007 26.7244 37.1967 23.0078 40.0929 21.3356C42.2106 20.1131 44.8385 20.2765 46.7884 21.7518C47.1699 22.0404 47.7129 21.9653 48.0015 21.5838C48.29 21.2024 48.2148 20.6593 47.8334 20.3708C45.327 18.4742 41.9485 18.2643 39.2268 19.8357C37.4233 20.8769 36.133 22.5585 35.594 24.57C35.055 26.5816 35.3317 28.683 36.373 30.4865C37.4142 32.2901 39.0958 33.5803 41.1073 34.1194L41.1203 34.0711L41.1073 34.1194C41.779 34.2994 42.4606 34.3884 43.1379 34.3884C44.489 34.3884 45.8226 34.034 47.0238 33.3405C48.7282 32.3566 49.9881 30.7802 50.5713 28.9017C51.1511 27.0343 51.013 25.0348 50.1825 23.2719C49.9786 22.8392 49.4627 22.6537 49.0301 22.8575L49.0514 22.9028L49.0301 22.8575C48.5973 23.0614 48.4119 23.5773 48.6158 24.0099ZM48.6158 24.0099L48.661 23.9886L48.6158 24.0099C48.6158 24.0099 48.6158 24.0099 48.6158 24.0099Z" fill="#048DEF" stroke="#048DEF" stroke-width="0.1"></path></svg>