<svg xmlns="http://www.w3.org/2000/svg" width="45" height="39" viewBox="0 0 45 39" fill="none"><path d="M41.6607 0.572754H3.61212C2.7712 0.572754 1.96471 0.90681 1.37009 1.50143C0.775463 2.09606 0.441406 2.90254 0.441406 3.74347V35.4506C0.441406 36.2915 0.775463 37.098 1.37009 37.6927C1.96471 38.2873 2.7712 38.6213 3.61212 38.6213H13.1243C13.5447 38.6213 13.948 38.4543 14.2453 38.157C14.5426 37.8597 14.7096 37.4564 14.7096 37.036C14.7096 36.6155 14.5426 36.2123 14.2453 35.915C13.948 35.6176 13.5447 35.4506 13.1243 35.4506H3.61212V3.74347H15.645L21.5108 9.62515C21.6589 9.77208 21.8346 9.88833 22.0278 9.96722C22.2209 10.0461 22.4278 10.0861 22.6364 10.0849H41.6607V35.4506H32.1486C31.7281 35.4506 31.3249 35.6176 31.0275 35.915C30.7302 36.2123 30.5632 36.6155 30.5632 37.036C30.5632 37.4564 30.7302 37.8597 31.0275 38.157C31.3249 38.4543 31.7281 38.6213 32.1486 38.6213H41.6607C42.5016 38.6213 43.3081 38.2873 43.9027 37.6927C44.4974 37.098 44.8314 36.2915 44.8314 35.4506V3.74347C44.8314 2.90254 44.4974 2.09606 43.9027 1.50143C43.3081 0.90681 42.5016 0.572754 41.6607 0.572754ZM23.2864 6.91418L20.1157 3.74347H41.6607V6.91418H23.2864Z" fill="#0369CA"></path><path d="M8.37051 6.91418C8.05696 6.91418 7.75045 7.00716 7.48974 7.18137C7.22903 7.35557 7.02583 7.60317 6.90584 7.89285C6.78584 8.18254 6.75445 8.5013 6.81562 8.80883C6.87679 9.11636 7.02778 9.39884 7.2495 9.62056C7.47121 9.84228 7.7537 9.99327 8.06123 10.0544C8.36876 10.1156 8.68752 10.0842 8.9772 9.96422C9.26689 9.84423 9.51449 9.64103 9.68869 9.38032C9.86289 9.11961 9.95587 8.8131 9.95587 8.49954C9.95587 8.07908 9.78884 7.67584 9.49153 7.37853C9.19422 7.08121 8.79098 6.91418 8.37051 6.91418Z" fill="#0369CA"></path><path d="M16.2957 8.49954C16.2957 8.07908 16.1287 7.67584 15.8314 7.37853C15.5341 7.08121 15.1308 6.91418 14.7104 6.91418C14.3968 6.91418 14.0903 7.00716 13.8296 7.18137C13.5689 7.35557 13.3657 7.60317 13.2457 7.89285C13.1257 8.18254 13.0943 8.5013 13.1555 8.80883C13.2166 9.11636 13.3676 9.39884 13.5893 9.62056C13.8111 9.84228 14.0935 9.99327 14.4011 10.0544C14.7086 10.1156 15.0274 10.0842 15.317 9.96422C15.6067 9.84423 15.8543 9.64103 16.0285 9.38032C16.2027 9.11961 16.2957 8.8131 16.2957 8.49954Z" fill="#0369CA"></path><path d="M26.3323 13.9056C26.0929 13.8221 25.8369 13.7972 25.5859 13.8331C25.3349 13.8689 25.0961 13.9645 24.8896 14.1117C24.6848 14.2576 24.5175 14.4501 24.4017 14.6734C24.2859 14.8967 24.225 15.1443 24.2238 15.3959V24.3531H21.0531V15.3959C21.0519 15.1443 20.9909 14.8967 20.8751 14.6734C20.7594 14.4501 20.5921 14.2576 20.3872 14.1117C20.1808 13.9645 19.942 13.8689 19.691 13.8331C19.4399 13.7972 19.184 13.8221 18.9446 13.9056C16.8792 14.6412 15.078 15.972 13.7682 17.7303C12.4585 19.4885 11.6989 21.5952 11.5852 23.7847C11.4716 25.9742 12.0091 28.1483 13.1298 30.0327C14.2505 31.917 15.9042 33.4272 17.8824 34.3726V37.036C17.8824 37.4564 18.0494 37.8597 18.3467 38.157C18.644 38.4543 19.0473 38.6213 19.4677 38.6213C19.8882 38.6213 20.2914 38.4543 20.5887 38.157C20.8861 37.8597 21.0531 37.4564 21.0531 37.036V33.3104C21.0518 32.9827 20.9489 32.6634 20.7587 32.3965C20.5685 32.1297 20.3003 31.9283 19.9909 31.8202C18.6404 31.3408 17.445 30.5042 16.5321 29.3995C15.6192 28.2948 15.0229 26.9633 14.8066 25.5466C14.5903 24.1299 14.762 22.6811 15.3037 21.3543C15.8453 20.0275 16.7364 18.8723 17.8824 18.0117V24.3531C17.8824 25.1941 18.2164 26.0005 18.811 26.5952C19.4057 27.1898 20.2122 27.5238 21.0531 27.5238H24.2238C25.0647 27.5238 25.8712 27.1898 26.4658 26.5952C27.0605 26.0005 27.3945 25.1941 27.3945 24.3531V18.0117C28.5404 18.8723 29.4316 20.0275 29.9732 21.3543C30.5148 22.6811 30.6866 24.1299 30.4703 25.5466C30.254 26.9633 29.6576 28.2948 28.7447 29.3995C27.8318 30.5042 26.6365 31.3408 25.286 31.8202C24.9766 31.9283 24.7084 32.1297 24.5182 32.3965C24.3279 32.6634 24.2251 32.9827 24.2238 33.3104V37.036C24.2238 37.4564 24.3908 37.8597 24.6881 38.157C24.9854 38.4543 25.3887 38.6213 25.8092 38.6213C26.2296 38.6213 26.6329 38.4543 26.9302 38.157C27.2275 37.8597 27.3945 37.4564 27.3945 37.036V34.3726C29.3726 33.4272 31.0264 31.917 32.1471 30.0327C33.2678 28.1483 33.8053 25.9742 33.6916 23.7847C33.578 21.5952 32.8184 19.4885 31.5086 17.7303C30.1989 15.972 28.3977 14.6412 26.3323 13.9056Z" fill="#0369CA"></path></svg>