<svg xmlns="http://www.w3.org/2000/svg" width="52" height="52" viewBox="0 0 52 52" fill="none"><path d="M47.2266 0H4.97656C2.7365 0 0.914062 1.85748 0.914062 4.14062V34.7812C0.914062 37.0644 2.7365 38.9219 4.97656 38.9219H20.1809C20.8463 39.8908 21.2266 41.0435 21.2266 42.2344C21.2266 43.0989 21.0267 43.9453 20.6668 44.7188H17.1641C14.924 44.7188 13.1016 46.5762 13.1016 48.8594V50.5156C13.1016 50.9727 13.4648 51.3438 13.9141 51.3438H38.2891C38.7384 51.3438 39.1016 50.9727 39.1016 50.5156V48.8594C39.1016 46.5762 37.2791 44.7188 35.0391 44.7188H31.5364C31.1756 43.9453 30.9766 43.0981 30.9766 42.2344C30.9766 41.0278 31.3471 39.8966 32.019 38.9219H47.2266C49.4666 38.9219 51.2891 37.0644 51.2891 34.7812V4.14062C51.2891 1.85748 49.4666 0 47.2266 0ZM4.97656 1.65625H47.2266C48.5704 1.65625 49.6641 2.77091 49.6641 4.14062V27.3281H48.0391V4.96875C48.0391 4.05533 47.3103 3.3125 46.4141 3.3125H5.78906C4.89287 3.3125 4.16406 4.05533 4.16406 4.96875V27.3281H2.53906V4.14062C2.53906 2.77091 3.63269 1.65625 4.97656 1.65625ZM32.7381 12.4244C33.4173 11.8952 34.2534 11.5938 35.1244 11.5938C36.8014 11.5938 38.3061 12.701 38.8684 14.3497C38.9829 14.6827 39.2901 14.9062 39.6362 14.9062H46.4141V16.5625H39.6264C39.2811 16.5625 38.974 16.7844 38.8602 17.1157C38.3703 18.5351 37.1572 19.5976 35.7679 19.822C34.6621 20.0025 33.5774 19.7061 32.7332 19.0436C34.4646 18.974 35.8516 17.5157 35.8516 15.7344C35.8516 13.9547 34.4671 12.4981 32.7381 12.4244ZM46.4141 13.25H40.1822C39.2633 11.2468 37.2978 9.9375 35.1244 9.9375C33.1281 9.9375 31.2683 11.0505 30.2705 12.8409C30.1275 13.0976 30.1291 13.4115 30.2746 13.6665C30.42 13.9216 30.6881 14.0781 30.9774 14.0781H32.6016C33.4978 14.0781 34.2266 14.821 34.2266 15.7344C34.2266 16.6478 33.4978 17.3906 32.6008 17.3906L30.9758 17.3915C30.6873 17.3915 30.4192 17.548 30.2746 17.8039C30.1291 18.0589 30.1275 18.3736 30.2705 18.6295C31.2886 20.453 33.1305 21.5312 35.1252 21.5312C35.4217 21.5312 35.7216 21.5072 36.023 21.4592C37.8048 21.1702 39.3786 19.9239 40.17 18.2196H46.4141V27.329H5.78906V4.96875H46.4141V13.25ZM37.4766 48.8594V49.6875H14.7266V48.8594C14.7266 47.4897 15.8202 46.375 17.1641 46.375H35.0391C36.3829 46.375 37.4766 47.4897 37.4766 48.8594ZM29.7846 44.7188H22.4185C22.6947 43.9238 22.8516 43.0865 22.8516 42.2344C22.8516 41.0783 22.5802 39.9454 22.0821 38.9219H30.121C29.6237 39.9463 29.3516 41.0808 29.3516 42.2344C29.3516 43.0857 29.5092 43.9238 29.7846 44.7188ZM47.2266 37.2656H4.97656C3.63269 37.2656 2.53906 36.151 2.53906 34.7812V28.9844H49.6641V34.7812C49.6641 36.151 48.5704 37.2656 47.2266 37.2656Z" fill="#0369CA"></path><path d="M26.1016 30.6406C24.7577 30.6406 23.6641 31.7553 23.6641 33.125C23.6641 34.4947 24.7577 35.6094 26.1016 35.6094C27.4454 35.6094 28.5391 34.4947 28.5391 33.125C28.5391 31.7553 27.4454 30.6406 26.1016 30.6406ZM26.1016 33.9531C25.6531 33.9531 25.2891 33.5813 25.2891 33.125C25.2891 32.6687 25.6531 32.2969 26.1016 32.2969C26.5501 32.2969 26.9141 32.6687 26.9141 33.125C26.9141 33.5813 26.5501 33.9531 26.1016 33.9531Z" fill="#0369CA"></path><path d="M11.4766 18.2188H12.5994L12.9252 18.8837L11.7146 20.1176C11.3969 20.4414 11.3969 20.9648 11.7146 21.2886L14.1521 23.773C14.4698 24.0968 14.9833 24.0968 15.301 23.773L16.5116 22.5391L17.1641 22.8712V24.0156C17.1641 24.4727 17.5273 24.8438 17.9766 24.8438H21.2266C21.6759 24.8438 22.0391 24.4727 22.0391 24.0156V22.8712L22.6915 22.5391L23.9021 23.773C24.2198 24.0968 24.7333 24.0968 25.051 23.773L27.4885 21.2886C27.8062 20.9648 27.8062 20.4414 27.4885 20.1176L26.2779 18.8837L26.6037 18.2188H27.7266C28.1759 18.2188 28.5391 17.8477 28.5391 17.3906V14.0781C28.5391 13.621 28.1759 13.25 27.7266 13.25H26.6037L26.2779 12.585L27.4885 11.3511C27.8062 11.0273 27.8062 10.5039 27.4885 10.1801L25.051 7.69577C24.7333 7.37197 24.2198 7.37197 23.9021 7.69577L22.6915 8.92967L22.0391 8.59759V7.45312C22.0391 6.996 21.6759 6.625 21.2266 6.625H17.9766C17.5273 6.625 17.1641 6.996 17.1641 7.45312V8.59759L16.5116 8.92967L15.301 7.69577C14.9833 7.37197 14.4698 7.37197 14.1521 7.69577L11.7146 10.1801C11.3969 10.5039 11.3969 11.0273 11.7146 11.3511L12.9252 12.585L12.5994 13.25H11.4766C11.0273 13.25 10.6641 13.621 10.6641 14.0781V17.3906C10.6641 17.8477 11.0273 18.2188 11.4766 18.2188ZM12.2891 14.9062H13.1016C13.4095 14.9062 13.6906 14.729 13.8288 14.4483L14.6413 12.792C14.7973 12.4732 14.7363 12.0881 14.4885 11.8364L13.4379 10.7656L14.7266 9.45222L15.7771 10.523C16.0257 10.7756 16.4036 10.8368 16.7148 10.6787L18.3398 9.85055C18.6152 9.70977 18.7891 9.42323 18.7891 9.10938V8.28125H20.4141V9.10938C20.4141 9.42323 20.5879 9.70977 20.8634 9.85055L22.4884 10.6787C22.8012 10.836 23.1782 10.7756 23.426 10.523L24.4766 9.45222L25.7652 10.7656L24.7146 11.8364C24.4668 12.0881 24.4059 12.4732 24.5619 12.792L25.3744 14.4483C25.5125 14.729 25.7936 14.9062 26.1016 14.9062H26.9141V16.5625H26.1016C25.7936 16.5625 25.5125 16.7397 25.3744 17.0205L24.5619 18.6767C24.4059 18.9955 24.4668 19.3806 24.7146 19.6324L25.7652 20.7031L24.4766 22.0165L23.426 20.9458C23.1782 20.694 22.8012 20.6336 22.4884 20.7901L20.8634 21.6182C20.5879 21.759 20.4141 22.0455 20.4141 22.3594V23.1875H18.7891V22.3594C18.7891 22.0455 18.6152 21.759 18.3398 21.6182L16.7148 20.7901C16.4019 20.6319 16.0249 20.6924 15.7771 20.9458L14.7266 22.0165L13.4379 20.7031L14.4885 19.6324C14.7363 19.3806 14.7973 18.9955 14.6413 18.6767L13.8288 17.0205C13.6906 16.7397 13.4095 16.5625 13.1016 16.5625H12.2891V14.9062Z" fill="#0369CA"></path><path d="M19.6016 19.875C21.8416 19.875 23.6641 18.0175 23.6641 15.7344C23.6641 13.4512 21.8416 11.5938 19.6016 11.5938C17.3615 11.5938 15.5391 13.4512 15.5391 15.7344C15.5391 18.0175 17.3615 19.875 19.6016 19.875ZM19.6016 13.25C20.9454 13.25 22.0391 14.3647 22.0391 15.7344C22.0391 17.1041 20.9454 18.2188 19.6016 18.2188C18.2577 18.2188 17.1641 17.1041 17.1641 15.7344C17.1641 14.3647 18.2577 13.25 19.6016 13.25Z" fill="#0369CA"></path></svg>