<svg xmlns="http://www.w3.org/2000/svg" width="63" height="62" viewBox="0 0 63 62" fill="none"><path d="M14.6772 45.1285L9.98286 49.7319L8.1405 47.9235C7.87274 47.6611 7.50958 47.5137 7.1309 47.5137C6.75223 47.5137 6.38907 47.6611 6.12131 47.9235C5.85355 48.1859 5.70313 48.5418 5.70312 48.9129C5.70312 49.284 5.85355 49.64 6.12131 49.9024L8.97327 52.6974C9.10573 52.8275 9.26309 52.9308 9.43633 53.0013C9.60957 53.0717 9.7953 53.108 9.98286 53.108C10.1704 53.108 10.3561 53.0717 10.5294 53.0013C10.7026 52.9308 10.86 52.8275 10.9925 52.6974L16.6964 47.1073C16.9641 46.8449 17.1146 46.489 17.1146 46.1179C17.1146 45.7468 16.9641 45.3909 16.6964 45.1285C16.4286 44.8661 16.0654 44.7186 15.6868 44.7186C15.3081 44.7186 14.9449 44.8661 14.6772 45.1285Z" fill="#048DEF"></path><path d="M14.6772 31.1534L9.98286 35.7568L8.1405 33.9484C8.00792 33.8185 7.85052 33.7154 7.67729 33.6451C7.50407 33.5748 7.3184 33.5386 7.1309 33.5386C6.94341 33.5386 6.75774 33.5748 6.58452 33.6451C6.41129 33.7154 6.25389 33.8185 6.12131 33.9484C5.98873 34.0783 5.88356 34.2326 5.81181 34.4024C5.74006 34.5721 5.70312 34.7541 5.70312 34.9378C5.70312 35.1216 5.74006 35.3035 5.81181 35.4733C5.88356 35.6431 5.98873 35.7973 6.12131 35.9273L8.97327 38.7223C9.10573 38.8524 9.26309 38.9557 9.43633 39.0262C9.60957 39.0966 9.7953 39.1329 9.98286 39.1329C10.1704 39.1329 10.3561 39.0966 10.5294 39.0262C10.7026 38.9557 10.86 38.8524 10.9925 38.7223L16.6964 33.1322C16.9641 32.8698 17.1146 32.5139 17.1146 32.1428C17.1146 31.7717 16.9641 31.4158 16.6964 31.1534C16.4286 30.891 16.0654 30.7435 15.6868 30.7435C15.3081 30.7435 14.9449 30.891 14.6772 31.1534Z" fill="#048DEF"></path><path d="M21.3869 33.5403H32.7947C33.1729 33.5403 33.5356 33.393 33.8031 33.1309C34.0705 32.8689 34.2207 32.5134 34.2207 32.1428C34.2207 31.7721 34.0705 31.4166 33.8031 31.1546C33.5356 30.8925 33.1729 30.7452 32.7947 30.7452H21.3869C21.0087 30.7452 20.646 30.8925 20.3786 31.1546C20.1112 31.4166 19.9609 31.7721 19.9609 32.1428C19.9609 32.5134 20.1112 32.8689 20.3786 33.1309C20.646 33.393 21.0087 33.5403 21.3869 33.5403Z" fill="#048DEF"></path><path d="M14.6772 17.1783L9.98286 21.7817L8.1405 19.9733C8.00792 19.8434 7.85052 19.7403 7.67729 19.67C7.50407 19.5997 7.3184 19.5635 7.1309 19.5635C6.94341 19.5635 6.75774 19.5997 6.58452 19.67C6.41129 19.7403 6.25389 19.8434 6.12131 19.9733C5.98873 20.1032 5.88356 20.2575 5.81181 20.4273C5.74006 20.597 5.70312 20.779 5.70312 20.9627C5.70312 21.1465 5.74006 21.3285 5.81181 21.4982C5.88356 21.668 5.98873 21.8222 6.12131 21.9522L8.97327 24.7472C9.10573 24.8774 9.26309 24.9806 9.43633 25.0511C9.60957 25.1215 9.7953 25.1578 9.98286 25.1578C10.1704 25.1578 10.3561 25.1215 10.5294 25.0511C10.7026 24.9806 10.86 24.8774 10.9925 24.7472L16.6964 19.1572C16.9641 18.8947 17.1146 18.5388 17.1146 18.1677C17.1146 17.7966 16.9641 17.4407 16.6964 17.1783C16.4286 16.9159 16.0654 16.7684 15.6868 16.7684C15.3081 16.7684 14.9449 16.9159 14.6772 17.1783Z" fill="#048DEF"></path><path d="M21.3869 19.5652H44.2026C44.5808 19.5652 44.9435 19.4179 45.2109 19.1558C45.4783 18.8938 45.6285 18.5383 45.6285 18.1677C45.6285 17.797 45.4783 17.4415 45.2109 17.1795C44.9435 16.9174 44.5808 16.7701 44.2026 16.7701H21.3869C21.0087 16.7701 20.646 16.9174 20.3786 17.1795C20.1112 17.4415 19.9609 17.797 19.9609 18.1677C19.9609 18.5383 20.1112 18.8938 20.3786 19.1558C20.646 19.4179 21.0087 19.5652 21.3869 19.5652Z" fill="#048DEF"></path><path d="M21.3869 25.1553H44.2026C44.5808 25.1553 44.9435 25.008 45.2109 24.7459C45.4783 24.4839 45.6285 24.1284 45.6285 23.7577C45.6285 23.3871 45.4783 23.0316 45.2109 22.7696C44.9435 22.5075 44.5808 22.3602 44.2026 22.3602H21.3869C21.0087 22.3602 20.646 22.5075 20.3786 22.7696C20.1112 23.0316 19.9609 23.3871 19.9609 23.7577C19.9609 24.1284 20.1112 24.4839 20.3786 24.7459C20.646 25.008 21.0087 25.1553 21.3869 25.1553Z" fill="#048DEF"></path><path d="M51.3352 33.8198V11.0152C51.333 9.57705 50.749 8.19843 49.7114 7.18149C48.6737 6.16456 47.267 5.59227 45.7996 5.59006H39.9274V3.57764C39.9207 2.63082 39.5339 1.72466 38.8508 1.05515C38.1676 0.385632 37.243 0.00658804 36.2769 0H15.0583C14.0922 0.00658804 13.1676 0.385632 12.4845 1.05515C11.8013 1.72466 11.4145 2.63082 11.4078 3.57764V5.59006H5.5328C4.06587 5.59154 2.65946 6.16329 1.62219 7.17986C0.584913 8.19643 0.00150996 9.57477 0 11.0124V56.0683C0.00150996 57.5059 0.584913 58.8842 1.62219 59.9008C2.65946 60.9174 4.06587 61.4891 5.5328 61.4906H48.4833C51.5706 61.5027 54.5766 60.5207 57.0391 58.6956C59.2386 57.0798 60.9146 54.8755 61.8656 52.348C62.8165 49.8205 63.0018 47.0775 62.3991 44.4492C61.7965 41.8208 60.4315 39.4192 58.4686 37.5334C56.5057 35.6476 54.0285 34.358 51.3352 33.8198ZM14.2598 3.57764C14.2642 3.37142 14.3497 3.17484 14.4985 3.02899C14.6473 2.88314 14.8479 2.79931 15.0583 2.79503H36.2769C36.4873 2.79931 36.6879 2.88314 36.8367 3.02899C36.9855 3.17484 37.0711 3.37142 37.0754 3.57764V7.60248C37.0711 7.80869 36.9855 8.00527 36.8367 8.15112C36.6879 8.29697 36.4873 8.3808 36.2769 8.38508H15.0583C14.8479 8.3808 14.6473 8.29697 14.4985 8.15112C14.3497 8.00527 14.2642 7.80869 14.2598 7.60248V3.57764ZM5.5328 58.6956C5.18064 58.696 4.83186 58.6282 4.50644 58.4963C4.18102 58.3644 3.88533 58.1709 3.63632 57.9269C3.38731 57.6828 3.18985 57.3931 3.05526 57.0741C2.92067 56.7552 2.85158 56.4134 2.85196 56.0683V11.0124C2.85158 10.6673 2.92067 10.3255 3.05526 10.0065C3.18985 9.68761 3.38731 9.39783 3.63632 9.15379C3.88533 8.90975 4.18102 8.71623 4.50644 8.58433C4.83186 8.45242 5.18064 8.38472 5.5328 8.38508H11.5219C11.6961 9.17717 12.1423 9.88675 12.7858 10.3954C13.4294 10.9041 14.2315 11.181 15.0583 11.1801H36.2769C37.1037 11.181 37.9058 10.9041 38.5494 10.3954C39.1929 9.88675 39.6391 9.17717 39.8133 8.38508H45.8024C46.5135 8.38656 47.1949 8.66423 47.6974 9.15723C48.1999 9.65023 48.4825 10.3184 48.4833 11.0152V33.5403C45.4904 33.5403 42.5734 34.4632 40.1454 36.1783C37.7175 37.8933 35.9017 40.3135 34.9552 43.0961C34.0088 45.8788 33.9797 48.8827 34.8721 51.6824C35.7645 54.4821 37.5331 56.9357 39.9274 58.6956H5.5328ZM48.4833 58.6956C46.227 58.6956 44.0214 58.0399 42.1454 56.8114C40.2694 55.5829 38.8072 53.8368 37.9438 51.7939C37.0804 49.751 36.8545 47.5031 37.2946 45.3343C37.7348 43.1656 38.8213 41.1735 40.4167 39.6099C42.0121 38.0464 44.0448 36.9816 46.2577 36.5502C48.4706 36.1188 50.7643 36.3402 52.8488 37.1864C54.9333 38.0326 56.715 39.4656 57.9685 41.3041C59.222 43.1427 59.8911 45.3043 59.8911 47.5155C59.8911 50.4806 58.6892 53.3243 56.5498 55.421C54.4104 57.5177 51.5088 58.6956 48.4833 58.6956Z" fill="#048DEF"></path><path d="M49.9066 46.937V41.9255C49.9066 41.5548 49.7564 41.1994 49.489 40.9373C49.2216 40.6752 48.8589 40.528 48.4807 40.528C48.1025 40.528 47.7398 40.6752 47.4723 40.9373C47.2049 41.1994 47.0547 41.5548 47.0547 41.9255V47.5155C47.0544 47.6992 47.091 47.8811 47.1624 48.0509C47.2339 48.2206 47.3387 48.3749 47.4711 48.505L50.323 51.3C50.5908 51.5624 50.954 51.7098 51.3326 51.7098C51.7113 51.7098 52.0745 51.5624 52.3422 51.3C52.61 51.0376 52.7604 50.6817 52.7604 50.3106C52.7604 49.9394 52.61 49.5835 52.3422 49.3211L49.9066 46.937Z" fill="#048DEF"></path><path d="M32.7947 36.3354H21.3869C21.0087 36.3354 20.646 36.4827 20.3786 36.7448C20.1112 37.0069 19.9609 37.3623 19.9609 37.733C19.9609 38.1036 20.1112 38.4591 20.3786 38.7212C20.646 38.9832 21.0087 39.1305 21.3869 39.1305H32.7947C33.1729 39.1305 33.5356 38.9832 33.8031 38.7212C34.0705 38.4591 34.2207 38.1036 34.2207 37.733C34.2207 37.3623 34.0705 37.0069 33.8031 36.7448C33.5356 36.4827 33.1729 36.3354 32.7947 36.3354Z" fill="#048DEF"></path><path d="M29.9428 50.3104H21.3869C21.0087 50.3104 20.646 50.4577 20.3786 50.7197C20.1112 50.9818 19.9609 51.3373 19.9609 51.7079C19.9609 52.0786 20.1112 52.434 20.3786 52.6961C20.646 52.9582 21.0087 53.1055 21.3869 53.1055H29.9428C30.321 53.1055 30.6837 52.9582 30.9511 52.6961C31.2185 52.434 31.3688 52.0786 31.3688 51.7079C31.3688 51.3373 31.2185 50.9818 30.9511 50.7197C30.6837 50.4577 30.321 50.3104 29.9428 50.3104Z" fill="#048DEF"></path><path d="M29.9428 44.7203H21.3869C21.0087 44.7203 20.646 44.8676 20.3786 45.1297C20.1112 45.3917 19.9609 45.7472 19.9609 46.1179C19.9609 46.4885 20.1112 46.844 20.3786 47.106C20.646 47.3681 21.0087 47.5154 21.3869 47.5154H29.9428C30.321 47.5154 30.6837 47.3681 30.9511 47.106C31.2185 46.844 31.3688 46.4885 31.3688 46.1179C31.3688 45.7472 31.2185 45.3917 30.9511 45.1297C30.6837 44.8676 30.321 44.7203 29.9428 44.7203Z" fill="#048DEF"></path></svg>