<svg xmlns="http://www.w3.org/2000/svg" id="Layer_1" data-name="Layer 1" viewBox="0 0 73 61"><defs><style>.cls-1{fill:#0449a9;}</style></defs><path class="cls-1" d="M36.5,10.87A19.65,19.65,0,1,0,56.14,30.51,19.64,19.64,0,0,0,36.5,10.87Zm0,37.33A17.69,17.69,0,1,1,54.18,30.51,17.69,17.69,0,0,1,36.5,48.2Z"></path><path class="cls-1" d="M46.84,22.71,38,17.49a3,3,0,0,0-3,0l-8.84,5.22a3,3,0,0,0-1.44,2.54V35.78a3,3,0,0,0,1.44,2.53L35,43.54a3,3,0,0,0,3,0l8.84-5.23a3,3,0,0,0,1.44-2.53V25.25A3,3,0,0,0,46.84,22.71Zm-.52,13.07a1,1,0,0,1-.48.84L37,41.85a1,1,0,0,1-1,0l-8.84-5.23a1,1,0,0,1-.48-.84V25.25a1,1,0,0,1,.48-.85L36,19.18a1,1,0,0,1,1,0l8.84,5.22a1,1,0,0,1,.48.85Z"></path><path class="cls-1" d="M36.5,23.64a6.88,6.88,0,1,0,6.87,6.87A6.88,6.88,0,0,0,36.5,23.64Zm0,11.79a4.92,4.92,0,1,1,4.91-4.92A4.92,4.92,0,0,1,36.5,35.43Z"></path><path class="cls-1" d="M36.5,27.57a1,1,0,0,0-1,1v3.93a1,1,0,0,0,2,0V28.55A1,1,0,0,0,36.5,27.57Z"></path><path class="cls-1" d="M62,52.12a4,4,0,0,0-3.87,3.32H53.05l-3-5.65a23.58,23.58,0,0,0,7.37-30.08,1,1,0,0,0-1.33-.42,1,1,0,0,0-.42,1.32,21.52,21.52,0,1,1-7.39-8.2,21.81,21.81,0,0,1,5.23,4.91,1,1,0,0,0,1.42.23,1,1,0,0,0,.23-1.43,23.75,23.75,0,0,0-5-4.91l3-5.55h5.13a3.94,3.94,0,1,0,.14-2H52.44a1,1,0,0,0-.87.52l-3.14,5.89a23.59,23.59,0,0,0-23.81,0l-3-5.6A1,1,0,0,0,20.78,4h-6a3.93,3.93,0,1,0,0,2h5.44L23,11.22A23.58,23.58,0,0,0,23,49.85L20.19,55.2h-5.4a3.94,3.94,0,1,0-.08,2h6.07a1,1,0,0,0,.86-.52l3.07-5.73a23.53,23.53,0,0,0,23.7,0l3.2,6a1,1,0,0,0,.87.52h5.89A3.93,3.93,0,1,0,62,52.12ZM62,3a2,2,0,1,1-2,2A2,2,0,0,1,62,3ZM11,6.94a2,2,0,1,1,2-2A2,2,0,0,1,11,6.94ZM11,58a2,2,0,1,1,2-2v.2A2,2,0,0,1,11,58ZM62,58a2,2,0,0,1-2-1.54v-.06a.81.81,0,0,0,0-.22v-.15a2,2,0,1,1,2,2Z"></path></svg>