<svg xmlns="http://www.w3.org/2000/svg" width="55" height="55" viewBox="0 0 55 55" fill="none"><mask id="path-1-outside-1_1589_152" maskUnits="userSpaceOnUse" x="-0.03125" y="-0.492188" width="55" height="55" fill="black"><rect fill="white" x="-0.03125" y="-0.492188" width="55" height="55"></rect><path d="M54.0028 16.1831C53.9998 16.163 53.9959 16.143 53.9914 16.1231C53.6927 14.5326 53.1969 13.0111 52.5304 11.5845C52.5121 11.5301 52.4876 11.4776 52.4571 11.4276C51.837 10.1314 51.0756 8.91519 50.1927 7.79938C50.16 7.74446 50.1211 7.69236 50.0738 7.64505C50.0675 7.6387 50.0605 7.63328 50.0539 7.62713C49.1866 6.55643 48.2064 5.58088 47.1315 4.71849C47.1255 4.71202 47.1201 4.70525 47.1138 4.69889C47.0652 4.65044 47.0116 4.61043 46.955 4.57739C45.8347 3.7 44.6142 2.94504 43.3143 2.33138C43.2648 2.30106 43.2127 2.27699 43.1589 2.25875C41.7241 1.59706 40.1943 1.10699 38.5957 0.816673C38.5758 0.812192 38.5558 0.808441 38.5357 0.805523C37.4403 0.609932 36.3131 0.507812 35.1623 0.507812C34.2773 0.507812 33.4067 0.569501 32.5534 0.686105C32.5507 0.686314 32.548 0.686939 32.5451 0.687252C24.4533 1.79765 17.9561 7.97934 16.3736 15.9132C14.2966 16.327 12.2964 17.0822 10.4626 18.1557C10.0893 18.3742 9.96395 18.8539 10.1824 19.2271C10.4009 19.6004 10.8806 19.7257 11.2537 19.5073C12.771 18.6191 14.4128 17.9684 16.1186 17.5706C16.0434 18.2592 16.0035 18.9583 16.0035 19.6666C16.0035 20.8163 16.1055 21.9427 16.3006 23.037C16.3037 23.0585 16.3076 23.0798 16.3125 23.101C16.6028 24.6991 17.0927 26.2283 17.7542 27.6626C17.7725 27.7166 17.7967 27.7688 17.8271 27.8185C18.4408 29.1183 19.1956 30.3387 20.073 31.459C20.1061 31.5156 20.146 31.5692 20.1946 31.6178C20.2007 31.624 20.2075 31.6293 20.2139 31.6352C21.0764 32.7102 22.0519 33.6905 23.1228 34.558C23.129 34.5646 23.1344 34.5715 23.1407 34.5778C23.1879 34.625 23.24 34.664 23.2949 34.6966C24.4108 35.5796 25.6269 36.341 26.9231 36.9611C26.9732 36.9917 27.0258 37.0161 27.0801 37.0344C28.5069 37.7011 30.0286 38.1969 31.6194 38.4956C31.6389 38.5 31.6585 38.5038 31.6782 38.5068C32.8084 38.7153 33.9727 38.8253 35.1623 38.8253C35.8709 38.8253 36.5702 38.7854 37.259 38.71C35.4399 46.4855 28.4494 52.2938 20.1275 52.2938C10.4268 52.2938 2.53473 44.4017 2.53473 34.7011C2.53473 29.8095 4.49439 25.2656 8.05264 21.9062C8.36713 21.6093 8.3813 21.1137 8.08452 20.7992C7.78754 20.4847 7.29195 20.4706 6.97757 20.7674C5.10012 22.5399 3.62251 24.6318 2.586 26.985C1.51301 29.422 0.96875 32.018 0.96875 34.7014C0.96875 45.2657 9.56349 53.8602 20.1277 53.8602C29.4075 53.8602 37.1664 47.2283 38.9163 38.4552C46.8965 36.8634 53.1048 30.2996 54.1616 22.1417C54.1622 22.1369 54.1632 22.1322 54.1636 22.1275C54.2674 21.3216 54.3212 20.5003 54.3212 19.6666C54.3212 18.4773 54.2112 17.3131 54.0028 16.1831ZM49.4341 9.39203C49.9568 10.1161 50.4265 10.8809 50.836 11.6814L36.96 25.5574C36.5317 24.7722 36.0497 24.0205 35.5198 23.3064L49.4341 9.39203ZM48.4558 8.15524L34.5299 22.0812C33.9555 21.4264 33.3379 20.8106 32.6804 20.2393L46.605 6.31489C47.266 6.88218 47.8851 7.49719 48.4558 8.15524ZM45.3635 5.34131L31.4491 19.2558C30.7319 18.7286 29.977 18.2497 29.1889 17.8247L43.0628 3.95081C43.8668 4.35659 44.6358 4.82165 45.3635 5.34131ZM38.6799 2.42746C39.6624 2.62774 40.6152 2.91044 41.5312 3.26745L27.6962 17.1023C26.8128 16.7209 25.8956 16.4036 24.9498 16.1575L38.6799 2.42746ZM32.9936 2.20769C33.7045 2.11985 34.4282 2.07389 35.1624 2.07389C35.6964 2.07389 36.2245 2.09911 36.7465 2.1459L23.1164 15.7761C22.1423 15.6229 21.1442 15.5426 20.1277 15.5426C19.9686 15.5426 19.8097 15.5465 19.6508 15.5505L32.9936 2.20769ZM30.198 2.78832L18.284 14.7024C19.968 8.98657 24.4823 4.47225 30.198 2.78832ZM17.6418 21.2509C17.5949 20.7287 17.5697 20.2006 17.5697 19.6666C17.5697 18.9324 17.6156 18.2087 17.7035 17.4978L17.9568 17.2445C18.6747 17.1555 19.3995 17.1086 20.1278 17.1086C20.6617 17.1086 21.1898 17.1339 21.7119 17.1807L17.6418 21.2509ZM17.9231 23.1842L23.6451 17.4622C24.6276 17.6624 25.5804 17.9451 26.4963 18.3022L18.763 26.0356C18.4061 25.1195 18.1233 24.1667 17.9231 23.1842ZM20.8371 29.8678C20.3173 29.14 19.8523 28.371 19.4465 27.5671L28.0281 18.9855C28.8321 19.3913 29.6011 19.8563 30.3288 20.3761L20.8371 29.8678ZM21.8106 31.1093L31.5702 21.3496C32.2313 21.917 32.8504 22.5319 33.4211 23.19L23.651 32.96C22.9929 32.3894 22.378 31.7703 21.8106 31.1093ZM24.8877 33.9383L34.3994 24.4268C34.9221 25.1509 35.3918 25.9155 35.8012 26.716L27.1769 35.3404C26.3765 34.9308 25.6117 34.461 24.8877 33.9383ZM31.5399 36.8835C30.5617 36.678 29.6131 36.3916 28.7017 36.0304L36.4915 28.2408C36.8525 29.1521 37.139 30.1008 37.3446 31.079L31.5399 36.8835ZM37.6031 36.7265L37.1875 37.1421C36.5228 37.2187 35.8473 37.2594 35.1623 37.2594C34.5886 37.2594 34.0214 37.2308 33.4615 37.1769L37.6378 33.0006C37.6918 33.5604 37.7203 34.1275 37.7203 34.7014C37.7203 35.3863 37.6797 36.0618 37.6031 36.7265ZM38.6444 29.7791C38.3937 28.8371 38.0729 27.9237 37.6879 27.0444L51.5262 13.2062C51.8873 14.1176 52.1737 15.0662 52.3792 16.0443L38.6444 29.7791ZM39.9466 36.598L52.0938 24.4508C50.4353 30.3123 45.808 34.9395 39.9466 36.598ZM52.6379 21.6917L39.2821 35.0475C39.2842 34.9322 39.2865 34.8171 39.2865 34.7013C39.2865 33.6468 39.1995 32.6123 39.0348 31.6036L52.6727 17.9658C52.7266 18.5256 52.7552 19.0928 52.7552 19.6666C52.7551 20.3516 52.7143 21.0271 52.6379 21.6917Z"></path></mask><path d="M54.0028 16.1831C53.9998 16.163 53.9959 16.143 53.9914 16.1231C53.6927 14.5326 53.1969 13.0111 52.5304 11.5845C52.5121 11.5301 52.4876 11.4776 52.4571 11.4276C51.837 10.1314 51.0756 8.91519 50.1927 7.79938C50.16 7.74446 50.1211 7.69236 50.0738 7.64505C50.0675 7.6387 50.0605 7.63328 50.0539 7.62713C49.1866 6.55643 48.2064 5.58088 47.1315 4.71849C47.1255 4.71202 47.1201 4.70525 47.1138 4.69889C47.0652 4.65044 47.0116 4.61043 46.955 4.57739C45.8347 3.7 44.6142 2.94504 43.3143 2.33138C43.2648 2.30106 43.2127 2.27699 43.1589 2.25875C41.7241 1.59706 40.1943 1.10699 38.5957 0.816673C38.5758 0.812192 38.5558 0.808441 38.5357 0.805523C37.4403 0.609932 36.3131 0.507812 35.1623 0.507812C34.2773 0.507812 33.4067 0.569501 32.5534 0.686105C32.5507 0.686314 32.548 0.686939 32.5451 0.687252C24.4533 1.79765 17.9561 7.97934 16.3736 15.9132C14.2966 16.327 12.2964 17.0822 10.4626 18.1557C10.0893 18.3742 9.96395 18.8539 10.1824 19.2271C10.4009 19.6004 10.8806 19.7257 11.2537 19.5073C12.771 18.6191 14.4128 17.9684 16.1186 17.5706C16.0434 18.2592 16.0035 18.9583 16.0035 19.6666C16.0035 20.8163 16.1055 21.9427 16.3006 23.037C16.3037 23.0585 16.3076 23.0798 16.3125 23.101C16.6028 24.6991 17.0927 26.2283 17.7542 27.6626C17.7725 27.7166 17.7967 27.7688 17.8271 27.8185C18.4408 29.1183 19.1956 30.3387 20.073 31.459C20.1061 31.5156 20.146 31.5692 20.1946 31.6178C20.2007 31.624 20.2075 31.6293 20.2139 31.6352C21.0764 32.7102 22.0519 33.6905 23.1228 34.558C23.129 34.5646 23.1344 34.5715 23.1407 34.5778C23.1879 34.625 23.24 34.664 23.2949 34.6966C24.4108 35.5796 25.6269 36.341 26.9231 36.9611C26.9732 36.9917 27.0258 37.0161 27.0801 37.0344C28.5069 37.7011 30.0286 38.1969 31.6194 38.4956C31.6389 38.5 31.6585 38.5038 31.6782 38.5068C32.8084 38.7153 33.9727 38.8253 35.1623 38.8253C35.8709 38.8253 36.5702 38.7854 37.259 38.71C35.4399 46.4855 28.4494 52.2938 20.1275 52.2938C10.4268 52.2938 2.53473 44.4017 2.53473 34.7011C2.53473 29.8095 4.49439 25.2656 8.05264 21.9062C8.36713 21.6093 8.3813 21.1137 8.08452 20.7992C7.78754 20.4847 7.29195 20.4706 6.97757 20.7674C5.10012 22.5399 3.62251 24.6318 2.586 26.985C1.51301 29.422 0.96875 32.018 0.96875 34.7014C0.96875 45.2657 9.56349 53.8602 20.1277 53.8602C29.4075 53.8602 37.1664 47.2283 38.9163 38.4552C46.8965 36.8634 53.1048 30.2996 54.1616 22.1417C54.1622 22.1369 54.1632 22.1322 54.1636 22.1275C54.2674 21.3216 54.3212 20.5003 54.3212 19.6666C54.3212 18.4773 54.2112 17.3131 54.0028 16.1831ZM49.4341 9.39203C49.9568 10.1161 50.4265 10.8809 50.836 11.6814L36.96 25.5574C36.5317 24.7722 36.0497 24.0205 35.5198 23.3064L49.4341 9.39203ZM48.4558 8.15524L34.5299 22.0812C33.9555 21.4264 33.3379 20.8106 32.6804 20.2393L46.605 6.31489C47.266 6.88218 47.8851 7.49719 48.4558 8.15524ZM45.3635 5.34131L31.4491 19.2558C30.7319 18.7286 29.977 18.2497 29.1889 17.8247L43.0628 3.95081C43.8668 4.35659 44.6358 4.82165 45.3635 5.34131ZM38.6799 2.42746C39.6624 2.62774 40.6152 2.91044 41.5312 3.26745L27.6962 17.1023C26.8128 16.7209 25.8956 16.4036 24.9498 16.1575L38.6799 2.42746ZM32.9936 2.20769C33.7045 2.11985 34.4282 2.07389 35.1624 2.07389C35.6964 2.07389 36.2245 2.09911 36.7465 2.1459L23.1164 15.7761C22.1423 15.6229 21.1442 15.5426 20.1277 15.5426C19.9686 15.5426 19.8097 15.5465 19.6508 15.5505L32.9936 2.20769ZM30.198 2.78832L18.284 14.7024C19.968 8.98657 24.4823 4.47225 30.198 2.78832ZM17.6418 21.2509C17.5949 20.7287 17.5697 20.2006 17.5697 19.6666C17.5697 18.9324 17.6156 18.2087 17.7035 17.4978L17.9568 17.2445C18.6747 17.1555 19.3995 17.1086 20.1278 17.1086C20.6617 17.1086 21.1898 17.1339 21.7119 17.1807L17.6418 21.2509ZM17.9231 23.1842L23.6451 17.4622C24.6276 17.6624 25.5804 17.9451 26.4963 18.3022L18.763 26.0356C18.4061 25.1195 18.1233 24.1667 17.9231 23.1842ZM20.8371 29.8678C20.3173 29.14 19.8523 28.371 19.4465 27.5671L28.0281 18.9855C28.8321 19.3913 29.6011 19.8563 30.3288 20.3761L20.8371 29.8678ZM21.8106 31.1093L31.5702 21.3496C32.2313 21.917 32.8504 22.5319 33.4211 23.19L23.651 32.96C22.9929 32.3894 22.378 31.7703 21.8106 31.1093ZM24.8877 33.9383L34.3994 24.4268C34.9221 25.1509 35.3918 25.9155 35.8012 26.716L27.1769 35.3404C26.3765 34.9308 25.6117 34.461 24.8877 33.9383ZM31.5399 36.8835C30.5617 36.678 29.6131 36.3916 28.7017 36.0304L36.4915 28.2408C36.8525 29.1521 37.139 30.1008 37.3446 31.079L31.5399 36.8835ZM37.6031 36.7265L37.1875 37.1421C36.5228 37.2187 35.8473 37.2594 35.1623 37.2594C34.5886 37.2594 34.0214 37.2308 33.4615 37.1769L37.6378 33.0006C37.6918 33.5604 37.7203 34.1275 37.7203 34.7014C37.7203 35.3863 37.6797 36.0618 37.6031 36.7265ZM38.6444 29.7791C38.3937 28.8371 38.0729 27.9237 37.6879 27.0444L51.5262 13.2062C51.8873 14.1176 52.1737 15.0662 52.3792 16.0443L38.6444 29.7791ZM39.9466 36.598L52.0938 24.4508C50.4353 30.3123 45.808 34.9395 39.9466 36.598ZM52.6379 21.6917L39.2821 35.0475C39.2842 34.9322 39.2865 34.8171 39.2865 34.7013C39.2865 33.6468 39.1995 32.6123 39.0348 31.6036L52.6727 17.9658C52.7266 18.5256 52.7552 19.0928 52.7552 19.6666C52.7551 20.3516 52.7143 21.0271 52.6379 21.6917Z" fill="#048DEF"></path><path d="M54.0028 16.1831C53.9998 16.163 53.9959 16.143 53.9914 16.1231C53.6927 14.5326 53.1969 13.0111 52.5304 11.5845C52.5121 11.5301 52.4876 11.4776 52.4571 11.4276C51.837 10.1314 51.0756 8.91519 50.1927 7.79938C50.16 7.74446 50.1211 7.69236 50.0738 7.64505C50.0675 7.6387 50.0605 7.63328 50.0539 7.62713C49.1866 6.55643 48.2064 5.58088 47.1315 4.71849C47.1255 4.71202 47.1201 4.70525 47.1138 4.69889C47.0652 4.65044 47.0116 4.61043 46.955 4.57739C45.8347 3.7 44.6142 2.94504 43.3143 2.33138C43.2648 2.30106 43.2127 2.27699 43.1589 2.25875C41.7241 1.59706 40.1943 1.10699 38.5957 0.816673C38.5758 0.812192 38.5558 0.808441 38.5357 0.805523C37.4403 0.609932 36.3131 0.507812 35.1623 0.507812C34.2773 0.507812 33.4067 0.569501 32.5534 0.686105C32.5507 0.686314 32.548 0.686939 32.5451 0.687252C24.4533 1.79765 17.9561 7.97934 16.3736 15.9132C14.2966 16.327 12.2964 17.0822 10.4626 18.1557C10.0893 18.3742 9.96395 18.8539 10.1824 19.2271C10.4009 19.6004 10.8806 19.7257 11.2537 19.5073C12.771 18.6191 14.4128 17.9684 16.1186 17.5706C16.0434 18.2592 16.0035 18.9583 16.0035 19.6666C16.0035 20.8163 16.1055 21.9427 16.3006 23.037C16.3037 23.0585 16.3076 23.0798 16.3125 23.101C16.6028 24.6991 17.0927 26.2283 17.7542 27.6626C17.7725 27.7166 17.7967 27.7688 17.8271 27.8185C18.4408 29.1183 19.1956 30.3387 20.073 31.459C20.1061 31.5156 20.146 31.5692 20.1946 31.6178C20.2007 31.624 20.2075 31.6293 20.2139 31.6352C21.0764 32.7102 22.0519 33.6905 23.1228 34.558C23.129 34.5646 23.1344 34.5715 23.1407 34.5778C23.1879 34.625 23.24 34.664 23.2949 34.6966C24.4108 35.5796 25.6269 36.341 26.9231 36.9611C26.9732 36.9917 27.0258 37.0161 27.0801 37.0344C28.5069 37.7011 30.0286 38.1969 31.6194 38.4956C31.6389 38.5 31.6585 38.5038 31.6782 38.5068C32.8084 38.7153 33.9727 38.8253 35.1623 38.8253C35.8709 38.8253 36.5702 38.7854 37.259 38.71C35.4399 46.4855 28.4494 52.2938 20.1275 52.2938C10.4268 52.2938 2.53473 44.4017 2.53473 34.7011C2.53473 29.8095 4.49439 25.2656 8.05264 21.9062C8.36713 21.6093 8.3813 21.1137 8.08452 20.7992C7.78754 20.4847 7.29195 20.4706 6.97757 20.7674C5.10012 22.5399 3.62251 24.6318 2.586 26.985C1.51301 29.422 0.96875 32.018 0.96875 34.7014C0.96875 45.2657 9.56349 53.8602 20.1277 53.8602C29.4075 53.8602 37.1664 47.2283 38.9163 38.4552C46.8965 36.8634 53.1048 30.2996 54.1616 22.1417C54.1622 22.1369 54.1632 22.1322 54.1636 22.1275C54.2674 21.3216 54.3212 20.5003 54.3212 19.6666C54.3212 18.4773 54.2112 17.3131 54.0028 16.1831ZM49.4341 9.39203C49.9568 10.1161 50.4265 10.8809 50.836 11.6814L36.96 25.5574C36.5317 24.7722 36.0497 24.0205 35.5198 23.3064L49.4341 9.39203ZM48.4558 8.15524L34.5299 22.0812C33.9555 21.4264 33.3379 20.8106 32.6804 20.2393L46.605 6.31489C47.266 6.88218 47.8851 7.49719 48.4558 8.15524ZM45.3635 5.34131L31.4491 19.2558C30.7319 18.7286 29.977 18.2497 29.1889 17.8247L43.0628 3.95081C43.8668 4.35659 44.6358 4.82165 45.3635 5.34131ZM38.6799 2.42746C39.6624 2.62774 40.6152 2.91044 41.5312 3.26745L27.6962 17.1023C26.8128 16.7209 25.8956 16.4036 24.9498 16.1575L38.6799 2.42746ZM32.9936 2.20769C33.7045 2.11985 34.4282 2.07389 35.1624 2.07389C35.6964 2.07389 36.2245 2.09911 36.7465 2.1459L23.1164 15.7761C22.1423 15.6229 21.1442 15.5426 20.1277 15.5426C19.9686 15.5426 19.8097 15.5465 19.6508 15.5505L32.9936 2.20769ZM30.198 2.78832L18.284 14.7024C19.968 8.98657 24.4823 4.47225 30.198 2.78832ZM17.6418 21.2509C17.5949 20.7287 17.5697 20.2006 17.5697 19.6666C17.5697 18.9324 17.6156 18.2087 17.7035 17.4978L17.9568 17.2445C18.6747 17.1555 19.3995 17.1086 20.1278 17.1086C20.6617 17.1086 21.1898 17.1339 21.7119 17.1807L17.6418 21.2509ZM17.9231 23.1842L23.6451 17.4622C24.6276 17.6624 25.5804 17.9451 26.4963 18.3022L18.763 26.0356C18.4061 25.1195 18.1233 24.1667 17.9231 23.1842ZM20.8371 29.8678C20.3173 29.14 19.8523 28.371 19.4465 27.5671L28.0281 18.9855C28.8321 19.3913 29.6011 19.8563 30.3288 20.3761L20.8371 29.8678ZM21.8106 31.1093L31.5702 21.3496C32.2313 21.917 32.8504 22.5319 33.4211 23.19L23.651 32.96C22.9929 32.3894 22.378 31.7703 21.8106 31.1093ZM24.8877 33.9383L34.3994 24.4268C34.9221 25.1509 35.3918 25.9155 35.8012 26.716L27.1769 35.3404C26.3765 34.9308 25.6117 34.461 24.8877 33.9383ZM31.5399 36.8835C30.5617 36.678 29.6131 36.3916 28.7017 36.0304L36.4915 28.2408C36.8525 29.1521 37.139 30.1008 37.3446 31.079L31.5399 36.8835ZM37.6031 36.7265L37.1875 37.1421C36.5228 37.2187 35.8473 37.2594 35.1623 37.2594C34.5886 37.2594 34.0214 37.2308 33.4615 37.1769L37.6378 33.0006C37.6918 33.5604 37.7203 34.1275 37.7203 34.7014C37.7203 35.3863 37.6797 36.0618 37.6031 36.7265ZM38.6444 29.7791C38.3937 28.8371 38.0729 27.9237 37.6879 27.0444L51.5262 13.2062C51.8873 14.1176 52.1737 15.0662 52.3792 16.0443L38.6444 29.7791ZM39.9466 36.598L52.0938 24.4508C50.4353 30.3123 45.808 34.9395 39.9466 36.598ZM52.6379 21.6917L39.2821 35.0475C39.2842 34.9322 39.2865 34.8171 39.2865 34.7013C39.2865 33.6468 39.1995 32.6123 39.0348 31.6036L52.6727 17.9658C52.7266 18.5256 52.7552 19.0928 52.7552 19.6666C52.7551 20.3516 52.7143 21.0271 52.6379 21.6917Z" stroke="#048DEF" stroke-width="0.8" mask="url(#path-1-outside-1_1589_152)"></path></svg>