<svg xmlns="http://www.w3.org/2000/svg" width="50" height="51" viewBox="0 0 50 51" fill="none"><path d="M41.3377 10.6037L41.4301 10.3775L41.3377 10.6037C42.9512 11.2627 44.0942 12.6798 44.3968 14.3961L49.0075 40.5446C49.4903 43.2827 47.6552 45.9034 44.9173 46.3862L25.0165 49.8953C24.7214 49.9473 24.4277 49.9724 24.1382 49.9724C21.7384 49.9724 19.6057 48.2478 19.175 45.805L18.7436 43.3582L18.7132 43.1858L18.5408 43.1554L4.48385 40.6768C1.74589 40.194 -0.0892219 37.5733 0.393538 34.8352L3.83281 15.3297C4.13684 13.6056 5.28637 12.186 6.90939 11.5301L18.0106 7.04389L18.0106 7.04388C18.4556 6.864 18.9188 6.75208 19.3857 6.7055L19.5742 6.6867L19.6071 6.50015L20.3671 2.19011L20.3671 2.19009C20.4816 1.54086 21.1007 1.10731 21.7494 1.22207L21.7496 1.2221C22.3986 1.3365 22.832 1.95547 22.7176 2.60454L21.9577 6.91428L21.9248 7.10093L22.0956 7.18303C22.5249 7.38937 22.9277 7.65734 23.2884 7.98464L23.4564 7.79949L23.2884 7.98465L23.4731 8.15227L23.6405 8.30413L23.8084 8.15289L25.0546 7.03059C25.4111 6.70948 25.8082 6.44591 26.231 6.24245L26.4017 6.16031L26.3688 5.97375L25.7747 2.60453C25.6602 1.95549 26.0936 1.33654 26.7427 1.22211C27.3923 1.10776 28.0108 1.54108 28.1252 2.1901L28.7192 5.55894L28.7521 5.74559L28.9407 5.76431C29.4147 5.81136 29.8848 5.9254 30.3357 6.10955C30.3357 6.10956 30.3357 6.10956 30.3358 6.10956L41.3377 10.6037ZM24.6019 47.5446L24.5586 47.2984L24.602 47.5446L44.5028 44.0356C45.9451 43.7813 46.9114 42.4014 46.6569 40.959L42.0462 14.8106C41.8869 13.9074 41.284 13.1602 40.435 12.8133L40.3405 13.0448L40.435 12.8133L29.433 8.31921L29.433 8.3192C29.1112 8.18778 28.7715 8.12388 28.4341 8.12388C27.7877 8.12388 27.147 8.35819 26.6516 8.80423L26.6515 8.80426L25.6224 9.73112L25.4169 9.9162L25.6217 10.102L32.0895 15.9707C33.3802 17.1417 33.9697 18.8642 33.667 20.5806L30.226 40.0956C29.9921 41.4224 29.2561 42.5777 28.1524 43.3505L28.2958 43.5553L28.1524 43.3505C27.2945 43.9512 26.2957 44.2638 25.2713 44.2638C24.9771 44.2638 24.6808 44.238 24.3845 44.1858L21.5661 43.6888L21.2145 43.6268L21.2765 43.9784L21.5254 45.3904L21.7716 45.3469L21.5254 45.3904C21.6485 46.0884 22.0368 46.6981 22.6175 47.1046C23.1983 47.5113 23.9038 47.6677 24.6019 47.5446ZM2.74399 35.2497L2.96388 35.2884L2.74398 35.2497C2.48975 36.692 3.45591 38.0719 4.89817 38.3262L24.799 41.8353C25.4972 41.9583 26.2028 41.802 26.7834 41.3953C27.3641 40.9887 27.7524 40.3792 27.8756 39.6811L31.3166 20.1661L31.3166 20.1661C31.4757 19.2629 31.1648 18.3545 30.4858 17.7383L30.3281 17.912L30.4858 17.7383L21.8239 9.87888L21.4884 9.57444L21.4097 10.0206L21.0967 11.7957C20.9947 12.3744 20.4912 12.7822 19.9232 12.7822C19.8542 12.7822 19.7845 12.7763 19.7145 12.7639L19.7143 12.7638C19.0652 12.6494 18.6319 12.0305 18.7463 11.3814L19.0591 9.60695L19.1374 9.16275L18.7192 9.33175L7.80374 13.743L7.89741 13.9748L7.80374 13.743C6.94976 14.0882 6.34344 14.837 6.18345 15.7441L6.42965 15.7875L6.18345 15.7441L2.74399 35.2497ZM18.5001 11.338C18.3617 12.123 18.8858 12.8717 19.6709 13.01L18.5001 11.338Z" fill="#0369CA" stroke="white" stroke-width="0.5"></path><path d="M14.6063 34.5225L14.3758 35.8295C14.2835 36.3529 14.633 36.8519 15.1564 36.9442C15.2129 36.9542 15.2691 36.9589 15.3246 36.9589C15.7828 36.9589 16.1888 36.6304 16.2711 36.1636L16.5144 34.7843C17.5033 34.7812 18.4472 34.5064 19.2848 33.9712C20.2818 33.334 21.0493 32.368 21.4459 31.2508C22.2532 28.9765 21.3855 26.7218 19.2354 25.507C18.8801 25.3062 18.5533 25.1164 18.2511 24.9352L19.2125 19.4827C19.8883 19.7317 20.2773 20.1417 20.5362 20.4152C20.6099 20.493 20.6796 20.5666 20.7508 20.6325C21.1411 20.9932 21.7498 20.9693 22.1106 20.5792C22.4714 20.189 22.4475 19.5801 22.0573 19.2194C22.0331 19.197 21.9826 19.1437 21.9338 19.0922C21.5849 18.7235 20.8556 17.9534 19.5498 17.57L19.7485 16.4428C19.8408 15.9194 19.4913 15.4204 18.9679 15.3281C18.4445 15.2359 17.9455 15.5852 17.8532 16.1087L17.6345 17.349C17.4362 17.3564 17.2312 17.3712 17.017 17.3966C15.4328 17.5846 14.0813 18.6752 13.4897 20.243C12.9519 21.6682 13.1709 23.17 14.0611 24.1624C14.5578 24.7162 15.2066 25.2573 16.1311 25.8746L14.9405 32.627C14.0032 32.4109 13.4319 32.1083 12.5154 31.248C12.128 30.8843 11.519 30.9034 11.1553 31.2909C10.7915 31.6783 10.8107 32.2874 11.1982 32.6511C12.4456 33.8219 13.3502 34.2427 14.6063 34.5225ZM19.6322 30.6071C19.2567 31.665 18.2659 32.6881 16.8572 32.8398L17.8944 26.9578C18.0222 27.0314 18.1535 27.1064 18.2885 27.1827C20.2665 28.3002 19.8171 30.0864 19.6322 30.6071ZM15.4937 22.8773C15.0851 22.4217 15.0072 21.6727 15.2903 20.9224C15.5543 20.2225 16.2062 19.4309 17.2436 19.3078C17.2593 19.306 17.2743 19.3047 17.2899 19.303L16.5008 23.7781C16.0797 23.4589 15.7508 23.1637 15.4937 22.8773Z" fill="#0369CA"></path></svg>