<svg xmlns="http://www.w3.org/2000/svg" width="63" height="64" viewBox="0 0 63 64" fill="none"><path d="M56.2581 9.58367C57.6301 9.58367 58.7404 8.47337 58.7404 7.10136C58.7404 5.72934 57.6301 4.61904 56.2581 4.61904C54.8861 4.61904 53.7758 5.72934 53.7758 7.10136C53.7758 8.47378 54.8963 9.58367 56.2581 9.58367ZM56.2581 6.58217C56.5492 6.58217 56.7871 6.82008 56.7871 7.1112C56.7871 7.40231 56.5492 7.64023 56.2581 7.64023C55.9571 7.64023 55.7291 7.41215 55.7291 7.1112C55.7291 6.81166 55.9656 6.58217 56.2581 6.58217Z" fill="#048DEF" stroke="#048DEF" stroke-width="0.3"></path><mask id="path-2-outside-1_1511_18" maskUnits="userSpaceOnUse" x="0" y="0" width="63" height="64" fill="black"><rect fill="white" width="63" height="64"></rect><path d="M58.8453 1H10.9C9.07945 1 7.59346 2.48599 7.59346 4.30657V9.355H4.30657C2.48599 9.355 1 10.841 1 12.6616V54.1216C1 55.9422 2.48599 57.4282 4.30657 57.4282H26.2815V62.2109C26.2815 62.6636 26.6554 63.0376 27.1081 63.0376H42.6372C43.0899 63.0376 43.4639 62.6636 43.4639 62.2109V57.4282H52.2518C54.0724 57.4282 55.5584 55.9422 55.5584 54.1216V49.0732H58.8453C60.6659 49.0732 62.1519 47.5872 62.1519 45.7666V4.30657C62.1519 2.48599 60.6659 1 58.8453 1ZM9.24675 4.30657C9.24675 3.39136 9.99466 2.65329 10.9 2.65329H58.8453C59.7605 2.65329 60.4986 3.4012 60.4986 4.30657V11.5594H29.1255L25.4352 7.73123C25.1498 7.436 24.7561 7.26871 24.3527 7.26871H16.224C15.3974 7.26871 14.7183 7.94774 14.7183 8.77438V11.5594H9.24675V4.30657ZM4.30657 55.7848C3.39136 55.7848 2.65329 55.0368 2.65329 54.1315V12.6616C2.65329 11.7464 3.4012 11.0083 4.30657 11.0083H7.59346V45.7765C7.59346 47.5971 9.07945 49.0831 10.9 49.0831H28.85C29.1747 49.7129 29.3224 50.4214 29.2633 51.1497H27.984C27.0392 51.1497 26.2815 51.9173 26.2815 52.8521V55.7848H4.30657ZM34.0559 38.4745C34.2232 38.1792 34.5282 37.9923 34.8727 37.9923C35.3844 37.9923 35.7977 38.4056 35.7977 38.9173C35.7977 39.2519 35.6206 39.557 35.3352 39.7243C35.0203 39.9113 34.6463 39.8916 34.2625 39.6751C34.2133 39.6455 34.1641 39.6062 34.1444 39.557C33.8295 39.0551 33.9575 38.6615 34.0559 38.4745ZM34.046 36.4964C33.4457 36.7031 32.934 37.1066 32.6191 37.6774C32.1467 38.5237 32.2058 39.557 32.7569 40.4427C32.934 40.7182 33.1702 40.9446 33.4556 41.1119C33.9083 41.3677 34.4003 41.5055 34.8825 41.5055C35.3352 41.5055 35.778 41.3874 36.1717 41.1611C36.959 40.6985 37.451 39.8424 37.451 38.9272C37.451 37.7954 36.7129 36.8409 35.6993 36.4964V32.2451L43.0112 45.4419C43.0013 45.4517 42.9915 45.4714 42.962 45.4813C40.3738 46.1504 38.6811 48.5713 38.8189 51.1497H30.9363C31.0839 48.5615 29.3814 46.1406 26.744 45.4025L34.046 32.2451V36.4964ZM41.8106 61.3843H27.9348L27.984 52.7931H41.7614C41.7909 52.7931 41.8106 52.8128 41.8106 52.8423V61.3843ZM53.9051 54.1216C53.9051 55.0368 53.1572 55.7749 52.2518 55.7749H43.4639V52.8423C43.4639 51.8976 42.6963 51.1398 41.7614 51.1398H40.482C40.423 50.4116 40.5804 49.703 40.8954 49.0732H53.9051V54.1216ZM58.8453 47.4298H42.4994C42.7651 47.2822 43.0505 47.1542 43.3654 47.0755C43.887 46.9377 44.3102 46.5736 44.5267 46.0816C44.7333 45.5993 44.7038 45.0581 44.448 44.5956L35.9847 29.3519C35.7682 28.9484 35.345 28.6925 34.8825 28.6925C34.4101 28.7024 33.987 28.9386 33.7606 29.342L25.2876 44.5956C25.0317 45.0581 25.012 45.6092 25.2187 46.0914C25.4253 46.5834 25.8485 46.9377 26.3701 47.0755C26.685 47.1542 26.9605 47.2822 27.2361 47.4298H10.9C9.98482 47.4298 9.24675 46.6819 9.24675 45.7765V13.2127H14.8561C15.6827 13.2127 16.3618 12.5336 16.3618 11.707V8.92199H24.2838L27.9741 12.7501C28.2595 13.0454 28.6532 13.2127 29.0566 13.2127H60.4986V45.7666C60.4986 46.6819 59.7605 47.4298 58.8453 47.4298Z"></path></mask><path d="M58.8453 1H10.9C9.07945 1 7.59346 2.48599 7.59346 4.30657V9.355H4.30657C2.48599 9.355 1 10.841 1 12.6616V54.1216C1 55.9422 2.48599 57.4282 4.30657 57.4282H26.2815V62.2109C26.2815 62.6636 26.6554 63.0376 27.1081 63.0376H42.6372C43.0899 63.0376 43.4639 62.6636 43.4639 62.2109V57.4282H52.2518C54.0724 57.4282 55.5584 55.9422 55.5584 54.1216V49.0732H58.8453C60.6659 49.0732 62.1519 47.5872 62.1519 45.7666V4.30657C62.1519 2.48599 60.6659 1 58.8453 1ZM9.24675 4.30657C9.24675 3.39136 9.99466 2.65329 10.9 2.65329H58.8453C59.7605 2.65329 60.4986 3.4012 60.4986 4.30657V11.5594H29.1255L25.4352 7.73123C25.1498 7.436 24.7561 7.26871 24.3527 7.26871H16.224C15.3974 7.26871 14.7183 7.94774 14.7183 8.77438V11.5594H9.24675V4.30657ZM4.30657 55.7848C3.39136 55.7848 2.65329 55.0368 2.65329 54.1315V12.6616C2.65329 11.7464 3.4012 11.0083 4.30657 11.0083H7.59346V45.7765C7.59346 47.5971 9.07945 49.0831 10.9 49.0831H28.85C29.1747 49.7129 29.3224 50.4214 29.2633 51.1497H27.984C27.0392 51.1497 26.2815 51.9173 26.2815 52.8521V55.7848H4.30657ZM34.0559 38.4745C34.2232 38.1792 34.5282 37.9923 34.8727 37.9923C35.3844 37.9923 35.7977 38.4056 35.7977 38.9173C35.7977 39.2519 35.6206 39.557 35.3352 39.7243C35.0203 39.9113 34.6463 39.8916 34.2625 39.6751C34.2133 39.6455 34.1641 39.6062 34.1444 39.557C33.8295 39.0551 33.9575 38.6615 34.0559 38.4745ZM34.046 36.4964C33.4457 36.7031 32.934 37.1066 32.6191 37.6774C32.1467 38.5237 32.2058 39.557 32.7569 40.4427C32.934 40.7182 33.1702 40.9446 33.4556 41.1119C33.9083 41.3677 34.4003 41.5055 34.8825 41.5055C35.3352 41.5055 35.778 41.3874 36.1717 41.1611C36.959 40.6985 37.451 39.8424 37.451 38.9272C37.451 37.7954 36.7129 36.8409 35.6993 36.4964V32.2451L43.0112 45.4419C43.0013 45.4517 42.9915 45.4714 42.962 45.4813C40.3738 46.1504 38.6811 48.5713 38.8189 51.1497H30.9363C31.0839 48.5615 29.3814 46.1406 26.744 45.4025L34.046 32.2451V36.4964ZM41.8106 61.3843H27.9348L27.984 52.7931H41.7614C41.7909 52.7931 41.8106 52.8128 41.8106 52.8423V61.3843ZM53.9051 54.1216C53.9051 55.0368 53.1572 55.7749 52.2518 55.7749H43.4639V52.8423C43.4639 51.8976 42.6963 51.1398 41.7614 51.1398H40.482C40.423 50.4116 40.5804 49.703 40.8954 49.0732H53.9051V54.1216ZM58.8453 47.4298H42.4994C42.7651 47.2822 43.0505 47.1542 43.3654 47.0755C43.887 46.9377 44.3102 46.5736 44.5267 46.0816C44.7333 45.5993 44.7038 45.0581 44.448 44.5956L35.9847 29.3519C35.7682 28.9484 35.345 28.6925 34.8825 28.6925C34.4101 28.7024 33.987 28.9386 33.7606 29.342L25.2876 44.5956C25.0317 45.0581 25.012 45.6092 25.2187 46.0914C25.4253 46.5834 25.8485 46.9377 26.3701 47.0755C26.685 47.1542 26.9605 47.2822 27.2361 47.4298H10.9C9.98482 47.4298 9.24675 46.6819 9.24675 45.7765V13.2127H14.8561C15.6827 13.2127 16.3618 12.5336 16.3618 11.707V8.92199H24.2838L27.9741 12.7501C28.2595 13.0454 28.6532 13.2127 29.0566 13.2127H60.4986V45.7666C60.4986 46.6819 59.7605 47.4298 58.8453 47.4298Z" fill="#048DEF"></path><path d="M58.8453 1H10.9C9.07945 1 7.59346 2.48599 7.59346 4.30657V9.355H4.30657C2.48599 9.355 1 10.841 1 12.6616V54.1216C1 55.9422 2.48599 57.4282 4.30657 57.4282H26.2815V62.2109C26.2815 62.6636 26.6554 63.0376 27.1081 63.0376H42.6372C43.0899 63.0376 43.4639 62.6636 43.4639 62.2109V57.4282H52.2518C54.0724 57.4282 55.5584 55.9422 55.5584 54.1216V49.0732H58.8453C60.6659 49.0732 62.1519 47.5872 62.1519 45.7666V4.30657C62.1519 2.48599 60.6659 1 58.8453 1ZM9.24675 4.30657C9.24675 3.39136 9.99466 2.65329 10.9 2.65329H58.8453C59.7605 2.65329 60.4986 3.4012 60.4986 4.30657V11.5594H29.1255L25.4352 7.73123C25.1498 7.436 24.7561 7.26871 24.3527 7.26871H16.224C15.3974 7.26871 14.7183 7.94774 14.7183 8.77438V11.5594H9.24675V4.30657ZM4.30657 55.7848C3.39136 55.7848 2.65329 55.0368 2.65329 54.1315V12.6616C2.65329 11.7464 3.4012 11.0083 4.30657 11.0083H7.59346V45.7765C7.59346 47.5971 9.07945 49.0831 10.9 49.0831H28.85C29.1747 49.7129 29.3224 50.4214 29.2633 51.1497H27.984C27.0392 51.1497 26.2815 51.9173 26.2815 52.8521V55.7848H4.30657ZM34.0559 38.4745C34.2232 38.1792 34.5282 37.9923 34.8727 37.9923C35.3844 37.9923 35.7977 38.4056 35.7977 38.9173C35.7977 39.2519 35.6206 39.557 35.3352 39.7243C35.0203 39.9113 34.6463 39.8916 34.2625 39.6751C34.2133 39.6455 34.1641 39.6062 34.1444 39.557C33.8295 39.0551 33.9575 38.6615 34.0559 38.4745ZM34.046 36.4964C33.4457 36.7031 32.934 37.1066 32.6191 37.6774C32.1467 38.5237 32.2058 39.557 32.7569 40.4427C32.934 40.7182 33.1702 40.9446 33.4556 41.1119C33.9083 41.3677 34.4003 41.5055 34.8825 41.5055C35.3352 41.5055 35.778 41.3874 36.1717 41.1611C36.959 40.6985 37.451 39.8424 37.451 38.9272C37.451 37.7954 36.7129 36.8409 35.6993 36.4964V32.2451L43.0112 45.4419C43.0013 45.4517 42.9915 45.4714 42.962 45.4813C40.3738 46.1504 38.6811 48.5713 38.8189 51.1497H30.9363C31.0839 48.5615 29.3814 46.1406 26.744 45.4025L34.046 32.2451V36.4964ZM41.8106 61.3843H27.9348L27.984 52.7931H41.7614C41.7909 52.7931 41.8106 52.8128 41.8106 52.8423V61.3843ZM53.9051 54.1216C53.9051 55.0368 53.1572 55.7749 52.2518 55.7749H43.4639V52.8423C43.4639 51.8976 42.6963 51.1398 41.7614 51.1398H40.482C40.423 50.4116 40.5804 49.703 40.8954 49.0732H53.9051V54.1216ZM58.8453 47.4298H42.4994C42.7651 47.2822 43.0505 47.1542 43.3654 47.0755C43.887 46.9377 44.3102 46.5736 44.5267 46.0816C44.7333 45.5993 44.7038 45.0581 44.448 44.5956L35.9847 29.3519C35.7682 28.9484 35.345 28.6925 34.8825 28.6925C34.4101 28.7024 33.987 28.9386 33.7606 29.342L25.2876 44.5956C25.0317 45.0581 25.012 45.6092 25.2187 46.0914C25.4253 46.5834 25.8485 46.9377 26.3701 47.0755C26.685 47.1542 26.9605 47.2822 27.2361 47.4298H10.9C9.98482 47.4298 9.24675 46.6819 9.24675 45.7765V13.2127H14.8561C15.6827 13.2127 16.3618 12.5336 16.3618 11.707V8.92199H24.2838L27.9741 12.7501C28.2595 13.0454 28.6532 13.2127 29.0566 13.2127H60.4986V45.7666C60.4986 46.6819 59.7605 47.4298 58.8453 47.4298Z" stroke="#048DEF" stroke-width="0.6" mask="url(#path-2-outside-1_1511_18)"></path><path d="M50.6253 9.58367C51.9973 9.58367 53.1076 8.47337 53.1076 7.10136C53.1076 5.72934 51.9973 4.61904 50.6253 4.61904C49.2533 4.61904 48.143 5.72934 48.143 7.10136C48.143 8.47337 49.2533 9.58367 50.6253 9.58367ZM50.6253 6.58217C50.9164 6.58217 51.1543 6.82008 51.1543 7.1112C51.1543 7.40231 50.9164 7.64023 50.6253 7.64023C50.3243 7.64023 50.0963 7.41215 50.0963 7.1112C50.0963 6.81166 50.3327 6.58217 50.6253 6.58217Z" fill="#048DEF" stroke="#048DEF" stroke-width="0.3"></path><path d="M44.9886 9.58367C46.3606 9.58367 47.4709 8.47337 47.4709 7.10136C47.4709 5.72934 46.3606 4.61904 44.9886 4.61904C43.6166 4.61904 42.5062 5.72934 42.5062 7.10136C42.5062 8.47337 43.6166 9.58367 44.9886 9.58367ZM44.9886 6.58217C45.2797 6.58217 45.5176 6.82008 45.5176 7.1112C45.5176 7.40231 45.2797 7.64023 44.9886 7.64023C44.6876 7.64023 44.4595 7.41215 44.4595 7.1112C44.4595 6.81166 44.696 6.58217 44.9886 6.58217Z" fill="#048DEF" stroke="#048DEF" stroke-width="0.3"></path><path d="M50.6985 20.3099L50.6981 20.3103C50.2239 20.7845 49.9139 21.3763 49.7759 22.0082H38.4856V20.8592C38.4856 19.8907 37.7001 19.1051 36.7316 19.1051H33.0018C32.0333 19.1051 31.2477 19.8907 31.2477 20.8592V22.0082H19.9687C19.8383 21.3838 19.5274 20.7923 19.0462 20.3015L19.0462 20.3015L19.0443 20.2996C17.7357 19.0116 15.5059 19.0318 14.2274 20.3103C13.5792 20.9585 13.2289 21.8135 13.2289 22.7192C13.2289 23.6339 13.5885 24.4987 14.227 25.1276C14.8766 25.7971 15.7422 26.1364 16.6363 26.1364C17.2013 26.1364 17.7757 26.0028 18.3182 25.7264C18.9087 25.426 19.395 24.9292 19.6847 24.3187L19.6851 24.3178C19.7404 24.1992 19.7897 24.0805 19.8329 23.9615H27.1238C23.0369 26.1489 19.9669 29.9966 18.8406 34.6047H17.6794C16.7109 34.6047 15.9253 35.3902 15.9253 36.3588V40.0885C15.9253 41.057 16.7109 41.8426 17.6794 41.8426H21.4092C22.3777 41.8426 23.1632 41.057 23.1632 40.0885V36.3588C23.1632 35.3902 22.3777 34.6047 21.4092 34.6047H20.8576C22.2538 29.6131 26.2553 25.6979 31.2773 24.4166V24.5791C31.2773 25.5476 32.0628 26.3332 33.0314 26.3332H36.7611C37.7296 26.3332 38.5152 25.5476 38.5152 24.5791V24.4167C43.5274 25.6981 47.5289 29.6131 48.9345 34.6047H48.4522C47.4836 34.6047 46.6981 35.3902 46.6981 36.3588V40.0885C46.6981 41.057 47.4836 41.8426 48.4522 41.8426H52.1819C53.1504 41.8426 53.936 41.057 53.936 40.0885V36.3588C53.936 35.3902 53.1504 34.6047 52.1819 34.6047H50.9517C49.8164 29.9976 46.7471 26.1415 42.6696 23.9615H49.9809C50.1474 24.3955 50.4021 24.7924 50.7366 25.1272C51.3862 25.7969 52.2521 26.1364 53.1463 26.1364C53.7114 26.1364 54.2858 26.0028 54.8283 25.7264C55.4188 25.426 55.905 24.9292 56.1948 24.3187C56.8601 22.9163 56.6258 21.3818 55.566 20.3015L55.5661 20.3014L55.5621 20.2976C54.2159 19.0233 51.9879 19.0308 50.6985 20.3099ZM17.4254 23.9824L17.4247 23.9827C16.633 24.3831 15.9655 24.1272 15.6033 23.7474L15.6034 23.7473L15.599 23.7431C15.3241 23.477 15.1724 23.1129 15.1724 22.7192C15.1724 22.337 15.323 21.9708 15.6016 21.6828C15.8784 21.4064 16.2434 21.2552 16.6363 21.2552C17.0204 21.2552 17.3947 21.4072 17.6609 21.6728C18.1236 22.1541 18.2186 22.8228 17.9084 23.4904C17.8035 23.6993 17.6295 23.8803 17.4254 23.9824ZM53.9059 23.9824L53.9053 23.9827C53.1136 24.3831 52.446 24.1272 52.0838 23.7474L52.0839 23.7473L52.0796 23.7431C51.8046 23.477 51.6529 23.1129 51.6529 22.7192C51.6529 22.337 51.8036 21.9708 52.0822 21.6828C52.359 21.4064 52.724 21.2552 53.1168 21.2552C53.5009 21.2552 53.8752 21.4072 54.1414 21.6728C54.6041 22.1541 54.6992 22.8228 54.389 23.4904C54.284 23.6993 54.11 23.8803 53.9059 23.9824ZM21.1923 36.558L21.2374 39.8913L17.8569 39.9365L17.8118 36.558H21.1923ZM51.9552 36.558L52.0004 39.8913L48.6198 39.9365L48.5747 36.558H51.9552ZM33.2085 24.4374L33.1914 23.3633C33.2108 23.2657 33.2105 23.171 33.2019 23.0756C33.2076 23.0616 33.2207 23.0271 33.2207 22.9849C33.2207 22.94 33.2116 22.9024 33.2036 22.8749C33.1978 22.8554 33.1948 22.8466 33.1926 22.8402C33.192 22.8384 33.1914 22.8368 33.1909 22.8352L33.164 21.0683H36.5445L36.5715 22.8412C36.5701 22.8466 36.5685 22.852 36.5665 22.8588C36.5644 22.8658 36.5619 22.8743 36.5587 22.8857C36.5513 22.9124 36.5422 22.9499 36.5422 22.9947C36.5422 23.0327 36.5514 23.0682 36.5592 23.0921C36.5432 23.2227 36.5534 23.345 36.5819 23.4582L36.5986 24.4012L33.2085 24.4374Z" fill="#048DEF" stroke="#048DEF" stroke-width="0.3"></path></svg>