<svg xmlns="http://www.w3.org/2000/svg" width="62" height="62" viewBox="0 0 62 62" fill="none"><mask id="mask0_1656_66" style="mask-type:luminance" maskUnits="userSpaceOnUse" x="0" y="0" width="62" height="62"><path d="M0 0H62V62H0V0Z" fill="white"></path></mask><g mask="url(#mask0_1656_66)"><path d="M1.20312 18.809H20.2021H56.3636" stroke="#048DEF" stroke-width="2" stroke-miterlimit="10" stroke-linecap="round" stroke-linejoin="round"></path><path d="M11.3218 13.656C12.9076 13.656 14.2016 12.3661 14.2016 10.7811C14.2016 9.19612 12.9076 7.90623 11.3218 7.90623C9.73944 7.90623 8.44531 9.19612 8.44531 10.7811C8.44531 12.3661 9.73944 13.656 11.3218 13.656Z" stroke="#048DEF" stroke-width="2" stroke-miterlimit="10" stroke-linecap="round" stroke-linejoin="round"></path><path d="M36.3218 7.90623H47.1548C48.7372 7.90623 50.0313 9.19963 50.0313 10.7811C50.0313 12.3627 48.7372 13.656 47.1548 13.656H36.3218C34.7394 13.656 33.4453 12.3627 33.4453 10.7811C33.4453 9.19963 34.7394 7.90623 36.3218 7.90623Z" stroke="#048DEF" stroke-width="2" stroke-miterlimit="10" stroke-linecap="round" stroke-linejoin="round"></path><path d="M21.9351 13.6561C23.5209 13.6561 24.8149 12.3662 24.8149 10.7812C24.8149 9.19624 23.5209 7.90635 21.9351 7.90635C20.3527 7.90635 19.0586 9.19624 19.0586 10.7812C19.0586 12.3662 20.3527 13.6561 21.9351 13.6561Z" stroke="#048DEF" stroke-width="2" stroke-miterlimit="10" stroke-linecap="round" stroke-linejoin="round"></path><path d="M19.6656 28.1232L17.2422 38.2644" stroke="#048DEF" stroke-width="2" stroke-miterlimit="10" stroke-linecap="round" stroke-linejoin="round"></path><path d="M25.2461 37.3486L28.6751 33.4993C28.8261 33.3312 28.8261 33.0568 28.6751 32.8887L25.2461 29.0394" stroke="#048DEF" stroke-width="2" stroke-miterlimit="10" stroke-linecap="round" stroke-linejoin="round"></path><path d="M11.6556 37.3486L8.22663 33.4993C8.0755 33.3312 8.0755 33.0568 8.22663 32.8887L11.6556 29.0394" stroke="#048DEF" stroke-width="2" stroke-miterlimit="10" stroke-linecap="round" stroke-linejoin="round"></path><path d="M48.9797 33.4752C50.3046 33.7703 51.5437 34.2917 52.6594 34.9915L53.6514 34.0035C54.2383 33.4134 55.2028 33.4134 55.7933 34.0035L57.355 35.5645C57.9453 36.1546 57.9453 37.1186 57.355 37.7053L56.3664 38.6967C57.0633 39.8015 57.5781 41.0297 57.8768 42.3402H59.2668C60.1011 42.3402 60.784 43.0229 60.784 43.8531V46.066C60.784 46.8961 60.1011 47.5788 59.2668 47.5788H57.8699C57.5712 48.8825 57.0564 50.1039 56.3664 51.2017L57.355 52.1897C57.9453 52.7798 57.9453 53.7438 57.355 54.3305L55.7933 55.8949C55.2028 56.485 54.2383 56.485 53.6514 55.8949L52.6594 54.9068C51.5575 55.5998 50.3321 56.1145 49.0209 56.413V57.8195C49.0209 58.6532 48.3378 59.3359 47.5072 59.3359H45.2932C44.4624 59.3359 43.7794 58.6532 43.7794 57.8195V56.4096C42.475 56.1145 41.2497 55.5964 40.1477 54.9068L39.1592 55.8949C38.5688 56.485 37.6044 56.485 37.0173 55.8949L35.4522 54.3305C34.8651 53.7438 34.8651 52.7798 35.4522 52.1897L36.4441 51.2017C35.7508 50.1039 35.2359 48.8825 34.9373 47.5788H33.5333C32.6994 47.5788 32.0195 46.8961 32.0195 46.066V43.8531C32.0195 43.0229 32.6994 42.3402 33.5333 42.3402H34.9339C35.229 41.0434 35.7371 39.8289 36.4201 38.7345L35.4247 37.7362C34.8344 37.1495 34.8344 36.1855 35.4247 35.5954L36.9864 34.0344C37.5769 33.4443 38.5414 33.4443 39.1283 34.0344L40.1134 35.0156C41.212 34.3192 42.4338 33.801 43.7383 33.4957V32.0995C43.7383 31.2658 44.4178 30.5831 45.2519 30.5831H47.4625C48.2966 30.5831 48.9797 31.2658 48.9797 32.0995V33.4752Z" stroke="#048DEF" stroke-width="2" stroke-miterlimit="10" stroke-linecap="round" stroke-linejoin="round"></path><path d="M46.404 38.7206C49.8502 38.7206 52.6443 41.5133 52.6443 44.9611C52.6443 48.4056 49.8502 51.1981 46.404 51.1981C42.9544 51.1981 40.1602 48.4056 40.1602 44.9611C40.1602 41.5133 42.9544 38.7206 46.404 38.7206Z" stroke="#048DEF" stroke-width="2" stroke-miterlimit="10" stroke-linecap="round" stroke-linejoin="round"></path><path d="M12.8806 47.5789H5.71338C3.23532 47.5789 1.20312 45.1535 1.20312 42.1927V8.05022C1.20312 5.08621 3.23169 2.66409 5.71338 2.66409H10.9377H51.8534C54.3351 2.66409 56.3636 5.0896 56.3636 8.05022V34.5765M33.5306 47.5789H23.7033" stroke="#048DEF" stroke-width="2" stroke-miterlimit="10" stroke-linecap="round" stroke-linejoin="round"></path><path d="M18.3047 47.5789H18.3287" stroke="#048DEF" stroke-width="2" stroke-miterlimit="10" stroke-linecap="round" stroke-linejoin="round"></path></g></svg>