<svg xmlns="http://www.w3.org/2000/svg" width="62" height="63" viewBox="0 0 62 63" fill="none"><path d="M52.6974 41.3333C53.2681 41.3333 53.7307 40.8706 53.7307 40.2999V39.2666C53.7307 38.6959 53.2681 38.2333 52.6974 38.2333C52.1267 38.2333 51.6641 38.6959 51.6641 39.2666V40.2999C51.6641 40.8706 52.1267 41.3333 52.6974 41.3333Z" fill="#0369CA"></path><path d="M50.637 41.3334H49.6036C49.033 41.3334 48.5703 41.796 48.5703 42.3667C48.5703 42.9374 49.033 43.4 49.6036 43.4H50.637C51.2077 43.4 51.6703 42.9374 51.6703 42.3667C51.6703 41.796 51.2077 41.3334 50.637 41.3334Z" fill="#0369CA"></path><path d="M52.6974 43.4C52.1267 43.4 51.6641 43.8627 51.6641 44.4334V45.4667C51.6641 46.0374 52.1267 46.5 52.6974 46.5C53.2681 46.5 53.7307 46.0374 53.7307 45.4667V44.4334C53.7307 43.8627 53.2681 43.4 52.6974 43.4Z" fill="#0369CA"></path><path d="M56.8344 42.3667C56.8344 41.796 56.3717 41.3334 55.801 41.3334H54.7677C54.197 41.3334 53.7344 41.796 53.7344 42.3667C53.7344 42.9374 54.197 43.4 54.7677 43.4H55.801C56.3717 43.4 56.8344 42.9374 56.8344 42.3667Z" fill="#0369CA"></path><path d="M35.1318 41.3333H33.0651V39.2666C33.0651 38.6959 32.6025 38.2333 32.0318 38.2333C31.4611 38.2333 30.9984 38.6959 30.9984 39.2666V41.3333H28.9318C28.3611 41.3333 27.8984 41.7959 27.8984 42.3666C27.8984 42.9373 28.3611 43.3999 28.9318 43.3999H30.9984V45.4666C30.9984 46.0373 31.4611 46.4999 32.0318 46.4999C32.6025 46.4999 33.0651 46.0373 33.0651 45.4666V43.3999H35.1318C35.7025 43.3999 36.1651 42.9373 36.1651 42.3666C36.1651 41.7959 35.7025 41.3333 35.1318 41.3333Z" fill="#0369CA"></path><path d="M40.301 45.4667H39.2677C38.697 45.4667 38.2344 45.9293 38.2344 46.5C38.2344 47.0707 38.697 47.5333 39.2677 47.5333H40.301C40.8717 47.5333 41.3344 47.0707 41.3344 46.5C41.3344 45.9293 40.8717 45.4667 40.301 45.4667Z" fill="#0369CA"></path><path d="M45.4651 45.4667H44.4318C43.8611 45.4667 43.3984 45.9293 43.3984 46.5C43.3984 47.0707 43.8611 47.5333 44.4318 47.5333H45.4651C46.0358 47.5333 46.4984 47.0707 46.4984 46.5C46.4984 45.9293 46.0358 45.4667 45.4651 45.4667Z" fill="#0369CA"></path><path d="M61.9804 42.2716C61.8439 37.6141 58.352 33.742 53.7333 33.1266V5.16667C53.7299 2.31461 51.4187 0.00341632 48.5667 0H5.16667C2.31461 0.00341632 0.00341632 2.31461 0 5.16667V51.6667C0.00341632 54.5187 2.31461 56.8299 5.16667 56.8333H22.7747C22.9695 59.7508 25.3997 62.0136 28.3237 62C30.3489 61.9966 32.2149 60.9012 33.2051 59.1346L34.4865 56.8333H48.5667C49.0909 56.8305 49.6115 56.7472 50.1105 56.5864L51.5303 59.1366C52.7709 61.3591 55.3564 62.4628 57.8195 61.8212C60.2826 61.1797 62.0012 58.955 62 56.4097V42.6663C62 42.6085 61.9928 42.5527 61.9917 42.4958C61.9907 42.439 62 42.409 62 42.3667C61.995 42.3347 61.9885 42.3029 61.9804 42.2716ZM5.16667 2.06667H48.5667C50.2787 2.06667 51.6667 3.45458 51.6667 5.16667V8.26667H2.06667V5.16667C2.06667 3.45458 3.45458 2.06667 5.16667 2.06667ZM2.06667 51.6667V10.3333H51.6667V33.1245C49.3936 33.3718 47.294 34.4562 45.7767 36.1667H38.967C37.1874 34.1734 34.6351 33.0437 31.9631 33.0667C26.936 33.2 22.8921 37.2435 22.7581 42.2706C22.7581 42.3036 22.7385 42.3326 22.7385 42.3667C22.7385 42.4008 22.7468 42.4514 22.7468 42.4938C22.7468 42.5516 22.7385 42.6085 22.7385 42.6663V54.7667H5.16667C3.45458 54.7667 2.06667 53.3788 2.06667 51.6667ZM48.5667 54.7667H35.6366L37.0677 52.1978C37.2499 51.8703 37.5951 51.667 37.9698 51.6667H46.7635C47.1383 51.667 47.4835 51.8703 47.6656 52.1978L49.0616 54.7036C48.8986 54.7381 48.7331 54.7592 48.5667 54.7667ZM59.9333 56.4097C59.933 58.0132 58.8499 59.4143 57.2982 59.8187C55.7464 60.223 54.1173 59.5286 53.3345 58.1291L49.4719 51.1924C48.9248 50.2095 47.8883 49.6001 46.7635 49.6H37.9698C36.845 49.6001 35.8085 50.2095 35.2615 51.1924L31.4009 58.126C30.6204 59.529 28.99 60.2267 27.4362 59.8227C25.8823 59.4187 24.7983 58.0152 24.8 56.4097V48.1885C25.5149 49.0882 26.3909 49.8472 27.3833 50.4267C27.8752 50.6914 28.4884 50.5173 28.7678 50.0336C29.0472 49.55 28.8917 48.9318 28.4167 48.638C26.2228 47.363 24.8542 45.0349 24.8072 42.4979C24.8231 38.5139 27.9913 35.258 31.9734 35.1333H32.0333C35.3266 35.149 38.1992 37.3737 39.0383 40.5583C39.1561 41.0145 39.5675 41.3332 40.0386 41.3333C40.1267 41.3335 40.2145 41.3227 40.3 41.3013C40.5657 41.233 40.7933 41.0618 40.9326 40.8255C41.072 40.5892 41.1117 40.3072 41.043 40.0417C40.8761 39.4166 40.6448 38.8106 40.3527 38.2333H44.3827C44.0913 38.8107 43.8607 39.4167 43.6945 40.0417C43.5511 40.5935 43.8817 41.1571 44.4333 41.3013C44.5181 41.3226 44.6053 41.3333 44.6927 41.3333C45.1638 41.3332 45.5752 41.0145 45.693 40.5583C46.5322 37.3729 49.4059 35.1481 52.7 35.1333H52.7599C56.7395 35.2579 59.9064 38.5102 59.9251 42.4917C59.879 45.0289 58.5107 47.3577 56.3167 48.6328C55.985 48.8113 55.7767 49.156 55.7731 49.5326C55.7694 49.9092 55.9709 50.258 56.2989 50.4429C56.627 50.6279 57.0297 50.6196 57.35 50.4215C58.342 49.8436 59.218 49.0864 59.9333 48.1885V56.4097Z" fill="#0369CA"></path><path d="M5.16615 6.19997H6.19948C6.77017 6.19997 7.23281 5.73733 7.23281 5.16663C7.23281 4.59594 6.77017 4.1333 6.19948 4.1333H5.16615C4.59545 4.1333 4.13281 4.59594 4.13281 5.16663C4.13281 5.73733 4.59545 6.19997 5.16615 6.19997Z" fill="#0369CA"></path><path d="M10.338 6.19997H11.3714C11.942 6.19997 12.4047 5.73733 12.4047 5.16663C12.4047 4.59594 11.942 4.1333 11.3714 4.1333H10.338C9.76733 4.1333 9.30469 4.59594 9.30469 5.16663C9.30469 5.73733 9.76733 6.19997 10.338 6.19997Z" fill="#0369CA"></path><path d="M15.5021 6.19997H16.5354C17.1061 6.19997 17.5688 5.73733 17.5688 5.16663C17.5688 4.59594 17.1061 4.1333 16.5354 4.1333H15.5021C14.9314 4.1333 14.4688 4.59594 14.4688 5.16663C14.4688 5.73733 14.9314 6.19997 15.5021 6.19997Z" fill="#0369CA"></path><path d="M43.4005 6.19997H48.5672C49.1379 6.19997 49.6005 5.73733 49.6005 5.16663C49.6005 4.59594 49.1379 4.1333 48.5672 4.1333H43.4005C42.8298 4.1333 42.3672 4.59594 42.3672 5.16663C42.3672 5.73733 42.8298 6.19997 43.4005 6.19997Z" fill="#0369CA"></path><path d="M20.3642 14.7693C19.9607 14.3659 19.3066 14.3659 18.9031 14.7693L11.6697 22.0027C11.2663 22.4062 11.2663 23.0603 11.6697 23.4638L18.9031 30.6971C19.3085 31.0887 19.953 31.0831 20.3516 30.6846C20.7502 30.286 20.7558 29.6415 20.3642 29.236L13.8614 22.7332L20.3642 16.2305C20.7676 15.827 20.7676 15.1729 20.3642 14.7693Z" fill="#0369CA"></path><path d="M33.3729 30.6972C33.7764 31.1006 34.4305 31.1006 34.834 30.6972L42.0673 23.4639C42.4707 23.0604 42.4707 22.4063 42.0673 22.0028L34.834 14.7694C34.4285 14.3778 33.784 14.3834 33.3854 14.782C32.9869 15.1806 32.9813 15.8251 33.3729 16.2306L39.8756 22.7333L33.3729 29.2361C32.9695 29.6396 32.9695 30.2937 33.3729 30.6972Z" fill="#0369CA"></path><path d="M23.3607 30.9163C23.8852 31.1411 24.4926 30.8983 24.7175 30.3738L30.9175 15.9072C31.1327 15.3848 30.8885 14.7864 30.3692 14.5638C29.85 14.3412 29.2482 14.5769 29.0182 15.0929L22.8182 29.5596C22.5934 30.084 22.8363 30.6914 23.3607 30.9163Z" fill="#0369CA"></path></svg>