<svg xmlns="http://www.w3.org/2000/svg" width="62" height="62" viewBox="0 0 62 62" fill="none"><path d="M51.9961 41.0998C52.6036 41.0998 53.0961 40.6073 53.0961 39.9998V38.9998C53.0961 38.3922 52.6036 37.8998 51.9961 37.8998C51.3886 37.8998 50.8961 38.3922 50.8961 38.9998V39.9998C50.8961 40.6073 51.3886 41.0998 51.9961 41.0998Z" fill="#048DEF" stroke="#048DEF" stroke-width="0.2"></path><path d="M49.9961 40.9H48.9961C48.3886 40.9 47.8961 41.3925 47.8961 42C47.8961 42.6075 48.3886 43.1 48.9961 43.1H49.9961C50.6036 43.1 51.0961 42.6075 51.0961 42C51.0961 41.3925 50.6036 40.9 49.9961 40.9Z" fill="#048DEF" stroke="#048DEF" stroke-width="0.2"></path><path d="M51.9961 42.8999C51.3886 42.8999 50.8961 43.3924 50.8961 43.9999V44.9999C50.8961 45.6074 51.3886 46.0999 51.9961 46.0999C52.6036 46.0999 53.0961 45.6074 53.0961 44.9999V43.9999C53.0961 43.3924 52.6036 42.8999 51.9961 42.8999Z" fill="#048DEF" stroke="#048DEF" stroke-width="0.2"></path><path d="M56.1078 42C56.1078 41.3925 55.6153 40.9 55.0078 40.9H54.0078C53.4003 40.9 52.9078 41.3925 52.9078 42C52.9078 42.6075 53.4003 43.1 54.0078 43.1H55.0078C55.6153 43.1 56.1078 42.6075 56.1078 42Z" fill="#048DEF" stroke="#048DEF" stroke-width="0.2"></path><path d="M35 40.8998H33.1V38.9998C33.1 38.3922 32.6075 37.8998 32 37.8998C31.3925 37.8998 30.9 38.3922 30.9 38.9998V40.8998H29C28.3925 40.8998 27.9 41.3922 27.9 41.9998C27.9 42.6073 28.3925 43.0998 29 43.0998H30.9V44.9998C30.9 45.6073 31.3925 46.0998 32 46.0998C32.6075 46.0998 33.1 45.6073 33.1 44.9998V43.0998H35C35.6075 43.0998 36.1 42.6073 36.1 41.9998C36.1 41.3922 35.6075 40.8998 35 40.8998Z" fill="#048DEF" stroke="#048DEF" stroke-width="0.2"></path><path d="M40 44.9004H39C38.3925 44.9004 37.9 45.3929 37.9 46.0004C37.9 46.6079 38.3925 47.1004 39 47.1004H40C40.6075 47.1004 41.1 46.6079 41.1 46.0004C41.1 45.3929 40.6075 44.9004 40 44.9004Z" fill="#048DEF" stroke="#048DEF" stroke-width="0.2"></path><path d="M44.9883 44.9004H43.9883C43.3808 44.9004 42.8883 45.3929 42.8883 46.0004C42.8883 46.6079 43.3808 47.1004 43.9883 47.1004H44.9883C45.5958 47.1004 46.0883 46.6079 46.0883 46.0004C46.0883 45.3929 45.5958 44.9004 44.9883 44.9004Z" fill="#048DEF" stroke="#048DEF" stroke-width="0.2"></path><mask id="path-8-outside-1_1590_193" maskUnits="userSpaceOnUse" x="0" y="0" width="62" height="62" fill="black"><rect fill="white" width="62" height="62"></rect><path d="M60.981 41.908C60.849 37.4008 57.4697 33.6535 53 33.058V5C53 2.79086 51.2091 1 49 1H5C2.79086 1 1 2.79086 1 5V45C1 47.2091 2.79086 49 5 49H17V51.465L11.445 55.165C11.166 55.3511 10.9989 55.6647 11 56V59C11 60.1046 11.8954 61 13 61H41C42.1046 61 43 60.1046 43 59V56C43.0002 55.6513 42.8186 55.3277 42.521 55.146L36.798 51.646L36.872 51.514C37.0483 51.197 37.3823 51.0003 37.745 51H46.255C46.6177 51.0003 46.9517 51.197 47.128 51.514L50.868 58.229C52.0686 60.3798 54.5707 61.4478 56.9544 60.827C59.338 60.2061 61.0012 58.0532 61 55.59V42.29C61 42.234 60.993 42.18 60.992 42.125C60.991 42.07 61 42.041 61 42C60.9952 41.969 60.9889 41.9383 60.981 41.908ZM5 3H49C50.1046 3 51 3.89543 51 5V33.056C48.8003 33.2953 46.7684 34.3447 45.3 36H38.71C36.6065 33.6294 33.4037 32.5519 30.2951 33.1691C27.1865 33.7863 24.6383 36.0056 23.6 39H3V5C3 3.89543 3.89543 3 5 3ZM23 55H15.3L18.3 53H23V55ZM3 45V41H23.1C23.059 41.3 23.033 41.6 23.021 41.907C23.021 41.939 23.002 41.967 23.002 42C23.002 42.033 23.01 42.081 23.01 42.123C23.01 42.165 23 42.234 23 42.29V47H5C3.89543 47 3 46.1046 3 45ZM23 49V51H19V49H23ZM13 57H18.104H23.208C23.4052 57.7327 23.7571 58.4147 24.24 59H13V57ZM32.6 59C32.8013 58.7581 32.9817 58.4995 33.139 58.227L33.817 57H41V59H32.6ZM38.453 55H34.931L35.824 53.4L38.453 55ZM59 55.59C58.9996 57.1418 57.9515 58.4977 56.4498 58.889C54.9481 59.2803 53.3716 58.6083 52.614 57.254L48.876 50.541C48.3466 49.5899 47.3435 49.0001 46.255 49H37.745C36.6565 49.0001 35.6534 49.5899 35.124 50.541L31.388 57.251C30.6326 58.6087 29.0548 59.2839 27.5511 58.8929C26.0474 58.5019 24.9983 57.1437 25 55.59V47.633C25.6919 48.504 26.5396 49.2388 27.5 49.8C27.6516 49.8889 27.8243 49.9355 28 49.935C28.4526 49.935 28.8487 49.631 28.9659 49.1938C29.083 48.7567 28.8919 48.2953 28.5 48.069C26.3778 46.8345 25.0539 44.5817 25.008 42.127C25.0233 38.2718 28.0887 35.1211 31.942 35C34.0459 34.9646 36.0494 35.8977 37.376 37.531C38.0377 38.3228 38.5158 39.2514 38.776 40.25C38.89 40.6914 39.2881 40.9999 39.744 41C39.8303 41.0004 39.9163 40.99 40 40.969C40.2571 40.9029 40.4774 40.7372 40.6122 40.5086C40.7471 40.2799 40.7855 40.007 40.719 39.75C40.5576 39.1451 40.3337 38.5586 40.051 38H43.951C43.669 38.5587 43.4458 39.1452 43.285 39.75C43.1462 40.284 43.4662 40.8295 44 40.969C44.0821 40.9896 44.1664 41 44.251 41C44.7069 40.9999 45.105 40.6914 45.219 40.25C46.0312 37.1674 48.8122 35.0143 52 35H52.058C55.9092 35.1205 58.974 38.268 58.992 42.121C58.9475 44.5764 57.6233 46.83 55.5 48.064C55.1791 48.2367 54.9775 48.5703 54.9739 48.9348C54.9704 49.2992 55.1653 49.6368 55.4828 49.8157C55.8003 49.9947 56.1901 49.9867 56.5 49.795C57.46 49.2357 58.3077 48.503 59 47.634V55.59Z"></path></mask><path d="M60.981 41.908C60.849 37.4008 57.4697 33.6535 53 33.058V5C53 2.79086 51.2091 1 49 1H5C2.79086 1 1 2.79086 1 5V45C1 47.2091 2.79086 49 5 49H17V51.465L11.445 55.165C11.166 55.3511 10.9989 55.6647 11 56V59C11 60.1046 11.8954 61 13 61H41C42.1046 61 43 60.1046 43 59V56C43.0002 55.6513 42.8186 55.3277 42.521 55.146L36.798 51.646L36.872 51.514C37.0483 51.197 37.3823 51.0003 37.745 51H46.255C46.6177 51.0003 46.9517 51.197 47.128 51.514L50.868 58.229C52.0686 60.3798 54.5707 61.4478 56.9544 60.827C59.338 60.2061 61.0012 58.0532 61 55.59V42.29C61 42.234 60.993 42.18 60.992 42.125C60.991 42.07 61 42.041 61 42C60.9952 41.969 60.9889 41.9383 60.981 41.908ZM5 3H49C50.1046 3 51 3.89543 51 5V33.056C48.8003 33.2953 46.7684 34.3447 45.3 36H38.71C36.6065 33.6294 33.4037 32.5519 30.2951 33.1691C27.1865 33.7863 24.6383 36.0056 23.6 39H3V5C3 3.89543 3.89543 3 5 3ZM23 55H15.3L18.3 53H23V55ZM3 45V41H23.1C23.059 41.3 23.033 41.6 23.021 41.907C23.021 41.939 23.002 41.967 23.002 42C23.002 42.033 23.01 42.081 23.01 42.123C23.01 42.165 23 42.234 23 42.29V47H5C3.89543 47 3 46.1046 3 45ZM23 49V51H19V49H23ZM13 57H18.104H23.208C23.4052 57.7327 23.7571 58.4147 24.24 59H13V57ZM32.6 59C32.8013 58.7581 32.9817 58.4995 33.139 58.227L33.817 57H41V59H32.6ZM38.453 55H34.931L35.824 53.4L38.453 55ZM59 55.59C58.9996 57.1418 57.9515 58.4977 56.4498 58.889C54.9481 59.2803 53.3716 58.6083 52.614 57.254L48.876 50.541C48.3466 49.5899 47.3435 49.0001 46.255 49H37.745C36.6565 49.0001 35.6534 49.5899 35.124 50.541L31.388 57.251C30.6326 58.6087 29.0548 59.2839 27.5511 58.8929C26.0474 58.5019 24.9983 57.1437 25 55.59V47.633C25.6919 48.504 26.5396 49.2388 27.5 49.8C27.6516 49.8889 27.8243 49.9355 28 49.935C28.4526 49.935 28.8487 49.631 28.9659 49.1938C29.083 48.7567 28.8919 48.2953 28.5 48.069C26.3778 46.8345 25.0539 44.5817 25.008 42.127C25.0233 38.2718 28.0887 35.1211 31.942 35C34.0459 34.9646 36.0494 35.8977 37.376 37.531C38.0377 38.3228 38.5158 39.2514 38.776 40.25C38.89 40.6914 39.2881 40.9999 39.744 41C39.8303 41.0004 39.9163 40.99 40 40.969C40.2571 40.9029 40.4774 40.7372 40.6122 40.5086C40.7471 40.2799 40.7855 40.007 40.719 39.75C40.5576 39.1451 40.3337 38.5586 40.051 38H43.951C43.669 38.5587 43.4458 39.1452 43.285 39.75C43.1462 40.284 43.4662 40.8295 44 40.969C44.0821 40.9896 44.1664 41 44.251 41C44.7069 40.9999 45.105 40.6914 45.219 40.25C46.0312 37.1674 48.8122 35.0143 52 35H52.058C55.9092 35.1205 58.974 38.268 58.992 42.121C58.9475 44.5764 57.6233 46.83 55.5 48.064C55.1791 48.2367 54.9775 48.5703 54.9739 48.9348C54.9704 49.2992 55.1653 49.6368 55.4828 49.8157C55.8003 49.9947 56.1901 49.9867 56.5 49.795C57.46 49.2357 58.3077 48.503 59 47.634V55.59Z" fill="#048DEF"></path><path d="M60.981 41.908C60.849 37.4008 57.4697 33.6535 53 33.058V5C53 2.79086 51.2091 1 49 1H5C2.79086 1 1 2.79086 1 5V45C1 47.2091 2.79086 49 5 49H17V51.465L11.445 55.165C11.166 55.3511 10.9989 55.6647 11 56V59C11 60.1046 11.8954 61 13 61H41C42.1046 61 43 60.1046 43 59V56C43.0002 55.6513 42.8186 55.3277 42.521 55.146L36.798 51.646L36.872 51.514C37.0483 51.197 37.3823 51.0003 37.745 51H46.255C46.6177 51.0003 46.9517 51.197 47.128 51.514L50.868 58.229C52.0686 60.3798 54.5707 61.4478 56.9544 60.827C59.338 60.2061 61.0012 58.0532 61 55.59V42.29C61 42.234 60.993 42.18 60.992 42.125C60.991 42.07 61 42.041 61 42C60.9952 41.969 60.9889 41.9383 60.981 41.908ZM5 3H49C50.1046 3 51 3.89543 51 5V33.056C48.8003 33.2953 46.7684 34.3447 45.3 36H38.71C36.6065 33.6294 33.4037 32.5519 30.2951 33.1691C27.1865 33.7863 24.6383 36.0056 23.6 39H3V5C3 3.89543 3.89543 3 5 3ZM23 55H15.3L18.3 53H23V55ZM3 45V41H23.1C23.059 41.3 23.033 41.6 23.021 41.907C23.021 41.939 23.002 41.967 23.002 42C23.002 42.033 23.01 42.081 23.01 42.123C23.01 42.165 23 42.234 23 42.29V47H5C3.89543 47 3 46.1046 3 45ZM23 49V51H19V49H23ZM13 57H18.104H23.208C23.4052 57.7327 23.7571 58.4147 24.24 59H13V57ZM32.6 59C32.8013 58.7581 32.9817 58.4995 33.139 58.227L33.817 57H41V59H32.6ZM38.453 55H34.931L35.824 53.4L38.453 55ZM59 55.59C58.9996 57.1418 57.9515 58.4977 56.4498 58.889C54.9481 59.2803 53.3716 58.6083 52.614 57.254L48.876 50.541C48.3466 49.5899 47.3435 49.0001 46.255 49H37.745C36.6565 49.0001 35.6534 49.5899 35.124 50.541L31.388 57.251C30.6326 58.6087 29.0548 59.2839 27.5511 58.8929C26.0474 58.5019 24.9983 57.1437 25 55.59V47.633C25.6919 48.504 26.5396 49.2388 27.5 49.8C27.6516 49.8889 27.8243 49.9355 28 49.935C28.4526 49.935 28.8487 49.631 28.9659 49.1938C29.083 48.7567 28.8919 48.2953 28.5 48.069C26.3778 46.8345 25.0539 44.5817 25.008 42.127C25.0233 38.2718 28.0887 35.1211 31.942 35C34.0459 34.9646 36.0494 35.8977 37.376 37.531C38.0377 38.3228 38.5158 39.2514 38.776 40.25C38.89 40.6914 39.2881 40.9999 39.744 41C39.8303 41.0004 39.9163 40.99 40 40.969C40.2571 40.9029 40.4774 40.7372 40.6122 40.5086C40.7471 40.2799 40.7855 40.007 40.719 39.75C40.5576 39.1451 40.3337 38.5586 40.051 38H43.951C43.669 38.5587 43.4458 39.1452 43.285 39.75C43.1462 40.284 43.4662 40.8295 44 40.969C44.0821 40.9896 44.1664 41 44.251 41C44.7069 40.9999 45.105 40.6914 45.219 40.25C46.0312 37.1674 48.8122 35.0143 52 35H52.058C55.9092 35.1205 58.974 38.268 58.992 42.121C58.9475 44.5764 57.6233 46.83 55.5 48.064C55.1791 48.2367 54.9775 48.5703 54.9739 48.9348C54.9704 49.2992 55.1653 49.6368 55.4828 49.8157C55.8003 49.9947 56.1901 49.9867 56.5 49.795C57.46 49.2357 58.3077 48.503 59 47.634V55.59Z" stroke="#048DEF" stroke-width="0.4" mask="url(#path-8-outside-1_1590_193)"></path><path d="M19.2299 28.7776L19.2311 28.7789C19.6627 29.1957 20.3488 29.1898 20.7731 28.7654C21.1974 28.3411 21.2034 27.6551 20.7865 27.2234L20.7853 27.2222L13.563 19.9999L20.7853 12.7776L20.7853 12.7776L20.7865 12.7764C21.2034 12.3448 21.1974 11.6587 20.7731 11.2344C20.3488 10.8101 19.6627 10.8041 19.2311 11.221L19.2299 11.2222L11.2299 19.2222L11.2299 19.2222C10.8005 19.6518 10.8005 20.3481 11.2299 20.7776L11.2299 20.7776L19.2299 28.7776Z" fill="#048DEF" stroke="#048DEF" stroke-width="0.2"></path><path d="M34.7658 28.7776L34.7658 28.7776L42.7658 20.7776L42.7658 20.7776C43.1952 20.3481 43.1952 19.6518 42.7658 19.2222L42.7658 19.2222L34.7658 11.2222L34.7658 11.2222L34.7645 11.221C34.3329 10.8041 33.6468 10.8101 33.2225 11.2344C32.7982 11.6587 32.7923 12.3448 33.2091 12.7764L33.2091 12.7764L33.2104 12.7776L40.4326 19.9999L33.2104 27.2222L33.2103 27.2222C32.7809 27.6518 32.7809 28.3481 33.2103 28.7776L33.2104 28.7776C33.6399 29.2071 34.3362 29.2071 34.7658 28.7776Z" fill="#048DEF" stroke="#048DEF" stroke-width="0.2"></path><path d="M23.6143 29.0306L23.6149 29.0309C23.7383 29.0761 23.8686 29.0995 24 29.1H24.0003C24.4591 29.1003 24.87 28.8157 25.031 28.3861L31.031 12.3861L31.031 12.386C31.1686 12.0178 31.0992 11.6041 30.8491 11.3009C30.599 10.9977 30.2061 10.8509 29.8184 10.9159C29.4308 10.9809 29.1072 11.2478 28.9697 11.616L22.9697 27.6159L22.9697 27.616C22.7575 28.1846 23.046 28.8177 23.6143 29.0306Z" fill="#048DEF" stroke="#048DEF" stroke-width="0.2"></path></svg>