<svg xmlns="http://www.w3.org/2000/svg" width="62" height="62" viewBox="0 0 62 62" fill="none"><path d="M46.5501 42.3085C46.6985 42.1601 46.7965 41.9688 46.8301 41.7616C46.8638 41.5544 46.8314 41.3419 46.7376 41.1542L45.27 38.2186C45.6321 37.4981 45.9392 36.7512 46.1889 35.9845L49.3095 34.9446C49.5086 34.8782 49.6818 34.7509 49.8045 34.5806C49.9272 34.4104 49.9932 34.2058 49.9932 33.9959V31.9462C53.345 31.691 56.4674 30.1467 58.7044 27.6376C60.9414 25.1286 62.1189 21.8502 61.9895 18.4912C61.86 15.1322 60.4337 11.9541 58.0103 9.62467C55.5868 7.29523 52.3548 5.99576 48.9933 5.99928H27.4099L28.7026 4.70643L27.2888 3.2926L24.2891 6.29225C24.1017 6.47975 23.9964 6.73403 23.9964 6.99916C23.9964 7.26429 24.1017 7.51857 24.2891 7.70608L27.2888 10.7057L28.7026 9.29189L27.4099 7.99904H48.9933C51.8245 7.99674 54.5476 9.08658 56.5954 11.0417C58.6432 12.9967 59.8581 15.6664 59.9869 18.4947C60.1158 21.323 59.1487 24.092 57.2871 26.2252C55.4256 28.3584 52.8129 29.6913 49.9932 29.9464V27.9967C49.9932 27.7868 49.9272 27.5823 49.8045 27.412C49.6818 27.2418 49.5087 27.1144 49.3096 27.048L46.189 26.0081C45.9394 25.2414 45.6322 24.4946 45.2701 23.774L46.7377 20.8384C46.8315 20.6507 46.8639 20.4382 46.8303 20.231C46.7966 20.0238 46.6986 19.8325 46.5502 19.6842L42.3076 15.442C42.1591 15.2938 41.9678 15.196 41.7607 15.1624C41.5537 15.1287 41.3412 15.161 41.1535 15.2546L38.2182 16.7221C37.4979 16.3594 36.751 16.0519 35.9841 15.8024L34.9432 12.6821C34.877 12.483 34.7498 12.3099 34.5796 12.1872C34.4094 12.0645 34.2049 11.9985 33.9951 11.9986H27.9958C27.786 11.9985 27.5815 12.0645 27.4113 12.1872C27.2411 12.3099 27.1139 12.483 27.0477 12.6821L26.0068 15.8024C25.2399 16.0519 24.493 16.3594 23.7727 16.7221L20.8375 15.2546C20.6498 15.1607 20.4373 15.1283 20.2301 15.162C20.023 15.1956 19.8317 15.2936 19.6833 15.442L15.4407 19.6842C15.2922 19.8325 15.1943 20.0238 15.1606 20.231C15.127 20.4382 15.1593 20.6507 15.2532 20.8384L16.7208 23.774C16.3587 24.4945 16.0515 25.2414 15.802 26.0081L12.6812 27.048C12.4822 27.1144 12.309 27.2418 12.1864 27.412C12.0637 27.5823 11.9977 27.7868 11.9977 27.9967V30.047C8.64751 30.3042 5.52724 31.8494 3.29196 34.3581C1.05669 36.8667 -0.119743 40.1439 0.00964574 43.5014C0.139035 46.859 1.56418 50.0359 3.98589 52.3651C6.4076 54.6943 9.63753 55.9947 12.9976 55.9933H34.5809L33.288 57.2862L34.7019 58.7L37.7015 55.7004C37.889 55.5129 37.9943 55.2586 37.9943 54.9934C37.9943 54.7283 37.889 54.474 37.7015 54.2865L34.7019 51.2869L33.288 52.7007L34.5809 53.9936H12.9976C10.1663 53.9959 7.44331 52.906 5.39547 50.951C3.34763 48.9959 2.13281 46.3263 2.00396 43.4979C1.87511 40.6696 2.84215 37.9006 4.70374 35.7674C6.56532 33.6343 9.17797 32.3013 11.9977 32.0462V33.9959C11.9977 34.2058 12.0637 34.4103 12.1864 34.5806C12.309 34.7509 12.4822 34.8782 12.6812 34.9446L15.802 35.9845C16.0515 36.7512 16.3587 37.4981 16.7208 38.2186L15.2532 41.1542C15.1593 41.3419 15.127 41.5544 15.1606 41.7616C15.1943 41.9688 15.2922 42.1601 15.4407 42.3085L19.6833 46.5506C19.8318 46.6988 20.0231 46.7966 20.2302 46.8302C20.4373 46.8639 20.6497 46.8316 20.8375 46.7381L23.7727 45.2705C24.4931 45.633 25.2399 45.9403 26.0068 46.1897L27.0477 49.3105C27.1139 49.5096 27.2411 49.6828 27.4113 49.8055C27.5815 49.9281 27.786 49.9941 27.9958 49.994H33.9951C34.2049 49.9941 34.4094 49.9281 34.5796 49.8055C34.7498 49.6828 34.877 49.5096 34.9432 49.3105L35.9841 46.1897C36.751 45.9403 37.4978 45.633 38.2182 45.2705L41.1535 46.7381C41.3413 46.8312 41.5537 46.8632 41.7606 46.8296C41.9676 46.7959 42.1589 46.6984 42.3076 46.5506L46.5501 42.3085ZM41.4033 44.6271L38.6537 43.2522C38.5089 43.1799 38.3488 43.1438 38.1871 43.147C38.0254 43.1501 37.8668 43.1924 37.725 43.2702C36.8342 43.7569 35.8928 44.1447 34.9177 44.4268C34.7627 44.4722 34.621 44.5544 34.5046 44.6664C34.3883 44.7785 34.3009 44.917 34.2498 45.0703L33.2744 47.9943H28.7163L27.7415 45.0703C27.6904 44.917 27.6029 44.7785 27.4866 44.6664C27.3703 44.5544 27.2286 44.4722 27.0735 44.4268C26.0984 44.1447 25.1571 43.7569 24.2662 43.2702C24.1245 43.1923 23.9659 43.15 23.8042 43.1469C23.6425 43.1437 23.4824 43.1799 23.3377 43.2522L20.5881 44.6271L17.3648 41.4042L18.7396 38.6545C18.8117 38.5099 18.8478 38.3499 18.8447 38.1883C18.8417 38.0268 18.7996 37.8683 18.722 37.7265C18.2359 36.8353 17.8482 35.8938 17.5659 34.9187C17.5207 34.7635 17.4386 34.6216 17.3265 34.5051C17.2145 34.3886 17.0758 34.301 16.9225 34.2498L13.9978 33.2749V28.7173L16.9225 27.7424C17.0758 27.6913 17.2145 27.6037 17.3265 27.4872C17.4386 27.3707 17.5207 27.2287 17.5659 27.0735C17.8482 26.0984 18.2359 25.1569 18.722 24.2657C18.7996 24.1239 18.8417 23.9655 18.8447 23.8039C18.8478 23.6423 18.8117 23.4824 18.7396 23.3377L17.3648 20.588L20.5881 17.3652L23.3377 18.74C23.4825 18.8121 23.6425 18.8482 23.8042 18.845C23.9659 18.8419 24.1244 18.7997 24.2662 18.722C25.157 18.2353 26.0984 17.8474 27.0735 17.5654C27.2286 17.5201 27.3703 17.4379 27.4866 17.3258C27.6029 17.2138 27.6904 17.0752 27.7415 16.922L28.7163 13.9973H33.2744L34.2493 16.922C34.3004 17.0752 34.3878 17.2138 34.5041 17.3258C34.6205 17.4379 34.7622 17.5201 34.9172 17.5654C35.8924 17.8474 36.8337 18.2353 37.7245 18.722C37.8664 18.7997 38.0249 18.8419 38.1866 18.845C38.3483 18.8482 38.5084 18.8121 38.6532 18.74L41.4028 17.3652L44.6261 20.588L43.2512 23.3377C43.1791 23.4824 43.143 23.6423 43.1461 23.8039C43.1491 23.9655 43.1912 24.1239 43.2687 24.2657C43.7549 25.1569 44.1426 26.0984 44.4248 27.0735C44.47 27.2287 44.5522 27.3707 44.6643 27.4872C44.7764 27.6037 44.915 27.6913 45.0684 27.7424L47.993 28.7173V33.2753L45.0684 34.2502C44.915 34.3013 44.7764 34.3889 44.6643 34.5054C44.5522 34.6219 44.47 34.7639 44.4248 34.9191C44.1426 35.8942 43.7549 36.8357 43.2687 37.7269C43.1912 37.8687 43.1491 38.0271 43.1461 38.1887C43.143 38.3503 43.1791 38.5103 43.2512 38.6549L44.6261 41.4046L41.4033 44.6271Z" fill="#0369CA"></path><path d="M30.995 21.9974C29.2152 21.9974 27.4754 22.5252 25.9955 23.514C24.5156 24.5028 23.3622 25.9083 22.6811 27.5526C22 29.197 21.8218 31.0063 22.169 32.752C22.5162 34.4976 23.3733 36.101 24.6318 37.3596C25.8903 38.6181 27.4938 39.4752 29.2394 39.8224C30.985 40.1696 32.7944 39.9914 34.4388 39.3103C36.0831 38.6292 37.4886 37.4758 38.4774 35.9959C39.4662 34.516 39.994 32.7762 39.994 30.9964C39.9913 28.6105 39.0423 26.3232 37.3553 24.6361C35.6682 22.9491 33.3809 22.0001 30.995 21.9974ZM30.995 37.9955C29.6107 37.9955 28.2575 37.585 27.1065 36.816C25.9555 36.0469 25.0584 34.9538 24.5286 33.6748C23.9989 32.3959 23.8603 30.9886 24.1303 29.6309C24.4004 28.2732 25.067 27.0261 26.0459 26.0472C27.0247 25.0684 28.2719 24.4017 29.6296 24.1317C30.9873 23.8616 32.3946 24.0002 33.6735 24.53C34.9524 25.0597 36.0455 25.9568 36.8146 27.1078C37.5837 28.2588 37.9942 29.6121 37.9942 30.9964C37.992 32.852 37.2539 34.631 35.9418 35.9431C34.6297 37.2553 32.8507 37.9934 30.995 37.9955Z" fill="#0369CA"></path><path d="M0.999881 13.9983H18.9977C19.2629 13.9983 19.5172 13.893 19.7048 13.7055C19.8923 13.518 19.9976 13.2636 19.9976 12.9985V0.999881C19.9976 0.734696 19.8923 0.480372 19.7048 0.292858C19.5172 0.105344 19.2629 0 18.9977 0H0.999881C0.734696 0 0.480372 0.105344 0.292858 0.292858C0.105344 0.480372 0 0.734696 0 0.999881V12.9985C0 13.2636 0.105344 13.518 0.292858 13.7055C0.480372 13.893 0.734696 13.9983 0.999881 13.9983ZM1.99976 1.99976H17.9979V11.9986H1.99976V1.99976Z" fill="#0369CA"></path><path d="M60.9938 47.9943H42.996C42.7308 47.9943 42.4765 48.0996 42.289 48.2871C42.1014 48.4746 41.9961 48.729 41.9961 48.9941V60.9927C41.9961 61.2579 42.1014 61.5122 42.289 61.6997C42.4765 61.8873 42.7308 61.9926 42.996 61.9926H60.9938C61.259 61.9926 61.5133 61.8873 61.7009 61.6997C61.8884 61.5122 61.9937 61.2579 61.9937 60.9927V48.9941C61.9937 48.729 61.8884 48.4746 61.7009 48.2871C61.5133 48.0996 61.259 47.9943 60.9938 47.9943ZM59.994 59.9928H43.9959V49.994H59.994V59.9928Z" fill="#0369CA"></path><path d="M4 3.99951H15.9986V5.99927H4V3.99951Z" fill="#0369CA"></path><path d="M4 7.99902H15.9986V9.99879H4V7.99902Z" fill="#0369CA"></path><path d="M45.9961 51.9938H57.9947V53.9935H45.9961V51.9938Z" fill="#0369CA"></path><path d="M45.9961 55.9933H57.9947V57.993H45.9961V55.9933Z" fill="#0369CA"></path><path d="M29.9956 32.582L27.7029 30.2893L26.2891 31.7031L29.2887 34.7028C29.4762 34.8902 29.7305 34.9955 29.9956 34.9955C30.2608 34.9955 30.515 34.8902 30.7025 34.7028L35.7019 29.7034L34.2881 28.2896L29.9956 32.582Z" fill="#0369CA"></path></svg>