<svg xmlns="http://www.w3.org/2000/svg" id="Layer_1" data-name="Layer 1" viewBox="0 0 92 92">
  <defs>
    <style>
      .cls-1{fill:#0a338d;}.cls-2{fill:#fff;}
    </style>
  </defs>
  <title>icon</title>
  <path id="Rectangle_64" data-name="Rectangle 64" class="cls-1" d="M46,1h0A45,45,0,0,1,91,46h0A45,45,0,0,1,46,91h0A45,45,0,0,1,1,46H1A45,45,0,0,1,46,1Z"/>
  <g id="Group_41" data-name="Group 41">
    <g id="Group_40" data-name="Group 40">
      <g id="Group_39" data-name="Group 39">
        <path id="Path_75" data-name="Path 75" class="cls-2" d="M69.35,63.76V57.65A4.82,4.82,0,0,0,71,54a4.91,4.91,0,0,0-1.65-3.62V39.55A5.65,5.65,0,0,0,63.7,33.9H53.57l-4-3.23a10.49,10.49,0,0,0,.53-3.29V23.83a2.83,2.83,0,0,0-5.66,0v2.83a5.66,5.66,0,0,1-5.66,5.66h-.59a6.47,6.47,0,1,0-8.35.13,8.94,8.94,0,0,0-7.24,8.68V50H21V71H71V67A4,4,0,0,0,69.35,63.76Zm0-9.67a3.22,3.22,0,1,1-3.22-3.22h0A3.22,3.22,0,0,1,69.35,54.09ZM41.13,50V37.84a10.23,10.23,0,0,0,5.59-2.76L50,39v3h1.91l1.65,3.22h4.21L59.42,42h1.91a.8.8,0,0,1,.79.79V50H50a2.44,2.44,0,0,0,0,4.87H61.4a4.81,4.81,0,0,0,.26,1L49,58.24A5.58,5.58,0,0,0,44.49,63h-.86a3.52,3.52,0,0,0-.79.07V50Zm12.63-8h3.82l-.79,1.64H54.55ZM62,51.66a5.65,5.65,0,0,0-.59,1.64H50a.76.76,0,0,1-.79-.73v-.06a.8.8,0,0,1,.79-.78l12-.07Zm-12.7,8.09,13.29-2.43a4.74,4.74,0,0,0,3.55,1.58,6.47,6.47,0,0,0,1.64-.27V63A3.38,3.38,0,0,0,67,63H46.07a4.07,4.07,0,0,1,3.22-3.22ZM53.7,35.54H63.76a4,4,0,0,1,4,4v10a4.65,4.65,0,0,0-1.65-.27,5.17,5.17,0,0,0-2.43.66v-7.1a2.43,2.43,0,0,0-2.43-2.44H51.66V39Zm-1.51-.66-1.45,2.44-2.9-3.49a10.43,10.43,0,0,0,1-1.58Zm-13.75-1h.33A7.21,7.21,0,0,0,46,26.7V23.83a1.19,1.19,0,1,1,2.37,0h0v3.62a8.85,8.85,0,0,1-8.16,8.88l-.72.07V50H33V39.88Zm-7,0h4.87l-2.43,2.7Zm-2.37-6.44A4.87,4.87,0,1,1,34,32.32a4.87,4.87,0,0,1-4.87-4.87ZM24.22,41.13a7.2,7.2,0,0,1,5.33-7l3.23,3.68-1.25,1.38V50H28.24V38.76H26.66V50.08H24.22ZM39.55,67v2.43H22.64V51.66H41.2v12.1A4,4,0,0,0,39.55,67Zm29.8,2.37H41.13V66.92a2.43,2.43,0,0,1,2.43-2.43H66.92a2.43,2.43,0,0,1,2.44,2.42h0ZM25.87,53.24H24.22v1.64h1.65Zm1.58,1.64h12.1V53.24H27.45Zm-3.23,3.23H39.55V56.46H24.22Zm0,3.22H39.55V59.68H24.22Zm0,3.22H34.68V62.91H24.22Zm12.11,0H38V62.91H36.33Zm29.8,3.23h1.64V66.13H66.13Zm-3.23,0h1.65V66.13H62.91Zm-3.22,0h1.65V66.13H59.68Z"/>
      </g>
    </g>
  </g>
</svg>
