<svg xmlns="http://www.w3.org/2000/svg" width="73" height="61" viewBox="0 0 73 61" fill="none"><mask id="path-1-inside-1_1108_309" fill="white"><path d="M41.9191 60.0934C41.0134 60.0934 40.1509 59.7455 39.5471 59.0933C38.9002 58.441 38.5552 57.6149 38.5552 56.7017V45.2657H34.2426V56.7017C34.2426 57.6149 33.8975 58.441 33.2506 59.0933C32.6037 59.7455 31.7843 60.0934 30.8787 60.0934H3.36387C2.45821 60.0934 1.59568 59.7455 0.991908 59.0933C0.345008 58.441 0 57.6149 0 56.7017V3.39166C0 2.47852 0.345008 1.60887 0.991908 1.0001C1.63881 0.347861 2.45821 0 3.36387 0H30.8787C31.7843 0 32.6469 0.347861 33.2506 1.0001C33.8975 1.65235 34.2426 2.47852 34.2426 3.39166V43.5264H38.5552V3.39166C38.5552 2.47852 38.9002 1.65235 39.5471 1.0001C40.194 0.347861 41.0134 0 41.9191 0H69.4339C70.3396 0 71.159 0.347861 71.8059 1.0001C72.4528 1.65235 72.7978 2.47852 72.7978 3.39166V56.7017C72.7978 57.6149 72.4528 58.4845 71.8059 59.0933C71.159 59.7455 70.3396 60.0934 69.4339 60.0934H41.9191ZM40.2803 56.7017C40.2803 57.1365 40.4528 57.5714 40.7547 57.8758C41.0566 58.1801 41.4878 58.3541 41.9191 58.3541H69.4339C69.8652 58.3541 70.2964 58.1801 70.5983 57.8758C70.9002 57.5714 71.0727 57.1365 71.0727 56.7017V54.4841H40.2372V56.7017H40.2803ZM1.72507 56.7017C1.72507 57.1365 1.89756 57.5714 2.19945 57.8758C2.50134 58.1801 2.93261 58.3541 3.36387 58.3541H30.8787C31.3099 58.3541 31.7412 58.1801 32.0431 57.8758C32.345 57.5714 32.5175 57.1365 32.5175 56.7017V54.4841H1.68195V56.7017H1.72507ZM3.36387 1.69583C2.93261 1.69583 2.50134 1.86977 2.19945 2.17415C1.89756 2.47853 1.72507 2.91336 1.72507 3.34819V52.7013H32.5606V45.2657H21.3477L21.3046 45.4396C21.0458 46.4832 20.442 47.3964 19.5795 48.0051C18.8464 48.5269 17.9838 48.7878 17.1213 48.7878C16.9488 48.7878 16.7763 48.7878 16.6038 48.7443C15.5687 48.6139 14.5768 48.0921 13.8868 47.3094C13.1968 46.5267 12.8086 45.4831 12.8086 44.396C12.8086 43.309 13.1968 42.3089 13.8868 41.4827C14.5768 40.7 15.5687 40.1782 16.6038 40.0478C16.7763 40.0478 16.9488 40.0043 17.1213 40.0043C18.0269 40.0043 18.8464 40.2652 19.5795 40.787C20.442 41.3957 21.0889 42.3089 21.3046 43.3525L21.3477 43.5264H32.5175V3.39166C32.5175 2.95684 32.345 2.52201 32.0431 2.21763C31.7412 1.91325 31.3099 1.73932 30.8787 1.73932H25.2291L24.2372 5.26143C24.0647 5.87019 23.7197 6.39199 23.2021 6.78333C22.6846 7.17468 22.124 7.34861 21.4771 7.34861H12.7655C12.1617 7.34861 11.5148 7.1312 11.0404 6.78333C10.566 6.39199 10.1779 5.87019 10.0054 5.26143L9.01348 1.73932H3.36387V1.69583ZM40.2803 52.7448H71.1159V3.39166C71.1159 2.95684 70.9434 2.52201 70.6415 2.21763C70.3396 1.91325 69.9083 1.73932 69.477 1.73932H63.8274L62.8355 5.26143C62.663 5.87019 62.318 6.39199 61.8005 6.78333C61.3261 7.17468 60.6792 7.34861 60.0755 7.34861H51.3638C50.7169 7.34861 50.1563 7.1312 49.6388 6.78333C49.1213 6.39199 48.7762 5.87019 48.6037 5.26143L47.6118 1.73932H41.9623C41.531 1.73932 41.0997 1.91325 40.7978 2.21763C40.4959 2.52201 40.3234 2.95684 40.3234 3.39166V43.5264H55.3746L53.3908 41.5262C53.3046 41.4392 53.2614 41.3522 53.2183 41.2653C53.1752 41.1783 53.132 41.0479 53.132 40.9174C53.132 40.787 53.1752 40.7 53.2183 40.5696C53.2614 40.4826 53.3046 40.3521 53.3908 40.2652C53.4771 40.1782 53.5633 40.1347 53.6496 40.0912C53.7358 40.0478 53.8652 40.0043 53.9945 40.0043C54.1239 40.0043 54.2102 40.0478 54.3396 40.0912C54.4258 40.1347 54.5552 40.2217 54.5983 40.2652L58.0916 43.7873C58.1778 43.8743 58.221 43.9612 58.2641 44.0482C58.3072 44.1352 58.3504 44.2656 58.3504 44.396C58.3504 44.5265 58.3072 44.6135 58.2641 44.7439C58.221 44.8309 58.1778 44.9613 58.0916 45.0483L54.5983 48.5704C54.5121 48.6574 54.4258 48.7009 54.3396 48.7443C54.2533 48.7878 54.1239 48.8313 53.9945 48.8313C53.8652 48.8313 53.7789 48.7878 53.6496 48.7443C53.5633 48.7009 53.4339 48.6139 53.3908 48.5704C53.2183 48.3965 53.132 48.1791 53.132 47.9616C53.132 47.7442 53.2183 47.5268 53.3908 47.3529L55.3746 45.3527H40.3234V52.7448H40.2803ZM17.1213 41.7436C16.6038 41.7436 16.0862 41.9175 15.655 42.1784C15.2237 42.4828 14.8787 42.8741 14.7062 43.3525C14.4905 43.8308 14.4474 44.3526 14.5768 44.8744C14.6631 45.3962 14.9218 45.8745 15.31 46.2223C15.6981 46.5702 16.1294 46.8311 16.6469 46.9615C16.8194 47.005 16.9919 47.005 17.1644 47.005C17.5094 47.005 17.8544 46.9181 18.1563 46.7876C18.6307 46.5702 19.0189 46.2658 19.3207 45.831C19.6226 45.3962 19.752 44.8744 19.752 44.3526C19.752 43.6568 19.4501 42.9611 18.9757 42.4828C18.4582 42.048 17.8113 41.7436 17.1213 41.7436ZM11.6442 4.73964C11.7304 4.95705 11.8598 5.17446 12.0755 5.3484C12.2911 5.47884 12.5067 5.56581 12.7655 5.56581H21.4771C21.7358 5.56581 21.9515 5.47884 22.1671 5.3484C22.3827 5.21795 22.5121 5.00054 22.5984 4.73964L23.4609 1.69583H10.8248L11.6442 4.73964ZM49.38 1.69583L50.2426 4.73964C50.3288 5.00054 50.4582 5.17446 50.6738 5.3484C50.8895 5.47884 51.1051 5.56581 51.3638 5.56581H60.0755C60.3342 5.56581 60.5498 5.47884 60.7655 5.3484C60.9811 5.21795 61.1105 5.00054 61.1967 4.73964L62.0593 1.69583H49.38Z"></path></mask><path d="M41.9191 60.0934C41.0134 60.0934 40.1509 59.7455 39.5471 59.0933C38.9002 58.441 38.5552 57.6149 38.5552 56.7017V45.2657H34.2426V56.7017C34.2426 57.6149 33.8975 58.441 33.2506 59.0933C32.6037 59.7455 31.7843 60.0934 30.8787 60.0934H3.36387C2.45821 60.0934 1.59568 59.7455 0.991908 59.0933C0.345008 58.441 0 57.6149 0 56.7017V3.39166C0 2.47852 0.345008 1.60887 0.991908 1.0001C1.63881 0.347861 2.45821 0 3.36387 0H30.8787C31.7843 0 32.6469 0.347861 33.2506 1.0001C33.8975 1.65235 34.2426 2.47852 34.2426 3.39166V43.5264H38.5552V3.39166C38.5552 2.47852 38.9002 1.65235 39.5471 1.0001C40.194 0.347861 41.0134 0 41.9191 0H69.4339C70.3396 0 71.159 0.347861 71.8059 1.0001C72.4528 1.65235 72.7978 2.47852 72.7978 3.39166V56.7017C72.7978 57.6149 72.4528 58.4845 71.8059 59.0933C71.159 59.7455 70.3396 60.0934 69.4339 60.0934H41.9191ZM40.2803 56.7017C40.2803 57.1365 40.4528 57.5714 40.7547 57.8758C41.0566 58.1801 41.4878 58.3541 41.9191 58.3541H69.4339C69.8652 58.3541 70.2964 58.1801 70.5983 57.8758C70.9002 57.5714 71.0727 57.1365 71.0727 56.7017V54.4841H40.2372V56.7017H40.2803ZM1.72507 56.7017C1.72507 57.1365 1.89756 57.5714 2.19945 57.8758C2.50134 58.1801 2.93261 58.3541 3.36387 58.3541H30.8787C31.3099 58.3541 31.7412 58.1801 32.0431 57.8758C32.345 57.5714 32.5175 57.1365 32.5175 56.7017V54.4841H1.68195V56.7017H1.72507ZM3.36387 1.69583C2.93261 1.69583 2.50134 1.86977 2.19945 2.17415C1.89756 2.47853 1.72507 2.91336 1.72507 3.34819V52.7013H32.5606V45.2657H21.3477L21.3046 45.4396C21.0458 46.4832 20.442 47.3964 19.5795 48.0051C18.8464 48.5269 17.9838 48.7878 17.1213 48.7878C16.9488 48.7878 16.7763 48.7878 16.6038 48.7443C15.5687 48.6139 14.5768 48.0921 13.8868 47.3094C13.1968 46.5267 12.8086 45.4831 12.8086 44.396C12.8086 43.309 13.1968 42.3089 13.8868 41.4827C14.5768 40.7 15.5687 40.1782 16.6038 40.0478C16.7763 40.0478 16.9488 40.0043 17.1213 40.0043C18.0269 40.0043 18.8464 40.2652 19.5795 40.787C20.442 41.3957 21.0889 42.3089 21.3046 43.3525L21.3477 43.5264H32.5175V3.39166C32.5175 2.95684 32.345 2.52201 32.0431 2.21763C31.7412 1.91325 31.3099 1.73932 30.8787 1.73932H25.2291L24.2372 5.26143C24.0647 5.87019 23.7197 6.39199 23.2021 6.78333C22.6846 7.17468 22.124 7.34861 21.4771 7.34861H12.7655C12.1617 7.34861 11.5148 7.1312 11.0404 6.78333C10.566 6.39199 10.1779 5.87019 10.0054 5.26143L9.01348 1.73932H3.36387V1.69583ZM40.2803 52.7448H71.1159V3.39166C71.1159 2.95684 70.9434 2.52201 70.6415 2.21763C70.3396 1.91325 69.9083 1.73932 69.477 1.73932H63.8274L62.8355 5.26143C62.663 5.87019 62.318 6.39199 61.8005 6.78333C61.3261 7.17468 60.6792 7.34861 60.0755 7.34861H51.3638C50.7169 7.34861 50.1563 7.1312 49.6388 6.78333C49.1213 6.39199 48.7762 5.87019 48.6037 5.26143L47.6118 1.73932H41.9623C41.531 1.73932 41.0997 1.91325 40.7978 2.21763C40.4959 2.52201 40.3234 2.95684 40.3234 3.39166V43.5264H55.3746L53.3908 41.5262C53.3046 41.4392 53.2614 41.3522 53.2183 41.2653C53.1752 41.1783 53.132 41.0479 53.132 40.9174C53.132 40.787 53.1752 40.7 53.2183 40.5696C53.2614 40.4826 53.3046 40.3521 53.3908 40.2652C53.4771 40.1782 53.5633 40.1347 53.6496 40.0912C53.7358 40.0478 53.8652 40.0043 53.9945 40.0043C54.1239 40.0043 54.2102 40.0478 54.3396 40.0912C54.4258 40.1347 54.5552 40.2217 54.5983 40.2652L58.0916 43.7873C58.1778 43.8743 58.221 43.9612 58.2641 44.0482C58.3072 44.1352 58.3504 44.2656 58.3504 44.396C58.3504 44.5265 58.3072 44.6135 58.2641 44.7439C58.221 44.8309 58.1778 44.9613 58.0916 45.0483L54.5983 48.5704C54.5121 48.6574 54.4258 48.7009 54.3396 48.7443C54.2533 48.7878 54.1239 48.8313 53.9945 48.8313C53.8652 48.8313 53.7789 48.7878 53.6496 48.7443C53.5633 48.7009 53.4339 48.6139 53.3908 48.5704C53.2183 48.3965 53.132 48.1791 53.132 47.9616C53.132 47.7442 53.2183 47.5268 53.3908 47.3529L55.3746 45.3527H40.3234V52.7448H40.2803ZM17.1213 41.7436C16.6038 41.7436 16.0862 41.9175 15.655 42.1784C15.2237 42.4828 14.8787 42.8741 14.7062 43.3525C14.4905 43.8308 14.4474 44.3526 14.5768 44.8744C14.6631 45.3962 14.9218 45.8745 15.31 46.2223C15.6981 46.5702 16.1294 46.8311 16.6469 46.9615C16.8194 47.005 16.9919 47.005 17.1644 47.005C17.5094 47.005 17.8544 46.9181 18.1563 46.7876C18.6307 46.5702 19.0189 46.2658 19.3207 45.831C19.6226 45.3962 19.752 44.8744 19.752 44.3526C19.752 43.6568 19.4501 42.9611 18.9757 42.4828C18.4582 42.048 17.8113 41.7436 17.1213 41.7436ZM11.6442 4.73964C11.7304 4.95705 11.8598 5.17446 12.0755 5.3484C12.2911 5.47884 12.5067 5.56581 12.7655 5.56581H21.4771C21.7358 5.56581 21.9515 5.47884 22.1671 5.3484C22.3827 5.21795 22.5121 5.00054 22.5984 4.73964L23.4609 1.69583H10.8248L11.6442 4.73964ZM49.38 1.69583L50.2426 4.73964C50.3288 5.00054 50.4582 5.17446 50.6738 5.3484C50.8895 5.47884 51.1051 5.56581 51.3638 5.56581H60.0755C60.3342 5.56581 60.5498 5.47884 60.7655 5.3484C60.9811 5.21795 61.1105 5.00054 61.1967 4.73964L62.0593 1.69583H49.38Z" fill="#0369CA" stroke="#0369CA" stroke-width="3" mask="url(#path-1-inside-1_1108_309)"></path><path d="M6.44793 20.1771C6.4466 20.1765 6.44532 20.1759 6.44407 20.1753L6.43902 20.173L6.43834 20.1723C6.43833 20.1723 6.43833 20.1723 6.43832 20.1723C6.43658 20.1695 6.43321 20.1638 6.42733 20.1526C6.42087 20.1404 6.41413 20.1268 6.40271 20.1038L6.4027 20.1038C6.4026 20.1036 6.40145 20.1012 6.39986 20.097C6.39817 20.0926 6.39664 20.0879 6.39546 20.0835L6.39453 20.0797V12.2021C6.39701 12.1947 6.40061 12.1843 6.40607 12.1689C6.40732 12.1653 6.40871 12.1614 6.41022 12.1572C6.41494 12.1439 6.42079 12.1275 6.4271 12.1093C6.4278 12.1078 6.42847 12.1063 6.42913 12.1049L6.43205 12.0984L6.43306 12.0974C6.43582 12.0957 6.44127 12.0925 6.4515 12.087C6.45329 12.086 6.45512 12.0851 6.45699 12.0841C6.47124 12.079 6.48417 12.0743 6.49493 12.0704C6.49912 12.0689 6.50298 12.0675 6.50646 12.0663C6.52005 12.0614 6.52962 12.058 6.53663 12.0556H27.6958C27.7028 12.058 27.7124 12.0614 27.726 12.0663C27.7295 12.0675 27.7333 12.0689 27.7375 12.0704C27.7483 12.0743 27.7612 12.079 27.7754 12.0841C27.7773 12.0851 27.7791 12.086 27.7809 12.087C27.7868 12.0902 27.7912 12.0926 27.7943 12.0944C27.7947 12.1169 27.7948 12.1414 27.7948 12.1753V20.0623C27.7923 20.0698 27.7887 20.0802 27.7832 20.0956C27.782 20.0991 27.7806 20.103 27.7791 20.1073C27.7744 20.1205 27.7685 20.1369 27.7623 20.155C27.7574 20.1568 27.7517 20.1587 27.7452 20.1609L27.6944 20.178L27.6466 20.2021C27.6468 20.202 27.6448 20.203 27.6409 20.2045C27.6369 20.2061 27.6327 20.2074 27.629 20.2085C27.6285 20.2086 27.6281 20.2087 27.6277 20.2088H6.53663C6.52962 20.2064 6.52005 20.203 6.50646 20.1981C6.50298 20.1969 6.49912 20.1955 6.49494 20.194C6.48193 20.1893 6.46577 20.1834 6.44793 20.1771ZM6.6196 19.2195V19.9695H7.3696H26.8629H27.6129V19.2195V13.0449V12.2949H26.8629H7.3696H6.6196V13.0449V19.2195Z" fill="#0369CA" stroke="#0369CA" stroke-width="1.5"></path><path d="M44.9298 12.1571C44.9345 12.1439 44.9403 12.1275 44.9466 12.1094C44.9515 12.1076 44.9571 12.1057 44.9636 12.1035L45.0144 12.0864L45.0622 12.0623C45.0623 12.0623 45.0644 12.0613 45.0679 12.0599C45.0719 12.0584 45.0761 12.057 45.0799 12.0559C45.0803 12.0558 45.0807 12.0557 45.0811 12.0556H66.288C66.2944 12.0556 66.3026 12.0568 66.313 12.0612C66.3232 12.0655 66.3395 12.0747 66.3593 12.0946C66.379 12.1146 66.3888 12.1316 66.3938 12.1436C66.3988 12.1557 66.4005 12.1662 66.4005 12.1753V34.0037C66.4005 34.0127 66.3988 34.0232 66.3938 34.0354C66.3888 34.0473 66.379 34.0644 66.3593 34.0843C66.3395 34.1042 66.3232 34.1134 66.313 34.1178C66.3026 34.1222 66.2944 34.1233 66.288 34.1233H45.0993C45.0922 34.1209 45.0827 34.1176 45.0691 34.1127C45.0656 34.1114 45.0617 34.11 45.0575 34.1085C45.0445 34.1038 45.0282 34.0979 45.0103 34.0916C45.0084 34.0907 45.0066 34.0898 45.0048 34.089C44.9908 34.0826 44.9765 34.0761 44.9656 34.0712L44.9616 34.0694C44.9549 34.0664 44.949 34.0637 44.9438 34.0613C44.9382 34.0505 44.9319 34.0378 44.9222 34.0183L44.9222 34.0183C44.9221 34.018 44.9209 34.0157 44.9194 34.0116C44.9177 34.0072 44.9162 34.0025 44.915 33.9981L44.9141 33.9943V12.2021C44.9165 12.1946 44.9201 12.1843 44.9256 12.1688C44.9269 12.1653 44.9283 12.1614 44.9298 12.1571ZM45.1822 33.134V33.884H45.9322H65.4255H66.1755V33.134V13.0449V12.2949H65.4255H45.9322H45.1822V13.0449V33.134Z" fill="#0369CA" stroke="#0369CA" stroke-width="1.5"></path><path d="M27.7791 34.0217C27.7744 34.035 27.7685 34.0515 27.7622 34.0696C27.7615 34.0711 27.7609 34.0726 27.7602 34.074L27.7573 34.0805L27.7563 34.0815C27.7535 34.0832 27.7481 34.0864 27.7378 34.0919C27.7258 34.0983 27.7125 34.1051 27.6897 34.1166C27.6899 34.1165 27.6895 34.1167 27.6885 34.1171C27.6876 34.1175 27.686 34.1182 27.684 34.119C27.68 34.1205 27.6758 34.1219 27.6721 34.123C27.6716 34.1231 27.6712 34.1232 27.6708 34.1233H6.50706C6.50067 34.1233 6.49248 34.1221 6.48211 34.1177C6.47188 34.1134 6.45558 34.1042 6.43581 34.0842L5.90331 34.6124L6.43581 34.0842C6.41606 34.0643 6.40628 34.0472 6.4013 34.0353C6.39623 34.0231 6.39453 34.0126 6.39453 34.0036C6.39453 33.9946 6.39623 33.9841 6.4013 33.972C6.40629 33.96 6.41606 33.9429 6.43581 33.923C6.45557 33.9031 6.47187 33.8939 6.4821 33.8896C6.49247 33.8852 6.50066 33.884 6.50706 33.884H27.6958C27.7028 33.8864 27.7124 33.8898 27.726 33.8946C27.7295 33.8959 27.7333 33.8973 27.7375 33.8988C27.7483 33.9027 27.7612 33.9074 27.7754 33.9124C27.7773 33.9134 27.7792 33.9144 27.7809 33.9154C27.7868 33.9185 27.7912 33.9209 27.7943 33.9227C27.7946 33.9389 27.7947 33.956 27.7948 33.9769C27.7923 33.9843 27.7887 33.9947 27.7832 34.0101C27.782 34.0136 27.7806 34.0175 27.7791 34.0217Z" fill="#0369CA" stroke="#0369CA" stroke-width="1.5"></path><path d="M6.50706 27.166C6.50067 27.166 6.49248 27.1648 6.48211 27.1604C6.47188 27.1561 6.45558 27.1469 6.43581 27.127L5.90331 27.6551L6.43581 27.127C6.41606 27.107 6.40628 27.0899 6.4013 27.078C6.39623 27.0659 6.39453 27.0554 6.39453 27.0464C6.39453 27.0373 6.39623 27.0268 6.4013 27.0147C6.40629 27.0028 6.41606 26.9857 6.43581 26.9657C6.45557 26.9458 6.47187 26.9366 6.4821 26.9323C6.49247 26.9279 6.50066 26.9267 6.50706 26.9267H27.7254C27.7318 26.9267 27.74 26.9279 27.7503 26.9323C27.7606 26.9366 27.7769 26.9458 27.7966 26.9657C27.8164 26.9857 27.8262 27.0028 27.8312 27.0147C27.8362 27.0269 27.8379 27.0374 27.8379 27.0464C27.8379 27.0553 27.8362 27.0658 27.8312 27.078C27.8262 27.0899 27.8164 27.107 27.7966 27.127C27.7769 27.1469 27.7606 27.1561 27.7503 27.1604C27.74 27.1648 27.7318 27.166 27.7254 27.166H6.50706Z" fill="#0369CA" stroke="#0369CA" stroke-width="1.5"></path></svg>