<svg xmlns="http://www.w3.org/2000/svg" width="74" height="61" viewBox="0 0 74 61" fill="none"><mask id="path-1-inside-1_1108_309" fill="white"><path d="M42.5089 60.0029C41.6033 60.0029 40.7407 59.6579 40.137 59.011C39.4901 58.3641 39.1451 57.5447 39.1451 56.639V45.2967H34.8324V56.639C34.8324 57.5447 34.4874 58.3641 33.8405 59.011C33.1936 59.6579 32.3742 60.0029 31.4685 60.0029H3.95372C3.04806 60.0029 2.18552 59.6579 1.58175 59.011C0.934852 58.3641 0.589844 57.5447 0.589844 56.639V3.76573C0.589844 2.86007 0.934852 1.99754 1.58175 1.39377C2.22865 0.746867 3.04806 0.401855 3.95372 0.401855H31.4685C32.3742 0.401855 33.2367 0.746867 33.8405 1.39377C34.4874 2.04067 34.8324 2.86007 34.8324 3.76573V43.5716H39.1451V3.76573C39.1451 2.86007 39.4901 2.04067 40.137 1.39377C40.7839 0.746867 41.6033 0.401855 42.5089 0.401855H70.0238C70.9294 0.401855 71.7488 0.746867 72.3957 1.39377C73.0426 2.04067 73.3877 2.86007 73.3877 3.76573V56.639C73.3877 57.5447 73.0426 58.4072 72.3957 59.011C71.7488 59.6579 70.9294 60.0029 70.0238 60.0029H42.5089ZM40.8702 56.639C40.8702 57.0703 41.0426 57.5015 41.3445 57.8034C41.6464 58.1053 42.0777 58.2778 42.5089 58.2778H70.0238C70.455 58.2778 70.8863 58.1053 71.1882 57.8034C71.49 57.5015 71.6626 57.0703 71.6626 56.639V54.4395H40.827V56.639H40.8702ZM2.31491 56.639C2.31491 57.0703 2.48741 57.5015 2.78929 57.8034C3.09118 58.1053 3.52245 58.2778 3.95372 58.2778H31.4685C31.8998 58.2778 32.3311 58.1053 32.633 57.8034C32.9349 57.5015 33.1074 57.0703 33.1074 56.639V54.4395H2.27179V56.639H2.31491ZM3.95372 2.0838C3.52245 2.0838 3.09118 2.2563 2.78929 2.55819C2.48741 2.86007 2.31491 3.29134 2.31491 3.72261V52.6714H33.1505V45.2967H21.9375L21.8944 45.4692C21.6357 46.5042 21.0319 47.4099 20.1694 48.0137C19.4362 48.5312 18.5737 48.79 17.7111 48.79C17.5386 48.79 17.3661 48.79 17.1936 48.7468C16.1586 48.6175 15.1667 48.0999 14.4766 47.3237C13.7866 46.5474 13.3985 45.5123 13.3985 44.4342C13.3985 43.356 13.7866 42.3641 14.4766 41.5447C15.1667 40.7684 16.1586 40.2509 17.1936 40.1215C17.3661 40.1215 17.5386 40.0784 17.7111 40.0784C18.6168 40.0784 19.4362 40.3371 20.1694 40.8547C21.0319 41.4584 21.6788 42.3641 21.8944 43.3991L21.9375 43.5716H33.1074V3.76573C33.1074 3.33447 32.9349 2.9032 32.633 2.60131C32.3311 2.29943 31.8998 2.12692 31.4685 2.12692H25.8189L24.827 5.62018C24.6545 6.22395 24.3095 6.74147 23.792 7.12961C23.2745 7.51775 22.7138 7.69026 22.0669 7.69026H13.3553C12.7515 7.69026 12.1046 7.47463 11.6303 7.12961C11.1559 6.74147 10.7677 6.22395 10.5952 5.62018L9.60332 2.12692H3.95372V2.0838ZM40.8702 52.7145H71.7057V3.76573C71.7057 3.33447 71.5332 2.9032 71.2313 2.60131C70.9294 2.29943 70.4981 2.12692 70.0669 2.12692H64.4173L63.4254 5.62018C63.2529 6.22395 62.9079 6.74147 62.3904 7.12961C61.916 7.51775 61.2691 7.69026 60.6653 7.69026H51.9537C51.3068 7.69026 50.7461 7.47463 50.2286 7.12961C49.7111 6.74147 49.3661 6.22395 49.1936 5.62018L48.2017 2.12692H42.5521C42.1208 2.12692 41.6895 2.29943 41.3876 2.60131C41.0858 2.9032 40.9133 3.33447 40.9133 3.76573V43.5716H55.9645L53.9807 41.5878C53.8944 41.5016 53.8513 41.4153 53.8081 41.329C53.765 41.2428 53.7219 41.1134 53.7219 40.984C53.7219 40.8547 53.765 40.7684 53.8081 40.639C53.8513 40.5528 53.8944 40.4234 53.9807 40.3371C54.0669 40.2509 54.1532 40.2078 54.2394 40.1646C54.3257 40.1215 54.455 40.0784 54.5844 40.0784C54.7138 40.0784 54.8 40.1215 54.9294 40.1646C55.0157 40.2078 55.1451 40.294 55.1882 40.3371L58.6814 43.8304C58.7677 43.9166 58.8108 44.0029 58.8539 44.0892C58.8971 44.1754 58.9402 44.3048 58.9402 44.4342C58.9402 44.5635 58.8971 44.6498 58.8539 44.7792C58.8108 44.8654 58.7677 44.9948 58.6814 45.0811L55.1882 48.5743C55.1019 48.6606 55.0157 48.7037 54.9294 48.7468C54.8432 48.79 54.7138 48.8331 54.5844 48.8331C54.455 48.8331 54.3688 48.79 54.2394 48.7468C54.1532 48.7037 54.0238 48.6175 53.9807 48.5743C53.8082 48.4018 53.7219 48.1862 53.7219 47.9706C53.7219 47.7549 53.8082 47.5393 53.9807 47.3668L55.9645 45.3829H40.9133V52.7145H40.8702ZM17.7111 41.8034C17.1936 41.8034 16.6761 41.9759 16.2448 42.2347C15.8135 42.5366 15.4685 42.9247 15.296 43.3991C15.0804 43.8735 15.0373 44.391 15.1666 44.9086C15.2529 45.4261 15.5117 45.9005 15.8998 46.2455C16.2879 46.5905 16.7192 46.8493 17.2367 46.9786C17.4092 47.0218 17.5817 47.0218 17.7542 47.0218C18.0993 47.0218 18.4443 46.9355 18.7462 46.8061C19.2205 46.5905 19.6087 46.2886 19.9106 45.8573C20.2125 45.4261 20.3418 44.9086 20.3418 44.391C20.3418 43.701 20.04 43.011 19.5656 42.5366C19.0481 42.1053 18.4012 41.8034 17.7111 41.8034ZM12.234 5.10266C12.3203 5.31829 12.4497 5.53393 12.6653 5.70643C12.8809 5.83581 13.0966 5.92206 13.3553 5.92206H22.0669C22.3257 5.92206 22.5413 5.83581 22.757 5.70643C22.9726 5.57705 23.102 5.36142 23.1882 5.10266L24.0508 2.0838H11.4146L12.234 5.10266ZM49.9699 2.0838L50.8324 5.10266C50.9187 5.36142 51.048 5.53393 51.2637 5.70643C51.4793 5.83581 51.6949 5.92206 51.9537 5.92206H60.6653C60.9241 5.92206 61.1397 5.83581 61.3553 5.70643C61.5709 5.57705 61.7003 5.36142 61.7866 5.10266L62.6491 2.0838H49.9699Z"></path></mask><path d="M42.5089 60.0029C41.6033 60.0029 40.7407 59.6579 40.137 59.011C39.4901 58.3641 39.1451 57.5447 39.1451 56.639V45.2967H34.8324V56.639C34.8324 57.5447 34.4874 58.3641 33.8405 59.011C33.1936 59.6579 32.3742 60.0029 31.4685 60.0029H3.95372C3.04806 60.0029 2.18552 59.6579 1.58175 59.011C0.934852 58.3641 0.589844 57.5447 0.589844 56.639V3.76573C0.589844 2.86007 0.934852 1.99754 1.58175 1.39377C2.22865 0.746867 3.04806 0.401855 3.95372 0.401855H31.4685C32.3742 0.401855 33.2367 0.746867 33.8405 1.39377C34.4874 2.04067 34.8324 2.86007 34.8324 3.76573V43.5716H39.1451V3.76573C39.1451 2.86007 39.4901 2.04067 40.137 1.39377C40.7839 0.746867 41.6033 0.401855 42.5089 0.401855H70.0238C70.9294 0.401855 71.7488 0.746867 72.3957 1.39377C73.0426 2.04067 73.3877 2.86007 73.3877 3.76573V56.639C73.3877 57.5447 73.0426 58.4072 72.3957 59.011C71.7488 59.6579 70.9294 60.0029 70.0238 60.0029H42.5089ZM40.8702 56.639C40.8702 57.0703 41.0426 57.5015 41.3445 57.8034C41.6464 58.1053 42.0777 58.2778 42.5089 58.2778H70.0238C70.455 58.2778 70.8863 58.1053 71.1882 57.8034C71.49 57.5015 71.6626 57.0703 71.6626 56.639V54.4395H40.827V56.639H40.8702ZM2.31491 56.639C2.31491 57.0703 2.48741 57.5015 2.78929 57.8034C3.09118 58.1053 3.52245 58.2778 3.95372 58.2778H31.4685C31.8998 58.2778 32.3311 58.1053 32.633 57.8034C32.9349 57.5015 33.1074 57.0703 33.1074 56.639V54.4395H2.27179V56.639H2.31491ZM3.95372 2.0838C3.52245 2.0838 3.09118 2.2563 2.78929 2.55819C2.48741 2.86007 2.31491 3.29134 2.31491 3.72261V52.6714H33.1505V45.2967H21.9375L21.8944 45.4692C21.6357 46.5042 21.0319 47.4099 20.1694 48.0137C19.4362 48.5312 18.5737 48.79 17.7111 48.79C17.5386 48.79 17.3661 48.79 17.1936 48.7468C16.1586 48.6175 15.1667 48.0999 14.4766 47.3237C13.7866 46.5474 13.3985 45.5123 13.3985 44.4342C13.3985 43.356 13.7866 42.3641 14.4766 41.5447C15.1667 40.7684 16.1586 40.2509 17.1936 40.1215C17.3661 40.1215 17.5386 40.0784 17.7111 40.0784C18.6168 40.0784 19.4362 40.3371 20.1694 40.8547C21.0319 41.4584 21.6788 42.3641 21.8944 43.3991L21.9375 43.5716H33.1074V3.76573C33.1074 3.33447 32.9349 2.9032 32.633 2.60131C32.3311 2.29943 31.8998 2.12692 31.4685 2.12692H25.8189L24.827 5.62018C24.6545 6.22395 24.3095 6.74147 23.792 7.12961C23.2745 7.51775 22.7138 7.69026 22.0669 7.69026H13.3553C12.7515 7.69026 12.1046 7.47463 11.6303 7.12961C11.1559 6.74147 10.7677 6.22395 10.5952 5.62018L9.60332 2.12692H3.95372V2.0838ZM40.8702 52.7145H71.7057V3.76573C71.7057 3.33447 71.5332 2.9032 71.2313 2.60131C70.9294 2.29943 70.4981 2.12692 70.0669 2.12692H64.4173L63.4254 5.62018C63.2529 6.22395 62.9079 6.74147 62.3904 7.12961C61.916 7.51775 61.2691 7.69026 60.6653 7.69026H51.9537C51.3068 7.69026 50.7461 7.47463 50.2286 7.12961C49.7111 6.74147 49.3661 6.22395 49.1936 5.62018L48.2017 2.12692H42.5521C42.1208 2.12692 41.6895 2.29943 41.3876 2.60131C41.0858 2.9032 40.9133 3.33447 40.9133 3.76573V43.5716H55.9645L53.9807 41.5878C53.8944 41.5016 53.8513 41.4153 53.8081 41.329C53.765 41.2428 53.7219 41.1134 53.7219 40.984C53.7219 40.8547 53.765 40.7684 53.8081 40.639C53.8513 40.5528 53.8944 40.4234 53.9807 40.3371C54.0669 40.2509 54.1532 40.2078 54.2394 40.1646C54.3257 40.1215 54.455 40.0784 54.5844 40.0784C54.7138 40.0784 54.8 40.1215 54.9294 40.1646C55.0157 40.2078 55.1451 40.294 55.1882 40.3371L58.6814 43.8304C58.7677 43.9166 58.8108 44.0029 58.8539 44.0892C58.8971 44.1754 58.9402 44.3048 58.9402 44.4342C58.9402 44.5635 58.8971 44.6498 58.8539 44.7792C58.8108 44.8654 58.7677 44.9948 58.6814 45.0811L55.1882 48.5743C55.1019 48.6606 55.0157 48.7037 54.9294 48.7468C54.8432 48.79 54.7138 48.8331 54.5844 48.8331C54.455 48.8331 54.3688 48.79 54.2394 48.7468C54.1532 48.7037 54.0238 48.6175 53.9807 48.5743C53.8082 48.4018 53.7219 48.1862 53.7219 47.9706C53.7219 47.7549 53.8082 47.5393 53.9807 47.3668L55.9645 45.3829H40.9133V52.7145H40.8702ZM17.7111 41.8034C17.1936 41.8034 16.6761 41.9759 16.2448 42.2347C15.8135 42.5366 15.4685 42.9247 15.296 43.3991C15.0804 43.8735 15.0373 44.391 15.1666 44.9086C15.2529 45.4261 15.5117 45.9005 15.8998 46.2455C16.2879 46.5905 16.7192 46.8493 17.2367 46.9786C17.4092 47.0218 17.5817 47.0218 17.7542 47.0218C18.0993 47.0218 18.4443 46.9355 18.7462 46.8061C19.2205 46.5905 19.6087 46.2886 19.9106 45.8573C20.2125 45.4261 20.3418 44.9086 20.3418 44.391C20.3418 43.701 20.04 43.011 19.5656 42.5366C19.0481 42.1053 18.4012 41.8034 17.7111 41.8034ZM12.234 5.10266C12.3203 5.31829 12.4497 5.53393 12.6653 5.70643C12.8809 5.83581 13.0966 5.92206 13.3553 5.92206H22.0669C22.3257 5.92206 22.5413 5.83581 22.757 5.70643C22.9726 5.57705 23.102 5.36142 23.1882 5.10266L24.0508 2.0838H11.4146L12.234 5.10266ZM49.9699 2.0838L50.8324 5.10266C50.9187 5.36142 51.048 5.53393 51.2637 5.70643C51.4793 5.83581 51.6949 5.92206 51.9537 5.92206H60.6653C60.9241 5.92206 61.1397 5.83581 61.3553 5.70643C61.5709 5.57705 61.7003 5.36142 61.7866 5.10266L62.6491 2.0838H49.9699Z" fill="#C5C5C5" stroke="#C5C5C5" stroke-width="3" mask="url(#path-1-inside-1_1108_309)"></path><path d="M7.08295 20.4239C7.0699 20.4192 7.05367 20.4134 7.03577 20.4072C7.0344 20.4065 7.03307 20.4059 7.03177 20.4053L7.02656 20.4029L7.02637 20.4027C7.02464 20.3999 7.02142 20.3944 7.01598 20.3842C7.00958 20.3722 7.00288 20.3588 6.99145 20.336C6.99165 20.3364 6.99057 20.3342 6.98896 20.3301C6.98739 20.326 6.98597 20.3216 6.9849 20.3177C6.9847 20.317 6.98452 20.3163 6.98438 20.3157V12.5059C6.98679 12.4988 6.99022 12.489 6.99526 12.4749C6.99651 12.4714 6.9979 12.4675 6.9994 12.4633C7.00408 12.4503 7.00989 12.4341 7.01615 12.4162C7.01678 12.4148 7.0174 12.4135 7.018 12.4122L7.02039 12.407L7.02058 12.4068C7.02338 12.4051 7.02886 12.4019 7.03908 12.3964C7.04094 12.3954 7.04282 12.3944 7.04477 12.3934C7.0591 12.3884 7.0721 12.3837 7.08292 12.3798C7.08711 12.3783 7.09097 12.3769 7.09446 12.3757C7.10858 12.3707 7.11838 12.3672 7.12551 12.3648H28.2866C28.2938 12.3672 28.3036 12.3707 28.3177 12.3757C28.3211 12.3769 28.325 12.3783 28.3292 12.3798C28.34 12.3837 28.353 12.3884 28.3673 12.3934C28.3693 12.3944 28.3712 12.3954 28.373 12.3964C28.3777 12.3989 28.3813 12.4009 28.3842 12.4025L28.3845 12.4328L28.3846 12.4773V20.2978C28.3822 20.305 28.3788 20.3148 28.3737 20.3289C28.3725 20.3324 28.3711 20.3363 28.3696 20.3404C28.3651 20.353 28.3596 20.3684 28.3536 20.3854C28.3488 20.3871 28.3432 20.389 28.3368 20.3912L28.2863 20.408L28.2386 20.4319C28.239 20.4316 28.2368 20.4327 28.2327 20.4343C28.2286 20.4359 28.2243 20.4373 28.2203 20.4384C28.2196 20.4386 28.2189 20.4388 28.2183 20.4389H7.12551C7.11838 20.4365 7.10858 20.4331 7.09446 20.428C7.09098 20.4268 7.08713 20.4254 7.08295 20.4239ZM7.02233 12.4028L7.02314 12.401L7.02063 12.4065L7.02233 12.4028ZM7.20944 19.4639V20.2139H7.95944H27.4527H28.2027V19.4639V13.3399V12.5899H27.4527H7.95944H7.20944V13.3399V19.4639Z" fill="#C5C5C5" stroke="#C5C5C5" stroke-width="1.5"></path><path d="M45.5494 34.1856C45.5427 34.1826 45.5369 34.18 45.5318 34.1777C45.5264 34.1673 45.5202 34.155 45.511 34.1365L45.511 34.1366C45.511 34.1366 45.51 34.1345 45.5085 34.1306C45.5069 34.1266 45.5055 34.1222 45.5044 34.1183C45.5042 34.1176 45.5041 34.1169 45.5039 34.1163V12.5059C45.5063 12.4988 45.5098 12.489 45.5148 12.4748C45.516 12.4713 45.5174 12.4675 45.5189 12.4632C45.5234 12.4507 45.529 12.4353 45.5349 12.4183C45.5397 12.4166 45.5453 12.4147 45.5517 12.4126L45.6023 12.3957L45.6499 12.3719C45.6499 12.3719 45.652 12.3709 45.6559 12.3694C45.6599 12.3678 45.6643 12.3664 45.6682 12.3653C45.669 12.3651 45.6696 12.365 45.6702 12.3648H66.8778C66.8851 12.3648 66.894 12.3662 66.9049 12.3707C66.9155 12.3752 66.9318 12.3844 66.9513 12.4039C66.9708 12.4234 66.98 12.4397 66.9845 12.4503C66.989 12.4611 66.9904 12.4701 66.9904 12.4773V34.1269C66.9904 34.1342 66.989 34.1431 66.9845 34.154C66.98 34.1646 66.9708 34.1809 66.9513 34.2004C66.9318 34.2198 66.9155 34.229 66.9049 34.2335C66.894 34.2381 66.8851 34.2395 66.8778 34.2395H45.6881C45.681 34.237 45.6712 34.2336 45.6571 34.2286C45.6536 34.2273 45.6497 34.2259 45.6454 34.2244C45.6323 34.2197 45.6161 34.2139 45.5981 34.2076C45.5962 34.2067 45.5943 34.2058 45.5925 34.205C45.5788 34.1987 45.5647 34.1924 45.5538 34.1876L45.5494 34.1856ZM45.7721 33.2644V34.0144H46.5221H66.0153H66.7653V33.2644V13.3399V12.5899H66.0153H46.5221H45.7721V13.3399V33.2644Z" fill="#C5C5C5" stroke="#C5C5C5" stroke-width="1.5"></path><path d="M28.3696 34.141C28.3649 34.154 28.3591 34.1702 28.3529 34.1881C28.3522 34.1894 28.3516 34.1908 28.351 34.1921L28.3486 34.1973L28.3484 34.1975C28.3456 34.1992 28.3402 34.2024 28.3299 34.2079C28.3179 34.2143 28.3046 34.221 28.2817 34.2324C28.2818 34.2323 28.2817 34.2324 28.2815 34.2325C28.2808 34.2328 28.2788 34.2337 28.2758 34.2349C28.2717 34.2364 28.2674 34.2379 28.2634 34.2389C28.2627 34.2391 28.262 34.2393 28.2614 34.2395H7.09691C7.08964 34.2395 7.08074 34.2381 7.06991 34.2336C7.05926 34.2291 7.04296 34.2199 7.02348 34.2004L6.49315 34.7307L7.02348 34.2004C7.004 34.1809 6.99478 34.1646 6.99029 34.1539C6.98573 34.1431 6.98438 34.1342 6.98438 34.1269C6.98438 34.1197 6.98573 34.1108 6.99029 34.0999C6.99478 34.0893 7.004 34.073 7.02348 34.0535C7.04296 34.034 7.05925 34.0248 7.0699 34.0203C7.08073 34.0158 7.08963 34.0144 7.09691 34.0144H28.2866C28.2938 34.0168 28.3036 34.0202 28.3177 34.0253C28.3212 34.0265 28.325 34.0279 28.3292 34.0294C28.34 34.0333 28.353 34.038 28.3673 34.043C28.3693 34.044 28.3712 34.045 28.373 34.046C28.3777 34.0485 28.3813 34.0505 28.3842 34.0521L28.3845 34.0824L28.3846 34.0985C28.3822 34.1056 28.3787 34.1154 28.3737 34.1294C28.3725 34.1329 28.3711 34.1368 28.3696 34.141Z" fill="#C5C5C5" stroke="#C5C5C5" stroke-width="1.5"></path><path d="M7.09691 27.3391C7.08964 27.3391 7.08074 27.3378 7.06991 27.3332C7.05926 27.3287 7.04296 27.3195 7.02348 27.3L6.49315 27.8304L7.02348 27.3C7.004 27.2806 6.99478 27.2643 6.99029 27.2536C6.98573 27.2428 6.98438 27.2339 6.98438 27.2266C6.98438 27.2193 6.98573 27.2104 6.99029 27.1996C6.99478 27.1889 7.004 27.1726 7.02348 27.1532C7.04296 27.1337 7.05925 27.1245 7.0699 27.12C7.08073 27.1154 7.08963 27.1141 7.09691 27.1141H28.3153C28.3225 27.1141 28.3314 27.1154 28.3422 27.12C28.3529 27.1245 28.3692 27.1337 28.3887 27.1532C28.4081 27.1727 28.4174 27.189 28.4219 27.1996C28.4264 27.2105 28.4278 27.2194 28.4278 27.2266C28.4278 27.2338 28.4264 27.2427 28.4219 27.2536C28.4174 27.2642 28.4082 27.2805 28.3887 27.3C28.3692 27.3195 28.3529 27.3288 28.3422 27.3332C28.3314 27.3378 28.3225 27.3391 28.3153 27.3391H7.09691Z" fill="#C5C5C5" stroke="#C5C5C5" stroke-width="1.5"></path></svg>