<svg xmlns="http://www.w3.org/2000/svg" width="50" height="50" viewBox="0 0 50 50" fill="none"><path d="M49.5859 24.978C49.5859 11.447 38.6169 0.477966 25.0859 0.477966C11.555 0.477966 0.585938 11.447 0.585938 24.978C0.585938 38.5089 11.555 49.478 25.0859 49.478C38.6169 49.478 49.5859 38.5089 49.5859 24.978Z" fill="#F0F4FF"></path><path d="M19.8788 29.7709C19.4883 30.1614 19.4883 30.7946 19.8788 31.1851C20.2693 31.5756 20.9025 31.5756 21.293 31.1851L19.8788 29.7709ZM31.4854 20.5785C31.4854 20.0262 31.0377 19.5785 30.4854 19.5785H21.4854C20.9331 19.5785 20.4854 20.0262 20.4854 20.5785C20.4854 21.1308 20.9331 21.5785 21.4854 21.5785H29.4854V29.5785C29.4854 30.1308 29.9331 30.5785 30.4854 30.5785C31.0377 30.5785 31.4854 30.1308 31.4854 29.5785V20.5785ZM21.293 31.1851L31.1925 21.2856L29.7783 19.8714L19.8788 29.7709L21.293 31.1851Z" fill="#0449A9"></path></svg>