<svg xmlns="http://www.w3.org/2000/svg" width="42" height="42" viewBox="0 0 42 42" fill="none"><circle cx="21" cy="21" r="21" fill="#F0F4FF"></circle><path d="M21.4332 27.5118C21.2872 27.3568 21.094 27.2722 20.8941 27.276C20.6943 27.2798 20.5036 27.3716 20.3623 27.532C20.221 27.6925 20.1402 27.909 20.1368 28.1358C20.1335 28.3627 20.2079 28.5821 20.3444 28.7478L22.3903 31.0706C22.5348 31.2344 22.7306 31.3264 22.9347 31.3264C23.1389 31.3264 23.3346 31.2344 23.4791 31.0706L29.8798 23.8036C30.0164 23.6379 30.0908 23.4184 30.0875 23.1916C30.0842 22.9647 30.0033 22.7482 29.862 22.5878C29.7207 22.4274 29.53 22.3356 29.3302 22.3318C29.1304 22.328 28.937 22.4125 28.7911 22.5675L22.9347 29.2165L21.4332 27.5118Z" fill="#0449A9"></path><path d="M13.7926 31.3291H18.4196C18.6242 31.3291 18.8203 31.2369 18.965 31.0727C19.1096 30.9085 19.1908 30.6858 19.1908 30.4536C19.1908 30.2214 19.1096 29.9987 18.965 29.8345C18.8203 29.6703 18.6242 29.578 18.4196 29.578H13.7926C13.4618 29.5778 13.1446 29.4285 12.9107 29.1629C12.6768 28.8973 12.5453 28.5373 12.5451 28.1617V19.9975H27.3989L28.9412 19.9563V16.0164C28.9405 15.1768 28.6465 14.3719 28.1236 13.7783C27.6007 13.1846 26.8918 12.8508 26.1523 12.85H24.3133V11.8755C24.3133 11.6433 24.232 11.4206 24.0874 11.2564C23.9428 11.0922 23.7466 11 23.5421 11C23.3376 11 23.1414 11.0922 22.9968 11.2564C22.8522 11.4206 22.7709 11.6433 22.7709 11.8755V12.85H17.3273V11.8755C17.3273 11.6433 17.246 11.4206 17.1014 11.2564C16.9568 11.0922 16.7607 11 16.5561 11C16.3516 11 16.1554 11.0922 16.0108 11.2564C15.8662 11.4206 15.7849 11.6433 15.7849 11.8755V12.85H13.789C13.0495 12.8508 12.3405 13.1846 11.8177 13.7783C11.2948 14.3719 11.0007 15.1768 11 16.0164V28.1607C11.0001 28.5769 11.0724 28.989 11.2128 29.3735C11.3533 29.758 11.559 30.1073 11.8183 30.4015C12.0776 30.6958 12.3854 30.9291 12.7242 31.0883C13.0629 31.2474 13.426 31.3293 13.7926 31.3291ZM12.5451 16.0184C12.5453 15.6429 12.6768 15.2828 12.9107 15.0172C13.1446 14.7517 13.4618 14.6024 13.7926 14.6021H26.1514C26.482 14.6026 26.799 14.7521 27.0327 15.0176C27.2664 15.2831 27.3977 15.643 27.398 16.0184V18.5019H12.546L12.5451 16.0184Z" fill="#0449A9"></path></svg>