<svg xmlns="http://www.w3.org/2000/svg" width="64" height="48" viewBox="0 0 64 48" fill="none"><mask id="path-1-outside-1_888_53" maskUnits="userSpaceOnUse" x="0" y="0" width="64" height="48" fill="black"><rect fill="white" width="64" height="48"></rect><path d="M13.2536 47.012C13.0423 47.0117 12.8398 46.9283 12.6904 46.7801C12.541 46.632 12.4569 46.4311 12.4566 46.2215V37.7152H1.79699C1.58572 37.7149 1.3832 37.6315 1.2338 37.4833C1.08441 37.3351 1.00034 37.1343 1.00002 36.9247V30.7268C0.99665 28.7237 1.39258 26.7396 2.16505 24.8888C2.93752 23.038 4.07128 21.3569 5.50112 19.9422C6.78053 18.6792 8.27236 17.6472 9.90947 16.8929L10.2329 16.7489L9.98026 16.5068C9.11323 15.6695 8.42466 14.6681 7.95545 13.5618C7.48623 12.4555 7.24594 11.2669 7.24884 10.0668C7.24827 8.46044 7.67848 6.88288 8.49535 5.49586C9.31222 4.10884 10.4863 2.96229 11.8973 2.17378C13.3083 1.38528 14.9053 0.983201 16.5246 1.00879C18.1439 1.03438 19.7273 1.48671 21.1122 2.31939C21.2935 2.42839 21.4236 2.60434 21.4741 2.80854C21.5246 3.01275 21.4912 3.22847 21.3813 3.40826C21.2714 3.58805 21.094 3.71717 20.8881 3.76723C20.6822 3.81729 20.4648 3.78418 20.2835 3.67518C19.1407 2.98853 17.8344 2.6156 16.4985 2.59462C15.1625 2.57364 13.845 2.90537 12.6809 3.55579C11.5168 4.20621 10.548 5.15195 9.87374 6.29606C9.19952 7.44018 8.84413 8.74154 8.844 10.0668C8.84717 11.2236 9.12047 12.3639 9.64247 13.3984C10.1645 14.4329 10.921 15.3333 11.8526 16.0292C12.7843 16.7251 13.8659 17.1975 15.0125 17.4093C16.1591 17.6211 17.3395 17.5666 18.4613 17.25C18.5315 17.2298 18.6043 17.2196 18.6773 17.2198C18.8698 17.2192 19.056 17.2877 19.2015 17.4126C19.3471 17.5376 19.4421 17.7106 19.469 17.8996C19.4959 18.0887 19.453 18.281 19.348 18.4411C19.2431 18.6011 19.0834 18.7181 18.8982 18.7704C18.0787 19.003 17.2304 19.1212 16.378 19.1215C14.799 19.1125 13.2497 18.6953 11.883 17.911L11.7853 17.8553L11.6779 17.894C9.78495 18.575 8.06263 19.6536 6.62884 21.0559C5.34829 22.3243 4.33321 23.8312 3.64201 25.4901C2.95081 27.149 2.59711 28.927 2.60128 30.722V36.1282H12.5457L12.5689 35.9115C13.0215 31.495 15.0059 27.3712 18.1831 24.2444C19.8501 22.6006 21.8008 21.2665 23.9425 20.3054L24.2598 20.1613L24.0157 19.9192C22.4663 18.3567 21.4169 16.3748 20.9993 14.2226C20.5818 12.0705 20.8146 9.84388 21.6687 7.82255C22.5228 5.80121 23.96 4.07525 25.7999 2.86142C27.6397 1.64758 29.8001 1 32.0098 1C34.2195 1 36.3799 1.64758 38.2197 2.86142C40.0595 4.07525 41.4967 5.80121 42.3508 7.82255C43.2049 9.84388 43.4378 12.0705 43.0203 14.2226C42.6027 16.3748 41.5533 18.3567 40.0039 19.9192L39.7598 20.1613L40.0783 20.3042C43.1733 21.7051 45.8474 23.8809 47.8375 26.6176C49.8276 29.3543 51.0653 32.5577 51.4287 35.9127L51.4519 36.1294H61.4122V30.7268C61.406 27.9238 60.5325 25.1903 58.9097 22.8955C57.2869 20.6008 54.993 18.8554 52.338 17.8952L52.2318 17.8565L52.1342 17.9122C50.7647 18.6984 49.2117 19.1157 47.6294 19.1227C46.7769 19.1224 45.9287 19.0042 45.1091 18.7717C44.9241 18.7194 44.7644 18.6025 44.6595 18.4425C44.5546 18.2826 44.5115 18.0904 44.5383 17.9014C44.5651 17.7125 44.6598 17.5395 44.8051 17.4145C44.9504 17.2894 45.1364 17.2207 45.3288 17.221C45.4023 17.2208 45.4754 17.2309 45.546 17.2512C46.7491 17.5932 48.0191 17.6326 49.2413 17.3659C50.4636 17.0992 51.5996 16.5347 52.5468 15.7235C53.494 14.9122 54.2226 13.8798 54.6668 12.7193C55.1109 11.5588 55.2567 10.3069 55.0909 9.07656C54.9251 7.84623 54.453 6.67622 53.7171 5.67219C52.9813 4.66816 52.0049 3.86173 50.8761 3.3257C49.7473 2.78967 48.5017 2.54094 47.2517 2.60195C46.0018 2.66297 44.7868 3.03181 43.7166 3.67518C43.5924 3.74934 43.4502 3.78867 43.3053 3.78897C43.1676 3.78983 43.0321 3.75498 42.9122 3.68788C42.7923 3.62078 42.6922 3.52376 42.6218 3.40644C42.5674 3.31728 42.5312 3.21836 42.5154 3.11533C42.4996 3.01229 42.5044 2.90718 42.5295 2.80599C42.5547 2.7048 42.5997 2.60953 42.6621 2.52562C42.7244 2.44171 42.8028 2.37081 42.8927 2.31697C44.2777 1.48428 45.861 1.03195 47.4803 1.00637C49.0996 0.98078 50.6966 1.38286 52.1076 2.17136C53.5186 2.95986 54.6927 4.10642 55.5096 5.49344C56.3264 6.88046 56.7567 8.45802 56.7561 10.0643C56.7583 11.2659 56.5165 12.4556 56.0451 13.5624C55.5737 14.6693 54.8824 15.6706 54.0125 16.5068L53.7598 16.7489L54.0808 16.8965C56.7467 18.1126 59.0045 20.0624 60.5856 22.5141C62.1667 24.9659 63.0048 27.8164 63 30.7268V36.9247C62.9997 37.1345 62.9155 37.3355 62.7658 37.4837C62.6161 37.6319 62.4133 37.7152 62.2018 37.7152H51.5434V46.2215C51.5431 46.4311 51.4591 46.632 51.3097 46.7801C51.1603 46.9283 50.9577 47.0117 50.7465 47.012H13.2536ZM25.5681 21.3598C23.225 22.2536 21.0934 23.6182 19.3071 25.3678C17.6384 27.0192 16.3156 28.9818 15.4149 31.1425C14.5142 33.3032 14.0534 35.6192 14.0591 37.9573V45.4299H49.9495V37.9573C49.9495 30.6493 45.3239 23.9781 38.4417 21.3549L38.3196 21.3101L38.2147 21.3791C36.3764 22.5998 34.2143 23.2519 32.0022 23.253C29.79 23.2541 27.6273 22.604 25.7878 21.3852L25.6829 21.315L25.5681 21.3598ZM32 2.5966C30.0979 2.5966 28.2385 3.15605 26.6569 4.2042C25.0754 5.25236 23.8427 6.74214 23.1148 8.48515C22.3869 10.2282 22.1964 12.1461 22.5675 13.9965C22.9386 15.8469 23.8545 17.5466 25.1995 18.8806C26.5446 20.2146 28.2582 21.1231 30.1238 21.4912C31.9894 21.8593 33.9231 21.6704 35.6804 20.9484C37.4377 20.2264 38.9398 19.0038 39.9965 17.4351C41.0533 15.8664 41.6173 14.0222 41.6173 12.1355C41.6151 9.60613 40.6012 7.18091 38.7981 5.39211C36.9951 3.60332 34.5502 2.59706 32 2.59418V2.5966Z"></path></mask><path d="M13.2536 47.012C13.0423 47.0117 12.8398 46.9283 12.6904 46.7801C12.541 46.632 12.4569 46.4311 12.4566 46.2215V37.7152H1.79699C1.58572 37.7149 1.3832 37.6315 1.2338 37.4833C1.08441 37.3351 1.00034 37.1343 1.00002 36.9247V30.7268C0.99665 28.7237 1.39258 26.7396 2.16505 24.8888C2.93752 23.038 4.07128 21.3569 5.50112 19.9422C6.78053 18.6792 8.27236 17.6472 9.90947 16.8929L10.2329 16.7489L9.98026 16.5068C9.11323 15.6695 8.42466 14.6681 7.95545 13.5618C7.48623 12.4555 7.24594 11.2669 7.24884 10.0668C7.24827 8.46044 7.67848 6.88288 8.49535 5.49586C9.31222 4.10884 10.4863 2.96229 11.8973 2.17378C13.3083 1.38528 14.9053 0.983201 16.5246 1.00879C18.1439 1.03438 19.7273 1.48671 21.1122 2.31939C21.2935 2.42839 21.4236 2.60434 21.4741 2.80854C21.5246 3.01275 21.4912 3.22847 21.3813 3.40826C21.2714 3.58805 21.094 3.71717 20.8881 3.76723C20.6822 3.81729 20.4648 3.78418 20.2835 3.67518C19.1407 2.98853 17.8344 2.6156 16.4985 2.59462C15.1625 2.57364 13.845 2.90537 12.6809 3.55579C11.5168 4.20621 10.548 5.15195 9.87374 6.29606C9.19952 7.44018 8.84413 8.74154 8.844 10.0668C8.84717 11.2236 9.12047 12.3639 9.64247 13.3984C10.1645 14.4329 10.921 15.3333 11.8526 16.0292C12.7843 16.7251 13.8659 17.1975 15.0125 17.4093C16.1591 17.6211 17.3395 17.5666 18.4613 17.25C18.5315 17.2298 18.6043 17.2196 18.6773 17.2198C18.8698 17.2192 19.056 17.2877 19.2015 17.4126C19.3471 17.5376 19.4421 17.7106 19.469 17.8996C19.4959 18.0887 19.453 18.281 19.348 18.4411C19.2431 18.6011 19.0834 18.7181 18.8982 18.7704C18.0787 19.003 17.2304 19.1212 16.378 19.1215C14.799 19.1125 13.2497 18.6953 11.883 17.911L11.7853 17.8553L11.6779 17.894C9.78495 18.575 8.06263 19.6536 6.62884 21.0559C5.34829 22.3243 4.33321 23.8312 3.64201 25.4901C2.95081 27.149 2.59711 28.927 2.60128 30.722V36.1282H12.5457L12.5689 35.9115C13.0215 31.495 15.0059 27.3712 18.1831 24.2444C19.8501 22.6006 21.8008 21.2665 23.9425 20.3054L24.2598 20.1613L24.0157 19.9192C22.4663 18.3567 21.4169 16.3748 20.9993 14.2226C20.5818 12.0705 20.8146 9.84388 21.6687 7.82255C22.5228 5.80121 23.96 4.07525 25.7999 2.86142C27.6397 1.64758 29.8001 1 32.0098 1C34.2195 1 36.3799 1.64758 38.2197 2.86142C40.0595 4.07525 41.4967 5.80121 42.3508 7.82255C43.2049 9.84388 43.4378 12.0705 43.0203 14.2226C42.6027 16.3748 41.5533 18.3567 40.0039 19.9192L39.7598 20.1613L40.0783 20.3042C43.1733 21.7051 45.8474 23.8809 47.8375 26.6176C49.8276 29.3543 51.0653 32.5577 51.4287 35.9127L51.4519 36.1294H61.4122V30.7268C61.406 27.9238 60.5325 25.1903 58.9097 22.8955C57.2869 20.6008 54.993 18.8554 52.338 17.8952L52.2318 17.8565L52.1342 17.9122C50.7647 18.6984 49.2117 19.1157 47.6294 19.1227C46.7769 19.1224 45.9287 19.0042 45.1091 18.7717C44.9241 18.7194 44.7644 18.6025 44.6595 18.4425C44.5546 18.2826 44.5115 18.0904 44.5383 17.9014C44.5651 17.7125 44.6598 17.5395 44.8051 17.4145C44.9504 17.2894 45.1364 17.2207 45.3288 17.221C45.4023 17.2208 45.4754 17.2309 45.546 17.2512C46.7491 17.5932 48.0191 17.6326 49.2413 17.3659C50.4636 17.0992 51.5996 16.5347 52.5468 15.7235C53.494 14.9122 54.2226 13.8798 54.6668 12.7193C55.1109 11.5588 55.2567 10.3069 55.0909 9.07656C54.9251 7.84623 54.453 6.67622 53.7171 5.67219C52.9813 4.66816 52.0049 3.86173 50.8761 3.3257C49.7473 2.78967 48.5017 2.54094 47.2517 2.60195C46.0018 2.66297 44.7868 3.03181 43.7166 3.67518C43.5924 3.74934 43.4502 3.78867 43.3053 3.78897C43.1676 3.78983 43.0321 3.75498 42.9122 3.68788C42.7923 3.62078 42.6922 3.52376 42.6218 3.40644C42.5674 3.31728 42.5312 3.21836 42.5154 3.11533C42.4996 3.01229 42.5044 2.90718 42.5295 2.80599C42.5547 2.7048 42.5997 2.60953 42.6621 2.52562C42.7244 2.44171 42.8028 2.37081 42.8927 2.31697C44.2777 1.48428 45.861 1.03195 47.4803 1.00637C49.0996 0.98078 50.6966 1.38286 52.1076 2.17136C53.5186 2.95986 54.6927 4.10642 55.5096 5.49344C56.3264 6.88046 56.7567 8.45802 56.7561 10.0643C56.7583 11.2659 56.5165 12.4556 56.0451 13.5624C55.5737 14.6693 54.8824 15.6706 54.0125 16.5068L53.7598 16.7489L54.0808 16.8965C56.7467 18.1126 59.0045 20.0624 60.5856 22.5141C62.1667 24.9659 63.0048 27.8164 63 30.7268V36.9247C62.9997 37.1345 62.9155 37.3355 62.7658 37.4837C62.6161 37.6319 62.4133 37.7152 62.2018 37.7152H51.5434V46.2215C51.5431 46.4311 51.4591 46.632 51.3097 46.7801C51.1603 46.9283 50.9577 47.0117 50.7465 47.012H13.2536ZM25.5681 21.3598C23.225 22.2536 21.0934 23.6182 19.3071 25.3678C17.6384 27.0192 16.3156 28.9818 15.4149 31.1425C14.5142 33.3032 14.0534 35.6192 14.0591 37.9573V45.4299H49.9495V37.9573C49.9495 30.6493 45.3239 23.9781 38.4417 21.3549L38.3196 21.3101L38.2147 21.3791C36.3764 22.5998 34.2143 23.2519 32.0022 23.253C29.79 23.2541 27.6273 22.604 25.7878 21.3852L25.6829 21.315L25.5681 21.3598ZM32 2.5966C30.0979 2.5966 28.2385 3.15605 26.6569 4.2042C25.0754 5.25236 23.8427 6.74214 23.1148 8.48515C22.3869 10.2282 22.1964 12.1461 22.5675 13.9965C22.9386 15.8469 23.8545 17.5466 25.1995 18.8806C26.5446 20.2146 28.2582 21.1231 30.1238 21.4912C31.9894 21.8593 33.9231 21.6704 35.6804 20.9484C37.4377 20.2264 38.9398 19.0038 39.9965 17.4351C41.0533 15.8664 41.6173 14.0222 41.6173 12.1355C41.6151 9.60613 40.6012 7.18091 38.7981 5.39211C36.9951 3.60332 34.5502 2.59706 32 2.59418V2.5966Z" fill="#0369CA"></path><path d="M13.2536 47.012C13.0423 47.0117 12.8398 46.9283 12.6904 46.7801C12.541 46.632 12.4569 46.4311 12.4566 46.2215V37.7152H1.79699C1.58572 37.7149 1.3832 37.6315 1.2338 37.4833C1.08441 37.3351 1.00034 37.1343 1.00002 36.9247V30.7268C0.99665 28.7237 1.39258 26.7396 2.16505 24.8888C2.93752 23.038 4.07128 21.3569 5.50112 19.9422C6.78053 18.6792 8.27236 17.6472 9.90947 16.8929L10.2329 16.7489L9.98026 16.5068C9.11323 15.6695 8.42466 14.6681 7.95545 13.5618C7.48623 12.4555 7.24594 11.2669 7.24884 10.0668C7.24827 8.46044 7.67848 6.88288 8.49535 5.49586C9.31222 4.10884 10.4863 2.96229 11.8973 2.17378C13.3083 1.38528 14.9053 0.983201 16.5246 1.00879C18.1439 1.03438 19.7273 1.48671 21.1122 2.31939C21.2935 2.42839 21.4236 2.60434 21.4741 2.80854C21.5246 3.01275 21.4912 3.22847 21.3813 3.40826C21.2714 3.58805 21.094 3.71717 20.8881 3.76723C20.6822 3.81729 20.4648 3.78418 20.2835 3.67518C19.1407 2.98853 17.8344 2.6156 16.4985 2.59462C15.1625 2.57364 13.845 2.90537 12.6809 3.55579C11.5168 4.20621 10.548 5.15195 9.87374 6.29606C9.19952 7.44018 8.84413 8.74154 8.844 10.0668C8.84717 11.2236 9.12047 12.3639 9.64247 13.3984C10.1645 14.4329 10.921 15.3333 11.8526 16.0292C12.7843 16.7251 13.8659 17.1975 15.0125 17.4093C16.1591 17.6211 17.3395 17.5666 18.4613 17.25C18.5315 17.2298 18.6043 17.2196 18.6773 17.2198C18.8698 17.2192 19.056 17.2877 19.2015 17.4126C19.3471 17.5376 19.4421 17.7106 19.469 17.8996C19.4959 18.0887 19.453 18.281 19.348 18.4411C19.2431 18.6011 19.0834 18.7181 18.8982 18.7704C18.0787 19.003 17.2304 19.1212 16.378 19.1215C14.799 19.1125 13.2497 18.6953 11.883 17.911L11.7853 17.8553L11.6779 17.894C9.78495 18.575 8.06263 19.6536 6.62884 21.0559C5.34829 22.3243 4.33321 23.8312 3.64201 25.4901C2.95081 27.149 2.59711 28.927 2.60128 30.722V36.1282H12.5457L12.5689 35.9115C13.0215 31.495 15.0059 27.3712 18.1831 24.2444C19.8501 22.6006 21.8008 21.2665 23.9425 20.3054L24.2598 20.1613L24.0157 19.9192C22.4663 18.3567 21.4169 16.3748 20.9993 14.2226C20.5818 12.0705 20.8146 9.84388 21.6687 7.82255C22.5228 5.80121 23.96 4.07525 25.7999 2.86142C27.6397 1.64758 29.8001 1 32.0098 1C34.2195 1 36.3799 1.64758 38.2197 2.86142C40.0595 4.07525 41.4967 5.80121 42.3508 7.82255C43.2049 9.84388 43.4378 12.0705 43.0203 14.2226C42.6027 16.3748 41.5533 18.3567 40.0039 19.9192L39.7598 20.1613L40.0783 20.3042C43.1733 21.7051 45.8474 23.8809 47.8375 26.6176C49.8276 29.3543 51.0653 32.5577 51.4287 35.9127L51.4519 36.1294H61.4122V30.7268C61.406 27.9238 60.5325 25.1903 58.9097 22.8955C57.2869 20.6008 54.993 18.8554 52.338 17.8952L52.2318 17.8565L52.1342 17.9122C50.7647 18.6984 49.2117 19.1157 47.6294 19.1227C46.7769 19.1224 45.9287 19.0042 45.1091 18.7717C44.9241 18.7194 44.7644 18.6025 44.6595 18.4425C44.5546 18.2826 44.5115 18.0904 44.5383 17.9014C44.5651 17.7125 44.6598 17.5395 44.8051 17.4145C44.9504 17.2894 45.1364 17.2207 45.3288 17.221C45.4023 17.2208 45.4754 17.2309 45.546 17.2512C46.7491 17.5932 48.0191 17.6326 49.2413 17.3659C50.4636 17.0992 51.5996 16.5347 52.5468 15.7235C53.494 14.9122 54.2226 13.8798 54.6668 12.7193C55.1109 11.5588 55.2567 10.3069 55.0909 9.07656C54.9251 7.84623 54.453 6.67622 53.7171 5.67219C52.9813 4.66816 52.0049 3.86173 50.8761 3.3257C49.7473 2.78967 48.5017 2.54094 47.2517 2.60195C46.0018 2.66297 44.7868 3.03181 43.7166 3.67518C43.5924 3.74934 43.4502 3.78867 43.3053 3.78897C43.1676 3.78983 43.0321 3.75498 42.9122 3.68788C42.7923 3.62078 42.6922 3.52376 42.6218 3.40644C42.5674 3.31728 42.5312 3.21836 42.5154 3.11533C42.4996 3.01229 42.5044 2.90718 42.5295 2.80599C42.5547 2.7048 42.5997 2.60953 42.6621 2.52562C42.7244 2.44171 42.8028 2.37081 42.8927 2.31697C44.2777 1.48428 45.861 1.03195 47.4803 1.00637C49.0996 0.98078 50.6966 1.38286 52.1076 2.17136C53.5186 2.95986 54.6927 4.10642 55.5096 5.49344C56.3264 6.88046 56.7567 8.45802 56.7561 10.0643C56.7583 11.2659 56.5165 12.4556 56.0451 13.5624C55.5737 14.6693 54.8824 15.6706 54.0125 16.5068L53.7598 16.7489L54.0808 16.8965C56.7467 18.1126 59.0045 20.0624 60.5856 22.5141C62.1667 24.9659 63.0048 27.8164 63 30.7268V36.9247C62.9997 37.1345 62.9155 37.3355 62.7658 37.4837C62.6161 37.6319 62.4133 37.7152 62.2018 37.7152H51.5434V46.2215C51.5431 46.4311 51.4591 46.632 51.3097 46.7801C51.1603 46.9283 50.9577 47.0117 50.7465 47.012H13.2536ZM25.5681 21.3598C23.225 22.2536 21.0934 23.6182 19.3071 25.3678C17.6384 27.0192 16.3156 28.9818 15.4149 31.1425C14.5142 33.3032 14.0534 35.6192 14.0591 37.9573V45.4299H49.9495V37.9573C49.9495 30.6493 45.3239 23.9781 38.4417 21.3549L38.3196 21.3101L38.2147 21.3791C36.3764 22.5998 34.2143 23.2519 32.0022 23.253C29.79 23.2541 27.6273 22.604 25.7878 21.3852L25.6829 21.315L25.5681 21.3598ZM32 2.5966C30.0979 2.5966 28.2385 3.15605 26.6569 4.2042C25.0754 5.25236 23.8427 6.74214 23.1148 8.48515C22.3869 10.2282 22.1964 12.1461 22.5675 13.9965C22.9386 15.8469 23.8545 17.5466 25.1995 18.8806C26.5446 20.2146 28.2582 21.1231 30.1238 21.4912C31.9894 21.8593 33.9231 21.6704 35.6804 20.9484C37.4377 20.2264 38.9398 19.0038 39.9965 17.4351C41.0533 15.8664 41.6173 14.0222 41.6173 12.1355C41.6151 9.60613 40.6012 7.18091 38.7981 5.39211C36.9951 3.60332 34.5502 2.59706 32 2.59418V2.5966Z" stroke="#0369CA" mask="url(#path-1-outside-1_888_53)"></path></svg>