<svg xmlns="http://www.w3.org/2000/svg" width="1142" height="608" viewBox="0 0 1142 608" fill="none"><g opacity="0.5" filter="url(#filter0_d_1059_7)"><path d="M375.359 427.834L285.519 583.441L105.839 583.441L15.9994 427.834L105.839 272.227L285.519 272.227L375.359 427.834Z" stroke="url(#paint0_linear_1059_7)" stroke-width="3"></path></g><g opacity="0.5" filter="url(#filter1_d_1059_7)"><path d="M875.785 427.834L785.945 583.441L606.265 583.441L516.425 427.834L606.265 272.227L785.945 272.227L875.785 427.834Z" stroke="url(#paint1_linear_1059_7)" stroke-width="3"></path></g><g opacity="0.5" filter="url(#filter2_d_1059_7)"><path d="M266.215 179.68L356.055 24.0726L535.735 24.0726L625.575 179.68L535.735 335.287L356.055 335.287L266.215 179.68Z" stroke="url(#paint2_linear_1059_7)" stroke-width="3"></path></g><g opacity="0.5" filter="url(#filter3_d_1059_7)"><path d="M766.641 179.68L856.481 24.0726L1036.16 24.0726L1126 179.68L1036.16 335.287L856.481 335.287L766.641 179.68Z" stroke="url(#paint3_linear_1059_7)" stroke-width="3"></path></g><defs><filter id="filter0_d_1059_7" x="0.265625" y="260.727" width="390.824" height="342.215" filterUnits="userSpaceOnUse" color-interpolation-filters="sRGB"><feGaussianBlur stdDeviation="7"></feGaussianBlur></filter><filter id="filter1_d_1059_7" x="500.691" y="260.727" width="390.824" height="342.215" filterUnits="userSpaceOnUse" color-interpolation-filters="sRGB"><feGaussianBlur stdDeviation="7"></feGaussianBlur></filter><filter id="filter2_d_1059_7" x="250.484" y="12.5726" width="390.824" height="342.215" filterUnits="userSpaceOnUse" color-interpolation-filters="sRGB"><feGaussianBlur stdDeviation="7"></feGaussianBlur></filter><filter id="filter3_d_1059_7" x="750.91" y="12.5726" width="390.824" height="342.215" filterUnits="userSpaceOnUse" color-interpolation-filters="sRGB"><feGaussianBlur stdDeviation="7"></feGaussianBlur></filter><linearGradient id="paint0_linear_1059_7" x1="195.689" y1="272.006" x2="195.689" y2="539.154" gradientUnits="userSpaceOnUse"><stop stop-color="white"></stop><stop offset="0.892894" stop-color="white" stop-opacity="0"></stop></linearGradient><linearGradient id="paint1_linear_1059_7" x1="696.115" y1="272.006" x2="696.115" y2="539.154" gradientUnits="userSpaceOnUse"><stop stop-color="white"></stop><stop offset="0.892894" stop-color="white" stop-opacity="0"></stop></linearGradient><linearGradient id="paint2_linear_1059_7" x1="445.885" y1="335.507" x2="445.885" y2="68.3594" gradientUnits="userSpaceOnUse"><stop stop-color="white"></stop><stop offset="0.892894" stop-color="white" stop-opacity="0"></stop></linearGradient><linearGradient id="paint3_linear_1059_7" x1="946.311" y1="335.507" x2="946.311" y2="68.3594" gradientUnits="userSpaceOnUse"><stop stop-color="white"></stop><stop offset="0.892894" stop-color="white" stop-opacity="0"></stop></linearGradient></defs></svg>