<svg xmlns="http://www.w3.org/2000/svg" width="64" height="71" viewBox="0 0 64 71" fill="none"><path d="M33.6359 70.0176H5.53121C2.50031 70.0176 0.0664062 67.6296 0.0664062 64.5528V5.72579C0.0664062 2.69489 2.45439 0.260986 5.53121 0.260986H33.6359C36.6668 0.260986 39.1007 2.64897 39.1007 5.72579V64.5528C39.0548 67.6296 36.6668 70.0176 33.6359 70.0176ZM5.53121 2.46528C3.6943 2.46528 2.27069 3.88888 2.27069 5.72579V64.5528C2.27069 66.3897 3.6943 67.8133 5.53121 67.8133H33.6359C35.4728 67.8133 36.8964 66.3897 36.8964 64.5528V5.72579C36.8964 3.88888 35.4728 2.46528 33.6359 2.46528H5.53121Z" fill="#C5C5C5"></path><path d="M24.5903 7.47071H14.5791C12.6044 7.47071 10.8594 5.72565 10.8594 3.75097V1.40891C10.8594 0.765991 11.2727 0.306763 11.9615 0.306763H27.2079C27.8508 0.306763 28.31 0.720068 28.31 1.40891V3.79689C28.31 5.86341 26.6568 7.47071 24.5903 7.47071ZM13.0637 2.46513V3.75097C13.0637 4.53165 13.8444 5.26642 14.5791 5.26642H24.5903C25.4628 5.26642 26.1057 4.6235 26.1057 3.75097V2.46513H13.0637Z" fill="#C5C5C5"></path><path d="M23.3043 65.6548H15.9107C15.2678 65.6548 14.8086 65.2415 14.8086 64.5527C14.8086 63.9098 15.2219 63.4506 15.9107 63.4506H23.3043C23.9472 63.4506 24.4064 63.8639 24.4064 64.5527C24.3605 65.2415 23.9472 65.6548 23.3043 65.6548Z" fill="#C5C5C5"></path><path d="M43.4201 60.236H38.6442C38.0012 60.236 37.542 59.8227 37.542 59.1339C37.542 58.4909 37.9553 58.0317 38.6442 58.0317H42.3639V53.8987C42.3639 53.3476 42.6854 52.9343 43.2364 52.7965C45.0733 52.3832 46.8184 51.6944 48.3339 50.6382C48.7472 50.3167 49.2982 50.4085 49.7575 50.73L52.6965 53.6691L57.6102 48.7553L54.6712 45.8163C54.3497 45.4948 54.2579 44.9437 54.4416 44.5304C55.3141 43.015 56.0948 41.2699 56.6 39.2952C56.6918 38.8819 57.151 38.5146 57.7021 38.5146H61.8351V31.5343H57.7021C57.151 31.5343 56.7377 31.2128 56.6 30.6618C56.1866 28.8249 55.4978 27.0798 54.4416 25.5643C54.1201 25.151 54.212 24.6 54.5334 24.1407L57.4725 21.2017L52.5587 16.2879L49.6197 19.227C49.2982 19.5485 48.7472 19.6403 48.3339 19.4566C46.8184 18.5841 45.0733 17.8034 43.0987 17.2983C42.6854 17.2064 42.318 16.7472 42.318 16.1961V12.2927H38.5982C37.9553 12.2927 37.4961 11.8794 37.4961 11.1905C37.4961 10.5476 37.9094 10.0884 38.5982 10.0884H43.3742C44.0171 10.0884 44.4763 10.5017 44.4763 11.1905V15.645C45.9918 16.0583 47.4154 16.7472 48.6094 17.3901L51.7781 14.2214C52.1914 13.8081 52.8802 13.8081 53.2935 14.2214L59.7227 20.6506C60.136 21.0639 60.136 21.7528 59.7227 22.1661L56.6918 25.197C57.4725 26.4828 57.9776 27.9064 58.4369 29.4678H62.7995C63.4424 29.4678 63.9017 29.8811 63.9017 30.5699V39.7085C63.9017 40.3515 63.4884 40.8107 62.7995 40.8107H58.345C57.9317 42.3261 57.2429 43.7497 56.6 44.9437L59.7686 48.1124C60.1819 48.5257 60.1819 49.2146 59.7686 49.6279L53.3394 56.057C52.9261 56.4703 52.2373 56.4703 51.824 56.057L48.7931 53.0261C47.5073 53.8068 46.0836 54.312 44.5223 54.7712V59.1339C44.5223 59.7768 44.109 60.236 43.4201 60.236Z" fill="#C5C5C5"></path><path d="M38.8717 50.5003C38.2288 50.5003 37.7695 50.087 37.7695 49.3982C37.7695 48.7094 38.1828 48.2961 38.8717 48.2961C46.2652 48.2961 52.0515 42.5098 52.0515 35.1162C52.0515 27.8145 46.1734 21.9364 38.8717 21.9364C38.2288 21.9364 37.7695 21.5231 37.7695 20.8343C37.7695 20.1913 38.1828 19.7321 38.8717 19.7321C47.3674 19.7321 54.2099 26.5746 54.2099 35.0703C54.2099 43.7497 47.4592 50.5003 38.8717 50.5003Z" fill="#C5C5C5"></path><path d="M10.2625 25.3347H8.24191C7.50715 25.3347 6.91016 24.7377 6.91016 24.0029V21.3853C6.91016 20.6506 7.50715 20.0536 8.24191 20.0536H10.2625C10.9973 20.0536 11.5943 20.6506 11.5943 21.3853V24.0029C11.5943 24.7836 10.9973 25.3347 10.2625 25.3347Z" fill="#C5C5C5"></path><path d="M20.5906 25.3347H18.57C17.8353 25.3347 17.2383 24.7377 17.2383 24.0029V21.3853C17.2383 20.6506 17.8353 20.0536 18.57 20.0536H20.5906C21.3254 20.0536 21.9224 20.6506 21.9224 21.3853V24.0029C21.9224 24.7836 21.3254 25.3347 20.5906 25.3347Z" fill="#C5C5C5"></path><path d="M30.9266 25.3347H28.906C28.1712 25.3347 27.5742 24.7377 27.5742 24.0029V21.3853C27.5742 20.6506 28.1712 20.0536 28.906 20.0536H30.9266C31.6613 20.0536 32.2583 20.6506 32.2583 21.3853V24.0029C32.2583 24.7836 31.6613 25.3347 30.9266 25.3347Z" fill="#C5C5C5"></path><path d="M10.2625 33.0957H8.24191C7.50715 33.0957 6.91016 32.4987 6.91016 31.7639V29.1463C6.91016 28.4116 7.50715 27.8146 8.24191 27.8146H10.2625C10.9973 27.8146 11.5943 28.4116 11.5943 29.1463V31.7639C11.5943 32.4987 10.9973 33.0957 10.2625 33.0957Z" fill="#C5C5C5"></path><path d="M20.5906 33.0957H18.57C17.8353 33.0957 17.2383 32.4987 17.2383 31.7639V29.1463C17.2383 28.4116 17.8353 27.8146 18.57 27.8146H20.5906C21.3254 27.8146 21.9224 28.4116 21.9224 29.1463V31.7639C21.9224 32.4987 21.3254 33.0957 20.5906 33.0957Z" fill="#C5C5C5"></path><path d="M30.9266 33.0957H28.906C28.1712 33.0957 27.5742 32.4987 27.5742 31.7639V29.1463C27.5742 28.4116 28.1712 27.8146 28.906 27.8146H30.9266C31.6613 27.8146 32.2583 28.4116 32.2583 29.1463V31.7639C32.2583 32.4987 31.6613 33.0957 30.9266 33.0957Z" fill="#C5C5C5"></path><path d="M10.2625 40.8107H8.24191C7.50715 40.8107 6.91016 40.2137 6.91016 39.4789V36.8613C6.91016 36.1265 7.50715 35.5295 8.24191 35.5295H10.2625C10.9973 35.5295 11.5943 36.1265 11.5943 36.8613V39.4789C11.5943 40.2596 10.9973 40.8107 10.2625 40.8107Z" fill="#C5C5C5"></path><path d="M20.5906 40.8107H18.57C17.8353 40.8107 17.2383 40.2137 17.2383 39.4789V36.8613C17.2383 36.1265 17.8353 35.5295 18.57 35.5295H20.5906C21.3254 35.5295 21.9224 36.1265 21.9224 36.8613V39.4789C21.9224 40.2596 21.3254 40.8107 20.5906 40.8107Z" fill="#C5C5C5"></path><path d="M30.9266 40.8107H28.906C28.1712 40.8107 27.5742 40.2137 27.5742 39.4789V36.8613C27.5742 36.1265 28.1712 35.5295 28.906 35.5295H30.9266C31.6613 35.5295 32.2583 36.1265 32.2583 36.8613V39.4789C32.2583 40.2596 31.6613 40.8107 30.9266 40.8107Z" fill="#C5C5C5"></path><path d="M10.2625 48.5716H8.24191C7.50715 48.5716 6.91016 47.9746 6.91016 47.2398V44.6222C6.91016 43.8875 7.50715 43.2905 8.24191 43.2905H10.2625C10.9973 43.2905 11.5943 43.8875 11.5943 44.6222V47.2398C11.5943 47.9746 10.9973 48.5716 10.2625 48.5716Z" fill="#C5C5C5"></path><path d="M20.5906 48.5716H18.57C17.8353 48.5716 17.2383 47.9746 17.2383 47.2398V44.6222C17.2383 43.8875 17.8353 43.2905 18.57 43.2905H20.5906C21.3254 43.2905 21.9224 43.8875 21.9224 44.6222V47.2398C21.9224 47.9746 21.3254 48.5716 20.5906 48.5716Z" fill="#C5C5C5"></path><path d="M30.9266 48.5716H28.906C28.1712 48.5716 27.5742 47.9746 27.5742 47.2398V44.6222C27.5742 43.8875 28.1712 43.2905 28.906 43.2905H30.9266C31.6613 43.2905 32.2583 43.8875 32.2583 44.6222V47.2398C32.2583 47.9746 31.6613 48.5716 30.9266 48.5716Z" fill="#C5C5C5"></path></svg>