<svg xmlns="http://www.w3.org/2000/svg" width="64" height="71" viewBox="0 0 64 71" fill="none"><path d="M33.5695 70.3329H5.4648C2.4339 70.3329 0 67.9252 0 64.8229V5.50995C0 2.45401 2.38798 0 5.4648 0H33.5695C36.6004 0 39.0343 2.40771 39.0343 5.50995V64.8229C38.9884 67.9252 36.6004 70.3329 33.5695 70.3329ZM5.4648 2.2225C3.62789 2.2225 2.20429 3.65787 2.20429 5.50995V64.8229C2.20429 66.675 3.62789 68.1104 5.4648 68.1104H33.5695C35.4064 68.1104 36.83 66.675 36.83 64.8229V5.50995C36.83 3.65787 35.4064 2.2225 33.5695 2.2225H5.4648Z" fill="#048DEF"></path><path d="M24.5239 7.26963H14.5127C12.538 7.26963 10.793 5.51016 10.793 3.51917V1.15776C10.793 0.50953 11.2063 0.0465088 11.8951 0.0465088H27.1415C27.7844 0.0465088 28.2436 0.463228 28.2436 1.15776V3.56547C28.2436 5.64906 26.5904 7.26963 24.5239 7.26963ZM12.9973 2.22271V3.51917C12.9973 4.3063 13.7779 5.04714 14.5127 5.04714H24.5239C25.3964 5.04714 26.0393 4.39891 26.0393 3.51917V2.22271H12.9973Z" fill="#048DEF"></path><path d="M23.2379 65.934H15.8443C15.2014 65.934 14.7422 65.5173 14.7422 64.8228C14.7422 64.1746 15.1555 63.7115 15.8443 63.7115H23.2379C23.8808 63.7115 24.34 64.1283 24.34 64.8228C24.2941 65.5173 23.8808 65.934 23.2379 65.934Z" fill="#048DEF"></path><path d="M43.3537 60.4705H38.5778C37.9348 60.4705 37.4756 60.0537 37.4756 59.3592C37.4756 58.711 37.8889 58.248 38.5778 58.248H42.2975V54.0808C42.2975 53.5251 42.619 53.1084 43.17 52.9695C45.0069 52.5528 46.752 51.8583 48.2675 50.7933C48.6808 50.4692 49.2318 50.5618 49.691 50.8859L52.6301 53.8493L57.5438 48.8949L54.6048 45.9316C54.2833 45.6075 54.1915 45.0519 54.3752 44.6351C55.2477 43.1072 56.0284 41.3477 56.5335 39.3567C56.6254 38.94 57.0846 38.5696 57.6357 38.5696H61.7687V31.5317H57.6357C57.0846 31.5317 56.6713 31.2075 56.5335 30.6519C56.1202 28.7998 55.4314 27.0403 54.3752 25.5124C54.0537 25.0957 54.1456 24.54 54.467 24.077L57.4061 21.1137L52.4923 16.1594L49.5533 19.1227C49.2318 19.4468 48.6808 19.5394 48.2675 19.3542C46.752 18.4745 45.0069 17.6873 43.0323 17.178C42.6189 17.0854 42.2516 16.6224 42.2516 16.0667V12.1311H38.5318C37.8889 12.1311 37.4297 11.7144 37.4297 11.0198C37.4297 10.3716 37.843 9.90857 38.5318 9.90857H43.3078C43.9507 9.90857 44.4099 10.3253 44.4099 11.0198V15.5111C45.9254 15.9278 47.349 16.6224 48.543 17.2706L51.7117 14.0758C52.125 13.659 52.8138 13.659 53.2271 14.0758L59.6563 20.5581C60.0696 20.9748 60.0696 21.6693 59.6563 22.086L56.6254 25.142C57.4061 26.4384 57.9112 27.8738 58.3705 29.4481H62.7331C63.376 29.4481 63.8353 29.8648 63.8353 30.5593V39.7734C63.8353 40.4216 63.422 40.8847 62.7331 40.8847H58.2786C57.8653 42.4126 57.1765 43.848 56.5335 45.0519L59.7022 48.2467C60.1155 48.6634 60.1155 49.358 59.7022 49.7747L53.273 56.257C52.8597 56.6737 52.1709 56.6737 51.7576 56.257L48.7267 53.201C47.4408 53.9882 46.0172 54.4975 44.4559 54.9605V59.3592C44.4559 60.0074 44.0426 60.4705 43.3537 60.4705Z" fill="#048DEF"></path><path d="M38.8053 50.6544C38.1623 50.6544 37.7031 50.2376 37.7031 49.5431C37.7031 48.8486 38.1164 48.4319 38.8053 48.4319C46.1988 48.4319 51.9851 42.5978 51.9851 35.1432C51.9851 27.7811 46.107 21.8545 38.8053 21.8545C38.1623 21.8545 37.7031 21.4377 37.7031 20.7432C37.7031 20.095 38.1164 19.632 38.8053 19.632C47.301 19.632 54.1435 26.531 54.1435 35.0969C54.1435 43.848 47.3928 50.6544 38.8053 50.6544Z" fill="#048DEF"></path><path d="M10.1961 25.2808H8.17551C7.44074 25.2808 6.84375 24.6789 6.84375 23.938V21.2988C6.84375 20.558 7.44074 19.9561 8.17551 19.9561H10.1961C10.9309 19.9561 11.5279 20.558 11.5279 21.2988V23.938C11.5279 24.7252 10.9309 25.2808 10.1961 25.2808Z" fill="#048DEF"></path><path d="M20.5242 25.2808H18.5036C17.7689 25.2808 17.1719 24.6789 17.1719 23.938V21.2988C17.1719 20.558 17.7689 19.9561 18.5036 19.9561H20.5242C21.259 19.9561 21.856 20.558 21.856 21.2988V23.938C21.856 24.7252 21.259 25.2808 20.5242 25.2808Z" fill="#048DEF"></path><path d="M30.8602 25.2808H28.8396C28.1048 25.2808 27.5078 24.6789 27.5078 23.938V21.2988C27.5078 20.558 28.1048 19.9561 28.8396 19.9561H30.8602C31.5949 19.9561 32.1919 20.558 32.1919 21.2988V23.938C32.1919 24.7252 31.5949 25.2808 30.8602 25.2808Z" fill="#048DEF"></path><path d="M10.1961 33.1059H8.17551C7.44074 33.1059 6.84375 32.5039 6.84375 31.7631V29.1239C6.84375 28.3831 7.44074 27.7811 8.17551 27.7811H10.1961C10.9309 27.7811 11.5279 28.3831 11.5279 29.1239V31.7631C11.5279 32.5039 10.9309 33.1059 10.1961 33.1059Z" fill="#048DEF"></path><path d="M20.5242 33.1059H18.5036C17.7689 33.1059 17.1719 32.5039 17.1719 31.7631V29.1239C17.1719 28.3831 17.7689 27.7811 18.5036 27.7811H20.5242C21.259 27.7811 21.856 28.3831 21.856 29.1239V31.7631C21.856 32.5039 21.259 33.1059 20.5242 33.1059Z" fill="#048DEF"></path><path d="M30.8602 33.1059H28.8396C28.1048 33.1059 27.5078 32.5039 27.5078 31.7631V29.1239C27.5078 28.3831 28.1048 27.7811 28.8396 27.7811H30.8602C31.5949 27.7811 32.1919 28.3831 32.1919 29.1239V31.7631C32.1919 32.5039 31.5949 33.1059 30.8602 33.1059Z" fill="#048DEF"></path><path d="M10.1961 40.8846H8.17551C7.44074 40.8846 6.84375 40.2826 6.84375 39.5418V36.9026C6.84375 36.1617 7.44074 35.5598 8.17551 35.5598H10.1961C10.9309 35.5598 11.5279 36.1617 11.5279 36.9026V39.5418C11.5279 40.3289 10.9309 40.8846 10.1961 40.8846Z" fill="#048DEF"></path><path d="M20.5242 40.8846H18.5036C17.7689 40.8846 17.1719 40.2826 17.1719 39.5418V36.9026C17.1719 36.1617 17.7689 35.5598 18.5036 35.5598H20.5242C21.259 35.5598 21.856 36.1617 21.856 36.9026V39.5418C21.856 40.3289 21.259 40.8846 20.5242 40.8846Z" fill="#048DEF"></path><path d="M30.8602 40.8846H28.8396C28.1048 40.8846 27.5078 40.2826 27.5078 39.5418V36.9026C27.5078 36.1617 28.1048 35.5598 28.8396 35.5598H30.8602C31.5949 35.5598 32.1919 36.1617 32.1919 36.9026V39.5418C32.1919 40.3289 31.5949 40.8846 30.8602 40.8846Z" fill="#048DEF"></path><path d="M10.1961 48.7096H8.17551C7.44074 48.7096 6.84375 48.1077 6.84375 47.3669V44.7277C6.84375 43.9868 7.44074 43.3849 8.17551 43.3849H10.1961C10.9309 43.3849 11.5279 43.9868 11.5279 44.7277V47.3669C11.5279 48.1077 10.9309 48.7096 10.1961 48.7096Z" fill="#048DEF"></path><path d="M20.5242 48.7096H18.5036C17.7689 48.7096 17.1719 48.1077 17.1719 47.3669V44.7277C17.1719 43.9868 17.7689 43.3849 18.5036 43.3849H20.5242C21.259 43.3849 21.856 43.9868 21.856 44.7277V47.3669C21.856 48.1077 21.259 48.7096 20.5242 48.7096Z" fill="#048DEF"></path><path d="M30.8602 48.7096H28.8396C28.1048 48.7096 27.5078 48.1077 27.5078 47.3669V44.7277C27.5078 43.9868 28.1048 43.3849 28.8396 43.3849H30.8602C31.5949 43.3849 32.1919 43.9868 32.1919 44.7277V47.3669C32.1919 48.1077 31.5949 48.7096 30.8602 48.7096Z" fill="#048DEF"></path></svg>