<svg xmlns="http://www.w3.org/2000/svg" width="254" height="262" viewBox="0 0 254 262" fill="none"><path d="M14.7343 89.75L65.2343 89.75L90.4843 133.484L65.2343 177.219L14.7343 177.219L-10.5157 133.484L14.7343 89.75Z" fill="#0449A9" stroke="url(#paint0_linear_1054_681)" stroke-opacity="0.5" stroke-width="0.5"></path><path d="M14.7343 -5.74986L65.2343 -5.74984L90.4843 37.9845L65.2343 81.7187L14.7343 81.7187L-10.5157 37.9844L14.7343 -5.74986Z" fill="#0449A9" stroke="url(#paint1_linear_1054_681)" stroke-opacity="0.5" stroke-width="0.5"></path><path d="M14.7343 185.75L65.2343 185.75L90.4843 229.484L65.2343 273.219L14.7343 273.219L-10.5157 229.484L14.7343 185.75Z" fill="#0449A9" stroke="url(#paint2_linear_1054_681)" stroke-opacity="0.5" stroke-width="0.5"></path><path d="M86.7655 136.75L137.266 136.75L162.516 180.484L137.266 224.219L86.7655 224.219L61.5155 180.484L86.7655 136.75Z" fill="#0449A9" stroke="url(#paint3_linear_1054_681)" stroke-opacity="0.5" stroke-width="0.5"></path><path d="M86.7655 41.75L137.266 41.75L162.516 85.4843L137.266 129.219L86.7655 129.219L61.5155 85.4843L86.7655 41.75Z" fill="#0449A9" stroke="url(#paint4_linear_1054_681)" stroke-opacity="0.5" stroke-width="0.5"></path><path d="M86.7655 231.75L137.266 231.75L162.516 275.484L137.266 319.219L86.7655 319.219L61.5155 275.484L86.7655 231.75Z" fill="#0449A9" stroke="url(#paint5_linear_1054_681)" stroke-opacity="0.5" stroke-width="0.5"></path><path d="M86.7655 -53.7499L137.266 -53.7498L162.516 -10.0155L137.266 33.7187L86.7655 33.7187L61.5155 -10.0156L86.7655 -53.7499Z" fill="#0449A9" stroke="url(#paint6_linear_1054_681)" stroke-opacity="0.5" stroke-width="0.5"></path><path d="M159.766 88.75L210.266 88.75L235.516 132.484L210.266 176.219L159.766 176.219L134.516 132.484L159.766 88.75Z" fill="#0449A9" stroke="url(#paint7_linear_1054_681)" stroke-opacity="0.5" stroke-width="0.5"></path><path d="M159.766 -6.74986L210.266 -6.74984L235.516 36.9845L210.266 80.7187L159.766 80.7187L134.516 36.9844L159.766 -6.74986Z" fill="#0449A9" stroke="url(#paint8_linear_1054_681)" stroke-opacity="0.5" stroke-width="0.5"></path><path d="M159.766 184.75L210.266 184.75L235.516 228.484L210.266 272.219L159.766 272.219L134.516 228.484L159.766 184.75Z" fill="#0449A9" stroke="url(#paint9_linear_1054_681)" stroke-opacity="0.5" stroke-width="0.5"></path><defs><linearGradient id="paint0_linear_1054_681" x1="-11.0156" y1="132.984" x2="62.4844" y2="132.984" gradientUnits="userSpaceOnUse"><stop stop-color="white"></stop><stop offset="0.65625" stop-color="white" stop-opacity="0.645833"></stop><stop offset="1" stop-color="white" stop-opacity="0"></stop></linearGradient><linearGradient id="paint1_linear_1054_681" x1="-11.0156" y1="37.4845" x2="62.4844" y2="37.4845" gradientUnits="userSpaceOnUse"><stop stop-color="white"></stop><stop offset="0.65625" stop-color="white" stop-opacity="0.645833"></stop><stop offset="1" stop-color="white" stop-opacity="0"></stop></linearGradient><linearGradient id="paint2_linear_1054_681" x1="-11.0156" y1="228.984" x2="62.4844" y2="228.984" gradientUnits="userSpaceOnUse"><stop stop-color="white"></stop><stop offset="0.65625" stop-color="white" stop-opacity="0.645833"></stop><stop offset="1" stop-color="white" stop-opacity="0"></stop></linearGradient><linearGradient id="paint3_linear_1054_681" x1="61.0156" y1="179.985" x2="134.516" y2="179.985" gradientUnits="userSpaceOnUse"><stop stop-color="white"></stop><stop offset="0.65625" stop-color="white" stop-opacity="0.645833"></stop><stop offset="1" stop-color="white" stop-opacity="0"></stop></linearGradient><linearGradient id="paint4_linear_1054_681" x1="61.0156" y1="84.9844" x2="134.516" y2="84.9844" gradientUnits="userSpaceOnUse"><stop stop-color="white"></stop><stop offset="0.65625" stop-color="white" stop-opacity="0.645833"></stop><stop offset="1" stop-color="white" stop-opacity="0"></stop></linearGradient><linearGradient id="paint5_linear_1054_681" x1="61.0156" y1="274.984" x2="134.516" y2="274.984" gradientUnits="userSpaceOnUse"><stop stop-color="white"></stop><stop offset="0.65625" stop-color="white" stop-opacity="0.645833"></stop><stop offset="1" stop-color="white" stop-opacity="0"></stop></linearGradient><linearGradient id="paint6_linear_1054_681" x1="61.0156" y1="-10.5155" x2="134.516" y2="-10.5155" gradientUnits="userSpaceOnUse"><stop stop-color="white"></stop><stop offset="0.65625" stop-color="white" stop-opacity="0.645833"></stop><stop offset="1" stop-color="white" stop-opacity="0"></stop></linearGradient><linearGradient id="paint7_linear_1054_681" x1="134.016" y1="131.984" x2="207.516" y2="131.984" gradientUnits="userSpaceOnUse"><stop stop-color="white"></stop><stop offset="0.65625" stop-color="white" stop-opacity="0.645833"></stop><stop offset="1" stop-color="white" stop-opacity="0"></stop></linearGradient><linearGradient id="paint8_linear_1054_681" x1="134.016" y1="36.4845" x2="207.516" y2="36.4845" gradientUnits="userSpaceOnUse"><stop stop-color="white"></stop><stop offset="0.65625" stop-color="white" stop-opacity="0.645833"></stop><stop offset="1" stop-color="white" stop-opacity="0"></stop></linearGradient><linearGradient id="paint9_linear_1054_681" x1="134.016" y1="227.984" x2="207.516" y2="227.984" gradientUnits="userSpaceOnUse"><stop stop-color="white"></stop><stop offset="0.65625" stop-color="white" stop-opacity="0.645833"></stop><stop offset="1" stop-color="white" stop-opacity="0"></stop></linearGradient></defs></svg>