<svg xmlns="http://www.w3.org/2000/svg" width="252" height="262" viewBox="0 0 252 262" fill="none"><path d="M240.234 175.25L189.734 175.25L164.484 131.516L189.734 87.7814L240.234 87.7814L265.484 131.516L240.234 175.25Z" fill="#0449A9" stroke="url(#paint0_linear_1054_680)" stroke-opacity="0.5" stroke-width="0.5"></path><path d="M240.234 271.25L189.734 271.25L164.484 227.516L189.734 183.781L240.234 183.781L265.484 227.516L240.234 271.25Z" fill="#0449A9" stroke="url(#paint1_linear_1054_680)" stroke-opacity="0.5" stroke-width="0.5"></path><path d="M240.234 79.7186L189.734 79.7186L164.484 35.9843L189.734 -7.74997L240.234 -7.74995L265.484 35.9843L240.234 79.7186Z" fill="#0449A9" stroke="url(#paint2_linear_1054_680)" stroke-opacity="0.5" stroke-width="0.5"></path><path d="M167.234 128.25L116.734 128.25L91.4845 84.5157L116.734 40.7814L167.234 40.7814L192.484 84.5157L167.234 128.25Z" fill="#0449A9" stroke="url(#paint3_linear_1054_680)" stroke-opacity="0.5" stroke-width="0.5"></path><path d="M167.234 223.25L116.734 223.25L91.4845 179.516L116.734 135.781L167.234 135.781L192.484 179.516L167.234 223.25Z" fill="#0449A9" stroke="url(#paint4_linear_1054_680)" stroke-opacity="0.5" stroke-width="0.5"></path><path d="M167.234 33.7186L116.734 33.7186L91.4845 -10.0157L116.734 -53.75L167.234 -53.75L192.484 -10.0157L167.234 33.7186Z" fill="#0449A9" stroke="url(#paint5_linear_1054_680)" stroke-opacity="0.5" stroke-width="0.5"></path><path d="M167.234 318.25L116.734 318.25L91.4845 274.516L116.734 230.781L167.234 230.781L192.484 274.516L167.234 318.25Z" fill="#0449A9" stroke="url(#paint6_linear_1054_680)" stroke-opacity="0.5" stroke-width="0.5"></path><path d="M94.2345 175.25L43.7345 175.25L18.4845 131.516L43.7345 87.7814L94.2345 87.7814L119.484 131.516L94.2345 175.25Z" fill="#0449A9" stroke="url(#paint7_linear_1054_680)" stroke-opacity="0.5" stroke-width="0.5"></path><path d="M94.2345 271.25L43.7345 271.25L18.4845 227.516L43.7345 183.781L94.2345 183.781L119.484 227.516L94.2345 271.25Z" fill="#0449A9" stroke="url(#paint8_linear_1054_680)" stroke-opacity="0.5" stroke-width="0.5"></path><path d="M94.2345 79.7186L43.7345 79.7186L18.4845 35.9843L43.7345 -7.74997L94.2345 -7.74995L119.484 35.9843L94.2345 79.7186Z" fill="#0449A9" stroke="url(#paint9_linear_1054_680)" stroke-opacity="0.5" stroke-width="0.5"></path><defs><linearGradient id="paint0_linear_1054_680" x1="265.984" y1="132.016" x2="192.484" y2="132.016" gradientUnits="userSpaceOnUse"><stop stop-color="white"></stop><stop offset="0.65625" stop-color="white" stop-opacity="0.645833"></stop><stop offset="1" stop-color="white" stop-opacity="0"></stop></linearGradient><linearGradient id="paint1_linear_1054_680" x1="265.984" y1="228.016" x2="192.484" y2="228.016" gradientUnits="userSpaceOnUse"><stop stop-color="white"></stop><stop offset="0.65625" stop-color="white" stop-opacity="0.645833"></stop><stop offset="1" stop-color="white" stop-opacity="0"></stop></linearGradient><linearGradient id="paint2_linear_1054_680" x1="265.984" y1="36.4842" x2="192.484" y2="36.4842" gradientUnits="userSpaceOnUse"><stop stop-color="white"></stop><stop offset="0.65625" stop-color="white" stop-opacity="0.645833"></stop><stop offset="1" stop-color="white" stop-opacity="0"></stop></linearGradient><linearGradient id="paint3_linear_1054_680" x1="192.984" y1="85.0156" x2="119.484" y2="85.0156" gradientUnits="userSpaceOnUse"><stop stop-color="white"></stop><stop offset="0.65625" stop-color="white" stop-opacity="0.645833"></stop><stop offset="1" stop-color="white" stop-opacity="0"></stop></linearGradient><linearGradient id="paint4_linear_1054_680" x1="192.984" y1="180.016" x2="119.484" y2="180.016" gradientUnits="userSpaceOnUse"><stop stop-color="white"></stop><stop offset="0.65625" stop-color="white" stop-opacity="0.645833"></stop><stop offset="1" stop-color="white" stop-opacity="0"></stop></linearGradient><linearGradient id="paint5_linear_1054_680" x1="192.984" y1="-9.51575" x2="119.484" y2="-9.51577" gradientUnits="userSpaceOnUse"><stop stop-color="white"></stop><stop offset="0.65625" stop-color="white" stop-opacity="0.645833"></stop><stop offset="1" stop-color="white" stop-opacity="0"></stop></linearGradient><linearGradient id="paint6_linear_1054_680" x1="192.984" y1="275.016" x2="119.484" y2="275.016" gradientUnits="userSpaceOnUse"><stop stop-color="white"></stop><stop offset="0.65625" stop-color="white" stop-opacity="0.645833"></stop><stop offset="1" stop-color="white" stop-opacity="0"></stop></linearGradient><linearGradient id="paint7_linear_1054_680" x1="119.984" y1="132.016" x2="46.4844" y2="132.016" gradientUnits="userSpaceOnUse"><stop stop-color="white"></stop><stop offset="0.65625" stop-color="white" stop-opacity="0.645833"></stop><stop offset="1" stop-color="white" stop-opacity="0"></stop></linearGradient><linearGradient id="paint8_linear_1054_680" x1="119.984" y1="228.016" x2="46.4844" y2="228.016" gradientUnits="userSpaceOnUse"><stop stop-color="white"></stop><stop offset="0.65625" stop-color="white" stop-opacity="0.645833"></stop><stop offset="1" stop-color="white" stop-opacity="0"></stop></linearGradient><linearGradient id="paint9_linear_1054_680" x1="119.984" y1="36.4842" x2="46.4844" y2="36.4842" gradientUnits="userSpaceOnUse"><stop stop-color="white"></stop><stop offset="0.65625" stop-color="white" stop-opacity="0.645833"></stop><stop offset="1" stop-color="white" stop-opacity="0"></stop></linearGradient></defs></svg>