<svg xmlns="http://www.w3.org/2000/svg" id="Layer_1" height="512" viewBox="0 0 512 512" width="512"><path d="m474.182 272.443c-5.412 0-10.479 1.502-14.81 4.108l-42.35-42.35c-1.313-1.313-3.094-2.05-4.95-2.05h-64.189c-4.711-6-4.419-13.101-2.375-18.036 2.248-5.428 7.835-11.228 16.773-11.228 7.979 0 14.472-6.492 14.472-14.472v-4.375h36.6c3.136 12.518 14.478 21.818 27.954 21.818 15.891 0 28.818-12.928 28.818-28.818 0-15.891-12.928-28.818-28.818-28.818-13.477 0-24.818 9.3-27.954 21.818h-36.6v-4.375c0-7.98-6.492-14.472-14.472-14.472-8.938 0-14.525-5.8-16.773-11.228-2.044-4.935-2.336-12.036 2.375-18.036h64.189c1.856 0 3.637-.737 4.95-2.05l42.35-42.35c4.331 2.606 9.398 4.108 14.811 4.108 15.891 0 28.818-12.928 28.818-28.818s-12.929-28.819-28.819-28.819-28.818 12.928-28.818 28.818c0 5.412 1.502 10.479 4.108 14.811l-40.299 40.3h-55.658c-.428-3.105-1.831-5.977-4.085-8.231l-16.087-16.086c-2.732-2.734-6.367-4.24-10.233-4.24s-7.501 1.505-10.234 4.239c-6.319 6.32-14.371 6.169-19.8 3.921-5.428-2.248-11.228-7.835-11.228-16.774 0-7.98-6.492-14.472-14.472-14.472h-22.75c-7.979 0-14.472 6.492-14.472 14.472 0 8.938-5.8 14.526-11.229 16.774-5.425 2.249-13.479 2.399-19.799-3.921-2.733-2.733-6.368-4.239-10.234-4.239s-7.501 1.506-10.233 4.239l-16.086 16.086c-2.255 2.255-3.658 5.126-4.086 8.231h-55.658l-40.299-40.3c2.605-4.331 4.108-9.398 4.108-14.811-.001-15.889-12.929-28.817-28.82-28.817s-28.818 12.928-28.818 28.818 12.928 28.818 28.818 28.818c5.412 0 10.479-1.502 14.811-4.108l42.35 42.35c1.313 1.313 3.094 2.05 4.95 2.05h64.19c4.71 6 4.418 13.1 2.375 18.036-2.248 5.428-7.836 11.228-16.774 11.228-7.979 0-14.472 6.492-14.472 14.472v4.375h-36.6c-3.136-12.518-14.477-21.818-27.953-21.818-15.891 0-28.818 12.928-28.818 28.818s12.928 28.818 28.818 28.818c13.476 0 24.817-9.3 27.953-21.818h36.6v4.375c0 7.98 6.492 14.472 14.472 14.472 8.938 0 14.526 5.8 16.774 11.228 2.044 4.936 2.336 12.037-2.375 18.036h-64.19c-1.856 0-3.637.737-4.95 2.05l-42.35 42.35c-4.331-2.606-9.398-4.108-14.81-4.108-15.891.001-28.819 12.929-28.819 28.819 0 15.891 12.928 28.818 28.818 28.818s28.818-12.928 28.818-28.818c0-5.412-1.502-10.479-4.108-14.809l40.299-40.301h55.658c.428 3.106 1.831 5.977 4.085 8.231l16.087 16.086c2.732 2.733 6.367 4.239 10.233 4.239s7.501-1.505 10.234-4.238c4.627-4.627 9.746-5.479 13.221-5.365 4.307.131 8.424 1.772 11.637 4.546l.009 92.309c-13.433-3.062-28.03-2.476-37.969 12.708-10.467 15.994-6.504 37.347 9.021 48.609 13.724 9.958 24.042 18.601 33.146 26.226 27.238 22.812 42.242 35.377 93.735 38.325 2.01.115 4.008.173 6.001.172 25.729-.001 49.933-9.544 68.695-27.214 20.672-19.468 32.572-46.927 32.65-75.412l-.567-71.647c.007-8.213-3.204-15.955-9.042-21.799-5.837-5.843-13.575-9.062-21.787-9.067-.008 0-.015 0-.022 0-8.209 0-15.942 3.213-21.778 9.049-.724.724-1.406 1.476-2.048 2.255-.632-.766-1.303-1.506-2.013-2.219-5.838-5.853-13.581-9.079-21.804-9.085-.008 0-.014 0-.021 0-8.205 0-15.939 3.212-21.775 9.044-.727.727-1.413 1.482-2.058 2.265-.638-.774-1.317-1.523-2.036-2.242-5.836-5.841-13.572-9.061-21.784-9.066-.008 0-.014 0-.021 0-6.059 0-11.911 1.854-16.951 5.302l.017-15.958c3.007-3.837 7.586-6.405 12.583-6.974 5.481-.623 10.706 1.236 14.709 5.24 2.733 2.733 6.368 4.238 10.234 4.238s7.501-1.506 10.233-4.238l16.086-16.086c2.255-2.254 3.658-5.126 4.086-8.232h55.658l40.299 40.301c-2.606 4.331-4.108 9.397-4.108 14.809 0 15.891 12.928 28.818 28.818 28.818s28.822-12.93 28.822-28.82-12.928-28.818-28.818-28.818zm-32.876-110.221c8.171 0 14.818 6.647 14.818 14.818 0 8.17-6.647 14.818-14.818 14.818s-14.818-6.647-14.818-14.818c-.001-8.171 6.647-14.818 14.818-14.818zm32.876-124.222c8.171 0 14.818 6.647 14.818 14.818s-6.647 14.818-14.818 14.818-14.818-6.647-14.818-14.818 6.647-14.818 14.818-14.818zm-436.364 29.637c-8.171 0-14.818-6.648-14.818-14.819s6.647-14.818 14.818-14.818 14.818 6.647 14.818 14.818-6.647 14.819-14.818 14.819zm32.876 124.221c-8.171 0-14.818-6.647-14.818-14.818s6.647-14.818 14.818-14.818c8.17 0 14.817 6.647 14.817 14.818.001 8.17-6.647 14.818-14.817 14.818zm-32.876 124.221c-8.171 0-14.818-6.647-14.818-14.818 0-8.17 6.647-14.817 14.818-14.817s14.818 6.647 14.818 14.817c.001 8.171-6.647 14.818-14.818 14.818zm238.811-151.542c-5.836-5.842-13.573-9.063-21.786-9.069-.008 0-.014 0-.021 0-8.203 0-15.937 3.211-21.775 9.042-5.845 5.836-9.066 13.574-9.071 21.792l.003 27.307c-10.425-9.092-16.568-22.284-16.568-36.568 0-26.792 21.797-48.589 48.59-48.589 26.792 0 48.589 21.797 48.589 48.589 0 15.26-7.181 29.415-18.947 38.493l.031-29.196c.006-8.214-3.206-15.957-9.045-21.801zm14.199 137.382c3.251-3.264 7.401-5.061 11.688-5.061h.012c4.474.003 8.697 1.766 11.891 4.962 3.185 3.187 4.937 7.391 4.938 11.841v.019.014.014c.001 3.863 3.132 6.995 6.995 6.998h.005c3.86 0 6.993-3.127 7-6.988 0-.019 0-.036 0-.055.009-4.463 1.769-8.672 4.955-11.856 3.193-3.191 7.411-4.947 11.881-4.947h.011c4.48.003 8.706 1.769 11.9 4.972 3.174 3.182 4.922 7.378 4.924 11.817v.042.002.019c.003 3.862 3.133 6.992 6.995 6.995h.005c3.86 0 6.992-3.125 7-6.986 0-.024 0-.049 0-.073.012-4.455 1.768-8.657 4.948-11.839 3.192-3.191 7.41-4.948 11.881-4.948h.013c4.475.002 8.697 1.765 11.892 4.962 3.193 3.197 4.95 7.42 4.946 11.954l.567 71.634c-.067 24.582-10.363 48.342-28.248 65.185-17.389 16.375-40.225 24.626-64.298 23.257-46.862-2.684-59.791-13.511-85.548-35.082-9.278-7.771-19.796-16.579-33.913-26.823-9.471-6.87-11.899-19.878-5.529-29.611 2.756-4.21 6.091-7.882 14.126-7.882 4.178 0 9.625.992 16.922 3.417 2.138.71 4.48.35 6.304-.966s2.904-3.429 2.904-5.678l-.019-184.919c.003-4.473 1.766-8.696 4.964-11.889 3.195-3.191 7.415-4.948 11.883-4.948h.011c4.475.003 8.697 1.766 11.893 4.963 3.194 3.197 4.951 7.422 4.947 11.893l-.134 127.881c-.001.11-.001.221-.001.331.02 3.854 3.148 6.966 7 6.966h.014c3.857-.008 6.982-3.135 6.986-6.992v-.254c.036-4.509 1.957-8.994 5.289-12.341zm48.7-57.437-16.087 16.087c-.034.034-.138.138-.333.138-.196 0-.3-.104-.334-.139-6.98-6.98-16.536-10.352-26.193-9.25-3.856.439-7.571 1.576-10.98 3.284l.024-22.418c20.167-10.847 32.964-32.015 32.964-55.144 0-34.512-28.077-62.589-62.589-62.589s-62.59 28.078-62.59 62.589c0 22.292 11.606 42.522 30.57 53.789l.002 22.638c-3.539-1.424-7.333-2.239-11.208-2.357-8.832-.277-17.18 3.09-23.549 9.458-.034.034-.138.139-.334.139-.195 0-.299-.104-.333-.139l-16.088-16.087c-.034-.034-.138-.137-.138-.333s.104-.299.139-.334c9.367-9.368 12.032-22.801 6.956-35.057-5.077-12.256-16.461-19.87-29.709-19.87-.26 0-.472-.212-.472-.472v-22.75c0-.26.212-.472.472-.472 13.248 0 24.632-7.614 29.709-19.871 5.076-12.257 2.411-25.689-6.957-35.057-.034-.034-.138-.138-.138-.333s.104-.299.139-.334l16.087-16.088c.034-.034.138-.137.333-.137.196 0 .3.104.334.138 9.368 9.368 22.802 12.033 35.057 6.957 12.257-5.077 19.871-16.46 19.871-29.708 0-.26.212-.472.472-.472h22.75c.26 0 .472.212.472.472 0 13.248 7.614 24.631 19.87 29.708 12.258 5.078 25.69 2.411 35.058-6.956.034-.034.138-.138.334-.138.195 0 .299.104.333.138l16.088 16.087c.034.034.138.138.138.333s-.104.299-.138.334c-9.368 9.367-12.033 22.8-6.957 35.057 5.077 12.257 16.46 19.871 29.708 19.871.26 0 .472.212.472.472v22.75c0 .26-.212.472-.472.472-13.247 0-24.631 7.614-29.708 19.87-5.076 12.256-2.411 25.69 6.957 35.058.034.034.138.138.138.333s-.105.298-.14.333zm134.654 71.597c-8.171 0-14.818-6.647-14.818-14.818 0-8.17 6.647-14.817 14.818-14.817s14.818 6.647 14.818 14.817c0 8.171-6.647 14.818-14.818 14.818z"></path></svg>