<svg xmlns="http://www.w3.org/2000/svg" width="53" height="60" viewBox="0 0 53 60" fill="none"><path d="M38.2926 37.2477L38.2927 37.2478L38.2971 37.2429C42.8229 32.1587 43.9098 25.1296 41.0146 18.8446C38.2079 12.4669 32.2261 8.76212 25.4305 9.13172C19.085 9.40997 13.5598 13.3915 11.116 19.4913C8.67312 25.498 9.75781 32.2488 14.0144 37.059C16.0072 39.36 17.1384 42.1799 17.1636 45.0855C16.7229 45.5645 16.4504 46.1458 16.4504 46.8246V49.1933C16.4504 50.6018 17.5387 51.7208 18.9306 51.7208H18.9482V52.1086C18.9482 56.157 22.1755 59.5557 26.2456 59.5557C30.3138 59.5557 33.5431 56.2502 33.5431 52.1086V51.7208H33.5607C34.9526 51.7208 36.0409 50.6018 36.0409 49.1933V46.8246C36.0409 46.0614 35.7695 45.4684 35.2386 44.9814C35.2649 42.0779 36.3117 39.3586 38.2926 37.2477ZM15.5505 35.4544L15.5504 35.4544C11.8664 31.2442 10.9017 25.606 13.095 20.3191C15.2903 15.1188 19.9366 11.7217 25.4546 11.4532C31.3283 11.1847 36.4084 14.3145 38.8642 19.6888L38.865 19.6904C41.4107 25.1588 40.5321 31.2459 36.5868 35.6336C34.457 37.9897 33.1962 41.0507 32.969 44.297H27.2985V33.3523L30.5278 30.0544C30.9798 29.5928 30.9798 28.8908 30.5278 28.4292C30.073 27.9646 29.3766 27.9646 28.9217 28.4292L26.1564 31.2531L23.5696 28.6114C23.1147 28.1468 22.4183 28.1468 21.9634 28.6114C21.5114 29.073 21.5114 29.775 21.9634 30.2366L25.0144 33.3523V44.2059H19.2542C19.0255 41.0442 17.7617 37.9836 15.5505 35.4544ZM31.2589 52.1086C31.2589 54.8936 29.0438 57.2336 26.2456 57.2336C23.4448 57.2336 21.2324 54.9819 21.2324 52.1086V51.7208H31.2589V52.1086ZM33.7568 49.1933C33.7568 49.2747 33.7311 49.3224 33.7055 49.3486C33.6803 49.3744 33.6361 49.3988 33.5607 49.3988H33.5221H33.4835H33.445H33.4065H33.3681H33.3298H33.2915H33.2534H33.2152H33.1772H33.1392H33.1012H33.0633H33.0255H32.9878H32.9501H32.9125H32.8749H32.8374H32.8H32.7626H32.7253H32.688H32.6509H32.6137H32.5767H32.5397H32.5027H32.4659H32.429H32.3923H32.3556H32.3189H32.2824H32.2458H32.2094H32.173H32.1367H32.1004H32.0642H32.028H31.9919H31.9559H31.9199H31.884H31.8481H31.8123H31.7765H31.7409H31.7052H31.6697H31.6341H31.5987H31.5633H31.5279H31.4926H31.4574H31.4222H31.3871H31.3521H31.3171H31.2821H31.2472H31.2124H31.1776H31.1429H31.1082H31.0736H31.039H31.0045H30.9701H30.9357H30.9013H30.867H30.8328H30.7986H30.7645H30.7304H30.6964H30.6625H30.6285H30.5947H30.5609H30.5271H30.4934H30.4598H30.4262H30.3926H30.3592H30.3257H30.2923H30.259H30.2257H30.1925H30.1593H30.1262H30.0931H30.06H30.0271H29.9941H29.9613H29.9284H29.8957H29.8629H29.8302H29.7976H29.765H29.7325H29.7H29.6676H29.6352H29.6029H29.5706H29.5383H29.5061H29.474H29.4419H29.4098H29.3778H29.3459H29.314H29.2821H29.2503H29.2185H29.1868H29.1552H29.1235H29.0919H29.0604H29.0289H28.9975H28.9661H28.9347H28.9034H28.8722H28.8409H28.8098H28.7786H28.7475H28.7165H28.6855H28.6546H28.6237H28.5928H28.562H28.5312H28.5005H28.4698H28.4391H28.4085H28.3779H28.3474H28.3169H28.2865H28.2561H28.2258H28.1955H28.1652H28.135H28.1048H28.0746H28.0445H28.0145H27.9844H27.9545H27.9245H27.8946H27.8647H27.8349H27.8051H27.7754H27.7457H27.716H27.6864H27.6568H27.6273H27.5978H27.5683H27.5389H27.5095H27.4801H27.4508H27.4215H27.3923H27.3631H27.3339H27.3048H27.2757H27.2466H27.2176H27.1886H27.1597H27.1308H27.1019H27.0731H27.0443H27.0155H26.9868H26.9581H26.9294H26.9008H26.8722H26.8436H26.8151H26.7866H26.7582H26.7297H26.7014H26.673H26.6447H26.6164H26.5882H26.5599H26.5318H26.5036H26.4755H26.4474H26.4193H26.3913H26.3633H26.3354H26.3075H26.2796H26.2517H26.2239H26.1961H26.1683H26.1406H26.1129H26.0852H26.0575H26.0299H26.0023H25.9748H25.9473H25.9198H25.8923H25.8649H25.8375H25.8101H25.7827H25.7554H25.7281H25.7008H25.6736H25.6464H25.6192H25.5921H25.565H25.5379H25.5108H25.4838H25.4567H25.4298H25.4028H25.3759H25.349H25.3221H25.2952H25.2684H25.2416H25.2148H25.1881H25.1613H25.1346H25.108H25.0813H25.0547H25.0281H25.0015H24.975H24.9484H24.9219H24.8955H24.869H24.8426H24.8162H24.7898H24.7634H24.7371H24.7108H24.6845H24.6582H24.632H24.6058H24.5795H24.5534H24.5272H24.5011H24.475H24.4489H24.4228H24.3967H24.3707H24.3447H24.3187H24.2927H24.2668H24.2409H24.215H24.1891H24.1632H24.1374H24.1115H24.0857H24.0599H24.0342H24.0084H23.9827H23.9569H23.9312H23.9056H23.8799H23.8543H23.8286H23.803H23.7774H23.7519H23.7263H23.7008H23.6752H23.6497H23.6243H23.5988H23.5733H23.5479H23.5225H23.497H23.4717H23.4463H23.4209H23.3956H23.3702H23.3449H23.3196H23.2943H23.2691H23.2438H23.2186H23.1933H23.1681H23.1429H23.1177H23.0925H23.0674H23.0422H23.0171H22.992H22.9668H22.9417H22.9167H22.8916H22.8665H22.8415H22.8164H22.7914H22.7664H22.7414H22.7164H22.6914H22.6664H22.6415H22.6165H22.5916H22.5666H22.5417H22.5168H22.4919H22.467H22.4421H22.4173H22.3924H22.3675H22.3427H22.3178H22.293H22.2682H22.2434H22.2186H22.1938H22.169H22.1442H22.1194H22.0947H22.0699H22.0452H22.0204H21.9957H21.9709H21.9462H21.9215H21.8968H21.8721H21.8474H21.8227H21.798H21.7733H21.7486H21.7239H21.6993H21.6746H21.6499H21.6253H21.6006H21.576H21.5513H21.5267H21.5021H21.4774H21.4528H21.4282H21.4036H21.3789H21.3543H21.3297H21.3051H21.2805H21.2559H21.2313H21.2067H21.1821H21.1574H21.1328H21.1082H21.0837H21.0591H21.0345H21.0099H20.9853H20.9607H20.9361H20.9115H20.8869H20.8623H20.8377H20.8131H20.7885H20.7639H20.7393H20.7147H20.6901H20.6655H20.6409H20.6163H20.5917H20.5671H20.5425H20.5178H20.4932H20.4686H20.444H20.4194H20.3947H20.3701H20.3455H20.3208H20.2962H20.2715H20.2469H20.2222H20.1976H20.1729H20.1482H20.1236H20.0989H20.0742H20.0495H20.0248H20.0001H19.9754H19.9507H19.926H19.9013H19.8765H19.8518H19.827H19.8023H19.7775H19.7528H19.728H19.7032H19.6784H19.6536H19.6288H19.604H19.5792H19.5544H19.5295H19.5047H19.4798H19.455H19.4301H19.4052H19.3803H19.3555H19.3305H19.3056H19.2807H19.2558H19.2308H19.2058H19.1809H19.1559H19.1309H19.1059H19.0809H19.0559H19.0308H19.0058H18.9807H18.9557H18.9306C18.8552 49.3988 18.811 49.3744 18.7858 49.3486C18.7601 49.3224 18.7345 49.2747 18.7345 49.1933V46.8246C18.7345 46.7432 18.7601 46.6955 18.7858 46.6693C18.811 46.6435 18.8552 46.6191 18.9306 46.6191H33.5607C33.6361 46.6191 33.6803 46.6435 33.7055 46.6693C33.7311 46.6955 33.7568 46.7432 33.7568 46.8246V49.1933Z" fill="#048DEF" stroke="#048DEF" stroke-width="0.5"></path><path d="M26.3374 8.0827C26.6634 8.0827 26.9538 7.97048 27.1628 7.75708C27.3713 7.54415 27.4795 7.25024 27.4795 6.92167V1.91103C27.4795 1.58246 27.3713 1.28855 27.1628 1.07562C26.9538 0.862223 26.6634 0.75 26.3374 0.75C26.0114 0.75 25.721 0.862223 25.512 1.07562C25.3035 1.28855 25.1953 1.58246 25.1953 1.91103V6.92167C25.1953 7.4936 25.6434 8.0827 26.3374 8.0827Z" fill="#048DEF" stroke="#048DEF" stroke-width="0.5"></path><path d="M15.5894 10.1417L15.5893 10.1417L15.5917 10.1458C15.9385 10.736 16.622 10.831 17.1507 10.615L17.1695 10.6073L17.1868 10.5967C17.7656 10.2421 17.8545 9.54968 17.6458 9.01694L17.6395 9.00073L17.6309 8.98555L15.2223 4.70372L15.2223 4.7037L15.22 4.69965C14.8732 4.10942 14.1897 4.01445 13.6609 4.23045L13.6422 4.23812L13.6249 4.24872C13.0461 4.60338 12.9572 5.29576 13.1659 5.8285L13.1722 5.84471L13.1808 5.85989L15.5894 10.1417Z" fill="#048DEF" stroke="#048DEF" stroke-width="0.5"></path><path d="M4.61368 15.4252L4.61366 15.4252L4.61779 15.4276L8.80863 17.8862C9.39415 18.2434 10.0764 17.9874 10.4015 17.434C10.7476 16.8449 10.5054 16.1531 9.95978 15.8187L9.9598 15.8187L9.95567 15.8163L5.76483 13.3577C5.17931 13.0005 4.49706 13.2565 4.17191 13.8099C3.82581 14.399 4.06803 15.0908 4.61368 15.4252Z" fill="#048DEF" stroke="#048DEF" stroke-width="0.5"></path><path d="M7.85141 26.8732C7.85141 26.5446 7.74321 26.2507 7.53471 26.0378C7.32575 25.8244 7.03536 25.7122 6.70933 25.7122H1.89208C1.56605 25.7122 1.27566 25.8244 1.0667 26.0378C0.858196 26.2507 0.75 26.5446 0.75 26.8732C0.75 27.2017 0.858196 27.4957 1.0667 27.7086C1.27566 27.922 1.56605 28.0342 1.89208 28.0342H6.70933C7.03536 28.0342 7.32575 27.922 7.53471 27.7086C7.74321 27.4957 7.85141 27.2017 7.85141 26.8732Z" fill="#048DEF" stroke="#048DEF" stroke-width="0.5"></path><path d="M4.62117 38.3187L4.62115 38.3187L4.61706 38.3212C4.03825 38.6758 3.9494 39.3682 4.15806 39.901L4.16527 39.9194L4.17529 39.9364C4.52207 40.5267 5.20553 40.6216 5.7343 40.4056L5.75084 40.3989L5.76626 40.3898L9.95904 37.9301L9.95907 37.9301L9.96316 37.9276C10.542 37.5729 10.6308 36.8806 10.4222 36.3478L10.4149 36.3294L10.4049 36.3124C10.0798 35.7589 9.39753 35.503 8.81201 35.8601L4.62117 38.3187Z" fill="#048DEF" stroke="#048DEF" stroke-width="0.5"></path><path d="M42.7074 38.0185L42.7074 38.0186L42.7115 38.021L46.9024 40.4796C47.4879 40.8368 48.1701 40.5808 48.4953 40.0274L48.5001 40.0192L48.5043 40.0107C48.8152 39.3757 48.635 38.6586 48.035 38.4012L43.8586 35.951C43.2731 35.5939 42.5908 35.8499 42.2657 36.4033C41.9196 36.9924 42.1618 37.6842 42.7074 38.0185Z" fill="#048DEF" stroke="#048DEF" stroke-width="0.5"></path><path d="M50.7796 25.7122H45.9624C45.6364 25.7122 45.346 25.8244 45.137 26.0378C44.9285 26.2507 44.8203 26.5446 44.8203 26.8732C44.8203 27.2017 44.9285 27.4957 45.137 27.7086C45.346 27.922 45.6364 28.0342 45.9624 28.0342H50.8688C51.1949 28.0342 51.4853 27.922 51.6942 27.7086C51.9027 27.4957 52.0109 27.2017 52.0109 26.8732C52.0109 26.1628 51.4258 25.7122 50.7796 25.7122Z" fill="#048DEF" stroke="#048DEF" stroke-width="0.5"></path><path d="M48.0489 15.4276L48.0489 15.4276L48.053 15.4251C48.6318 15.0705 48.7207 14.3781 48.512 13.8453C48.3851 13.5214 48.1036 13.3426 47.8142 13.2723C47.527 13.2024 47.2057 13.2304 46.9358 13.3407L46.9192 13.3474L46.9038 13.3565L42.711 15.8163L42.711 15.8162L42.7069 15.8187C42.1281 16.1734 42.0392 16.8658 42.2479 17.3985L42.2551 17.4169L42.2651 17.434C42.5903 17.9874 43.2725 18.2433 43.8581 17.8862L48.0489 15.4276Z" fill="#048DEF" stroke="#048DEF" stroke-width="0.5"></path><path d="M37.1697 10.1458L37.1697 10.1458L37.172 10.1417L39.5796 5.86185C39.9238 5.27323 39.6815 4.58268 39.1366 4.24874C38.5505 3.88967 37.867 4.14558 37.5415 4.69968L37.5414 4.69966L37.5391 4.70375L35.1316 8.98364C34.7873 9.57226 35.0296 10.2628 35.5746 10.5967C36.1606 10.9558 36.8442 10.6999 37.1697 10.1458Z" fill="#048DEF" stroke="#048DEF" stroke-width="0.5"></path></svg>