<svg xmlns="http://www.w3.org/2000/svg" width="74" height="67" viewBox="0 0 74 67" fill="none"><path d="M56.8977 22.585C56.879 22.585 56.8508 22.5763 56.8267 22.553C56.8061 22.533 56.7969 22.5111 56.7969 22.4842C56.7969 22.4656 56.8056 22.4374 56.8289 22.4133C56.8489 22.3926 56.8708 22.3834 56.8977 22.3834H61.1112C61.1298 22.3834 61.158 22.3921 61.1821 22.4155C61.2027 22.4354 61.212 22.4573 61.212 22.4842C61.212 22.5348 61.1954 22.5548 61.1886 22.5616C61.1817 22.5685 61.1617 22.585 61.1112 22.585H56.8977Z" fill="#C5C5C5" stroke="#C5C5C5" stroke-width="1.5"></path><path d="M63.2219 22.585C63.2033 22.585 63.1751 22.5763 63.1509 22.553C63.1303 22.533 63.1211 22.5111 63.1211 22.4842C63.1211 22.4656 63.1298 22.4374 63.1531 22.4133C63.1731 22.3927 63.195 22.3834 63.2219 22.3834H64.6399C64.6585 22.3834 64.6867 22.3921 64.7109 22.4155C64.7315 22.4354 64.7407 22.4573 64.7407 22.4842C64.7407 22.5348 64.7241 22.5548 64.7173 22.5616C64.7105 22.5685 64.6904 22.585 64.6399 22.585H63.2219Z" fill="#C5C5C5" stroke="#C5C5C5" stroke-width="1.5"></path><path d="M49.201 65.652C46.8197 65.652 44.8867 63.719 44.8867 61.3377V23.4972C44.8867 21.1159 46.8197 19.1829 49.201 19.1829H68.81C71.1913 19.1829 73.1243 21.1159 73.1243 23.4972V61.3377C73.1243 63.719 71.1913 65.652 68.81 65.652H49.201ZM49.201 19.3845C46.9231 19.3845 45.0883 21.2193 45.0883 23.4972V61.3377C45.0883 63.6156 46.9231 65.4504 49.201 65.4504H68.81C71.0879 65.4504 72.9227 63.6156 72.9227 61.3377V23.4972C72.9227 21.2193 71.0879 19.3845 68.81 19.3845H49.4036H49.201Z" fill="#C5C5C5" stroke="#C5C5C5" stroke-width="1.5"></path><path d="M0.948475 5.52847H0.869536C0.854487 5.51077 0.847656 5.49131 0.847656 5.46818V1.45725C0.847656 1.43863 0.856343 1.41043 0.879695 1.3863C0.899655 1.36567 0.921582 1.35645 0.948475 1.35645H40.9768C40.9954 1.35645 41.0236 1.36513 41.0477 1.38848C41.0683 1.40843 41.0776 1.43035 41.0776 1.45725V5.46818C41.0776 5.47377 41.0745 5.49494 41.0612 5.52471C41.0523 5.52658 41.0382 5.52847 41.0173 5.52847H0.948475ZM40.1665 5.36737H40.9165V4.61737V2.30805V1.55805H40.1665H1.79927H1.04927V2.30805V4.61737V5.36737H1.79927H40.1665Z" fill="#C5C5C5" stroke="#C5C5C5" stroke-width="1.5"></path><path d="M48.9953 5.52841H48.9164C48.9014 5.51072 48.8945 5.49126 48.8945 5.46812V1.45719C48.8945 1.43855 48.9032 1.41035 48.9266 1.38623C48.9465 1.36561 48.9684 1.35638 48.9953 1.35638H53.0063C53.0249 1.35638 53.0531 1.36507 53.0772 1.38842C53.0978 1.40837 53.1071 1.43029 53.1071 1.45719V5.46812C53.1071 5.47371 53.104 5.49488 53.0907 5.52466C53.0818 5.52652 53.0678 5.52841 53.0468 5.52841H48.9953ZM52.1554 5.36731H52.9054V4.61731V2.30799V1.55799H52.1554H49.8461H49.0961V2.30799V4.61731V5.36731H49.8461H52.1554Z" fill="#C5C5C5" stroke="#C5C5C5" stroke-width="1.5"></path><path d="M48.1477 5.36731H48.8977V4.61731V2.30799V1.55799H48.1477H45.8383H45.0883V2.30799V4.61731V5.36731H45.8383H48.1477ZM44.9875 5.56892C44.9689 5.56892 44.9407 5.56023 44.9166 5.53688C44.8959 5.51692 44.8867 5.495 44.8867 5.46812V1.45719C44.8867 1.43857 44.8954 1.41037 44.9188 1.38624C44.9387 1.36561 44.9606 1.35638 44.9875 1.35638H48.9985C49.0171 1.35638 49.0453 1.36508 49.0694 1.38843C49.0901 1.40839 49.0993 1.43031 49.0993 1.45719V5.46812C49.0993 5.48674 49.0906 5.51494 49.0672 5.53907C49.0473 5.5597 49.0253 5.56892 48.9985 5.56892H44.9875Z" fill="#C5C5C5" stroke="#C5C5C5" stroke-width="1.5"></path><path d="M44.1359 5.36731H44.8859V4.61731V2.30799V1.55799H44.1359H41.8266H41.0766V2.30799V4.61731V5.36731H41.8266H44.1359ZM40.9758 5.56892C40.9572 5.56892 40.929 5.56023 40.9048 5.53689C40.8842 5.51694 40.875 5.49502 40.875 5.46812V1.45719C40.875 1.43855 40.8837 1.41035 40.907 1.38623C40.927 1.36561 40.9489 1.35638 40.9758 1.35638H44.9867C45.0054 1.35638 45.0336 1.36507 45.0577 1.38842C45.0783 1.40837 45.0875 1.43029 45.0875 1.45719V5.46812C45.0875 5.51865 45.071 5.53866 45.0641 5.54551C45.0573 5.55236 45.0373 5.56892 44.9867 5.56892H40.9758Z" fill="#C5C5C5" stroke="#C5C5C5" stroke-width="1.5"></path><path d="M0.948475 9.53933H0.869535C0.854486 9.52164 0.847656 9.50218 0.847656 9.47905V5.46812C0.847656 5.4495 0.856344 5.42129 0.879697 5.39716C0.899657 5.37654 0.921584 5.36731 0.948475 5.36731H53.0096C53.0282 5.36731 53.0564 5.376 53.0805 5.39934C53.1011 5.4193 53.1104 5.44122 53.1104 5.46812V9.47905C53.1104 9.48464 53.1073 9.50581 53.094 9.53558C53.0851 9.53744 53.071 9.53933 53.0501 9.53933H0.948475ZM52.1587 9.37824H52.9087V8.62824V6.31892V5.56892H52.1587H1.79927H1.04927V6.31892V8.62824V9.37824H1.79927H52.1587Z" fill="#C5C5C5" stroke="#C5C5C5" stroke-width="1.5"></path><path d="M0.948475 50.5805H0.869534C0.854486 50.5628 0.847656 50.5434 0.847656 50.5203V9.4791C0.847656 9.46048 0.856343 9.43228 0.879695 9.40815C0.899655 9.38752 0.921582 9.3783 0.948475 9.3783H53.0096C53.0282 9.3783 53.0564 9.38699 53.0805 9.41033C53.1011 9.43028 53.1104 9.4522 53.1104 9.4791V19.2836C53.1104 19.3022 53.1017 19.3304 53.0783 19.3546C53.0584 19.3752 53.0364 19.3844 53.0096 19.3844H49.2012C46.9233 19.3844 45.0885 21.2192 45.0885 23.4971V50.5203C45.0885 50.5258 45.0855 50.547 45.0721 50.5768C45.0633 50.5787 45.0492 50.5805 45.0282 50.5805H0.948475ZM44.1369 50.4194H44.8869V49.6694V23.4971C44.8869 21.1158 46.8199 19.1828 49.2012 19.1828H52.1587H52.9087V18.4328V10.3299V9.57991H52.1587H1.79927H1.04927V10.3299V49.6694V50.4194H1.79927H44.1369Z" fill="#C5C5C5" stroke="#C5C5C5" stroke-width="1.5"></path><path d="M56.8589 60.8307C56.2427 60.8307 55.9883 60.4322 55.9883 60.2437C55.9883 60.0278 56.2267 59.6567 56.8589 59.6567H61.1129C61.7291 59.6567 61.9835 60.0552 61.9835 60.2437C61.9835 60.4596 61.745 60.8307 61.1129 60.8307H56.8589Z" fill="#C5C5C5" stroke="#C5C5C5" stroke-width="1.5"></path><path d="M7.55078 18.2303H33.6016" stroke="#C5C5C5" stroke-width="1.5" stroke-miterlimit="10" stroke-linecap="round" stroke-linejoin="round"></path><path d="M7.55078 39.5408H33.6016" stroke="#C5C5C5" stroke-width="1.5" stroke-miterlimit="10" stroke-linecap="round" stroke-linejoin="round"></path><path d="M7.55078 23.5376H29.064" stroke="#C5C5C5" stroke-width="1.5" stroke-miterlimit="10" stroke-linecap="round" stroke-linejoin="round"></path><path d="M7.55078 34.1929H24.4048" stroke="#C5C5C5" stroke-width="1.5" stroke-miterlimit="10" stroke-linecap="round" stroke-linejoin="round"></path><path d="M29.7109 34.1929H44.7823" stroke="#C5C5C5" stroke-width="1.5" stroke-miterlimit="10" stroke-linecap="round" stroke-linejoin="round"></path><path d="M7.55078 28.8856H44.7836" stroke="#C5C5C5" stroke-width="1.5" stroke-miterlimit="10" stroke-linecap="round" stroke-linejoin="round"></path><path d="M50.2578 45.8611H67.76" stroke="#C5C5C5" stroke-width="1.5" stroke-miterlimit="10" stroke-linecap="round" stroke-linejoin="round"></path><path d="M50.2578 49.6695H67.76" stroke="#C5C5C5" stroke-width="1.5" stroke-miterlimit="10" stroke-linecap="round" stroke-linejoin="round"></path><path d="M50.2578 53.4779H67.76" stroke="#C5C5C5" stroke-width="1.5" stroke-miterlimit="10" stroke-linecap="round" stroke-linejoin="round"></path><path d="M66.703 39.3788H51.3075C50.2947 39.3788 49.4844 38.5685 49.4844 37.5557V31.3164C49.4844 30.3036 50.2947 29.4933 51.3075 29.4933H66.703C67.7159 29.4933 68.5262 30.3036 68.5262 31.3164V37.5557C68.5262 38.5685 67.7159 39.3788 66.703 39.3788Z" stroke="#C5C5C5" stroke-width="1.5" stroke-miterlimit="10"></path></svg>