<svg xmlns="http://www.w3.org/2000/svg" width="74" height="67" viewBox="0 0 74 67" fill="none"><path d="M56.8 22.1664C56.7834 22.1664 56.7559 22.1585 56.7313 22.1345C56.7101 22.1139 56.6992 22.0896 56.6992 22.0586C56.6992 22.0361 56.7094 22.0055 56.7334 21.9805C56.7539 21.9591 56.7752 21.9507 56.8 21.9507H61.0135C61.0302 21.9507 61.0577 21.9587 61.0823 21.9826C61.1034 22.0033 61.1143 22.0276 61.1143 22.0586C61.1143 22.1131 61.0963 22.1355 61.0887 22.1432C61.0814 22.1505 61.0621 22.1664 61.0135 22.1664H56.8Z" fill="#047BDC" stroke="#047BDC" stroke-width="1.5"></path><path d="M63.1243 22.1664C63.1076 22.1664 63.0801 22.1585 63.0555 22.1345C63.0343 22.1139 63.0234 22.0896 63.0234 22.0586C63.0234 22.0361 63.0336 22.0055 63.0576 21.9805C63.0782 21.9591 63.0995 21.9507 63.1243 21.9507H64.5423C64.5589 21.9507 64.5864 21.9587 64.611 21.9826C64.6322 22.0033 64.6431 22.0276 64.6431 22.0586C64.6431 22.1131 64.6251 22.1355 64.6175 22.1432C64.6102 22.1505 64.5908 22.1664 64.5423 22.1664H63.1243Z" fill="#047BDC" stroke="#047BDC" stroke-width="1.5"></path><path d="M49.1034 65.5891C46.7279 65.5891 44.7891 63.6431 44.7891 61.2329V23.0798C44.7891 20.6696 46.7279 18.7237 49.1034 18.7237H68.7124C71.0879 18.7237 73.0267 20.6696 73.0267 23.0798V61.2329C73.0267 63.6431 71.0879 65.5891 68.7124 65.5891H49.1034ZM49.1034 18.9394C46.8197 18.9394 44.9907 20.7924 44.9907 23.0798V61.2329C44.9907 63.5204 46.8197 65.3734 49.1034 65.3734H68.7124C70.9961 65.3734 72.8251 63.5204 72.8251 61.2329V23.0798C72.8251 20.7924 70.9961 18.9394 68.7124 18.9394H49.3059H49.1034Z" fill="#047BDC" stroke="#047BDC" stroke-width="1.5"></path><path d="M0.850819 4.96894H0.773734C0.758046 4.95027 0.75 4.92858 0.75 4.90196V0.857892C0.75 0.835462 0.760193 0.804816 0.784179 0.779827C0.804724 0.758422 0.82604 0.750061 0.850819 0.750061H40.8791C40.8957 0.750061 40.9233 0.757972 40.9478 0.781953C40.969 0.802592 40.9799 0.826891 40.9799 0.857892V4.90196C40.9799 4.90981 40.9762 4.93344 40.9618 4.96539C40.9533 4.96715 40.9397 4.96894 40.9196 4.96894H0.850819ZM40.0688 4.79412H40.8188V4.04412V1.71572V0.965724H40.0688H1.70161H0.951612V1.71572V4.04412V4.79412H1.70161H40.0688Z" fill="#047BDC" stroke="#047BDC" stroke-width="1.5"></path><path d="M48.8977 4.96888H48.8206C48.8049 4.95021 48.7969 4.92853 48.7969 4.9019V0.857831C48.7969 0.835385 48.8071 0.804738 48.8311 0.779755C48.8516 0.758358 48.8729 0.75 48.8977 0.75H52.9086C52.9252 0.75 52.9528 0.757911 52.9773 0.781893C52.9985 0.802533 53.0094 0.826831 53.0094 0.857831V4.9019C53.0094 4.90974 53.0057 4.93338 52.9913 4.96533C52.9828 4.9671 52.9692 4.96888 52.9491 4.96888H48.8977ZM52.0578 4.79406H52.8078V4.04406V1.71566V0.965663H52.0578H49.7485H48.9985V1.71566V4.04406V4.79406H49.7485H52.0578Z" fill="#047BDC" stroke="#047BDC" stroke-width="1.5"></path><path d="M48.05 4.79406H48.8V4.04406V1.71566V0.965663H48.05H45.7407H44.9907V1.71566V4.04406V4.79406H45.7407H48.05ZM44.8899 5.00973C44.8732 5.00973 44.8457 5.00181 44.8211 4.97782C44.8 4.95718 44.7891 4.93288 44.7891 4.9019V0.857831C44.7891 0.835401 44.7993 0.804755 44.8232 0.779766C44.8438 0.758361 44.8651 0.75 44.8899 0.75H48.9008C48.9174 0.75 48.945 0.757914 48.9696 0.781904C48.9907 0.802549 49.0016 0.826846 49.0016 0.857831V4.9019C49.0016 4.92433 48.9914 4.95497 48.9674 4.97996C48.9469 5.00137 48.9256 5.00973 48.9008 5.00973H44.8899Z" fill="#047BDC" stroke="#047BDC" stroke-width="1.5"></path><path d="M44.0383 4.79406H44.7883V4.04406V1.71566V0.965663H44.0383H41.7289H40.9789V1.71566V4.04406V4.79406H41.7289H44.0383ZM40.8781 5.00973C40.8615 5.00973 40.834 5.00182 40.8094 4.97783C40.7882 4.9572 40.7773 4.9329 40.7773 4.9019V0.857831C40.7773 0.835385 40.7875 0.804738 40.8115 0.779755C40.8321 0.758358 40.8534 0.75 40.8781 0.75H44.8891C44.9057 0.75 44.9332 0.757911 44.9578 0.781893C44.979 0.802533 44.9899 0.826831 44.9899 0.857831V4.9019C44.9899 4.95639 44.9719 4.97883 44.9643 4.98649C44.957 4.99386 44.9376 5.00973 44.8891 5.00973H40.8781Z" fill="#047BDC" stroke="#047BDC" stroke-width="1.5"></path><path d="M0.850819 9.01295H0.773732C0.758046 8.99427 0.75 8.97259 0.75 8.94596V4.9019C0.75 4.87947 0.760194 4.84882 0.78418 4.82383C0.804726 4.80243 0.826042 4.79407 0.850819 4.79407H52.9119C52.9285 4.79407 52.9561 4.80198 52.9806 4.82596C53.0018 4.8466 53.0127 4.8709 53.0127 4.9019V8.94596C53.0127 8.95381 53.009 8.97744 52.9946 9.00939C52.9861 9.01116 52.9725 9.01295 52.9524 9.01295H0.850819ZM52.0611 8.83813H52.8111V8.08813V5.75973V5.00973H52.0611H1.70161H0.951612V5.75973V8.08813V8.83813H1.70161H52.0611Z" fill="#047BDC" stroke="#047BDC" stroke-width="1.5"></path><path d="M0.850819 50.3931H0.773732C0.758045 50.3745 0.75 50.3528 0.75 50.3261V8.94597C0.75 8.92354 0.760193 8.89289 0.784179 8.8679C0.804724 8.8465 0.82604 8.83813 0.850819 8.83813H52.9119C52.9285 8.83813 52.9561 8.84605 52.9806 8.87003C53.0018 8.89067 53.0127 8.91497 53.0127 8.94597V18.8315C53.0127 18.8539 53.0025 18.8846 52.9785 18.9095C52.958 18.9309 52.9367 18.9393 52.9119 18.9393H49.1035C46.8198 18.9393 44.9908 20.7923 44.9908 23.0798V50.3261C44.9908 50.334 44.9872 50.3576 44.9727 50.3896C44.9642 50.3913 44.9507 50.3931 44.9305 50.3931H0.850819ZM44.0392 50.2183H44.7892V49.4683V23.0798C44.7892 20.6696 46.7281 18.7236 49.1035 18.7236H52.0611H52.8111V17.9736V9.8038V9.0538H52.0611H1.70161H0.951612V9.8038V49.4683V50.2183H1.70161H44.0392Z" fill="#047BDC" stroke="#047BDC" stroke-width="1.5"></path><path d="M56.7612 60.728C56.1512 60.728 55.8906 60.3297 55.8906 60.13C55.8906 59.9027 56.1353 59.532 56.7612 59.532H61.0152C61.6252 59.532 61.8858 59.9303 61.8858 60.13C61.8858 60.3574 61.6411 60.728 61.0152 60.728H56.7612Z" fill="#047BDC" stroke="#047BDC" stroke-width="1.5"></path><path d="M7.45312 17.7695H33.5039" stroke="#047BDC" stroke-width="1.5" stroke-miterlimit="10" stroke-linecap="round" stroke-linejoin="round"></path><path d="M7.45312 39.256H33.5039" stroke="#047BDC" stroke-width="1.5" stroke-miterlimit="10" stroke-linecap="round" stroke-linejoin="round"></path><path d="M7.45312 23.1206H28.9663" stroke="#047BDC" stroke-width="1.5" stroke-miterlimit="10" stroke-linecap="round" stroke-linejoin="round"></path><path d="M7.45312 33.864H24.3071" stroke="#047BDC" stroke-width="1.5" stroke-miterlimit="10" stroke-linecap="round" stroke-linejoin="round"></path><path d="M29.6133 33.864H44.6847" stroke="#047BDC" stroke-width="1.5" stroke-miterlimit="10" stroke-linecap="round" stroke-linejoin="round"></path><path d="M7.45312 28.5128H44.6859" stroke="#047BDC" stroke-width="1.5" stroke-miterlimit="10" stroke-linecap="round" stroke-linejoin="round"></path><path d="M50.1602 45.6287H67.6624" stroke="#047BDC" stroke-width="1.5" stroke-miterlimit="10" stroke-linecap="round" stroke-linejoin="round"></path><path d="M50.1602 49.4684H67.6624" stroke="#047BDC" stroke-width="1.5" stroke-miterlimit="10" stroke-linecap="round" stroke-linejoin="round"></path><path d="M50.1602 53.3083H67.6624" stroke="#047BDC" stroke-width="1.5" stroke-miterlimit="10" stroke-linecap="round" stroke-linejoin="round"></path><path d="M66.6054 39.0927H51.2099C50.197 39.0927 49.3867 38.2758 49.3867 37.2545V30.9638C49.3867 29.9425 50.197 29.1255 51.2099 29.1255H66.6054C67.6182 29.1255 68.4285 29.9425 68.4285 30.9638V37.2545C68.4285 38.2758 67.6182 39.0927 66.6054 39.0927Z" stroke="#047BDC" stroke-width="1.5" stroke-miterlimit="10"></path></svg>