<svg xmlns="http://www.w3.org/2000/svg" width="40" height="40" viewBox="0 0 40 40" fill="none"><rect x="0.84375" y="0.408691" width="39" height="39" rx="19.5" fill="#F0F4FF"></rect><path d="M13.8438 19.4087C13.2915 19.4087 12.8438 19.8564 12.8438 20.4087C12.8438 20.961 13.2915 21.4087 13.8438 21.4087V19.4087ZM28.693 21.1158C29.0835 20.7253 29.0835 20.0921 28.693 19.7016L22.329 13.3376C21.9385 12.9471 21.3053 12.9471 20.9148 13.3376C20.5243 13.7281 20.5243 14.3613 20.9148 14.7518L26.5717 20.4087L20.9148 26.0655C20.5243 26.4561 20.5243 27.0892 20.9148 27.4798C21.3053 27.8703 21.9385 27.8703 22.329 27.4798L28.693 21.1158ZM13.8438 21.4087H27.9859V19.4087H13.8438V21.4087Z" fill="#0449A9"></path></svg>