<svg xmlns="http://www.w3.org/2000/svg" width="62" height="63" viewBox="0 0 62 63" fill="none"><path d="M13.7928 1.29315H13.0428V2.04315V3.06471C13.0428 3.61735 13.3258 4.09525 13.6567 4.41468C13.9879 4.73438 14.4676 4.99343 15.0008 4.99343H22.9505C24.0556 4.99343 24.9085 4.15727 24.9085 3.06471V2.04315V1.29315H24.1585H13.7928ZM22.9505 5.18294H15.0008C13.8491 5.18294 12.8281 4.13641 12.8281 3.06471V1.21804C12.8281 1.17647 12.8352 1.1514 12.8399 1.13915C12.8445 1.12728 12.8485 1.12323 12.8493 1.12244L12.8493 1.12243C12.8501 1.12165 12.8534 1.11835 12.8633 1.11441C12.8737 1.11032 12.8964 1.10364 12.9354 1.10364H25.0548C25.0938 1.10364 25.1165 1.11032 25.1269 1.11441C25.1369 1.11835 25.1401 1.12165 25.1409 1.12243L25.1409 1.12244C25.1417 1.12323 25.1457 1.12728 25.1503 1.13915C25.1551 1.1514 25.1621 1.17647 25.1621 1.21804V3.06471C25.1621 4.23461 24.2003 5.18294 22.9505 5.18294Z" fill="#048DEF" stroke="#048DEF" stroke-width="1.5"></path><path d="M38.1023 44.3988V45.6186L39.1908 45.068L50.6866 39.253L51.0981 39.0448V38.5837V24.9498V23.7299L50.0096 24.2805L38.5137 30.0956L38.1023 30.3037V30.7648V44.3988ZM37.8911 15.9147L38.2288 15.2449L37.8911 15.9147L51.6082 22.8298C51.7377 22.8951 51.8193 23.0244 51.8193 23.1817V39.3302C51.8193 39.4876 51.7377 39.6168 51.6082 39.6821L37.8911 46.5973C37.8405 46.6228 37.8003 46.6349 37.7222 46.6349C37.7038 46.6349 37.6712 46.6322 37.6328 46.6236C37.5943 46.6149 37.5667 46.6041 37.5532 46.5973L23.8361 39.6821C23.7066 39.6168 23.625 39.4876 23.625 39.3302V23.1817C23.625 23.0244 23.7066 22.8951 23.8361 22.8298L37.5532 15.9147C37.6039 15.8891 37.644 15.8771 37.7222 15.8771C37.7405 15.8771 37.7731 15.8798 37.8115 15.8884C37.8501 15.897 37.8776 15.9079 37.8911 15.9147ZM36.2535 45.068L37.3421 45.6186V44.3988V30.7648V30.3037L36.9306 30.0956L25.4348 24.2805L24.3462 23.7299V24.9498V38.5837V39.0448L24.7577 39.253L36.2535 45.068ZM37.3845 29.5093L37.7222 29.6795L38.0598 29.5093L49.2829 23.8514L50.6113 23.1817L49.2829 22.512L38.0598 16.8541L37.7222 16.6839L37.3845 16.8541L26.1615 22.512L24.833 23.1817L26.1615 23.8514L37.3845 29.5093Z" fill="#048DEF" stroke="#048DEF" stroke-width="1.5"></path><path d="M6.43947 61.6439V61.4867H5.68947C2.95633 61.4867 0.75 59.2385 0.75 56.5003V5.73647C0.75 2.96564 2.98864 0.75 5.68947 0.75H33.1626C35.7889 0.75 38.0294 2.93181 38.1021 5.58912V5.61859V5.65788V5.65811V5.65834V5.65857V5.6588V5.65903V5.65926V5.65949V5.65972V5.65996V5.66019V5.66042V5.66065V5.66088V5.66111V5.66134V5.66157V5.6618V5.66203V5.66226V5.66249V5.66272V5.66295V5.66318V5.66341V5.66364V5.66387V5.6641V5.66434V5.66457V5.6648V5.66503V5.66526V5.66549V5.66572V5.66595V5.66618V5.66642V5.66665V5.66688V5.66711V5.66734V5.66757V5.66781V5.66804V5.66827V5.6685V5.66873V5.66897V5.6692V5.66943V5.66966V5.6699V5.67013V5.67036V5.67059V5.67083V5.67106V5.67129V5.67153V5.67176V5.67199V5.67223V5.67246V5.67269V5.67293V5.67316V5.6734V5.67363V5.67386V5.6741V5.67433V5.67457V5.6748V5.67504V5.67527V5.67551V5.67574V5.67598V5.67621V5.67645V5.67669V5.67692V5.67716V5.67739V5.67763V5.67787V5.6781V5.67834V5.67858V5.67882V5.67905V5.67929V5.67953V5.67977V5.68V5.68024V5.68048V5.68072V5.68096V5.6812V5.68144V5.68168V5.68192V5.68216V5.68239V5.68263V5.68288V5.68312V5.68336V5.6836V5.68384V5.68408V5.68432V5.68456V5.6848V5.68505V5.68529V5.68553V5.68577V5.68602V5.68626V5.6865V5.68674V5.68699V5.68723V5.68748V5.68772V5.68796V5.68821V5.68845V5.6887V5.68895V5.68919V5.68944V5.68968V5.68993V5.69018V5.69042V5.69067V5.69092V5.69116V5.69141V5.69166V5.69191V5.69216V5.69241V5.69266V5.6929V5.69315V5.6934V5.69365V5.6939V5.69415V5.69441V5.69466V5.69491V5.69516V5.69541V5.69566V5.69592V5.69617V5.69642V5.69668V5.69693V5.69718V5.69744V5.69769V5.69795V5.6982V5.69846V5.69871V5.69897V5.69923V5.69948V5.69974V5.7V5.70025V5.70051V5.70077V5.70103V5.70129V5.70155V5.70181V5.70207V5.70233V5.70259V5.70285V5.70311V5.70337V5.70363V5.70389V5.70416V5.70442V5.70468V5.70495V5.70521V5.70547V5.70574V5.706V5.70627V5.70653V5.7068V5.70707V5.70733V5.7076V5.70787V5.70814V5.7084V5.70867V5.70894V5.70921V5.70948V5.70975V5.71002V5.71029V5.71056V5.71083V5.7111V5.71138V5.71165V5.71192V5.71219V5.71247V5.71274V5.71302V5.71329V5.71357V5.71384V5.71412V5.7144V5.71467V5.71495V5.71523V5.71551V5.71578V5.71606V5.71634V5.71662V5.7169V5.71718V5.71746V5.71774V5.71803V5.71831V5.71859V5.71887V5.71916V5.71944V5.71973V5.72001V5.7203V5.72058V5.72087V5.72116V5.72144V5.72173V5.72202V5.72231V5.7226V5.72289V5.72318V5.72347V5.72376V5.72405V5.72434V5.72463V5.72492V5.72522V5.72551V5.7258V5.7261V5.72639V5.72669V5.72698V5.72728V5.72758V5.72788V5.72817V5.72847V5.72877V5.72907V5.72937V5.72967V5.72997V5.73027V5.73057V5.73088V5.73118V5.73148V5.73179V5.73209V5.7324V5.7327V5.73301V5.73331V5.73362V5.73393V5.73424V5.73454V5.73485V5.73516V5.73547V5.73578V5.73609V5.73641V5.73672V5.73703V5.73734V5.73766V5.73797V5.73829V5.7386V5.73892V5.73923V5.73955V5.73987V5.74019V5.74051V5.74083V5.74115V5.74147V5.74179V5.74211V5.74243V5.74275V5.74308V5.7434V5.74373V5.74405V5.74438V5.7447V5.74503V5.74536V5.74568V5.74601V5.74634V5.74667V5.747V5.74733V5.74766V5.748V5.74833V5.74866V5.749V5.74933V5.74966V5.75V5.75034V5.75067V5.75101V5.75135V5.75169V5.75203V5.75237V5.75271V5.75305V5.75339V5.75373V5.75408V5.75442V5.75476V5.75511V5.75546V5.7558V5.75615V5.7565V5.75684V5.75719V5.75754V5.75789V5.75824V5.75859V5.75895V5.7593V5.75965V5.76001V5.76036V5.76072V5.76107V5.76143V5.76179V5.76215V5.7625V5.76286V5.76322V5.76358V5.76395V5.76431V5.76467V5.76503V5.7654V5.76576V5.76613V5.76649V5.76686V5.76723V5.7676V5.76797V5.76834V5.76871V5.76908V5.76945V5.76982V5.7702V5.77057V5.77094V5.77132V5.7717V5.77207V5.77245V5.77283V5.77321V5.77359V5.77397V5.77435V5.77473V5.77511V5.7755V5.77588V5.77626V5.77665V5.77704V5.77742V5.77781V5.7782V5.77859V5.77898V5.77937V5.77976V5.78015V5.78055V5.78094V5.78133V5.78173V5.78212V5.78252V5.78292V5.78332V5.78372V5.78412V5.78452V5.78492V5.78532V5.78572V5.78613V5.78653V5.78694V5.78734V5.78775V5.78816V5.78857V5.78898V5.78939V5.7898V5.79021L38.0259 6.9033L37.9765 7.62535L38.6963 7.70044L39.8264 7.81831L39.8264 7.81836L39.8349 7.81914C45.5715 8.35188 50.9325 11.0158 54.8599 15.3183L54.8601 15.3185C58.8256 19.6594 61.0158 25.294 61.0158 31.1969C61.0158 37.0999 58.8256 42.7345 54.8601 47.0754L54.8599 47.0756C50.9325 51.3781 45.5715 54.042 39.8349 54.5747L39.8264 54.5756L38.6963 54.6935L37.9765 54.7685L38.0259 55.4906L38.1021 56.6038V56.6041V56.6043V56.6046V56.6048V56.605V56.6053V56.6055V56.6058V56.606V56.6063V56.6065V56.6067V56.607V56.6072V56.6075V56.6077V56.608V56.6082V56.6084V56.6087V56.6089V56.6092V56.6094V56.6097V56.6099V56.6102V56.6104V56.6106V56.6109V56.6111V56.6114V56.6116V56.6119V56.6121V56.6124V56.6126V56.6129V56.6131V56.6134V56.6136V56.6139V56.6141V56.6144V56.6146V56.6149V56.6151V56.6154V56.6156V56.6159V56.6161V56.6164V56.6166V56.6169V56.6171V56.6174V56.6176V56.6179V56.6182V56.6184V56.6187V56.6189V56.6192V56.6194V56.6197V56.6199V56.6202V56.6204V56.6207V56.621V56.6212V56.6215V56.6217V56.622V56.6223V56.6225V56.6228V56.623V56.6233V56.6236V56.6238V56.6241V56.6243V56.6246V56.6249V56.6251V56.6254V56.6256V56.6259V56.6262V56.6264V56.6267V56.627V56.6272V56.6275V56.6278V56.628V56.6283V56.6286V56.6288V56.6291V56.6294V56.6296V56.6299V56.6302V56.6304V56.6307V56.631V56.6313V56.6315V56.6318V56.6321V56.6323V56.6326V56.6329V56.6332V56.6334V56.6337V56.634V56.6343V56.6345V56.6348V56.6351V56.6354V56.6356V56.6359V56.6362V56.6365V56.6367V56.637V56.6373V56.6376V56.6379V56.6381V56.6384V56.6387V56.639V56.6393V56.6396V56.6398V56.6401V56.6404V56.6407V56.641V56.6413V56.6416V56.6418V56.6421V56.6424V56.6427V56.643V56.6433V56.6436V56.6439V56.6441V56.6444V56.6447V56.645V56.6453V56.6456V56.6459V56.6462V56.6465V56.6468V56.6471V56.6474V56.6477V56.648V56.6482V56.6485V56.6488V56.6491V56.6494V56.6497V56.65V56.6503V56.6506V56.6509V56.6512V56.6515V56.6518V56.6521V56.6525V56.6528V56.6531V56.6534V56.6537V56.654V56.6543V56.6546V56.6549V56.6552V56.6555V56.6558V56.6561V56.6564V56.6567V56.6571V56.6574V56.6577V56.658V56.6583V56.6586V56.6589V56.6593V56.6596V56.6599V56.6602V56.6605V56.6608V56.6612V56.6615V56.6618V56.6621V56.6624V56.6628V56.6631V56.6634V56.6637V56.664V56.6644V56.6647V56.665V56.6653V56.6657V56.666V56.6663V56.6666V56.667V56.6673V56.6676V56.668V56.6683V56.6686V56.669V56.6693V56.6696V56.67V56.6703V56.6706V56.671V56.6713V56.6716V56.672V56.6723V56.6727V56.673V56.6733V56.6737V56.674V56.6744V56.6747V56.675V56.6754V56.6757V56.6761V56.6764V56.6768V56.6771V56.6775V56.6778V56.6782V56.6785V56.6789V56.6792V56.6796V56.6799V56.6803V56.6806V56.681V56.6813V56.6817V56.682V56.6824V56.6828V56.6831V56.6835V56.6838V56.6842V56.6846V56.6849V56.6853V56.6856V56.686V56.6864V56.6867V56.6871V56.6875V56.6878V56.6882V56.6886V56.6889V56.6893V56.6897V56.69V56.6904V56.6908V56.6912V56.6915V56.6919V56.6923V56.6927V56.693V56.6934V56.6938V56.6942V56.6946V56.6949V56.6953V56.6957V56.6961V56.6965V56.6968V56.6972V56.6976V56.698V56.6984V56.6988V56.6992V56.6996V56.6999V56.7003V56.7007V56.7011V56.7015V56.7019V56.7023V56.7027V56.7031V56.7035V56.7039V56.7043V56.7047V56.7051V56.7055V56.7059V56.7063V56.7067V56.7071V56.7075V56.7079V56.7083V56.7087V56.7091V56.7095V56.7099V56.7104V56.7108V56.7112V56.7116V56.712V56.7124V56.7128V56.7132V56.7137V56.7141V56.7145V56.7149V56.7153V56.7158V56.7162V56.7166V56.717V56.7174V56.7179V56.7183V56.7187V56.7191V56.7196V56.72V56.7204V56.7209V56.7213V56.7217V56.7222V56.7226V56.723V56.7235V56.7239V56.7243V56.7248V56.7252V56.7257V56.7261V56.7265V56.727V56.7274V56.7279V56.7283V56.7288V56.7292V56.7297V56.7301V56.7305V56.731V56.7315V56.7319V56.7324V56.7328V56.7333V56.7337V56.7342V56.7346V56.7351V56.7355V56.736V56.7753V56.8048C38.0294 59.4621 35.7889 61.6439 33.1626 61.6439H6.43947ZM4.93947 1.411V1.5569C2.96771 1.9151 1.47123 3.65925 1.47123 5.73647V56.5003C1.47123 58.8339 3.35997 60.7472 5.68947 60.7472H33.1626C35.3763 60.7472 37.1986 59.0132 37.3742 56.8158L37.4093 56.7804L37.4193 56.4866L37.4583 55.3472L37.4822 54.6482L36.7866 54.5756L35.6565 54.4577L35.6565 54.4577L35.648 54.4569C29.9114 53.9241 24.5503 51.2603 20.6229 46.9577L20.6228 46.9575C16.6573 42.6166 14.4671 36.982 14.4671 31.0791C14.4671 25.1761 16.6573 19.5415 20.6228 15.2006L20.6229 15.2004C24.5503 10.8979 29.9114 8.23401 35.648 7.70132L35.6565 7.70044L36.7866 7.58256L37.4822 7.51L37.4583 6.81097L37.42 5.69196C37.42 5.69176 37.42 5.69156 37.42 5.69136C37.4215 5.66117 37.4276 5.52846 37.3771 5.36794C37.2511 3.14529 35.4102 1.411 33.1626 1.411H22.8358H16.0162H5.68947H4.93947ZM37.722 8.52264C25.2995 8.52264 15.1883 18.7263 15.1883 31.2362C15.1883 43.7462 25.2995 53.9498 37.722 53.9498C50.1444 53.9498 60.2556 43.7462 60.2556 31.2362C60.2556 18.7263 50.1444 8.52264 37.722 8.52264Z" fill="#048DEF" stroke="#048DEF" stroke-width="1.5"></path><path d="M4.83203 19.999H16.6786" stroke="#048DEF" stroke-width="1.5" stroke-miterlimit="10" stroke-linecap="round" stroke-linejoin="round"></path><path d="M4.83203 28.8396H13.5611" stroke="#048DEF" stroke-width="1.5" stroke-miterlimit="10" stroke-linecap="round" stroke-linejoin="round"></path><path d="M4.83203 37.6407H15.2367" stroke="#048DEF" stroke-width="1.5" stroke-miterlimit="10" stroke-linecap="round" stroke-linejoin="round"></path><path d="M22.135 56.4575H15.861C15.7515 56.4575 15.717 56.4245 15.7134 56.421C15.7134 56.421 15.7134 56.4209 15.7133 56.4209C15.7114 56.4192 15.6758 56.3863 15.6758 56.2645C15.6758 56.1492 15.7103 56.1112 15.7145 56.1069C15.7184 56.1029 15.726 56.0961 15.7437 56.0891C15.7623 56.0818 15.7992 56.0715 15.861 56.0715H22.135C22.2446 56.0715 22.2791 56.1045 22.2827 56.108L22.2828 56.1081C22.2845 56.1097 22.3156 56.1384 22.3198 56.2409C22.3064 56.3793 22.2651 56.4239 22.2601 56.4289C22.2562 56.4329 22.2503 56.4377 22.2368 56.443C22.222 56.4486 22.1903 56.4575 22.135 56.4575Z" fill="#048DEF" stroke="#048DEF" stroke-width="1.5"></path></svg>