<svg width="62" height="63" viewBox="0 0 62 63" fill="none" xmlns="http://www.w3.org/2000/svg">
<path d="M38.2077 44.4133V45.6287L39.2941 45.0837L50.7899 39.3163L51.2036 39.1088V38.6459V25.1237V23.9083L50.1173 24.4533L38.6214 30.2208L38.2077 30.4283V30.8911V44.4133ZM23.9394 39.7287L23.604 40.3995L23.9394 39.7287C23.809 39.6636 23.7305 39.5369 23.7305 39.3863V23.3701C23.7305 23.2196 23.809 23.0929 23.9394 23.0277L37.6565 16.1692C37.7075 16.1437 37.7485 16.1315 37.8276 16.1315C37.8465 16.1315 37.8795 16.1342 37.9182 16.1428C37.9572 16.1515 37.9851 16.1623 37.9988 16.1692L51.7159 23.0277C51.8462 23.0929 51.9248 23.2196 51.9248 23.3701V39.3863C51.9248 39.5369 51.8462 39.6636 51.7159 39.7287L37.9988 46.5873C37.9478 46.6128 37.9068 46.625 37.8276 46.625C37.8088 46.625 37.7758 46.6222 37.737 46.6136C37.6981 46.605 37.6702 46.5941 37.6565 46.5873L23.9394 39.7287ZM36.3612 45.0837L37.4475 45.6287V44.4133V30.8911V30.4283L37.0339 30.2208L25.538 24.4533L24.4517 23.9083V25.1237V38.6459V39.1088L24.8654 39.3163L36.3612 45.0837ZM37.4922 29.6525L37.8276 29.8202L38.163 29.6525L49.3861 24.0409L50.7278 23.3701L49.3861 22.6993L38.163 17.0878L37.8276 16.92L37.4922 17.0878L26.2692 22.6993L24.9275 23.3701L26.2692 24.0409L37.4922 29.6525Z" fill="#C5C5C5" stroke="#C5C5C5" stroke-width="1.5"/>
<path d="M6.54494 61.5111V61.3553H5.79494C3.056 61.3553 0.855469 59.1224 0.855469 56.4158V6.06789C0.855469 3.32895 3.08829 1.12842 5.79494 1.12842H33.2681C35.8999 1.12842 38.135 3.29526 38.2075 5.92192V5.95098V5.98995V5.99017V5.9904V5.99063V5.99086V5.99109V5.99132V5.99154V5.99177V5.992V5.99223V5.99246V5.99269V5.99291V5.99314V5.99337V5.9936V5.99383V5.99406V5.99429V5.99451V5.99474V5.99497V5.9952V5.99543V5.99566V5.99589V5.99612V5.99635V5.99657V5.9968V5.99703V5.99726V5.99749V5.99772V5.99795V5.99818V5.99841V5.99864V5.99887V5.9991V5.99933V5.99956V5.99979V6.00002V6.00025V6.00048V6.00071V6.00094V6.00117V6.0014V6.00163V6.00186V6.00209V6.00232V6.00255V6.00278V6.00301V6.00325V6.00348V6.00371V6.00394V6.00417V6.0044V6.00464V6.00487V6.0051V6.00533V6.00556V6.0058V6.00603V6.00626V6.00649V6.00673V6.00696V6.00719V6.00743V6.00766V6.00789V6.00813V6.00836V6.0086V6.00883V6.00906V6.0093V6.00953V6.00977V6.01V6.01024V6.01047V6.01071V6.01094V6.01118V6.01141V6.01165V6.01189V6.01212V6.01236V6.0126V6.01283V6.01307V6.01331V6.01354V6.01378V6.01402V6.01426V6.0145V6.01473V6.01497V6.01521V6.01545V6.01569V6.01593V6.01617V6.01641V6.01665V6.01689V6.01713V6.01737V6.01761V6.01785V6.01809V6.01833V6.01857V6.01881V6.01905V6.0193V6.01954V6.01978V6.02002V6.02027V6.02051V6.02075V6.021V6.02124V6.02149V6.02173V6.02197V6.02222V6.02246V6.02271V6.02295V6.0232V6.02345V6.02369V6.02394V6.02419V6.02443V6.02468V6.02493V6.02518V6.02542V6.02567V6.02592V6.02617V6.02642V6.02667V6.02692V6.02717V6.02742V6.02767V6.02792V6.02817V6.02842V6.02867V6.02893V6.02918V6.02943V6.02968V6.02994V6.03019V6.03044V6.0307V6.03095V6.03121V6.03146V6.03172V6.03197V6.03223V6.03248V6.03274V6.033V6.03325V6.03351V6.03377V6.03403V6.03428V6.03454V6.0348V6.03506V6.03532V6.03558V6.03584V6.0361V6.03636V6.03662V6.03689V6.03715V6.03741V6.03767V6.03794V6.0382V6.03846V6.03873V6.03899V6.03926V6.03952V6.03979V6.04005V6.04032V6.04059V6.04085V6.04112V6.04139V6.04166V6.04192V6.04219V6.04246V6.04273V6.043V6.04327V6.04354V6.04381V6.04408V6.04436V6.04463V6.0449V6.04517V6.04545V6.04572V6.046V6.04627V6.04655V6.04682V6.0471V6.04737V6.04765V6.04793V6.0482V6.04848V6.04876V6.04904V6.04932V6.0496V6.04988V6.05016V6.05044V6.05072V6.051V6.05128V6.05157V6.05185V6.05213V6.05242V6.0527V6.05299V6.05327V6.05356V6.05384V6.05413V6.05442V6.0547V6.05499V6.05528V6.05557V6.05586V6.05615V6.05644V6.05673V6.05702V6.05731V6.0576V6.0579V6.05819V6.05848V6.05878V6.05907V6.05937V6.05966V6.05996V6.06025V6.06055V6.06085V6.06115V6.06144V6.06174V6.06204V6.06234V6.06264V6.06294V6.06324V6.06355V6.06385V6.06415V6.06445V6.06476V6.06506V6.06537V6.06567V6.06598V6.06629V6.06659V6.0669V6.06721V6.06752V6.06783V6.06814V6.06845V6.06876V6.06907V6.06938V6.06969V6.07V6.07032V6.07063V6.07095V6.07126V6.07158V6.07189V6.07221V6.07253V6.07284V6.07316V6.07348V6.0738V6.07412V6.07444V6.07476V6.07509V6.07541V6.07573V6.07605V6.07638V6.0767V6.07703V6.07735V6.07768V6.07801V6.07833V6.07866V6.07899V6.07932V6.07965V6.07998V6.08031V6.08064V6.08098V6.08131V6.08164V6.08198V6.08231V6.08265V6.08298V6.08332V6.08366V6.08399V6.08433V6.08467V6.08501V6.08535V6.08569V6.08603V6.08638V6.08672V6.08706V6.08741V6.08775V6.0881V6.08844V6.08879V6.08914V6.08948V6.08983V6.09018V6.09053V6.09088V6.09123V6.09159V6.09194V6.09229V6.09264V6.093V6.09335V6.09371V6.09407V6.09442V6.09478V6.09514V6.0955V6.09586V6.09622V6.09658V6.09694V6.0973V6.09767V6.09803V6.0984V6.09876V6.09913V6.09949V6.09986V6.10023V6.1006V6.10097V6.10134V6.10171V6.10208V6.10245V6.10283V6.1032V6.10357V6.10395V6.10432V6.1047V6.10508V6.10546V6.10583V6.10621V6.10659V6.10698V6.10736V6.10774V6.10812V6.10851V6.10889V6.10928V6.10966V6.11005V6.11044V6.11083V6.11121V6.1116V6.11199V6.11239V6.11278V6.11317V6.11356V6.11396V6.11435V6.11475V6.11515V6.11554V6.11594V6.11634V6.11674V6.11714V6.11754V6.11794V6.11835V6.11875V6.11915V6.11956V6.11996V6.12037V6.12078L38.1314 7.22432L38.0815 7.94736L38.8024 8.02194L39.9325 8.13885L39.9325 8.1389L39.9409 8.13967C45.6793 8.6682 51.0407 11.311 54.9675 15.5776L54.9677 15.5778C58.9324 19.8824 61.1213 25.4686 61.1213 31.3198C61.1213 37.171 58.9324 42.7572 54.9677 47.0617L54.9675 47.0619C51.0407 51.3285 45.6793 53.9713 39.9409 54.4998L39.9325 54.5007L38.8024 54.6176L38.0815 54.6922L38.1314 55.4152L38.2075 56.5187V56.519V56.5192V56.5195V56.5197V56.5199V56.5202V56.5204V56.5207V56.5209V56.5211V56.5214V56.5216V56.5219V56.5221V56.5223V56.5226V56.5228V56.5231V56.5233V56.5236V56.5238V56.524V56.5243V56.5245V56.5248V56.525V56.5253V56.5255V56.5257V56.526V56.5262V56.5265V56.5267V56.527V56.5272V56.5275V56.5277V56.528V56.5282V56.5285V56.5287V56.5289V56.5292V56.5294V56.5297V56.5299V56.5302V56.5304V56.5307V56.5309V56.5312V56.5314V56.5317V56.5319V56.5322V56.5324V56.5327V56.533V56.5332V56.5335V56.5337V56.534V56.5342V56.5345V56.5347V56.535V56.5352V56.5355V56.5357V56.536V56.5363V56.5365V56.5368V56.537V56.5373V56.5375V56.5378V56.5381V56.5383V56.5386V56.5388V56.5391V56.5394V56.5396V56.5399V56.5401V56.5404V56.5407V56.5409V56.5412V56.5414V56.5417V56.542V56.5422V56.5425V56.5428V56.543V56.5433V56.5436V56.5438V56.5441V56.5444V56.5446V56.5449V56.5452V56.5454V56.5457V56.546V56.5462V56.5465V56.5468V56.547V56.5473V56.5476V56.5479V56.5481V56.5484V56.5487V56.5489V56.5492V56.5495V56.5498V56.55V56.5503V56.5506V56.5509V56.5511V56.5514V56.5517V56.552V56.5523V56.5525V56.5528V56.5531V56.5534V56.5536V56.5539V56.5542V56.5545V56.5548V56.5551V56.5553V56.5556V56.5559V56.5562V56.5565V56.5568V56.557V56.5573V56.5576V56.5579V56.5582V56.5585V56.5588V56.5591V56.5593V56.5596V56.5599V56.5602V56.5605V56.5608V56.5611V56.5614V56.5617V56.562V56.5623V56.5625V56.5628V56.5631V56.5634V56.5637V56.564V56.5643V56.5646V56.5649V56.5652V56.5655V56.5658V56.5661V56.5664V56.5667V56.567V56.5673V56.5676V56.5679V56.5682V56.5685V56.5688V56.5691V56.5694V56.5698V56.5701V56.5704V56.5707V56.571V56.5713V56.5716V56.5719V56.5722V56.5725V56.5728V56.5732V56.5735V56.5738V56.5741V56.5744V56.5747V56.575V56.5753V56.5757V56.576V56.5763V56.5766V56.5769V56.5773V56.5776V56.5779V56.5782V56.5785V56.5789V56.5792V56.5795V56.5798V56.5802V56.5805V56.5808V56.5811V56.5815V56.5818V56.5821V56.5824V56.5828V56.5831V56.5834V56.5838V56.5841V56.5844V56.5847V56.5851V56.5854V56.5857V56.5861V56.5864V56.5868V56.5871V56.5874V56.5878V56.5881V56.5884V56.5888V56.5891V56.5895V56.5898V56.5901V56.5905V56.5908V56.5912V56.5915V56.5919V56.5922V56.5926V56.5929V56.5933V56.5936V56.594V56.5943V56.5947V56.595V56.5954V56.5957V56.5961V56.5964V56.5968V56.5971V56.5975V56.5978V56.5982V56.5986V56.5989V56.5993V56.5996V56.6V56.6004V56.6007V56.6011V56.6014V56.6018V56.6022V56.6025V56.6029V56.6033V56.6036V56.604V56.6044V56.6047V56.6051V56.6055V56.6059V56.6062V56.6066V56.607V56.6073V56.6077V56.6081V56.6085V56.6088V56.6092V56.6096V56.61V56.6104V56.6107V56.6111V56.6115V56.6119V56.6123V56.6127V56.613V56.6134V56.6138V56.6142V56.6146V56.615V56.6154V56.6158V56.6162V56.6166V56.6169V56.6173V56.6177V56.6181V56.6185V56.6189V56.6193V56.6197V56.6201V56.6205V56.6209V56.6213V56.6217V56.6221V56.6225V56.6229V56.6233V56.6237V56.6241V56.6245V56.625V56.6254V56.6258V56.6262V56.6266V56.627V56.6274V56.6278V56.6283V56.6287V56.6291V56.6295V56.6299V56.6303V56.6308V56.6312V56.6316V56.632V56.6324V56.6329V56.6333V56.6337V56.6341V56.6346V56.635V56.6354V56.6359V56.6363V56.6367V56.6371V56.6376V56.638V56.6385V56.6389V56.6393V56.6398V56.6402V56.6406V56.6411V56.6415V56.642V56.6424V56.6428V56.6433V56.6437V56.6442V56.6446V56.6451V56.6455V56.646V56.6464V56.6469V56.6473V56.6478V56.6482V56.6487V56.6491V56.6496V56.6886V56.7176C38.135 59.3443 35.8999 61.5111 33.2681 61.5111H6.54494ZM5.04494 1.77171V1.9166C3.07701 2.27206 1.5767 4.00005 1.5767 6.06789V56.4158C1.5767 58.7395 3.47124 60.634 5.79494 60.634H33.2681C35.4752 60.634 37.3014 58.919 37.4793 56.7334L37.5146 56.6981L37.5248 56.4027L37.5638 55.2726L37.5879 54.5728L36.8914 54.5007L35.7613 54.3838L35.7613 54.3837L35.7529 54.383C30.0145 53.8544 24.6531 51.2116 20.7263 46.945L20.7261 46.9448C16.7614 42.6403 14.5725 37.0541 14.5725 31.2029C14.5725 25.3517 16.7614 19.7654 20.7261 15.4609L20.7263 15.4607C24.6531 11.1941 30.0145 8.5513 35.7529 8.02281L35.7613 8.02194L36.8914 7.90503L37.5879 7.83298L37.5638 7.13316L37.5255 6.0238C37.5255 6.02357 37.5255 6.02333 37.5255 6.02309C37.527 5.99296 37.533 5.86044 37.4825 5.70017C37.3552 3.48809 35.5096 1.77171 33.2681 1.77171H22.9413H16.1217H5.79494H5.04494ZM37.8274 8.82509C25.4108 8.82509 15.2938 18.9421 15.2938 31.3587C15.2938 43.7754 25.4108 53.8924 37.8274 53.8924C50.2441 53.8924 60.3611 43.7754 60.3611 31.3587C60.3611 18.9421 50.2441 8.82509 37.8274 8.82509Z" fill="#C5C5C5" stroke="#C5C5C5" stroke-width="1.5"/>
</svg>
