<svg xmlns="http://www.w3.org/2000/svg" width="46" height="46" viewBox="0 0 46 46" fill="none"><rect width="46" height="46" rx="23" fill="#F0F4FF"></rect><path d="M31.8333 33C29.4444 33 27.1159 32.4674 24.8478 31.4022C22.5796 30.337 20.5704 28.9296 18.82 27.18C17.0696 25.4304 15.6622 23.4211 14.5978 21.1522C13.5333 18.8833 13.0007 16.5548 13 14.1667C13 13.8333 13.1111 13.5556 13.3333 13.3333C13.5556 13.1111 13.8333 13 14.1667 13H18.6667C18.9259 13 19.1574 13.0833 19.3611 13.25C19.5648 13.4167 19.6852 13.6296 19.7222 13.8889L20.4444 17.7778C20.4815 18.037 20.4767 18.2733 20.43 18.4867C20.3833 18.7 20.277 18.8896 20.1111 19.0556L17.4444 21.7778C18.2222 23.1111 19.1944 24.3611 20.3611 25.5278C21.5278 26.6944 22.8148 27.7037 24.2222 28.5556L26.8333 25.9444C27 25.7778 27.2178 25.653 27.4867 25.57C27.7556 25.487 28.0193 25.4637 28.2778 25.5L32.1111 26.2778C32.3704 26.3333 32.5833 26.4585 32.75 26.6533C32.9167 26.8481 33 27.0748 33 27.3333V31.8333C33 32.1667 32.8889 32.4444 32.6667 32.6667C32.4444 32.8889 32.1667 33 31.8333 33Z" fill="#252525"></path></svg>