<svg xmlns="http://www.w3.org/2000/svg" width="68" height="66" viewBox="0 0 68 66" fill="none"><path d="M42.0791 65.6063H25.7167C25.1022 65.6063 24.6797 65.1838 24.6797 64.5693C24.6797 59.4609 28.7511 55.3895 33.8595 55.3895C38.9679 55.3895 43.0393 59.4609 43.0393 64.5693C43.0777 65.2222 42.6936 65.6063 42.0791 65.6063ZM26.8306 63.5706H41.042C40.5427 60.1138 37.5852 57.4252 33.9747 57.4252C30.4027 57.4636 27.3683 60.1138 26.8306 63.5706Z" fill="#C5C5C5"></path><path d="M64.238 52.2015H3.74332C1.97649 52.2015 0.59375 50.8572 0.59375 49.1288V13.0624C0.59375 11.334 1.93808 9.98971 3.74332 9.98971H19.4143C20.0289 9.98971 20.4514 10.4122 20.4514 11.0268C20.4514 11.6413 20.0289 12.0638 19.4143 12.0638H3.74332C3.12877 12.0638 2.70626 12.4863 2.70626 13.1009V49.1672C2.70626 49.7817 3.12877 50.2042 3.74332 50.2042H64.2764C64.8909 50.2042 65.3134 49.7817 65.3134 49.1672V13.0624C65.3134 12.4479 64.8909 12.0254 64.2764 12.0254H48.6054C47.9908 12.0254 47.5683 11.6029 47.5683 10.9883C47.5683 10.3738 47.9908 9.95129 48.6054 9.95129H64.2764C66.0432 9.95129 67.3875 11.2956 67.3875 13.024V49.0904C67.3875 50.8572 66.0432 52.2015 64.238 52.2015Z" fill="#C5C5C5"></path><path d="M30.6308 57.4636C30.0163 57.4636 29.5938 57.0795 29.5938 56.5418V51.7406C29.5938 51.2029 30.0163 50.8188 30.6308 50.8188C31.2454 50.8188 31.6678 51.2029 31.6678 51.7406V56.5418C31.6294 57.0795 31.2454 57.4636 30.6308 57.4636Z" fill="#C5C5C5"></path><path d="M37.1621 57.3867C36.5475 57.3867 36.125 57.0026 36.125 56.4265V51.4717C36.125 50.8956 36.5475 50.5115 37.1621 50.5115C37.7766 50.5115 38.1991 50.8956 38.1991 52.2015V57.1563C38.1991 57.0026 37.7766 57.3867 37.1621 57.3867Z" fill="#C5C5C5"></path><path d="M31.3198 31.6525C31.2046 31.6525 31.2046 31.6525 31.1278 31.6525C28.7848 31.23 26.6339 30.3082 24.7903 29.0023C24.3678 28.695 24.2909 28.0805 24.483 27.658C25.2128 26.4289 25.4048 25.315 24.9823 24.8925C24.5598 24.47 23.4459 24.47 22.2168 25.315C21.7175 25.6223 21.1798 25.4302 20.8725 25.0077C19.4514 22.972 18.5295 20.8211 18.2223 18.6702C18.107 18.1709 18.5295 17.6331 19.0289 17.5563C20.3732 17.2491 21.295 16.5193 21.295 15.9047C21.295 15.4054 20.4884 14.5604 19.0289 14.2531C18.5295 14.1379 18.107 13.6386 18.2223 13.024C18.6448 10.6811 19.5666 8.53015 20.8725 6.6865C21.1798 6.264 21.7943 6.18718 22.2168 6.37923C23.4459 7.109 24.5598 7.30105 24.9823 6.87855C25.4048 6.45605 25.4048 5.34218 24.5598 4.03626C24.2525 3.53694 24.3678 2.99921 24.8671 2.69193C26.7107 1.46284 28.8616 0.541013 31.2046 0.0416923C31.7039 -0.0735356 32.2416 0.233738 32.4337 0.848287C32.741 2.19261 33.4708 3.11444 34.0853 3.11444C34.5846 3.11444 35.4296 2.30784 35.7369 0.848287C35.8521 0.348966 36.3515 -0.0735356 36.966 0.0416923C39.309 0.464195 41.4599 1.38602 43.3035 2.69193C43.726 2.99921 43.8029 3.61376 43.6108 4.03626C42.881 5.26536 42.8042 6.37923 43.1883 6.80173C43.6108 7.22423 44.7247 7.22423 45.9538 6.37923C46.3763 6.07195 47.0676 6.18718 47.3749 6.6865C48.7961 8.72219 49.7179 10.8731 50.0252 13.024C50.1404 13.5234 49.8331 14.0611 49.2954 14.1379C47.759 14.5604 46.9524 15.2518 46.9524 15.7895C46.9524 16.5193 47.8742 17.2106 49.2954 17.5179C49.7947 17.6332 50.102 18.1325 50.0252 18.747C49.6027 21.09 48.6808 23.2409 47.3749 25.0846C47.0676 25.5071 46.4531 25.5839 46.0306 25.3918C44.8015 24.6621 43.6876 24.47 43.2651 24.9693C42.8426 25.3918 42.8426 26.5057 43.5724 27.7348C43.8797 28.1573 43.6876 28.7718 43.2651 29.0791C41.2294 30.5003 39.0785 31.4221 36.9276 31.7294C36.4283 31.8446 35.8905 31.4221 35.8137 30.9228C35.5065 29.5784 34.7767 28.6566 34.1621 28.6566C33.4323 28.6566 32.8178 29.5784 32.5105 30.9228C32.2417 31.3453 31.8576 31.6525 31.3198 31.6525ZM34.0085 26.5441C35.4296 26.5441 36.774 27.658 37.3885 29.5016C38.7328 29.1944 40.0387 28.695 41.2678 27.85C40.5381 26.1216 40.6533 24.47 41.6903 23.4714C42.6122 22.4343 44.1485 22.2423 46.069 23.0489C46.7988 21.8198 47.2981 20.4754 47.7206 19.0543C45.877 18.3245 44.8783 17.0954 44.8783 15.5975C44.8783 14.1763 45.9922 12.9472 47.8358 12.2174C47.5286 10.8731 47.0292 9.5672 46.1842 8.3381C44.5326 9.1447 42.8042 9.06788 41.8056 8.03083C40.7685 7.109 40.5765 5.57263 41.3831 3.65217C40.2692 2.92239 38.9249 2.42307 37.5037 2.00057C36.7739 3.72898 35.5449 4.84285 34.1237 4.84285C32.7026 4.84285 31.3582 3.72898 30.7437 2.00057C29.2073 2.49989 27.9014 3.11444 26.7491 3.72898C27.5557 5.4574 27.4789 7.18582 26.4419 8.22287C25.4048 9.25992 23.8684 9.33674 22.0632 8.53015C21.3334 9.64402 20.8341 10.9883 20.4116 12.4095C22.14 13.1393 23.2539 14.3684 23.2539 15.7895C23.2539 17.3259 22.14 18.555 20.2964 19.1695C20.6036 20.5138 21.103 21.8198 21.948 23.0489C23.6764 22.3191 25.328 22.4343 26.3266 23.4714C27.3637 24.5084 27.4405 26.0448 26.6339 27.85C27.7478 28.5798 29.0921 29.0791 30.5132 29.5016C31.243 27.658 32.5489 26.5441 34.0085 26.5441Z" fill="#C5C5C5"></path><path d="M33.8922 24.8925C29.0911 24.8925 25.0197 21.1284 24.7124 16.3272C24.4051 11.2188 28.2844 6.91696 33.2777 6.60969C35.7358 6.41764 38.0788 7.22423 39.9225 8.87583C41.7661 10.5274 42.88 12.7552 42.9952 15.2134C43.1104 17.6716 42.3807 20.0145 40.7291 21.8582C39.0775 23.7018 36.8497 24.8157 34.3915 24.9309C34.3147 24.8925 34.0843 24.8925 33.8922 24.8925ZM33.4697 8.56856C29.4751 8.76061 26.5176 12.2559 26.7097 16.1352C26.9017 20.1298 30.397 23.0873 34.2763 22.8952C36.2352 22.78 37.9636 21.8582 39.1927 20.437C40.4218 19.0159 41.1516 17.1722 40.9211 15.2134C40.6907 13.2545 39.8841 11.5261 38.4629 10.297C37.157 9.06788 35.3133 8.45333 33.4697 8.56856Z" fill="#C5C5C5"></path><path d="M34.0064 49.1288H33.8144C33.1999 49.1288 32.7773 48.7063 32.7773 48.0917C32.7773 47.4772 33.1999 47.0547 33.8144 47.0547H34.0064C34.621 47.0547 35.0435 47.4772 35.0435 48.0917C35.0051 48.7063 34.621 49.1288 34.0064 49.1288Z" fill="#C5C5C5"></path><path d="M13.6476 41.8695H11.9576C11.3431 41.8695 10.8438 41.3701 10.8438 40.7556V38.5663C10.8438 37.9517 11.3431 37.4524 11.9576 37.4524H13.6476C14.2622 37.4524 14.7615 37.9517 14.7615 38.5663V40.7556C14.7615 41.3701 14.2622 41.8695 13.6476 41.8695Z" fill="#C5C5C5"></path><path d="M22.2922 41.8695H20.6021C19.9876 41.8695 19.4883 41.3701 19.4883 40.7556V38.5663C19.4883 37.9517 19.9876 37.4524 20.6021 37.4524H22.2922C22.9067 37.4524 23.406 37.9517 23.406 38.5663V40.7556C23.406 41.3701 22.9067 41.8695 22.2922 41.8695Z" fill="#C5C5C5"></path><path d="M30.9718 41.8695H29.2818C28.6673 41.8695 28.168 41.3701 28.168 40.7556V38.5663C28.168 37.9517 28.6673 37.4524 29.2818 37.4524H30.9718C31.5864 37.4524 32.0857 37.9517 32.0857 38.5663V40.7556C32.0473 41.3701 31.548 41.8695 30.9718 41.8695Z" fill="#C5C5C5"></path><path d="M38.4289 41.8695H36.7389C36.1243 41.8695 35.625 41.3701 35.625 40.7556V38.5663C35.625 37.9517 36.1243 37.4524 36.7389 37.4524H38.4289C39.0434 37.4524 39.5427 37.9517 39.5427 38.5663V40.7556C39.5043 41.3701 39.0434 41.8695 38.4289 41.8695Z" fill="#C5C5C5"></path><path d="M47.0734 41.8695H45.3834C44.7688 41.8695 44.2695 41.3701 44.2695 40.7556V38.5663C44.2695 37.9517 44.7688 37.4524 45.3834 37.4524H47.0734C47.688 37.4524 48.1873 37.9517 48.1873 38.5663V40.7556C48.1489 41.3701 47.688 41.8695 47.0734 41.8695Z" fill="#C5C5C5"></path><path d="M55.714 41.8695H54.024C53.4095 41.8695 52.9102 41.3701 52.9102 40.7556V38.5663C52.9102 37.9517 53.4095 37.4524 54.024 37.4524H55.714C56.3286 37.4524 56.8279 37.9517 56.8279 38.5663V40.7556C56.8279 41.3701 56.3286 41.8695 55.714 41.8695Z" fill="#C5C5C5"></path></svg>