<svg xmlns="http://www.w3.org/2000/svg" width="67" height="67" viewBox="0 0 67 67" fill="none"><path d="M41.4853 66.1303H25.123C24.5084 66.1303 24.0859 65.7043 24.0859 65.0847C24.0859 59.9341 28.1573 55.829 33.2657 55.829C38.3742 55.829 42.4456 59.9341 42.4456 65.0847C42.484 65.743 42.0999 66.1303 41.4853 66.1303ZM26.2368 64.0778H40.4483C39.949 60.5924 36.9914 57.8816 33.381 57.8816C29.8089 57.9203 26.7746 60.5924 26.2368 64.0778Z" fill="#047BDC"></path><path d="M63.6442 52.6147H3.14957C1.38274 52.6147 0 51.2593 0 49.5166V13.1524C0 11.4097 1.34433 10.0542 3.14957 10.0542H18.8206C19.4351 10.0542 19.8576 10.4802 19.8576 11.0998C19.8576 11.7195 19.4351 12.1455 18.8206 12.1455H3.14957C2.53502 12.1455 2.11251 12.5715 2.11251 13.1911V49.5553C2.11251 50.175 2.53502 50.601 3.14957 50.601H63.6826C64.2972 50.601 64.7197 50.175 64.7197 49.5553V13.1524C64.7197 12.5327 64.2972 12.1067 63.6826 12.1067H48.0116C47.3971 12.1067 46.9746 11.6808 46.9746 11.0611C46.9746 10.4415 47.3971 10.0155 48.0116 10.0155H63.6826C65.4494 10.0155 66.7938 11.3709 66.7938 13.1136V49.4779C66.7938 51.2593 65.4494 52.6147 63.6442 52.6147Z" fill="#047BDC"></path><path d="M30.0371 57.9203C29.4225 57.9203 29 57.533 29 56.9908V52.15C29 51.6078 29.4225 51.2206 30.0371 51.2206C30.6516 51.2206 31.0741 51.6078 31.0741 52.15V56.9908C31.0357 57.533 30.6516 57.9203 30.0371 57.9203Z" fill="#047BDC"></path><path d="M36.5683 57.8428C35.9538 57.8428 35.5312 57.4556 35.5312 56.8747V51.8789C35.5312 51.298 35.9538 50.9108 36.5683 50.9108C37.1829 50.9108 37.6053 51.298 37.6053 52.6147V57.6105C37.6053 57.4556 37.1829 57.8428 36.5683 57.8428Z" fill="#047BDC"></path><path d="M30.7261 31.896C30.6109 31.896 30.6109 31.896 30.534 31.896C28.1911 31.4701 26.0402 30.5406 24.1965 29.2239C23.774 28.9141 23.6972 28.2945 23.8892 27.8685C24.619 26.6292 24.8111 25.5062 24.3886 25.0802C23.9661 24.6542 22.8522 24.6542 21.6231 25.5062C21.1238 25.816 20.586 25.6223 20.2788 25.1964C18.8576 23.1438 17.9358 20.9752 17.6285 18.8065C17.5133 18.303 17.9358 17.7608 18.4351 17.6834C19.7794 17.3736 20.7012 16.6378 20.7012 16.0181C20.7012 15.5147 19.8947 14.6627 18.4351 14.3529C17.9358 14.2367 17.5133 13.7333 17.6285 13.1137C18.051 10.7513 18.9728 8.58264 20.2788 6.72377C20.586 6.29778 21.2006 6.22032 21.6231 6.41395C22.8522 7.14976 23.9661 7.34339 24.3886 6.9174C24.8111 6.49141 24.811 5.36834 23.966 4.05163C23.6588 3.54819 23.774 3.00601 24.2733 2.6962C26.117 1.45695 28.2679 0.527513 30.6109 0.0240672C31.1102 -0.0921125 31.6479 0.217699 31.8399 0.837325C32.1472 2.19276 32.877 3.12219 33.4916 3.12219C33.9909 3.12219 34.8359 2.30893 35.1432 0.837325C35.2584 0.333879 35.7577 -0.0921125 36.3723 0.0240672C38.7152 0.45006 40.8661 1.3795 42.7098 2.6962C43.1323 3.00601 43.2091 3.62564 43.0171 4.05163C42.2873 5.29088 42.2105 6.41395 42.5945 6.83995C43.017 7.26594 44.1309 7.26594 45.36 6.41395C45.7825 6.10414 46.4739 6.22032 46.7812 6.72377C48.2023 8.77628 49.1241 10.945 49.4314 13.1137C49.5466 13.6171 49.2394 14.1593 48.7016 14.2367C47.1653 14.6627 46.3587 15.3598 46.3587 15.902C46.3587 16.6378 47.2805 17.3349 48.7016 17.6447C49.201 17.7608 49.5082 18.2643 49.4314 18.8839C49.0089 21.2462 48.0871 23.4149 46.7812 25.2738C46.4739 25.6998 45.8593 25.7772 45.4368 25.5836C44.2077 24.8478 43.0939 24.6542 42.6714 25.1576C42.2489 25.5836 42.2489 26.7067 42.9786 27.9459C43.2859 28.3719 43.0939 28.9916 42.6714 29.3014C40.6357 30.7342 38.4848 31.6637 36.3338 31.9735C35.8345 32.0897 35.2968 31.6637 35.22 31.1602C34.9127 29.8048 34.1829 28.8754 33.5684 28.8754C32.8386 28.8754 32.224 29.8048 31.9168 31.1602C31.6479 31.5862 31.2638 31.896 30.7261 31.896ZM33.4147 26.7454C34.8359 26.7454 36.1802 27.8685 36.7948 29.7274C38.1391 29.4175 39.445 28.9141 40.6741 28.0621C39.9443 26.3194 40.0595 24.6542 41.0966 23.6473C42.0184 22.6017 43.5548 22.408 45.4752 23.2213C46.205 21.982 46.7044 20.6266 47.1269 19.1937C45.2832 18.4579 44.2846 17.2187 44.2846 15.7083C44.2846 14.2755 45.3984 13.0362 47.2421 12.3004C46.9348 10.945 46.4355 9.62826 45.5905 8.38901C43.9389 9.20227 42.2105 9.12482 41.2118 8.0792C40.1748 7.14976 39.9827 5.6007 40.7893 3.66437C39.6755 2.92856 38.3311 2.42511 36.91 1.99912C36.1802 3.74182 34.9511 4.86489 33.53 4.86489C32.1088 4.86489 30.7645 3.74182 30.1499 1.99912C28.6136 2.50257 27.3077 3.12219 26.1554 3.74182C26.962 5.48451 26.8852 7.22721 25.8481 8.27283C24.8111 9.31845 23.2747 9.3959 21.4694 8.58264C20.7397 9.70571 20.2403 11.0611 19.8178 12.494C21.5463 13.2298 22.6601 14.4691 22.6601 15.902C22.6601 17.451 21.5463 18.6903 19.7026 19.3099C20.0099 20.6653 20.5092 21.982 21.3542 23.2213C23.0826 22.4855 24.7342 22.6017 25.7329 23.6473C26.7699 24.6929 26.8467 26.242 26.0401 28.0621C27.154 28.7979 28.4983 29.3014 29.9195 29.7274C30.6493 27.8685 31.9552 26.7454 33.4147 26.7454Z" fill="#047BDC"></path><path d="M33.2985 25.0801C28.4973 25.0801 24.4259 21.2849 24.1186 16.4441C23.8114 11.2935 27.6907 6.9561 32.6839 6.64629C35.1421 6.45266 37.4851 7.26592 39.3287 8.93116C41.1724 10.5964 42.2862 12.8425 42.4014 15.3211C42.5167 17.7996 41.7869 20.1619 40.1353 22.0207C38.4837 23.8796 36.256 25.0027 33.7978 25.1189C33.721 25.0801 33.4905 25.0801 33.2985 25.0801ZM32.8759 8.62135C28.8814 8.81498 25.9239 12.3391 26.1159 16.2505C26.308 20.2781 29.8032 23.26 33.6826 23.0664C35.6414 22.9502 37.3698 22.0207 38.5989 20.5879C39.828 19.155 40.5578 17.2961 40.3274 15.3211C40.0969 13.346 39.2903 11.6033 37.8692 10.364C36.5632 9.1248 34.7196 8.50517 32.8759 8.62135Z" fill="#047BDC"></path><path d="M33.4127 49.5166H33.2206C32.6061 49.5166 32.1836 49.0907 32.1836 48.471C32.1836 47.8514 32.6061 47.4254 33.2206 47.4254H33.4127C34.0272 47.4254 34.4498 47.8514 34.4498 48.471C34.4113 49.0907 34.0272 49.5166 33.4127 49.5166Z" fill="#047BDC"></path><path d="M13.0539 42.1973H11.3639C10.7493 42.1973 10.25 41.6939 10.25 41.0743V38.8668C10.25 38.2472 10.7493 37.7438 11.3639 37.7438H13.0539C13.6684 37.7438 14.1677 38.2472 14.1677 38.8668V41.0743C14.1677 41.6939 13.6684 42.1973 13.0539 42.1973Z" fill="#047BDC"></path><path d="M21.6984 42.1973H20.0084C19.3938 42.1973 18.8945 41.6939 18.8945 41.0743V38.8668C18.8945 38.2472 19.3938 37.7438 20.0084 37.7438H21.6984C22.313 37.7438 22.8123 38.2472 22.8123 38.8668V41.0743C22.8123 41.6939 22.313 42.1973 21.6984 42.1973Z" fill="#047BDC"></path><path d="M30.3781 42.1973H28.6881C28.0735 42.1973 27.5742 41.6939 27.5742 41.0743V38.8668C27.5742 38.2472 28.0735 37.7438 28.6881 37.7438H30.3781C30.9926 37.7438 31.492 38.2472 31.492 38.8668V41.0743C31.4536 41.6939 30.9542 42.1973 30.3781 42.1973Z" fill="#047BDC"></path><path d="M37.8351 42.1973H36.1451C35.5306 42.1973 35.0312 41.6939 35.0312 41.0743V38.8668C35.0312 38.2472 35.5306 37.7438 36.1451 37.7438H37.8351C38.4497 37.7438 38.949 38.2472 38.949 38.8668V41.0743C38.9106 41.6939 38.4497 42.1973 37.8351 42.1973Z" fill="#047BDC"></path><path d="M46.4797 42.1973H44.7896C44.1751 42.1973 43.6758 41.6939 43.6758 41.0743V38.8668C43.6758 38.2472 44.1751 37.7438 44.7896 37.7438H46.4797C47.0942 37.7438 47.5935 38.2472 47.5935 38.8668V41.0743C47.5551 41.6939 47.0942 42.1973 46.4797 42.1973Z" fill="#047BDC"></path><path d="M55.1203 42.1973H53.4303C52.8157 42.1973 52.3164 41.6939 52.3164 41.0743V38.8668C52.3164 38.2472 52.8157 37.7438 53.4303 37.7438H55.1203C55.7348 37.7438 56.2341 38.2472 56.2341 38.8668V41.0743C56.2341 41.6939 55.7348 42.1973 55.1203 42.1973Z" fill="#047BDC"></path></svg>