<svg xmlns="http://www.w3.org/2000/svg" id="Layer_1" viewBox="0 0 512 512"><path d="m482.537 461.072h-10.091l-10.585-127.836c5.786-7.62 9.228-17.112 9.228-27.395 0-19.727-12.65-36.547-30.261-42.795l-77.342-96.432c-4.425-16.925-19.844-29.452-38.136-29.452-21.734 0-39.416 17.682-39.416 39.416 0 .119.008.237.009.356l-24.599 19.878c-.436.352-.833.748-1.185 1.182l-36.445 44.927c-2.356 2.904-2.385 7.053-.071 9.991 1.558 1.977 3.896 3.05 6.288 3.05 1.163 0 2.338-.254 3.442-.781l52.502-25.057c.564-.27 1.096-.604 1.583-.998l20.979-16.953c5.128 2.447 10.863 3.821 16.914 3.821.488 0 .972-.019 1.456-.037l53.503 89.18c-.004.236-.018.469-.018.705 0 10.284 3.443 19.777 9.229 27.397l-10.586 127.834h-10.09c-11.834 0-21.463 9.628-21.463 21.463v13.464c0 4.418 3.582 8 8 8h140.618c4.418 0 8-3.582 8-8v-13.464c0-11.835-9.628-21.464-21.463-21.464zm-27.449-155.231c0 16.21-13.188 29.398-29.399 29.398s-29.4-13.188-29.4-29.398c0-16.211 13.188-29.4 29.4-29.4 16.211 0 29.399 13.189 29.399 29.4zm-129.739-152.679c12.911 0 23.415 10.504 23.415 23.416s-10.504 23.416-23.415 23.416c-12.912 0-23.416-10.504-23.416-23.416s10.504-23.416 23.416-23.416zm-47.217 62.928-19.664 9.385 13.585-16.748 18.032-14.571c1.443 2.882 3.228 5.562 5.302 7.99zm64.846-4.275c8.776-4.409 15.686-11.996 19.211-21.245l56.476 70.416c-13.995 2.183-25.886 10.786-32.575 22.688zm61.539 134.168c6.326 3.35 13.529 5.256 21.172 5.256s14.846-1.906 21.173-5.257l9.53 115.09h-61.405zm83.483 142.017h-124.621v-5.464c0-2.961 2.501-5.463 5.463-5.463h113.695c2.961 0 5.463 2.502 5.463 5.463zm-85.61-182.159c0 12.847 10.452 23.299 23.299 23.299s23.299-10.452 23.299-23.299-10.452-23.299-23.299-23.299-23.299 10.452-23.299 23.299zm30.598 0c0 4.024-3.274 7.299-7.299 7.299s-7.299-3.274-7.299-7.299 3.274-7.299 7.299-7.299c4.024 0 7.299 3.274 7.299 7.299zm-119.935-71.276c-14.061 0-25.5 11.439-25.5 25.5 0 4.119.988 8.009 2.729 11.457l-30.577 30.577-4.579-4.578c-2.34-2.34-5.88-2.997-8.904-1.655l-13.618 6.048c-6.727-3.755-13.843-6.706-21.241-8.807l-5.349-13.896c-1.188-3.089-4.156-5.126-7.466-5.126h-28.949c-3.309 0-6.277 2.038-7.466 5.126l-5.35 13.896c-7.398 2.101-14.514 5.051-21.241 8.807l-13.618-6.048c-3.025-1.342-6.564-.686-8.904 1.655l-20.471 20.471c-2.34 2.34-2.998 5.879-1.655 8.904l6.047 13.616c-3.756 6.728-6.707 13.844-8.807 21.243l-13.894 5.348c-3.088 1.188-5.126 4.156-5.126 7.466v6.475h-11.41c-3.364-10.153-12.941-17.5-24.207-17.5-14.061 0-25.5 11.439-25.5 25.5s11.439 25.5 25.5 25.5c11.266 0 20.843-7.347 24.207-17.5h11.41v6.475c0 3.31 2.038 6.277 5.126 7.466l13.891 5.347c2.102 7.403 5.053 14.521 8.808 21.248l-6.045 13.612c-1.344 3.024-.686 6.564 1.654 8.904l4.145 4.145-6.324 6.257h-32.648c-.543-1.634-1.253-3.225-2.134-4.75-3.406-5.899-8.905-10.119-15.484-11.881-6.579-1.763-13.45-.858-19.35 2.547-12.177 7.03-16.364 22.657-9.333 34.834 4.718 8.172 13.306 12.745 22.126 12.745 4.323 0 8.702-1.099 12.707-3.411 5.475-3.161 9.499-8.127 11.46-14.083h35.95c2.107 0 4.129-.831 5.627-2.313l8.722-8.63 5.011 5.011c2.339 2.34 5.878 2.998 8.904 1.655l13.619-6.048c6.728 3.756 13.843 6.706 21.241 8.806l5.349 13.896c1.188 3.089 4.156 5.126 7.466 5.126h28.949c3.31 0 6.277-2.038 7.466-5.126l5.347-13.891c7.402-2.102 14.52-5.052 21.248-8.809l13.612 6.045c3.024 1.344 6.564.686 8.904-1.654l20.471-20.471c2.34-2.34 2.998-5.879 1.655-8.904l-6.048-13.618c3.756-6.729 6.706-13.843 8.806-21.241l13.896-5.349c3.089-1.188 5.126-4.156 5.126-7.466v-28.95c0-3.31-2.038-6.277-5.126-7.466l-13.891-5.347c-2.102-7.402-5.052-14.52-8.809-21.248l6.045-13.613c1.344-3.024.686-6.564-1.654-8.904l-4.579-4.579 30.577-30.576c3.448 1.742 7.338 2.73 11.457 2.73 14.061 0 25.5-11.439 25.5-25.5s-11.441-25.5-25.501-25.5zm-279.553 163.978c-5.238 0-9.5-4.262-9.5-9.5s4.261-9.5 9.5-9.5 9.5 4.262 9.5 9.5-4.262 9.5-9.5 9.5zm4.753 88.181c-4.536 2.619-10.358 1.059-12.977-3.477-2.619-4.537-1.06-10.358 3.477-12.978 2.197-1.269 4.755-1.607 7.209-.949 2.451.657 4.5 2.229 5.769 4.427 2.619 4.536 1.059 10.358-3.478 12.977zm244.779-106.663v17.964l-12.598 4.849c-2.462.947-4.298 3.047-4.909 5.614-2.05 8.616-5.452 16.821-10.11 24.387-1.383 2.247-1.57 5.03-.499 7.441l5.484 12.349-12.703 12.703-12.343-5.482c-2.411-1.072-5.196-.885-7.442.5-7.563 4.658-15.771 8.06-24.393 10.112-2.566.611-4.667 2.447-5.614 4.909l-4.848 12.593h-17.964l-4.849-12.598c-.947-2.462-3.048-4.298-5.614-4.909-8.616-2.05-16.821-5.452-24.387-10.11-2.247-1.383-5.03-1.57-7.441-.5l-12.35 5.485-12.703-12.703 5.482-12.343c1.071-2.411.884-5.196-.5-7.442-4.657-7.562-8.059-15.769-10.112-24.393-.611-2.566-2.447-4.666-4.909-5.613l-12.594-4.848v-17.964l12.597-4.849c2.461-.947 4.298-3.048 4.909-5.614 2.051-8.618 5.453-16.824 10.111-24.389 1.383-2.247 1.57-5.031.5-7.442l-5.484-12.347 12.703-12.703 12.349 5.484c2.41 1.07 5.195.884 7.442-.5 7.563-4.658 15.769-8.059 24.387-10.11 2.566-.611 4.666-2.447 5.613-4.909l4.85-12.599h17.964l4.849 12.598c.947 2.462 3.047 4.298 5.614 4.909 8.617 2.051 16.822 5.453 24.387 10.11 2.246 1.382 5.031 1.569 7.441.5l12.349-5.485 12.703 12.704-5.482 12.344c-1.071 2.411-.884 5.195.499 7.442 4.659 7.564 8.061 15.771 10.112 24.393.611 2.566 2.447 4.667 4.909 5.614zm30.021-110.496c-5.238 0-9.5-4.262-9.5-9.5s4.262-9.5 9.5-9.5 9.5 4.262 9.5 9.5-4.262 9.5-9.5 9.5zm-128.978 60.99c-32.25 0-58.488 26.238-58.488 58.489 0 32.25 26.237 58.487 58.488 58.487s58.488-26.237 58.488-58.487c0-32.252-26.238-58.489-58.488-58.489zm0 100.976c-23.428 0-42.488-19.06-42.488-42.487 0-23.428 19.06-42.489 42.488-42.489s42.488 19.061 42.488 42.489c0 23.427-19.06 42.487-42.488 42.487zm-103.687-271.498 53.837 67.126c-.042.747-.069 1.498-.069 2.255 0 2.573.256 5.086.729 7.523l-17.195 12.84c-.448.335-.86.716-1.229 1.136l-38.138 43.5c-2.465 2.812-2.653 6.957-.453 9.98 1.543 2.122 3.973 3.294 6.472 3.294 1.063 0 2.139-.212 3.164-.654l53.423-23.03c.575-.248 1.118-.562 1.619-.936l20.856-15.573c3.246.868 6.652 1.337 10.168 1.337 21.734 0 39.416-17.682 39.416-39.416 0-19.15-13.73-35.147-31.862-38.681l-42.102-70.177 116.105-29.627h50.316c11.835 0 21.463-9.628 21.463-21.463v-53.467c0-4.418-3.582-8-8-8h-140.622c-4.418 0-8 3.582-8 8v25.592l-64.921 31.225c-4.449-1.46-9.194-2.261-14.125-2.261-25.034 0-45.4 20.365-45.4 45.398.001 21.293 14.739 39.2 34.548 44.079zm20.697.233c12.785-2.839 23.555-11.079 29.785-22.199l32.042 53.408c-9.628 2.709-17.775 8.984-22.91 17.312zm32.645 109.416-20.009 8.625 14.216-16.214 13.415-10.017c1.851 2.624 4.013 5.011 6.434 7.111zm63.257-40.268c0 12.912-10.504 23.416-23.416 23.416-12.911 0-23.415-10.504-23.415-23.416s10.504-23.416 23.415-23.416c12.912.001 23.416 10.504 23.416 23.416zm-10.701-205.414h124.621v45.466c0 2.961-2.502 5.463-5.463 5.463h-113.695c-2.961 0-5.463-2.502-5.463-5.463zm-16 35.346v10.119c0 11.46 9.035 20.823 20.351 21.407l-55.343 14.122c-2.176-8.743-6.89-16.491-13.316-22.414zm-79.045 27.21c16.211 0 29.399 13.188 29.399 29.398 0 16.211-13.188 29.4-29.399 29.4s-29.4-13.188-29.4-29.4c0-16.21 13.188-29.398 29.4-29.398zm0 52.697c12.847 0 23.299-10.452 23.299-23.299s-10.452-23.299-23.299-23.299-23.299 10.452-23.299 23.299 10.452 23.299 23.299 23.299zm0-30.598c4.024 0 7.299 3.274 7.299 7.299s-3.274 7.299-7.299 7.299-7.299-3.274-7.299-7.299 3.274-7.299 7.299-7.299zm122.414-59.19c0-4.418 3.582-8 8-8h53.883c4.418 0 8 3.582 8 8s-3.582 8-8 8h-53.883c-4.419 0-8-3.582-8-8z"></path></svg>