<svg xmlns="http://www.w3.org/2000/svg" fill="none" height="512" viewBox="0 0 24 24" width="512"><g fill="rgb(0,0,0)"><path d="m8.74992 5.5c0-.41421.33579-.75.75-.75h8.99998c.4142 0 .75.33579.75.75v9c0 .4142-.3358.75-.75.75s-.75-.3358-.75-.75v-8.25h-8.24998c-.41421 0-.75-.33579-.75-.75z"></path><path d="m19.0302 4.96967c.2929.29289.2929.76777 0 1.06066l-12.7279 12.72797c-.29289.2929-.76776.2929-1.06066 0-.29289-.2929-.29289-.7678 0-1.0607l12.72786-12.72793c.2929-.29289.7678-.29289 1.0607 0z"></path></g></svg>